<svg width="665" height="647" viewBox="0 0 665 647" fill="none" xmlns="http://www.w3.org/2000/svg">
<g clip-path="url(#clip0_1_631)">
<path opacity="0.2" d="M209.302 303.672V311.324H202.162C204.401 308.697 206.781 306.146 209.302 303.672Z" fill="#584DFC"/>
<path opacity="0.2" d="M222.418 301.731H212.826V311.323H222.418V301.731Z" fill="#584DFC"/>
<path opacity="0.2" d="M235.526 301.731H225.934V311.323H235.526V301.731Z" fill="#584DFC"/>
<path opacity="0.2" d="M248.638 301.731H239.046V311.323H248.638V301.731Z" fill="#584DFC"/>
<path opacity="0.2" d="M261.747 301.731H252.155V311.323H261.747V301.731Z" fill="#584DFC"/>
<path opacity="0.2" d="M274.859 301.731H265.267V311.323H274.859V301.731Z" fill="#584DFC"/>
<path d="M287.971 301.731H278.379V311.323H287.971V301.731Z" fill="#584DFC"/>
<path opacity="0.2" d="M301.079 301.731H291.487V311.323H301.079V301.731Z" fill="#584DFC"/>
<path opacity="0.2" d="M314.191 301.731H304.599V311.323H314.191V301.731Z" fill="#584DFC"/>
<path opacity="0.2" d="M327.299 301.731H317.707V311.323H327.299V301.731Z" fill="#584DFC"/>
<path d="M340.411 301.731H330.819V311.323H340.411V301.731Z" fill="#584DFC"/>
<path opacity="0.2" d="M353.523 301.731H343.931V311.323H353.523V301.731Z" fill="#584DFC"/>
<path opacity="0.2" d="M366.631 301.731H357.039V311.323H366.631V301.731Z" fill="#584DFC"/>
<path opacity="0.2" d="M379.743 301.731H370.151V311.323H379.743V301.731Z" fill="#584DFC"/>
<path opacity="0.2" d="M392.855 301.731H383.263V311.323H392.855V301.731Z" fill="#584DFC"/>
<path opacity="0.2" d="M405.963 301.731H396.371V311.323H405.963V301.731Z" fill="#584DFC"/>
<path opacity="0.2" d="M419.075 301.731H409.483V311.323H419.075V301.731Z" fill="#584DFC"/>
<path d="M432.184 301.731H422.592V311.323H432.184V301.731Z" fill="#584DFC"/>
<path d="M445.295 301.731H435.703V311.323H445.295V301.731Z" fill="#584DFC"/>
<path opacity="0.2" d="M458.407 301.731H448.815V311.323H458.407V301.731Z" fill="#584DFC"/>
<path opacity="0.2" d="M471.516 301.731H461.924V311.323H471.516V301.731Z" fill="#584DFC"/>
<path d="M484.628 301.731H475.036V311.323H484.628V301.731Z" fill="#584DFC"/>
<path d="M497.736 301.731H488.144V311.323H497.736V301.731Z" fill="#584DFC"/>
<path d="M196.203 318.923V323.473H193.123C194.1 321.924 195.127 320.407 196.203 318.923Z" fill="#584DFC"/>
<path opacity="0.2" d="M209.306 313.881H199.714V323.473H209.306V313.881Z" fill="#584DFC"/>
<path d="M222.418 313.881H212.826V323.473H222.418V313.881Z" fill="#584DFC"/>
<path opacity="0.2" d="M235.526 313.881H225.934V323.473H235.526V313.881Z" fill="#584DFC"/>
<path opacity="0.7" d="M248.638 313.881H239.046V323.473H248.638V313.881Z" fill="#584DFC"/>
<path opacity="0.2" d="M261.747 313.881H252.155V323.473H261.747V313.881Z" fill="#584DFC"/>
<path opacity="0.4" d="M274.859 313.881H265.267V323.473H274.859V313.881Z" fill="#584DFC"/>
<path d="M287.971 313.881H278.379V323.473H287.971V313.881Z" fill="#584DFC"/>
<path opacity="0.4" d="M301.079 313.881H291.487V323.473H301.079V313.881Z" fill="#584DFC"/>
<path opacity="0.2" d="M314.191 313.881H304.599V323.473H314.191V313.881Z" fill="#584DFC"/>
<path opacity="0.4" d="M327.299 313.881H317.707V323.473H327.299V313.881Z" fill="#584DFC"/>
<path d="M340.411 313.881H330.819V323.473H340.411V313.881Z" fill="#584DFC"/>
<path opacity="0.4" d="M353.523 313.881H343.931V323.473H353.523V313.881Z" fill="#584DFC"/>
<path opacity="0.4" d="M366.631 313.881H357.039V323.473H366.631V313.881Z" fill="#584DFC"/>
<path opacity="0.2" d="M379.743 313.881H370.151V323.473H379.743V313.881Z" fill="#584DFC"/>
<path opacity="0.4" d="M392.855 313.881H383.263V323.473H392.855V313.881Z" fill="#584DFC"/>
<path opacity="0.4" d="M405.963 313.881H396.371V323.473H405.963V313.881Z" fill="#584DFC"/>
<path opacity="0.2" d="M419.075 313.881H409.483V323.473H419.075V313.881Z" fill="#584DFC"/>
<path opacity="0.2" d="M432.184 313.881H422.592V323.473H432.184V313.881Z" fill="#584DFC"/>
<path opacity="0.4" d="M445.295 313.881H435.703V323.473H445.295V313.881Z" fill="#584DFC"/>
<path opacity="0.2" d="M458.407 313.881H448.815V323.473H458.407V313.881Z" fill="#584DFC"/>
<path d="M471.516 313.881H461.924V323.473H471.516V313.881Z" fill="#584DFC"/>
<path d="M484.628 313.881H475.036V323.473H484.628V313.881Z" fill="#584DFC"/>
<path d="M497.736 313.881H488.144V323.473H497.736V313.881Z" fill="#584DFC"/>
<path opacity="0.2" d="M169.974 328.922V335.622H160.382V332.352C163.486 330.962 166.693 329.816 169.974 328.923V328.922Z" fill="#584DFC"/>
<path opacity="0.2" d="M183.086 326.756V335.626H173.494V328.072L183.086 326.756Z" fill="#584DFC"/>
<path d="M196.194 326.034H186.602V335.626H196.194V326.034Z" fill="#584DFC"/>
<path opacity="0.7" d="M209.306 326.034H199.714V335.626H209.306V326.034Z" fill="#584DFC"/>
<path d="M222.418 326.034H212.826V335.626H222.418V326.034Z" fill="#584DFC"/>
<path opacity="0.7" d="M235.526 326.034H225.934V335.626H235.526V326.034Z" fill="#584DFC"/>
<path opacity="0.7" d="M248.638 326.034H239.046V335.626H248.638V326.034Z" fill="#584DFC"/>
<path opacity="0.2" d="M261.747 326.034H252.155V335.626H261.747V326.034Z" fill="#584DFC"/>
<path opacity="0.4" d="M274.859 326.034H265.267V335.626H274.859V326.034Z" fill="#584DFC"/>
<path opacity="0.4" d="M287.971 326.034H278.379V335.626H287.971V326.034Z" fill="#584DFC"/>
<path d="M301.079 326.034H291.487V335.626H301.079V326.034Z" fill="#584DFC"/>
<path opacity="0.2" d="M314.191 326.034H304.599V335.626H314.191V326.034Z" fill="#584DFC"/>
<path opacity="0.4" d="M327.299 326.034H317.707V335.626H327.299V326.034Z" fill="#584DFC"/>
<path d="M340.411 326.034H330.819V335.626H340.411V326.034Z" fill="#584DFC"/>
<path opacity="0.2" d="M353.523 326.034H343.931V335.626H353.523V326.034Z" fill="#584DFC"/>
<path opacity="0.4" d="M366.631 326.034H357.039V335.626H366.631V326.034Z" fill="#584DFC"/>
<path opacity="0.2" d="M379.743 326.034H370.151V335.626H379.743V326.034Z" fill="#584DFC"/>
<path d="M392.855 326.034H383.263V335.626H392.855V326.034Z" fill="#584DFC"/>
<path opacity="0.2" d="M405.963 326.034H396.371V335.626H405.963V326.034Z" fill="#584DFC"/>
<path opacity="0.7" d="M419.075 326.034H409.483V335.626H419.075V326.034Z" fill="#584DFC"/>
<path opacity="0.7" d="M432.184 326.034H422.592V335.626H432.184V326.034Z" fill="#584DFC"/>
<path opacity="0.4" d="M445.295 326.034H435.703V335.626H445.295V326.034Z" fill="#584DFC"/>
<path opacity="0.2" d="M458.407 326.034H448.815V335.626H458.407V326.034Z" fill="#584DFC"/>
<path d="M471.516 326.034H461.924V335.626H471.516V326.034Z" fill="#584DFC"/>
<path d="M484.628 326.034H475.036V335.626H484.628V326.034Z" fill="#584DFC"/>
<path d="M497.736 326.034H488.144V335.626H497.736V326.034Z" fill="#584DFC"/>
<path opacity="0.2" d="M169.974 338.183H160.382V347.775H169.974V338.183Z" fill="#584DFC"/>
<path opacity="0.2" d="M183.086 338.183H173.494V347.775H183.086V338.183Z" fill="#584DFC"/>
<path opacity="0.2" d="M196.194 338.183H186.602V347.775H196.194V338.183Z" fill="#584DFC"/>
<path opacity="0.2" d="M209.306 338.183H199.714V347.775H209.306V338.183Z" fill="#584DFC"/>
<path d="M222.418 338.183H212.826V347.775H222.418V338.183Z" fill="#584DFC"/>
<path opacity="0.7" d="M235.526 338.183H225.934V347.775H235.526V338.183Z" fill="#584DFC"/>
<path opacity="0.7" d="M248.638 338.183H239.046V347.775H248.638V338.183Z" fill="#584DFC"/>
<path opacity="0.2" d="M261.747 338.183H252.155V347.775H261.747V338.183Z" fill="#584DFC"/>
<path opacity="0.2" d="M274.859 338.183H265.267V347.775H274.859V338.183Z" fill="#584DFC"/>
<path opacity="0.4" d="M287.971 338.183H278.379V347.775H287.971V338.183Z" fill="#584DFC"/>
<path opacity="0.4" d="M301.079 338.183H291.487V347.775H301.079V338.183Z" fill="#584DFC"/>
<path d="M314.191 338.183H304.599V347.775H314.191V338.183Z" fill="#584DFC"/>
<path opacity="0.2" d="M327.299 338.183H317.707V347.775H327.299V338.183Z" fill="#584DFC"/>
<path opacity="0.4" d="M340.411 338.183H330.819V347.775H340.411V338.183Z" fill="#584DFC"/>
<path opacity="0.4" d="M353.523 338.183H343.931V347.775H353.523V338.183Z" fill="#584DFC"/>
<path opacity="0.4" d="M366.631 338.183H357.039V347.775H366.631V338.183Z" fill="#584DFC"/>
<path opacity="0.4" d="M379.743 338.183H370.151V347.775H379.743V338.183Z" fill="#584DFC"/>
<path opacity="0.2" d="M392.855 338.183H383.263V347.775H392.855V338.183Z" fill="#584DFC"/>
<path opacity="0.2" d="M405.963 338.183H396.371V347.775H405.963V338.183Z" fill="#584DFC"/>
<path opacity="0.2" d="M419.075 338.183H409.483V347.775H419.075V338.183Z" fill="#584DFC"/>
<path opacity="0.2" d="M432.184 338.183H422.592V347.775H432.184V338.183Z" fill="#584DFC"/>
<path opacity="0.7" d="M445.295 338.183H435.703V347.775H445.295V338.183Z" fill="#584DFC"/>
<path opacity="0.7" d="M458.407 338.183H448.815V347.775H458.407V338.183Z" fill="#584DFC"/>
<path opacity="0.4" d="M471.516 338.183H461.924V347.775H471.516V338.183Z" fill="#584DFC"/>
<path opacity="0.2" d="M484.628 338.183H475.036V347.775H484.628V338.183Z" fill="#584DFC"/>
<path d="M497.736 338.183H488.144V347.775H497.736V338.183Z" fill="#584DFC"/>
<path opacity="0.2" d="M169.974 350.336H160.382V359.928H169.974V350.336Z" fill="#584DFC"/>
<path opacity="0.2" d="M183.086 350.336H173.494V359.928H183.086V350.336Z" fill="#584DFC"/>
<path opacity="0.4" d="M196.194 350.336H186.602V359.928H196.194V350.336Z" fill="#584DFC"/>
<path opacity="0.2" d="M209.306 350.336H199.714V359.928H209.306V350.336Z" fill="#584DFC"/>
<path opacity="0.2" d="M222.418 350.336H212.826V359.928H222.418V350.336Z" fill="#584DFC"/>
<path opacity="0.7" d="M235.526 350.336H225.934V359.928H235.526V350.336Z" fill="#584DFC"/>
<path opacity="0.7" d="M248.638 350.336H239.046V359.928H248.638V350.336Z" fill="#584DFC"/>
<path opacity="0.2" d="M261.747 350.336H252.155V359.928H261.747V350.336Z" fill="#584DFC"/>
<path opacity="0.2" d="M274.859 350.336H265.267V359.928H274.859V350.336Z" fill="#584DFC"/>
<path opacity="0.4" d="M287.971 350.336H278.379V359.928H287.971V350.336Z" fill="#584DFC"/>
<path d="M301.079 350.336H291.487V359.928H301.079V350.336Z" fill="#584DFC"/>
<path opacity="0.2" d="M314.191 350.336H304.599V359.928H314.191V350.336Z" fill="#584DFC"/>
<path d="M327.299 350.336H317.707V359.928H327.299V350.336Z" fill="#584DFC"/>
<path d="M340.411 350.336H330.819V359.928H340.411V350.336Z" fill="#584DFC"/>
<path d="M353.523 350.336H343.931V359.928H353.523V350.336Z" fill="#584DFC"/>
<path opacity="0.2" d="M366.631 350.336H357.039V359.928H366.631V350.336Z" fill="#584DFC"/>
<path d="M379.743 350.336H370.151V359.928H379.743V350.336Z" fill="#584DFC"/>
<path opacity="0.2" d="M392.855 350.336H383.263V359.928H392.855V350.336Z" fill="#584DFC"/>
<path opacity="0.2" d="M405.963 350.336H396.371V359.928H405.963V350.336Z" fill="#584DFC"/>
<path opacity="0.2" d="M419.075 350.336H409.483V359.928H419.075V350.336Z" fill="#584DFC"/>
<path opacity="0.2" d="M432.184 350.336H422.592V359.928H432.184V350.336Z" fill="#584DFC"/>
<path opacity="0.2" d="M445.295 350.336H435.703V359.928H445.295V350.336Z" fill="#584DFC"/>
<path opacity="0.7" d="M458.407 350.336H448.815V359.928H458.407V350.336Z" fill="#584DFC"/>
<path opacity="0.2" d="M471.516 350.336H461.924V359.928H471.516V350.336Z" fill="#584DFC"/>
<path opacity="0.2" d="M484.628 350.336H475.036V359.928H484.628V350.336Z" fill="#584DFC"/>
<path d="M497.736 350.336H488.144V359.928H497.736V350.336Z" fill="#584DFC"/>
<path opacity="0.2" d="M169.974 362.485H160.382V372.077H169.974V362.485Z" fill="#584DFC"/>
<path opacity="0.2" d="M183.086 362.485H173.494V372.077H183.086V362.485Z" fill="#584DFC"/>
<path opacity="0.2" d="M196.194 362.485H186.602V372.077H196.194V362.485Z" fill="#584DFC"/>
<path opacity="0.4" d="M209.306 362.485H199.714V372.077H209.306V362.485Z" fill="#584DFC"/>
<path opacity="0.2" d="M222.418 362.485H212.826V372.077H222.418V362.485Z" fill="#584DFC"/>
<path opacity="0.2" d="M235.526 362.485H225.934V372.077H235.526V362.485Z" fill="#584DFC"/>
<path opacity="0.7" d="M248.638 362.485H239.046V372.077H248.638V362.485Z" fill="#584DFC"/>
<path opacity="0.2" d="M261.747 362.485H252.155V372.077H261.747V362.485Z" fill="#584DFC"/>
<path opacity="0.2" d="M274.859 362.485H265.267V372.077H274.859V362.485Z" fill="#584DFC"/>
<path opacity="0.2" d="M287.971 362.485H278.379V372.077H287.971V362.485Z" fill="#584DFC"/>
<path d="M301.079 362.485H291.487V372.077H301.079V362.485Z" fill="#584DFC"/>
<path opacity="0.2" d="M314.191 362.485H304.599V372.077H314.191V362.485Z" fill="#584DFC"/>
<path d="M327.299 362.485H317.707V372.077H327.299V362.485Z" fill="#584DFC"/>
<path d="M340.411 362.485H330.819V372.077H340.411V362.485Z" fill="#584DFC"/>
<path opacity="0.2" d="M353.523 362.485H343.931V372.077H353.523V362.485Z" fill="#584DFC"/>
<path opacity="0.2" d="M366.631 362.485H357.039V372.077H366.631V362.485Z" fill="#584DFC"/>
<path opacity="0.2" d="M379.743 362.485H370.151V372.077H379.743V362.485Z" fill="#584DFC"/>
<path opacity="0.2" d="M392.855 362.485H383.263V372.077H392.855V362.485Z" fill="#584DFC"/>
<path opacity="0.2" d="M405.963 362.485H396.371V372.077H405.963V362.485Z" fill="#584DFC"/>
<path opacity="0.2" d="M419.075 362.485H409.483V372.077H419.075V362.485Z" fill="#584DFC"/>
<path opacity="0.2" d="M432.184 362.485H422.592V372.077H432.184V362.485Z" fill="#584DFC"/>
<path opacity="0.2" d="M445.295 362.485H435.703V372.077H445.295V362.485Z" fill="#584DFC"/>
<path opacity="0.2" d="M458.407 362.485H448.815V372.077H458.407V362.485Z" fill="#584DFC"/>
<path opacity="0.2" d="M471.516 362.485H461.924V372.077H471.516V362.485Z" fill="#584DFC"/>
<path opacity="0.4" d="M484.628 362.485H475.036V372.077H484.628V362.485Z" fill="#584DFC"/>
<path d="M497.736 362.485H488.144V372.077H497.736V362.485Z" fill="#584DFC"/>
<path opacity="0.7" d="M169.974 374.639H160.382V384.231H169.974V374.639Z" fill="#584DFC"/>
<path opacity="0.7" d="M183.086 374.639H173.494V384.231H183.086V374.639Z" fill="#584DFC"/>
<path opacity="0.7" d="M196.194 374.639H186.602V384.231H196.194V374.639Z" fill="#584DFC"/>
<path opacity="0.7" d="M209.306 374.639H199.714V384.231H209.306V374.639Z" fill="#584DFC"/>
<path opacity="0.7" d="M222.418 374.639H212.826V384.231H222.418V374.639Z" fill="#584DFC"/>
<path opacity="0.2" d="M235.526 374.639H225.934V384.231H235.526V374.639Z" fill="#584DFC"/>
<path opacity="0.2" d="M248.638 374.639H239.046V384.231H248.638V374.639Z" fill="#584DFC"/>
<path opacity="0.2" d="M261.747 374.639H252.155V384.231H261.747V374.639Z" fill="#584DFC"/>
<path opacity="0.2" d="M274.859 374.639H265.267V384.231H274.859V374.639Z" fill="#584DFC"/>
<path opacity="0.2" d="M287.971 374.639H278.379V384.231H287.971V374.639Z" fill="#584DFC"/>
<path opacity="0.2" d="M301.079 374.639H291.487V384.231H301.079V374.639Z" fill="#584DFC"/>
<path d="M314.191 374.639H304.599V384.231H314.191V374.639Z" fill="#584DFC"/>
<path opacity="0.2" d="M327.299 374.639H317.707V384.231H327.299V374.639Z" fill="#584DFC"/>
<path opacity="0.2" d="M340.411 374.639H330.819V384.231H340.411V374.639Z" fill="#584DFC"/>
<path opacity="0.2" d="M353.523 374.639H343.931V384.231H353.523V374.639Z" fill="#584DFC"/>
<path d="M366.631 374.639H357.039V384.231H366.631V374.639Z" fill="#584DFC"/>
<path opacity="0.2" d="M379.743 374.639H370.151V384.231H379.743V374.639Z" fill="#584DFC"/>
<path opacity="0.2" d="M392.855 374.639H383.263V384.231H392.855V374.639Z" fill="#584DFC"/>
<path opacity="0.2" d="M405.963 374.639H396.371V384.231H405.963V374.639Z" fill="#584DFC"/>
<path opacity="0.2" d="M419.075 374.639H409.483V384.231H419.075V374.639Z" fill="#584DFC"/>
<path opacity="0.2" d="M432.184 374.639H422.592V384.231H432.184V374.639Z" fill="#584DFC"/>
<path opacity="0.2" d="M445.295 374.639H435.703V384.231H445.295V374.639Z" fill="#584DFC"/>
<path opacity="0.2" d="M458.407 374.639H448.815V384.231H458.407V374.639Z" fill="#584DFC"/>
<path opacity="0.2" d="M471.516 374.639H461.924V384.231H471.516V374.639Z" fill="#584DFC"/>
<path opacity="0.2" d="M484.628 374.639H475.036V384.231H484.628V374.639Z" fill="#584DFC"/>
<path d="M497.736 374.639H488.144V384.231H497.736V374.639Z" fill="#584DFC"/>
<path d="M396.89 409.929C404.132 409.929 410.002 404.059 410.002 396.817C410.002 389.575 404.132 383.705 396.89 383.705C389.649 383.705 383.778 389.575 383.778 396.817C383.778 404.059 389.649 409.929 396.89 409.929Z" fill="#767D9F"/>
<path d="M396.209 380.136C397.518 385.847 398.628 391.6 399.541 397.396C399.957 399.098 399.921 400.879 399.436 402.563C398.778 403.859 397.965 405.07 397.014 406.169C396.057 407.293 395.7 408.808 396.055 410.241C396.563 411.602 398.044 412.347 399.455 412.73C403.501 413.821 407.814 413.03 411.841 411.846C413.665 411.377 415.413 410.652 417.034 409.695C418.704 408.553 420.186 407.158 421.426 405.559C427.296 398.441 431.139 389.898 434.756 381.407C430.041 381.836 425.407 379.969 422.306 376.391C420.825 374.65 419.738 372.225 420.572 370.096C418.124 371.438 415.218 371.529 412.582 372.446C410.947 373.071 409.374 373.845 407.882 374.759C406.082 375.8 404.292 376.86 402.512 377.94C400.481 379.166 398.575 380.256 396.209 380.136Z" fill="#AE6E79"/>
<path d="M423.633 389.98C421.333 394.451 418.346 398.749 414.078 401.411C409.81 404.073 404.065 404.795 399.789 402.163C397.683 400.877 396.089 398.922 394.25 397.275C392.411 395.628 390.114 394.218 387.643 394.432C384.921 394.669 382.789 396.793 380.965 398.832C378.111 401.85 375.626 405.198 373.565 408.804C369.805 415.836 368.914 424.056 369.079 432.027C369.244 439.998 370.399 447.927 370.425 455.901C370.463 465.708 368.801 475.435 367.12 485.095C382.575 483.195 398.048 487.351 413.536 488.927C423.448 489.946 433.436 489.927 443.4 489.897C445.152 489.897 447.017 489.852 448.476 488.882C449.368 488.23 450.088 487.373 450.576 486.382C451.843 483.78 452.627 480.969 452.889 478.087C453.706 470.837 454.05 463.542 453.919 456.247C453.987 438.574 454.051 420.837 451.806 403.303C451.393 398.966 450.413 394.702 448.892 390.62C447.349 386.511 444.491 383.028 440.762 380.712C438.337 379.321 432.715 376.899 429.862 378.302C426.652 379.865 425.17 386.987 423.633 389.98Z" fill="#767D9F"/>
<path d="M424.776 439.886C424.193 428.986 421.821 417.343 426.87 407.664C428.111 405.288 423.659 402.321 425.035 400.019C426.715 397.213 427.988 394.183 428.818 391.019C429.175 389.947 429.26 388.803 429.063 387.691C428.563 385.702 426.596 384.517 424.927 383.307C423.084 381.968 422.137 377.888 421.543 375.681C420.949 373.474 426.27 376.132 428.409 375.346C431.379 374.259 435.155 374.946 438.118 376.046C439.806 376.564 441.568 376.803 443.333 376.753C446.755 376.928 450.185 376.846 453.595 376.509C455.11 376.239 456.647 376.107 458.186 376.114C462.101 376.336 465.504 379.014 467.82 382.179C470.136 385.344 471.611 389.034 473.509 392.463C475.092 395.321 476.98 398.021 478.33 400.995C479.457 403.673 480.36 406.44 481.03 409.268L482.959 416.484C483.297 417.516 483.457 418.598 483.433 419.684C483.268 420.831 482.885 421.937 482.305 422.94C480.343 426.745 477.99 430.335 475.284 433.653C471.227 438.628 466.301 443.114 463.891 449.07C463.013 451.417 462.363 453.844 461.951 456.316C460.025 466.152 458.656 476.088 457.851 486.078C453.457 484.045 448.852 482.505 444.119 481.487C441.76 480.982 439.374 480.606 436.974 480.359C434.874 480.141 432.161 480.559 430.16 479.983C426.813 479.032 426.445 473.372 425.937 470.409C425.213 465.681 424.879 460.902 424.937 456.12C424.897 450.7 425.066 445.289 424.776 439.886Z" fill="#4C4981"/>
<path d="M351.282 419.494C352.865 428.519 354.61 437.57 358.05 446.049C357.964 446.132 357.877 446.207 357.791 446.282C357.491 446.542 357.171 446.782 356.84 447.034C356.027 447.517 355.27 448.09 354.584 448.741C354.342 449.012 354.151 449.324 354.02 449.662C353.781 450.197 353.781 450.808 354.02 451.343C352.226 452.136 350.143 451.892 348.132 451.817C346.469 451.604 344.782 451.938 343.326 452.768C341.393 454.099 340.81 456.656 340.498 458.98C340.383 459.827 340.283 460.676 340.198 461.526C340.118 462.315 340.051 463.107 339.998 463.902C339.828 466.532 339.804 469.169 339.927 471.802C339.947 472.283 339.973 472.765 340.006 473.246C333.862 473.099 328.263 469.896 322.965 466.782C321.7 466.159 320.591 465.26 319.72 464.15C318.996 462.998 318.689 461.632 318.851 460.281C318.858 460.089 318.878 459.898 318.911 459.709C319.08 458.593 319.368 457.499 319.772 456.445C321.43 451.957 323.873 447.8 326.988 444.168C328.334 442.596 329.85 441.058 330.477 439.084C330.752 438.223 330.853 437.309 331.131 436.452C332.379 432.737 336.884 430.981 338.426 427.375C338.719 426.481 339.058 425.602 339.441 424.743C339.861 424.055 340.404 423.45 341.041 422.957C341.315 422.728 341.601 422.506 341.883 422.284C344.525 420.213 347.071 418.026 349.52 415.722C349.977 415.293 350.428 414.86 350.874 414.422C350.814 416.124 350.948 417.827 351.274 419.498L351.282 419.494Z" fill="#4C4981"/>
<path d="M389.175 392.804C388.634 393.376 388.047 393.913 387.475 394.447L387.321 394.586L386.712 395.15C385.606 396.104 384.65 397.218 383.873 398.455L383.809 398.56C381.891 401.993 382.602 406.22 383.136 410.119C383.798 414.978 384.096 419.88 384.027 424.784C383.927 431.552 383.127 438.276 383.117 445.037C383.117 446.57 383.15 448.104 383.217 449.637C383.326 452.13 383.517 454.619 383.74 457.109C383.985 459.839 384.278 462.565 384.552 465.291C384.77 467.4 384.977 469.506 385.152 471.612C385.239 472.703 385.321 473.789 385.389 474.88C385.468 476.159 385.532 477.441 385.569 478.719C385.595 479.531 385.61 480.34 385.61 481.152V482.532C385.61 483.412 385.586 484.289 385.539 485.164C385.489 486.289 385.413 487.417 385.31 488.548C385.316 489.795 384.897 491.008 384.122 491.985C384.069 492.038 384.013 492.085 383.956 492.135L382.738 491.985C374.339 490.98 365.86 490.828 357.431 491.534C357.615 490.263 357.784 488.996 357.95 487.721C358.025 487.121 358.1 486.514 358.172 485.909C358.255 485.217 358.334 484.525 358.409 483.833C358.496 483.081 358.576 482.329 358.65 481.577C358.845 479.639 359.017 477.7 359.165 475.76C359.383 472.93 359.55 470.095 359.665 467.254C359.72 465.898 359.763 464.541 359.793 463.182C359.836 461.497 359.856 459.811 359.853 458.124C359.853 456.485 359.839 454.843 359.812 453.198C359.812 452.657 359.789 452.115 359.744 451.577C359.711 451.093 359.645 450.612 359.544 450.137C359.265 449.042 358.887 447.975 358.416 446.948C358.333 446.748 358.254 446.572 358.175 446.365C358.13 446.265 358.089 446.158 358.047 446.057C360.134 443.991 361.885 441.611 363.236 439.003C365.636 434.908 368.098 430.633 368.5 425.903C368.902 421.173 366.552 415.859 362.032 414.416C360.781 414.105 359.512 413.871 358.232 413.716C356.47 413.475 354.757 412.953 353.159 412.171C352.407 412.943 351.655 413.701 350.903 414.446C350.949 413.31 351.226 412.196 351.719 411.171L352.253 411.197C352.21 411.077 352.189 410.949 352.193 410.821C352.276 410.264 352.594 409.769 353.065 409.46C354.836 407.96 357.622 407.621 358.739 405.587C359.093 404.69 359.4 403.775 359.66 402.846C360.739 400.315 363.838 399.383 365.703 397.36C367.568 395.337 368.034 392.472 369.542 390.216C370.668 388.569 372.231 387.267 374.054 386.456C374.204 386.385 374.354 386.313 374.513 386.249C377.727 385.047 381.146 384.493 384.575 384.617C385.831 384.617 389.087 384.655 390.682 385.29C390.942 385.382 391.181 385.527 391.382 385.715C393.074 387.559 390.431 391.466 389.175 392.804Z" fill="#4C4981"/>
<path d="M351.843 410.902C357.71 409.136 364.041 409.795 369.418 412.733C372.173 414.175 374.468 416.361 376.043 419.043C378.28 423.104 378.183 428 378.025 432.636C378.107 434.964 377.699 437.283 376.825 439.442C375.641 441.852 373.407 443.507 371.125 444.861C369.697 445.77 368.133 446.446 366.492 446.861C363.965 447.41 361.341 446.944 358.792 446.485C356.025 445.974 353.054 445.357 351.132 443.296C350.087 442.033 349.288 440.586 348.778 439.028C347.903 436.835 347.026 434.644 346.146 432.455C344.623 428.655 344.108 425.491 346.12 421.787C347.034 420.099 348.151 418.519 349.053 416.82C349.504 415.96 351.125 411.125 351.843 410.902Z" fill="#4C4981"/>
<path d="M509.878 475.906V487.149C502.165 490.353 493.89 491.989 485.538 491.962H384.128C384.075 492.015 384.019 492.062 383.963 492.112L382.745 491.962H202.354C188.048 492.053 173.988 488.236 161.691 480.923V463.756L248.447 453.743H248.515L299.038 458.022L312.112 459.15L318.903 459.725L332.959 460.917L340.19 461.53L350.719 462.43L352.201 462.554L359.789 463.197L370.089 464.043L384.566 465.269L408.699 467.318L425.676 468.758L453.55 471.123L458.85 471.57L459.422 471.619L459.922 471.66L466.922 472.254L474.608 472.908L475.499 472.983L509.878 475.906Z" fill="#504F60"/>
<path d="M407.975 475.492L299.251 456.935L295.036 478.252L344.874 484.22L360.22 486.141L402.433 477.827L407.975 475.492Z" fill="#9C9CA1"/>
<path d="M351.696 485.073L406.166 474.834C406.718 474.728 407.288 474.875 407.721 475.234C408.153 475.593 408.402 476.126 408.4 476.688C408.403 477.596 407.755 478.377 406.862 478.542L353.662 488.503L351.696 485.073Z" fill="#9C9CA1"/>
<path d="M375.325 452.875C377.03 452.786 378.704 452.387 380.266 451.698C382.146 450.762 383.609 449.149 385.35 447.96C389.324 445.418 394.255 444.873 398.688 446.486C403.07 448.125 406.797 451.15 409.303 455.101C411.003 457.677 412.285 460.963 411.082 463.801C410.669 464.67 410.149 465.484 409.533 466.223L406.397 470.323C405.801 471.185 405.085 471.956 404.269 472.613C403.046 473.405 401.651 473.89 400.2 474.027C396.383 474.584 392.5 474.268 388.652 474.527C382.045 474.967 375.593 477.095 368.971 477.027C365.169 476.865 361.391 476.337 357.69 475.451L341.231 472.067C338.366 471.48 335.131 470.623 333.778 468.025C333.247 466.815 332.978 465.507 332.988 464.186C332.788 460.561 332.988 456.53 335.5 453.917C337.862 451.465 341.6 450.691 344.416 448.878C347.868 446.656 349.007 447.378 352.647 449.043C359.748 452.259 367.561 453.58 375.325 452.878V452.875Z" fill="#AE6E79"/>
<path opacity="0.05" d="M375.325 452.875C377.03 452.786 378.704 452.387 380.266 451.698C382.146 450.762 383.609 449.149 385.35 447.96C389.324 445.418 394.255 444.873 398.688 446.486C403.07 448.125 406.797 451.15 409.303 455.101C411.003 457.677 412.285 460.963 411.082 463.801C410.669 464.67 410.149 465.484 409.533 466.223L406.397 470.323C405.801 471.185 405.085 471.956 404.269 472.613C403.046 473.405 401.651 473.89 400.2 474.027C396.383 474.584 392.5 474.268 388.652 474.527C382.045 474.967 375.593 477.095 368.971 477.027C365.169 476.865 361.391 476.337 357.69 475.451L341.231 472.067C338.366 471.48 335.131 470.623 333.778 468.025C333.247 466.815 332.978 465.507 332.988 464.186C332.788 460.561 332.988 456.53 335.5 453.917C337.862 451.465 341.6 450.691 344.416 448.878C347.868 446.656 349.007 447.378 352.647 449.043C359.748 452.259 367.561 453.58 375.325 452.878V452.875Z" fill="black"/>
<path d="M441.419 447.719C436.844 449.623 432.13 451.175 427.319 452.363C419.212 454.149 410.729 453.863 402.686 455.909C398.437 456.992 394.214 458.737 389.849 458.383C387.91 458.129 385.993 457.728 384.115 457.183C373.447 454.551 361.32 455.404 352.657 462.173C349.743 464.552 347.188 467.338 345.069 470.446C344.116 471.791 343.814 473.491 344.243 475.083C344.673 476.674 345.791 477.99 347.291 478.673C350.66 480.223 354.27 481.185 357.963 481.52C362.9 481.956 367.863 481.257 372.771 480.557C380.058 479.523 387.349 478.485 394.618 477.323C397.228 476.906 399.837 476.473 402.462 476.142C421.35 473.754 440.58 476.657 459.516 474.664C461.441 474.549 463.333 474.116 465.116 473.382C469.523 471.314 471.704 465.861 470.794 461.071C469.884 456.281 466.372 452.298 462.145 449.854C458.603 447.797 454.782 446.966 450.838 446.094C447.179 445.237 444.948 446.366 441.419 447.719Z" fill="#AE6E79"/>
<path opacity="0.1" d="M481.928 419.081C484.011 421.811 484.455 425.474 484.228 428.892C484.001 432.31 483.19 435.692 483.07 439.124C482.905 443.832 484.04 448.524 483.848 453.217C483.63 456.497 483.014 459.739 482.013 462.87C480.926 466.589 479.354 470.586 475.922 472.37C471.364 474.743 461.806 473.408 457.012 475.27C457.448 472.551 461.63 468.614 462.066 465.896C462.471 464.024 462.566 462.099 462.348 460.196C461.822 457.796 460.605 455.603 458.848 453.886C456.212 450.999 452.726 449.024 448.895 448.246C445.078 447.554 435.734 448.122 432.681 450.532C432.305 448.043 439.299 445.644 441.758 445.106C442.984 444.832 444.39 444.986 445.372 444.206C447.252 442.732 445.887 439.795 445.977 437.438C446.048 435.558 447.146 433.838 447.368 431.956C447.744 428.948 445.781 425.883 446.552 422.931C446.931 421.871 447.386 420.839 447.913 419.844C449.252 416.667 448.665 413.044 447.951 409.665C447.507 407.544 447.075 405.153 448.251 403.344C449.345 401.656 452.451 407.668 454.44 407.39C461.009 406.469 466.954 401.599 472.26 405.59C474.96 407.621 475.317 409.726 476.396 412.625C477.453 415.381 480.172 416.794 481.928 419.081Z" fill="black"/>
<path d="M483.056 419.081C485.139 421.811 485.583 425.473 485.356 428.891C485.129 432.309 484.318 435.691 484.198 439.123C484.033 443.831 485.168 448.523 484.976 453.216C484.758 456.496 484.142 459.738 483.141 462.869C482.054 466.588 480.482 470.585 477.05 472.369C472.492 474.742 462.934 473.407 458.14 475.269C458.576 472.55 462.758 468.613 463.194 465.895C463.599 464.023 463.694 462.098 463.476 460.195C462.949 457.795 461.733 455.602 459.976 453.885C457.34 450.998 453.854 449.023 450.023 448.245C446.206 447.553 436.862 448.121 433.809 450.531C433.433 448.042 440.427 445.643 442.886 445.105C444.112 444.83 445.518 444.985 446.5 444.205C448.38 442.731 447.015 439.794 447.105 437.437C447.177 435.557 448.274 433.837 448.496 431.955C448.872 428.947 446.909 425.882 447.68 422.93C448.059 421.87 448.514 420.838 449.041 419.843C450.38 416.666 449.793 413.043 449.078 409.664C448.634 407.543 448.202 405.152 449.378 403.343C450.472 401.655 452.612 401.015 454.601 400.733C461.261 399.833 468.008 401.574 473.401 405.584C476.101 407.615 476.458 409.72 477.537 412.62C478.581 415.381 481.3 416.795 483.056 419.081Z" fill="#4C4981"/>
<path d="M234.252 401.262L254.696 476.82C255.209 478.715 256.842 480.094 258.796 480.283L350.817 489.123C352.339 489.27 353.837 488.67 354.837 487.513C355.837 486.356 356.214 484.787 355.848 483.302L333.463 392.162C332.911 389.925 330.823 388.415 328.526 388.59L238.434 395.328C237.035 395.438 235.757 396.165 234.949 397.312C234.14 398.46 233.885 399.907 234.252 401.262Z" fill="#9C9CA1"/>
<path d="M417.827 416.009C423.214 416.009 427.581 411.642 427.581 406.255C427.581 400.868 423.214 396.501 417.827 396.501C412.44 396.501 408.073 400.868 408.073 406.255C408.073 411.642 412.44 416.009 417.827 416.009Z" fill="#584DFC"/>
<path d="M428.329 390.8L426.78 388.243L424.524 387.923C425.005 379.504 422.824 376.996 422.824 376.996L422.316 376.947L420.105 376.733L415.946 372.416V371.19C421.789 371.89 425.019 374.661 426.764 377.913C429.845 383.621 428.329 390.8 428.329 390.8Z" fill="#584DFC"/>
<path opacity="0.1" d="M422.332 375.398V376.947L420.121 376.733L415.962 372.416C415.962 372.416 422.396 373.856 422.332 375.398Z" fill="black" stroke="#4C4981"/>
<path opacity="0.1" d="M428.329 390.8L426.78 388.243V377.929C429.845 383.622 428.329 390.8 428.329 390.8Z" fill="black" stroke="#4C4981"/>
<path d="M396.319 400.866C399.053 405.6 402.407 408.766 399.812 410.266C397.217 411.766 389.659 411.018 386.926 406.28C384.193 401.542 386.674 394.999 389.269 393.495C391.864 391.991 393.582 396.118 396.319 400.866Z" fill="#584DFC"/>
<path opacity="0.1" d="M420.659 366.761C420.659 381.888 410.307 396.467 395.18 396.467C380.051 396.467 367.787 384.203 367.787 369.074C367.787 353.945 380.051 341.68 395.18 341.68C410.307 341.695 420.659 351.63 420.659 366.761Z" fill="black"/>
<path d="M395.179 395.729C410.308 395.729 422.572 383.465 422.572 368.336C422.572 353.207 410.308 340.943 395.179 340.943C380.05 340.943 367.786 353.207 367.786 368.336C367.786 383.465 380.05 395.729 395.179 395.729Z" fill="#AE6E79"/>
<path d="M392.773 356.198C396.033 357.398 397.962 360.767 400.888 362.643C405.024 365.275 410.409 364.595 415.132 363.294C417.764 362.576 420.517 361.7 423.108 362.494C423.489 362.663 423.91 362.723 424.323 362.667C424.887 362.505 425.165 361.881 425.35 361.325C428.55 351.774 427.114 340.956 422.278 332.119C421.112 329.787 419.476 327.722 417.472 326.054C415.804 324.862 413.962 323.932 412.012 323.298C408.494 322.034 404.854 321.136 401.152 320.617C400.498 320.498 399.83 320.477 399.17 320.553C398.274 320.768 397.42 321.13 396.643 321.625C393.181 323.481 389.341 324.524 385.415 324.675C380.151 324.875 374.134 323.633 370.077 327.01C365.189 331.06 366.407 338.96 363.237 344.457C361.137 348.093 357.093 350.733 356.427 354.873C356.254 356.139 356.334 357.426 356.664 358.66C358.408 365.188 364.201 369.818 370.953 370.08C371.963 370.156 372.974 369.949 373.871 369.48C374.459 369.079 374.979 368.584 375.409 368.017C379.714 362.921 384.64 353.209 392.773 356.198Z" fill="#444053"/>
<path opacity="0.1" d="M425.348 358.556C425.164 359.113 424.886 359.737 424.321 359.898C423.908 359.954 423.488 359.894 423.107 359.725C420.516 358.925 417.749 359.804 415.135 360.525C410.408 361.825 405.012 362.525 400.891 359.874C397.962 357.994 396.036 354.61 392.773 353.429C384.639 350.421 379.714 360.152 375.397 365.251C374.967 365.818 374.447 366.313 373.859 366.714C372.962 367.183 371.951 367.39 370.941 367.314C364.194 367.04 358.407 362.415 356.652 355.894C356.565 355.518 356.49 355.142 356.434 354.766C356.437 354.801 356.431 354.835 356.415 354.866C356.242 356.132 356.322 357.419 356.652 358.653C358.397 365.18 364.19 369.81 370.941 370.073C371.951 370.149 372.961 369.942 373.859 369.473C374.447 369.072 374.967 368.578 375.397 368.01C379.714 362.91 384.64 353.195 392.773 356.188C396.037 357.388 397.962 360.757 400.891 362.633C405.027 365.265 410.408 364.585 415.135 363.284C417.767 362.566 420.516 361.69 423.107 362.484C423.488 362.653 423.909 362.713 424.322 362.657C424.886 362.495 425.164 361.871 425.348 361.315C426.64 357.407 427.211 353.296 427.033 349.184C426.922 352.373 426.355 355.529 425.348 358.556Z" fill="black"/>
<path d="M665 646.5C489.663 558.453 369.92 639.516 200.273 583.592C30.6258 527.668 -36.2292 390.801 18.8918 267.837C74.0128 144.873 353.57 145.55 537.892 -0.262695" stroke="#3D3691" stroke-width="2"/>
</g>
<defs>
<clipPath id="clip0_1_631">
<rect width="665" height="647" fill="white"/>
</clipPath>
</defs>
</svg>
