<svg width="668" height="650" viewBox="0 0 668 650" fill="none" xmlns="http://www.w3.org/2000/svg">
<path d="M667 648.5C491.663 560.453 371.92 641.516 202.273 585.592C32.6258 529.668 -34.2292 392.801 20.8918 269.837C76.0128 146.873 355.57 147.55 539.892 1.7373" stroke="#3D3691" stroke-width="2"/>
<path opacity="0.2" d="M171.302 296.672V304.324H164.162C166.401 301.697 168.781 299.146 171.302 296.672Z" fill="#584DFC"/>
<path opacity="0.2" d="M184.418 294.731H174.826V304.323H184.418V294.731Z" fill="#584DFC"/>
<path opacity="0.2" d="M197.526 294.731H187.934V304.323H197.526V294.731Z" fill="#584DFC"/>
<path opacity="0.2" d="M210.638 294.731H201.046V304.323H210.638V294.731Z" fill="#584DFC"/>
<path opacity="0.2" d="M223.747 294.731H214.155V304.323H223.747V294.731Z" fill="#584DFC"/>
<path opacity="0.2" d="M236.859 294.731H227.267V304.323H236.859V294.731Z" fill="#584DFC"/>
<path d="M249.971 294.731H240.379V304.323H249.971V294.731Z" fill="#584DFC"/>
<path opacity="0.2" d="M263.079 294.731H253.487V304.323H263.079V294.731Z" fill="#584DFC"/>
<path opacity="0.2" d="M276.191 294.731H266.599V304.323H276.191V294.731Z" fill="#584DFC"/>
<path opacity="0.2" d="M289.299 294.731H279.707V304.323H289.299V294.731Z" fill="#584DFC"/>
<path d="M302.411 294.731H292.819V304.323H302.411V294.731Z" fill="#584DFC"/>
<path opacity="0.2" d="M315.523 294.731H305.931V304.323H315.523V294.731Z" fill="#584DFC"/>
<path opacity="0.2" d="M328.631 294.731H319.039V304.323H328.631V294.731Z" fill="#584DFC"/>
<path opacity="0.2" d="M341.743 294.731H332.151V304.323H341.743V294.731Z" fill="#584DFC"/>
<path opacity="0.2" d="M354.855 294.731H345.263V304.323H354.855V294.731Z" fill="#584DFC"/>
<path opacity="0.2" d="M367.963 294.731H358.371V304.323H367.963V294.731Z" fill="#584DFC"/>
<path opacity="0.2" d="M381.075 294.731H371.483V304.323H381.075V294.731Z" fill="#584DFC"/>
<path d="M394.184 294.731H384.592V304.323H394.184V294.731Z" fill="#584DFC"/>
<path d="M407.295 294.731H397.703V304.323H407.295V294.731Z" fill="#584DFC"/>
<path opacity="0.2" d="M420.407 294.731H410.815V304.323H420.407V294.731Z" fill="#584DFC"/>
<path opacity="0.2" d="M433.516 294.731H423.924V304.323H433.516V294.731Z" fill="#584DFC"/>
<path d="M446.628 294.731H437.036V304.323H446.628V294.731Z" fill="#584DFC"/>
<path d="M459.736 294.731H450.144V304.323H459.736V294.731Z" fill="#584DFC"/>
<path d="M158.203 311.923V316.473H155.123C156.1 314.924 157.127 313.407 158.203 311.923Z" fill="#584DFC"/>
<path opacity="0.2" d="M171.306 306.881H161.714V316.473H171.306V306.881Z" fill="#584DFC"/>
<path d="M184.418 306.881H174.826V316.473H184.418V306.881Z" fill="#584DFC"/>
<path opacity="0.2" d="M197.526 306.881H187.934V316.473H197.526V306.881Z" fill="#584DFC"/>
<path opacity="0.7" d="M210.638 306.881H201.046V316.473H210.638V306.881Z" fill="#584DFC"/>
<path opacity="0.2" d="M223.747 306.881H214.155V316.473H223.747V306.881Z" fill="#584DFC"/>
<path opacity="0.4" d="M236.859 306.881H227.267V316.473H236.859V306.881Z" fill="#584DFC"/>
<path d="M249.971 306.881H240.379V316.473H249.971V306.881Z" fill="#584DFC"/>
<path opacity="0.4" d="M263.079 306.881H253.487V316.473H263.079V306.881Z" fill="#584DFC"/>
<path opacity="0.2" d="M276.191 306.881H266.599V316.473H276.191V306.881Z" fill="#584DFC"/>
<path opacity="0.4" d="M289.299 306.881H279.707V316.473H289.299V306.881Z" fill="#584DFC"/>
<path d="M302.411 306.881H292.819V316.473H302.411V306.881Z" fill="#584DFC"/>
<path opacity="0.4" d="M315.523 306.881H305.931V316.473H315.523V306.881Z" fill="#584DFC"/>
<path opacity="0.4" d="M328.631 306.881H319.039V316.473H328.631V306.881Z" fill="#584DFC"/>
<path opacity="0.2" d="M341.743 306.881H332.151V316.473H341.743V306.881Z" fill="#584DFC"/>
<path opacity="0.4" d="M354.855 306.881H345.263V316.473H354.855V306.881Z" fill="#584DFC"/>
<path opacity="0.4" d="M367.963 306.881H358.371V316.473H367.963V306.881Z" fill="#584DFC"/>
<path opacity="0.2" d="M381.075 306.881H371.483V316.473H381.075V306.881Z" fill="#584DFC"/>
<path opacity="0.2" d="M394.184 306.881H384.592V316.473H394.184V306.881Z" fill="#584DFC"/>
<path opacity="0.4" d="M407.295 306.881H397.703V316.473H407.295V306.881Z" fill="#584DFC"/>
<path opacity="0.2" d="M420.407 306.881H410.815V316.473H420.407V306.881Z" fill="#584DFC"/>
<path d="M433.516 306.881H423.924V316.473H433.516V306.881Z" fill="#584DFC"/>
<path d="M446.628 306.881H437.036V316.473H446.628V306.881Z" fill="#584DFC"/>
<path d="M459.736 306.881H450.144V316.473H459.736V306.881Z" fill="#584DFC"/>
<path opacity="0.2" d="M131.974 321.922V328.622H122.382V325.352C125.486 323.962 128.693 322.816 131.974 321.923V321.922Z" fill="#584DFC"/>
<path opacity="0.2" d="M145.086 319.756V328.626H135.494V321.072L145.086 319.756Z" fill="#584DFC"/>
<path d="M158.194 319.034H148.602V328.626H158.194V319.034Z" fill="#584DFC"/>
<path opacity="0.7" d="M171.306 319.034H161.714V328.626H171.306V319.034Z" fill="#584DFC"/>
<path d="M184.418 319.034H174.826V328.626H184.418V319.034Z" fill="#584DFC"/>
<path opacity="0.7" d="M197.526 319.034H187.934V328.626H197.526V319.034Z" fill="#584DFC"/>
<path opacity="0.7" d="M210.638 319.034H201.046V328.626H210.638V319.034Z" fill="#584DFC"/>
<path opacity="0.2" d="M223.747 319.034H214.155V328.626H223.747V319.034Z" fill="#584DFC"/>
<path opacity="0.4" d="M236.859 319.034H227.267V328.626H236.859V319.034Z" fill="#584DFC"/>
<path opacity="0.4" d="M249.971 319.034H240.379V328.626H249.971V319.034Z" fill="#584DFC"/>
<path d="M263.079 319.034H253.487V328.626H263.079V319.034Z" fill="#584DFC"/>
<path opacity="0.2" d="M276.191 319.034H266.599V328.626H276.191V319.034Z" fill="#584DFC"/>
<path opacity="0.4" d="M289.299 319.034H279.707V328.626H289.299V319.034Z" fill="#584DFC"/>
<path d="M302.411 319.034H292.819V328.626H302.411V319.034Z" fill="#584DFC"/>
<path opacity="0.2" d="M315.523 319.034H305.931V328.626H315.523V319.034Z" fill="#584DFC"/>
<path opacity="0.4" d="M328.631 319.034H319.039V328.626H328.631V319.034Z" fill="#584DFC"/>
<path opacity="0.2" d="M341.743 319.034H332.151V328.626H341.743V319.034Z" fill="#584DFC"/>
<path d="M354.855 319.034H345.263V328.626H354.855V319.034Z" fill="#584DFC"/>
<path opacity="0.2" d="M367.963 319.034H358.371V328.626H367.963V319.034Z" fill="#584DFC"/>
<path opacity="0.7" d="M381.075 319.034H371.483V328.626H381.075V319.034Z" fill="#584DFC"/>
<path opacity="0.7" d="M394.184 319.034H384.592V328.626H394.184V319.034Z" fill="#584DFC"/>
<path opacity="0.4" d="M407.295 319.034H397.703V328.626H407.295V319.034Z" fill="#584DFC"/>
<path opacity="0.2" d="M420.407 319.034H410.815V328.626H420.407V319.034Z" fill="#584DFC"/>
<path d="M433.516 319.034H423.924V328.626H433.516V319.034Z" fill="#584DFC"/>
<path d="M446.628 319.034H437.036V328.626H446.628V319.034Z" fill="#584DFC"/>
<path d="M459.736 319.034H450.144V328.626H459.736V319.034Z" fill="#584DFC"/>
<path opacity="0.2" d="M131.974 331.183H122.382V340.775H131.974V331.183Z" fill="#584DFC"/>
<path opacity="0.2" d="M145.086 331.183H135.494V340.775H145.086V331.183Z" fill="#584DFC"/>
<path opacity="0.2" d="M158.194 331.183H148.602V340.775H158.194V331.183Z" fill="#584DFC"/>
<path opacity="0.2" d="M171.306 331.183H161.714V340.775H171.306V331.183Z" fill="#584DFC"/>
<path d="M184.418 331.183H174.826V340.775H184.418V331.183Z" fill="#584DFC"/>
<path opacity="0.7" d="M197.526 331.183H187.934V340.775H197.526V331.183Z" fill="#584DFC"/>
<path opacity="0.7" d="M210.638 331.183H201.046V340.775H210.638V331.183Z" fill="#584DFC"/>
<path opacity="0.2" d="M223.747 331.183H214.155V340.775H223.747V331.183Z" fill="#584DFC"/>
<path opacity="0.2" d="M236.859 331.183H227.267V340.775H236.859V331.183Z" fill="#584DFC"/>
<path opacity="0.4" d="M249.971 331.183H240.379V340.775H249.971V331.183Z" fill="#584DFC"/>
<path opacity="0.4" d="M263.079 331.183H253.487V340.775H263.079V331.183Z" fill="#584DFC"/>
<path d="M276.191 331.183H266.599V340.775H276.191V331.183Z" fill="#584DFC"/>
<path opacity="0.2" d="M289.299 331.183H279.707V340.775H289.299V331.183Z" fill="#584DFC"/>
<path opacity="0.4" d="M302.411 331.183H292.819V340.775H302.411V331.183Z" fill="#584DFC"/>
<path opacity="0.4" d="M315.523 331.183H305.931V340.775H315.523V331.183Z" fill="#584DFC"/>
<path opacity="0.4" d="M328.631 331.183H319.039V340.775H328.631V331.183Z" fill="#584DFC"/>
<path opacity="0.4" d="M341.743 331.183H332.151V340.775H341.743V331.183Z" fill="#584DFC"/>
<path opacity="0.2" d="M354.855 331.183H345.263V340.775H354.855V331.183Z" fill="#584DFC"/>
<path opacity="0.2" d="M367.963 331.183H358.371V340.775H367.963V331.183Z" fill="#584DFC"/>
<path opacity="0.2" d="M381.075 331.183H371.483V340.775H381.075V331.183Z" fill="#584DFC"/>
<path opacity="0.2" d="M394.184 331.183H384.592V340.775H394.184V331.183Z" fill="#584DFC"/>
<path opacity="0.7" d="M407.295 331.183H397.703V340.775H407.295V331.183Z" fill="#584DFC"/>
<path opacity="0.7" d="M420.407 331.183H410.815V340.775H420.407V331.183Z" fill="#584DFC"/>
<path opacity="0.4" d="M433.516 331.183H423.924V340.775H433.516V331.183Z" fill="#584DFC"/>
<path opacity="0.2" d="M446.628 331.183H437.036V340.775H446.628V331.183Z" fill="#584DFC"/>
<path d="M459.736 331.183H450.144V340.775H459.736V331.183Z" fill="#584DFC"/>
<path opacity="0.2" d="M131.974 343.336H122.382V352.928H131.974V343.336Z" fill="#584DFC"/>
<path opacity="0.2" d="M145.086 343.336H135.494V352.928H145.086V343.336Z" fill="#584DFC"/>
<path opacity="0.4" d="M158.194 343.336H148.602V352.928H158.194V343.336Z" fill="#584DFC"/>
<path opacity="0.2" d="M171.306 343.336H161.714V352.928H171.306V343.336Z" fill="#584DFC"/>
<path opacity="0.2" d="M184.418 343.336H174.826V352.928H184.418V343.336Z" fill="#584DFC"/>
<path opacity="0.7" d="M197.526 343.336H187.934V352.928H197.526V343.336Z" fill="#584DFC"/>
<path opacity="0.7" d="M210.638 343.336H201.046V352.928H210.638V343.336Z" fill="#584DFC"/>
<path opacity="0.2" d="M223.747 343.336H214.155V352.928H223.747V343.336Z" fill="#584DFC"/>
<path opacity="0.2" d="M236.859 343.336H227.267V352.928H236.859V343.336Z" fill="#584DFC"/>
<path opacity="0.4" d="M249.971 343.336H240.379V352.928H249.971V343.336Z" fill="#584DFC"/>
<path d="M263.079 343.336H253.487V352.928H263.079V343.336Z" fill="#584DFC"/>
<path opacity="0.2" d="M276.191 343.336H266.599V352.928H276.191V343.336Z" fill="#584DFC"/>
<path d="M289.299 343.336H279.707V352.928H289.299V343.336Z" fill="#584DFC"/>
<path d="M302.411 343.336H292.819V352.928H302.411V343.336Z" fill="#584DFC"/>
<path d="M315.523 343.336H305.931V352.928H315.523V343.336Z" fill="#584DFC"/>
<path opacity="0.2" d="M328.631 343.336H319.039V352.928H328.631V343.336Z" fill="#584DFC"/>
<path d="M341.743 343.336H332.151V352.928H341.743V343.336Z" fill="#584DFC"/>
<path opacity="0.2" d="M354.855 343.336H345.263V352.928H354.855V343.336Z" fill="#584DFC"/>
<path opacity="0.2" d="M367.963 343.336H358.371V352.928H367.963V343.336Z" fill="#584DFC"/>
<path opacity="0.2" d="M381.075 343.336H371.483V352.928H381.075V343.336Z" fill="#584DFC"/>
<path opacity="0.2" d="M394.184 343.336H384.592V352.928H394.184V343.336Z" fill="#584DFC"/>
<path opacity="0.2" d="M407.295 343.336H397.703V352.928H407.295V343.336Z" fill="#584DFC"/>
<path opacity="0.7" d="M420.407 343.336H410.815V352.928H420.407V343.336Z" fill="#584DFC"/>
<path opacity="0.2" d="M433.516 343.336H423.924V352.928H433.516V343.336Z" fill="#584DFC"/>
<path opacity="0.2" d="M446.628 343.336H437.036V352.928H446.628V343.336Z" fill="#584DFC"/>
<path d="M459.736 343.336H450.144V352.928H459.736V343.336Z" fill="#584DFC"/>
<path opacity="0.2" d="M131.974 355.485H122.382V365.077H131.974V355.485Z" fill="#584DFC"/>
<path opacity="0.2" d="M145.086 355.485H135.494V365.077H145.086V355.485Z" fill="#584DFC"/>
<path opacity="0.2" d="M158.194 355.485H148.602V365.077H158.194V355.485Z" fill="#584DFC"/>
<path opacity="0.4" d="M171.306 355.485H161.714V365.077H171.306V355.485Z" fill="#584DFC"/>
<path opacity="0.2" d="M184.418 355.485H174.826V365.077H184.418V355.485Z" fill="#584DFC"/>
<path opacity="0.2" d="M197.526 355.485H187.934V365.077H197.526V355.485Z" fill="#584DFC"/>
<path opacity="0.7" d="M210.638 355.485H201.046V365.077H210.638V355.485Z" fill="#584DFC"/>
<path opacity="0.2" d="M223.747 355.485H214.155V365.077H223.747V355.485Z" fill="#584DFC"/>
<path opacity="0.2" d="M236.859 355.485H227.267V365.077H236.859V355.485Z" fill="#584DFC"/>
<path opacity="0.2" d="M249.971 355.485H240.379V365.077H249.971V355.485Z" fill="#584DFC"/>
<path d="M263.079 355.485H253.487V365.077H263.079V355.485Z" fill="#584DFC"/>
<path opacity="0.2" d="M276.191 355.485H266.599V365.077H276.191V355.485Z" fill="#584DFC"/>
<path d="M289.299 355.485H279.707V365.077H289.299V355.485Z" fill="#584DFC"/>
<path d="M302.411 355.485H292.819V365.077H302.411V355.485Z" fill="#584DFC"/>
<path opacity="0.2" d="M315.523 355.485H305.931V365.077H315.523V355.485Z" fill="#584DFC"/>
<path opacity="0.2" d="M328.631 355.485H319.039V365.077H328.631V355.485Z" fill="#584DFC"/>
<path opacity="0.2" d="M341.743 355.485H332.151V365.077H341.743V355.485Z" fill="#584DFC"/>
<path opacity="0.2" d="M354.855 355.485H345.263V365.077H354.855V355.485Z" fill="#584DFC"/>
<path opacity="0.2" d="M367.963 355.485H358.371V365.077H367.963V355.485Z" fill="#584DFC"/>
<path opacity="0.2" d="M381.075 355.485H371.483V365.077H381.075V355.485Z" fill="#584DFC"/>
<path opacity="0.2" d="M394.184 355.485H384.592V365.077H394.184V355.485Z" fill="#584DFC"/>
<path opacity="0.2" d="M407.295 355.485H397.703V365.077H407.295V355.485Z" fill="#584DFC"/>
<path opacity="0.2" d="M420.407 355.485H410.815V365.077H420.407V355.485Z" fill="#584DFC"/>
<path opacity="0.2" d="M433.516 355.485H423.924V365.077H433.516V355.485Z" fill="#584DFC"/>
<path opacity="0.4" d="M446.628 355.485H437.036V365.077H446.628V355.485Z" fill="#584DFC"/>
<path d="M459.736 355.485H450.144V365.077H459.736V355.485Z" fill="#584DFC"/>
<path opacity="0.7" d="M131.974 367.639H122.382V377.231H131.974V367.639Z" fill="#584DFC"/>
<path opacity="0.7" d="M145.086 367.639H135.494V377.231H145.086V367.639Z" fill="#584DFC"/>
<path opacity="0.7" d="M158.194 367.639H148.602V377.231H158.194V367.639Z" fill="#584DFC"/>
<path opacity="0.7" d="M171.306 367.639H161.714V377.231H171.306V367.639Z" fill="#584DFC"/>
<path opacity="0.7" d="M184.418 367.639H174.826V377.231H184.418V367.639Z" fill="#584DFC"/>
<path opacity="0.2" d="M197.526 367.639H187.934V377.231H197.526V367.639Z" fill="#584DFC"/>
<path opacity="0.2" d="M210.638 367.639H201.046V377.231H210.638V367.639Z" fill="#584DFC"/>
<path opacity="0.2" d="M223.747 367.639H214.155V377.231H223.747V367.639Z" fill="#584DFC"/>
<path opacity="0.2" d="M236.859 367.639H227.267V377.231H236.859V367.639Z" fill="#584DFC"/>
<path opacity="0.2" d="M249.971 367.639H240.379V377.231H249.971V367.639Z" fill="#584DFC"/>
<path opacity="0.2" d="M263.079 367.639H253.487V377.231H263.079V367.639Z" fill="#584DFC"/>
<path d="M276.191 367.639H266.599V377.231H276.191V367.639Z" fill="#584DFC"/>
<path opacity="0.2" d="M289.299 367.639H279.707V377.231H289.299V367.639Z" fill="#584DFC"/>
<path opacity="0.2" d="M302.411 367.639H292.819V377.231H302.411V367.639Z" fill="#584DFC"/>
<path opacity="0.2" d="M315.523 367.639H305.931V377.231H315.523V367.639Z" fill="#584DFC"/>
<path d="M328.631 367.639H319.039V377.231H328.631V367.639Z" fill="#584DFC"/>
<path opacity="0.2" d="M341.743 367.639H332.151V377.231H341.743V367.639Z" fill="#584DFC"/>
<path opacity="0.2" d="M354.855 367.639H345.263V377.231H354.855V367.639Z" fill="#584DFC"/>
<path opacity="0.2" d="M367.963 367.639H358.371V377.231H367.963V367.639Z" fill="#584DFC"/>
<path opacity="0.2" d="M381.075 367.639H371.483V377.231H381.075V367.639Z" fill="#584DFC"/>
<path opacity="0.2" d="M394.184 367.639H384.592V377.231H394.184V367.639Z" fill="#584DFC"/>
<path opacity="0.2" d="M407.295 367.639H397.703V377.231H407.295V367.639Z" fill="#584DFC"/>
<path opacity="0.2" d="M420.407 367.639H410.815V377.231H420.407V367.639Z" fill="#584DFC"/>
<path opacity="0.2" d="M433.516 367.639H423.924V377.231H433.516V367.639Z" fill="#584DFC"/>
<path opacity="0.2" d="M446.628 367.639H437.036V377.231H446.628V367.639Z" fill="#584DFC"/>
<path d="M459.736 367.639H450.144V377.231H459.736V367.639Z" fill="#584DFC"/>
<path d="M358.89 402.929C366.132 402.929 372.002 397.059 372.002 389.817C372.002 382.575 366.132 376.705 358.89 376.705C351.649 376.705 345.778 382.575 345.778 389.817C345.778 397.059 351.649 402.929 358.89 402.929Z" fill="#767D9F"/>
<path d="M358.209 373.136C359.518 378.847 360.628 384.6 361.541 390.396C361.957 392.098 361.921 393.879 361.436 395.563C360.778 396.859 359.965 398.07 359.014 399.169C358.057 400.293 357.7 401.808 358.055 403.241C358.563 404.602 360.044 405.347 361.455 405.73C365.501 406.821 369.814 406.03 373.841 404.846C375.665 404.377 377.413 403.652 379.034 402.695C380.704 401.553 382.186 400.158 383.426 398.559C389.296 391.441 393.139 382.898 396.756 374.407C392.041 374.836 387.407 372.969 384.306 369.391C382.825 367.65 381.738 365.225 382.572 363.096C380.124 364.438 377.218 364.529 374.582 365.446C372.947 366.071 371.374 366.845 369.882 367.759C368.082 368.8 366.292 369.86 364.512 370.94C362.481 372.166 360.575 373.256 358.209 373.136Z" fill="#AE6E79"/>
<path d="M385.633 382.98C383.333 387.451 380.346 391.749 376.078 394.411C371.81 397.073 366.065 397.795 361.789 395.163C359.683 393.877 358.089 391.922 356.25 390.275C354.411 388.628 352.114 387.218 349.643 387.432C346.921 387.669 344.789 389.793 342.965 391.832C340.111 394.85 337.626 398.198 335.565 401.804C331.805 408.836 330.914 417.056 331.079 425.027C331.244 432.998 332.399 440.927 332.425 448.901C332.463 458.708 330.801 468.435 329.12 478.095C344.575 476.195 360.048 480.351 375.536 481.927C385.448 482.946 395.436 482.927 405.4 482.897C407.152 482.897 409.017 482.852 410.476 481.882C411.368 481.23 412.088 480.373 412.576 479.382C413.843 476.78 414.627 473.969 414.889 471.087C415.706 463.837 416.05 456.542 415.919 449.247C415.987 431.574 416.051 413.837 413.806 396.303C413.393 391.966 412.413 387.702 410.892 383.62C409.349 379.511 406.491 376.028 402.762 373.712C400.337 372.321 394.715 369.899 391.862 371.302C388.652 372.865 387.17 379.987 385.633 382.98Z" fill="#767D9F"/>
<path d="M386.776 432.886C386.193 421.986 383.821 410.343 388.87 400.664C390.111 398.288 385.659 395.321 387.035 393.019C388.715 390.213 389.988 387.183 390.818 384.019C391.175 382.947 391.26 381.803 391.063 380.691C390.563 378.702 388.596 377.517 386.927 376.307C385.084 374.968 384.137 370.888 383.543 368.681C382.949 366.474 388.27 369.132 390.409 368.346C393.379 367.259 397.155 367.946 400.118 369.046C401.806 369.564 403.568 369.803 405.333 369.753C408.755 369.928 412.185 369.846 415.595 369.509C417.11 369.239 418.647 369.107 420.186 369.114C424.101 369.336 427.504 372.014 429.82 375.179C432.136 378.344 433.611 382.034 435.509 385.463C437.092 388.321 438.98 391.021 440.33 393.995C441.457 396.673 442.36 399.44 443.03 402.268L444.959 409.484C445.297 410.516 445.457 411.598 445.433 412.684C445.268 413.831 444.885 414.937 444.305 415.94C442.343 419.745 439.99 423.335 437.284 426.653C433.227 431.628 428.301 436.114 425.891 442.07C425.013 444.417 424.363 446.844 423.951 449.316C422.025 459.152 420.656 469.088 419.851 479.078C415.457 477.045 410.852 475.505 406.119 474.487C403.76 473.982 401.374 473.606 398.974 473.359C396.874 473.141 394.161 473.559 392.16 472.983C388.813 472.032 388.445 466.372 387.937 463.409C387.213 458.681 386.879 453.902 386.937 449.12C386.897 443.7 387.066 438.289 386.776 432.886Z" fill="#4C4981"/>
<path d="M313.282 412.494C314.865 421.519 316.61 430.57 320.05 439.049C319.964 439.132 319.877 439.207 319.791 439.282C319.491 439.542 319.171 439.782 318.84 440.034C318.027 440.517 317.27 441.09 316.584 441.741C316.342 442.012 316.151 442.324 316.02 442.662C315.781 443.197 315.781 443.808 316.02 444.343C314.226 445.136 312.143 444.892 310.132 444.817C308.469 444.604 306.782 444.938 305.326 445.768C303.393 447.099 302.81 449.656 302.498 451.98C302.383 452.827 302.283 453.676 302.198 454.526C302.118 455.315 302.051 456.107 301.998 456.902C301.828 459.532 301.804 462.169 301.927 464.802C301.947 465.283 301.973 465.765 302.006 466.246C295.862 466.099 290.263 462.896 284.965 459.782C283.7 459.159 282.591 458.26 281.72 457.15C280.996 455.998 280.689 454.632 280.851 453.281C280.858 453.089 280.878 452.898 280.911 452.709C281.08 451.593 281.368 450.499 281.772 449.445C283.43 444.957 285.873 440.8 288.988 437.168C290.334 435.596 291.85 434.058 292.477 432.084C292.752 431.223 292.853 430.309 293.131 429.452C294.379 425.737 298.884 423.981 300.426 420.375C300.719 419.481 301.058 418.602 301.441 417.743C301.861 417.055 302.404 416.45 303.041 415.957C303.315 415.728 303.601 415.506 303.883 415.284C306.525 413.213 309.071 411.026 311.52 408.722C311.977 408.293 312.428 407.86 312.874 407.422C312.814 409.124 312.948 410.827 313.274 412.498L313.282 412.494Z" fill="#4C4981"/>
<path d="M351.175 385.804C350.634 386.376 350.047 386.913 349.475 387.447L349.321 387.586L348.712 388.15C347.606 389.104 346.65 390.218 345.873 391.455L345.809 391.56C343.891 394.993 344.602 399.22 345.136 403.119C345.798 407.978 346.096 412.88 346.027 417.784C345.927 424.552 345.127 431.276 345.117 438.037C345.117 439.57 345.15 441.104 345.217 442.637C345.326 445.13 345.517 447.619 345.74 450.109C345.985 452.839 346.278 455.565 346.552 458.291C346.77 460.4 346.977 462.506 347.152 464.612C347.239 465.703 347.321 466.789 347.389 467.88C347.468 469.159 347.532 470.441 347.569 471.719C347.595 472.531 347.61 473.34 347.61 474.152V475.532C347.61 476.412 347.586 477.289 347.539 478.164C347.489 479.289 347.413 480.417 347.31 481.548C347.316 482.795 346.897 484.008 346.122 484.985C346.069 485.038 346.013 485.085 345.956 485.135L344.738 484.985C336.339 483.98 327.86 483.828 319.431 484.534C319.615 483.263 319.784 481.996 319.95 480.721C320.025 480.121 320.1 479.514 320.172 478.909C320.255 478.217 320.334 477.525 320.409 476.833C320.496 476.081 320.576 475.329 320.65 474.577C320.845 472.639 321.017 470.7 321.165 468.76C321.383 465.93 321.55 463.095 321.665 460.254C321.72 458.898 321.763 457.541 321.793 456.182C321.836 454.497 321.856 452.811 321.853 451.124C321.853 449.485 321.839 447.843 321.812 446.198C321.812 445.657 321.789 445.115 321.744 444.577C321.711 444.093 321.645 443.612 321.544 443.137C321.265 442.042 320.887 440.975 320.416 439.948C320.333 439.748 320.254 439.572 320.175 439.365C320.13 439.265 320.089 439.158 320.047 439.057C322.134 436.991 323.885 434.611 325.236 432.003C327.636 427.908 330.098 423.633 330.5 418.903C330.902 414.173 328.552 408.859 324.032 407.416C322.781 407.105 321.512 406.871 320.232 406.716C318.47 406.475 316.757 405.953 315.159 405.171C314.407 405.943 313.655 406.701 312.903 407.446C312.949 406.31 313.226 405.196 313.719 404.171L314.253 404.197C314.21 404.077 314.189 403.949 314.193 403.821C314.276 403.264 314.594 402.769 315.065 402.46C316.836 400.96 319.622 400.621 320.739 398.587C321.093 397.69 321.4 396.775 321.66 395.846C322.739 393.315 325.838 392.383 327.703 390.36C329.568 388.337 330.034 385.472 331.542 383.216C332.668 381.569 334.231 380.267 336.054 379.456C336.204 379.385 336.354 379.313 336.513 379.249C339.727 378.047 343.146 377.493 346.575 377.617C347.831 377.617 351.087 377.655 352.682 378.29C352.942 378.382 353.181 378.527 353.382 378.715C355.074 380.559 352.431 384.466 351.175 385.804Z" fill="#4C4981"/>
<path d="M313.843 403.902C319.71 402.136 326.041 402.795 331.418 405.733C334.173 407.175 336.468 409.361 338.043 412.043C340.28 416.104 340.183 421 340.025 425.636C340.107 427.964 339.699 430.283 338.825 432.442C337.641 434.852 335.407 436.507 333.125 437.861C331.697 438.77 330.133 439.446 328.492 439.861C325.965 440.41 323.341 439.944 320.792 439.485C318.025 438.974 315.054 438.357 313.132 436.296C312.087 435.033 311.288 433.586 310.778 432.028C309.903 429.835 309.026 427.644 308.146 425.455C306.623 421.655 306.108 418.491 308.12 414.787C309.034 413.099 310.151 411.519 311.053 409.82C311.504 408.96 313.125 404.125 313.843 403.902Z" fill="#4C4981"/>
<path d="M471.878 468.906V480.149C464.165 483.353 455.89 484.989 447.538 484.962H346.128C346.075 485.015 346.019 485.062 345.963 485.112L344.745 484.962H164.354C150.048 485.053 135.988 481.236 123.691 473.923V456.756L210.447 446.743H210.515L261.038 451.022L274.112 452.15L280.903 452.725L294.959 453.917L302.19 454.53L312.719 455.43L314.201 455.554L321.789 456.197L332.089 457.043L346.566 458.269L370.699 460.318L387.676 461.758L415.55 464.123L420.85 464.57L421.422 464.619L421.922 464.66L428.922 465.254L436.608 465.908L437.499 465.983L471.878 468.906Z" fill="#504F60"/>
<path d="M369.975 468.492L261.251 449.935L257.036 471.252L306.874 477.22L322.22 479.141L364.433 470.827L369.975 468.492Z" fill="#9C9CA1"/>
<path d="M313.696 478.073L368.166 467.834C368.718 467.728 369.288 467.875 369.721 468.234C370.153 468.593 370.402 469.126 370.4 469.688C370.403 470.596 369.755 471.377 368.862 471.542L315.662 481.503L313.696 478.073Z" fill="#9C9CA1"/>
<path d="M337.325 445.875C339.03 445.786 340.704 445.387 342.266 444.698C344.146 443.762 345.609 442.149 347.35 440.96C351.324 438.418 356.255 437.873 360.688 439.486C365.07 441.125 368.797 444.15 371.303 448.101C373.003 450.677 374.285 453.963 373.082 456.801C372.669 457.67 372.149 458.484 371.533 459.223L368.397 463.323C367.801 464.185 367.085 464.956 366.269 465.613C365.046 466.405 363.651 466.89 362.2 467.027C358.383 467.584 354.5 467.268 350.652 467.527C344.045 467.967 337.593 470.095 330.971 470.027C327.169 469.865 323.391 469.337 319.69 468.451L303.231 465.067C300.366 464.48 297.131 463.623 295.778 461.025C295.247 459.815 294.978 458.507 294.988 457.186C294.788 453.561 294.988 449.53 297.5 446.917C299.862 444.465 303.6 443.691 306.416 441.878C309.868 439.656 311.007 440.378 314.647 442.043C321.748 445.259 329.561 446.58 337.325 445.878V445.875Z" fill="#AE6E79"/>
<path opacity="0.05" d="M337.325 445.875C339.03 445.786 340.704 445.387 342.266 444.698C344.146 443.762 345.609 442.149 347.35 440.96C351.324 438.418 356.255 437.873 360.688 439.486C365.07 441.125 368.797 444.15 371.303 448.101C373.003 450.677 374.285 453.963 373.082 456.801C372.669 457.67 372.149 458.484 371.533 459.223L368.397 463.323C367.801 464.185 367.085 464.956 366.269 465.613C365.046 466.405 363.651 466.89 362.2 467.027C358.383 467.584 354.5 467.268 350.652 467.527C344.045 467.967 337.593 470.095 330.971 470.027C327.169 469.865 323.391 469.337 319.69 468.451L303.231 465.067C300.366 464.48 297.131 463.623 295.778 461.025C295.247 459.815 294.978 458.507 294.988 457.186C294.788 453.561 294.988 449.53 297.5 446.917C299.862 444.465 303.6 443.691 306.416 441.878C309.868 439.656 311.007 440.378 314.647 442.043C321.748 445.259 329.561 446.58 337.325 445.878V445.875Z" fill="black"/>
<path d="M403.419 440.719C398.844 442.623 394.13 444.175 389.319 445.363C381.212 447.149 372.729 446.863 364.686 448.909C360.437 449.992 356.214 451.737 351.849 451.383C349.91 451.129 347.993 450.728 346.115 450.183C335.447 447.551 323.32 448.404 314.657 455.173C311.743 457.552 309.188 460.338 307.069 463.446C306.116 464.791 305.814 466.491 306.243 468.083C306.673 469.674 307.791 470.99 309.291 471.673C312.66 473.223 316.27 474.185 319.963 474.52C324.9 474.956 329.863 474.257 334.771 473.557C342.058 472.523 349.349 471.485 356.618 470.323C359.228 469.906 361.837 469.473 364.462 469.142C383.35 466.754 402.58 469.657 421.516 467.664C423.441 467.549 425.333 467.116 427.116 466.382C431.523 464.314 433.704 458.861 432.794 454.071C431.884 449.281 428.372 445.298 424.145 442.854C420.603 440.797 416.782 439.966 412.838 439.094C409.179 438.237 406.948 439.366 403.419 440.719Z" fill="#AE6E79"/>
<path opacity="0.1" d="M443.928 412.081C446.011 414.811 446.455 418.474 446.228 421.892C446.001 425.31 445.19 428.692 445.07 432.124C444.905 436.832 446.04 441.524 445.848 446.217C445.63 449.497 445.014 452.739 444.013 455.87C442.926 459.589 441.354 463.586 437.922 465.37C433.364 467.743 423.806 466.408 419.012 468.27C419.448 465.551 423.63 461.614 424.066 458.896C424.471 457.024 424.566 455.099 424.348 453.196C423.822 450.796 422.605 448.603 420.848 446.886C418.212 443.999 414.726 442.024 410.895 441.246C407.078 440.554 397.734 441.122 394.681 443.532C394.305 441.043 401.299 438.644 403.758 438.106C404.984 437.832 406.39 437.986 407.372 437.206C409.252 435.732 407.887 432.795 407.977 430.438C408.048 428.558 409.146 426.838 409.368 424.956C409.744 421.948 407.781 418.883 408.552 415.931C408.931 414.871 409.386 413.839 409.913 412.844C411.252 409.667 410.665 406.044 409.951 402.665C409.507 400.544 409.075 398.153 410.251 396.344C411.345 394.656 414.451 400.668 416.44 400.39C423.009 399.469 428.954 394.599 434.26 398.59C436.96 400.621 437.317 402.726 438.396 405.625C439.453 408.381 442.172 409.794 443.928 412.081Z" fill="black"/>
<path d="M445.056 412.081C447.139 414.811 447.583 418.473 447.356 421.891C447.129 425.309 446.318 428.691 446.198 432.123C446.033 436.831 447.168 441.523 446.976 446.216C446.758 449.496 446.142 452.738 445.141 455.869C444.054 459.588 442.482 463.585 439.05 465.369C434.492 467.742 424.934 466.407 420.14 468.269C420.576 465.55 424.758 461.613 425.194 458.895C425.599 457.023 425.694 455.098 425.476 453.195C424.949 450.795 423.733 448.602 421.976 446.885C419.34 443.998 415.854 442.023 412.023 441.245C408.206 440.553 398.862 441.121 395.809 443.531C395.433 441.042 402.427 438.643 404.886 438.105C406.112 437.83 407.518 437.985 408.5 437.205C410.38 435.731 409.015 432.794 409.105 430.437C409.177 428.557 410.274 426.837 410.496 424.955C410.872 421.947 408.909 418.882 409.68 415.93C410.059 414.87 410.514 413.838 411.041 412.843C412.38 409.666 411.793 406.043 411.078 402.664C410.634 400.543 410.202 398.152 411.378 396.343C412.472 394.655 414.612 394.015 416.601 393.733C423.261 392.833 430.008 394.574 435.401 398.584C438.101 400.615 438.458 402.72 439.537 405.62C440.581 408.381 443.3 409.795 445.056 412.081Z" fill="#4C4981"/>
<path d="M196.252 394.262L216.696 469.82C217.209 471.715 218.842 473.094 220.796 473.283L312.817 482.123C314.339 482.27 315.837 481.67 316.837 480.513C317.837 479.356 318.214 477.787 317.848 476.302L295.463 385.162C294.911 382.925 292.823 381.415 290.526 381.59L200.434 388.328C199.035 388.438 197.757 389.165 196.949 390.312C196.14 391.46 195.885 392.907 196.252 394.262Z" fill="#9C9CA1"/>
<path d="M378.665 409.009C384.251 409.009 388.78 404.421 388.78 398.762C388.78 393.103 384.251 388.515 378.665 388.515C373.079 388.515 368.55 393.103 368.55 398.762C368.55 404.421 373.079 409.009 378.665 409.009Z" fill="white"/>
<path d="M386.972 380.07C386.972 380.07 389.104 386.41 382.813 389.076L382.013 390.482L385.954 394.37C385.954 394.37 390.812 385.507 390.286 382.36C390.281 382.359 389.528 379.163 386.972 380.07Z" fill="white"/>
<path d="M379.827 409.009C385.214 409.009 389.581 404.642 389.581 399.255C389.581 393.868 385.214 389.501 379.827 389.501C374.44 389.501 370.073 393.868 370.073 399.255C370.073 404.642 374.44 409.009 379.827 409.009Z" fill="#584DFC"/>
<path d="M390.329 383.8L388.78 381.243L386.524 380.923C387.005 372.504 384.824 369.996 384.824 369.996L384.316 369.947L382.105 369.733L377.946 365.416V364.19C383.789 364.89 387.019 367.661 388.764 370.913C391.845 376.621 390.329 383.8 390.329 383.8Z" fill="#584DFC"/>
<path opacity="0.1" d="M384.332 368.398V369.947L382.121 369.733L377.962 365.416C377.962 365.416 384.396 366.856 384.332 368.398Z" fill="black" stroke="#4C4981"/>
<path opacity="0.1" d="M390.329 383.8L388.78 381.243V370.929C391.845 376.622 390.329 383.8 390.329 383.8Z" fill="black" stroke="#4C4981"/>
<path d="M361.804 403.265C364.399 401.767 364.288 396.715 361.555 391.981C358.822 387.247 354.502 384.625 351.907 386.123C349.312 387.621 349.424 392.673 352.157 397.407C354.89 402.141 359.209 404.763 361.804 403.265Z" fill="white"/>
<path d="M358.319 393.866C361.053 398.6 364.407 401.766 361.812 403.266C359.217 404.766 351.659 404.018 348.926 399.28C346.193 394.542 348.674 387.999 351.269 386.495C353.864 384.991 355.582 389.118 358.319 393.866Z" fill="#584DFC"/>
<path opacity="0.1" d="M382.659 359.761C382.659 374.888 372.307 389.467 357.18 389.467C342.051 389.467 329.787 377.203 329.787 362.074C329.787 346.945 342.051 334.68 357.18 334.68C372.307 334.695 382.659 344.63 382.659 359.761Z" fill="black"/>
<path d="M357.179 388.729C372.308 388.729 384.572 376.465 384.572 361.336C384.572 346.207 372.308 333.943 357.179 333.943C342.05 333.943 329.786 346.207 329.786 361.336C329.786 376.465 342.05 388.729 357.179 388.729Z" fill="#AE6E79"/>
<path d="M354.773 349.198C358.033 350.398 359.962 353.767 362.888 355.643C367.024 358.275 372.409 357.595 377.132 356.294C379.764 355.576 382.517 354.7 385.108 355.494C385.489 355.663 385.91 355.723 386.323 355.667C386.887 355.505 387.165 354.881 387.35 354.325C390.55 344.774 389.114 333.956 384.278 325.119C383.112 322.787 381.476 320.722 379.472 319.054C377.804 317.862 375.962 316.932 374.012 316.298C370.494 315.034 366.854 314.136 363.152 313.617C362.498 313.498 361.83 313.477 361.17 313.553C360.274 313.768 359.42 314.13 358.643 314.625C355.181 316.481 351.341 317.524 347.415 317.675C342.151 317.875 336.134 316.633 332.077 320.01C327.189 324.06 328.407 331.96 325.237 337.457C323.137 341.093 319.093 343.733 318.427 347.873C318.254 349.139 318.334 350.426 318.664 351.66C320.408 358.188 326.201 362.818 332.953 363.08C333.963 363.156 334.974 362.949 335.871 362.48C336.459 362.079 336.979 361.584 337.409 361.017C341.714 355.921 346.64 346.209 354.773 349.198Z" fill="#444053"/>
<path opacity="0.1" d="M387.348 351.556C387.164 352.113 386.886 352.737 386.321 352.898C385.908 352.954 385.488 352.894 385.107 352.725C382.516 351.925 379.749 352.804 377.135 353.525C372.408 354.825 367.012 355.525 362.891 352.874C359.962 350.994 358.036 347.61 354.773 346.429C346.639 343.421 341.714 353.152 337.397 358.251C336.967 358.818 336.447 359.313 335.859 359.714C334.962 360.183 333.951 360.39 332.941 360.314C326.194 360.04 320.407 355.415 318.652 348.894C318.565 348.518 318.49 348.142 318.434 347.766C318.437 347.801 318.431 347.835 318.415 347.866C318.242 349.132 318.322 350.419 318.652 351.653C320.397 358.18 326.19 362.81 332.941 363.073C333.951 363.149 334.961 362.942 335.859 362.473C336.447 362.072 336.967 361.578 337.397 361.01C341.714 355.91 346.64 346.195 354.773 349.188C358.037 350.388 359.962 353.757 362.891 355.633C367.027 358.265 372.408 357.585 377.135 356.284C379.767 355.566 382.516 354.69 385.107 355.484C385.488 355.653 385.909 355.713 386.322 355.657C386.886 355.495 387.164 354.871 387.348 354.315C388.64 350.407 389.211 346.296 389.033 342.184C388.922 345.373 388.355 348.529 387.348 351.556Z" fill="black"/>
</svg>
