<svg width="468" height="359" viewBox="0 0 468 359" fill="none" xmlns="http://www.w3.org/2000/svg">
<path opacity="0.5" d="M278.905 349.823C282.505 349.823 285.423 346.905 285.423 343.305C285.423 339.705 282.505 336.787 278.905 336.787C275.305 336.787 272.387 339.705 272.387 343.305C272.387 346.905 275.305 349.823 278.905 349.823Z" fill="#F55F44"/>
<path opacity="0.5" d="M126.3 298.39C124.441 297.58 123.485 295.505 124.076 293.566C124.122 293.422 124.151 293.274 124.163 293.123C124.222 292.238 123.691 291.42 122.859 291.114C122.027 290.807 121.092 291.085 120.563 291.796C120.474 291.918 120.4 292.05 120.342 292.189C119.532 294.048 117.457 295.004 115.518 294.413C115.374 294.367 115.225 294.337 115.075 294.326C114.19 294.267 113.372 294.798 113.065 295.63C112.759 296.462 113.037 297.397 113.748 297.926C113.87 298.015 114.002 298.089 114.141 298.147C116 298.957 116.956 301.032 116.365 302.971C116.319 303.115 116.289 303.264 116.278 303.414C116.219 304.299 116.75 305.117 117.582 305.424C118.414 305.73 119.349 305.452 119.878 304.741C119.967 304.619 120.042 304.487 120.1 304.348C120.91 302.489 122.984 301.533 124.924 302.124C125.068 302.17 125.216 302.199 125.367 302.211C126.252 302.27 127.07 301.739 127.376 300.907C127.683 300.075 127.405 299.141 126.694 298.611C126.572 298.522 126.44 298.448 126.3 298.39Z" fill="#4D8AF0"/>
<path opacity="0.5" d="M371.905 7.823C373.848 7.823 375.423 6.24787 375.423 4.30493C375.423 2.36199 373.848 0.787109 371.905 0.787109C369.962 0.787109 368.387 2.36199 368.387 4.30493C368.387 6.24787 369.962 7.823 371.905 7.823Z" fill="#F55F44"/>
<path opacity="0.5" d="M460.517 35.1021C464.117 35.1021 467.035 32.1838 467.035 28.584C467.035 24.9842 464.117 22.0659 460.517 22.0659C456.917 22.0659 453.999 24.9842 453.999 28.584C453.999 32.1838 456.917 35.1021 460.517 35.1021Z" fill="#4D8AF0"/>
<path d="M3.84399 358.754C5.59915 358.754 7.02197 357.331 7.02197 355.576C7.02197 353.821 5.59915 352.398 3.84399 352.398C2.08883 352.398 0.666016 353.821 0.666016 355.576C0.666016 357.331 2.08883 358.754 3.84399 358.754Z" fill="#DBDBDB"/>
</svg>
