<svg width="443" height="598" viewBox="0 0 443 598" fill="none" xmlns="http://www.w3.org/2000/svg">
<path d="M155.642 269.847H152.383V288.314H155.642V269.847Z" fill="#47E6B1"/>
<path d="M163.246 280.71V277.451H144.779V280.71H163.246Z" fill="#47E6B1"/>
<path opacity="0.5" d="M334.905 327.823C338.505 327.823 341.423 324.905 341.423 321.305C341.423 317.705 338.505 314.787 334.905 314.787C331.305 314.787 328.387 317.705 328.387 321.305C328.387 324.905 331.305 327.823 334.905 327.823Z" fill="#F55F44"/>
<path opacity="0.5" d="M286.3 8.38995C284.441 7.5801 283.485 5.50544 284.076 3.56598C284.122 3.42225 284.152 3.27368 284.163 3.1231C284.222 2.23829 283.691 1.42028 282.859 1.11358C282.027 0.806883 281.092 1.08458 280.563 1.79596C280.474 1.91786 280.4 2.04982 280.342 2.18902C279.532 4.04787 277.457 5.00448 275.518 4.41314C275.374 4.36678 275.226 4.33743 275.075 4.32599C274.19 4.26706 273.372 4.7979 273.065 5.62994C272.759 6.46199 273.037 7.39664 273.748 7.92608C273.87 8.01497 274.002 8.0891 274.141 8.14703C276 8.95688 276.956 11.0315 276.365 12.971C276.319 13.1147 276.29 13.2635 276.278 13.4141C276.219 14.2989 276.75 15.1169 277.582 15.4236C278.414 15.7303 279.349 15.4524 279.878 14.741C279.967 14.6192 280.042 14.4872 280.1 14.348C280.91 12.4891 282.985 11.5327 284.924 12.1241C285.068 12.1704 285.216 12.1995 285.367 12.211C286.252 12.2699 287.07 11.7393 287.376 10.9073C287.683 10.0752 287.405 9.14058 286.694 8.61114C286.572 8.52223 286.44 8.44786 286.3 8.38995Z" fill="#4D8AF0"/>
<path opacity="0.5" d="M441.3 250.389C439.441 249.579 438.485 247.504 439.076 245.565C439.122 245.421 439.152 245.273 439.163 245.122C439.222 244.237 438.691 243.419 437.859 243.113C437.027 242.806 436.092 243.084 435.563 243.795C435.474 243.917 435.4 244.049 435.342 244.188C434.532 246.047 432.457 247.004 430.518 246.412C430.374 246.366 430.226 246.336 430.075 246.325C429.19 246.266 428.372 246.797 428.065 247.629C427.759 248.461 428.037 249.396 428.748 249.925C428.87 250.014 429.002 250.088 429.141 250.146C431 250.956 431.956 253.031 431.365 254.97C431.319 255.114 431.29 255.263 431.278 255.413C431.219 256.298 431.75 257.116 432.582 257.423C433.414 257.729 434.349 257.451 434.878 256.74C434.967 256.618 435.042 256.486 435.1 256.347C435.91 254.488 437.985 253.532 439.924 254.123C440.068 254.169 440.216 254.199 440.367 254.21C441.252 254.269 442.07 253.738 442.376 252.906C442.683 252.074 442.405 251.14 441.694 250.61C441.572 250.521 441.44 250.447 441.3 250.389Z" fill="#4D8AF0"/>
<path d="M11.6418 528.847H8.38281V547.314H11.6418V528.847Z" fill="#47E6B1"/>
<path d="M19.2456 539.71V536.451H0.778606V539.71H19.2456Z" fill="#47E6B1"/>
<path opacity="0.5" d="M415.905 528.823C419.505 528.823 422.423 525.905 422.423 522.305C422.423 518.705 419.505 515.787 415.905 515.787C412.305 515.787 409.387 518.705 409.387 522.305C409.387 525.905 412.305 528.823 415.905 528.823Z" fill="#F55F44"/>
<path opacity="0.5" d="M153.3 590.389C151.441 589.579 150.485 587.504 151.076 585.565C151.122 585.421 151.152 585.273 151.163 585.122C151.222 584.237 150.691 583.419 149.859 583.113C149.027 582.806 148.092 583.084 147.563 583.795C147.474 583.917 147.4 584.049 147.342 584.188C146.532 586.047 144.457 587.004 142.518 586.412C142.374 586.366 142.226 586.336 142.075 586.325C141.19 586.266 140.372 586.797 140.065 587.629C139.759 588.461 140.037 589.396 140.748 589.925C140.87 590.014 141.002 590.088 141.141 590.146C143 590.956 143.956 593.031 143.365 594.97C143.319 595.114 143.289 595.263 143.278 595.413C143.219 596.298 143.75 597.116 144.582 597.423C145.414 597.729 146.349 597.451 146.878 596.74C146.967 596.618 147.042 596.486 147.1 596.347C147.91 594.488 149.985 593.532 151.924 594.123C152.068 594.169 152.216 594.199 152.367 594.21C153.252 594.269 154.07 593.738 154.376 592.906C154.683 592.074 154.405 591.14 153.694 590.61C153.572 590.521 153.44 590.447 153.3 590.389Z" fill="#4D8AF0"/>
</svg>
