<svg width="659" height="877" viewBox="0 0 659 877" fill="none" xmlns="http://www.w3.org/2000/svg">
<path d="M507.701 1.85925C342.349 77.6773 198.068 19.5862 81.5839 154.031C-34.9001 288.476 -46.7401 652.308 192.408 817.89C403.335 963.932 542.898 783.421 658 789" stroke="#3D3691" stroke-width="2"/>
<path opacity="0.1" d="M538.971 244.269C523.621 263.785 529.584 292.295 539.338 315.128C542.604 322.773 546.298 330.861 544.92 339.059C543.235 349.084 534.288 356.415 524.894 360.3C507.415 367.354 487.63 365.725 471.541 355.906C457.941 347.447 448.204 333.69 434.374 325.616C411.229 312.104 381.774 317.206 356.637 326.516C338.856 333.101 319.417 341.665 301.749 334.783C289.317 329.941 280.724 318.154 276.042 305.661C273.781 299.629 272.142 293.1 267.824 288.319C265.147 285.566 261.976 283.34 258.477 281.758C227.147 266.224 187.577 274.543 157.146 257.313C136.594 245.675 123.437 223.725 117.611 200.834C111.785 177.943 112.464 153.947 113.943 130.376C114.994 113.625 116.88 95.742 127.583 82.814C138.906 69.141 158.337 64.056 175.901 66.655C193.465 69.254 209.385 78.519 223.39 89.434C240.89 103.072 257.127 120.055 278.619 125.579C293.255 129.341 308.651 127.279 323.745 126.571C348.98 125.38 374.225 128.029 399.321 130.93C423.346 133.707 447.544 136.764 470.432 144.58C486.632 150.111 499.614 160.15 514.908 167.164C524.877 171.736 535.748 172.998 545.187 178.821C556.814 185.994 567.474 198.471 564.495 213.071C561.661 226.949 547.118 233.911 538.971 244.269Z" fill="#584DFC"/>
<path d="M406.2 125.854C406.2 125.854 381.526 118.546 379.9 139.332C378.274 160.118 386.421 194.353 379.9 205.357C373.379 216.361 350.11 232.257 362.356 233.685C374.602 235.113 380.715 237.147 377.047 244.485C373.379 251.823 354.223 258.75 358.299 264.048C362.375 269.346 364.412 275.867 360.337 282.388C356.262 288.909 341.997 292.988 344.442 297.468C346.887 301.948 355.854 304.397 351.371 309.287C346.888 314.177 333.891 325.303 338.963 325.242" stroke="#535461" stroke-width="3"/>
<path d="M434.561 112.006H397.894C390.731 112.006 384.924 117.813 384.924 124.976V128.071C384.924 135.234 390.731 141.041 397.894 141.041H434.561C441.724 141.041 447.531 135.234 447.531 128.071V124.976C447.531 117.813 441.724 112.006 434.561 112.006Z" fill="#584DFC"/>
<path opacity="0.1" d="M442.54 136.585H389.914V137.585H442.54V136.585Z" fill="black"/>
<path opacity="0.3" d="M442.54 116.543H389.914V136.505H442.54V116.543Z" fill="black"/>
<path opacity="0.1" d="M402.164 134.2C406.173 134.2 409.423 130.95 409.423 126.941C409.423 122.932 406.173 119.682 402.164 119.682C398.155 119.682 394.905 122.932 394.905 126.941C394.905 130.95 398.155 134.2 402.164 134.2Z" fill="black"/>
<path opacity="0.1" d="M430.291 134.2C434.3 134.2 437.55 130.95 437.55 126.941C437.55 122.932 434.3 119.682 430.291 119.682C426.282 119.682 423.032 122.932 423.032 126.941C423.032 130.95 426.282 134.2 430.291 134.2Z" fill="black"/>
<path d="M421.671 141.04H410.783V147.393H421.671V141.04Z" fill="#584DFC"/>
<path d="M438.911 145.578H393.544V181.872H438.911V145.578Z" fill="#584DFC"/>
<path d="M439.818 189.13H392.636V193.667H439.818V189.13Z" fill="#584DFC"/>
<path d="M400.349 204.555V225.428H408.515V198.208H400.349V204.555Z" fill="#584DFC"/>
<path d="M424.849 198.204V225.428H433.015V198.208L424.849 198.204Z" fill="#584DFC"/>
<path d="M387.365 153.745V162.137C385.124 162.529 383.035 163.535 381.333 165.045C379.754 166.507 378.527 168.307 377.742 170.311C376.742 172.883 376.145 175.594 375.974 178.349C375.717 181.95 375.884 185.57 376.474 189.132H367.402C367.024 184.798 367.103 180.436 367.639 176.118C368.067 172.549 369.05 169.069 370.551 165.803C372.512 161.42 375.92 157.844 380.203 155.674C382.428 154.536 384.868 153.879 387.364 153.745H387.365Z" fill="#584DFC"/>
<path opacity="0.3" d="M408.515 198.204H400.349V204.555H408.515V198.204Z" fill="black"/>
<path opacity="0.3" d="M408.515 209.999H400.349V218.165H408.515V209.999Z" fill="black"/>
<path opacity="0.3" d="M408.515 222.702H400.349V225.424H408.515V222.702Z" fill="black"/>
<path opacity="0.3" d="M433.013 198.204H424.847V204.555H433.013V198.204Z" fill="black"/>
<path opacity="0.3" d="M433.013 209.999H424.847V218.165H433.013V209.999Z" fill="black"/>
<path opacity="0.3" d="M433.013 222.702H424.847V225.424H433.013V222.702Z" fill="black"/>
<path opacity="0.3" d="M387.364 153.745V162.137C385.123 162.529 383.034 163.535 381.332 165.045L380.203 155.674C382.428 154.536 384.868 153.879 387.364 153.745Z" fill="black"/>
<path opacity="0.3" d="M377.746 170.31C376.746 172.882 376.149 175.594 375.978 178.348L367.644 176.117C368.072 172.548 369.055 169.068 370.556 165.802L377.746 170.31Z" fill="black"/>
<path d="M445.09 153.745V162.137C447.331 162.529 449.42 163.535 451.122 165.045C452.701 166.507 453.928 168.307 454.713 170.311C455.714 172.883 456.31 175.595 456.481 178.349C456.739 181.95 456.571 185.57 455.981 189.132H465.054C465.432 184.798 465.353 180.436 464.817 176.118C464.389 172.549 463.407 169.069 461.905 165.803C459.944 161.42 456.536 157.844 452.253 155.674C450.027 154.536 447.587 153.879 445.09 153.745Z" fill="#584DFC"/>
<path opacity="0.3" d="M445.09 153.745V162.137C447.331 162.529 449.42 163.535 451.122 165.045L452.251 155.674C450.026 154.536 447.586 153.879 445.09 153.745Z" fill="black"/>
<path opacity="0.3" d="M454.714 170.31C455.715 172.882 456.311 175.594 456.482 178.348L464.816 176.117C464.388 172.548 463.406 169.068 461.904 165.802L454.714 170.31Z" fill="black"/>
<path opacity="0.1" d="M421.671 141.04H410.783V142.04H421.671V141.04Z" fill="black"/>
<path opacity="0.1" d="M439.717 152.044V167.244C439.174 166.658 438.873 165.889 438.873 165.09V154.2C438.872 153.4 439.173 152.63 439.717 152.044Z" fill="black"/>
<path opacity="0.1" d="M393.704 153.047V164.422C393.65 165.141 393.351 165.821 392.858 166.347V151.122C393.351 151.648 393.65 152.328 393.704 153.047Z" fill="black"/>
<path opacity="0.1" d="M436.643 181.872H395.813V182.872H436.643V181.872Z" fill="black"/>
<path opacity="0.1" d="M414.865 193.668H394.904V194.668H414.865V193.668Z" fill="black"/>
<path opacity="0.1" d="M436.643 193.668H416.682V194.668H436.643V193.668Z" fill="black"/>
<path d="M400.255 85.136H397.131V112.006H400.255V85.136Z" fill="#584DFC"/>
<path d="M436.082 85.136H432.958V112.006H436.082V85.136Z" fill="#584DFC"/>
<path opacity="0.1" d="M398.589 88.886C400.545 88.886 402.13 87.3006 402.13 85.345C402.13 83.3893 400.545 81.804 398.589 81.804C396.633 81.804 395.048 83.3893 395.048 85.345C395.048 87.3006 396.633 88.886 398.589 88.886Z" fill="black"/>
<path d="M398.589 88.677C400.545 88.677 402.13 87.0916 402.13 85.136C402.13 83.1804 400.545 81.595 398.589 81.595C396.633 81.595 395.048 83.1804 395.048 85.136C395.048 87.0916 396.633 88.677 398.589 88.677Z" fill="#584DFC"/>
<path opacity="0.1" d="M434.624 88.886C436.58 88.886 438.165 87.3006 438.165 85.345C438.165 83.3893 436.58 81.804 434.624 81.804C432.668 81.804 431.083 83.3893 431.083 85.345C431.083 87.3006 432.668 88.886 434.624 88.886Z" fill="black"/>
<path d="M434.624 88.677C436.58 88.677 438.165 87.0916 438.165 85.136C438.165 83.1804 436.58 81.595 434.624 81.595C432.668 81.595 431.083 83.1804 431.083 85.136C431.083 87.0916 432.668 88.677 434.624 88.677Z" fill="#584DFC"/>
<path opacity="0.5" d="M360.944 240.814C359.551 242.209 359.233 244.124 358.738 245.901C357.156 251.212 353.858 255.849 349.361 259.087C345.961 261.604 341.411 264.387 342.216 268.146C342.408 269.046 342.916 269.881 343.05 270.786C343.628 274.703 337.641 276.766 335.323 280.194C333.596 282.747 334.058 285.91 334.571 288.818C335.199 292.378 335.959 296.175 338.879 298.796C339.728 299.42 340.493 300.151 341.156 300.97C342.388 302.881 341.317 305.385 342.437 307.344C343.93 309.957 348.637 310.07 351.362 308.308C354.087 306.546 355.352 303.65 356.562 300.935C359.831 293.596 363.849 286.235 370.643 280.888C377.157 275.764 386.632 271.788 387.75 264.33C388.229 261.13 387.015 257.63 388.869 254.81C389.745 253.479 391.21 252.492 392.202 251.22C395.157 247.43 392.957 241.947 388.63 239.255C382.098 235.189 366.627 235.124 360.944 240.814Z" fill="#DEE3F3"/>
<path d="M475.458 104.556L446.67 113.55L447.764 117.051L476.552 108.057L475.458 104.556Z" fill="#584DFC"/>
<path d="M488.275 240.822C488.275 240.822 472.493 237.666 468.284 233.457C464.075 229.248 445.136 221.883 443.032 227.144C440.928 232.405 414.624 250.292 432.51 253.444C450.396 256.596 474.596 257.653 479.857 255.544C485.118 253.435 488.275 240.822 488.275 240.822Z" fill="#A8A8A8"/>
<path opacity="0.2" d="M432.51 251.494C450.397 254.651 474.596 255.703 479.857 253.594C483.863 251.994 486.647 244.294 487.748 240.709C488.081 240.78 488.274 240.819 488.274 240.819C488.274 240.819 485.118 253.445 479.857 255.549C474.596 257.653 450.396 256.601 432.51 253.449C427.347 252.538 425.87 250.398 426.427 247.69C426.868 249.456 428.667 250.815 432.51 251.494Z" fill="black"/>
<path d="M523.323 103.227C523.042 102.526 522.593 101.905 522.017 101.417C517.783 97.557 510.932 98.727 505.674 96.369C504.463 95.826 503.22 95.069 501.905 95.279C500.068 95.567 498.361 97.658 496.759 96.731L496.874 97.08C496.836 97.061 496.797 97.042 496.759 97.02L497.937 100.607C498.315 102.012 498.926 103.345 499.745 104.548C497.103 106.853 495.813 110.341 496.318 113.811C496.823 117.28 499.056 120.255 502.245 121.711C502.301 121.831 502.356 121.952 502.409 122.073C502.459 122.095 502.509 122.115 502.56 122.137C502.909 122.94 503.17 123.778 503.337 124.637C501.974 124.825 499.598 126.337 497.261 128.558L492.588 128.398C489.567 128.298 486.644 127.304 484.188 125.543L470.213 115.496C469.217 115.594 468.278 116.009 467.535 116.68C465.8 114.872 464.327 112.98 464.452 111.88C464.452 111.88 457.952 99.716 455.59 105.798C453.228 111.88 460.021 118.251 460.021 118.251L464.331 123.835C464.161 124.814 464.054 125.803 464.009 126.795C469.326 132.877 487.937 138.379 487.937 138.379L490.837 138.519C490.843 138.572 490.848 138.619 490.853 138.662C490.675 139.423 490.588 140.203 490.593 140.985C490.593 141.097 490.593 141.215 490.599 141.333C490.599 141.41 490.592 141.488 490.593 141.565C490.741 151.265 492.07 180.952 492.07 180.952C492.329 180.837 492.596 180.731 492.87 180.632L492.663 183.269C492.663 183.269 480.256 185.007 471.098 188.482C461.94 191.957 461.645 196.012 461.645 196.012V231.788C459.029 233.13 454.902 234.895 452.783 233.95C450.483 232.925 449.221 233.786 448.992 234.685C448.945 234.862 448.942 235.047 448.982 235.225V235.236C449.002 235.316 449.031 235.393 449.07 235.465L449.079 235.482C449.121 235.557 449.174 235.626 449.235 235.687C450.121 236.556 469.323 244.087 473.754 242.927C473.89 242.891 474.024 242.846 474.154 242.792C474.197 242.774 474.234 242.751 474.276 242.732C474.358 242.693 474.441 242.656 474.517 242.61C474.563 242.583 474.604 242.55 474.647 242.521C474.713 242.477 474.781 242.434 474.847 242.384C474.89 242.35 474.929 242.31 474.97 242.274C475.027 242.223 475.085 242.174 475.138 242.119C475.191 242.064 475.211 242.034 475.248 241.992C475.298 241.934 475.348 241.878 475.396 241.816C475.43 241.772 475.459 241.724 475.496 241.677C475.541 241.612 475.586 241.547 475.627 241.477C475.655 241.43 475.681 241.377 475.707 241.33C475.747 241.257 475.787 241.185 475.823 241.109C475.846 241.06 475.867 241.009 475.889 240.959C475.924 240.878 475.959 240.798 475.989 240.714C476.008 240.665 476.024 240.614 476.042 240.564C476.073 240.475 476.103 240.386 476.131 240.295C476.145 240.247 476.158 240.195 476.171 240.15C476.198 240.05 476.224 239.95 476.247 239.85C476.257 239.805 476.266 239.76 476.276 239.715C476.299 239.608 476.321 239.501 476.34 239.391C476.347 239.351 476.353 239.31 476.36 239.269C476.379 239.152 476.396 239.035 476.411 238.916C476.411 238.882 476.419 238.848 476.423 238.816C476.438 238.689 476.451 238.562 476.461 238.433C476.461 238.406 476.461 238.379 476.467 238.352C476.478 238.215 476.486 238.077 476.493 237.939C476.493 237.921 476.493 237.902 476.493 237.884C476.499 237.737 476.503 237.589 476.505 237.442V237.414C476.499 235.686 476.308 233.964 475.935 232.277L477.007 201.798C482.809 201.888 488.612 201.675 494.391 201.158L495.027 215.7C495.027 215.7 495.027 225.257 498.276 229.6C501.057 233.318 504.27 249.76 505.139 254.425C503.945 256.701 501.661 259.516 497.685 259.425C497.685 259.425 490.203 258.778 490.625 260.836C490.637 260.89 490.652 260.943 490.672 260.994V261.007C490.695 261.066 490.722 261.123 490.753 261.179L490.76 261.191C490.79 261.244 490.825 261.299 490.86 261.355L490.884 261.389C490.928 261.45 490.975 261.512 491.03 261.576L491.044 261.591C491.094 261.649 491.149 261.709 491.208 261.77L491.258 261.821C491.325 261.888 491.395 261.957 491.473 262.027C495.313 265.502 517.764 266.082 517.764 266.082V266.004C517.764 265.982 517.764 265.954 517.764 265.923V265.911C517.734 262.441 517.232 258.991 516.273 255.656H516.584C516.584 255.656 513.335 226.406 510.676 222.93C510.676 222.93 509.97 207.507 511.564 197.84C511.664 197.805 511.764 197.77 511.858 197.734C519.305 194.953 519.834 188.103 519.067 183.07C520.476 183.523 521.311 183.833 521.311 183.833C521.311 183.833 521.285 183.614 521.237 183.227L521.311 183.254C521.311 183.254 521.169 182.334 520.935 180.899C520.402 176.953 519.37 170.056 518.271 166.799C518.094 166.083 517.923 165.471 517.766 165.008C517.132 163.051 516.696 161.036 516.466 158.992C516.165 156.344 516.013 153.68 516.01 151.015C516.035 147.453 516.307 143.897 516.827 140.373C517.314 137.388 517.589 134.373 517.65 131.35C517.681 130.499 517.621 129.647 517.472 128.808C517.078 127.008 515.337 125.83 513.526 125.083C513.409 125.035 513.29 124.995 513.172 124.951C513.216 124.267 513.272 123.492 513.349 122.674C513.788 122.976 514.332 123.084 514.854 122.974C515.608 122.716 516.254 122.212 516.688 121.543C519.306 118.327 521.995 114.976 523 110.981C523.402 109.197 523.588 107.371 523.554 105.542C523.554 105.442 523.554 105.342 523.554 105.242C523.594 104.562 523.516 103.88 523.323 103.227Z" fill="url(#paint0_linear_1_99)"/>
<path d="M499.486 118.901C499.486 118.901 503.453 124.851 502.603 127.684C501.753 130.517 511.953 128.817 511.953 128.817C511.953 128.817 512.236 117.767 514.22 115.217C516.204 112.667 499.486 118.901 499.486 118.901Z" fill="#F7C4A7"/>
<path d="M473.278 122.726C473.278 122.726 465.061 115.926 465.345 113.376C465.345 113.376 459.112 101.476 456.845 107.426C454.578 113.376 461.095 119.609 461.095 119.609L469.028 130.092L473.278 122.726Z" fill="#F7C4A7"/>
<path d="M464.92 229.4C464.92 229.4 457.27 234.217 454.153 232.8C451.036 231.383 449.903 233.65 450.753 234.5C451.603 235.35 470.019 242.717 474.269 241.583C478.519 240.449 476.357 231.169 476.357 231.169L464.92 229.4Z" fill="#535461"/>
<path d="M505.436 250.084C505.436 250.084 503.594 257.876 497.219 257.734C497.219 257.734 487.586 256.884 491.269 260.284C494.952 263.684 516.485 264.251 516.485 264.251C516.485 264.251 516.485 252.634 512.518 250.084C510.403 248.563 507.552 248.563 505.436 250.084Z" fill="#535461"/>
<path d="M493.82 195.115L494.67 214.948C494.67 214.948 494.67 224.298 497.787 228.548C500.904 232.798 504.587 254.048 504.587 254.048H515.354C515.354 254.048 512.237 225.432 509.687 222.032C509.687 222.032 508.554 196.816 512.52 191.149L493.82 195.115Z" fill="#575988"/>
<path opacity="0.1" d="M493.82 195.115L494.67 214.948C494.67 214.948 494.67 224.298 497.787 228.548C500.904 232.798 504.587 254.048 504.587 254.048H515.354C515.354 254.048 512.237 225.432 509.687 222.032C509.687 222.032 508.554 196.816 512.52 191.149L493.82 195.115Z" fill="black"/>
<path d="M516.202 177.267C516.202 177.267 522.719 192.85 510.819 197.383C498.919 201.916 477.386 201.35 477.386 201.35L476.253 234.216C476.253 234.216 462.936 235.916 462.653 231.666V195.684C462.653 195.684 462.936 191.717 471.72 188.317C480.504 184.917 492.403 183.217 492.403 183.217L492.97 175.85L516.202 177.267Z" fill="#575988"/>
<path opacity="0.1" d="M505.761 125.936C508.024 125.686 510.313 126.009 512.418 126.877C514.154 127.608 515.824 128.756 516.202 130.521C516.65 132.612 516.153 137.302 515.583 141.269C514.671 147.49 514.555 153.802 515.238 160.052C515.355 162.065 515.776 164.049 516.485 165.937C518.185 169.054 519.885 183.787 519.885 183.787C519.885 183.787 501.185 176.704 491.835 180.954C491.835 180.954 490.56 151.913 490.418 142.421C490.308 135.072 499.626 126.696 502.743 126.413C504.572 126.243 503.946 126.12 505.761 125.936Z" fill="black"/>
<path d="M505.761 125.366C508.024 125.116 510.313 125.439 512.418 126.307C514.154 127.037 515.824 128.186 516.202 129.951C516.65 132.042 516.153 136.732 515.583 140.699C514.671 146.92 514.555 153.232 515.238 159.482C515.459 161.48 515.876 163.451 516.485 165.367C517.76 169.192 519.885 183.217 519.885 183.217C519.885 183.217 501.185 176.134 491.835 180.384C491.835 180.384 490.56 151.343 490.418 141.851C490.308 134.502 499.626 126.126 502.743 125.843C504.572 125.677 503.946 125.554 505.761 125.366Z" fill="#E14B5A"/>
<path opacity="0.1" d="M510.82 141.001L490.704 139.868C490.704 139.868 489.424 130.006 492.328 130.107L512.237 130.802C512.237 130.802 516.486 135.901 510.82 141.001Z" fill="black"/>
<path d="M510.82 140.434L487.87 139.301C487.87 139.301 470.02 133.918 464.92 127.968C464.92 127.968 465.203 117.485 470.87 116.918L484.27 126.747C486.613 128.465 489.419 129.439 492.323 129.54L512.232 130.235C512.232 130.235 516.486 135.334 510.82 140.434Z" fill="#E14B5A"/>
<path opacity="0.1" d="M511.811 120.176C512.148 117.489 513.366 116.598 514.219 115.501C516.202 112.951 499.486 119.184 499.486 119.184C500.348 120.512 501.104 121.906 501.746 123.353C503.081 123.968 504.533 124.285 506.003 124.284C508.468 124.284 510.048 121.631 511.811 120.176Z" fill="black"/>
<path d="M506.003 124.001C511.636 124.001 516.203 119.434 516.203 113.801C516.203 108.168 511.636 103.601 506.003 103.601C500.37 103.601 495.803 108.168 495.803 113.801C495.803 119.434 500.37 124.001 506.003 124.001Z" fill="#F7C4A7"/>
<path opacity="0.1" d="M499.562 106.652C498.563 105.385 497.847 103.919 497.462 102.352L496.332 98.842C497.868 99.75 499.506 97.704 501.267 97.422C502.528 97.222 503.72 97.957 504.882 98.489C509.925 100.796 516.495 99.651 520.557 103.427C521.112 103.907 521.542 104.515 521.81 105.198C521.999 105.847 522.076 106.523 522.037 107.198C522.07 108.986 521.892 110.772 521.506 112.519C520.541 116.427 517.963 119.706 515.452 122.852C515.04 123.503 514.42 123.996 513.693 124.252C512.235 124.578 511.107 123.002 510.543 121.619C509.796 119.787 509.245 117.881 508.899 115.933C508.811 115.101 508.584 114.29 508.226 113.533C507.348 111.977 505.184 110.504 503.868 109.298C502.578 108.109 500.77 107.972 499.562 106.652Z" fill="black"/>
<path d="M499.562 106.369C498.563 105.102 497.847 103.636 497.462 102.069L496.332 98.559C497.868 99.467 499.506 97.421 501.267 97.139C502.528 96.939 503.72 97.674 504.882 98.206C509.925 100.513 516.495 99.368 520.557 103.144C521.112 103.624 521.542 104.232 521.81 104.915C521.999 105.564 522.076 106.24 522.037 106.915C522.07 108.703 521.892 110.489 521.506 112.236C520.541 116.144 517.963 119.423 515.452 122.569C515.04 123.22 514.42 123.713 513.693 123.969C512.235 124.295 511.107 122.719 510.543 121.336C509.796 119.504 509.245 117.598 508.899 115.65C508.811 114.818 508.584 114.007 508.226 113.25C507.348 111.694 505.184 110.221 503.868 109.015C502.578 107.821 500.77 107.688 499.562 106.369Z" fill="#632652"/>
<path d="M508.694 116.777C509.246 116.777 509.694 115.952 509.694 114.935C509.694 113.918 509.246 113.093 508.694 113.093C508.142 113.093 507.694 113.918 507.694 114.935C507.694 115.952 508.142 116.777 508.694 116.777Z" fill="#F7C4A7"/>
<path opacity="0.1" d="M513.798 164.092C513.798 164.092 513.231 165.792 510.398 165.509C507.565 165.226 499.348 164.659 499.348 165.509" fill="black"/>
<path opacity="0.5" d="M491.269 260C490.88 259.7 490.592 259.287 490.445 258.818C490.371 259.186 490.598 259.664 491.269 260.284C494.952 263.684 516.485 264.251 516.485 264.251C516.485 264.251 516.485 264.151 516.485 263.968C516.347 263.963 494.941 263.389 491.269 260Z" fill="white"/>
<path opacity="0.5" d="M474.269 241.017C470.019 242.15 451.602 234.784 450.753 233.934C450.639 233.819 450.558 233.676 450.517 233.52C450.417 233.866 450.506 234.239 450.753 234.501C451.603 235.351 470.019 242.718 474.269 241.584C476.457 241.001 476.944 238.259 476.903 235.736C476.862 238.089 476.294 240.477 474.269 241.017Z" fill="white"/>
<path d="M312.644 262.734C311.65 257.206 311.041 251.616 310.82 246.004C310.422 236.532 304.106 228.335 295.048 225.534C293.439 225.034 291.663 224.576 289.706 224.16C272.536 220.513 267.32 223.697 266.728 224.116C266.228 223.202 265.794 222.253 265.428 221.277C265.399 221.177 265.372 221.077 265.344 220.977C268.742 217.353 270.811 212.685 271.216 207.734C274.025 205.081 275.658 201.416 275.753 197.554C275.7 194.271 274.494 191.111 272.346 188.628V183.508C272.346 177.594 269.997 171.922 265.815 167.74C261.632 163.557 255.96 161.208 250.046 161.208H248.238C235.922 161.208 225.938 171.192 225.938 183.508V189.034C223.984 191.447 222.898 194.448 222.855 197.553C222.942 201.329 224.508 204.92 227.215 207.553C227.591 212.686 229.757 217.524 233.334 221.225C233.455 222.062 233.578 222.963 233.7 223.914L202.981 230.414C202.981 230.414 191.138 230.901 183.512 246.638C177.057 259.961 164.207 294.211 160.412 304.408C159.725 306.256 159.335 307.315 159.335 307.315C159.335 307.315 159.461 307.188 159.702 306.971C159.463 307.616 159.335 307.964 159.335 307.964C159.335 307.964 159.521 307.775 159.876 307.464C159.338 311.731 159.261 319.055 164.851 319.964C169.537 320.729 181.607 321.043 190.728 321.172V321.181H191.361C197.405 321.262 202.004 321.262 202.004 321.262V321.181H300.077V320.176C300.078 319.263 299.894 318.36 299.537 317.52C299.584 317.466 299.63 317.411 299.674 317.356C300.199 318.049 300.548 318.859 300.692 319.716C300.681 319.8 300.666 319.883 300.646 319.965L300.704 319.815C300.727 320.083 300.708 320.353 300.646 320.615C300.646 320.615 313.229 288.194 313.094 268.836C313.131 266.793 312.976 264.751 312.633 262.736L312.644 262.734ZM234.216 228.287C234.054 227.361 233.95 226.426 233.905 225.487V225.461C234.011 226.376 234.116 227.32 234.216 228.287ZM196.096 297.925V305.652L191.252 306.686L196.096 297.925Z" fill="url(#paint1_linear_1_99)"/>
<path d="M248.644 164.33C260.96 164.33 270.944 174.314 270.944 186.63V196.141H226.348V186.63C226.348 174.314 236.332 164.33 248.648 164.33H248.644Z" fill="#E14B5A"/>
<path d="M248.8 216.719C262.836 216.719 274.214 208.901 274.214 199.256C274.214 189.611 262.836 181.793 248.8 181.793C234.764 181.793 223.386 189.611 223.386 199.256C223.386 208.901 234.764 216.719 248.8 216.719Z" fill="#E14B5A"/>
<path d="M232.507 216.176C232.507 216.176 237.807 243.929 232.507 251.413C227.207 258.897 248.722 261.859 248.722 261.859L271.022 253.751L274.14 233.794C274.14 233.794 260.575 226.154 263.382 210.718L232.507 216.176Z" fill="#F7C4A7"/>
<path d="M298.303 309.722C298.303 309.722 299.703 315.803 292.066 316.894C287.554 317.558 282.966 317.503 278.471 316.732L276.786 301.458H294.56L298.303 309.722Z" fill="#F7C4A7"/>
<path d="M163.38 301.938C163.38 301.938 160.006 315.646 167.646 316.893C175.286 318.14 203.346 318.14 203.346 318.14V301.925L190.646 304.639L178.716 293.194L163.38 301.938Z" fill="#F7C4A7"/>
<path opacity="0.1" d="M234.144 225.138L204.286 231.453C204.286 231.453 192.904 231.921 185.576 247.045C178.248 262.169 162.345 305.357 162.345 305.357C162.345 305.357 175.91 291.636 191.813 306.292L202.413 287.114L200.074 317.514H282.241V303.176C282.241 303.176 299.392 312.376 298.141 317.52C298.141 317.52 312.817 279.706 309.661 262.52C308.706 257.208 308.12 251.835 307.908 246.442C307.524 237.34 301.455 229.463 292.751 226.772C291.204 226.296 289.498 225.851 287.618 225.452C270 221.71 265.478 225.452 265.478 225.452C265.478 225.452 262.065 236.552 262.126 241.589C262.204 248.059 252.926 252.347 252.926 252.347C252.926 252.347 239.205 249.073 238.582 246.422C237.959 243.771 233.053 228.256 234.144 225.138Z" fill="black"/>
<path d="M234.143 224.513L204.285 230.828C204.285 230.828 192.903 231.296 185.575 246.42C178.247 261.544 162.344 304.732 162.344 304.732C162.344 304.732 175.909 291.011 191.812 305.667L202.412 286.489L200.073 316.889H282.24V302.549C282.24 302.549 299.391 311.749 298.14 316.893C298.14 316.893 312.816 279.079 309.66 261.893C308.705 256.581 308.119 251.208 307.907 245.815C307.523 236.713 301.454 228.836 292.75 226.145C291.203 225.669 289.497 225.224 287.616 224.825C269.998 221.083 265.476 224.825 265.476 224.825C265.476 224.825 262.063 235.925 262.124 240.962C262.202 247.432 252.924 251.72 252.924 251.72C252.924 251.72 239.203 248.446 238.58 245.795C237.957 243.144 233.052 227.632 234.143 224.513Z" fill="#575988"/>
<path opacity="0.1" d="M264.659 223.189C263.405 219.638 263.124 215.816 263.845 212.119L232.974 217.576C232.974 217.576 233.42 219.909 233.923 223.404C237.955 227.588 243.527 229.934 249.337 229.893C255.147 229.853 260.686 227.429 264.659 223.189Z" fill="black"/>
<path d="M269.926 207.285C270.068 218.993 260.692 228.6 248.984 228.743C237.275 228.885 227.668 219.508 227.526 207.8C227.526 207.629 227.526 207.457 227.526 207.285C227.525 199.184 232.139 191.789 239.416 188.229C240.049 187.92 240.701 187.641 241.373 187.392C244.863 186.109 248.628 185.76 252.295 186.379H252.303C261.972 188.025 269.247 196.092 269.889 205.879C269.914 206.344 269.926 206.813 269.926 207.285Z" fill="#F7C4A7"/>
<g opacity="0.1">
<path d="M241.334 187.89L241.364 187.871C233.039 190.95 227.513 198.888 227.517 207.764C227.517 207.935 227.517 208.107 227.523 208.278C228.181 208.26 228.829 208.104 229.423 207.821C234.593 205.409 237.694 198.026 238.912 192.878C239.351 191.036 239.769 188.959 241.334 187.89Z" fill="black"/>
<path d="M257.565 188.485C255.887 187.714 254.115 187.167 252.294 186.859C253.788 187.202 255.122 188.04 256.08 189.237C256.549 189.876 256.939 190.57 257.239 191.303C251.528 188.806 245.008 188.941 239.405 191.673C240.737 194.59 244.864 196.182 247.619 197.247C250.636 198.412 253.688 199.477 256.776 200.442C255.867 199.703 254.958 198.965 254.049 198.228L260.206 199.207C260.273 197.981 260.127 196.753 259.776 195.577C260.948 196.528 262.52 196.846 263.8 197.654C266.2 199.166 267.2 202.085 268.506 204.602C268.809 205.295 269.282 205.9 269.881 206.361C269.366 198.594 264.639 191.733 257.565 188.485Z" fill="black"/>
</g>
<path d="M241.334 187.411L241.364 187.392C233.039 190.471 227.513 198.409 227.517 207.285C227.517 207.456 227.517 207.628 227.523 207.8C228.181 207.782 228.829 207.626 229.423 207.343C234.593 204.931 237.694 197.548 238.912 192.4C239.351 190.557 239.769 188.479 241.334 187.411Z" fill="#632652"/>
<path d="M257.565 188.006C255.887 187.235 254.115 186.688 252.294 186.38C253.788 186.723 255.122 187.561 256.08 188.758C256.549 189.397 256.939 190.091 257.239 190.824C251.528 188.327 245.008 188.462 239.405 191.194C240.737 194.111 244.864 195.703 247.619 196.768C250.636 197.933 253.688 198.998 256.776 199.963C255.867 199.224 254.958 198.486 254.049 197.749L260.206 198.728C260.273 197.502 260.127 196.274 259.776 195.098C260.948 196.049 262.52 196.367 263.8 197.175C266.2 198.687 267.2 201.606 268.506 204.123C268.809 204.816 269.282 205.421 269.881 205.882C269.366 198.115 264.639 191.254 257.565 188.006Z" fill="#632652"/>
<path opacity="0.1" d="M225.101 203.788C225.101 203.788 246.929 176.659 272.187 203.788L270.004 197.707C270.004 197.707 258.155 180.401 249.739 184.143C241.323 187.885 233.056 190.536 233.056 190.536L225.101 203.788Z" fill="black"/>
<path d="M225.101 203.309C225.101 203.309 246.929 176.18 272.187 203.309L270.004 197.228C270.004 197.228 258.155 179.922 249.739 183.668C241.323 187.414 233.056 190.061 233.056 190.061L225.101 203.309Z" fill="#E14B5A"/>
<path opacity="0.1" d="M207.169 261.777C207.169 261.777 202.492 274.25 209.04 285.477C215.588 296.704 203.271 301.377 203.271 301.377" fill="black"/>
<path opacity="0.1" d="M282.945 250.551C282.945 250.551 291.053 260.841 285.752 270.04C280.451 279.239 280.763 301.379 280.763 301.379" fill="black"/>
<path d="M199.998 310.579H290.117C294.25 310.579 297.601 313.93 297.601 318.063H192.514C192.514 316.078 193.303 314.175 194.706 312.771C196.11 311.367 198.013 310.579 199.998 310.579Z" fill="#535461"/>
<path d="M213.554 259.127H276.561C285.338 259.13 292.453 266.245 292.456 275.022V312.294H197.656V275.022C197.659 266.243 204.777 259.127 213.556 259.127H213.554Z" fill="#535461"/>
<path d="M244.98 293.662C248.08 293.662 250.593 291.149 250.593 288.049C250.593 284.949 248.08 282.436 244.98 282.436C241.88 282.436 239.367 284.949 239.367 288.049C239.367 291.149 241.88 293.662 244.98 293.662Z" fill="white"/>
<path opacity="0.1" d="M226.348 191.068C226.348 191.068 247.802 169.626 270.94 190.677" stroke="black"/>
<path d="M276.362 189.702H274.207V201.912H276.362V189.702Z" fill="#6A5C99"/>
<path d="M271.334 197.602C275.433 197.602 278.756 200.925 278.756 205.024V205.503C278.756 209.602 275.433 212.925 271.334 212.925V197.602Z" fill="#FFD037"/>
<path d="M273.249 198.56C273.249 197.634 272.499 196.884 271.573 196.884C270.647 196.884 269.897 197.634 269.897 198.56V211.967C269.897 212.893 270.647 213.643 271.573 213.643C272.499 213.643 273.249 212.893 273.249 211.967V198.56Z" fill="#6A5C99"/>
<path d="M220.707 202.151H222.862V189.941H220.707V202.151Z" fill="#6A5C99"/>
<path d="M225.735 213.164C221.636 213.164 218.313 209.841 218.313 205.742V205.264C218.313 201.165 221.636 197.842 225.735 197.842V213.164Z" fill="#FFD037"/>
<path d="M223.819 212.207C223.819 213.133 224.569 213.883 225.495 213.883C226.421 213.883 227.171 213.133 227.171 212.207V198.8C227.171 197.874 226.421 197.124 225.495 197.124C224.569 197.124 223.819 197.874 223.819 198.8V212.207Z" fill="#6A5C99"/>
<path d="M273.952 176.652C271.035 170.586 264.68 163.252 250.983 162.666V162.646L250.819 162.654H250.808L245.956 162.885V162.909C232.349 163.535 226.025 170.841 223.116 176.888C221.182 180.984 220.156 185.45 220.108 189.98L221.783 189.939L223.458 189.901C223.531 185.864 224.461 181.888 226.186 178.237C229.88 170.65 236.676 166.615 246.386 166.243L250.678 166.005C260.388 166.377 267.184 170.413 270.878 177.999C272.603 181.65 273.533 185.626 273.606 189.663L275.281 189.701L276.956 189.742C276.908 185.212 275.882 180.746 273.948 176.65L273.952 176.652Z" fill="#FFD037"/>
<path d="M350.505 318.162H121.952V379.526H350.505V318.162Z" fill="#D6D6E3"/>
<path opacity="0.1" d="M350.505 322.292H121.952V330.257H350.505V322.292Z" fill="black"/>
<path d="M365.834 317.276H106.622V325.241H365.834V317.276Z" fill="#D6D6E3"/>
<path d="M284.118 297.467C284.118 297.467 293.9 315.4 318.353 310.509C342.806 305.618 330.988 355.749 330.988 355.749C330.988 355.749 326.988 379.663 329.803 379.526" stroke="#535461" stroke-width="3"/>
<defs>
<linearGradient id="paint0_linear_1_99" x1="486.259" y1="266.082" x2="486.259" y2="95.2431" gradientUnits="userSpaceOnUse">
<stop stop-color="#808080" stop-opacity="0.251"/>
<stop offset="0.535" stop-color="#808080" stop-opacity="0.122"/>
<stop offset="1" stop-color="#808080" stop-opacity="0.102"/>
</linearGradient>
<linearGradient id="paint1_linear_1_99" x1="236.217" y1="321.262" x2="236.217" y2="161.208" gradientUnits="userSpaceOnUse">
<stop stop-color="#808080" stop-opacity="0.251"/>
<stop offset="0.535" stop-color="#808080" stop-opacity="0.122"/>
<stop offset="1" stop-color="#808080" stop-opacity="0.102"/>
</linearGradient>
</defs>
</svg>
