<svg width="699" height="652" viewBox="0 0 699 652" fill="none" xmlns="http://www.w3.org/2000/svg">
<g clip-path="url(#clip0_1_73)">
<path opacity="0.136" d="M386.063 296.04C483.433 296.04 562.363 302.169 562.363 309.729C562.363 317.289 483.436 323.419 386.063 323.419C288.69 323.419 209.763 317.29 209.763 309.729C209.763 302.168 288.697 296.04 386.063 296.04Z" fill="#584DFC"/>
<path opacity="0.587" d="M447.047 357.851C473.395 357.851 494.753 354.136 494.753 349.554C494.753 344.972 473.395 341.257 447.047 341.257C420.7 341.257 399.341 344.972 399.341 349.554C399.341 354.136 420.7 357.851 447.047 357.851Z" fill="#DEDBFF"/>
<path d="M422.078 310.145L348.159 309.195L348.379 307.295L351.951 276.021H416.868L421.643 307.295L422.008 309.668L422.078 310.145Z" fill="#D0D2D5"/>
<path d="M433.926 307.776H335.839V310.145H433.926V307.776Z" fill="#D0D2D5"/>
<path d="M527.507 88.189C527.518 84.7858 524.771 82.0165 521.368 82H247.446C245.81 82.0079 244.244 82.6656 243.093 83.8284C241.941 84.9912 241.299 86.5637 241.307 88.2V254.234H527.507V88.189Z" fill="#3F3D56"/>
<path d="M241.307 252.574V272.021C241.307 275.411 244.056 278.16 247.446 278.16H521.368C524.758 278.159 527.507 275.411 527.507 272.021V252.574H241.307Z" fill="#D0D2D5"/>
<path d="M517.082 92.412H253.154V241.673H517.082V92.412Z" fill="white"/>
<path d="M385.831 270.781C387.795 270.783 389.65 269.882 390.863 268.338C391.046 268.106 391.213 267.862 391.363 267.608L387.849 267.015L391.649 267.04C392.384 265.44 392.427 263.608 391.769 261.975L386.679 264.613L391.379 261.162C390.185 259.077 387.925 257.837 385.526 257.949C383.126 258.061 380.992 259.508 379.998 261.695C379.004 263.882 379.319 266.441 380.813 268.322C382.021 269.872 383.876 270.779 385.841 270.782L385.831 270.781Z" fill="#584DFC"/>
<path opacity="0.1" d="M392.227 278.157L421.717 307.776L417.191 278.157H392.227Z" fill="black"/>
<path opacity="0.1" d="M517.162 92.429H252.947V101.149H517.162V92.429Z" fill="#444053"/>
<path opacity="0.3" d="M423.709 93.947H345.263C344.943 93.947 344.683 94.2067 344.683 94.527V98.673C344.683 98.9933 344.943 99.253 345.263 99.253H423.709C424.029 99.253 424.289 98.9933 424.289 98.673V94.527C424.289 94.2067 424.029 93.947 423.709 93.947Z" fill="#584DFC"/>
<path d="M421.924 97.15H421.724L421.654 97.088C421.895 96.7979 422.027 96.4324 422.027 96.055C422.02 95.1901 421.315 94.4939 420.45 94.4991C419.585 94.5042 418.887 95.2088 418.891 96.0737C418.895 96.9386 419.598 97.6372 420.463 97.635C420.841 97.6338 421.206 97.5005 421.496 97.258L421.567 97.32V97.515L422.782 98.73L423.143 98.365L421.924 97.15ZM420.468 97.15C419.95 97.1483 419.505 96.7812 419.405 96.2729C419.305 95.7647 419.578 95.2564 420.057 95.0585C420.535 94.8606 421.087 95.028 421.375 95.4585C421.663 95.889 421.608 96.463 421.242 96.83C421.036 97.0346 420.758 97.1496 420.468 97.15Z" fill="#3F3D56"/>
<path opacity="0.8" d="M257.697 98.386C258.579 98.386 259.294 97.671 259.294 96.789C259.294 95.907 258.579 95.192 257.697 95.192C256.815 95.192 256.1 95.907 256.1 96.789C256.1 97.671 256.815 98.386 257.697 98.386Z" fill="#FA5959"/>
<path opacity="0.8" d="M262.09 98.386C262.972 98.386 263.687 97.671 263.687 96.789C263.687 95.907 262.972 95.192 262.09 95.192C261.208 95.192 260.493 95.907 260.493 96.789C260.493 97.671 261.208 98.386 262.09 98.386Z" fill="#FED253"/>
<path opacity="0.8" d="M266.487 98.386C267.369 98.386 268.084 97.671 268.084 96.789C268.084 95.907 267.369 95.192 266.487 95.192C265.605 95.192 264.89 95.907 264.89 96.789C264.89 97.671 265.605 98.386 266.487 98.386Z" fill="#8CCF4D"/>
<path d="M399.101 156.458C395.48 151.646 390.232 148.609 384.391 148.609C378.55 148.609 373.303 151.646 369.681 156.458C372.116 162.441 377.932 166.354 384.391 166.354C390.851 166.354 396.667 162.441 399.101 156.458Z" fill="#584DFC"/>
<path d="M367.768 159.274C367.51 159.163 367.266 159.024 367.038 158.859C366.696 158.577 366.423 158.221 366.238 157.818C366.897 156.466 366.444 154.835 365.184 154.016C363.923 153.196 362.249 153.445 361.281 154.596C360.313 155.746 360.354 157.438 361.376 158.54C361.584 158.761 361.822 158.952 362.081 159.108C362.419 159.304 362.694 159.592 362.873 159.938C363.213 160.623 363.68 161.237 364.25 161.747C364.836 162.249 365.468 162.693 366.138 163.074C365.216 165.685 364.692 168.421 364.586 171.188C363.514 171.206 362.449 171.378 361.425 171.698C360.901 171.861 360.407 172.107 359.961 172.428C359.842 172.413 359.721 172.405 359.6 172.403C358.091 172.403 356.819 173.53 356.638 175.029C356.458 176.528 357.425 177.925 358.892 178.284C360.358 178.642 361.861 177.848 362.392 176.435C362.632 175.764 363.226 175.284 363.931 175.19C364.186 175.159 364.442 175.142 364.698 175.14C365.055 179.044 366.266 182.821 368.245 186.204C366.68 187.302 365.52 188.885 364.945 190.709C364.86 190.756 364.781 190.813 364.709 190.879C364.584 190.977 364.468 191.085 364.361 191.203C363.379 192.285 363.327 193.919 364.238 195.061C365.148 196.204 366.753 196.517 368.027 195.8C369.3 195.084 369.865 193.549 369.361 192.178C369.084 191.442 369.275 190.612 369.846 190.071C370.07 189.856 370.305 189.654 370.551 189.465C373.915 193.393 377.918 195.911 382.917 196.21V169.558C376.4 169.064 370.633 165.149 367.768 159.274ZM409.181 172.432C409.061 172.434 408.94 172.442 408.82 172.457C408.371 172.144 407.877 171.898 407.356 171.727C406.333 171.406 405.268 171.234 404.195 171.217C404.08 168.452 403.558 165.719 402.644 163.107C403.315 162.726 403.947 162.282 404.532 161.78C405.121 161.24 405.605 160.596 405.959 159.88C406.125 159.57 406.381 159.317 406.693 159.154C408.104 158.361 408.623 156.586 407.862 155.157C407.101 153.729 405.338 153.17 403.893 153.899C402.448 154.628 401.849 156.378 402.545 157.839C402.364 158.244 402.09 158.601 401.745 158.88C401.513 159.072 401.269 159.251 401.015 159.415C398.141 165.255 392.376 169.125 385.882 169.574V196.252C390.86 195.952 394.888 193.423 398.248 189.507C398.509 189.714 398.729 189.901 398.916 190.075C399.512 190.627 399.718 191.482 399.439 192.245C398.938 193.615 399.502 195.146 400.773 195.863C402.043 196.579 403.646 196.27 404.559 195.132C405.472 193.994 405.426 192.363 404.45 191.278C404.343 191.16 404.227 191.052 404.101 190.954C403.964 190.846 403.865 190.784 403.865 190.784C403.293 188.954 402.125 187.368 400.546 186.279C402.526 182.896 403.737 179.119 404.093 175.215C404.339 175.218 404.584 175.235 404.827 175.265C405.548 175.357 406.161 175.834 406.427 176.51C406.938 177.808 408.282 178.578 409.661 178.362C411.039 178.146 412.083 177.002 412.172 175.61C412.214 174.789 411.92 173.986 411.357 173.386C410.794 172.787 410.012 172.442 409.189 172.432H409.181Z" fill="#584DFC"/>
<path d="M474.164 344.716C473.924 344.334 473.619 343.996 473.264 343.716C471.552 341.868 470.467 339.526 470.164 337.025C469.869 334.54 469.437 332.074 468.87 329.637C468.48 328.4 467.992 327.196 467.41 326.037C466.995 325.149 466.472 323.411 465.71 322.789C465.561 322.66 465.381 322.573 465.187 322.536C464.829 321.774 464.319 321.093 463.687 320.536C462.501 319.462 461.053 318.607 460.26 317.217C460.043 316.735 459.775 316.277 459.46 315.852C458.925 315.263 458.079 315.022 457.585 314.4C456.942 313.6 457.085 312.442 457.17 311.417C457.255 310.392 457.17 309.164 456.282 308.625C455.751 308.297 455.067 308.33 454.515 308.04C453.719 307.517 453.279 306.594 453.374 305.646C453.391 304.713 453.681 303.804 453.756 302.871C453.988 299.901 452.03 296.947 452.785 294.071C453.164 293.011 453.642 291.988 454.212 291.018C454.382 290.68 454.521 290.327 454.627 289.964C455.922 290.477 457.282 290.805 458.668 290.939C456.382 285.812 456.963 279.855 455.897 274.346L456.034 274.159C457.111 272.739 457.723 271.02 457.785 269.239C457.785 267.19 456.827 265.273 456.395 263.265C456.026 261.56 456.042 259.776 455.565 258.1C455.235 257.057 454.795 256.051 454.254 255.1C453.737 254.141 453.194 253.196 452.624 252.267C452.091 250.508 451.558 248.749 451.024 246.99C450.402 244.483 449.401 242.086 448.058 239.88C447.527 239.1 447.365 237.515 446.548 237.043C445.885 236.7 445.132 236.568 444.391 236.666C443.207 236.14 442.347 235.077 442.08 233.808C442.066 233.529 442.094 233.249 442.163 232.978H442.304C444.129 232.812 445.054 231.202 446.004 229.792C447.539 227.51 446.954 224.424 446.004 221.827C445.769 221.007 445.342 220.256 444.759 219.633C443.427 218.388 441.32 218.662 439.603 218.061C439.026 217.861 438.487 217.561 437.903 217.418C436.737 217.232 435.542 217.456 434.522 218.053C433.513 218.647 432.473 219.189 431.407 219.675C430.307 220.09 428.959 220.417 428.69 221.542C428.615 221.921 428.646 222.313 428.781 222.675C429.034 223.396 429.477 224.036 430.063 224.525C429.118 226.471 429.074 228.734 429.941 230.715C430.809 232.697 432.501 234.199 434.572 234.825C434.887 235.331 435.182 235.845 435.451 236.372C436 237.279 436.253 238.335 436.173 239.392C435.873 239.711 435.596 240.05 435.343 240.408C434.23 242.116 433.39 243.987 432.854 245.954C432.02 248.433 431.352 250.965 430.854 253.533C429.726 255.626 428.73 257.787 427.871 260.004C426.557 260.005 425.248 259.83 423.98 259.481L420.48 258.689C419.24 258.508 418.059 258.035 417.037 257.308C416.531 256.893 416.137 256.341 415.622 255.931C415.107 255.521 414.075 255.039 413.511 255.379C413.408 255.442 413.312 255.515 413.225 255.599C412.711 254.558 412.225 253.525 411.625 252.517C410.855 251.037 409.489 249.956 407.871 249.547C406.883 249.388 405.871 249.623 405.054 250.202C404.108 250.874 403.515 252.276 404.224 253.222C404.402 253.432 404.595 253.629 404.801 253.811C405.282 254.364 405.711 254.96 406.083 255.591C407.422 257.469 409.423 258.768 411.683 259.225L411.538 259.64C411.243 260.503 410.617 261.54 410.775 262.44L426.348 267.771C427.347 268.177 428.408 268.411 429.484 268.464C429.905 268.461 430.323 268.405 430.729 268.298V269.128C430.771 274.6 429.899 280.034 429.738 285.501C429.604 286.497 429.828 287.508 430.369 288.355C431.169 289.149 432.327 289.464 433.418 289.185C433.679 289.141 433.937 289.083 434.19 289.011C434.561 290.387 434.828 291.789 434.99 293.205L436.019 300.614C436.152 301.373 436.206 302.144 436.181 302.914C436.061 304.652 435.144 306.208 434.481 307.814C433.818 309.42 433.423 311.34 434.294 312.842C434.568 313.307 434.945 313.701 435.194 314.182C435.506 314.927 435.647 315.732 435.609 316.538C435.676 318.773 435.737 321.01 435.791 323.25C435.611 323.219 435.425 323.255 435.268 323.35C434.405 324.022 434.501 327.22 434.438 328.212C434.372 329.871 434.438 331.564 434.347 333.24C434.239 335.499 433.876 337.738 433.264 339.915C433.115 340.622 432.788 341.28 432.314 341.827C431.829 342.249 431.251 342.549 430.626 342.702C428.559 343.349 426.398 343.644 424.233 343.573C423.361 343.464 422.475 343.539 421.633 343.793C420.772 344.086 420.267 344.978 420.459 345.867C420.82 346.522 421.443 346.992 422.172 347.157C423.755 347.715 425.283 348.418 426.735 349.257C427.295 349.638 427.884 349.973 428.498 350.257C429.087 350.468 429.696 350.618 430.315 350.705L437.67 351.974C439.176 352.231 440.989 352.389 441.947 351.144C442.409 350.419 442.61 349.559 442.515 348.705C442.334 347.042 442.282 345.369 442.357 343.698C442.521 342.717 442.78 341.754 443.129 340.823C443.863 338.646 444.598 336.471 445.336 334.298C446.15 332.138 446.743 329.902 447.107 327.623C447.324 326.816 447.122 325.955 446.568 325.329C446.408 325.197 446.221 325.101 446.02 325.047C445.995 323.047 445.734 321.047 445.846 319.047C445.875 318.547 445.925 318.047 445.966 317.547C446.351 317.912 446.695 318.318 446.991 318.758C447.7 319.87 447.962 321.338 449.044 322.077C449.965 322.708 451.33 322.677 451.977 323.587C452.185 323.937 452.342 324.316 452.442 324.711C452.818 325.689 453.382 326.584 454.101 327.345C454.349 328.256 454.692 329.137 455.126 329.975C455.738 331.266 456.346 332.554 456.951 333.837C457.574 335.222 458.266 336.575 459.025 337.89C459.605 338.718 460.073 339.619 460.415 340.57C460.861 342.702 460.146 344.911 458.536 346.378C456.943 347.79 455.087 348.872 453.073 349.564C452.867 349.634 452.677 349.747 452.517 349.896C452.347 350.097 452.257 350.354 452.264 350.618C452.339 351.595 453.014 352.423 453.956 352.692C454.881 352.939 455.85 352.973 456.789 352.792C462.122 352.274 467.306 350.742 472.063 348.279C472.764 347.947 473.386 347.467 473.884 346.873C474.366 346.26 474.473 345.432 474.164 344.716Z" fill="url(#paint0_linear_1_73)"/>
<path d="M342.393 195.095C339.112 198.372 338.718 199.816 336.747 200.467C334.776 201.118 327.687 204.79 329.915 208.859L335.905 212.816L336.079 212.932L336.996 215.686L327.936 231.815C327.936 231.815 313.002 224.987 311.536 235.088C310.07 245.189 311.001 247.948 310.607 253.341C310.213 258.734 310.736 260.294 309.421 260.294C308.106 260.294 307.587 256.751 307.587 256.751C307.587 256.751 307.504 256.589 307.359 256.286C305.405 252.225 292.143 222.411 313.386 201.918C313.386 201.918 323.226 201.271 325.594 189.987C327.228 182.187 332.945 182.86 336.745 184.449C337.98 184.932 339.131 185.607 340.155 186.449C341.076 187.32 341.896 188.293 342.598 189.349C343.683 191.067 344.272 193.212 342.393 195.095Z" fill="#D0D2D5"/>
<path opacity="0.1" d="M336.079 212.938L336.996 215.693L327.936 231.822C327.936 231.822 313.002 224.994 311.536 235.095C310.07 245.196 311.001 247.955 310.607 253.348C310.213 258.741 310.736 260.301 309.421 260.301C308.106 260.301 307.587 256.758 307.587 256.758C307.587 256.758 307.504 256.596 307.359 256.293C306.699 251.249 303.359 221.742 315.477 223.31C315.477 223.31 325.313 227.91 326.885 226.073C328.13 224.621 333.655 216.273 335.903 212.844L336.079 212.938Z" fill="black"/>
<path opacity="0.1" d="M342.6 189.333L336.61 196.14C336.61 196.14 329.653 205.449 328.21 205.055C327.778 204.961 327.337 204.91 326.895 204.902C325.912 204.827 325.06 204.193 324.706 203.273C324.351 202.353 324.558 201.311 325.236 200.596C327.609 198.107 331.981 193.382 332.267 192.333C332.553 191.284 335.337 186.683 336.731 184.433C337.966 184.916 339.117 185.591 340.141 186.433C341.068 187.303 341.893 188.276 342.6 189.333Z" fill="black"/>
<path d="M512.084 287.274C511.068 289.307 505.862 296.931 503.584 300.262L502.518 301.83C502.518 301.83 502.103 304.584 495.304 301.17C488.505 297.756 328.755 230.348 328.755 230.348L327.672 227.096L335.554 215.296L510.645 282.941C510.645 282.941 513.399 284.646 512.084 287.274Z" fill="#454B69"/>
<path opacity="0.1" d="M503.584 300.26L502.518 301.828C502.518 301.828 502.103 304.582 495.304 301.168C488.505 297.754 328.755 230.348 328.755 230.348L327.672 227.096L503.584 300.26Z" fill="black"/>
<path d="M407.226 256.229C405.606 255.851 403.902 256.185 402.543 257.146C401.781 257.791 401.299 258.707 401.199 259.701C401.091 260.85 401.759 262.215 402.912 262.301C403.19 262.304 403.467 262.286 403.742 262.247C404.471 262.244 405.198 262.305 405.916 262.429C408.783 262.699 411.602 261.56 413.478 259.376C414.469 258.131 413.163 257.592 411.993 257.343C410.392 257.004 408.828 256.486 407.226 256.229Z" fill="#FBBEBE"/>
<g filter="url(#filter0_i_1_73)">
<path d="M434.971 293.692L436 301.001C436.131 301.756 436.184 302.522 436.158 303.287C436.038 305.008 435.121 306.552 434.458 308.145C433.795 309.738 433.396 311.645 434.271 313.123C434.541 313.583 434.918 313.978 435.163 314.455C435.474 315.193 435.616 315.99 435.578 316.79L435.86 327.161C439.063 327.379 442.277 327.361 445.476 327.107C445.601 327.113 445.725 327.075 445.824 326.999C445.909 326.892 445.951 326.758 445.944 326.622C446.085 324.195 445.662 321.764 445.799 319.338C445.849 318.45 445.973 317.567 445.99 316.675C446.04 313.062 444.256 309.523 444.795 305.952C444.965 305.051 445.186 304.16 445.459 303.285C447.159 297.063 446.803 290.525 446.426 284.099C446.433 283.996 446.403 283.893 446.343 283.809C446.282 283.748 446.204 283.706 446.119 283.689C442.436 282.584 438.446 283.342 435.425 285.722C434.973 286.087 433.832 286.44 433.533 286.875C433.118 287.481 433.662 288.086 433.902 288.729C434.436 290.34 434.794 292.004 434.971 293.692Z" fill="#3F3D56"/>
</g>
<path d="M454.206 291.49C453.638 292.453 453.16 293.467 452.779 294.518C452.024 297.376 453.979 300.326 453.746 303.254C453.671 304.179 453.385 305.079 453.364 306.004C453.276 306.947 453.715 307.863 454.505 308.385C455.057 308.667 455.75 308.638 456.268 308.962C457.143 309.497 457.243 310.713 457.156 311.733C457.069 312.753 456.924 313.894 457.571 314.691C458.065 315.309 458.911 315.55 459.442 316.135C459.758 316.555 460.026 317.008 460.242 317.487C461.034 318.873 462.482 319.719 463.669 320.806C464.856 321.893 465.859 323.486 465.328 324.992C464.808 326.056 463.899 326.879 462.789 327.292C460.867 328.242 458.838 328.959 456.745 329.428C456.521 329.496 456.283 329.509 456.052 329.465C455.819 329.38 455.61 329.237 455.446 329.05C454.131 327.944 453.087 326.552 452.393 324.98C452.293 324.589 452.136 324.214 451.928 323.868C451.281 322.96 449.916 322.993 448.995 322.368C447.916 321.634 447.655 320.178 446.95 319.078C446.167 318.13 445.336 317.222 444.461 316.357C443.192 314.747 442.881 312.599 441.972 310.757C441.586 309.977 441.093 309.247 440.786 308.434C440.477 307.461 440.286 306.453 440.218 305.434C439.633 300.589 438.144 295.71 439.081 290.915C439.288 289.861 439.608 288.841 439.741 287.754C439.969 285.875 439.608 283.954 439.886 282.075C439.9 281.598 440.131 281.154 440.512 280.868C440.737 280.767 440.981 280.718 441.226 280.723C443.686 280.592 446.151 280.647 448.602 280.889C449.847 281.009 451.24 281.262 451.987 282.279C452.476 283.24 452.749 284.296 452.787 285.374C453.085 286.493 453.634 287.53 454.392 288.406C455.09 289.428 454.717 290.436 454.206 291.49Z" fill="#3F3D56"/>
<path d="M444.636 325.199C445.289 325.106 445.954 325.237 446.523 325.572C447.07 326.194 447.272 327.048 447.062 327.849C446.695 330.115 446.1 332.339 445.287 334.486L443.08 340.961C442.731 341.885 442.472 342.841 442.308 343.815C442.232 345.476 442.285 347.14 442.466 348.793C442.544 349.64 442.343 350.49 441.894 351.212C440.956 352.419 439.127 352.278 437.621 352.042L430.274 350.797C429.654 350.714 429.045 350.566 428.457 350.353C427.844 350.07 427.254 349.739 426.694 349.362C425.24 348.531 423.713 347.837 422.131 347.288C421.442 347.031 420.671 346.703 420.422 346.01C420.23 345.121 420.735 344.229 421.596 343.936C422.438 343.682 423.323 343.606 424.196 343.712C426.358 343.781 428.517 343.489 430.584 342.849C431.206 342.696 431.784 342.398 432.268 341.978C432.76 341.425 433.095 340.75 433.239 340.024C433.865 337.862 434.238 335.635 434.351 333.387C434.438 331.728 434.38 330.068 434.451 328.409C434.493 327.426 434.397 324.261 435.26 323.584C435.92 323.078 438.633 324.476 439.524 324.684C441.2 325.067 442.917 325.24 444.636 325.199Z" fill="#2F2E41"/>
<path d="M468.838 329.812C469.397 332.232 469.829 334.68 470.132 337.146C470.444 339.629 471.528 341.95 473.232 343.783C473.585 344.064 473.889 344.402 474.132 344.783C474.444 345.507 474.324 346.345 473.821 346.952C473.32 347.543 472.7 348.02 472 348.352C467.24 350.8 462.058 352.322 456.73 352.836C455.791 353.013 454.825 352.979 453.901 352.736C452.959 352.468 452.284 351.639 452.213 350.662C452.204 350.4 452.293 350.144 452.462 349.944C452.623 349.796 452.814 349.684 453.022 349.616C455.029 348.919 456.883 347.842 458.482 346.443C460.09 344.999 460.807 342.808 460.361 340.693C460.014 339.749 459.543 338.854 458.961 338.034C458.203 336.73 457.51 335.388 456.887 334.014L455.062 330.185C454.459 329.097 454.064 327.907 453.896 326.675C456.189 326.778 458.479 326.41 460.625 325.596C461.627 325.188 462.56 324.628 463.392 323.937C464.097 323.348 464.74 322.249 465.692 323.016C466.455 323.63 466.936 325.36 467.385 326.235C467.966 327.386 468.452 328.582 468.838 329.812Z" fill="#2F2E41"/>
<path opacity="0.1" d="M442.089 234.737C442.272 236.33 443.815 237.379 445.289 238.01L435.968 240.984C436.568 239.831 436.084 238.42 435.487 237.25C435.001 236.324 434.446 235.435 433.828 234.591C433.737 234.462 433.633 234.301 433.699 234.151C433.759 234.055 433.852 233.984 433.96 233.951C435.854 233.001 437.867 232.311 439.946 231.902C440.552 231.815 441.697 231.574 442.146 232.188C442.595 232.802 442.002 234.003 442.089 234.737Z" fill="black"/>
<path d="M436.671 236.026C440.708 236.026 443.98 232.754 443.98 228.717C443.98 224.68 440.708 221.408 436.671 221.408C432.635 221.408 429.362 224.68 429.362 228.717C429.362 232.754 432.635 236.026 436.671 236.026Z" fill="#FBBEBE"/>
<path d="M430.338 288.868C431.14 289.657 432.296 289.971 433.387 289.698C435.938 289.283 438.025 287.404 440.522 286.728C443.584 285.898 446.822 286.964 449.715 288.271C452.608 289.578 455.481 291.171 458.642 291.399C455.784 285.027 457.418 277.361 454.684 270.935C454.016 269.363 453.084 267.849 452.934 266.148C452.747 264.037 453.801 262 453.963 259.901C453.99 258.019 453.666 256.148 453.009 254.384L451.009 247.813C450.387 245.325 449.388 242.947 448.047 240.761C447.512 239.985 447.347 238.413 446.537 237.944C444.762 236.919 442.069 238.21 440.144 238.28C438.181 238.515 436.423 239.609 435.344 241.267C434.23 242.958 433.39 244.814 432.855 246.767C431.863 249.635 431.122 252.583 430.64 255.579C430.578 256.027 430.524 256.479 430.482 256.927C430.067 261.187 430.673 265.473 430.706 269.754V269.783C430.748 275.213 429.876 280.61 429.715 286.036C429.592 287.024 429.812 288.023 430.338 288.868Z" fill="#2F2E41"/>
<path d="M441.58 242.208C442.207 243.283 442.422 244.549 442.186 245.771C441.796 250.339 440.821 254.838 439.286 259.158C438.751 260.787 438.014 262.343 437.091 263.788C436.361 264.853 435.506 265.826 434.544 266.688C433.218 268.09 431.426 268.962 429.504 269.14C428.428 269.089 427.368 268.858 426.368 268.456L410.791 263.156C410.633 262.268 411.26 261.231 411.554 260.377L412.384 257.917C412.542 257.21 412.941 256.579 413.512 256.133C414.13 255.764 415.112 256.27 415.623 256.68C416.134 257.09 416.523 257.63 417.033 258.049C418.057 258.77 419.237 259.239 420.476 259.418L423.976 260.202C425.244 260.549 426.553 260.723 427.867 260.72C428.842 257.742 430.696 255.12 431.746 252.166C432.07 251.266 432.314 250.328 432.646 249.424C433.469 247.408 434.505 245.486 435.737 243.691C436.24 242.715 437.001 241.896 437.937 241.322C439.209 240.729 440.723 241.097 441.58 242.208Z" fill="#2F2E41"/>
<path d="M439.003 230.369C438.948 229.888 438.798 229.423 438.563 229C438.313 228.565 437.809 228.343 437.318 228.452C436.588 228.68 436.343 229.809 435.58 229.846C435.066 229.871 434.696 229.346 434.535 228.859C434.448 228.347 434.229 227.867 433.9 227.465C433.633 227.265 433.326 227.123 433 227.05C431.229 226.49 429.4 225.457 428.81 223.694C428.67 223.337 428.636 222.947 428.71 222.57C428.98 221.454 430.369 221.118 431.427 220.716C432.485 220.314 433.501 219.625 434.538 219.102C435.559 218.509 436.754 218.288 437.919 218.476C438.498 218.658 439.067 218.87 439.624 219.111C441.341 219.711 443.445 219.43 444.776 220.671C445.359 221.286 445.785 222.032 446.021 222.845C446.95 225.425 447.539 228.487 446 230.752C445.05 232.152 444.129 233.752 442.3 233.917C440.182 234.094 439.339 232.169 439.003 230.369Z" fill="#2F2E41"/>
<path d="M435.76 227.98C435.672 227.469 435.455 226.989 435.129 226.586C434.862 226.386 434.555 226.244 434.229 226.171C432.453 225.611 430.629 224.578 430.035 222.815C429.9 222.456 429.869 222.067 429.944 221.691C429.985 221.514 430.06 221.346 430.164 221.197C429.494 221.398 428.962 221.909 428.733 222.57C428.659 222.947 428.693 223.337 428.833 223.694C429.422 225.457 431.251 226.494 433.023 227.05C433.349 227.123 433.656 227.265 433.923 227.465C434.251 227.868 434.469 228.348 434.558 228.859C434.724 229.353 435.089 229.871 435.603 229.846C436.117 229.821 436.366 229.352 436.694 228.958C436.227 228.828 435.868 228.453 435.76 227.98Z" fill="black"/>
<path d="M443.525 233.024C441.393 233.224 440.551 231.278 440.206 229.49C440.161 229.011 440.02 228.545 439.791 228.121C439.54 227.687 439.036 227.465 438.546 227.573C438.168 227.757 437.85 228.045 437.629 228.403C438.015 228.44 438.362 228.655 438.567 228.984C438.802 229.407 438.952 229.872 439.007 230.353C439.343 232.141 440.185 234.086 442.326 233.887C443.172 233.794 443.953 233.388 444.516 232.75C444.204 232.896 443.869 232.989 443.525 233.024Z" fill="black"/>
<path d="M-0.251953 -0.139526C175.085 87.9075 322.972 12.5665 492.619 68.4905C662.266 124.414 729.121 261.281 674 384.245C618.879 507.209 339.322 506.532 155 652.345" stroke="#3D3691" stroke-width="2"/>
</g>
<defs>
<filter id="filter0_i_1_73" x="433.382" y="283.191" width="13.3575" height="48.1215" filterUnits="userSpaceOnUse" color-interpolation-filters="sRGB">
<feFlood flood-opacity="0" result="BackgroundImageFix"/>
<feBlend mode="normal" in="SourceGraphic" in2="BackgroundImageFix" result="shape"/>
<feColorMatrix in="SourceAlpha" type="matrix" values="0 0 0 0 0 0 0 0 0 0 0 0 0 0 0 0 0 0 127 0" result="hardAlpha"/>
<feOffset dy="4"/>
<feGaussianBlur stdDeviation="2"/>
<feComposite in2="hardAlpha" operator="arithmetic" k2="-1" k3="1"/>
<feColorMatrix type="matrix" values="0 0 0 0 0 0 0 0 0 0 0 0 0 0 0 0 0 0 0.25 0"/>
<feBlend mode="normal" in2="shape" result="effect1_innerShadow_1_73"/>
</filter>
<linearGradient id="paint0_linear_1_73" x1="436.238" y1="352.771" x2="436.238" y2="216.541" gradientUnits="userSpaceOnUse">
<stop stop-color="#808080" stop-opacity="0.251"/>
<stop offset="0.54" stop-color="#808080" stop-opacity="0.122"/>
<stop offset="1" stop-color="#808080" stop-opacity="0.102"/>
</linearGradient>
<clipPath id="clip0_1_73">
<rect width="699" height="652" fill="white"/>
</clipPath>
</defs>
</svg>
