<svg width="537" height="347" viewBox="0 0 537 347" fill="none" xmlns="http://www.w3.org/2000/svg">
<path d="M407.773 342.346C407.773 342.346 400.761 318.548 409.093 301.022C412.632 293.696 413.699 285.419 412.134 277.435C411.362 273.651 410.245 269.946 408.796 266.366" stroke="#535461" stroke-width="2"/>
<path d="M413.972 255.289C413.972 258.208 408.683 266.665 408.683 266.665C408.683 266.665 403.395 258.204 403.395 255.289C403.395 252.368 405.763 250 408.684 250C411.605 250 413.972 252.368 413.972 255.289H413.972Z" fill="#6C63FF"/>
<path d="M422.722 271.45C421.136 273.899 412.103 278.13 412.103 278.13C412.103 278.13 412.267 268.155 413.853 265.71C415.495 263.404 418.661 262.799 421.037 264.337C423.413 265.876 424.156 269.013 422.722 271.454V271.45Z" fill="#6C63FF"/>
<path d="M422.322 299.062C419.714 300.374 409.783 299.469 409.783 299.469C409.783 299.469 414.96 290.944 417.562 289.632C419.258 288.686 421.336 288.746 422.975 289.787C424.614 290.829 425.55 292.685 425.414 294.622C425.278 296.559 424.09 298.266 422.322 299.067V299.062Z" fill="#6C63FF"/>
<path d="M417.33 319.894C414.982 321.629 405.039 322.411 405.039 322.411C405.039 322.411 408.699 313.135 411.047 311.4C413.394 309.832 416.558 310.384 418.236 312.652C419.914 314.921 419.515 318.108 417.33 319.893V319.894Z" fill="#6C63FF"/>
<path d="M400.993 278.691C403.108 280.721 412.834 282.832 412.834 282.832C412.834 282.832 410.449 273.149 408.355 271.118C406.239 269.243 403.023 269.363 401.054 271.391C399.084 273.419 399.057 276.637 400.993 278.697V278.691Z" fill="#6C63FF"/>
<path d="M395.461 303.129C398.068 304.441 408 303.537 408 303.537C408 303.537 402.823 295.012 400.221 293.7C397.639 292.529 394.593 293.603 393.316 296.135C392.039 298.666 392.985 301.753 395.461 303.135V303.129Z" fill="#6C63FF"/>
<path d="M393.346 327.616C395.694 329.351 405.636 330.134 405.636 330.134C405.636 330.134 401.977 320.858 399.629 319.123C398.118 317.892 396.053 317.592 394.255 318.341C392.456 319.091 391.215 320.768 391.025 322.707C390.835 324.647 391.727 326.533 393.346 327.617V327.616Z" fill="#6C63FF"/>
<path opacity="0.1" d="M426.055 226.269C410.705 245.785 416.668 274.295 426.422 297.128C429.688 304.773 433.382 312.861 432.004 321.059C430.319 331.084 421.372 338.415 411.978 342.3C394.499 349.354 374.714 347.725 358.625 337.906C345.025 329.447 335.288 315.69 321.458 307.616C298.313 294.104 268.858 299.206 243.721 308.516C225.94 315.101 206.501 323.665 188.833 316.783C176.401 311.941 167.808 300.154 163.126 287.661C160.865 281.629 159.226 275.1 154.908 270.319C152.231 267.566 149.06 265.34 145.561 263.758C114.231 248.224 74.661 256.543 44.23 239.313C23.678 227.675 10.521 205.725 4.69502 182.834C-1.13098 159.943 -0.451985 135.947 1.02702 112.376C2.07802 95.625 3.96402 77.742 14.667 64.814C25.99 51.141 45.421 46.056 62.985 48.655C80.549 51.254 96.469 60.519 110.474 71.434C127.974 85.072 144.211 102.055 165.703 107.579C180.339 111.341 195.735 109.279 210.829 108.571C236.064 107.38 261.309 110.029 286.405 112.93C310.43 115.707 334.628 118.764 357.516 126.58C373.716 132.111 386.698 142.15 401.992 149.164C411.961 153.736 422.832 154.998 432.271 160.821C443.898 167.994 454.558 180.471 451.579 195.071C448.745 208.949 434.202 215.911 426.055 226.269Z" fill="#584DFC"/>
<path d="M480.861 3.66048C474.6 4.81093 472.93 5.8568 470.113 10.7724C469.278 12.2366 469.382 13.1779 470.426 14.433C471.365 15.5834 471.887 18.5119 471.887 22.6953C471.782 26.3559 472.095 29.2843 472.513 29.2843C472.826 29.2843 473.452 30.644 473.869 32.3174C474.391 35.0366 473.765 36.0825 467.191 42.6715C462.078 47.7962 458.635 50.4109 455.922 51.1431C453.73 51.7706 449.139 53.0256 445.695 53.9669C442.252 54.8036 438.391 56.5816 437.035 57.8366C435.052 59.7192 434.217 59.8238 431.713 58.8825C429.73 58.1504 428.165 58.1504 426.913 58.8825C423.887 60.5559 419.087 65.7852 419.087 67.4586C419.087 71.3284 400.2 79.3816 394.461 78.0219C391.226 77.1853 379.226 65.1577 377.452 60.8697C376.722 59.0917 373.8 55.6403 370.982 53.0256C367.435 49.7834 365.869 47.5871 365.869 45.7045C365.869 44.2403 365.452 42.6715 364.826 42.3577C363.469 41.521 363.469 34.8275 364.826 33.9908C365.348 33.677 365.661 31.3761 365.556 28.9706C365.348 25.31 364.826 24.4733 362.948 24.2641C361.174 23.9504 360.652 23.2183 360.652 20.8128C360.652 19.0348 360.026 17.466 359.087 17.1522C358.252 16.7339 357.522 15.8972 357.522 15.1651C357.522 14.1192 356.478 13.91 354.078 14.3284C351.887 14.6421 349.278 14.2238 347.295 13.1779C343.017 10.9816 339.574 11.0862 336.339 13.5963C334.878 14.7467 333.104 15.688 332.269 15.688C329.869 15.688 327.052 25.1008 327.782 30.4348C328.617 36.0825 331.33 41.6256 333.626 42.3577C334.565 42.6715 336.652 42.3577 338.217 41.6256C340.513 40.5797 341.139 40.6843 341.974 41.9394C342.495 42.7761 342.913 43.7174 342.913 44.2403C342.913 44.6586 339.156 48.7375 334.669 53.2348C321.313 66.4128 319.226 71.6421 325.278 76.7669C327.991 79.0678 329.452 79.4862 335.191 79.4862C341.765 79.4862 341.869 79.5908 344.374 83.3559C348.026 88.899 348.443 91.8275 346.565 97.266C345.104 101.449 345.104 102.077 346.565 103.123C348.026 104.169 347.817 104.796 345.522 108.875C341.243 116.405 338.739 125.923 338.739 134.813V142.866L334.669 145.167C332.374 146.422 329.243 149.56 327.574 152.174C324.756 156.672 324.339 156.881 316.826 158.449C312.548 159.391 307.122 160.855 304.722 161.692C296.791 164.516 264.652 183.969 264.652 185.956C264.652 186.479 265.695 188.152 266.843 189.721C268.095 191.29 268.826 192.754 268.513 193.068C268.304 193.277 265.487 193.8 262.461 194.218C259.33 194.532 255.574 195.787 254.113 196.833C251.609 198.716 251.504 199.134 252.443 203.84C253.174 208.024 253.695 208.86 255.261 208.442C256.826 208.024 257.452 208.86 258.391 212.521C260.478 220.574 260.687 221.202 262.148 223.607C263.4 225.594 264.548 225.908 269.869 225.908C275.4 225.908 276.13 225.699 276.13 223.816C276.13 222.457 275.191 221.516 273.522 221.097C272.061 220.783 270.182 219.528 269.348 218.273C268.095 216.495 268.095 215.763 269.765 212.416C270.809 210.325 271.956 207.501 272.269 206.037C273.417 201.121 278.948 199.552 296.478 198.716C310.878 198.088 312.756 197.774 320.061 194.637C329.035 190.872 334.774 187.316 348.652 176.752C352.095 174.138 357.104 169.745 359.817 166.921L364.722 161.796L373.904 169.849C378.913 174.242 387.365 181.982 392.478 187.002C406.043 200.284 411.887 204.677 424.826 210.848C434.635 215.449 451.643 221.725 454.565 221.725C454.982 221.725 456.548 219.947 457.8 217.75C459.052 215.659 460.2 213.776 460.304 213.567C460.722 212.939 469.591 216.6 471.887 218.483C473.243 219.528 476.061 220.783 478.148 221.202C482.322 221.934 483.782 220.888 483.782 217.018C483.782 214.404 486.6 208.965 493.278 198.925L498.287 191.185L494.322 189.616C492.026 188.675 489.939 187.106 489.73 185.956C489.313 184.492 488.582 184.178 486.6 184.596C484.2 185.224 484.095 185.015 483.469 179.158C483.052 175.811 482.53 171.627 482.113 169.745C481.487 166.607 481.591 166.398 485.348 165.666C487.539 165.248 491.4 165.457 494.113 166.189C496.722 166.921 500.582 167.862 502.774 168.385C505.591 169.117 507.678 169.013 510.913 167.862C516.548 165.875 518.635 165.875 517.904 167.758C517.069 169.954 519.469 168.908 527.922 163.574C531.782 161.064 534.913 158.345 534.913 157.613C534.913 156.881 533.556 154.057 531.782 151.338C530.113 148.618 527.922 143.494 527.087 139.938C524.687 130.943 523.122 128.224 515.087 119.229C509.869 113.477 507.156 109.189 504.756 103.437C502.982 99.044 500.582 94.5467 499.435 93.3963C497.452 91.1999 497.556 91.0953 501 84.6109C506.843 73.5247 509.035 64.321 508.513 53.8623C508.304 48.9467 508.513 44.6586 508.93 44.3449C511.017 43.0898 509.765 38.3834 506.739 35.5596C504.965 33.9908 503.713 31.7944 503.817 30.644C504.13 26.7742 503.608 25.1008 501.939 25.1008C500.791 25.1008 500.478 24.5779 501 23.2183C502.669 19.1394 502.669 17.6752 500.895 13.8054C498.913 9.83112 495.574 7.32103 491.922 7.32103C490.982 7.32103 489.522 6.27515 488.791 4.91551C487.435 2.51001 487.226 2.51001 480.861 3.66048ZM467.817 68.3999C467.4 71.1192 467.713 73.3155 468.652 74.5706C469.8 76.1394 469.8 77.3944 468.652 81.3687C466.356 90.2587 464.061 93.0825 457.174 95.1742C445.695 98.6256 438.704 101.972 437.765 104.273C435.365 110.653 441 111.699 447.678 106.156C451.539 103.018 454.565 101.554 454.565 102.809C454.565 103.018 452.061 108.038 448.93 114.105C445.8 120.066 441.626 129.688 439.643 135.44C437.556 141.193 435.052 147.782 433.904 149.978C432.756 152.383 432.13 154.894 432.652 155.73C435.678 162.424 436.826 163.679 442.148 166.712C445.382 168.49 450.078 171.732 452.582 173.928C455.087 176.125 460.2 179.89 463.956 182.295C473.452 188.466 479.295 199.238 474.391 201.853C471.887 203.213 466.043 202.272 466.043 200.494C466.043 199.134 457.487 194.009 450.495 191.081C444.548 188.675 431.817 179.89 425.035 173.405C422.009 170.582 418.148 167.13 416.269 165.666C414.495 164.306 412.722 162.319 412.409 161.273C412.095 160.227 410.426 158.659 408.756 157.613C406.774 156.462 405.417 154.58 404.895 152.488C404.478 150.292 401.765 146.631 397.487 142.343C393.835 138.683 389.348 133.453 387.574 130.838C385.8 128.224 383.504 125.086 382.461 123.936C380.478 121.53 379.539 111.699 381.104 108.248C381.626 107.097 382.043 102.495 381.939 97.9981C381.835 93.6054 382.148 89.9449 382.565 89.9449C382.982 89.9449 385.904 90.8862 389.139 91.932C397.487 94.8605 401.452 93.8146 409.278 86.4935C411.052 84.8201 414.391 82.9375 416.582 82.1008C419.4 81.1596 420.861 80.0091 421.174 78.3357C421.695 76.4531 422.843 75.721 426.182 74.9889C428.687 74.466 430.982 73.4201 431.295 72.5834C431.609 71.7467 432.861 71.1192 434.113 71.1192C435.887 71.1192 435.991 70.91 434.739 70.0733C433.487 69.2366 433.487 68.8183 434.53 68.1908C435.365 67.6678 437.765 68.1908 440.791 69.655C445.069 71.7467 446.322 71.8513 451.33 70.91C454.982 70.2825 458.635 68.7137 461.661 66.3082C464.165 64.4256 466.774 63.066 467.295 63.3797C467.922 63.7981 468.13 65.9944 467.817 68.3999ZM461.974 158.659C463.539 162.738 462.809 163.365 458.843 160.855C455.609 158.763 455.504 158.554 457.278 157.194C459.991 155.207 460.722 155.521 461.974 158.659Z" fill="#324A5E"/>
<path d="M140.203 319.253C140.987 319.833 146.871 323.195 159.447 326.633C157.145 325.01 155.472 323.195 155.135 321.235C153.457 311.423 155.576 300.725 154.863 290.743C154.239 281.99 153.686 273.248 153.284 264.505C159.073 263.648 163.347 258.583 163 252.733C162.669 247.108 158.179 242.688 152.632 242.183L152.624 232.45C145.661 232.868 139.133 234.013 136.24 234.575C135.229 234.773 134.424 235.535 134.264 236.535C133.477 241.4 133.92 251.023 134.982 258.98C139.151 281.585 142.437 279.27 143.687 294.728C144.332 302.708 140.6 304.89 140.203 319.253ZM183.5 296.55C184.31 297.148 190.262 300.548 203.014 304C203.118 304.028 203.236 304.075 203.34 304.105C200.737 302.385 198.796 300.433 198.432 298.31C196.754 288.498 198.873 277.8 198.16 267.818C197.536 259.065 196.983 250.323 196.581 241.58C202.37 240.723 206.643 235.658 206.297 229.808C205.966 224.183 201.476 219.763 195.929 219.258C195.896 216.015 195.89 212.773 195.921 209.525C188.958 209.943 182.43 211.088 179.537 211.65C178.526 211.848 177.721 212.61 177.561 213.61C176.774 218.475 177.217 228.098 178.279 236.055C182.448 258.66 185.734 256.345 186.984 271.803C187.621 279.678 183.739 282.155 183.5 296.55Z" fill="#BE9148"/>
<path d="M142.806 328.525C141.729 328.202 140.198 327.225 140.203 326.117V319.155C140.203 319.155 145.676 322.905 159.717 326.707C165.873 328.375 173.883 333.375 182.267 333.477C190.652 333.58 197.979 327.837 198.723 326.092L198.781 329.5C198.797 330.322 198.397 331.087 197.722 331.575C195.694 333.037 189.478 337.405 182.293 337C172.584 336.452 163.828 331.577 151.73 328.53V331.42L142.806 328.525ZM150.436 247.542C146.919 247.542 144.069 250.34 144.069 253.792C144.069 257.245 146.919 260.042 150.436 260.042C153.954 260.042 156.804 257.245 156.804 253.792C156.804 250.34 153.954 247.542 150.436 247.542ZM193.733 225.042C190.216 225.042 187.366 227.84 187.366 231.292C187.366 234.745 190.216 237.542 193.733 237.542C197.251 237.542 200.101 234.745 200.101 231.292C200.101 227.84 197.251 225.042 193.733 225.042ZM195.027 308.712V305.822C207.125 308.87 215.881 313.712 225.59 314.26C232.772 314.665 238.989 310.537 241.019 309.075C241.694 308.587 242.093 307.822 242.078 307L242.02 303.595C241.276 305.34 233.949 310.875 225.564 310.77C217.18 310.665 209.167 305.665 203.014 304C188.973 300.197 183.5 296.447 183.5 296.447V303.41C183.492 304.517 185.023 305.495 186.103 305.817L195.027 308.712Z" fill="#644638"/>
<path d="M152.634 242.182L152.627 232.45C157.402 232.165 162.379 232.218 166.533 233.048C167.788 233.298 168.285 234.385 168.219 235.643V294.5C168.219 311.375 177.492 316.41 191.879 321.232C193.777 321.868 196.965 321.785 198.096 323.678C198.682 324.658 198.853 325.818 198.753 327C198.753 327 191.91 333.6 182.265 333.48C173.888 333.375 166.158 328.473 159.427 326.628C157.132 325.008 155.467 323.193 155.133 321.235C153.455 311.423 155.574 300.725 154.86 290.743C154.236 281.99 153.684 273.247 153.281 264.505C159.07 263.647 163.344 258.582 162.998 252.732C162.669 247.107 158.182 242.688 152.634 242.182ZM150.597 254.412L142.559 236.09L151.231 229.378L126.735 207L134.773 226.29L124.922 231.972L150.597 254.412ZM206.3 229.807C206.646 235.657 202.372 240.723 196.583 241.58C196.986 250.323 197.536 259.065 198.162 267.817C198.875 277.8 196.756 288.497 198.435 298.31C198.799 300.435 200.74 302.385 203.343 304.105C209.455 305.853 217.328 310.67 225.567 310.772C235.624 310.895 242.078 304.5 242.078 304.5C242.183 303.31 242.012 302.14 241.424 301.155C240.293 299.262 237.074 298.942 235.176 298.305C220.789 293.485 211.516 284.708 211.516 269.5V212.715C211.579 211.46 211.083 210.372 209.83 210.12C205.676 209.29 200.699 209.237 195.924 209.522C195.893 212.77 195.898 216.013 195.931 219.255C201.478 219.763 205.966 224.182 206.3 229.807ZM193.894 231.487L185.856 213.165L194.528 206.452L170.032 184.5L178.07 203.365L168.219 209.045L193.894 231.487Z" fill="#FFC865"/>
<g clip-path="url(#clip0_102_146)">
<path d="M169.774 153.76C169.774 158.408 165.971 162 161.534 162H55.4659C51.0288 162 47.2256 158.197 47.2256 153.76V45.5791C47.2256 41.142 51.0288 37.3387 55.4659 37.3387H161.534C165.971 37.3387 169.774 41.142 169.774 45.5791V153.76Z" fill="#97B3B7"/>
<path d="M169.774 147.421C169.774 152.069 165.971 155.661 161.534 155.661H55.4659C51.0288 155.661 47.2256 151.858 47.2256 147.421V39.2403C47.2256 34.8032 51.0288 31 55.4659 31H161.534C165.971 31 169.774 34.8032 169.774 39.2403V147.421Z" fill="#B6CCD1"/>
<path d="M159.21 103.05C159.21 107.698 155.407 111.29 150.97 111.29H66.0308C61.5938 111.29 57.7905 107.487 57.7905 103.05V49.8049C57.7905 45.3678 61.5938 41.5646 66.0308 41.5646H150.97C155.407 41.5646 159.21 45.3678 159.21 49.8049V103.05Z" fill="#A9C4C9"/>
<path d="M159.21 99.8807C159.21 104.529 155.829 109.177 151.181 109.177H65.8196C61.1712 109.177 57.7905 104.529 57.7905 99.8807V47.4807C57.7905 42.8323 61.1712 39.4517 65.8196 39.4517H151.181C155.829 39.4517 159.21 42.8323 159.21 47.4807V99.8807Z" fill="#FAFDFE"/>
<path d="M66.2417 39.4517H151.18C155.829 39.4517 159.209 42.8323 159.209 47.4807V99.8807C159.209 104.529 155.829 108.332 151.392 108.332" fill="#EDF4F4"/>
<path d="M72.5807 72.8355C72.1581 72.8355 71.5242 72.6242 71.1016 72.2016C70.2565 71.3565 70.2565 70.0887 71.1016 69.2436C91.5968 48.7484 125.192 48.7484 145.687 69.2436C146.532 70.0887 146.532 71.3565 145.687 72.2016C144.842 73.0468 143.574 73.0468 142.729 72.2016C123.713 53.1855 92.8645 53.1855 73.8484 72.2016C73.6371 72.6242 73.2145 72.8355 72.5807 72.8355Z" fill="#BACCCB"/>
<path d="M151.181 39.4517H65.8196C61.1712 39.4517 57.7905 42.8323 57.7905 47.4807V51.9178C57.7905 47.4807 61.1712 43.6775 65.8196 43.6775H151.181C155.829 43.6775 159.21 47.4807 159.21 51.9178V47.4807C159.21 42.8323 155.829 39.4517 151.181 39.4517Z" fill="#D8E5E5"/>
<path d="M112.937 104.529C111.458 105.797 109.345 105.585 108.078 104.106C106.81 102.839 107.021 100.726 108.5 99.4581L143.786 69.0323C145.265 67.7645 147.378 67.9758 148.645 69.4548C149.913 70.9339 149.702 73.0468 148.223 74.3145L112.937 104.529Z" fill="#D8E5E5"/>
<path d="M113.148 104.318C111.881 105.585 109.768 105.797 108.289 104.529C106.81 103.261 106.81 101.148 108.077 99.6693L139.56 65.229C140.827 63.75 142.94 63.75 144.419 65.0177C145.898 66.2855 145.898 68.3984 144.631 69.8774L113.148 104.318Z" fill="#FF7A17"/>
<path d="M144.419 65.229C145.898 66.4967 145.898 68.6096 144.631 70.0887L113.148 104.318C111.881 105.585 109.768 105.797 108.289 104.529C106.81 103.261 106.81 101.148 108.077 99.6693" fill="#F74D19"/>
<path d="M108.5 150.168C117.485 150.168 124.769 142.884 124.769 133.898C124.769 124.913 117.485 117.629 108.5 117.629C99.5145 117.629 92.2305 124.913 92.2305 133.898C92.2305 142.884 99.5145 150.168 108.5 150.168Z" fill="#A9C4C9"/>
<path d="M108.5 117.84C117.374 117.84 124.769 125.024 124.769 134.11C124.769 142.984 117.585 150.379 108.5 150.379" fill="#A3C0C4"/>
<path d="M108.5 122.489C116.74 122.489 123.29 128.405 124.558 136.434C124.769 135.589 124.769 134.955 124.769 134.11C124.769 125.235 117.585 117.84 108.5 117.84C99.4143 117.84 92.2305 125.024 92.2305 134.11C92.2305 134.955 92.2305 135.8 92.4418 136.434C93.7095 128.616 100.26 122.489 108.5 122.489Z" fill="#97B3B7"/>
</g>
<path d="M77.314 243.039C90.7422 243.039 101.628 241.198 101.628 238.927C101.628 236.656 90.7422 234.815 77.314 234.815C63.8857 234.815 53 236.656 53 238.927C53 241.198 63.8857 243.039 77.314 243.039Z" fill="#4D8AF0"/>
<path d="M87.3644 232.203C88.474 231.297 89.2835 230.077 89.6865 228.703C90.0517 227.282 89.3767 225.798 88.0654 225.141C86.5784 224.573 84.9875 225.601 83.7845 226.647C82.5815 227.693 81.1965 228.872 79.6185 228.655C81.2695 227.159 82.0134 224.907 81.5775 222.723C81.509 222.278 81.3209 221.86 81.0335 221.514C80.2055 220.631 78.7115 221.014 77.7195 221.707C74.5755 223.92 73.6985 228.189 73.6805 232.035C73.5078 230.63 73.4894 229.21 73.6255 227.802C73.6195 226.402 73.2255 224.779 72.0255 224.035C71.2846 223.629 70.4511 223.422 69.6065 223.435C68.1915 223.387 66.6195 223.526 65.6515 224.56C64.4425 225.848 64.7625 228.001 65.8085 229.397C66.9794 230.709 68.361 231.816 69.8965 232.674C71.0695 233.371 72.07 234.324 72.8235 235.462C72.9109 235.621 72.9839 235.789 73.0415 235.962H81.9005C83.881 234.963 85.7176 233.702 87.3605 232.213L87.3644 232.203Z" fill="#4D8AF0"/>
<defs>
<clipPath id="clip0_102_146">
<rect width="131" height="131" fill="white" transform="translate(43 31)"/>
</clipPath>
</defs>
</svg>
