<svg width="544" height="377" viewBox="0 0 544 377" fill="none" xmlns="http://www.w3.org/2000/svg">
<path d="M299.882 172.804C334.129 172.804 361.892 145.041 361.892 110.794C361.892 76.5472 334.129 48.7844 299.882 48.7844C265.635 48.7844 237.873 76.5472 237.873 110.794C237.873 145.041 265.635 172.804 299.882 172.804Z" fill="#E5EFEF"/>
<path d="M232.03 38H338.078C340.819 38 343.447 39.0888 345.385 41.0268C347.323 42.9648 348.412 45.5933 348.412 48.3341V116.186H232.03C229.29 116.186 226.661 115.098 224.723 113.159C222.785 111.221 221.696 108.593 221.696 105.852V48.3341C221.696 45.5933 222.785 42.9648 224.723 41.0268C226.661 39.0888 229.29 38 232.03 38Z" fill="#FFCE56" stroke="#4C241D" stroke-width="5" stroke-linecap="round" stroke-linejoin="round"/>
<path d="M232.03 38H338.078C340.819 38 343.447 39.0888 345.385 41.0268C347.323 42.9648 348.412 45.5933 348.412 48.3341V59.5686H221.696V48.3341C221.696 45.5933 222.785 42.9648 224.723 41.0268C226.661 39.0888 229.29 38 232.03 38Z" fill="#F53E28" stroke="#4C241D" stroke-width="5" stroke-linecap="round" stroke-linejoin="round"/>
<path d="M221.696 94.6177H348.412V116.186H232.03C229.29 116.186 226.661 115.098 224.723 113.16C222.785 111.222 221.696 108.593 221.696 105.852V94.6177Z" fill="#F53E28" stroke="#4C241D" stroke-width="5" stroke-linecap="round" stroke-linejoin="round"/>
<path d="M360.129 105.402H282.773C281.833 105.402 280.903 105.587 280.035 105.947C279.167 106.306 278.378 106.833 277.713 107.498C277.049 108.162 276.522 108.951 276.162 109.819C275.803 110.687 275.618 111.618 275.618 112.557V175.5L295.838 156.627H360.129C362.027 156.627 363.847 155.873 365.189 154.532C366.53 153.19 367.284 151.37 367.284 149.472V112.557C367.284 111.618 367.099 110.687 366.74 109.819C366.38 108.951 365.853 108.162 365.189 107.498C364.524 106.833 363.735 106.306 362.867 105.947C361.999 105.587 361.069 105.402 360.129 105.402Z" fill="white" stroke="#4C241D" stroke-width="5" stroke-linecap="round" stroke-linejoin="round"/>
<path d="M229.784 153.931V159.324" stroke="#4C241D" stroke-width="5" stroke-linecap="round" stroke-linejoin="round"/>
<path d="M229.784 170.108V175.5" stroke="#4C241D" stroke-width="5" stroke-linecap="round" stroke-linejoin="round"/>
<path d="M219 164.716H224.392" stroke="#4C241D" stroke-width="5" stroke-linecap="round" stroke-linejoin="round"/>
<path d="M235.176 164.716H240.568" stroke="#4C241D" stroke-width="5" stroke-linecap="round" stroke-linejoin="round"/>
<path d="M259.662 139.553C259.663 140.123 259.495 140.681 259.179 141.156C258.863 141.631 258.413 142.001 257.887 142.22C257.36 142.439 256.781 142.497 256.221 142.386C255.662 142.275 255.148 142.001 254.744 141.598C254.34 141.196 254.065 140.682 253.954 140.123C253.842 139.564 253.899 138.984 254.117 138.457C254.335 137.93 254.704 137.48 255.178 137.163C255.652 136.846 256.21 136.677 256.78 136.677C257.543 136.677 258.275 136.98 258.815 137.52C259.356 138.059 259.66 138.79 259.662 139.553Z" fill="#4C241D"/>
<path d="M297.186 132.363H289.098" stroke="#4C241D" stroke-width="5" stroke-linecap="round" stroke-linejoin="round"/>
<path d="M289.098 124.274V132.363V140.451" stroke="#4C241D" stroke-width="5" stroke-linecap="round" stroke-linejoin="round"/>
<path d="M353.804 139.103V140.451" stroke="#4C241D" stroke-width="5" stroke-linecap="round" stroke-linejoin="round"/>
<path d="M353.804 124.274V131.015" stroke="#4C241D" stroke-width="5" stroke-linecap="round" stroke-linejoin="round"/>
<path d="M340.323 124.274L334.931 140.451" stroke="#4C241D" stroke-width="5" stroke-linecap="round" stroke-linejoin="round"/>
<path d="M340.324 124.274L345.716 140.451" stroke="#4C241D" stroke-width="5" stroke-linecap="round" stroke-linejoin="round"/>
<path d="M321.451 124.274V132.363V140.451H326.843" stroke="#4C241D" stroke-width="5" stroke-linecap="round" stroke-linejoin="round"/>
<path d="M297.186 124.274V132.363V140.451" stroke="#4C241D" stroke-width="5" stroke-linecap="round" stroke-linejoin="round"/>
<path d="M309.319 140.451C308.246 140.451 307.217 140.025 306.459 139.266C305.7 138.508 305.274 137.479 305.274 136.407V128.319C305.274 127.246 305.7 126.217 306.459 125.459C307.217 124.7 308.246 124.274 309.319 124.274C310.391 124.274 311.42 124.7 312.178 125.459C312.937 126.217 313.363 127.246 313.363 128.319V136.407C313.363 137.479 312.937 138.508 312.178 139.266C311.42 140.025 310.391 140.451 309.319 140.451Z" stroke="#4C241D" stroke-width="5" stroke-linecap="round" stroke-linejoin="round"/>
<path d="M244.773 360.346C244.773 360.346 237.761 336.548 246.093 319.022C249.632 311.696 250.699 303.419 249.134 295.435C248.362 291.651 247.245 287.946 245.796 284.366" stroke="#535461" stroke-width="2"/>
<path d="M250.972 273.289C250.972 276.208 245.683 284.665 245.683 284.665C245.683 284.665 240.395 276.204 240.395 273.289C240.395 270.368 242.763 268 245.684 268C248.605 268 250.972 270.368 250.972 273.289H250.972Z" fill="#6C63FF"/>
<path d="M259.722 289.45C258.136 291.899 249.103 296.13 249.103 296.13C249.103 296.13 249.267 286.155 250.853 283.71C252.495 281.404 255.661 280.799 258.037 282.337C260.413 283.876 261.156 287.013 259.722 289.454V289.45Z" fill="#6C63FF"/>
<path d="M259.322 317.062C256.714 318.374 246.783 317.469 246.783 317.469C246.783 317.469 251.96 308.944 254.562 307.632C256.258 306.686 258.336 306.746 259.975 307.787C261.614 308.829 262.55 310.685 262.414 312.622C262.278 314.559 261.09 316.266 259.322 317.067V317.062Z" fill="#6C63FF"/>
<path d="M254.33 337.894C251.982 339.629 242.039 340.411 242.039 340.411C242.039 340.411 245.699 331.135 248.047 329.4C250.394 327.832 253.558 328.384 255.236 330.652C256.914 332.921 256.515 336.108 254.33 337.893V337.894Z" fill="#6C63FF"/>
<path d="M237.993 296.691C240.108 298.722 249.834 300.832 249.834 300.832C249.834 300.832 247.449 291.149 245.355 289.118C243.239 287.243 240.023 287.363 238.054 289.391C236.084 291.419 236.057 294.637 237.993 296.697V296.691Z" fill="#6C63FF"/>
<path d="M232.461 321.129C235.068 322.441 245 321.537 245 321.537C245 321.537 239.823 313.012 237.221 311.7C234.639 310.529 231.593 311.603 230.316 314.135C229.039 316.666 229.985 319.753 232.461 321.135V321.129Z" fill="#6C63FF"/>
<path d="M230.346 345.617C232.694 347.351 242.636 348.134 242.636 348.134C242.636 348.134 238.977 338.858 236.629 337.123C235.118 335.893 233.053 335.592 231.255 336.342C229.456 337.091 228.215 338.769 228.025 340.708C227.835 342.647 228.727 344.533 230.346 345.617V345.617Z" fill="#6C63FF"/>
<path opacity="0.1" d="M24.0086 265.598C38.1766 283.613 32.6736 309.932 23.6706 331.006C20.6566 338.063 17.2456 345.53 18.5186 353.095C20.0726 362.347 28.3186 369.124 37.0056 372.686C53.14 379.195 71.4024 377.691 86.2546 368.63C98.8066 360.82 107.796 348.122 120.562 340.668C141.934 328.201 169.121 332.907 192.319 341.496C208.731 347.574 226.675 355.481 242.984 349.128C254.458 344.676 262.393 333.78 266.716 322.248C268.804 316.678 270.316 310.671 274.285 306.219C276.755 303.676 279.682 301.622 282.914 300.164C311.855 285.822 348.366 293.485 376.453 277.599C395.425 266.86 407.572 246.599 412.964 225.469C418.356 204.339 417.715 182.186 416.348 160.431C415.377 144.967 413.636 128.462 403.756 116.525C393.306 103.902 375.367 99.2048 359.156 101.605C342.945 104.005 328.242 112.598 315.33 122.67C299.172 135.257 284.189 150.935 264.349 156.037C250.84 159.51 236.628 157.609 222.691 156.954C199.391 155.854 176.091 158.29 152.929 160.961C130.751 163.526 108.404 166.349 87.2856 173.561C72.3336 178.668 60.3476 187.934 46.2286 194.408C37.0286 198.629 26.9896 199.796 18.2806 205.17C7.54558 211.791 -2.29043 223.309 0.470573 236.783C3.06357 249.609 16.4886 256.038 24.0086 265.598Z" fill="#584DFC"/>
<g clip-path="url(#clip0_100_1053)">
<path d="M110.25 107.05C110.25 107.574 109.095 108.099 107.73 108.099C103.635 108.099 97.02 116.391 96.18 122.583C94.92 130.875 94.71 131.19 90.51 131.19C84.84 131.19 74.76 136.438 69.195 142.316C58.905 153.126 49.035 165.512 46.095 171.074C44.415 174.223 42.42 178.002 41.475 179.471C40.635 180.94 37.485 187.448 34.44 193.85C30.66 201.932 28.35 205.711 27.195 205.711C25.305 205.711 24.15 207.705 24.15 211.274C24.15 212.533 23.415 214.527 22.575 215.577C21.42 217.046 21 220.51 21 228.172C21 237.513 21.315 239.088 23.73 243.286C26.46 247.799 26.46 248.114 24.78 251.578C22.89 255.671 22.575 260.709 24.15 265.222C25.83 269.84 31.395 272.255 45.36 274.459C58.38 276.558 60.06 277.607 55.125 280.861C53.76 281.806 52.29 283.59 51.975 284.745C49.455 293.771 34.65 324.419 30.87 328.512C26.565 333.236 25.83 336.489 26.145 350.239C26.25 352.023 26.985 354.332 27.93 355.172C29.82 357.166 35.385 357.376 39.585 355.592C41.16 354.962 45.57 354.122 49.35 353.702C62.37 352.338 68.565 346.985 59.955 344.466C52.5 342.157 52.5 340.793 59.43 333.445C64.89 327.673 66.255 325.364 70.77 313.818C73.605 306.576 76.125 300.488 76.335 300.279C77.07 299.334 82.11 305.002 84.84 309.62C86.31 312.244 89.985 316.967 92.82 320.221C97.125 325.049 98.805 328.198 102.165 337.539C107.1 351.603 107.625 353.702 106.26 353.702C104.685 353.702 101.85 356.746 101.85 358.531C101.85 359.685 103.425 360 108.57 360C114.87 360 115.5 359.79 118.02 356.746C120.225 354.122 121.065 353.702 122.325 354.752C123.165 355.382 124.11 356.851 124.425 358.006C125.055 359.895 126.42 360 152.565 360C167.895 360 179.55 359.58 179.025 359.055C178.395 358.636 175.455 357.271 172.41 356.221C165.69 353.912 159.075 348.455 157.08 343.731C156.24 341.737 152.565 337.854 148.155 334.39C144.06 331.136 139.65 326.938 138.285 325.259C137.025 323.474 132.09 318.961 127.365 315.183C122.01 310.984 118.44 307.206 117.705 305.317C117.075 303.322 115.5 301.853 113.61 301.118C110.775 300.174 107.1 295.45 107.1 292.826C107.1 292.197 106.155 290.307 104.895 288.838C101.64 284.64 104.16 284.85 110.775 289.258C117.6 293.771 120.015 293.351 120.54 287.579C121.065 282.121 119.07 278.867 112.875 275.193C104.055 269.945 101.535 265.222 106.89 264.173C109.62 263.648 109.935 263.123 109.935 258.82C110.04 255.356 109.515 253.677 107.94 252.207C101.85 246.75 99.855 235.414 103.74 227.962C104.895 225.863 106.26 222.819 106.89 221.35C108.255 217.991 110.145 217.571 127.575 216.731C138.495 216.102 140.7 216.312 143.85 217.991C147 219.67 147.63 220.615 148.68 225.653C152.355 243.391 153.405 246.54 156.87 252.417C160.23 258.19 160.545 259.135 159.495 262.598C158.34 267.112 155.19 269.736 151.095 269.736C149.52 269.736 147.63 270.47 146.895 271.415C145.74 272.884 145.845 273.304 147.525 274.249C148.68 274.983 150.99 275.508 152.775 275.508C156.345 275.508 157.185 277.607 157.395 287.264C157.5 292.826 160.125 297.445 161.7 294.926C162.12 294.191 163.065 294.716 164.22 296.5C165.165 297.969 166.425 298.914 166.95 298.599C168.21 297.864 167.16 289.783 165.585 287.788C165.06 287.159 164.955 286.529 165.48 286.529C166.005 286.529 167.475 288.418 168.84 290.727C171.15 294.926 172.62 295.765 173.67 293.981C173.985 293.456 173.67 292.826 172.83 292.512C171.99 292.197 171.15 289.993 170.94 287.683C170.52 282.645 172.2 282.016 176.085 285.689C177.45 286.949 178.815 287.579 179.235 287.159C179.76 286.739 179.235 285.794 178.185 285.059C177.24 284.325 176.4 283.275 176.4 282.75C176.4 282.226 175.455 280.651 174.3 279.182C173.145 277.712 172.2 275.193 172.2 273.514C172.2 271.835 171.045 267.112 169.68 263.018C167.055 255.356 166.53 252.522 166.74 247.379C166.95 244.755 167.265 244.545 171.57 244.545C176.085 244.545 181.65 241.502 181.65 239.088C181.65 238.563 182.7 236.674 183.855 234.889C185.115 233.21 186.795 229.641 187.53 227.017C188.37 224.393 189.525 221.559 190.155 220.825C190.995 219.88 190.995 218.936 190.365 217.991C189.735 217.361 189 215.367 188.58 213.688C187.425 208.859 183.96 204.661 181.23 204.661C178.815 204.661 175.455 202.457 169.68 197.209C166.74 194.48 166.635 194.27 167.895 189.757C168.63 187.343 171.15 182.095 173.565 178.212C175.98 174.328 180.915 166.561 184.485 160.893C188.055 155.226 193.725 147.459 197.19 143.68C202.965 137.173 203.49 136.228 204.12 130.245C204.645 125.732 205.59 123.003 207.375 120.799C208.95 119.015 210 116.391 210 114.502C210 110.513 209.37 110.513 205.695 113.977L202.86 116.601L201.705 113.242C200.76 110.408 200.34 110.093 198.975 111.248C198.135 111.983 197.4 113.452 197.4 114.607C197.4 115.761 196.56 116.916 195.405 117.231C193.095 117.86 191.73 120.274 193.2 121.219C193.83 121.639 194.25 123.843 194.25 126.362C194.25 131.82 191.415 136.018 178.71 149.558C169.155 159.844 163.065 167.296 157.185 176.637C155.085 179.891 152.565 182.62 151.62 182.62C150.675 182.62 147 180.731 143.43 178.317C136.395 173.593 137.025 173.593 121.8 177.372C116.865 178.526 110.775 180.101 108.15 180.731C105.525 181.255 102.69 181.99 101.745 182.305C100.275 182.725 100.065 181.885 100.38 176.637C101.01 163.307 102.375 157.535 105.525 154.281L108.57 151.132L112.56 155.436C116.97 160.264 120.54 160.683 122.325 156.59C122.85 155.331 124.215 153.966 125.16 153.651C126.105 153.336 127.26 152.287 127.575 151.237C127.89 150.083 129.15 149.033 130.2 148.718C131.67 148.298 132.3 147.249 132.3 145.255C132.3 142.421 132.93 140.112 136.605 128.986C137.76 125.732 138.6 122.583 138.6 121.849C138.6 121.219 136.815 118.91 134.715 116.706C128.94 110.828 110.25 103.481 110.25 107.05Z" fill="#979587"/>
</g>
<path d="M388.537 240.267H401.116V190.602C396.488 188.703 392.258 186.058 388.537 182.833V240.267Z" fill="#90B6A0"/>
<path d="M435.874 240.267H448.453V182.833C444.731 186.058 440.501 188.703 435.874 190.602V240.267Z" fill="#90B6A0"/>
<path d="M388.537 134.027V182.833C392.259 186.058 396.489 188.703 401.116 190.602V134.027H388.537Z" fill="#98C2A2"/>
<path d="M435.874 134.027V190.602C440.501 188.702 444.731 186.058 448.453 182.833V134.027H435.874Z" fill="#98C2A2"/>
<path d="M451.59 131.092V147.032C451.59 148.188 450.654 149.124 449.498 149.124L422.859 150.787L422.301 150.821L418.417 151.063L414.552 150.821L414.13 150.794L387.492 149.124C386.335 149.124 385.399 148.188 385.399 147.031V131.092C385.399 129.936 386.335 129 387.492 129H449.498C450.655 129 451.59 129.936 451.59 131.092Z" fill="#636C6C"/>
<path d="M381.655 302.236C381.655 303.971 381.481 305.619 381.192 307.18C380.006 313.108 376.768 317.504 372.835 318.198C372.488 318.256 372.141 318.284 371.765 318.284H364.015C363.64 318.284 363.292 318.255 362.946 318.198C359.013 317.504 355.775 313.108 354.588 307.18C354.3 305.618 354.126 303.971 354.126 302.236C354.126 300.5 354.3 298.852 354.588 297.291C355.774 291.363 359.013 286.967 362.946 286.273C363.293 286.215 363.64 286.187 364.015 286.187H371.765C372.141 286.187 372.488 286.216 372.835 286.273C376.768 286.967 380.006 291.363 381.192 297.291C381.481 298.852 381.655 300.5 381.655 302.236Z" fill="#5C7962"/>
<path d="M381.655 302.236C381.655 303.971 381.481 305.619 381.192 307.18H354.588C354.3 305.618 354.126 303.971 354.126 302.236C354.126 300.5 354.3 298.852 354.588 297.291H381.192C381.481 298.852 381.655 300.5 381.655 302.236Z" fill="#5E9176"/>
<path d="M482.864 302.236C482.864 303.971 482.69 305.619 482.401 307.18C481.216 313.108 477.978 317.504 474.044 318.198C473.698 318.256 473.35 318.284 472.975 318.284H465.225C464.849 318.284 464.502 318.255 464.155 318.198C460.222 317.504 456.984 313.108 455.798 307.18C455.509 305.618 455.335 303.971 455.335 302.236C455.335 300.5 455.509 298.852 455.798 297.291C456.984 291.363 460.222 286.967 464.155 286.273C464.502 286.215 464.849 286.187 465.225 286.187H472.975C473.35 286.187 473.698 286.216 474.044 286.273C477.978 286.967 481.216 291.363 482.401 297.291C482.691 298.852 482.864 300.5 482.864 302.236Z" fill="#5C7962"/>
<path d="M482.864 302.236C482.864 303.971 482.69 305.619 482.401 307.18H455.797C455.509 305.618 455.335 303.971 455.335 302.236C455.335 300.5 455.509 298.852 455.797 297.291H482.401C482.69 298.852 482.864 300.5 482.864 302.236Z" fill="#5E9176"/>
<path d="M514.99 202.964V297.001C514.99 300.384 512.272 303.103 508.889 303.103H328.101C324.718 303.103 322 300.384 322 297.001V202.964C322 199.581 324.718 196.863 328.101 196.863H508.889C512.272 196.863 514.99 199.581 514.99 202.964Z" fill="#98C2A2"/>
<path opacity="0.9" d="M515 202.963V223.917C505.464 220.298 497.419 213.631 492.067 205.112C491.812 204.709 491.572 204.314 491.331 203.904C491.317 203.889 491.303 203.861 491.303 203.84C489.995 201.62 488.878 199.287 487.952 196.862H508.899C512.271 196.862 515 199.591 515 202.963Z" fill="#79886A"/>
<path d="M501.504 211.428C501.99 211.428 502.385 211.034 502.385 210.548C502.385 210.061 501.99 209.667 501.504 209.667C501.018 209.667 500.624 210.061 500.624 210.548C500.624 211.034 501.018 211.428 501.504 211.428Z" fill="#E4E4E8"/>
<path d="M495.327 203.849C495.813 203.849 496.207 203.455 496.207 202.969C496.207 202.482 495.813 202.088 495.327 202.088C494.841 202.088 494.446 202.482 494.446 202.969C494.446 203.455 494.841 203.849 495.327 203.849Z" fill="#E4E4E8"/>
<path d="M508.182 216.907C508.668 216.907 509.062 216.513 509.062 216.027C509.062 215.54 508.668 215.146 508.182 215.146C507.696 215.146 507.301 215.54 507.301 216.027C507.301 216.513 507.696 216.907 508.182 216.907Z" fill="#E4E4E8"/>
<path opacity="0.9" d="M328.103 196.866H349.057C345.438 206.403 338.771 214.448 330.252 219.8C329.849 220.054 329.454 220.294 329.043 220.535C329.029 220.549 329.001 220.563 328.98 220.563C326.76 221.871 324.427 222.988 322.002 223.914V202.967C322.002 199.595 324.731 196.866 328.103 196.866Z" fill="#79886A"/>
<path d="M335.688 211.243C336.175 211.243 336.569 210.849 336.569 210.362C336.569 209.876 336.175 209.482 335.688 209.482C335.202 209.482 334.808 209.876 334.808 210.362C334.808 210.849 335.202 211.243 335.688 211.243Z" fill="#E4E4E8"/>
<path d="M328.109 217.42C328.595 217.42 328.989 217.026 328.989 216.539C328.989 216.053 328.595 215.659 328.109 215.659C327.622 215.659 327.228 216.053 327.228 216.539C327.228 217.026 327.622 217.42 328.109 217.42Z" fill="#E4E4E8"/>
<path d="M341.167 204.565C341.653 204.565 342.047 204.171 342.047 203.685C342.047 203.198 341.653 202.804 341.167 202.804C340.68 202.804 340.286 203.198 340.286 203.685C340.286 204.171 340.68 204.565 341.167 204.565Z" fill="#E4E4E8"/>
<path opacity="0.9" d="M515 297V276.046C505.464 279.665 497.419 286.332 492.067 294.851C491.812 295.254 491.572 295.65 491.331 296.06C491.317 296.074 491.303 296.102 491.303 296.123C489.995 298.343 488.878 300.676 487.952 303.101H508.899C512.271 303.101 515 300.372 515 297Z" fill="#79886A"/>
<path d="M501.504 290.296C501.99 290.296 502.385 289.902 502.385 289.416C502.385 288.929 501.99 288.535 501.504 288.535C501.018 288.535 500.624 288.929 500.624 289.416C500.624 289.902 501.018 290.296 501.504 290.296Z" fill="#E4E4E8"/>
<path d="M495.327 297.875C495.813 297.875 496.207 297.481 496.207 296.995C496.207 296.508 495.813 296.114 495.327 296.114C494.841 296.114 494.446 296.508 494.446 296.995C494.446 297.481 494.841 297.875 495.327 297.875Z" fill="#E4E4E8"/>
<path d="M508.182 284.817C508.668 284.817 509.062 284.423 509.062 283.937C509.062 283.45 508.668 283.056 508.182 283.056C507.696 283.056 507.301 283.45 507.301 283.937C507.301 284.423 507.696 284.817 508.182 284.817Z" fill="#E4E4E8"/>
<path opacity="0.9" d="M328.103 303.097H349.057C345.438 293.561 338.771 285.516 330.252 280.164C329.849 279.909 329.454 279.669 329.043 279.428C329.029 279.414 329.001 279.4 328.98 279.4C326.76 278.092 324.427 276.975 322.002 276.049V296.996C322.002 300.369 324.731 303.097 328.103 303.097Z" fill="#79886A"/>
<path d="M335.688 290.482C336.175 290.482 336.569 290.088 336.569 289.601C336.569 289.115 336.175 288.721 335.688 288.721C335.202 288.721 334.808 289.115 334.808 289.601C334.808 290.088 335.202 290.482 335.688 290.482Z" fill="#E4E4E8"/>
<path d="M328.109 284.305C328.595 284.305 328.989 283.911 328.989 283.425C328.989 282.938 328.595 282.544 328.109 282.544C327.622 282.544 327.228 282.938 327.228 283.425C327.228 283.911 327.622 284.305 328.109 284.305Z" fill="#E4E4E8"/>
<path d="M341.167 297.159C341.653 297.159 342.047 296.765 342.047 296.279C342.047 295.792 341.653 295.398 341.167 295.398C340.68 295.398 340.286 295.792 340.286 296.279C340.286 296.765 340.68 297.159 341.167 297.159Z" fill="#E4E4E8"/>
<g opacity="0.9">
<path d="M382.869 196.863H357.047V303.103H382.869V196.863Z" fill="#B68E66"/>
<path d="M479.943 196.863H454.121V303.103H479.943V196.863Z" fill="#B68E66"/>
</g>
<path opacity="0.06" d="M515 223.917V202.963C515 199.591 512.271 196.863 508.899 196.863H487.952H479.943H454.121H448.453V182.833V149.189L449.498 149.124C450.654 149.124 451.59 148.188 451.59 147.032V131.093C451.59 129.936 450.654 129 449.498 129H418.5V151.059L422.302 150.822L422.859 150.787L435.874 149.975V190.603V196.863H418.5V303.103H454.121H455.377C455.424 304.517 455.558 305.885 455.797 307.18C456.983 313.108 460.222 317.504 464.155 318.198C464.501 318.256 464.849 318.284 465.224 318.284H472.974C473.35 318.284 473.697 318.255 474.044 318.198C477.977 317.504 481.215 313.109 482.4 307.18C482.64 305.885 482.774 304.517 482.821 303.103H508.888C510.581 303.103 512.106 302.423 513.209 301.319C514.315 300.215 515 298.689 515 297V276.046C514.997 276.047 514.993 276.049 514.99 276.05V223.913C514.994 223.915 514.997 223.916 515 223.917Z" fill="#040000"/>
<path d="M412.81 231.587C416.574 243.414 409.177 255.527 396.938 257.582C385.111 261.346 372.998 253.949 370.943 241.71C367.179 229.883 374.575 217.77 386.815 215.715C398.642 211.951 410.755 219.347 412.81 231.587Z" fill="#EBC5A2"/>
<path d="M390.668 253.317C383.452 253.317 377.333 248.069 376.118 240.84L376.057 240.471L375.944 240.117C374.592 235.868 375.093 231.489 377.356 227.784C379.62 224.076 383.287 221.628 387.684 220.89L388.052 220.829L388.407 220.716C389.945 220.227 391.518 219.978 393.084 219.978C400.301 219.978 406.421 225.226 407.635 232.455L407.697 232.824L407.81 233.178C409.161 237.426 408.66 241.806 406.398 245.511C404.134 249.219 400.467 251.667 396.069 252.405L395.701 252.466L395.346 252.579C393.807 253.071 392.234 253.317 390.668 253.317Z" fill="#F7D9C1"/>
<path opacity="0.8" d="M495.431 259.527L487.141 251.538L464.463 275.072L472.753 283.061L495.431 259.527Z" fill="#D9C66F"/>
<path opacity="0.8" d="M487.133 283.053L495.423 275.064L472.745 251.53L464.455 259.519L487.133 283.053Z" fill="#D9C66F"/>
<path d="M281.719 332.347C281.719 332.347 277.237 317.138 282.562 305.938C284.823 301.257 285.505 295.968 284.505 290.865C284.012 288.447 283.298 286.08 282.372 283.792" stroke="#535461" stroke-width="2"/>
<path d="M285.68 276.713C285.68 278.579 282.3 283.983 282.3 283.983C282.3 283.983 278.921 278.576 278.921 276.713C278.921 274.847 280.434 273.333 282.301 273.333C284.167 273.333 285.68 274.847 285.68 276.713H285.68Z" fill="#6C63FF"/>
<path d="M291.272 287.041C290.258 288.606 284.486 291.309 284.486 291.309C284.486 291.309 284.591 284.935 285.604 283.373C286.653 281.899 288.677 281.512 290.195 282.496C291.713 283.479 292.188 285.484 291.272 287.044V287.041Z" fill="#6C63FF"/>
<path d="M291.016 304.686C289.35 305.524 283.003 304.946 283.003 304.946C283.003 304.946 286.311 299.498 287.974 298.66C289.058 298.056 290.386 298.094 291.433 298.759C292.481 299.425 293.079 300.611 292.992 301.849C292.905 303.087 292.146 304.177 291.016 304.689V304.686Z" fill="#6C63FF"/>
<path d="M287.826 317.998C286.325 319.107 279.972 319.607 279.972 319.607C279.972 319.607 282.31 313.679 283.811 312.57C285.311 311.569 287.332 311.921 288.405 313.371C289.477 314.821 289.223 316.857 287.826 317.998V317.998Z" fill="#6C63FF"/>
<path d="M277.386 291.668C278.738 292.966 284.953 294.315 284.953 294.315C284.953 294.315 283.429 288.127 282.09 286.829C280.738 285.631 278.683 285.708 277.425 287.003C276.166 288.299 276.149 290.356 277.386 291.672V291.668Z" fill="#6C63FF"/>
<path d="M273.851 307.285C275.517 308.123 281.864 307.546 281.864 307.546C281.864 307.546 278.555 302.098 276.892 301.259C275.242 300.511 273.296 301.198 272.48 302.815C271.664 304.433 272.269 306.406 273.851 307.289V307.285Z" fill="#6C63FF"/>
<path d="M272.499 322.934C274 324.042 280.353 324.542 280.353 324.542C280.353 324.542 278.014 318.615 276.514 317.506C275.549 316.72 274.229 316.528 273.08 317.007C271.93 317.485 271.138 318.557 271.016 319.797C270.895 321.036 271.465 322.241 272.499 322.934V322.934Z" fill="#6C63FF"/>
<path d="M525.773 368.346C525.773 368.346 518.761 344.548 527.093 327.022C530.632 319.696 531.699 311.419 530.134 303.435C529.362 299.651 528.245 295.946 526.796 292.366" stroke="#535461" stroke-width="2"/>
<path d="M531.972 281.289C531.972 284.208 526.683 292.665 526.683 292.665C526.683 292.665 521.395 284.204 521.395 281.289C521.395 278.368 523.763 276 526.684 276C529.605 276 531.972 278.368 531.972 281.289H531.972Z" fill="#6C63FF"/>
<path d="M540.722 297.45C539.136 299.899 530.103 304.13 530.103 304.13C530.103 304.13 530.267 294.155 531.853 291.71C533.495 289.404 536.661 288.799 539.037 290.337C541.413 291.876 542.156 295.013 540.722 297.454V297.45Z" fill="#6C63FF"/>
<path d="M540.322 325.062C537.714 326.374 527.783 325.469 527.783 325.469C527.783 325.469 532.96 316.944 535.562 315.632C537.258 314.686 539.336 314.746 540.975 315.787C542.614 316.829 543.55 318.685 543.414 320.622C543.278 322.559 542.09 324.266 540.322 325.067V325.062Z" fill="#6C63FF"/>
<path d="M535.33 345.894C532.982 347.629 523.039 348.411 523.039 348.411C523.039 348.411 526.699 339.135 529.047 337.4C531.394 335.832 534.558 336.384 536.236 338.652C537.914 340.921 537.515 344.108 535.33 345.893V345.894Z" fill="#6C63FF"/>
<path d="M518.993 304.691C521.108 306.722 530.834 308.832 530.834 308.832C530.834 308.832 528.449 299.149 526.355 297.118C524.239 295.243 521.023 295.363 519.054 297.391C517.084 299.419 517.057 302.637 518.993 304.697V304.691Z" fill="#6C63FF"/>
<path d="M513.461 329.129C516.068 330.441 526 329.537 526 329.537C526 329.537 520.823 321.012 518.221 319.7C515.639 318.529 512.593 319.603 511.316 322.135C510.039 324.666 510.985 327.753 513.461 329.135V329.129Z" fill="#6C63FF"/>
<path d="M511.346 353.617C513.694 355.351 523.636 356.134 523.636 356.134C523.636 356.134 519.977 346.858 517.629 345.123C516.118 343.893 514.053 343.592 512.255 344.342C510.456 345.091 509.215 346.769 509.025 348.708C508.835 350.647 509.727 352.533 511.346 353.617V353.617Z" fill="#6C63FF"/>
<defs>
<clipPath id="clip0_100_1053">
<rect width="189" height="254" fill="white" transform="translate(21 106)"/>
</clipPath>
</defs>
</svg>
