<svg width="740" height="493" viewBox="0 0 740 493" fill="none" xmlns="http://www.w3.org/2000/svg">
<g id="Group 5">
<g id="Background-shapes">
<path id="Vector 14" opacity="0.1" d="M300.92 38.6338C390.12 89.4337 326.087 120.467 282.92 129.634C266.254 144.134 231.02 187.634 223.42 245.634C213.92 318.134 334.92 316.134 412.42 375.634C489.92 435.134 496.42 366.134 578.42 336.634C660.42 307.134 541.92 245.634 559.92 129.634C574.32 36.8337 617.587 90.9671 637.42 129.634C638.92 134.3 649.62 170.934 680.42 280.134C711.22 389.334 440.254 461.967 300.92 484.634C198.92 508.234 111.42 395.8 80.4204 336.634C32.9204 291.134 52.9204 164.134 96.4204 77.6338C139.92 -8.86625 189.42 -24.8662 300.92 38.6338Z" fill="#584DFC"/>
<g id="Vector">
<path d="M641 59.3057L648 52L672 76.0892L665 83L641 59.3057Z" fill="#EEEDFF"/>
<path d="M672 59.3057L665 52L641 76.0892L648 83L672 59.3057Z" fill="#EEEDFF"/>
</g>
<g id="Vector_2">
<path d="M585 451.306L592 444L616 468.089L609 475L585 451.306Z" fill="#EEEDFF"/>
<path d="M616 451.306L609 444L585 468.089L592 475L616 451.306Z" fill="#EEEDFF"/>
</g>
<g id="Vector_3">
<path d="M691 109.548L702.065 98L740 136.076L728.935 147L691 109.548Z" fill="#EEEDFF"/>
<path d="M740 109.548L728.935 98L691 136.076L702.065 147L740 109.548Z" fill="#EEEDFF"/>
</g>
<g id="Vector_4">
<path d="M4 69.5478L15.0645 58L53 96.0764L41.9355 107L4 69.5478Z" fill="#EEEDFF"/>
<path d="M53 69.5478L41.9355 58L4 96.0764L15.0645 107L53 69.5478Z" fill="#EEEDFF"/>
</g>
<g id="Vector_5">
<path d="M0 382.548L11.0645 371L49 409.076L37.9355 420L0 382.548Z" fill="#EEEDFF"/>
<path d="M49 382.548L37.9355 371L0 409.076L11.0645 420L49 382.548Z" fill="#EEEDFF"/>
</g>
<g id="Vector_6">
<path d="M73 455.548L84.0645 444L122 482.076L110.935 493L73 455.548Z" fill="#EEEDFF"/>
<path d="M122 455.548L110.935 444L73 482.076L84.0645 493L122 455.548Z" fill="#EEEDFF"/>
</g>
</g>
<g id="Computer-icon">
<g id="Group_351">
<path id="Path_1186" opacity="0.136" d="M392.292 195.109C469.222 195.109 531.583 199.952 531.583 205.925C531.583 211.898 469.224 216.741 392.292 216.741C315.359 216.741 253 211.899 253 205.925C253 199.951 315.364 195.109 392.292 195.109Z" fill="#584DFC"/>
<path id="Ellipse_170" opacity="0.587" d="M440.474 243.945C461.291 243.945 478.166 241.01 478.166 237.39C478.166 233.769 461.291 230.834 440.474 230.834C419.657 230.834 402.782 233.769 402.782 237.39C402.782 241.01 419.657 243.945 440.474 243.945Z" fill="#DEDBFF"/>
<path id="Path_965" d="M420.746 206.253L362.344 205.503L362.518 204.002L365.34 179.293H416.63L420.403 204.002L420.691 205.877L420.746 206.253Z" fill="#D0D2D5"/>
<path id="Path_966" opacity="0.1" d="M420.692 205.88H391.547L362.344 205.503L362.518 204.002H420.402L420.692 205.88Z" fill="black"/>
<path id="Rectangle_617" d="M430.107 204.382H352.61V206.253H430.107V204.382Z" fill="#D0D2D5"/>
<path id="Path_967" d="M504.044 30.8898C504.053 28.201 501.882 26.0131 499.194 26H282.773C281.48 26.0063 280.243 26.5259 279.333 27.4446C278.423 28.3633 277.916 29.6057 277.922 30.8985V162.079H504.044V30.8898Z" fill="#3F3D56"/>
<path id="Path_968" d="M277.922 160.768V176.132C277.922 178.811 280.094 180.983 282.773 180.983H499.194C501.872 180.982 504.044 178.811 504.044 176.132V160.768H277.922Z" fill="#D0D2D5"/>
<path id="Rectangle_618" d="M495.807 34.2263H287.282V152.155H495.807V34.2263Z" fill="white"/>
<path id="Path_969" d="M392.108 175.153C393.66 175.154 395.126 174.443 396.084 173.222C396.228 173.039 396.36 172.846 396.479 172.646L393.703 172.177L396.705 172.197C397.286 170.933 397.32 169.485 396.8 168.195L392.778 170.279L396.492 167.553C395.549 165.906 393.763 164.925 391.867 165.014C389.971 165.103 388.285 166.246 387.5 167.974C386.715 169.702 386.963 171.724 388.144 173.21C389.098 174.434 390.564 175.151 392.116 175.153L392.108 175.153Z" fill="#584DFC"/>
<path id="Path_970" opacity="0.1" d="M397.162 180.98L420.461 204.382L416.885 180.98H397.162Z" fill="black"/>
<path id="Rectangle_619" opacity="0.1" d="M495.871 34.2398H287.119V41.1293H495.871V34.2398Z" fill="#444053"/>
<path id="Rectangle_620" opacity="0.3" d="M422.035 35.4391H360.056C359.803 35.4391 359.598 35.6443 359.598 35.8974V39.1731C359.598 39.4261 359.803 39.6313 360.056 39.6313H422.035C422.288 39.6313 422.493 39.4261 422.493 39.1731V35.8974C422.493 35.6443 422.288 35.4391 422.035 35.4391Z" fill="#584DFC"/>
<path id="Path_971" d="M420.625 37.9697H420.467L420.411 37.9208C420.602 37.6915 420.706 37.4027 420.706 37.1046C420.701 36.4213 420.143 35.8712 419.46 35.8752C418.777 35.8793 418.226 36.436 418.228 37.1193C418.231 37.8027 418.787 38.3547 419.47 38.3529C419.769 38.352 420.058 38.2466 420.287 38.0551L420.343 38.1041V38.2581L421.303 39.2181L421.588 38.9297L420.625 37.9697ZM419.474 37.9697C419.065 37.9683 418.714 37.6783 418.635 37.2768C418.556 36.8752 418.771 36.4736 419.149 36.3173C419.527 36.1609 419.963 36.2931 420.191 36.6333C420.419 36.9734 420.375 37.4269 420.086 37.7169C419.923 37.8785 419.704 37.9694 419.474 37.9697Z" fill="#3F3D56"/>
<path id="Ellipse_171" opacity="0.8" d="M290.872 38.9463C291.569 38.9463 292.134 38.3814 292.134 37.6845C292.134 36.9877 291.569 36.4228 290.872 36.4228C290.175 36.4228 289.61 36.9877 289.61 37.6845C289.61 38.3814 290.175 38.9463 290.872 38.9463Z" fill="#FA5959"/>
<path id="Ellipse_172" opacity="0.8" d="M294.343 38.9463C295.04 38.9463 295.604 38.3814 295.604 37.6845C295.604 36.9877 295.04 36.4228 294.343 36.4228C293.646 36.4228 293.081 36.9877 293.081 37.6845C293.081 38.3814 293.646 38.9463 294.343 38.9463Z" fill="#FED253"/>
<path id="Ellipse_173" opacity="0.8" d="M297.817 38.9463C298.513 38.9463 299.078 38.3814 299.078 37.6845C299.078 36.9877 298.513 36.4228 297.817 36.4228C297.12 36.4228 296.555 36.9877 296.555 37.6845C296.555 38.3814 297.12 38.9463 297.817 38.9463Z" fill="#8CCF4D"/>
</g>
<g id="405" opacity="0.8">
<path d="M322 109.678V102.602L331.6 88.1906L341.2 73.779H351.091L332.298 102.602L327.702 101.109H359.76V109.678H322ZM343.935 119.221V109.678L344.226 101.109V92.605H353.128V119.221H343.935Z" fill="#EEEDFF"/>
<path d="M385.852 120C382.517 120 379.53 119.091 376.892 117.273C374.255 115.413 372.18 112.729 370.667 109.224C369.154 105.718 368.398 101.477 368.398 96.5C368.398 91.523 369.154 87.2818 370.667 83.7762C372.18 80.2707 374.255 77.6091 376.892 75.7914C379.53 73.9305 382.517 73 385.852 73C389.227 73 392.214 73.9305 394.813 75.7914C397.45 77.6091 399.525 80.2707 401.038 83.7762C402.551 87.2818 403.307 91.523 403.307 96.5C403.307 101.477 402.551 105.718 401.038 109.224C399.525 112.729 397.45 115.413 394.813 117.273C392.214 119.091 389.227 120 385.852 120ZM385.852 111.106C387.443 111.106 388.82 110.609 389.983 109.613C391.186 108.618 392.117 107.038 392.776 104.874C393.474 102.71 393.823 99.919 393.823 96.5C393.823 93.081 393.474 90.2896 392.776 88.1257C392.117 85.9618 391.186 84.3821 389.983 83.3867C388.82 82.3913 387.443 81.8936 385.852 81.8936C384.301 81.8936 382.924 82.3913 381.722 83.3867C380.558 84.3821 379.627 85.9618 378.929 88.1257C378.269 90.2896 377.94 93.081 377.94 96.5C377.94 99.919 378.269 102.71 378.929 104.874C379.627 107.038 380.558 108.618 381.722 109.613C382.924 110.609 384.301 111.106 385.852 111.106Z" fill="#EEEDFF"/>
<path d="M413.24 109.678V102.602L432.44 73.779H442.331L423.538 102.602L418.941 101.109H451V109.678H413.24ZM435.174 119.221V109.678L435.465 101.109V92.605H444.367V119.221H435.174Z" fill="#EEEDFF"/>
</g>
<g id="404">
<path d="M327 106.678V99.6022L336.6 85.1906L346.2 70.779H356.091L337.298 99.6022L332.702 98.1091H364.76V106.678H327ZM348.935 116.221V106.678L349.226 98.1091V89.605H358.128V116.221H348.935Z" fill="#3D3691" fill-opacity="0.8"/>
<path d="M390.852 117C387.517 117 384.53 116.091 381.892 114.273C379.255 112.413 377.18 109.729 375.667 106.224C374.154 102.718 373.398 98.477 373.398 93.5C373.398 88.523 374.154 84.2818 375.667 80.7762C377.18 77.2707 379.255 74.6091 381.892 72.7914C384.53 70.9305 387.517 70 390.852 70C394.227 70 397.214 70.9305 399.813 72.7914C402.45 74.6091 404.525 77.2707 406.038 80.7762C407.551 84.2818 408.307 88.523 408.307 93.5C408.307 98.477 407.551 102.718 406.038 106.224C404.525 109.729 402.45 112.413 399.813 114.273C397.214 116.091 394.227 117 390.852 117ZM390.852 108.106C392.443 108.106 393.82 107.609 394.983 106.613C396.186 105.618 397.117 104.038 397.776 101.874C398.474 99.7104 398.823 96.919 398.823 93.5C398.823 90.081 398.474 87.2896 397.776 85.1257C397.117 82.9618 396.186 81.3821 394.983 80.3867C393.82 79.3913 392.443 78.8936 390.852 78.8936C389.301 78.8936 387.924 79.3913 386.722 80.3867C385.558 81.3821 384.627 82.9618 383.929 85.1257C383.269 87.2896 382.94 90.081 382.94 93.5C382.94 96.919 383.269 99.7104 383.929 101.874C384.627 104.038 385.558 105.618 386.722 106.613C387.924 107.609 389.301 108.106 390.852 108.106Z" fill="#3D3691" fill-opacity="0.8"/>
<path d="M418.24 106.678V99.6022L437.44 70.779H447.331L428.538 99.6022L423.941 98.1091H456V106.678H418.24ZM440.174 116.221V106.678L440.465 98.1091V89.605H449.367V116.221H440.174Z" fill="#3D3691" fill-opacity="0.8"/>
</g>
</g>
</g>
</svg>
