<svg width="692" height="467" viewBox="0 0 692 467" fill="none" xmlns="http://www.w3.org/2000/svg">
<path opacity="0.1" d="M340.747 18.6765C315.902 8.38244 289.654 -0.206604 262.864 0.873772C223.466 2.45286 185.681 26.6019 167.128 62.0535C151.408 92.0891 149.472 127.293 142.704 160.625C134.351 201.701 118.378 240.715 101.31 278.883C92.1455 299.385 82.4768 320.33 80.974 342.807C78.8828 374.003 93.5207 405.095 116.483 425.85C139.444 446.605 169.926 457.557 200.525 459.946C216.808 461.215 233.824 460.038 248.295 452.313C263.592 444.147 274.751 429.381 290.11 421.331C304.347 413.865 321.003 412.814 336.987 413.79C357.922 415.071 378.551 419.538 398.186 427.045C420.528 435.596 441.304 447.972 463.596 456.644C485.887 465.316 510.793 470.145 533.582 462.915C554.965 456.119 571.908 439.621 587.126 422.91C612.167 395.473 635.005 366.032 655.421 334.871C669.179 313.875 681.985 291.719 688.072 267.242C699.7 220.449 683.692 167.653 648.19 135.729C618.791 109.237 579.314 97.7508 540.672 90.7549C505.434 84.3976 464.689 84.0008 432.252 67.4274C401.314 51.6235 373.168 32.1137 340.747 18.6765Z" fill="#584DFC"/>
<path d="M202.872 457.172C202.872 457.172 195.133 430.904 204.329 411.56C208.235 403.474 209.413 394.338 207.686 385.526C206.833 381.35 205.6 377.26 204.002 373.309" stroke="#535461" stroke-width="2"/>
<path d="M209.713 361.082C209.713 364.304 203.876 373.639 203.876 373.639C203.876 373.639 198.039 364.3 198.039 361.082C198.039 357.858 200.653 355.245 203.877 355.245C207.101 355.245 209.714 357.858 209.714 361.082H209.713Z" fill="#6C63FF"/>
<path d="M219.372 378.921C217.621 381.624 207.651 386.293 207.651 386.293C207.651 386.293 207.832 375.284 209.583 372.585C211.395 370.039 214.889 369.371 217.512 371.07C220.135 372.768 220.954 376.231 219.372 378.925V378.921Z" fill="#6C63FF"/>
<path d="M218.929 409.397C216.052 410.844 205.09 409.846 205.09 409.846C205.09 409.846 210.804 400.437 213.676 398.989C215.548 397.945 217.841 398.01 219.65 399.16C221.459 400.309 222.493 402.358 222.342 404.496C222.192 406.634 220.882 408.518 218.929 409.403V409.397Z" fill="#6C63FF"/>
<path d="M213.42 432.39C210.828 434.304 199.854 435.168 199.854 435.168C199.854 435.168 203.894 424.929 206.485 423.014C209.076 421.284 212.568 421.893 214.42 424.397C216.272 426.901 215.832 430.418 213.42 432.389V432.39Z" fill="#6C63FF"/>
<path d="M195.389 386.912C197.723 389.153 208.458 391.483 208.458 391.483C208.458 391.483 205.825 380.795 203.514 378.554C201.179 376.484 197.629 376.617 195.455 378.855C193.281 381.093 193.252 384.645 195.389 386.919V386.912Z" fill="#6C63FF"/>
<path d="M189.283 413.886C192.16 415.334 203.122 414.336 203.122 414.336C203.122 414.336 197.408 404.926 194.536 403.478C191.686 402.186 188.325 403.372 186.915 406.165C185.506 408.959 186.55 412.367 189.283 413.892V413.886Z" fill="#6C63FF"/>
<path d="M186.948 440.913C189.54 442.828 200.514 443.692 200.514 443.692C200.514 443.692 196.474 433.454 193.883 431.539C192.215 430.181 189.936 429.849 187.951 430.676C185.966 431.503 184.596 433.355 184.387 435.495C184.177 437.635 185.161 439.718 186.948 440.914V440.913Z" fill="#6C63FF"/>
<path d="M535.159 450.954C535.159 450.954 529.899 433.103 536.148 419.958C538.803 414.462 539.604 408.255 538.43 402.266C537.85 399.428 537.012 396.649 535.926 393.964" stroke="#535461" stroke-width="2"/>
<path d="M539.808 385.655C539.808 387.845 535.841 394.188 535.841 394.188C535.841 394.188 531.875 387.842 531.875 385.655C531.875 383.464 533.651 381.688 535.841 381.688C538.032 381.688 539.808 383.464 539.808 385.655H539.808Z" fill="#6C63FF"/>
<path d="M546.371 397.777C545.181 399.614 538.406 402.787 538.406 402.787C538.406 402.787 538.529 395.306 539.719 393.472C540.95 391.742 543.325 391.288 545.107 392.442C546.89 393.596 547.447 395.949 546.371 397.78V397.777Z" fill="#6C63FF"/>
<path d="M546.071 418.487C544.115 419.471 536.666 418.793 536.666 418.793C536.666 418.793 540.549 412.399 542.5 411.415C543.772 410.705 545.331 410.75 546.56 411.531C547.79 412.312 548.492 413.704 548.39 415.157C548.288 416.61 547.397 417.89 546.071 418.492V418.487Z" fill="#6C63FF"/>
<path d="M542.326 434.113C540.565 435.414 533.108 436.001 533.108 436.001C533.108 436.001 535.853 429.043 537.614 427.742C539.374 426.566 541.747 426.98 543.006 428.681C544.265 430.383 543.966 432.773 542.326 434.112V434.113Z" fill="#6C63FF"/>
<path d="M530.073 403.208C531.66 404.731 538.955 406.314 538.955 406.314C538.955 406.314 537.166 399.051 535.595 397.528C534.008 396.121 531.596 396.212 530.118 397.733C528.641 399.254 528.621 401.667 530.073 403.213V403.208Z" fill="#6C63FF"/>
<path d="M525.924 421.538C527.879 422.522 535.329 421.844 535.329 421.844C535.329 421.844 531.445 415.45 529.494 414.466C527.557 413.588 525.273 414.393 524.315 416.292C523.357 418.19 524.067 420.506 525.924 421.542V421.538Z" fill="#6C63FF"/>
<path d="M524.337 439.905C526.098 441.207 533.556 441.793 533.556 441.793C533.556 441.793 530.811 434.836 529.05 433.535C527.917 432.612 526.368 432.386 525.019 432.948C523.67 433.511 522.739 434.769 522.597 436.223C522.454 437.678 523.123 439.093 524.337 439.906V439.905Z" fill="#6C63FF"/>
<path d="M566.716 432.546C566.716 432.546 559.703 408.747 568.035 391.221C571.574 383.895 572.642 375.619 571.076 367.634C570.304 363.851 569.187 360.145 567.739 356.566" stroke="#535461" stroke-width="2"/>
<path d="M572.914 345.488C572.914 348.408 567.625 356.864 567.625 356.864C567.625 356.864 562.337 348.404 562.337 345.488C562.337 342.567 564.705 340.2 567.626 340.2C570.547 340.2 572.915 342.567 572.915 345.488H572.914Z" fill="#6C63FF"/>
<path d="M581.665 361.65C580.078 364.099 571.045 368.329 571.045 368.329C571.045 368.329 571.209 358.355 572.796 355.91C574.437 353.603 577.603 352.998 579.979 354.537C582.355 356.076 583.098 359.213 581.665 361.654V361.65Z" fill="#6C63FF"/>
<path d="M581.264 389.261C578.656 390.573 568.725 389.669 568.725 389.669C568.725 389.669 573.902 381.144 576.504 379.832C578.2 378.886 580.278 378.945 581.917 379.987C583.556 381.028 584.492 382.884 584.356 384.821C584.219 386.759 583.032 388.465 581.264 389.267V389.261Z" fill="#6C63FF"/>
<path d="M576.272 410.093C573.923 411.828 563.981 412.611 563.981 412.611C563.981 412.611 567.641 403.334 569.989 401.599C572.336 400.032 575.499 400.583 577.178 402.852C578.856 405.121 578.457 408.307 576.272 410.093V410.093Z" fill="#6C63FF"/>
<path d="M559.935 368.89C562.051 370.921 571.776 373.032 571.776 373.032C571.776 373.032 569.391 363.348 567.297 361.318C565.181 359.443 561.965 359.563 559.996 361.591C558.026 363.618 557.999 366.837 559.935 368.897V368.89Z" fill="#6C63FF"/>
<path d="M554.403 393.329C557.011 394.641 566.942 393.736 566.942 393.736C566.942 393.736 561.765 385.211 559.163 383.899C556.581 382.729 553.535 383.803 552.258 386.334C550.982 388.865 551.928 391.953 554.403 393.334V393.329Z" fill="#6C63FF"/>
<path d="M552.288 417.816C554.636 419.551 564.579 420.333 564.579 420.333C564.579 420.333 560.919 411.057 558.571 409.323C557.06 408.092 554.995 407.792 553.197 408.541C551.398 409.29 550.157 410.968 549.967 412.907C549.777 414.846 550.669 416.733 552.288 417.817V417.816Z" fill="#6C63FF"/>
<path d="M64.1417 119.249C64.1417 119.249 103.721 151.699 88.6832 207.153C73.6456 262.607 137.623 346.02 137.623 346.02C137.623 346.02 137.034 345.992 135.905 345.908C60.6424 340.172 15.517 259.209 50.4283 192.291C63.3838 167.417 73.247 138.76 64.1417 119.249Z" fill="#6C63FF"/>
<path d="M64.1417 119.249C64.1417 119.249 88.8426 161.384 72.0759 199.411C55.3092 237.439 82.1592 336.845 137.619 346.02" stroke="#535461" stroke-width="2"/>
<path d="M14.4177 271.266C14.4177 271.266 54.8639 260.652 62.261 297.115C69.658 333.578 145.411 331.23 145.411 331.23C145.411 331.23 144.956 331.615 144.092 332.307C85.9777 379.261 25.0871 370.33 28.6766 315.264C30.0385 294.796 27.7691 274.59 14.4177 271.266Z" fill="#6C63FF"/>
<path opacity="0.2" d="M14.4177 271.266C14.4177 271.266 54.8639 260.652 62.261 297.115C69.658 333.578 145.411 331.23 145.411 331.23C145.411 331.23 144.956 331.615 144.092 332.307C85.9777 379.261 25.0871 370.33 28.6766 315.264C30.0385 294.796 27.7691 274.59 14.4177 271.266Z" fill="#F5F5F5"/>
<path d="M14.4178 271.266C14.4178 271.266 47.0137 275.114 47.265 304.383C47.5163 333.652 100.972 363.464 145.433 331.216" stroke="#535461" stroke-width="2"/>
<path d="M635.603 77.4888C635.603 77.4888 593.992 107.288 605.38 163.605C616.769 219.921 547.488 298.984 547.488 298.984C547.488 298.984 548.077 298.995 549.209 298.985C624.685 298.17 674.995 220.323 644.523 151.27C633.217 125.604 625.244 96.3648 635.603 77.4888Z" fill="#6C63FF"/>
<path d="M635.602 77.4889C635.602 77.4889 608.206 117.923 622.457 156.963C636.707 196.004 603.431 293.447 547.491 298.985" stroke="#535461" stroke-width="2"/>
<path d="M675.306 232.425C675.306 232.425 635.638 219.196 625.878 255.099C616.119 291.001 540.68 283.718 540.68 283.718C540.68 283.718 541.109 284.132 541.926 284.879C596.854 335.523 658.198 330.582 658.207 275.4C658.184 254.887 661.766 234.872 675.306 232.425Z" fill="#6C63FF"/>
<path opacity="0.2" d="M675.306 232.425C675.306 232.425 635.638 219.196 625.878 255.099C616.119 291.001 540.68 283.718 540.68 283.718C540.68 283.718 541.109 284.132 541.926 284.879C596.854 335.523 658.198 330.582 658.207 275.4C658.184 254.887 661.766 234.872 675.306 232.425Z" fill="#F5F5F5"/>
<path d="M675.306 232.425C675.306 232.425 642.528 234.139 640.369 263.329C638.209 292.52 582.923 318.782 540.659 283.703" stroke="#535461" stroke-width="2"/>
<path opacity="0.136" d="M339.852 296.773C457.834 296.773 553.473 304.199 553.473 313.36C553.473 322.52 457.838 329.948 339.852 329.948C221.866 329.948 126.231 322.521 126.231 313.36C126.231 304.198 221.874 296.773 339.852 296.773Z" fill="#584DFC"/>
<path opacity="0.587" d="M413.746 371.669C445.67 371.669 471.551 367.168 471.551 361.615C471.551 356.063 445.67 351.562 413.746 351.562C381.821 351.562 355.941 356.063 355.941 361.615C355.941 367.168 381.821 371.669 413.746 371.669Z" fill="#DEDBFF"/>
<path d="M383.491 313.864L293.924 312.713L294.19 310.41L298.519 272.516H377.178L382.964 310.41L383.406 313.286L383.491 313.864Z" fill="#D0D2D5"/>
<path opacity="0.1" d="M383.407 313.291H338.709L293.924 312.713L294.19 310.41H382.963L383.407 313.291Z" fill="black"/>
<path d="M397.847 310.993H278.996V313.864H397.847V310.993Z" fill="#D0D2D5"/>
<path d="M511.239 44.9216C511.252 40.798 507.923 37.4424 503.8 37.4224H171.891C169.908 37.432 168.011 38.229 166.616 39.6379C165.22 41.0468 164.442 42.9522 164.452 44.9349V246.117H511.239V44.9216Z" fill="#3F3D56"/>
<path d="M164.452 244.105V267.669C164.452 271.777 167.783 275.108 171.891 275.108H503.8C507.908 275.107 511.238 271.777 511.238 267.669V244.105H164.452Z" fill="#D0D2D5"/>
<path d="M498.607 50.0385H178.807V230.897H498.607V50.0385Z" fill="white"/>
<path d="M339.571 266.167C341.95 266.169 344.199 265.078 345.668 263.207C345.889 262.925 346.092 262.63 346.274 262.322L342.016 261.603L346.62 261.634C347.511 259.695 347.564 257.475 346.766 255.497L340.598 258.693L346.293 254.511C344.847 251.986 342.108 250.482 339.201 250.618C336.293 250.754 333.707 252.507 332.503 255.157C331.299 257.807 331.681 260.908 333.491 263.187C334.955 265.065 337.202 266.164 339.583 266.168L339.571 266.167Z" fill="#584DFC"/>
<path opacity="0.1" d="M347.321 275.104L383.054 310.993L377.569 275.104H347.321Z" fill="black"/>
<path opacity="0.1" d="M498.704 50.0591H178.556V60.6251H498.704V50.0591Z" fill="#444053"/>
<path opacity="0.3" d="M385.467 51.8985H290.415C290.027 51.8985 289.712 52.2131 289.712 52.6013V57.6249C289.712 58.0131 290.027 58.3277 290.415 58.3277H385.467C385.855 58.3277 386.17 58.0131 386.17 57.6249V52.6013C386.17 52.2131 385.855 51.8985 385.467 51.8985Z" fill="#584DFC"/>
<path d="M383.304 55.7795H383.062L382.977 55.7044C383.27 55.3528 383.43 54.9099 383.429 54.4527C383.421 53.4047 382.566 52.5611 381.518 52.5673C380.47 52.5736 379.625 53.4273 379.629 54.4753C379.634 55.5233 380.486 56.3698 381.534 56.3672C381.992 56.3657 382.435 56.2041 382.786 55.9104L382.872 55.9855V56.2218L384.344 57.694L384.781 57.2517L383.304 55.7795ZM381.54 55.7795C380.913 55.7774 380.374 55.3326 380.252 54.7167C380.131 54.1009 380.461 53.485 381.042 53.2452C381.622 53.0054 382.29 53.2082 382.639 53.7299C382.988 54.2515 382.921 54.947 382.478 55.3918C382.229 55.6396 381.892 55.779 381.54 55.7795Z" fill="#3F3D56"/>
<path opacity="0.8" d="M184.312 57.2772C185.38 57.2772 186.247 56.4108 186.247 55.3421C186.247 54.2734 185.38 53.407 184.312 53.407C183.243 53.407 182.377 54.2734 182.377 55.3421C182.377 56.4108 183.243 57.2772 184.312 57.2772Z" fill="#FA5959"/>
<path opacity="0.8" d="M189.635 57.2772C190.703 57.2772 191.57 56.4108 191.57 55.3421C191.57 54.2734 190.703 53.407 189.635 53.407C188.566 53.407 187.7 54.2734 187.7 55.3421C187.7 56.4108 188.566 57.2772 189.635 57.2772Z" fill="#FED253"/>
<path opacity="0.8" d="M194.963 57.2772C196.032 57.2772 196.898 56.4108 196.898 55.3421C196.898 54.2734 196.032 53.407 194.963 53.407C193.894 53.407 193.028 54.2734 193.028 55.3421C193.028 56.4108 193.894 57.2772 194.963 57.2772Z" fill="#8CCF4D"/>
<g clip-path="url(#clip0_55_844)">
<path d="M129.059 210.142C128.307 207.243 128.432 204.721 128.432 204.721L123.54 204.469L118.648 204.721C118.648 204.721 118.898 207.369 118.02 210.268C117.77 211.025 117.519 211.655 117.143 212.412V217.959H130.063V212.538C129.561 211.781 129.31 210.899 129.059 210.142Z" fill="white"/>
<path d="M104.222 279.105L103.845 293.603L107.232 363.7H116.389L123.54 306.337L130.69 363.7H139.847L143.234 293.603L142.857 279.105H104.222Z" fill="#84DBFF"/>
<path d="M143.108 283.643L142.857 279.105H104.222L103.971 283.643H143.108Z" fill="#324A5E"/>
<path d="M129.059 210.142L128.683 210.647C127.805 211.781 126.55 212.412 125.17 212.664L124.167 212.79C123.665 212.916 123.163 212.916 122.661 212.79L121.783 212.664C120.403 212.412 119.149 211.781 118.271 210.647L118.02 210.395C118.898 207.369 118.647 204.848 118.647 204.848L123.539 204.596L128.432 204.848C128.432 204.721 128.306 207.243 129.059 210.142Z" fill="#E6E9EE"/>
<path d="M133.073 195.392C132.697 195.266 132.32 195.266 132.069 195.518L132.32 193.123H114.633L114.884 195.518C114.508 195.392 114.132 195.266 113.88 195.392C113.128 195.644 112.751 196.905 113.253 198.166C113.629 199.3 114.633 199.931 115.386 199.805L115.887 204.596C116.013 205.73 116.389 206.739 117.142 207.621L118.396 209.134C119.274 210.269 120.529 210.899 121.909 211.151L122.786 211.278C123.288 211.404 123.79 211.404 124.292 211.278L125.17 211.151C126.55 210.899 127.804 210.269 128.682 209.134L129.937 207.621C130.689 206.739 131.066 205.73 131.191 204.596L131.693 199.805C132.446 199.931 133.324 199.3 133.825 198.166C134.202 196.905 133.951 195.77 133.073 195.392Z" fill="white"/>
<path d="M115.888 194.005H112.877V194.131C114.006 196.148 115.762 199.804 115.762 199.804C115.511 197.661 115.637 195.644 115.888 194.005Z" fill="#324A5E"/>
<path d="M130.94 194.005C131.442 196.022 131.567 198.544 131.567 198.544C131.944 196.023 133.073 195.896 133.073 195.896C133.198 195.266 133.324 194.635 133.449 194.131H130.94V194.005Z" fill="#324A5E"/>
<path d="M141.227 363.7H130.564V368.113C130.564 368.869 131.191 369.5 131.944 369.5H146.244V368.869C146.37 365.969 144.112 363.7 141.227 363.7Z" fill="#324A5E"/>
<path d="M105.852 363.7H116.515V368.113C116.515 368.869 115.888 369.5 115.135 369.5H100.709V368.87C100.709 365.969 102.967 363.7 105.852 363.7Z" fill="#2B3B4E"/>
<path d="M119.274 275.196L118.522 274.944L119.4 273.305L119.902 273.684C120.78 274.188 120.278 275.449 119.274 275.196Z" fill="#FFD05B"/>
<path d="M154.272 259.437C152.767 235.987 146.997 222.876 146.997 222.876C142.732 217.329 129.811 212.034 129.811 212.034V212.16C128.933 215.312 126.299 216.951 123.665 216.951C121.03 216.951 118.396 215.312 117.518 212.16V212.034C117.518 212.034 104.598 217.329 100.333 222.876H100.207C100.207 222.876 94.4371 235.988 92.9318 259.437C92.681 262.337 93.8101 265.237 95.817 267.254C97.6986 269.271 100.584 271.793 104.222 274.188C104.222 274.188 104.347 274.188 104.347 274.314C104.347 275.827 104.347 277.466 104.347 279.357H142.982C142.982 277.466 142.982 275.827 142.982 274.314C146.745 271.919 149.505 269.397 151.512 267.38C153.52 265.237 154.523 262.337 154.272 259.437ZM101.462 259.185L104.598 249.225C105.225 254.268 105.225 258.05 104.974 261.707L101.462 259.185ZM142.104 261.58C141.854 257.924 141.854 254.142 142.481 249.099C142.481 249.099 142.481 249.099 142.481 248.973C142.481 248.973 142.481 248.973 142.481 249.099L145.617 259.059L142.104 261.58Z" fill="#324A5E"/>
<path d="M104.222 279.357H142.983C142.983 278.474 142.983 277.592 142.983 276.709V276.583C142.983 275.827 142.983 275.07 142.983 274.314C142.857 269.397 142.356 265.615 142.23 261.58C142.23 261.202 142.23 260.698 142.23 260.32C142.23 260.194 142.23 260.194 142.23 260.068C142.23 258.933 142.23 257.798 142.23 256.664C142.23 256.411 142.23 256.033 142.23 255.781C142.23 255.528 142.23 255.277 142.23 255.025C142.23 254.646 142.23 254.268 142.23 253.89C142.23 253.638 142.23 253.386 142.23 253.133C142.23 252.755 142.356 252.251 142.356 251.873C142.356 251.621 142.356 251.495 142.356 251.242C142.481 250.612 142.481 249.856 142.607 249.225C142.607 249.225 139.345 242.921 139.471 216.95C137.589 215.816 135.707 214.807 134.077 214.051V231.323H113.128V213.924C111.497 214.681 109.616 215.689 107.734 216.824C107.358 238.257 104.598 249.099 104.598 249.099V249.225C104.724 249.856 104.724 250.486 104.849 251.116C104.849 251.368 104.849 251.621 104.975 251.873C104.975 252.251 105.1 252.629 105.1 253.007C105.1 253.26 105.1 253.512 105.1 253.764C105.1 254.142 105.1 254.394 105.1 254.772C105.1 255.025 105.1 255.403 105.1 255.655C105.1 255.908 105.1 256.159 105.1 256.411C105.225 262.589 104.347 267.254 104.222 274.314C104.222 274.944 104.222 275.701 104.222 276.331C104.222 276.457 104.222 276.583 104.222 276.709C104.222 277.465 104.222 278.222 104.222 278.978C104.222 279.231 104.222 279.231 104.222 279.357Z" fill="#84DBFF"/>
<path d="M133.324 238.257C134.501 238.257 135.456 237.297 135.456 236.113C135.456 234.93 134.501 233.97 133.324 233.97C132.146 233.97 131.191 234.93 131.191 236.113C131.191 237.297 132.146 238.257 133.324 238.257Z" fill="#54C0EB"/>
<path d="M113.881 238.257C115.058 238.257 116.013 237.297 116.013 236.113C116.013 234.93 115.058 233.97 113.881 233.97C112.703 233.97 111.748 234.93 111.748 236.113C111.748 237.297 112.703 238.257 113.881 238.257Z" fill="#54C0EB"/>
<path d="M134.578 193.122C134.578 193.248 134.578 193.248 134.578 193.374C131.191 192.618 127.428 192.366 123.414 192.366C119.4 192.366 115.637 192.618 112.25 193.374C112.25 193.248 112.25 193.248 112.25 193.122C112.25 186.314 117.268 181.019 123.414 181.019C129.56 181.019 134.578 186.314 134.578 193.122Z" fill="#FF7058"/>
<path d="M128.933 191.105H118.02C117.519 188.458 118.02 184.297 119.776 181.776C120.906 181.272 122.16 181.02 123.54 181.02C124.92 181.02 126.048 181.272 127.303 181.776C128.933 184.297 129.435 188.458 128.933 191.105Z" fill="#F1543F"/>
<path d="M120.905 181.398C119.4 183.667 118.397 187.576 118.02 191.358H128.933C128.682 187.702 127.553 183.667 126.048 181.398C125.672 180.767 124.919 180.389 124.167 180.389H122.912C122.034 180.389 121.282 180.767 120.905 181.398Z" fill="#FF7058"/>
<path d="M134.578 194.005H112.25C111.372 194.005 110.745 193.375 110.745 192.492C110.745 191.609 111.372 190.979 112.25 190.979H134.578C135.457 190.979 136.084 191.609 136.084 192.492C136.084 193.375 135.457 194.005 134.578 194.005Z" fill="#F1543F"/>
<path d="M123.414 193.248C125.562 193.248 127.303 191.499 127.303 189.34C127.303 187.182 125.562 185.432 123.414 185.432C121.267 185.432 119.526 187.182 119.526 189.34C119.526 191.499 121.267 193.248 123.414 193.248Z" fill="white"/>
<path d="M123.414 192.24C125.008 192.24 126.3 190.942 126.3 189.34C126.3 187.739 125.008 186.44 123.414 186.44C121.821 186.44 120.529 187.739 120.529 189.34C120.529 190.942 121.821 192.24 123.414 192.24Z" fill="#54C0EB"/>
<path d="M132.697 278.6H130.815V285.156H132.697V278.6Z" fill="#84DBFF"/>
<path d="M116.264 278.6H114.382V285.156H116.264V278.6Z" fill="#84DBFF"/>
</g>
<g clip-path="url(#clip1_55_844)">
<path d="M573.152 163.217V163.344C572.327 166.528 569.853 168.183 567.378 168.183C564.903 168.183 562.429 166.528 561.604 163.344V163.217C561.604 163.217 561.604 163.217 561.486 163.217C561.84 162.453 562.193 161.307 562.193 161.18C562.429 160.416 562.546 159.779 562.664 159.142C562.9 157.232 562.782 155.831 562.782 155.831L567.378 155.577L571.973 155.831C571.973 155.831 571.856 157.232 572.091 159.142C572.209 159.779 572.327 160.543 572.563 161.18C572.681 161.944 572.917 162.58 573.152 163.217Z" fill="white"/>
<path d="M572.563 161.307C571.856 162.58 569.853 163.726 567.378 163.726C564.904 163.726 562.9 162.58 562.194 161.307C562.429 160.543 562.547 159.906 562.665 159.27C563.608 158.378 565.375 157.869 567.378 157.869C569.382 157.869 571.267 158.505 572.092 159.27C572.21 159.907 572.328 160.543 572.563 161.307Z" fill="#E6E9EE"/>
<path d="M575.273 146.408C572.917 145.517 570.206 145.007 567.378 145.007C564.786 145.007 562.311 145.389 560.19 146.154C559.837 146.281 559.601 146.408 559.247 146.536L560.072 155.577C560.19 156.723 560.544 157.741 561.251 158.633C561.251 158.633 562.783 160.67 563.136 160.925C564.315 161.944 565.729 162.58 567.261 162.58C568.793 162.58 570.324 162.071 571.385 160.925C571.739 160.67 573.27 158.633 573.27 158.633C573.977 157.741 574.331 156.723 574.449 155.577L575.273 146.408Z" fill="white"/>
<path d="M549.231 230.835L548.878 245.479L552.059 316.153H560.661L567.378 258.213L574.095 316.153H582.697L585.879 245.479L585.525 230.835H549.231Z" fill="#FF7058"/>
<path d="M585.761 235.419L585.525 230.835H549.231L548.995 235.419H585.761Z" fill="#324A5E"/>
<path d="M575.98 230.326H574.213V236.82H575.98V230.326Z" fill="#FF7058"/>
<path d="M560.543 230.326H558.776V236.82H560.543V230.326Z" fill="#FF7058"/>
<path d="M574.331 145.135C574.802 147.172 574.92 149.719 574.92 149.719C575.273 147.173 576.334 147.045 576.334 147.045C576.452 146.408 576.569 145.771 576.687 145.262H574.331V145.135Z" fill="#324A5E"/>
<path d="M560.19 145.135C559.719 147.172 559.719 149.592 559.719 149.592C559.365 147.045 558.305 146.918 558.305 146.918C558.187 146.281 558.069 145.644 557.951 145.135H560.19Z" fill="#324A5E"/>
<path d="M583.993 316.153H574.095V320.61C574.095 321.374 574.684 322.011 575.391 322.011H588.825V321.375C588.825 318.445 586.704 316.153 583.993 316.153Z" fill="#324A5E"/>
<path d="M550.763 316.153H560.661V320.61C560.661 321.374 560.072 322.011 559.365 322.011H545.932V321.375C545.932 318.445 548.171 316.153 550.763 316.153Z" fill="#2B3B4E"/>
<path d="M563.372 226.888L562.665 226.633L563.49 224.978L563.961 225.359C564.786 225.996 564.315 227.27 563.372 226.888Z" fill="#FFD05B"/>
<path d="M557.48 218.738L550.292 213.389L550.056 213.262C549.821 217.21 549.467 221.03 549.231 226.123C550.528 227.142 552.06 228.033 553.709 228.925C554.298 229.307 555.006 228.925 555.241 228.288L557.952 220.266C558.069 219.629 557.951 219.12 557.48 218.738Z" fill="#324A5E"/>
<path d="M549.938 204.603C549.938 204.985 550.056 205.367 550.056 205.749C550.056 205.367 550.056 204.985 549.938 204.603Z" fill="#324A5E"/>
<path d="M577.159 165.127V190.213H557.598V165.127C559.601 164.109 561.015 163.345 561.486 163.217C561.604 163.217 561.604 163.217 561.604 163.217V163.345C562.311 166.528 564.904 168.184 567.378 168.184C569.853 168.184 572.328 166.528 573.153 163.345V163.217C573.153 163.217 574.802 163.981 577.159 165.127Z" fill="#324A5E"/>
<path d="M596.248 211.097C594.834 187.54 589.414 174.296 589.414 174.296C587.882 172.131 585.054 169.967 582.344 168.184C582.226 194.416 585.29 200.783 585.29 200.783L588.236 210.843L584.465 213.39L583.404 214.154V227.397C584.229 226.888 584.936 226.378 585.643 225.869C589.06 223.45 591.771 220.903 593.538 218.865C595.424 216.828 596.366 214.026 596.248 211.097Z" fill="#324A5E"/>
<path d="M584.818 212.753C584.7 210.588 585.172 201.547 585.289 200.655C585.289 200.655 582.226 194.288 582.343 168.056C580.576 166.91 578.808 165.891 577.276 165.127V190.213H557.598V165.127C557.598 165.127 557.598 165.127 557.48 165.127C557.126 165.382 556.655 165.509 556.301 165.764C555.83 166.019 555.358 166.273 555.005 166.528C554.18 167.037 553.355 167.547 552.53 168.056V169.202C552.53 194.416 549.584 200.528 549.584 200.528C549.702 201.292 550.056 212.244 550.056 213.135L550.291 213.262L557.479 218.61C557.833 218.865 558.068 219.502 557.833 220.011L555.122 228.034C554.886 228.67 554.179 229.053 553.59 228.67C551.94 227.779 550.526 226.888 549.112 225.869C549.112 227.397 549.112 229.052 549.112 230.962H585.406C585.761 223.195 585.054 218.228 584.818 212.753Z" fill="#FF7058"/>
<path d="M576.569 198.873C577.676 198.873 578.572 197.903 578.572 196.708C578.572 195.512 577.676 194.543 576.569 194.543C575.463 194.543 574.566 195.512 574.566 196.708C574.566 197.903 575.463 198.873 576.569 198.873Z" fill="#F1543F"/>
<path d="M558.305 198.873C559.411 198.873 560.308 197.903 560.308 196.708C560.308 195.512 559.411 194.543 558.305 194.543C557.198 194.543 556.302 195.512 556.302 196.708C556.302 197.903 557.198 198.873 558.305 198.873Z" fill="#F1543F"/>
<path d="M557.598 142.461C556.773 144.116 556.419 145.772 557.127 146.536C558.659 148.191 562.783 145.644 567.261 145.772C571.739 145.517 575.981 148.064 577.395 146.536C578.101 145.644 577.748 144.116 576.923 142.461H557.598Z" fill="#F9B54C"/>
<path d="M577.63 143.861C577.63 143.989 577.63 143.989 577.63 144.116C574.448 143.352 570.913 143.097 567.26 143.097C563.49 143.097 559.954 143.352 556.891 144.116C556.891 143.989 556.891 143.989 556.891 143.861C556.891 136.985 561.604 131.764 567.26 131.764C573.034 131.637 577.63 136.985 577.63 143.861Z" fill="#FFD05B"/>
<path d="M572.445 141.824H562.193C561.722 139.15 562.193 134.947 563.843 132.401C564.904 131.892 566.082 131.637 567.378 131.637C568.557 131.637 569.735 131.892 570.913 132.401C572.445 134.947 572.799 139.15 572.445 141.824Z" fill="#F9B54C"/>
<path d="M564.903 132.019C563.489 134.311 562.547 138.259 562.193 141.952H572.445C572.209 138.259 571.149 134.311 569.734 132.019C569.381 131.382 568.674 131 567.967 131H566.789C565.964 131 565.257 131.382 564.903 132.019Z" fill="#FFD05B"/>
<path d="M561.015 236.82C560.897 236.056 560.662 235.419 560.308 234.783L567.378 223.959C568.085 224.086 568.675 224.086 569.381 223.959C571.385 223.577 573.034 222.176 573.742 220.266L568.557 221.285L565.964 218.101L567.378 214.154L572.563 213.135C571.267 211.607 569.264 210.843 567.26 211.225C564.079 211.862 561.84 215.173 562.429 218.611C562.547 219.375 562.783 220.012 563.136 220.648L556.066 231.472C555.359 231.345 554.77 231.345 554.063 231.472C552.06 231.854 550.41 233.255 549.703 235.165L554.887 234.146L557.48 237.33L556.066 241.277L550.881 242.296C552.177 243.824 554.181 244.588 556.184 244.206C559.365 243.569 561.486 240.258 561.015 236.82Z" fill="white"/>
<path d="M563.843 233L567.142 227.779C567.731 226.887 567.496 225.741 566.671 225.104L562.547 222.175C562.311 222.048 562.075 221.921 561.722 221.921C560.661 221.794 559.601 221.412 558.54 220.902L556.537 219.628L554.652 227.142C555.477 227.906 556.184 228.798 556.655 229.944C556.773 230.198 557.008 230.453 557.244 230.58L561.369 233.509C562.193 234.146 563.254 233.891 563.843 233Z" fill="#FFD05B"/>
<path d="M557.48 218.738L549.938 213.135L546.521 210.715L549.349 200.655C549.349 200.655 549.349 200.655 549.467 200.528C549.467 200.528 552.413 194.416 552.413 169.202V168.056C549.585 169.839 546.875 172.004 545.343 174.168H545.225C545.225 174.168 539.805 187.412 538.391 210.97C538.273 213.899 539.216 216.827 541.101 218.865C542.869 220.902 545.579 223.449 548.996 225.869C548.996 225.869 548.996 225.869 549.114 225.869C550.41 226.888 551.942 227.779 553.592 228.67C554.181 229.052 554.888 228.67 555.124 228.034L557.834 220.011C558.069 219.629 557.951 219.12 557.48 218.738Z" fill="#324A5E"/>
</g>
<g clip-path="url(#clip2_55_844)">
<path d="M290.732 152.292H248.358C248.017 152.292 247.691 152.427 247.45 152.668C247.21 152.908 247.075 153.235 247.074 153.575V230.066C247.075 230.407 247.21 230.733 247.45 230.974C247.691 231.214 248.017 231.35 248.358 231.35H290.732C291.072 231.35 291.398 231.214 291.639 230.974C291.88 230.733 292.015 230.407 292.015 230.066V153.575C292.015 153.407 291.982 153.24 291.917 153.084C291.853 152.928 291.758 152.787 291.639 152.668C291.52 152.549 291.379 152.454 291.223 152.39C291.067 152.325 290.9 152.292 290.732 152.292Z" fill="#597B91"/>
<path d="M259.482 186.461H254.718C254.368 186.461 254.032 186.322 253.784 186.075C253.536 185.827 253.397 185.491 253.397 185.141V165.649C253.397 165.299 253.536 164.963 253.784 164.715C254.032 164.468 254.368 164.329 254.718 164.329H259.482C259.832 164.329 260.168 164.468 260.415 164.715C260.663 164.963 260.802 165.299 260.802 165.649V185.141C260.802 185.491 260.663 185.827 260.415 186.075C260.168 186.322 259.832 186.461 259.482 186.461ZM273.081 185.141V165.65C273.081 165.299 272.942 164.963 272.694 164.716C272.446 164.468 272.11 164.329 271.76 164.329H266.996C266.646 164.329 266.31 164.468 266.063 164.716C265.815 164.963 265.676 165.299 265.676 165.65V185.141C265.676 185.491 265.815 185.827 266.063 186.075C266.31 186.323 266.646 186.462 266.996 186.462H271.76C272.11 186.462 272.446 186.322 272.694 186.075C272.941 185.827 273.081 185.491 273.081 185.141ZM285.359 185.141V165.65C285.359 165.299 285.22 164.963 284.973 164.716C284.725 164.468 284.389 164.329 284.039 164.329H279.275C278.925 164.329 278.589 164.468 278.341 164.716C278.094 164.963 277.954 165.299 277.954 165.65V185.141C277.954 185.491 278.094 185.827 278.341 186.075C278.589 186.323 278.925 186.462 279.275 186.462H284.039C284.389 186.462 284.725 186.322 284.973 186.075C285.22 185.827 285.359 185.491 285.359 185.141ZM260.802 224.202V204.711C260.802 204.36 260.663 204.024 260.415 203.777C260.168 203.529 259.832 203.39 259.482 203.39H254.718C254.368 203.39 254.032 203.529 253.784 203.777C253.536 204.024 253.397 204.36 253.397 204.711V224.202C253.397 224.552 253.536 224.888 253.784 225.136C254.032 225.384 254.368 225.523 254.718 225.523H259.482C259.832 225.523 260.168 225.383 260.415 225.136C260.663 224.888 260.802 224.552 260.802 224.202ZM273.081 224.202V204.711C273.081 204.36 272.942 204.024 272.694 203.777C272.446 203.529 272.11 203.39 271.76 203.39H266.996C266.646 203.39 266.31 203.529 266.063 203.777C265.815 204.024 265.676 204.36 265.676 204.711V224.202C265.676 224.552 265.815 224.888 266.063 225.136C266.31 225.384 266.646 225.523 266.996 225.523H271.76C272.11 225.523 272.446 225.383 272.694 225.136C272.941 224.888 273.081 224.552 273.081 224.202ZM285.359 224.202V204.711C285.359 204.36 285.22 204.024 284.973 203.777C284.725 203.529 284.389 203.39 284.039 203.39H279.275C278.925 203.39 278.589 203.529 278.341 203.777C278.094 204.024 277.954 204.36 277.954 204.711V224.202C277.954 224.552 278.094 224.888 278.341 225.136C278.589 225.384 278.925 225.523 279.275 225.523H284.039C284.389 225.523 284.725 225.383 284.973 225.136C285.22 224.888 285.359 224.552 285.359 224.202ZM293.68 156.928V153.648C293.68 153.288 293.537 152.943 293.282 152.689C293.028 152.435 292.683 152.292 292.324 152.292H246.433C246.074 152.292 245.729 152.435 245.474 152.689C245.22 152.943 245.077 153.288 245.077 153.648V156.928C245.077 157.288 245.22 157.632 245.474 157.887C245.729 158.141 246.074 158.284 246.433 158.284H292.324C292.502 158.284 292.678 158.249 292.843 158.181C293.007 158.113 293.157 158.013 293.282 157.887C293.408 157.761 293.508 157.611 293.576 157.447C293.645 157.282 293.68 157.106 293.68 156.928ZM293.68 196.242V192.962C293.68 192.603 293.537 192.258 293.282 192.003C293.028 191.749 292.683 191.606 292.324 191.606H246.433C246.074 191.606 245.729 191.749 245.474 192.003C245.22 192.258 245.077 192.603 245.077 192.962V196.242C245.077 196.602 245.22 196.947 245.474 197.201C245.729 197.455 246.074 197.598 246.433 197.598H292.324C292.502 197.598 292.678 197.563 292.843 197.495C293.007 197.427 293.157 197.327 293.282 197.201C293.408 197.075 293.508 196.926 293.576 196.761C293.645 196.597 293.68 196.42 293.68 196.242Z" fill="#2B3B47"/>
<path d="M253.164 231.609H253.133C252.713 231.609 252.31 231.442 252.013 231.145C251.717 230.848 251.55 230.446 251.55 230.026V224.765C251.55 224.345 251.717 223.943 252.013 223.646C252.31 223.349 252.713 223.183 253.133 223.183H253.164C253.584 223.183 253.987 223.349 254.284 223.646C254.58 223.943 254.747 224.345 254.747 224.765V230.026C254.747 230.446 254.58 230.848 254.283 231.145C253.987 231.442 253.584 231.608 253.164 231.609ZM237.696 230.026V224.765C237.696 224.345 237.529 223.943 237.232 223.646C236.935 223.349 236.533 223.183 236.113 223.183H236.081C235.661 223.183 235.259 223.349 234.962 223.646C234.665 223.943 234.499 224.345 234.499 224.765V230.026C234.499 230.446 234.665 230.848 234.962 231.145C235.259 231.442 235.661 231.609 236.081 231.609H236.113C236.533 231.608 236.935 231.442 237.232 231.145C237.529 230.848 237.696 230.446 237.696 230.026Z" fill="#E2AF8D"/>
<path d="M234.632 217.491H254.747V225.217H234.632V217.491Z" fill="#E5E4DF"/>
<path d="M247.148 225.276L254.856 217.618V221.989L251.519 225.276H247.148ZM238.864 225.276H243.236L250.962 217.369H246.59L238.864 225.276ZM238.306 217.369L234.562 221.166V225.276H234.952L242.678 217.369H238.306Z" fill="#FF473E"/>
<path d="M331.342 195.704C331.341 195.679 331.368 195.655 331.363 195.631C331.359 195.61 331.366 195.59 331.36 195.57C331.355 195.555 331.359 195.539 331.353 195.524C331.344 195.503 331.335 195.482 331.323 195.462C331.317 195.45 331.313 195.437 331.306 195.425C331.264 195.363 331.21 195.309 331.148 195.267C331.133 195.257 331.118 195.25 331.103 195.242C331.085 195.233 331.069 195.222 331.05 195.214C331.031 195.206 331.011 195.202 330.991 195.196C330.975 195.191 330.96 195.215 330.944 195.212C330.907 195.204 330.869 195.23 330.832 195.23H319.183C319.146 195.23 319.108 195.204 319.071 195.212C319.054 195.215 319.039 195.206 319.023 195.211C319.004 195.217 318.984 195.214 318.964 195.222C318.946 195.229 318.929 195.236 318.911 195.246C318.896 195.254 318.88 195.259 318.866 195.269C318.803 195.31 318.749 195.364 318.707 195.426C318.7 195.438 318.694 195.45 318.688 195.462C318.676 195.483 318.664 195.502 318.655 195.524C318.649 195.539 318.645 195.555 318.641 195.57C318.634 195.59 318.627 195.61 318.622 195.631C318.618 195.655 318.63 195.68 318.628 195.704C318.627 195.717 318.637 195.729 318.637 195.742V206.827H307.534C307.496 206.826 307.459 206.828 307.422 206.834C307.405 206.838 307.39 206.842 307.374 206.847C307.354 206.853 307.334 206.856 307.315 206.864C307.296 206.872 307.28 206.882 307.262 206.892C307.247 206.9 307.231 206.906 307.217 206.916C307.154 206.958 307.1 207.012 307.058 207.074C307.051 207.086 307.045 207.099 307.038 207.111C307.027 207.131 307.015 207.151 307.006 207.173C307 207.188 306.996 207.204 306.992 207.219C306.985 207.239 306.978 207.259 306.973 207.28C306.969 207.304 307.007 207.329 307.005 207.353C307.004 207.366 307.041 207.378 307.041 207.391V218.423H295.885C295.848 218.423 295.81 218.45 295.773 218.457C295.756 218.46 295.741 218.477 295.725 218.482C295.706 218.488 295.686 218.498 295.666 218.506C295.648 218.514 295.631 218.527 295.613 218.537C295.598 218.545 295.582 218.553 295.568 218.563C295.505 218.605 295.451 218.659 295.409 218.722C295.402 218.734 295.396 218.747 295.39 218.759C295.378 218.779 295.366 218.8 295.357 218.821C295.351 218.836 295.347 218.852 295.343 218.867C295.336 218.888 295.329 218.907 295.324 218.928C295.32 218.952 295.384 218.977 295.382 219.001C295.382 219.014 295.444 219.026 295.444 219.039V230.688C295.444 230.701 295.382 230.714 295.382 230.726C295.384 230.751 295.352 230.775 295.357 230.799C295.361 230.821 295.353 230.84 295.359 230.861C295.364 230.876 295.359 230.891 295.365 230.906C295.374 230.928 295.382 230.948 295.394 230.969C295.401 230.98 295.404 230.993 295.411 231.005C295.453 231.067 295.506 231.121 295.569 231.164C295.583 231.173 295.598 231.179 295.613 231.188C295.631 231.197 295.648 231.208 295.667 231.216C295.686 231.224 295.705 231.229 295.724 231.234C295.741 231.239 295.756 231.284 295.773 231.287C295.81 231.295 295.847 231.337 295.885 231.337H330.831C330.869 231.337 330.906 231.295 330.943 231.287C330.96 231.284 330.975 231.258 330.992 231.253C331.011 231.247 331.031 231.233 331.05 231.226C331.069 231.218 331.086 231.202 331.104 231.192C331.118 231.184 331.134 231.175 331.148 231.166C331.211 231.124 331.265 231.069 331.307 231.006C331.314 230.994 331.319 230.981 331.326 230.969C331.338 230.949 331.35 230.928 331.359 230.906C331.365 230.892 331.368 230.876 331.373 230.861C331.38 230.84 331.387 230.821 331.391 230.799C331.396 230.775 331.339 230.751 331.341 230.726C331.342 230.714 331.288 230.701 331.288 230.688V195.742C331.288 195.729 331.343 195.717 331.342 195.704ZM296.498 220.419L300.943 224.864L296.498 229.309V220.419ZM314.193 224.864L318.637 220.419V229.309L314.193 224.864ZM302.596 224.864L307.041 220.419V229.309L302.596 224.864ZM319.692 217.66V208.771L324.136 213.215L319.692 217.66ZM325.007 213.979L329.452 218.423H320.563L325.007 213.979ZM320.563 207.881H329.452L325.008 212.325L320.563 207.881ZM320.563 206.827L325.007 202.382L329.452 206.827H320.563ZM318.637 217.66L314.193 213.215L318.637 208.771V217.66ZM317.803 218.423H308.914L313.359 213.979L317.803 218.423ZM312.54 224.864L308.095 229.309V220.419L312.54 224.864ZM308.914 219.741H317.803L313.359 224.186L308.914 219.741ZM324.136 224.864L319.692 229.309V220.42L324.136 224.864ZM320.563 219.741H329.452L325.008 224.186L320.563 219.741ZM325.79 213.215L330.234 208.771V217.66L325.79 213.215ZM325.79 201.567L330.234 197.122V206.011L325.79 201.567ZM325.007 200.729L320.563 196.284H329.452L325.007 200.729ZM324.136 201.567L319.692 206.011V197.122L324.136 201.567ZM313.359 212.325L308.914 207.881H317.803L313.359 212.325ZM312.54 213.215L308.095 217.66V208.771L312.54 213.215ZM301.71 224.186L297.265 219.741H306.154L301.71 224.186ZM301.71 225.575L306.154 230.02H297.265L301.71 225.575ZM313.359 225.575L317.803 230.02H308.914L313.359 225.575ZM325.007 225.575L329.452 230.02H320.563L325.007 225.575ZM325.79 224.864L330.234 220.419V229.308L325.79 224.864Z" fill="#D8D8D8"/>
<path d="M290.046 116.575C289.985 116.575 289.926 116.567 289.867 116.552L222.549 99.5681L201.907 115.21C201.753 115.322 201.561 115.37 201.372 115.342C201.184 115.314 201.014 115.214 200.899 115.062C200.783 114.91 200.733 114.719 200.757 114.53C200.781 114.341 200.879 114.169 201.029 114.051L222.227 97.9868L290.223 115.142C290.395 115.185 290.545 115.29 290.645 115.436C290.745 115.583 290.788 115.76 290.767 115.936C290.745 116.112 290.66 116.274 290.527 116.392C290.394 116.509 290.223 116.574 290.046 116.575Z" fill="#D7F4F7"/>
<path d="M221.475 98.7774H222.463C222.974 98.7774 223.463 98.9802 223.824 99.3411C224.185 99.702 224.388 100.192 224.388 100.702V108.884H217.115L219.626 100.169C219.741 99.7679 219.984 99.4152 220.318 99.1642C220.651 98.9132 221.057 98.7774 221.475 98.7774Z" fill="#BFBCAF"/>
<path d="M222.667 228.243H214.615C214.14 228.243 213.684 228.055 213.348 227.718C213.012 227.382 212.823 226.926 212.823 226.451V108.796C212.823 108.32 213.012 107.865 213.348 107.528C213.684 107.192 214.14 107.003 214.615 107.003H222.667C223.142 107.003 223.598 107.192 223.934 107.528C224.271 107.865 224.459 108.32 224.459 108.796V226.451C224.46 226.686 224.413 226.919 224.323 227.137C224.233 227.354 224.101 227.552 223.935 227.718C223.768 227.885 223.571 228.017 223.353 228.107C223.136 228.197 222.902 228.243 222.667 228.243Z" fill="#D1CFC3"/>
<path d="M226.765 224.148H210.519C210.291 224.148 210.072 224.239 209.91 224.4C209.749 224.561 209.658 224.78 209.658 225.008V230.096C209.658 230.324 209.749 230.543 209.91 230.704C210.072 230.866 210.291 230.957 210.519 230.957H226.765C226.993 230.957 227.212 230.866 227.373 230.704C227.534 230.543 227.625 230.324 227.625 230.096V225.008C227.625 224.78 227.534 224.561 227.373 224.4C227.212 224.239 226.993 224.148 226.765 224.148Z" fill="#BFBCAF"/>
<path d="M290.742 124.575H211.409C211.257 124.575 211.107 124.548 210.965 124.494L200.354 120.519C200.113 120.428 199.905 120.267 199.759 120.055C199.612 119.843 199.533 119.592 199.533 119.334V115.15C199.533 114.814 199.666 114.492 199.904 114.255C200.141 114.018 200.463 113.884 200.798 113.884H290.742C291.078 113.884 291.4 114.018 291.637 114.255C291.874 114.492 292.007 114.814 292.007 115.15V123.31C292.007 123.476 291.975 123.64 291.911 123.794C291.848 123.947 291.754 124.087 291.637 124.204C291.519 124.322 291.38 124.415 291.226 124.479C291.073 124.542 290.908 124.575 290.742 124.575Z" fill="#D1CFC3"/>
<path d="M278.84 133.82V134.065C278.313 133.919 277.863 133.837 277.321 133.837C274.292 133.837 271.856 136.293 271.856 139.322C271.856 142.352 274.282 144.808 277.311 144.808C277.853 144.808 278.312 144.726 278.839 144.579V144.89H300.188V133.82H278.84Z" fill="#00B89C"/>
<path d="M300.082 144.807C303.111 144.807 305.567 142.352 305.567 139.322C305.567 136.293 303.111 133.837 300.082 133.837C297.052 133.837 294.597 136.293 294.597 139.322C294.597 142.352 297.052 144.807 300.082 144.807Z" fill="#009E83"/>
<path d="M283.757 143.743C283.237 143.743 282.738 143.536 282.37 143.168C282.003 142.801 281.796 142.302 281.796 141.782V120.211C281.796 119.691 282.003 119.192 282.37 118.824C282.738 118.456 283.237 118.25 283.757 118.25C284.277 118.25 284.776 118.456 285.144 118.824C285.512 119.192 285.718 119.691 285.718 120.211V141.782C285.718 142.039 285.668 142.294 285.569 142.532C285.47 142.77 285.326 142.986 285.144 143.168C284.962 143.351 284.746 143.495 284.508 143.594C284.27 143.692 284.015 143.743 283.757 143.743Z" fill="#597B91"/>
<path d="M288.596 148.846C284.846 148.846 281.796 145.795 281.796 142.045C281.796 141.525 282.003 141.026 282.37 140.659C282.738 140.291 283.237 140.084 283.757 140.084C284.277 140.084 284.776 140.291 285.144 140.659C285.512 141.026 285.718 141.525 285.718 142.045C285.718 143.632 287.009 144.923 288.596 144.923C290.183 144.923 291.473 143.632 291.473 142.045C291.473 141.525 291.68 141.026 292.048 140.659C292.416 140.291 292.914 140.084 293.434 140.084C293.955 140.084 294.453 140.291 294.821 140.659C295.189 141.026 295.396 141.525 295.396 142.045C295.396 145.795 292.345 148.846 288.596 148.846Z" fill="#597B91"/>
<path d="M300.082 142.885C302.05 142.885 303.645 141.29 303.645 139.322C303.645 137.354 302.05 135.759 300.082 135.759C298.114 135.759 296.519 137.354 296.519 139.322C296.519 141.29 298.114 142.885 300.082 142.885Z" fill="#2B3B47"/>
<path d="M289.636 133.837H277.601V144.807H289.372L289.636 133.837Z" fill="#00B89C"/>
<path d="M212.781 130.681H224.388V133.773H212.781V130.681Z" fill="#FF473E"/>
<path d="M287.206 114.511C287.018 114.303 286.746 114.287 286.538 114.476L277.522 122.683V114.63C277.522 114.43 277.354 114.248 277.171 114.166C277.081 114.126 276.982 114.113 276.885 114.128C276.788 114.143 276.697 114.187 276.624 114.252L267.243 122.688V115.046C267.243 115.011 267.214 114.977 267.207 114.944C267.235 114.793 267.184 114.633 267.074 114.511C266.885 114.303 266.533 114.287 266.325 114.476L257.228 122.683V114.63C257.228 114.43 257.134 114.248 256.951 114.166C256.767 114.084 256.516 114.118 256.367 114.252L246.949 122.688V115.046C246.949 115.011 246.994 114.977 246.988 114.944C247.015 114.794 247.002 114.633 246.891 114.511C246.702 114.303 246.426 114.287 246.218 114.476L237.197 122.683V114.63C237.197 114.43 237.046 114.248 236.863 114.166C236.772 114.126 236.671 114.113 236.573 114.128C236.474 114.143 236.382 114.187 236.308 114.252L226.918 122.688V115.046C226.918 115.011 226.906 114.977 226.9 114.944C226.914 114.867 226.91 114.788 226.888 114.713C226.866 114.638 226.827 114.569 226.775 114.511C226.586 114.303 226.221 114.287 226.013 114.476L216.903 122.683V114.63C216.903 114.43 216.826 114.248 216.643 114.166C216.46 114.084 216.266 114.118 216.117 114.252L207.373 122.124C207.165 122.312 207.153 122.633 207.34 122.842C207.528 123.051 207.791 123.068 208 122.88L215.849 115.771V123.829C215.849 124.03 216.027 124.212 216.211 124.293C216.277 124.323 216.378 124.337 216.447 124.337C216.571 124.337 216.698 124.292 216.793 124.205L225.864 115.998V123.829C225.864 124.029 225.993 124.212 226.176 124.293C226.242 124.323 226.318 124.337 226.388 124.337C226.511 124.337 226.65 124.292 226.745 124.207L236.143 115.771V123.829C236.143 124.03 236.247 124.212 236.431 124.293C236.615 124.374 236.886 124.34 237.035 124.205L246.158 115.998V123.829C246.158 124.029 246.212 124.212 246.396 124.293C246.579 124.375 246.718 124.341 246.867 124.207L256.173 115.771V123.829C256.173 124.03 256.335 124.212 256.519 124.293C256.585 124.323 256.677 124.337 256.746 124.337C256.87 124.337 257.01 124.292 257.105 124.205L266.189 115.998V123.829C266.189 124.029 266.3 124.212 266.484 124.293C266.55 124.323 266.617 124.337 266.687 124.337C266.81 124.337 266.962 124.292 267.057 124.207L276.468 115.771V123.829C276.468 124.03 276.555 124.212 276.739 124.293C276.922 124.375 277.121 124.34 277.27 124.205L287.178 115.229C287.386 115.041 287.394 114.719 287.206 114.511Z" fill="#F4F3EF"/>
<path d="M281.466 122.284H286.048V126.866H281.466V122.284Z" fill="#2B3B47"/>
<path d="M283.757 124.575C286.167 124.575 288.121 122.621 288.121 120.211C288.121 117.801 286.167 115.847 283.757 115.847C281.347 115.847 279.393 117.801 279.393 120.211C279.393 122.621 281.347 124.575 283.757 124.575Z" fill="#FF473E"/>
<path d="M283.757 122.502C285.022 122.502 286.048 121.476 286.048 120.211C286.048 118.946 285.022 117.92 283.757 117.92C282.492 117.92 281.466 118.946 281.466 120.211C281.466 121.476 282.492 122.502 283.757 122.502Z" fill="white"/>
<path d="M212.781 113.884H224.388V124.575H212.781V113.884Z" fill="#BFBCAF"/>
</g>
<g clip-path="url(#clip3_55_844)">
<path d="M425.169 165.647V231.476C423.337 231.591 421.505 231.705 419.559 231.705C417.727 231.705 415.781 231.591 413.949 231.476V165.647H425.169Z" fill="#324A5E"/>
<path d="M417.956 216.479L362.087 160.61C361.171 159.694 361.171 158.206 362.087 157.29L417.956 101.421C418.872 100.505 420.36 100.505 421.276 101.421L477.145 157.29C478.061 158.206 478.061 159.694 477.145 160.61L421.276 216.479C420.246 217.395 418.872 217.395 417.956 216.479Z" fill="#00B89C"/>
<path d="M419.559 109.303L369.855 159.007L419.559 208.712L469.264 159.007L419.559 109.303Z" fill="#B40031" fill-opacity="0.5"/>
<path d="M403.645 149.39C403.874 149.734 404.218 149.848 404.676 149.848C405.134 149.848 405.477 149.734 405.706 149.39C405.935 149.047 406.05 148.589 406.05 148.131V144.353H407.538V148.246C407.538 149.276 407.309 149.963 406.737 150.535C406.164 151.108 405.477 151.337 404.676 151.337C403.76 151.337 403.073 151.108 402.501 150.535C401.928 149.963 401.699 149.276 401.699 148.246V144.353H403.188V148.131C403.302 148.589 403.416 149.047 403.645 149.39Z" fill="white"/>
<path d="M414.064 144.239H415.552V151.108H414.064L410.743 146.757V151.108H409.255V144.239H410.743L414.064 148.703V144.239Z" fill="white"/>
<path d="M422.535 145.154C423.222 145.727 423.566 146.643 423.566 147.673C423.566 148.703 423.222 149.619 422.65 150.192C421.963 150.764 421.047 151.108 419.673 151.108H417.269V144.239H419.673C420.933 144.239 421.963 144.582 422.535 145.154ZM421.391 149.276C421.734 148.932 421.963 148.36 421.963 147.788C421.963 147.101 421.734 146.643 421.391 146.185C421.047 145.841 420.475 145.612 419.673 145.612H418.872V149.848H419.902C420.475 149.734 421.047 149.619 421.391 149.276Z" fill="white"/>
<path d="M429.863 144.239V145.612H426.428V146.986H429.519V148.246H426.428V149.619H429.977V150.993H424.94V144.124H429.863V144.239Z" fill="white"/>
<path d="M436.961 146.528C436.961 147.673 436.503 148.36 435.701 148.703L437.419 151.108H435.472L433.984 148.932H432.954V151.108H431.465V144.239H434.098C435.129 144.239 435.93 144.468 436.388 144.811C436.732 145.154 436.961 145.727 436.961 146.528ZM435.014 147.33C435.243 147.215 435.243 146.872 435.243 146.528C435.243 146.185 435.129 145.956 434.9 145.727C434.671 145.612 434.327 145.498 433.87 145.498H432.725V147.559H433.87C434.556 147.559 434.9 147.559 435.014 147.33Z" fill="white"/>
<path d="M382.809 160.724C383.61 160.724 384.183 160.381 384.641 159.809L385.671 160.839C384.87 161.755 383.954 162.098 382.924 162.098C381.893 162.098 380.977 161.755 380.29 161.068C379.603 160.381 379.26 159.58 379.26 158.549C379.26 157.519 379.603 156.717 380.29 156.031C380.977 155.344 381.779 155 382.809 155C383.954 155 384.87 155.458 385.671 156.26L384.755 157.29C384.297 156.717 383.725 156.374 382.924 156.374C382.351 156.374 381.893 156.603 381.435 156.946C380.977 157.29 380.863 157.862 380.863 158.435C380.863 159.122 381.092 159.58 381.435 159.923C381.893 160.61 382.351 160.724 382.809 160.724Z" fill="white"/>
<path d="M392.426 161.182C391.739 161.869 390.938 162.213 389.907 162.213C388.877 162.213 388.075 161.869 387.389 161.182C386.702 160.495 386.358 159.694 386.358 158.664C386.358 157.633 386.702 156.832 387.389 156.145C388.075 155.458 388.877 155.115 389.907 155.115C390.938 155.115 391.739 155.458 392.426 156.145C393.113 156.832 393.456 157.633 393.456 158.664C393.456 159.694 393.113 160.495 392.426 161.182ZM391.968 158.664C391.968 158.091 391.739 157.519 391.396 157.061C391.052 156.603 390.48 156.374 389.907 156.374C389.335 156.374 388.877 156.603 388.419 157.061C388.075 157.519 387.846 157.977 387.846 158.664C387.846 159.236 388.075 159.809 388.419 160.267C388.762 160.724 389.335 160.953 389.907 160.953C390.48 160.953 390.938 160.724 391.396 160.267C391.739 159.809 391.968 159.236 391.968 158.664Z" fill="white"/>
<path d="M399.524 155.344H401.012V162.213H399.524L396.318 157.862V162.098H394.83V155.229H396.204L399.524 159.58V155.344Z" fill="white"/>
<path d="M404.332 156.717C404.218 156.832 404.103 156.946 404.103 157.175C404.103 157.404 404.218 157.519 404.332 157.633C404.561 157.748 404.905 157.862 405.592 158.091C406.278 158.206 406.736 158.435 407.08 158.778C407.423 159.122 407.652 159.58 407.652 160.152C407.652 160.724 407.423 161.297 406.965 161.64C406.507 161.984 405.935 162.213 405.134 162.213C404.103 162.213 403.073 161.869 402.271 161.068L403.187 159.923C403.874 160.61 404.561 160.839 405.248 160.839C405.477 160.839 405.706 160.724 405.935 160.61C406.049 160.495 406.164 160.381 406.164 160.152C406.164 159.923 406.049 159.809 405.935 159.694C405.821 159.58 405.477 159.465 404.905 159.351C404.103 159.122 403.531 158.893 403.187 158.664C402.844 158.32 402.615 157.862 402.615 157.29C402.615 156.603 402.844 156.145 403.302 155.802C403.76 155.458 404.332 155.229 405.019 155.229C405.477 155.229 405.935 155.344 406.393 155.458C406.851 155.573 407.194 155.802 407.538 156.145L406.736 157.29C406.164 156.832 405.477 156.603 404.905 156.603C404.676 156.488 404.447 156.488 404.332 156.717Z" fill="white"/>
<path d="M411.774 156.603V162.098H410.286V156.603H408.339V155.344H413.72V156.603H411.774Z" fill="white"/>
<path d="M420.36 157.519C420.36 158.664 419.902 159.351 419.101 159.58L420.818 161.984H418.986L417.498 159.809H416.468V161.984H414.979V155.115H417.613C418.643 155.115 419.444 155.344 419.902 155.687C420.131 156.145 420.36 156.717 420.36 157.519ZM418.529 158.32C418.758 158.206 418.758 157.862 418.758 157.519C418.758 157.175 418.643 156.946 418.414 156.717C418.185 156.603 417.842 156.488 417.384 156.488H416.239V158.549H417.384C417.956 158.664 418.3 158.549 418.529 158.32Z" fill="white"/>
<path d="M423.68 160.381C423.909 160.724 424.253 160.839 424.711 160.839C425.169 160.839 425.512 160.724 425.741 160.381C425.97 160.038 426.085 159.58 426.085 159.122V155.344H427.573V159.122C427.573 160.152 427.344 160.839 426.772 161.411C426.199 161.984 425.512 162.213 424.711 162.213C423.909 162.213 423.108 161.984 422.65 161.411C422.078 160.839 421.849 160.152 421.849 159.122V155.344H423.337V159.122C423.337 159.58 423.451 160.038 423.68 160.381Z" fill="white"/>
<path d="M432.381 160.724C433.183 160.724 433.755 160.381 434.213 159.809L435.243 160.839C434.442 161.755 433.526 162.098 432.496 162.098C431.465 162.098 430.55 161.755 429.863 161.068C429.176 160.381 428.832 159.58 428.832 158.549C428.832 157.519 429.176 156.717 429.863 156.031C430.55 155.344 431.351 155 432.381 155C433.526 155 434.442 155.458 435.243 156.26L434.328 157.29C433.87 156.717 433.297 156.374 432.496 156.374C431.923 156.374 431.465 156.603 431.007 156.946C430.55 157.29 430.435 157.862 430.435 158.435C430.435 159.122 430.664 159.58 431.007 159.923C431.351 160.61 431.809 160.724 432.381 160.724Z" fill="white"/>
<path d="M439.25 156.603V162.098H437.762V156.603H435.816V155.344H441.196V156.603H439.25Z" fill="white"/>
<path d="M442.227 155.344H443.715V162.213H442.227V155.344Z" fill="white"/>
<path d="M451.157 161.182C450.47 161.869 449.669 162.213 448.638 162.213C447.608 162.213 446.806 161.869 446.119 161.182C445.433 160.495 445.089 159.694 445.089 158.664C445.089 157.633 445.433 156.832 446.119 156.145C446.806 155.458 447.608 155.115 448.638 155.115C449.669 155.115 450.47 155.458 451.157 156.145C451.844 156.832 452.187 157.633 452.187 158.664C452.187 159.694 451.844 160.495 451.157 161.182ZM450.699 158.664C450.699 158.091 450.47 157.519 450.126 157.061C449.783 156.603 449.211 156.374 448.638 156.374C448.066 156.374 447.608 156.603 447.15 157.061C446.806 157.519 446.577 157.977 446.577 158.664C446.577 159.236 446.806 159.809 447.15 160.267C447.493 160.724 448.066 160.953 448.638 160.953C449.211 160.953 449.669 160.724 450.126 160.267C450.47 159.809 450.699 159.236 450.699 158.664Z" fill="white"/>
<path d="M458.255 155.344H459.743V162.213H458.255L455.049 157.862V162.098H453.561V155.229H454.935L458.255 159.58V155.344Z" fill="white"/>
</g>
<defs>
<clipPath id="clip0_55_844">
<rect width="188.16" height="189.11" fill="white" transform="translate(29.4595 180.389)"/>
</clipPath>
<clipPath id="clip1_55_844">
<rect width="176.756" height="191.011" fill="white" transform="translate(479 131)"/>
</clipPath>
<clipPath id="clip2_55_844">
<rect width="134.943" height="134.943" fill="white" transform="translate(197.663 97.7126)"/>
</clipPath>
<clipPath id="clip3_55_844">
<rect width="145.396" height="145.396" fill="white" transform="translate(346.861 86.309)"/>
</clipPath>
</defs>
</svg>
