<svg width="409" height="149" viewBox="0 0 409 149" fill="none" xmlns="http://www.w3.org/2000/svg">
<path d="M140.32 77.2704H176.888C190.56 77.2704 201.644 66.1864 201.644 52.5136V18.1607C201.644 9.78767 208.432 3 216.805 3V3C225.178 3 231.966 9.78768 231.966 18.1607V95.327C231.966 103.982 238.982 110.999 247.638 110.999V110.999C256.293 110.999 263.309 103.982 263.309 95.327V19.8641C263.309 10.5503 270.86 3 280.173 3V3C289.487 3 297.038 10.5503 297.038 19.8642V96.8601C297.038 104.669 303.368 110.999 311.176 110.999V110.999C318.985 110.999 325.315 104.669 325.315 96.8601V88.5132C325.315 82.304 330.348 77.2704 336.558 77.2704H408.103" stroke="#504F60" stroke-width="5"/>
<path d="M58.2139 7.42897V15.2648C85.4691 12.6529 139.979 21.261 139.979 76.589C139.979 131.917 85.4691 140.525 58.2139 137.913V146.09H49.6966V7.42897H58.2139Z" fill="#504F60" stroke="#504F60" stroke-width="4"/>
<path d="M49.6966 49.6745H5.4069C3.52532 49.6745 2 51.1999 2 53.0814V53.0814C2 54.963 3.52532 56.4883 5.4069 56.4883H49.6966" stroke="#504F60" stroke-width="4"/>
<path d="M49.6966 101.8H5.4069C3.52532 101.8 2 103.325 2 105.207V105.207C2 107.089 3.52532 108.614 5.4069 108.614H49.6966" stroke="#504F60" stroke-width="4"/>
<path d="M49.6966 56.4883V48.9931" stroke="#504F60" stroke-width="4"/>
</svg>
