<svg width="362" height="149" viewBox="0 0 362 149" fill="none" xmlns="http://www.w3.org/2000/svg">
<path d="M350.945 7.44234V15.3019C323.607 12.682 268.932 21.3161 268.932 76.8111C268.932 132.306 323.607 140.94 350.945 138.32V146.522H359.488V7.44234H350.945Z" fill="#504F60" stroke="#504F60" stroke-width="4"/>
<path d="M268.591 77.4946H231.913C218.199 77.4946 207.081 66.3771 207.081 52.663V18.2064C207.081 9.80815 200.273 3 191.875 3V3C183.477 3 176.668 9.80816 176.668 18.2065V95.6057C176.668 104.287 169.631 111.325 160.949 111.325V111.325C152.268 111.325 145.23 104.287 145.23 95.6057V19.915C145.23 10.5731 137.657 3 128.315 3V3C118.973 3 111.4 10.5731 111.4 19.915V97.1434C111.4 104.976 105.051 111.325 97.2188 111.325V111.325C89.3867 111.325 83.0375 104.976 83.0375 97.1434V88.7713C83.0375 82.5433 77.9888 77.4946 71.7608 77.4946H0" stroke="#504F60" stroke-width="5"/>
</svg>
