<svg width="98" height="98" viewBox="0 0 98 98" fill="none" xmlns="http://www.w3.org/2000/svg">
<g clip-path="url(#clip0_55_841)">
<path d="M94.3726 39.5444H85.755C84.8595 36.0861 83.484 32.8249 81.707 29.834L88.1365 23.4046C89.3646 22.1757 89.3701 20.1684 88.1365 18.9346L79.1601 9.95771C77.9256 8.72317 75.9241 8.72317 74.6898 9.95771L68.2607 16.3871C65.27 14.6104 62.0087 13.2352 58.5504 12.3391V3.72214C58.5504 1.97681 57.1276 0.561279 55.3895 0.561279H42.7463C41.0083 0.561279 39.5854 1.97681 39.5854 3.72214V12.3393C36.1275 13.2348 32.866 14.6096 29.8751 16.3868L23.4461 9.95771C22.2115 8.72317 20.21 8.72317 18.9757 9.95771L9.99935 18.9346C8.7648 20.169 8.76499 22.1699 9.99935 23.4046L16.4288 29.834C14.652 32.8251 13.2764 36.0861 12.3808 39.5444H3.7634C2.02527 39.5444 0.602539 40.9599 0.602539 42.7052V55.3485C0.602539 57.0928 2.01902 58.5087 3.7634 58.5087H12.381C13.2764 61.967 14.652 65.2282 16.429 68.2191L9.99954 74.6485C8.76499 75.8828 8.76518 77.8838 9.99954 79.1185L18.9761 88.0954C20.2117 89.3311 22.2104 89.3307 23.4464 88.0954L29.8755 81.6663C32.8661 83.4435 36.1279 84.8179 39.5858 85.7138V94.3313C39.5858 96.0757 41.0023 97.4922 42.7467 97.4922H55.3899C57.1235 97.4922 58.5508 96.0793 58.5508 94.3313V85.7138C62.0087 84.8183 65.2702 83.4435 68.2611 81.6663L74.6901 88.0954C75.9258 89.3311 77.9244 89.3307 79.1605 88.0954L88.137 79.1185C89.3651 77.8896 89.3706 75.8823 88.137 74.6485L81.7076 68.2191C83.4843 65.228 84.8599 61.967 85.7556 58.5087H94.3732C96.1175 58.5087 97.534 57.0926 97.534 55.3485V42.7052C97.5335 40.9707 96.1213 39.5444 94.3726 39.5444ZM49.068 64.8303C40.3442 64.8248 33.2696 57.7505 33.2641 49.0267C33.2696 40.3026 40.3442 33.2283 49.068 33.2228C57.7918 33.2283 64.8664 40.3026 64.8719 49.0267C64.8664 57.7505 57.7918 64.825 49.068 64.8303Z" fill="#B8C8D9"/>
<path d="M64.872 49.0267C64.8665 57.7505 57.7919 64.825 49.0681 64.8303V97.4922H55.3896C57.1232 97.4922 58.5505 96.0793 58.5505 94.3313V85.7138C62.0084 84.8183 65.27 83.4435 68.2608 81.6663L74.6899 88.0954C75.9254 89.3309 77.9244 89.3305 79.1602 88.0954L88.1368 79.1185C89.3649 77.8896 89.3704 75.8821 88.1368 74.6485L81.7073 68.2191C83.4841 65.228 84.8597 61.967 85.7553 58.5087H94.3729C96.1173 58.5087 97.5338 57.0923 97.5338 55.3485V42.7052C97.5338 40.9709 96.1214 39.5444 94.3729 39.5444H85.7553C84.8599 36.0861 83.4843 32.8249 81.7073 29.834L88.1368 23.4046C89.3649 22.1757 89.3704 20.1682 88.1368 18.9346L79.1602 9.95771C77.9257 8.72317 75.9242 8.72317 74.6899 9.95771L68.2608 16.3871C65.2702 14.6104 62.0088 13.2352 58.5505 12.3391V3.72214C58.5505 1.97681 57.1276 0.561279 55.3896 0.561279H49.0681V33.2228C57.7919 33.2283 64.8665 40.3026 64.872 49.0267Z" fill="#A3B8CC"/>
</g>
<defs>
<clipPath id="clip0_55_841">
<rect width="96.9309" height="96.9309" fill="white" transform="translate(0.602539 0.561279)"/>
</clipPath>
</defs>
</svg>
