<svg width="438" height="368" viewBox="0 0 438 368" fill="none" xmlns="http://www.w3.org/2000/svg">
<path d="M412.773 272.346C412.773 272.346 405.761 248.548 414.093 231.022C417.632 223.696 418.699 215.419 417.134 207.435C416.362 203.651 415.245 199.946 413.796 196.366" stroke="#535461" stroke-width="2"/>
<path d="M418.972 185.289C418.972 188.208 413.683 196.665 413.683 196.665C413.683 196.665 408.395 188.204 408.395 185.289C408.395 182.368 410.763 180 413.684 180C416.605 180 418.972 182.368 418.972 185.289H418.972Z" fill="#6C63FF"/>
<path d="M427.722 201.45C426.136 203.899 417.103 208.13 417.103 208.13C417.103 208.13 417.267 198.155 418.853 195.71C420.495 193.404 423.661 192.799 426.037 194.337C428.413 195.876 429.156 199.013 427.722 201.454V201.45Z" fill="#6C63FF"/>
<path d="M427.322 229.062C424.714 230.374 414.783 229.469 414.783 229.469C414.783 229.469 419.96 220.944 422.562 219.632C424.258 218.686 426.336 218.746 427.975 219.787C429.614 220.829 430.55 222.685 430.414 224.622C430.278 226.559 429.09 228.266 427.322 229.067V229.062Z" fill="#6C63FF"/>
<path d="M422.33 249.894C419.982 251.629 410.039 252.411 410.039 252.411C410.039 252.411 413.699 243.135 416.047 241.4C418.394 239.832 421.558 240.384 423.236 242.652C424.914 244.921 424.515 248.108 422.33 249.893V249.894Z" fill="#6C63FF"/>
<path d="M405.993 208.691C408.108 210.721 417.834 212.832 417.834 212.832C417.834 212.832 415.449 203.149 413.355 201.118C411.239 199.243 408.023 199.363 406.054 201.391C404.084 203.419 404.057 206.637 405.993 208.697V208.691Z" fill="#6C63FF"/>
<path d="M400.461 233.129C403.068 234.441 413 233.537 413 233.537C413 233.537 407.823 225.012 405.221 223.7C402.639 222.529 399.593 223.603 398.316 226.135C397.039 228.666 397.985 231.753 400.461 233.135V233.129Z" fill="#6C63FF"/>
<path d="M398.346 257.616C400.694 259.351 410.636 260.134 410.636 260.134C410.636 260.134 406.977 250.858 404.629 249.123C403.118 247.892 401.053 247.592 399.255 248.341C397.456 249.091 396.215 250.768 396.025 252.707C395.835 254.647 396.727 256.533 398.346 257.617V257.616Z" fill="#6C63FF"/>
<path d="M214.18 312.346C214.18 312.346 209.088 296.021 215.138 283.999C217.709 278.974 218.483 273.296 217.347 267.819C216.786 265.224 215.975 262.682 214.923 260.226" stroke="#535461" stroke-width="2"/>
<path d="M218.682 252.628C218.682 254.63 214.841 260.432 214.841 260.432C214.841 260.432 211.001 254.628 211.001 252.628C211.001 250.624 212.72 249 214.842 249C216.963 249 218.682 250.624 218.682 252.628H218.682Z" fill="#6C63FF"/>
<path d="M225.036 263.714C223.884 265.394 217.325 268.296 217.325 268.296C217.325 268.296 217.444 261.454 218.596 259.777C219.788 258.195 222.087 257.779 223.812 258.835C225.538 259.891 226.077 262.043 225.036 263.717V263.714Z" fill="#6C63FF"/>
<path d="M224.745 282.655C222.852 283.555 215.64 282.934 215.64 282.934C215.64 282.934 219.399 277.086 221.289 276.187C222.52 275.537 224.029 275.578 225.22 276.293C226.41 277.007 227.09 278.28 226.991 279.609C226.892 280.938 226.03 282.109 224.745 282.659V282.655Z" fill="#6C63FF"/>
<path d="M221.12 296.945C219.415 298.135 212.195 298.672 212.195 298.672C212.195 298.672 214.853 292.308 216.558 291.118C218.262 290.043 220.559 290.421 221.778 291.977C222.997 293.534 222.707 295.72 221.12 296.944V296.945Z" fill="#6C63FF"/>
<path d="M209.257 268.681C210.793 270.074 217.856 271.522 217.856 271.522C217.856 271.522 216.124 264.879 214.603 263.486C213.067 262.2 210.731 262.282 209.301 263.673C207.871 265.064 207.851 267.272 209.257 268.685V268.681Z" fill="#6C63FF"/>
<path d="M205.239 285.445C207.133 286.345 214.345 285.724 214.345 285.724C214.345 285.724 210.585 279.876 208.696 278.976C206.821 278.174 204.609 278.91 203.682 280.647C202.755 282.383 203.442 284.501 205.239 285.448V285.445Z" fill="#6C63FF"/>
<path d="M203.704 302.242C205.409 303.432 212.629 303.969 212.629 303.969C212.629 303.969 209.971 297.606 208.266 296.416C207.169 295.572 205.669 295.366 204.363 295.88C203.057 296.394 202.156 297.545 202.018 298.875C201.88 300.205 202.528 301.499 203.704 302.243V302.242Z" fill="#6C63FF"/>
<path d="M329.314 367.039C342.742 367.039 353.628 365.198 353.628 362.927C353.628 360.656 342.742 358.815 329.314 358.815C315.886 358.815 305 360.656 305 362.927C305 365.198 315.886 367.039 329.314 367.039Z" fill="#4D8AF0"/>
<path d="M339.364 356.203C340.474 355.297 341.284 354.077 341.686 352.703C342.052 351.282 341.377 349.798 340.065 349.141C338.578 348.573 336.987 349.601 335.784 350.647C334.581 351.693 333.196 352.872 331.618 352.655C333.269 351.159 334.013 348.907 333.577 346.723C333.509 346.278 333.321 345.86 333.033 345.514C332.205 344.631 330.711 345.014 329.719 345.707C326.575 347.92 325.698 352.189 325.68 356.035C325.508 354.63 325.489 353.21 325.625 351.802C325.619 350.402 325.225 348.779 324.025 348.035C323.285 347.629 322.451 347.422 321.606 347.435C320.191 347.387 318.619 347.526 317.651 348.56C316.442 349.848 316.762 352.001 317.808 353.397C318.979 354.709 320.361 355.816 321.896 356.674C323.069 357.371 324.07 358.324 324.823 359.462C324.911 359.621 324.984 359.789 325.041 359.962H333.9C335.881 358.963 337.718 357.702 339.36 356.213L339.364 356.203Z" fill="#4D8AF0"/>
<path opacity="0.1" d="M97.7171 236.567C92.5771 236.047 87.2081 235.491 82.3401 236.851C77.4721 238.211 73.4401 242.184 74.8841 245.982C78.1131 254.448 97.0641 248.552 105.802 254.339C108.922 256.407 110.138 259.66 112.574 262.2C116.517 266.324 123.295 268.247 129.838 269.305C169.138 275.66 213.95 259.305 248.399 275.056C259.555 280.156 268.354 288.28 280.586 291.685C296.792 296.196 314.539 291.377 331.307 288.285C352.219 284.463 373.535 283.345 394.732 284.959C410.412 286.168 431.267 286.573 436.286 275.187C439.515 267.864 432.686 259.713 423.612 256.248C414.538 252.783 403.923 252.892 393.795 253.225C374.245 253.925 354.695 255.341 335.14 254.652C297.34 253.31 261.622 238.325 224.809 237.83C181.938 237.31 140.789 240.908 97.7171 236.567Z" fill="#4D8AF0"/>
<path opacity="0.1" d="M16.284 249.015C25.2774 249.015 32.568 247.784 32.568 246.264C32.568 244.745 25.2774 243.513 16.284 243.513C7.2906 243.513 0 244.745 0 246.264C0 247.784 7.2906 249.015 16.284 249.015Z" fill="#4D8AF0"/>
<path opacity="0.1" d="M62.4583 274.563C71.4517 274.563 78.7423 273.332 78.7423 271.812C78.7423 270.293 71.4517 269.061 62.4583 269.061C53.4649 269.061 46.1743 270.293 46.1743 271.812C46.1743 273.332 53.4649 274.563 62.4583 274.563Z" fill="#4D8AF0"/>
<path opacity="0.1" d="M164.014 313.276C194.324 313.276 218.895 309.123 218.895 304C218.895 298.877 194.324 294.724 164.014 294.724C133.704 294.724 109.133 298.877 109.133 304C109.133 309.123 133.704 313.276 164.014 313.276Z" fill="#4D8AF0"/>
<g clip-path="url(#clip0_102_145)">
<path d="M362.948 344.754C361.572 344.158 360.74 343.061 360.74 341.843C360.74 340.325 362.878 337.432 364.449 336.827C365.129 336.565 365.685 335.958 365.685 335.479C365.685 334.999 365.438 334.76 365.135 334.947C364.171 335.545 364.547 334.328 365.63 333.346C367.794 331.385 368.061 324.274 366.053 322.1C364.313 320.216 357.798 316.737 352.986 315.123C350.606 314.325 347.883 312.94 346.668 311.91C345.493 310.914 342.925 309.033 340.961 307.728C337.616 305.508 336.4 304.475 330.791 299.09C327.873 296.288 323.958 291.55 322.386 288.917C321.689 287.749 320.8 286.794 320.41 286.794C318.222 286.794 312.94 282.338 312.94 280.493C312.94 280.074 311.951 278.67 310.742 277.372C309.533 276.073 308.544 274.607 308.544 274.112C308.544 273.618 307.915 272.369 307.145 271.336C301.786 264.145 298.505 259.489 297.203 257.225C296.373 255.781 295.142 253.858 294.469 252.95C291.462 248.894 288.25 236.605 288.225 229.059C288.217 226.729 287.868 225.53 286.62 223.556C285.502 221.785 284.907 219.965 284.629 217.464L284.232 213.897L282.79 215.575C279.575 219.316 272.184 225.709 271.074 225.709C269.303 225.709 266.48 223.258 265.227 220.633C263.285 216.567 261.85 200.458 262.026 184.71C262.169 171.894 262.214 171.412 263.565 168.475C264.359 166.748 266.183 164.267 267.814 162.697C270.484 160.127 270.933 159.909 274.632 159.387C278.139 158.893 278.674 158.659 279.306 157.339C279.904 156.088 279.888 155.647 279.203 154.595C278.754 153.906 278.123 152.159 277.801 150.714C277.083 147.491 276.409 134.948 276.858 133.158C277.379 131.081 280.514 128.264 284.276 126.492C287.265 125.085 288.199 124.896 290.923 125.143C296.135 125.616 300.453 128.984 301.363 133.287C301.648 134.631 302.183 136.722 302.554 137.933C303.581 141.291 303.319 145.277 301.948 147.135C299.812 150.029 300.465 150.541 306.487 150.691C309.43 150.765 312.318 151.082 312.904 151.396C313.489 151.71 315.901 152.227 318.262 152.544C325.916 153.574 330.972 157.185 334.673 164.266C335.885 166.584 336.93 167.697 339.174 169.059C340.781 170.035 342.586 171.523 343.185 172.365C345.254 175.275 349.281 177.718 353.444 178.587C357.736 179.484 359.529 180.287 364.037 183.335C367.274 185.524 372.894 188.514 374.842 189.084C375.496 189.276 376.191 189.175 376.385 188.86C376.579 188.545 377.461 188.287 378.344 188.287C379.547 188.287 380.029 188.597 380.269 189.525C380.495 190.398 381.915 191.427 385.087 193.014C388.98 194.963 389.61 195.477 389.77 196.84C389.871 197.706 390.427 199.017 391.006 199.753C392.276 201.371 392.411 205.219 391.251 206.755C390.807 207.343 390.436 208.742 390.427 209.866C390.417 211.048 390.005 212.322 389.448 212.892C388.919 213.434 388.004 214.825 387.415 215.984C386.064 218.64 383.824 220.548 379.97 222.325C375.866 224.216 369.411 224.31 365.504 222.535C361.154 220.559 358.745 218.277 356.776 214.267C355.219 211.096 354.971 210.02 354.971 206.434C354.971 202.899 355.224 201.767 356.663 198.86C357.594 196.979 358.088 195.422 357.762 195.4C357.436 195.377 355.809 195.296 354.147 195.219C352.485 195.143 350.383 194.695 349.477 194.225C348.57 193.755 346.784 193.196 345.507 192.984C344.218 192.769 342.703 192.067 342.101 191.405C337.719 186.588 335.875 184.957 330.755 181.367C326.131 178.124 325.032 177.551 325.315 178.53C325.51 179.205 326.141 180.426 326.718 181.243C327.534 182.399 327.65 183.039 327.241 184.118C326.483 186.115 327.778 189.358 330.958 193.429C334.177 197.548 337.664 205.076 337.664 207.904C337.664 209.096 338.08 210.429 338.658 211.09C340.994 213.759 344.681 223.471 344.522 226.534C344.459 227.744 343.676 234.927 343.322 237.541C342.643 242.556 343.977 261.88 345.316 266.437C345.861 268.291 349.358 272.486 350.359 272.486C351.185 272.486 355.345 275.959 359.641 280.237C364.034 284.611 366.716 286.244 369.504 286.244C370.455 286.244 372.025 286.649 372.992 287.144C375.536 288.445 383.126 294.301 386.054 297.221C387.435 298.599 389.699 300.652 391.083 301.783C396.087 305.871 397.485 312.636 394.286 317.292C391.03 322.033 388.759 322.398 384.463 318.872L382.084 316.919L384.276 321.286C385.482 323.688 386.86 325.979 387.34 326.378C389.638 328.288 386.623 333.084 380.903 336.619C378.723 337.966 378.15 338.669 377.61 340.663C377.249 341.991 376.421 343.428 375.768 343.856C374.507 344.684 364.416 345.391 362.948 344.754ZM380.313 314.723C379.824 314.042 378.928 312.564 378.321 311.44C377.259 309.468 375.477 307.988 374.882 308.583C374.724 308.742 373.535 307.612 372.24 306.073C370.944 304.535 369.265 303.12 368.508 302.93C365.317 302.127 361.289 298.857 361.289 297.067C361.289 294.737 356.048 291.242 350.926 290.156C349.306 289.812 346.388 288.639 344.442 287.549C342.496 286.459 340.755 285.716 340.573 285.898C340.18 286.292 344.089 290.096 344.887 290.096C346.282 290.096 353.23 295.303 357.603 299.627C366.367 308.291 375.195 314.868 378.355 315.087C379.226 315.147 380.111 315.369 380.321 315.579C381.157 316.416 381.152 315.89 380.313 314.723Z" fill="#E9F3F8"/>
<path d="M366.234 344.705C362.416 344.518 360.74 343.689 360.74 341.986C360.74 340.346 362.818 337.455 364.449 336.827C365.129 336.565 365.685 335.958 365.685 335.479C365.685 334.923 365.436 334.76 364.998 335.029C364.621 335.261 364.747 334.842 365.279 334.098C367.054 331.616 367.516 330.02 367.415 326.713C367.333 324.036 367.059 323.164 365.931 321.984C363.977 319.942 357.186 316.199 353.55 315.161C351.862 314.679 349.476 313.609 348.248 312.784C341.452 308.219 337.454 305.255 335.275 303.168C333.932 301.881 332.004 300.057 330.99 299.115C328.506 296.806 324.546 292.069 322.8 289.319C321.81 287.759 320.712 286.838 319.217 286.316C316.496 285.365 314.785 283.816 313.363 281.016C312.748 279.805 311.412 277.885 310.395 276.749C309.377 275.613 308.544 274.299 308.544 273.828C308.544 273.357 307.84 272.058 306.979 270.94C303.86 266.891 297.778 258.146 295.524 254.469C291.233 247.468 288.254 236.942 288.225 228.681C288.218 226.485 287.859 225.347 286.577 223.453C285.676 222.121 284.932 220.412 284.923 219.655C284.914 218.898 284.752 217.344 284.564 216.201L284.221 214.123L278.29 219.916C274.692 223.43 271.919 225.709 271.241 225.709C269.633 225.709 266.218 222.502 265.087 219.93C263.294 215.852 261.862 199.08 262.057 184.435C262.259 169.349 262.512 168.374 267.633 162.997C270.611 159.87 270.772 159.784 274.367 159.4C276.393 159.184 278.459 158.789 278.958 158.523C280.068 157.931 279.92 156.137 278.42 151.966C276.879 147.682 276.194 134.683 277.388 132.383C279.279 128.741 285.574 125 289.812 125C294.547 125 300.385 128.914 301.162 132.609C301.332 133.418 301.927 135.861 302.484 138.038C303.587 142.342 303.333 145.179 301.681 147.008C301.177 147.566 300.846 148.6 300.945 149.306C301.118 150.528 301.393 150.605 306.621 150.911C309.643 151.088 312.981 151.5 314.039 151.827C315.096 152.154 317.413 152.588 319.187 152.792C323.145 153.246 326.445 154.616 329.003 156.865C331.032 158.649 335.466 165.045 335.466 166.187C335.466 166.551 337.006 167.845 338.887 169.063C340.768 170.28 342.99 172.107 343.826 173.122C345.908 175.652 350.166 178.381 352.031 178.381C354.512 178.381 360.265 180.814 364.256 183.551C368.627 186.548 373.538 188.966 375.207 188.942C375.863 188.933 377.074 188.754 377.9 188.544C379.162 188.223 379.482 188.377 379.912 189.508C380.272 190.457 381.816 191.533 385.141 193.153C389.31 195.184 389.86 195.623 389.86 196.917C389.86 197.722 390.252 198.815 390.731 199.345C392.058 200.814 392.343 204.386 391.299 206.481C390.81 207.464 390.409 209.099 390.409 210.114C390.409 211.28 390.004 212.309 389.311 212.904C388.706 213.422 388.212 214.173 388.212 214.573C388.212 215.724 383.23 220.752 380.922 221.931C377.595 223.632 373.37 224.205 369.434 223.49C365.093 222.701 362.7 221.452 359.805 218.462C356.455 215.003 355.063 211.49 355.045 206.447C355.032 202.865 355.263 201.866 356.794 198.881C357.764 196.989 358.369 195.416 358.138 195.386C357.907 195.355 356.227 195.266 354.405 195.187C352.583 195.109 350.358 194.671 349.46 194.215C348.563 193.76 346.859 193.211 345.673 192.995C343.954 192.683 342.73 191.788 339.629 188.576C337.491 186.361 334.628 183.849 333.269 182.995C331.909 182.14 329.361 180.356 327.606 179.03L324.416 176.619L325.292 178.718C325.774 179.873 326.549 181.239 327.015 181.755C327.702 182.516 327.738 182.923 327.206 183.92C326.22 185.766 327.333 188.745 330.608 193.025C334.058 197.534 337.252 204.278 337.445 207.464C337.525 208.779 337.95 210.265 338.39 210.766C339.741 212.301 343.15 219.534 343.892 222.438C344.381 224.353 344.459 226.389 344.147 229.162C343.146 238.065 343.056 239.402 343.116 244.42C343.195 251.051 344.101 261.481 344.908 265.057C345.585 268.056 348.144 271.704 349.972 272.275C351.004 272.597 351.78 273.167 355.58 276.397C356.151 276.883 357.743 278.498 359.117 279.985C362.812 283.986 366.479 286.244 369.28 286.244C372.167 286.244 377.608 289.683 384.168 295.655C386.628 297.895 389.631 300.524 390.841 301.498C393.73 303.824 395.904 308.2 395.904 311.694C395.904 314.904 395.065 316.64 392.145 319.471C389.49 322.046 388.517 321.948 384.405 318.692L381.59 316.464L383.882 320.753C385.142 323.112 386.631 325.553 387.192 326.178C389.456 328.701 387.497 331.973 381.105 336.343C378.318 338.248 377.812 338.861 377.5 340.711C377.301 341.895 376.755 343.181 376.288 343.569C375.305 344.386 370.594 344.919 366.234 344.705ZM380.296 314.723C379.798 314.042 379.046 312.737 378.627 311.823C377.697 309.799 375.837 308.029 375.112 308.479C374.819 308.66 373.545 307.571 372.281 306.059C371.017 304.547 369.325 303.119 368.521 302.885C365.727 302.072 361.81 299.231 361.511 297.801C361.044 295.564 360.525 294.923 357.472 292.818C355.593 291.523 353.451 290.609 351.399 290.227C349.587 289.889 346.521 288.667 344.244 287.374C342.052 286.13 340.183 285.189 340.089 285.282C339.604 285.769 343.015 289.18 344.996 290.189C349.121 292.29 353.547 295.587 357.311 299.362C365.747 307.826 376.189 315.774 377.971 315.089C378.43 314.913 379.252 315.029 379.8 315.348C381.241 316.188 381.307 316.104 380.296 314.723Z" fill="#D6E8F0"/>
<path d="M361.649 343.572C361.149 343.018 360.74 342.199 360.74 341.752C360.74 340.566 363.342 337.227 364.64 336.746C365.296 336.503 365.688 335.934 365.592 335.365C365.502 334.833 365.909 333.406 366.497 332.196C368.121 328.849 367.796 323.935 365.813 321.861C363.818 319.775 357.39 316.278 353.467 315.146C351.733 314.646 349.208 313.448 347.856 312.485C346.504 311.521 343.596 309.465 341.394 307.914C336.354 304.366 326.297 294.468 323.603 290.404C322.075 288.099 320.923 287.038 319.042 286.205C315.951 284.836 314.34 283.368 313.436 281.099C313.055 280.145 311.799 278.318 310.644 277.038C309.489 275.759 308.544 274.339 308.544 273.884C308.544 273.066 307.574 271.605 302.225 264.37C297.327 257.744 293.248 250.785 291.48 246.037C289.757 241.409 288.246 233.22 288.226 228.4C288.218 226.584 287.807 225.26 286.779 223.743C285.846 222.365 285.148 220.305 284.785 217.855L284.227 214.086L278.941 219.267C271.373 226.686 270.685 226.901 267.134 222.965C264.691 220.256 264.315 218.804 262.997 206.998C262.176 199.651 261.954 194.364 262.057 184.703C262.189 172.338 262.226 171.964 263.636 168.88C264.43 167.142 266.339 164.387 267.878 162.757C270.581 159.895 270.801 159.781 274.363 159.4C280.395 158.756 280.904 158.063 278.816 153.337C277.959 151.397 277.509 148.693 277.082 142.919C276.764 138.63 276.667 134.473 276.865 133.68C277.42 131.465 279.709 129.086 283.159 127.137C285.755 125.671 286.907 125.359 289.876 125.321C293.063 125.28 293.786 125.485 296.402 127.166C299.576 129.206 301.391 131.614 301.408 133.805C301.413 134.562 301.774 136.172 302.21 137.382C303.398 140.686 303.279 144.921 301.951 146.613C301.347 147.382 300.852 148.654 300.852 149.439V150.865H306.108C308.999 150.865 311.826 151.113 312.391 151.416C312.957 151.719 315.351 152.225 317.712 152.54C325.761 153.614 330.508 156.904 334.307 164.042C335.609 166.49 336.713 167.7 338.903 169.084C340.488 170.086 342.587 171.82 343.567 172.938C345.918 175.62 350.135 178.378 351.906 178.393C354.311 178.412 360.571 180.914 363.376 182.977C366.453 185.239 374.206 189.388 375.358 189.388C375.788 189.388 376.597 189.101 377.158 188.75C378.445 187.945 379.966 188.501 379.983 189.783C379.992 190.441 381.12 191.289 383.417 192.364C388.149 194.577 389.86 195.868 389.86 197.224C389.86 197.86 390.252 198.815 390.731 199.345C392.05 200.805 392.333 204.317 391.294 206.331C390.807 207.273 390.409 208.887 390.409 209.917C390.409 211.152 389.942 212.296 389.036 213.275C388.28 214.091 387.662 214.993 387.662 215.279C387.662 216.553 383.251 220.515 380.245 221.942C377.477 223.256 376.243 223.507 372.553 223.507C368.858 223.507 367.628 223.256 364.839 221.934C356.15 217.817 352.574 207.674 356.8 199.134C358.661 195.373 358.414 194.651 355.442 195.168C354.357 195.357 352.137 194.952 349.466 194.079C347.128 193.315 344.852 192.689 344.407 192.689C343.962 192.689 341.831 190.858 339.67 188.619C337.509 186.381 334.628 183.844 333.269 182.982C331.909 182.12 329.448 180.37 327.799 179.093C326.151 177.816 324.7 176.875 324.574 177.001C324.448 177.127 325.091 178.556 326.004 180.175C327.275 182.431 327.534 183.35 327.112 184.105C326.211 185.718 327.63 189.501 330.358 192.756C333.518 196.528 337.264 204.297 337.45 207.464C337.527 208.779 337.937 210.265 338.362 210.766C339.327 211.902 342.768 219.196 343.708 222.096C344.377 224.16 344.207 230.36 343.3 236.99C342.482 242.966 344.144 265.615 345.558 267.772C346.956 269.905 349.641 272.486 350.462 272.486C350.913 272.486 353.719 274.845 356.698 277.728C363.733 284.538 365.578 285.789 369.345 286.301C373.462 286.86 376.926 289.132 385.206 296.7C387.359 298.667 390 300.946 391.076 301.764C393.792 303.829 395.904 308.262 395.904 311.899C395.904 314.299 395.608 315.161 394.118 317.106C393.136 318.387 391.682 319.918 390.888 320.508C389.495 321.542 389.372 321.546 387.419 320.617C385.12 319.524 378.871 313.504 378.871 312.382C378.871 311.224 376.132 308.257 375.062 308.257C374.532 308.257 373.056 307.019 371.782 305.505C370.248 303.683 369.042 302.754 368.21 302.754C367.519 302.754 366.507 302.258 365.96 301.653C365.413 301.048 364.671 300.552 364.311 300.552C363.324 300.552 361.963 298.799 361.752 297.255C361.446 295.019 355.603 290.968 351.525 290.165C349.687 289.803 346.4 288.525 344.221 287.325C342.042 286.125 340.156 285.143 340.029 285.143C339.903 285.143 340.229 285.871 340.753 286.761C341.278 287.65 342.961 289.054 344.493 289.88C349.616 292.641 353.373 295.476 358.063 300.122C366.932 308.906 375.732 315.411 378.745 315.411C380.7 315.411 381.697 316.458 383.77 320.686C384.648 322.476 386.006 324.794 386.789 325.836C387.571 326.879 388.212 328.178 388.212 328.724C388.212 330.128 384.686 333.863 380.984 336.381C378.256 338.237 377.777 338.831 377.377 340.853C376.745 344.056 375.525 344.56 368.38 344.57C363.432 344.577 362.422 344.427 361.649 343.572Z" fill="#98D2EE"/>
<path d="M361.65 343.572C361.149 343.018 360.74 342.191 360.74 341.734C360.74 340.488 363.632 336.916 364.66 336.894C365.631 336.872 366.511 334.672 365.549 334.672C365.224 334.672 365.325 334.245 365.776 333.709C367.056 332.188 367.781 328.929 367.48 326.043C367.263 323.961 366.78 322.947 365.234 321.327C364.151 320.192 363.019 319.263 362.719 319.263C362.419 319.263 361.294 318.663 360.22 317.929C359.147 317.196 356.461 316.053 354.253 315.39C352.045 314.726 349.078 313.347 347.66 312.324C346.242 311.301 343.351 309.257 341.236 307.782C336.397 304.407 326.065 294.184 323.612 290.344C322.155 288.062 321.122 287.146 318.809 286.086C316.087 284.837 313.489 282.247 313.489 280.781C313.489 280.443 312.533 279.119 311.363 277.839C310.194 276.56 309.047 274.899 308.814 274.15C308.582 273.4 307.666 271.79 306.779 270.572C296.852 256.936 293.572 251.675 291.517 246.088C289.815 241.461 288.245 232.743 288.226 227.815C288.218 225.887 287.873 224.835 286.848 223.615C285.864 222.444 285.312 220.848 284.877 217.916L284.272 213.843L279.513 218.715C274.161 224.194 271.714 225.952 270.135 225.45C268.424 224.906 265.248 221.001 264.621 218.67C263.231 213.5 262.001 196.751 262.107 184.435C262.211 172.378 262.252 171.969 263.647 168.886C264.436 167.145 266.336 164.39 267.871 162.765C270.513 159.967 270.844 159.789 274.082 159.431C280.705 158.698 281.01 158.304 278.808 153.317C277.911 151.287 277.508 148.723 277.064 142.228L276.487 133.78L278.093 131.454C279.268 129.752 280.805 128.56 283.82 127.015C287.515 125.121 288.248 124.933 290.913 125.196C295.908 125.688 301.402 130.212 301.402 133.831C301.402 134.48 301.801 136.386 302.288 138.066C303.306 141.572 303.065 145.476 301.742 146.941C301.253 147.482 300.852 148.586 300.852 149.395V150.865H306.108C308.999 150.865 311.782 151.089 312.293 151.363C312.803 151.637 315.548 152.263 318.392 152.755C326.757 154.2 329.68 156.275 334.158 163.944C335.703 166.59 336.942 167.968 338.699 168.992C340.028 169.767 342.131 171.483 343.373 172.805C346.529 176.163 349.627 178.154 352.361 178.58C356.357 179.203 359.696 180.595 363.726 183.317C371.59 188.63 373.603 189.378 378.322 188.746C379.349 188.608 379.74 188.84 379.871 189.663C379.984 190.366 381.076 191.255 382.893 192.124C388.148 194.636 389.86 195.91 389.86 197.307C389.86 198.023 390.224 198.911 390.67 199.281C392.001 200.387 392.288 203.485 391.299 206.077C390.81 207.36 390.41 209.198 390.41 210.161C390.41 211.313 390.055 212.102 389.374 212.467C388.804 212.772 388.178 213.663 387.982 214.445C387.385 216.828 383.53 220.487 379.896 222.121C376.856 223.487 376.066 223.611 371.793 223.394C364.195 223.006 359.58 219.976 356.583 213.408C355.271 210.532 355.14 209.696 355.355 205.595C355.562 201.637 355.834 200.617 357.321 198.221C358.38 196.515 358.79 195.406 358.383 195.351C358.017 195.301 356.357 195.217 354.692 195.165C353.028 195.112 350.802 194.666 349.747 194.174C348.692 193.681 346.742 193.04 345.413 192.749C343.429 192.314 342.409 191.568 339.712 188.574C337.905 186.569 334.913 183.924 333.062 182.695C331.212 181.467 328.493 179.579 327.02 178.5C324.475 176.634 324.363 176.603 324.748 177.872C324.97 178.606 325.611 179.966 326.171 180.893C326.879 182.066 327.094 183.164 326.878 184.497C326.471 187.01 327.675 189.817 330.7 193.41C334.118 197.47 338.177 206.517 337.442 208.436C337.264 208.899 337.693 210.065 338.394 211.027C339.096 211.989 340.637 214.881 341.818 217.454C343.711 221.577 343.966 222.621 343.964 226.259C343.962 228.529 343.74 232.244 343.469 234.514C342.81 240.039 343.015 248.981 344.028 258.944C344.851 267.04 344.885 267.168 346.848 269.568C347.941 270.904 349.642 272.335 350.627 272.747C351.612 273.159 354.413 275.514 356.853 277.981C362.5 283.69 366.225 286.244 368.908 286.244C372.268 286.244 377.991 289.961 385.79 297.207C387.933 299.198 390.314 301.25 391.08 301.766C393.425 303.344 395.461 307.463 395.764 311.235C396.018 314.407 395.926 314.746 394.183 317.02C393.165 318.349 391.683 319.918 390.888 320.508C389.495 321.542 389.373 321.546 387.419 320.617C385.12 319.524 378.872 313.504 378.872 312.382C378.872 311.252 376.144 308.257 375.114 308.257C374.612 308.256 373.137 307.018 371.836 305.505C370.535 303.992 369.077 302.754 368.596 302.754C368.115 302.754 366.398 301.874 364.781 300.798C362.602 299.35 361.839 298.504 361.839 297.539C361.839 296.689 361.028 295.535 359.504 294.22C356.396 291.537 354.728 290.716 350.974 290.024C349.244 289.705 347.581 289.249 347.279 289.01C346.634 288.499 340.355 285.143 340.045 285.143C339.929 285.143 340.216 285.884 340.683 286.789C341.151 287.694 342.517 288.937 343.72 289.552C348.714 292.104 353.65 295.821 359.04 301.087C367.743 309.591 375.775 315.411 378.808 315.411C380.646 315.411 381.616 316.522 384.094 321.464C384.929 323.129 386.197 325.191 386.912 326.047C387.627 326.902 388.212 328.088 388.212 328.682C388.212 330.087 384.882 333.607 381.069 336.232C378.516 337.989 377.956 338.688 377.457 340.733C376.677 343.933 375.236 344.521 368.105 344.553C363.41 344.574 362.419 344.424 361.65 343.572Z" fill="#6AC6F4"/>
<path d="M361.649 343.572C361.149 343.018 360.74 342.191 360.74 341.734C360.74 340.488 363.631 336.917 364.659 336.894C365.631 336.872 366.511 334.672 365.548 334.672C365.224 334.672 365.325 334.245 365.776 333.709C367.056 332.188 367.781 328.928 367.479 326.043C367.272 324.061 366.77 322.934 365.493 321.584C363.354 319.32 359.116 316.902 354.644 315.394C350.224 313.902 347.484 312.491 345.234 310.546C344.243 309.69 341.935 307.981 340.104 306.748C335.847 303.881 326.399 294.478 323.732 290.453C322.114 288.012 321.053 287.067 318.745 286.009C316.067 284.782 313.489 282.24 313.489 280.827C313.489 280.514 312.519 279.135 311.333 277.762C310.147 276.39 309.013 274.749 308.812 274.116C308.428 272.903 304.735 267.311 301.557 263.131C292.861 251.69 288.215 239.356 288.215 227.714C288.215 226.225 287.75 224.82 286.805 223.454C285.884 222.123 285.199 220.1 284.833 217.626L284.271 213.837L279.787 218.461C274.673 223.735 271.622 225.923 270.067 225.428C268.39 224.895 265.325 220.918 264.647 218.394C263.198 212.999 261.989 196.902 262.118 184.71C262.271 170.26 262.77 168.306 267.658 163.017C270.59 159.846 270.687 159.793 274.342 159.426C276.382 159.22 278.483 158.927 279.012 158.774C280.201 158.43 280.307 155.753 279.2 154.01C277.935 152.017 277.199 147.1 277.071 139.79C276.953 132.983 276.968 132.892 278.533 130.828C279.571 129.457 281.455 128.088 284.027 126.833C287.443 125.167 288.319 124.96 290.913 125.207C295.899 125.68 301.401 130.204 301.401 133.831C301.401 134.48 301.8 136.386 302.288 138.066C303.305 141.572 303.065 145.476 301.741 146.941C301.252 147.482 300.852 148.587 300.852 149.395V150.865H305.522C308.091 150.865 310.254 150.823 310.33 150.772C310.405 150.721 311.008 150.969 311.668 151.323C312.329 151.677 314.781 152.233 317.117 152.559C325.926 153.786 329.814 156.355 334.089 163.776C335.723 166.613 336.899 167.942 338.703 168.992C340.035 169.767 342.015 171.361 343.103 172.534C346.142 175.81 349.756 178.38 351.341 178.393C353.847 178.413 360.283 181.019 364.007 183.522C371.782 188.747 373.579 189.403 378.322 188.751C379.354 188.609 379.736 188.836 379.859 189.663C379.966 190.388 381.157 191.326 383.355 192.414C389.073 195.247 389.86 195.85 389.86 197.398C389.86 198.181 390.221 199.183 390.662 199.625C391.978 200.944 392.278 203.966 391.289 205.951C390.805 206.923 390.409 208.536 390.409 209.537C390.409 210.574 389.977 211.782 389.406 212.342C388.854 212.883 388.083 214.129 387.693 215.109C386.848 217.233 383.672 220.224 380.407 221.97C378.398 223.044 377.229 223.232 372.553 223.232C367.902 223.232 366.702 223.042 364.739 221.991C361.058 220.021 358.722 217.642 356.92 214.03C354.248 208.674 354.722 201.878 358.109 196.971L359.142 195.475L357.735 195.121C356.96 194.926 355.775 194.914 355.099 195.094C354.053 195.374 348.859 193.989 343.708 192.057C342.952 191.774 341.221 190.217 339.862 188.597C338.502 186.977 335.906 184.648 334.093 183.421C332.279 182.194 329.345 180.147 327.571 178.87C324.618 176.746 324.38 176.662 324.749 177.878C324.971 178.609 325.61 179.966 326.17 180.893C326.878 182.066 327.094 183.164 326.878 184.497C326.479 186.958 327.649 189.765 330.47 193.116C333.224 196.387 337.298 204.965 337.35 207.601C337.372 208.69 337.707 209.964 338.095 210.432C339.003 211.528 341.804 217.32 343.184 220.956C344.471 224.348 344.509 226.34 343.442 234.448C342.604 240.805 342.815 247.914 344.247 261.681C344.788 266.885 344.905 267.223 347.058 269.799C348.293 271.277 349.599 272.486 349.959 272.486C350.892 272.486 353.854 274.942 357.99 279.146C363.053 284.292 366.282 286.441 368.808 286.346C370.047 286.299 371.753 286.779 373.168 287.571C376.719 289.559 383.596 294.894 385.598 297.215C386.582 298.355 388.407 299.927 389.652 300.708C394.356 303.658 397.217 311.271 395.135 315.302C394.64 316.262 393.472 317.917 392.54 318.981C390.594 321.2 388.835 321.459 386.288 319.903C383.945 318.47 378.871 313.155 378.871 312.132C378.871 310.944 376.285 308.257 375.14 308.257C374.624 308.256 373.136 307.018 371.835 305.505C370.534 303.992 369.076 302.754 368.596 302.754C368.115 302.754 366.398 301.874 364.78 300.798C362.669 299.394 361.839 298.492 361.839 297.599C361.839 295.162 356.174 291.031 351.509 290.065C349.787 289.708 346.626 288.455 344.485 287.28C342.344 286.105 340.421 285.143 340.213 285.143C339.036 285.143 341.911 288.627 344.123 289.88C350.46 293.473 354.033 296.118 358.2 300.3C366.84 308.973 375.47 315.411 378.456 315.411C380.374 315.411 381.506 316.616 383.868 321.173C384.805 322.981 386.165 325.167 386.891 326.031C387.617 326.895 388.211 328.07 388.211 328.642C388.211 330.124 385.254 333.3 381.491 335.859C378.326 338.012 377.613 338.97 376.989 341.909C376.561 343.928 374.345 344.578 367.886 344.578C363.423 344.578 362.411 344.415 361.649 343.572Z" fill="#55B8E8"/>
<path d="M361.917 343.69C360.942 343.006 360.732 342.481 361.004 341.398C361.492 339.449 363.568 336.941 364.723 336.904C365.252 336.887 365.685 336.646 365.685 336.368C365.685 336.09 365.85 335.431 366.053 334.902C366.331 334.175 366.231 334.053 365.641 334.401C365.079 334.732 365.108 334.565 365.744 333.804C367.233 332.021 367.824 329.377 367.482 326.029C367.211 323.377 366.871 322.585 365.459 321.323C363.029 319.151 358.629 316.738 354.644 315.394C350.442 313.976 347.297 312.403 345.934 311.037C345.37 310.473 343.094 308.778 340.875 307.272C335.878 303.881 326.976 295.141 323.908 290.616C322.053 287.881 321.032 286.963 318.604 285.85C315.769 284.55 313.233 281.809 313.661 280.507C313.753 280.226 312.901 279.158 311.768 278.133C310.634 277.107 309.288 275.17 308.776 273.827C308.264 272.484 307.685 271.385 307.489 271.385C307.293 271.385 306.669 270.58 306.103 269.597C305.536 268.613 303.921 266.322 302.514 264.506C301.107 262.69 299.24 259.966 298.364 258.453C297.488 256.939 295.996 254.587 295.048 253.225C291.62 248.298 288.215 235.588 288.215 227.714C288.215 226.225 287.75 224.82 286.805 223.454C285.882 222.12 285.199 220.099 284.83 217.606L284.265 213.796L279.784 218.315C274.603 223.539 271.52 225.791 270.189 225.322C268.646 224.778 266.744 222.805 265.592 220.555C263.744 216.945 262.322 203.695 262.158 188.562C262.08 181.298 262.227 174.292 262.485 172.995C263.239 169.209 265.144 165.744 268.154 162.68C270.739 160.049 271.215 159.796 274.23 159.45C280.527 158.729 280.419 158.785 279.961 156.479C279.739 155.359 279.139 153.481 278.629 152.305C277.612 149.965 276.391 137.496 276.88 134.442C277.6 129.939 284.101 125.389 289.863 125.354C295.523 125.319 301.386 129.947 301.407 134.466C301.41 135.162 301.782 136.947 302.232 138.433C303.334 142.073 303.258 144.187 301.949 146.338C301.346 147.329 300.852 148.753 300.852 149.503C300.852 150.84 300.938 150.866 305.522 150.934C308.091 150.972 310.378 151.051 310.604 151.11C310.831 151.169 312.005 151.487 313.214 151.816C314.423 152.146 316.648 152.575 318.159 152.771C322.117 153.282 324.398 154.069 327.395 155.959C329.947 157.569 333.736 162.338 334.901 165.407C335.384 166.681 339.046 169.804 340.949 170.566C341.395 170.744 342.374 171.62 343.123 172.512C345.458 175.292 349.759 178.38 351.312 178.393C353.869 178.413 360.283 181.018 364.007 183.549C370.056 187.66 373.975 189.508 375.849 189.133C379.188 188.464 379.691 188.531 379.859 189.663C379.966 190.388 381.157 191.326 383.355 192.414C389.225 195.322 389.86 195.825 389.86 197.567C389.86 198.442 390.224 199.461 390.669 199.832C391.976 200.918 392.283 203.954 391.289 205.951C390.805 206.923 390.409 208.51 390.409 209.478C390.409 210.594 389.906 211.784 389.036 212.724C388.28 213.541 387.662 214.579 387.662 215.032C387.662 215.485 386.473 217.046 385.02 218.502C381.316 222.212 377.256 223.694 371.652 223.381C361.795 222.83 355.246 215.979 355.246 206.218C355.246 203.356 355.576 202.07 357.082 199.073L358.918 195.418L357.623 195.093C356.91 194.914 355.794 194.907 355.143 195.077C354.141 195.339 349.035 193.985 343.708 192.043C342.952 191.767 341.221 190.221 339.862 188.605C338.502 186.99 335.809 184.586 333.878 183.263C331.947 181.94 329.123 179.93 327.602 178.797C326.081 177.664 324.742 176.832 324.625 176.949C324.509 177.066 324.797 178.081 325.266 179.206C325.735 180.33 325.978 181.477 325.807 181.755C325.635 182.033 325.822 182.193 326.222 182.109C326.754 181.999 326.905 182.573 326.782 184.241C326.569 187.13 327.714 189.881 330.532 193.253C333.313 196.579 337.298 204.967 337.35 207.601C337.372 208.69 337.703 209.96 338.087 210.423C339.149 211.704 342.324 218.464 343.4 221.734C344.272 224.385 344.291 225.246 343.619 231.639C342.694 240.443 342.909 250.949 344.242 262.03C344.515 264.3 344.754 266.42 344.772 266.74C344.824 267.625 349.268 272.486 350.025 272.486C350.847 272.486 353.141 274.43 357.897 279.159C363.103 284.335 366.346 286.476 368.865 286.399C371.055 286.332 376.315 288.791 375.792 289.638C375.628 289.905 375.73 290.055 376.019 289.972C376.801 289.748 383.44 294.748 385.508 297.119C386.495 298.25 388.428 299.919 389.802 300.827C391.628 302.034 392.786 303.417 394.102 305.966C396.906 311.394 396.403 314.894 392.173 319.401C390.208 321.495 388.347 321.347 385.005 318.831C381.851 316.457 380.188 314.519 378.558 311.317C377.788 309.804 376.874 308.902 375.73 308.523C374.8 308.215 373.211 306.927 372.197 305.662C371.184 304.397 369.52 303.071 368.5 302.717C365.301 301.605 361.716 298.881 362.004 297.78C362.168 297.149 361.545 296.122 360.264 294.909C357.063 291.88 355.181 290.819 351.751 290.109C349.98 289.743 346.766 288.479 344.608 287.301C342.451 286.123 340.494 285.155 340.26 285.151C339.033 285.129 341.872 288.604 344.123 289.88C350.447 293.466 353.673 295.894 358.824 300.946C367.592 309.546 376.766 316.263 378.773 315.551C379.88 315.158 382.106 317.557 383.634 320.789C384.389 322.384 385.562 324.365 386.241 325.191C386.92 326.017 387.639 327.142 387.839 327.69C388.573 329.701 386.064 332.81 380.897 336.292C378.288 338.05 377.597 339.044 376.989 341.909C376.566 343.906 374.352 344.578 368.198 344.578C364.473 344.578 362.857 344.35 361.917 343.69Z" fill="#2EB1F3"/>
<path d="M361.961 343.721C361.29 343.25 360.74 342.556 360.74 342.179C360.74 341.089 364.052 336.873 364.908 336.873C365.336 336.873 365.685 336.646 365.685 336.368C365.685 336.09 365.851 335.431 366.053 334.902C366.332 334.175 366.231 334.053 365.641 334.401C365.188 334.668 365.275 334.387 365.849 333.731C366.898 332.531 368.143 328.896 367.977 327.518C367.922 327.064 367.785 325.875 367.674 324.875C367.562 323.876 366.896 322.445 366.192 321.695C364.568 319.963 356.676 315.662 354.147 315.13C351.742 314.624 347.45 312.485 346.473 311.305C346.067 310.816 343.734 309.092 341.288 307.474C335.965 303.953 327.062 295.251 324.036 290.612C322.239 287.859 321.291 287.002 318.635 285.732C315.66 284.311 312.976 281.439 313.826 280.587C313.995 280.417 313.011 279.169 311.638 277.814C310.266 276.459 308.967 274.644 308.753 273.78C308.539 272.917 307.7 271.344 306.889 270.285C293.157 252.348 289.659 244.654 288.452 229.727C288.196 226.559 287.761 224.899 286.795 223.394C286.074 222.272 285.382 220.539 285.256 219.542C285.131 218.545 284.849 216.785 284.631 215.631L284.234 213.533L279.494 218.337C276.887 220.979 273.926 223.712 272.913 224.411C271.197 225.593 270.964 225.624 269.477 224.853C267.673 223.919 265.535 220.869 264.677 218.004C263.836 215.195 261.728 195.58 262.084 193.87C262.564 191.562 262.604 183.927 262.156 180.216C261.359 173.625 263.645 167.199 268.457 162.505C270.994 160.03 271.502 159.777 274.636 159.43C280.399 158.793 280.415 158.784 279.989 156.467C279.784 155.353 279.354 153.947 279.033 153.342C278.093 151.572 277.311 146.629 276.958 140.224C276.641 134.488 276.683 134.168 278.071 131.796C279.312 129.674 280.169 129.021 284.214 127.114C289.89 124.438 291.996 124.521 296.674 127.607C299.611 129.544 300.768 131.187 301.092 133.883C301.178 134.597 301.653 136.526 302.149 138.17C303.322 142.063 303.285 143.566 301.951 146.187C301.347 147.375 300.852 148.913 300.852 149.606C300.852 150.803 301.05 150.865 304.857 150.865C307.06 150.865 310.336 151.25 312.137 151.72C313.939 152.19 316.772 152.703 318.434 152.86C322.245 153.221 327.47 155.629 329.981 158.182C331.043 159.262 332.76 161.736 333.797 163.679C335.31 166.516 336.311 167.62 338.881 169.287C340.641 170.428 342.561 172.038 343.149 172.864C344.973 175.43 349.728 178.315 353.185 178.954C357.39 179.731 359.587 180.701 364.25 183.844C369.995 187.716 374.153 189.595 375.986 189.146C378.955 188.42 379.69 188.521 379.855 189.677C379.966 190.451 381.427 191.53 384.639 193.207C388.596 195.273 389.315 195.866 389.622 197.32C389.82 198.254 390.291 199.39 390.668 199.844C391.916 201.347 391.992 203.207 390.941 206.505C390.369 208.298 390.032 210.108 390.192 210.527C390.353 210.945 390.017 211.747 389.446 212.307C388.876 212.868 387.74 214.495 386.924 215.923C382.806 223.123 372.2 225.62 364.101 221.296C358.358 218.23 355.246 212.936 355.246 206.233C355.246 203.36 355.574 202.074 357.067 199.104C359.133 194.991 359.077 194.898 354.514 194.879C352.883 194.872 350.655 194.403 349.279 193.778C347.962 193.179 346.428 192.689 345.871 192.689C344.075 192.689 342.393 191.521 339.635 188.357C336.834 185.144 324.89 176.317 324.585 177.235C324.489 177.521 324.807 178.523 325.291 179.461C325.775 180.398 325.999 181.444 325.789 181.784C325.555 182.163 325.654 182.25 326.045 182.008C326.83 181.522 327.611 183.299 326.833 183.802C325.519 184.653 327.382 189.444 330.566 193.403C333.644 197.228 337.782 206.153 337.312 207.952C337.118 208.693 337.44 209.762 338.163 210.779C339.815 213.103 343.107 220.224 343.284 221.856C343.366 222.613 343.651 223.391 343.917 223.584C344.192 223.785 344.077 227.103 343.649 231.289C343.236 235.333 342.905 240.003 342.913 241.668C342.95 249.431 343.367 257.955 343.733 258.453C343.955 258.755 344.226 260.856 344.335 263.121C344.526 267.121 344.601 267.314 346.957 269.854C348.29 271.292 349.847 272.617 350.416 272.798C351.631 273.184 352.337 273.796 358.598 279.889C363.572 284.728 367.272 287.083 369.137 286.594C370.517 286.233 373.445 287.413 374.977 288.947C375.608 289.579 376.233 290.034 376.366 289.959C376.751 289.74 384.636 296.066 386.37 297.986C387.768 299.532 389.405 300.894 391.302 302.089C392.85 303.064 395.31 307.983 395.662 310.808C396.013 313.618 395.915 313.978 394.027 316.826C391.826 320.146 390.129 321.239 388.005 320.705C386.285 320.273 380.49 314.968 379.424 312.85C377.912 309.843 376.591 308.257 375.603 308.257C375.055 308.257 373.543 307.028 372.243 305.527C370.788 303.847 369.248 302.658 368.24 302.436C367.338 302.238 366.333 301.842 366.006 301.557C365.678 301.271 364.592 300.551 363.592 299.958C362.532 299.328 361.814 298.481 361.87 297.927C362.059 296.045 361.791 295.672 358.472 293.201C356.077 291.419 354.213 290.516 352.016 290.074C350.317 289.732 346.989 288.464 344.619 287.256C342.25 286.048 340.223 285.149 340.114 285.258C339.345 286.028 342.024 288.617 346.249 291.188C351.862 294.602 353.678 296.072 360.576 302.788C368.11 310.122 377.111 316.392 379.04 315.651C380.045 315.264 382.352 318.002 383.818 321.321C384.439 322.729 385.559 324.682 386.305 325.662C387.052 326.643 387.662 327.97 387.662 328.611C387.662 330.391 385.018 333.356 381.2 335.858C378.968 337.32 377.665 338.571 377.491 339.419C377.344 340.138 377.097 341.334 376.944 342.077C376.576 343.859 373.988 344.571 367.868 344.575C364.512 344.577 362.836 344.335 361.961 343.721Z" fill="#6C63FF"/>
</g>
<path d="M182.5 98.5V249.5" stroke="black" stroke-width="10" stroke-linecap="round"/>
<path d="M254.953 5.70912V97.1826C254.953 100.312 252.394 102.892 249.265 102.892H119.688C116.558 102.892 114 100.312 114 97.1826V5.70912C114 2.57957 116.558 0 119.688 0H249.265C252.394 0 254.953 2.57957 254.953 5.70912Z" fill="#2B515D"/>
<path d="M248.287 6.68457H120.666V96.2139H248.287V6.68457Z" fill="white"/>
<path d="M222.601 35.4603H146.352C141.531 35.4603 137.598 39.3933 137.598 44.2141V96.2097H145.929V44.2141C145.929 43.9814 146.119 43.7915 146.352 43.7915H222.601C222.834 43.7915 223.024 43.9817 223.024 44.2141V96.2097H231.355V44.2141C231.355 39.3933 227.422 35.4603 222.601 35.4603Z" fill="#BB3C54"/>
<path d="M146.751 106.845C141.177 91.3924 136.309 79.6896 134.051 75.1146L133.371 72.6457L133.109 71.6863L134.156 71.2318L136.219 70.3351H136.222L136.667 70.139L137.207 72.1076C137.207 72.1076 137.207 72.1076 137.207 72.1118L146.751 106.845Z" fill="#B5B5B5"/>
<path d="M169.394 138.092V138.096L168.323 142H166.479L162.363 127.007L160.369 119.754V119.746L155.335 101.416V101.412L153.342 94.1588L147.169 71.6876L150.727 70.1403L155.335 86.9104V86.9146L157.329 94.1588V94.1671L162.363 112.497V112.501L164.356 119.754V119.758L169.394 138.092Z" fill="#B5B5B5"/>
<path d="M183.453 138.092L182.382 142H180.542L176.426 127.007L174.432 119.754L169.394 101.416L167.401 94.1629V94.1588L162.363 75.825V75.8208L161.228 71.6876L162.363 71.1955L164.79 70.1403L169.394 86.9062V86.9104L171.388 94.1588V94.1629L176.426 112.501L178.419 119.754V119.758L183.453 138.092Z" fill="#B5B5B5"/>
<path d="M197.513 138.092L196.441 142H194.601L190.485 127.011L188.491 119.754L183.453 101.42V101.416L181.46 94.1629L176.426 75.8291V75.8208L175.287 71.6876L176.422 71.1955H176.426L178.849 70.1403L183.453 86.9062L185.447 94.1588V94.1629L190.481 112.497L192.479 119.754L197.513 138.092Z" fill="#B5B5B5"/>
<path d="M211.572 138.084C211.184 139.377 210.8 140.686 210.425 142H208.661L207.464 137.642L204.544 127.007L202.551 119.758V119.754L197.513 101.42V101.416L195.519 94.1629V94.1588L190.486 75.8288V75.8205L189.347 71.6875L190.482 71.1955H190.486L192.905 70.1405L197.513 86.9107L199.507 94.1676L204.545 112.502L206.534 119.755L209.558 130.744L211.572 138.084Z" fill="#B5B5B5"/>
<path d="M219.174 114.585C218.961 115.194 218.752 115.807 218.54 116.425C218.043 117.872 217.519 119.423 216.971 121.062L215.035 114.01L211.573 101.415L209.58 94.1576L203.408 71.6863L206.967 70.139L211.573 86.9092L213.566 94.162L217.263 107.629L219.174 114.585Z" fill="#B5B5B5"/>
<path d="M219.742 71.6876L213.565 94.1629L211.572 101.416L206.534 119.754L204.544 127.007L200.428 142H198.584L197.513 138.092L202.551 119.758V119.754L204.544 112.501L209.582 94.1713V94.1671L211.572 86.9146V86.9104L216.18 70.1403L219.742 71.6876Z" fill="#B5B5B5"/>
<path d="M205.678 71.6876L204.544 75.8208L199.506 94.1671L197.513 101.416V101.42L192.478 119.754L190.485 127.011L186.369 142H184.525L183.453 138.092L188.491 119.754L190.481 112.497L195.519 94.1629V94.1588L197.513 86.9104L202.117 70.1403L204.544 71.1955L205.678 71.6876Z" fill="#B5B5B5"/>
<path d="M191.619 71.6876L190.485 75.8208V75.8291L185.447 94.1588V94.1629L183.453 101.416V101.42L178.419 119.754V119.758L176.426 127.007L172.309 142H170.466L169.394 138.096V138.092L174.432 119.754L176.426 112.501L181.46 94.1629L183.453 86.9062L188.062 70.1403L190.481 71.1955H190.485L191.619 71.6876Z" fill="#B5B5B5"/>
<path d="M177.559 71.6864L176.425 75.8194V75.8235L171.387 94.1576V94.1618L169.394 101.415L164.357 119.753V119.757L162.364 127.005L160.302 134.517L158.266 141.928C157.583 139.584 156.886 137.265 156.187 134.992L158.183 127.723L160.372 119.753V119.748L162.365 112.5L167.402 94.1618L169.395 86.9089L174.001 70.1388L176.422 71.1941H176.425L177.559 71.6864Z" fill="#B5B5B5"/>
<path d="M163.498 71.6864L162.364 75.8194V75.8235L157.327 94.1576V94.1618L155.334 101.41L152.648 111.186L150.724 118.184C150.618 117.871 150.512 117.563 150.409 117.258C149.769 115.39 149.133 113.559 148.506 111.77L150.399 104.872L153.341 94.1574L155.334 86.9087L159.94 70.1385L162.361 71.1938H162.364L163.498 71.6864Z" fill="#B5B5B5"/>
<path d="M162.509 142H158.288C158.28 141.979 158.275 141.954 158.267 141.933V141.929C157.583 139.585 156.886 137.266 156.186 134.993C154.272 128.779 152.353 122.961 150.723 118.186C150.618 117.873 150.514 117.564 150.41 117.26C149.767 115.391 149.134 113.56 148.504 111.771C147.916 110.099 147.332 108.464 146.756 106.871C146.756 106.862 146.752 106.854 146.752 106.846C141.176 91.3934 136.309 79.6906 134.052 75.1155C133.544 74.0855 133.168 73.4182 132.947 73.1469C132.981 73.1888 133.014 73.2179 133.039 73.2429L133.373 72.6466L134.157 71.2327L135.32 69.139C135.566 69.3559 135.867 69.7606 136.221 70.3361C136.518 70.8156 136.847 71.408 137.206 72.1086C137.206 72.1086 137.206 72.1086 137.206 72.1127C140.346 78.2018 145.789 92.1275 150.401 104.873C151.177 107.025 151.936 109.148 152.649 111.187C153.029 112.267 153.396 113.322 153.75 114.353C155.072 118.198 156.603 122.769 158.184 127.724C158.884 129.922 159.593 132.195 160.302 134.518C161.049 136.975 161.791 139.477 162.509 142Z" fill="#B5B5B5"/>
<path d="M236.007 72.3132C234.618 73.9939 227.257 91.1936 219.175 114.586C218.962 115.195 218.754 115.808 218.541 116.426C218.044 117.873 217.519 119.424 216.973 121.064C215.284 126.114 213.394 131.978 211.572 138.084C211.184 139.377 210.8 140.686 210.425 142H206.208C206.617 140.54 207.038 139.085 207.464 137.642C208.152 135.302 208.853 132.996 209.557 130.744C211.488 124.525 213.411 118.745 215.033 114.011C215.092 113.844 215.146 113.682 215.204 113.519C215.851 111.634 216.543 109.661 217.265 107.63C223.224 90.8642 231.236 70.4156 233.63 68.3053L235.911 72.4092C235.941 72.3839 235.974 72.3548 236.007 72.3132Z" fill="#B5B5B5"/>
<path d="M230.143 79.5308H138.81C133.994 79.5308 130.052 75.5898 130.052 70.7729C130.052 65.9559 133.994 62.0149 138.81 62.0149H230.143C234.959 62.0149 238.9 65.9559 238.9 70.7729C238.9 75.5898 234.959 79.5308 230.143 79.5308Z" fill="#2B515D"/>
<path opacity="0.2" d="M239.253 70.709C239.253 71.2376 239.21 71.7873 239.083 72.2949C238.365 68.214 234.77 65.1056 230.499 65.1056H139.173C136.762 65.1056 134.563 66.0996 132.978 67.6854C131.751 68.9118 130.884 70.5188 130.567 72.2949C130.44 71.7873 130.398 71.2376 130.398 70.709C130.398 68.2984 131.391 66.0996 132.977 64.5134C134.563 62.9276 136.762 61.9336 139.173 61.9336H230.498C235.32 61.9336 239.253 65.888 239.253 70.709Z" fill="white"/>
<path opacity="0.07" d="M249.259 0.0100098H184.476V105.142L188.491 119.754L184.476 134.369V141.821L184.525 142H186.369L190.485 127.01L194.602 142H196.441L197.513 138.092L192.479 119.754L197.11 102.887H197.916L202.551 119.754V119.758L197.513 138.092L198.584 142H200.428L204.544 127.007L207.464 137.642C207.038 139.085 206.617 140.54 206.208 142H208.661H210.425C210.8 140.686 211.184 139.377 211.572 138.084C213.394 131.978 215.284 126.114 216.973 121.064C217.519 119.425 218.045 117.873 218.541 116.426C218.754 115.809 218.962 115.196 219.175 114.587C220.596 110.474 221.992 106.566 223.34 102.887H249.259C252.395 102.887 254.96 100.322 254.96 97.1854V5.71137C254.96 2.57489 252.395 0.0100098 249.259 0.0100098ZM190.481 112.497L187.842 102.887H193.122L190.481 112.497ZM201.902 102.887H207.187L204.544 112.501L201.902 102.887ZM215.033 114.011C213.411 118.745 211.488 124.525 209.557 130.743L206.534 119.754L211.168 102.887H211.977L215.034 114.007C215.034 114.009 215.033 114.01 215.033 114.011ZM217.265 107.63C217.265 107.63 217.264 107.631 217.264 107.632L217.263 107.629L215.961 102.887H218.972C218.391 104.486 217.817 106.076 217.265 107.63Z" fill="#040000"/>
<path d="M72.9551 287.027H93.0824C89.5289 283.439 83.4017 275.884 92.9513 264.188C89.6462 264.823 86.1479 265.727 82.5737 265.727C78.7028 265.727 74.9837 264.761 71.4302 264.016C76.757 269.025 82.6634 276.76 72.9551 287.027Z" fill="#FFAC48"/>
<path d="M84.5332 266.162C84.5332 266.162 80.0068 276.181 84.4849 286.103C91.0054 286.31 92.9926 286.524 92.9926 286.524C92.9926 286.524 81.8077 279.479 91.9507 264.865C88.7905 264.278 84.5332 266.162 84.5332 266.162Z" fill="#FC992D"/>
<path d="M115.411 202.999H49.7988C46.8249 202.999 44.4167 200.591 44.4167 197.617V196.665C44.4167 193.691 46.8249 191.283 49.7988 191.283H115.411C118.385 191.283 120.793 193.691 120.793 196.665V197.617C120.793 200.584 118.385 202.999 115.411 202.999Z" fill="#FFAC48"/>
<path d="M110.767 192.394C110.767 192.394 114.604 194.195 114.604 196.817C114.604 199.439 113.9 200.929 109.946 201.357C114.604 201.357 119.496 202.254 119.613 197.051C119.73 191.849 113.113 192.394 110.767 192.394Z" fill="#FC992D"/>
<path d="M85.3199 265.713H81.38C64.5509 265.713 50.9165 252.072 50.9165 235.25V204.986C50.9165 204.524 51.2891 204.145 51.7583 204.145H114.955C115.418 204.145 115.797 204.517 115.797 204.986V235.243C115.783 252.072 102.149 265.713 85.3199 265.713Z" fill="#F2C336"/>
<path d="M108.221 202.951V229.778C108.221 235.726 105.613 261.201 78.0542 264.858C90.2672 264.858 109.787 262.767 115.742 235.94C116.266 210.989 115.266 202.999 115.266 202.999L108.221 202.951Z" fill="#E8A200"/>
<path d="M46.9144 244.937C29.0365 242.833 28.7812 232.766 28.7812 228.784V218.724C28.7812 218.096 29.3056 217.593 29.9473 217.593H42.733V208.574H32.7832C27.0286 208.574 22.3435 213.128 22.3435 218.724V228.791C22.3435 243.882 32.4175 252.976 50.7094 254.411C50.8336 254.418 50.9647 254.425 51.0889 254.425C52.4137 254.425 52.2895 253.452 51.8203 252.355C49.84 250.009 48.2254 247.739 46.9144 244.937Z" fill="#FFAC48"/>
<path d="M37.7927 208.795V216.075C37.7927 216.075 30.2372 215.447 28.7123 215.447C27.1874 215.447 24.0962 215.405 24.0962 219.242V229.578C24.0962 230.868 23.9789 241.791 35.8814 246.918C39.2486 248.249 42.6572 248.677 42.6572 248.677L45.4862 253.776L49.1915 253.252L45.0653 246.31C45.0653 246.31 28.8848 242.446 27.9464 232.69C27.008 222.926 28.6226 217.917 28.6226 217.917L41.5118 217.71L42.0845 209.147L37.7927 208.795Z" fill="#FC992D"/>
<path d="M131.577 208.616H120.903V217.627H134.413C135.055 217.627 135.579 218.138 135.579 218.759V228.826C135.579 232.814 135.573 243.171 117.674 245.269C116.363 248.063 114.7 250.658 112.72 252.997C113.156 253.458 113.681 253.825 114.263 254.077C114.846 254.328 115.473 254.458 116.108 254.459C116.232 254.459 116.356 254.459 116.487 254.446C131.598 252.638 142.017 243.916 142.017 228.826V218.766C142.017 213.17 137.332 208.616 131.577 208.616Z" fill="#FFAC48"/>
<path d="M133.944 209.54C130.536 209.03 128.5 209.734 128.5 209.734C128.5 209.734 137.27 212.59 137.27 219.4V231.144C137.27 232.945 136.131 240.073 131.633 243.357C127.451 246.414 122.828 248.891 114.921 250.071C114.238 251.078 113.513 252.065 112.72 252.997C113.127 253.424 113.617 253.776 114.162 254.025L122.98 253.148C123.491 253.004 124.001 252.845 124.498 252.679C127.7 250.761 141.672 241.729 141.182 230.358C140.637 217.524 141.03 210.907 133.944 209.54Z" fill="#FC992D"/>
<path d="M108.835 301.207H55.6914V292.658C55.6914 291.947 55.8315 291.242 56.1037 290.585C56.3759 289.928 56.7749 289.331 57.2779 288.828C57.7808 288.325 58.3779 287.926 59.0351 287.654C59.6923 287.381 60.3966 287.241 61.1079 287.241H103.419C104.13 287.241 104.834 287.381 105.492 287.654C106.149 287.926 106.746 288.325 107.249 288.828C107.752 289.331 108.151 289.928 108.423 290.585C108.695 291.242 108.835 291.947 108.835 292.658V301.207Z" fill="#8F93FB"/>
<path d="M97.1121 288.207C97.1121 288.207 103.129 289.277 103.129 292.816V299.944H108.269V289.008L97.1121 288.207Z" fill="#787CF5"/>
<path d="M18.5417 229.481C19.6871 229.481 20.6117 228.557 20.6117 227.411V225.921C20.6117 224.776 19.6871 223.851 18.5417 223.851C17.3963 223.851 16.4717 224.776 16.4717 225.921V227.411C16.4717 228.55 17.3963 229.481 18.5417 229.481Z" fill="#333333"/>
<path d="M130.418 206.546H117.853V205.393C117.853 205.145 117.826 204.91 117.791 204.669C120.731 203.668 122.863 200.888 122.863 197.61V196.658C122.863 192.546 119.516 189.206 115.411 189.206H71.4854C70.34 189.206 69.4154 190.131 69.4154 191.276C69.4154 192.421 70.34 193.346 71.4854 193.346H115.404C117.232 193.346 118.716 194.83 118.716 196.658V197.61C118.716 199.439 117.226 200.922 115.404 200.922H114.162C113.886 200.867 113.603 200.839 113.306 200.839H46.3625C46.0727 200.839 45.7829 200.867 45.5069 200.922H43.5818C41.7533 200.922 40.2698 199.439 40.2698 197.61V196.658C40.2698 194.83 41.7602 193.346 43.5818 193.346H61.025C62.1704 193.346 63.095 192.421 63.095 191.276C63.095 190.131 62.1704 189.206 61.025 189.206H43.5818C39.4694 189.206 36.1298 192.553 36.1298 196.658V197.61C36.1298 201.122 38.5793 204.069 41.8499 204.855C41.8292 205.028 41.8154 205.207 41.8154 205.387V206.497H28.9745C22.0745 206.497 16.4648 211.976 16.4648 218.717C16.4648 219.863 17.3894 220.787 18.5348 220.787C19.6802 220.787 20.6048 219.863 20.6048 218.717C20.6048 214.26 24.3584 210.637 28.9745 210.637H40.394V215.509H28.9745C27.1874 215.509 25.7384 216.944 25.7384 218.71V228.778C25.7384 232.704 25.7384 244.489 44.3201 247.125C45.0032 248.477 45.7691 249.781 46.6178 251.037C46.88 251.472 47.1491 251.906 47.432 252.327C47.3147 252.334 47.1974 252.341 47.0732 252.327C36.4334 251.492 23.2613 247.511 20.9567 233.263C20.9135 232.994 20.8177 232.737 20.675 232.506C20.5322 232.275 20.3453 232.074 20.1248 231.915C19.9043 231.756 19.6547 231.642 19.3902 231.58C19.1256 231.517 18.8514 231.508 18.5831 231.551C18.3149 231.595 18.0579 231.691 17.8267 231.833C17.5955 231.976 17.3947 232.163 17.2358 232.384C17.0769 232.604 16.963 232.854 16.9005 233.118C16.8381 233.383 16.8284 233.657 16.8719 233.925C19.004 247.118 29.6162 255.122 46.7489 256.46C47.9005 256.551 49.0559 256.342 50.1023 255.853C53.9456 260.317 58.9136 263.781 64.5716 265.796C64.6475 265.879 64.7303 265.955 64.82 266.024C68.2631 268.618 72.2375 272.103 72.3479 276.084C72.4307 278.892 70.5815 281.942 66.8762 285.157H56.2226C52.0964 285.157 48.7361 288.518 48.7361 292.644C48.7361 293.789 49.6607 294.714 50.8061 294.714C51.9515 294.714 52.8761 293.789 52.8761 292.644C52.8761 290.802 54.3734 289.297 56.2226 289.297H103.419C105.261 289.297 106.765 290.795 106.765 292.644V299.123H52.8761V298.316C52.8761 297.17 51.9515 296.246 50.8061 296.246C49.6607 296.246 48.7361 297.17 48.7361 298.316V301.193C48.7361 302.338 49.6607 303.263 50.8061 303.263H108.828C109.974 303.263 110.898 302.338 110.898 301.193V292.644C110.898 288.518 107.538 285.157 103.412 285.157H94.076C91.4471 282.998 88.832 280.334 88.6664 276.829C88.5146 273.621 90.4604 270.012 94.4624 266.107C94.5038 266.065 94.5314 266.024 94.5728 265.975C100.339 264.023 105.481 260.57 109.47 255.97C110.47 256.398 111.559 256.578 112.644 256.495C131.888 254.991 142.921 244.896 142.921 228.812V218.766C142.928 212.024 137.318 206.546 130.418 206.546ZM29.8784 228.791V219.656H41.8154V233.608C41.8154 236.768 42.257 239.824 43.0643 242.736C29.8853 240.232 29.8784 232.586 29.8784 228.791ZM84.5402 277.043C84.692 280.3 86.21 282.949 87.8936 284.957H72.893C75.3632 281.977 76.5638 278.968 76.481 275.98C76.3913 272.772 74.8457 269.998 72.7688 267.625C73.8314 267.728 74.9078 267.783 75.998 267.783H83.6915C85.0853 267.783 86.4515 267.687 87.8039 267.528C85.4855 270.778 84.3953 273.966 84.5402 277.043ZM83.6846 263.643H75.9911C66.5864 263.643 58.1822 259.296 52.6691 252.507C52.6001 252.196 52.4621 251.893 52.2413 251.637C51.4461 250.69 50.7043 249.7 50.0195 248.67C47.353 244.101 45.9503 238.905 45.9554 233.614V205.393C45.9554 205.255 46.0244 205.145 46.1279 205.069H113.541C113.644 205.145 113.713 205.255 113.713 205.393V233.614C113.713 237.754 112.872 241.701 111.347 245.296C110.188 247.58 108.787 249.726 107.145 251.672C106.841 252.037 106.682 252.472 106.662 252.921C101.155 259.469 92.8961 263.643 83.6846 263.643ZM138.788 228.826C138.788 246.586 124.402 251.437 112.327 252.382H112.216C113.265 250.792 114.179 249.116 114.949 247.373C114.983 247.304 115.018 247.242 115.052 247.18C133.654 244.544 133.654 232.752 133.654 228.826V228.053C133.654 226.908 132.73 225.983 131.584 225.983C130.439 225.983 129.514 226.908 129.514 228.053V228.826C129.514 232.6 129.508 240.156 116.611 242.716C117.433 239.749 117.851 236.686 117.853 233.608V219.697H129.514V221.56C129.514 222.706 130.439 223.63 131.584 223.63C132.73 223.63 133.654 222.706 133.654 221.56V218.759C133.654 216.992 132.205 215.557 130.418 215.557H118.978V210.686H130.418C135.034 210.686 138.788 214.308 138.788 218.766V228.826Z" fill="#333333"/>
<path d="M83.3533 218.207L86.4031 224.217C86.6377 224.672 87.0862 224.989 87.6037 225.065L94.4209 226.031C95.725 226.218 96.2494 227.777 95.3041 228.674L90.3706 233.352C89.998 233.711 89.8255 234.222 89.9152 234.725L91.0813 241.329C91.3021 242.591 89.9359 243.557 88.7698 242.964L82.6702 239.845C82.2079 239.611 81.649 239.611 81.1867 239.845L75.0871 242.964C73.921 243.564 72.5548 242.598 72.7756 241.329L73.9417 234.725C74.0314 234.222 73.8589 233.711 73.4863 233.352L68.5528 228.674C67.6075 227.777 68.1319 226.218 69.436 226.031L76.2532 225.065C76.7707 224.989 77.2192 224.672 77.4538 224.217L80.5036 218.207C81.0832 217.054 82.7737 217.054 83.3533 218.207Z" fill="#FF6339"/>
<path d="M93.7034 226.025C93.6965 226.025 93.6896 226.018 93.6827 226.018L88.2041 223.472C87.6866 223.396 87.2381 223.078 87.0035 222.623L83.9882 220.905L80.6348 217.441C80.276 217.572 80.6624 217.565 80.4692 217.945L79.0547 221.015C79.6136 221.967 80.0966 222.913 80.4692 223.644C81.0281 224.734 82.8911 226.535 85.1957 226.659C87.5003 226.777 88.7699 226.928 88.7699 226.928C88.7699 226.928 86.0237 229.233 85.4027 229.909C84.7817 230.585 83.6915 231.979 84.071 234.042C84.4574 236.112 85.2509 241.101 85.2509 241.101L87.8798 242.757L89.1494 230.772L93.7034 226.025Z" fill="#F94A21"/>
<path d="M88.3835 246C87.7625 246 87.1415 245.855 86.5619 245.558L79.4342 241.915L72.3065 245.558C70.9472 246.248 69.3464 246.117 68.1182 245.213C66.9245 244.33 66.338 242.881 66.5933 241.425L67.9457 233.773C67.5911 233.386 67.3961 232.879 67.3999 232.355C67.4038 231.83 67.6062 231.326 67.9664 230.944C68.3444 230.546 68.8649 230.315 69.4135 230.301C69.9621 230.286 70.4939 230.491 70.892 230.868C71.8373 231.765 72.272 233.069 72.0443 234.346L70.7471 241.694L77.6126 238.182C78.7511 237.603 80.1104 237.603 81.2489 238.182L88.1144 241.694L86.8172 234.346C86.5895 233.069 87.0242 231.765 87.9695 230.868L93.4067 225.714L85.8374 224.644C85.2086 224.557 84.6099 224.32 84.0923 223.952C83.5746 223.585 83.1531 223.098 82.8635 222.533L79.4273 215.757L75.9911 222.54C75.7015 223.105 75.2801 223.592 74.7624 223.959C74.2447 224.327 73.6461 224.564 73.0172 224.651L65.4617 225.721L66.3449 226.514C66.5472 226.697 66.7114 226.917 66.8282 227.163C66.945 227.409 67.0121 227.675 67.0255 227.947C67.039 228.219 66.9986 228.491 66.9067 228.747C66.8147 229.003 66.6731 229.239 66.4898 229.44C66.3076 229.642 66.0873 229.806 65.8414 229.923C65.5955 230.04 65.329 230.107 65.0572 230.121C64.7853 230.134 64.5134 230.094 64.2572 230.002C64.001 229.91 63.7655 229.768 63.5642 229.585L62.2394 228.391C61.1147 227.322 60.7145 225.797 61.1699 224.375C61.6322 222.933 62.8604 221.905 64.3784 221.684L72.3341 220.56L75.8807 213.57C76.2125 212.919 76.7185 212.373 77.3423 211.993C77.966 211.613 78.6831 211.414 79.4135 211.417C80.9177 211.417 82.2701 212.245 82.9463 213.57L86.4929 220.56L94.4486 221.684C95.9666 221.898 97.1948 222.926 97.6571 224.375C98.1125 225.797 97.7192 227.322 96.6221 228.357L90.902 233.78L92.2475 241.425C92.5028 242.874 91.9232 244.33 90.7226 245.213C90.0395 245.731 89.2115 246 88.3835 246Z" fill="#333333"/>
<path d="M55.1945 235.609C54.737 235.609 54.2982 235.427 53.9747 235.103C53.6512 234.78 53.4695 234.341 53.4695 233.884V232.055C53.4695 231.598 53.6512 231.159 53.9747 230.835C54.2982 230.512 54.737 230.33 55.1945 230.33C55.652 230.33 56.0907 230.512 56.4142 230.835C56.7377 231.159 56.9195 231.598 56.9195 232.055V233.884C56.9195 234.836 56.1536 235.609 55.1945 235.609ZM55.1945 227.556C54.737 227.556 54.2982 227.375 53.9747 227.051C53.6512 226.728 53.4695 226.289 53.4695 225.831V213.004C53.4695 212.547 53.6512 212.108 53.9747 211.784C54.2982 211.461 54.737 211.279 55.1945 211.279C55.652 211.279 56.0907 211.461 56.4142 211.784C56.7377 212.108 56.9195 212.547 56.9195 213.004V225.831C56.9195 226.784 56.1536 227.556 55.1945 227.556ZM73.3139 294.555H66.6623C66.2048 294.555 65.766 294.374 65.4425 294.05C65.119 293.727 64.9373 293.288 64.9373 292.83C64.9373 292.373 65.119 291.934 65.4425 291.611C65.766 291.287 66.2048 291.105 66.6623 291.105H73.3139C73.7714 291.105 74.2101 291.287 74.5336 291.611C74.8571 291.934 75.0389 292.373 75.0389 292.83C75.0389 293.288 74.8571 293.727 74.5336 294.05C74.2101 294.374 73.7714 294.555 73.3139 294.555ZM61.2734 294.555H60.2798C59.8223 294.555 59.3835 294.374 59.06 294.05C58.7365 293.727 58.5548 293.288 58.5548 292.83C58.5548 292.373 58.7365 291.934 59.06 291.611C59.3835 291.287 59.8223 291.105 60.2798 291.105H61.2734C61.7309 291.105 62.1696 291.287 62.4931 291.611C62.8166 291.934 62.9984 292.373 62.9984 292.83C62.9984 293.288 62.8166 293.727 62.4931 294.05C62.1696 294.374 61.7309 294.555 61.2734 294.555ZM75.8531 198.852H58.5824C58.1249 198.852 57.6861 198.671 57.3626 198.347C57.0391 198.024 56.8574 197.585 56.8574 197.127C56.8574 196.67 57.0391 196.231 57.3626 195.908C57.6861 195.584 58.1249 195.402 58.5824 195.402H75.8531C76.3106 195.402 76.7493 195.584 77.0728 195.908C77.3963 196.231 77.5781 196.67 77.5781 197.127C77.5781 197.585 77.3963 198.024 77.0728 198.347C76.7493 198.671 76.3106 198.852 75.8531 198.852ZM53.1935 198.852H52.1999C51.7424 198.852 51.3036 198.671 50.9801 198.347C50.6566 198.024 50.4749 197.585 50.4749 197.127C50.4749 196.67 50.6566 196.231 50.9801 195.908C51.3036 195.584 51.7424 195.402 52.1999 195.402H53.1935C53.651 195.402 54.0897 195.584 54.4132 195.908C54.7367 196.231 54.9185 196.67 54.9185 197.127C54.9185 197.585 54.7367 198.024 54.4132 198.347C54.0897 198.671 53.651 198.852 53.1935 198.852Z" fill="white"/>
<path d="M73.2173 229.854C72.3893 229.854 71.6648 229.261 71.5199 228.419C71.3612 227.48 71.9891 226.59 72.9275 226.432L74.0453 226.238C74.9837 226.08 75.8738 226.708 76.0325 227.646C76.1912 228.584 75.5633 229.474 74.6249 229.633L73.5071 229.826C73.4105 229.847 73.3139 229.854 73.2173 229.854Z" fill="white"/>
<defs>
<clipPath id="clip0_102_145">
<rect width="134" height="220" fill="white" transform="translate(262 125)"/>
</clipPath>
</defs>
</svg>
