<svg xmlns="http://www.w3.org/2000/svg" width="640" height="475" fill="none"><path fill="#584DFC" d="M282.073 17.905c-25.329-10.3-52.088-18.894-79.4-17.813-40.165 1.58-78.686 25.743-97.6 61.215-16.026 30.053-18 65.277-24.9 98.628-8.516 41.1-24.8 80.137-42.2 118.327-9.343 20.514-19.2 41.471-20.732 63.961-2.132 31.214 12.791 62.324 36.2 83.091 23.41 20.767 54.484 31.725 85.679 34.115 16.6 1.27 33.948.092 48.7-7.637 15.595-8.171 26.972-22.945 42.63-31 14.514-7.47 31.494-8.522 47.79-7.545a214.116 214.116 0 0 1 62.391 13.262c22.777 8.556 43.957 20.939 66.683 29.616 22.726 8.677 48.117 13.509 71.349 6.275 21.8-6.8 39.073-23.307 54.587-40.028a700.342 700.342 0 0 0 69.625-88.09c14.026-21.008 27.081-43.177 33.287-67.668 11.854-46.82-4.465-99.646-40.659-131.589-29.971-26.507-70.217-38-109.612-45-35.924-6.361-77.462-6.758-110.531-23.341-31.54-15.813-60.235-35.334-93.287-48.779Z" opacity=".1"/><path fill="#464A5F" d="m536.695 331.506.96.965.431-1.661-.46-1.638h-1.184l.253 2.334Z"/><path fill="#000" d="m536.695 331.506.96.965.431-1.661-.46-1.638h-1.184l.253 2.334Z" opacity=".1"/><path fill="#9C9CA1" d="m536.695 331.506.931.994-.931 1.092-1-.373-.247-.483 1.247-1.23Z"/><path fill="#000" d="m536.695 331.506.931.994-.931 1.092-1-.373-.247-.483 1.247-1.23Z" opacity=".1"/><path fill="#9C9CA1" d="M359.82 156.947 254.733 262.034c-3.934 3.933-3.947 10.307-.029 14.256l161.079 162.361c3.921 3.951 10.299 3.985 14.262.075l106.656-105.128L359.82 156.947Z"/><path fill="#000" d="M359.82 156.947 254.733 262.034c-3.934 3.933-3.947 10.307-.029 14.256l161.079 162.361c3.921 3.951 10.299 3.985 14.262.075l106.656-105.128L359.82 156.947Z" opacity=".1"/><path fill="#9C9CA1" d="M359.82 154.861 254.733 259.948c-3.935 3.933-3.948 10.308-.029 14.257l161.079 162.354c3.92 3.952 10.298 3.988 14.262.08l106.656-105.156L359.82 154.861Z"/><path fill="#464A5F" d="m370.846 80.993-9.642 73.175 176.881 176.643 10.159-74.379a10.756 10.756 0 0 0-3.126-9.154L374.455 79.741a2.138 2.138 0 0 0-3.609 1.253v-.001Z"/><path fill="#000" d="m370.846 80.993-9.642 73.175 176.881 176.643 10.159-74.379a10.756 10.756 0 0 0-3.126-9.154L374.455 79.741a2.138 2.138 0 0 0-3.609 1.253v-.001Z" opacity=".1"/><path fill="#464A5F" d="m369.456 81.688-9.642 73.173 176.881 176.645 10.159-74.379a10.756 10.756 0 0 0-3.126-9.154L373.065 80.436a2.138 2.138 0 0 0-3.609 1.253v-.001Z"/><path fill="#000" d="m360.291 188.488-6.4 6.453a2.027 2.027 0 0 0 0 2.873l6.482 6.648a2.034 2.034 0 0 0 2.873.057l6.367-6.011a2.029 2.029 0 0 0 .1-2.844l-6.482-7.091a2.03 2.03 0 0 0-2.948-.086l.008.001Zm11.918 11.924-6.373 6.447a2.028 2.028 0 0 0 0 2.844l6.482 6.648a2.032 2.032 0 0 0 2.873.057l6.367-6a2.04 2.04 0 0 0 .1-2.873l-6.5-7.074a2.03 2.03 0 0 0-2.948-.046l-.001-.003Zm12.512 12.509-6.373 6.453a2.034 2.034 0 0 0 0 2.844l6.487 6.648a2.034 2.034 0 0 0 2.873.058l6.367-6.011a2.028 2.028 0 0 0 .1-2.844l-6.482-7.091a2.027 2.027 0 0 0-2.977-.058l.005.001Zm12.657 12.659-6.367 6.482a2.034 2.034 0 0 0 0 2.844l6.488 6.648a2.034 2.034 0 0 0 2.873.058l6.361-6.011c.81-.758.858-2.026.109-2.844l-6.516-7.12a2.035 2.035 0 0 0-2.948-.057Zm12.659 12.656-6.367 6.465a2.034 2.034 0 0 0 0 2.873l6.487 6.648a2.034 2.034 0 0 0 2.873.057l6.361-6.011c.81-.758.859-2.026.109-2.844l-6.482-7.091a2.034 2.034 0 0 0-2.982-.1l.001.003Zm13.458 11.851-7.913 8.016a.954.954 0 0 0 0 1.333l7.97 8.165a.954.954 0 0 0 1.333 0l7.913-7.47a.948.948 0 0 0 .046-1.333l-7.964-8.711a.953.953 0 0 0-1.385 0Zm12.658 12.66-7.913 8.045a.948.948 0 0 0 0 1.327l7.97 8.171a.954.954 0 0 0 1.333 0l7.913-7.47a.948.948 0 0 0 .046-1.333l-7.964-8.711a.954.954 0 0 0-1.385-.029Zm11.206 11.203-7.913 8.045a.948.948 0 0 0 0 1.327l7.97 8.171a.954.954 0 0 0 1.333 0l7.913-7.47a.948.948 0 0 0 .046-1.333l-7.97-8.682a.955.955 0 0 0-1.379-.057v-.001Zm12.549 12.551-7.913 8.01a.948.948 0 0 0 0 1.333l7.97 8.165a.948.948 0 0 0 1.333 0l7.913-7.47a.954.954 0 0 0 .046-1.333l-7.964-8.711a.956.956 0 0 0-1.385.006Zm12.154 12.154-7.913 8.01a.95.95 0 0 0 0 1.333l7.97 8.171a.954.954 0 0 0 1.333 0l7.913-7.47a.953.953 0 0 0 .046-1.333l-7.993-8.682a.955.955 0 0 0-1.356-.029Zm12.152 12.13-7.924 8.045a.948.948 0 0 0 0 1.327l7.97 8.171a.954.954 0 0 0 1.333 0l7.912-7.47a.948.948 0 0 0 .046-1.333l-7.964-8.711a.952.952 0 0 0-1.373-.029Zm12.154 12.177-7.913 8.011a.954.954 0 0 0 0 1.333l7.947 8.165a.954.954 0 0 0 1.333.029l7.913-7.47a.948.948 0 0 0 .046-1.333l-7.964-8.711a.955.955 0 0 0-1.362-.029v.005ZM348.724 200.061l-6.367 6.447a2.025 2.025 0 0 0 0 2.873l6.488 6.648a2.032 2.032 0 0 0 2.873.057l6.361-6c.823-.764.872-2.05.109-2.873l-6.522-7.1a2.033 2.033 0 0 0-2.942-.052Zm-25.283 25.278-6.373 6.447a2.034 2.034 0 0 0 0 2.873l6.482 6.6a2.028 2.028 0 0 0 2.844.063l6.367-6.011a2.023 2.023 0 0 0 .1-2.844l-6.482-7.068a2.028 2.028 0 0 0-2.942-.057l.004-.003Zm37.201-13.36-6.373 6.447a2.027 2.027 0 0 0 0 2.873l6.482 6.648c.776.81 2.062.838 2.873.063l6.361-6.039a2.04 2.04 0 0 0 .1-2.873l-6.482-7.085a2.025 2.025 0 0 0-2.965-.034h.004Zm12.509 12.515-6.366 6.447a2.028 2.028 0 0 0 0 2.844l6.488 6.648a2.028 2.028 0 0 0 2.873.057l6.361-6a2.034 2.034 0 0 0 .109-2.873l-6.482-7.091a2.038 2.038 0 0 0-2.982-.029l-.001-.003Zm12.663 12.653-6.367 6.453a2.03 2.03 0 0 0 0 2.844l6.487 6.648c.772.795 2.041.82 2.844.057l6.367-6a2.034 2.034 0 0 0 .109-2.873l-6.493-7.039a2.038 2.038 0 0 0-2.948-.086l.001-.004Zm-50.049-.292-6.372 6.447a2.028 2.028 0 0 0 0 2.844l6.482 6.648a2.032 2.032 0 0 0 2.873.057l6.367-6a2.04 2.04 0 0 0 .1-2.873l-6.482-7.085a2.025 2.025 0 0 0-2.971-.034l.003-.004Zm12.511 12.508-6.365 6.449a2.026 2.026 0 0 0 0 2.873l6.487 6.648a2.032 2.032 0 0 0 2.873.057l6.361-6a2.034 2.034 0 0 0 .109-2.873l-6.482-7.091a2.033 2.033 0 0 0-2.982-.063h-.001Zm12.659 12.66-6.367 6.453a2.03 2.03 0 0 0 0 2.845l6.488 6.648a2.034 2.034 0 0 0 2.873.057l6.361-6.011c.81-.758.858-2.026.109-2.844l-6.482-7.091a2.036 2.036 0 0 0-2.982-.057Zm37.534-12.217-6.367 6.453a2.028 2.028 0 0 0 0 2.844l6.487 6.648c.373.39.886.615 1.425.625a2.023 2.023 0 0 0 1.448-.568l6.367-6a2.03 2.03 0 0 0 .1-2.873l-6.522-7.056a2.034 2.034 0 0 0-1.456-.667 2.031 2.031 0 0 0-1.486.598l.004-.004Zm12.659 12.659-6.372 6.453a2.028 2.028 0 0 0 0 2.844l6.487 6.648a2.032 2.032 0 0 0 2.873.057l6.367-6.011c.808-.761.852-2.03.1-2.845l-6.516-7.1a2.031 2.031 0 0 0-2.942-.052l.003.006Zm13.447 11.849-7.912 8.045a.948.948 0 0 0 0 1.333l7.972 8.131a.948.948 0 0 0 1.333 0l7.913-7.47a.954.954 0 0 0 .046-1.333l-7.962-8.711a.951.951 0 0 0-1.391.006l.001-.001Zm11.216 11.188-7.912 8.045a.948.948 0 0 0 0 1.333l7.97 8.166a.948.948 0 0 0 1.333 0l7.912-7.47a.954.954 0 0 0 .046-1.333l-7.964-8.711a.955.955 0 0 0-1.385-.029v-.001Zm12.552 12.567-7.918 8.045a.948.948 0 0 0 0 1.327l7.964 8.171a.954.954 0 0 0 1.333 0l7.913-7.47a.948.948 0 0 0 .052-1.333l-7.964-8.711a.952.952 0 0 0-1.379-.029h-.001Zm12.151 12.142-7.913 8.045a.948.948 0 0 0 0 1.333l7.964 8.165a.96.96 0 0 0 1.339 0l7.907-7.47a.948.948 0 0 0 .052-1.333l-7.964-8.711a.955.955 0 0 0-1.385-.029Zm-99.369-73.69-6.373 6.459a2.03 2.03 0 0 0 0 2.844l6.488 6.648a2.023 2.023 0 0 0 2.873.058l6.367-6c.82-.766.865-2.052.1-2.873l-6.516-7.074a2.021 2.021 0 0 0-2.942-.057l.003-.005Zm12.659 12.659-6.373 6.441a2.028 2.028 0 0 0 0 2.844l6.488 6.648a2.02 2.02 0 0 0 2.873.057l6.367-6a2.04 2.04 0 0 0 .1-2.873l-6.482-7.085a2.023 2.023 0 0 0-2.976-.029l.003-.003Zm12.659 12.659-6.372 6.424a2.028 2.028 0 0 0 0 2.844l6.482 6.648a2.027 2.027 0 0 0 2.873.058l6.367-6a2.04 2.04 0 0 0 .1-2.873l-6.482-7.091a2.029 2.029 0 0 0-2.971-.006l.003-.004Zm12.659 12.658-6.373 6.447a2.028 2.028 0 0 0 0 2.844l6.482 6.648a2.032 2.032 0 0 0 2.873.057l6.367-6a2.04 2.04 0 0 0 .1-2.873l-6.482-7.091a2.03 2.03 0 0 0-2.971-.029l.004-.003Zm13.457 11.849-7.918 8.01a.954.954 0 0 0 0 1.333l7.964 8.166a.948.948 0 0 0 1.333 0l7.912-7.47a.948.948 0 0 0 .052-1.333l-7.964-8.717a.95.95 0 0 0-1.379.011Zm11.205 11.222-7.918 8.01a.954.954 0 0 0 0 1.333l7.964 8.166a.948.948 0 0 0 1.333 0l7.912-7.47a.948.948 0 0 0 .052-1.333l-7.958-8.706a.946.946 0 0 0-1.385 0Zm12.544 12.526-7.913 8.045a.954.954 0 0 0 0 1.333l7.964 8.165a.948.948 0 0 0 1.333.029l7.913-7.47a.948.948 0 0 0 .052-1.333l-7.97-8.711a.955.955 0 0 0-1.379-.057v-.001Zm12.159 12.183-7.917 7.987a.954.954 0 0 0 0 1.333l7.964 8.165a.948.948 0 0 0 1.333.029l7.913-7.47a.948.948 0 0 0 .052-1.333l-7.953-8.711a.943.943 0 0 0-1.391 0h-.001Zm24.181.099-7.913 8.045a.948.948 0 0 0 0 1.333l7.97 8.165a.948.948 0 0 0 1.333.029l7.913-7.47a.954.954 0 0 0 .046-1.333l-7.964-8.711a.953.953 0 0 0-1.385-.057v-.001Zm12.153 12.158-7.936 8.01a.948.948 0 0 0 0 1.333l7.987 8.165a.948.948 0 0 0 1.333.029l7.913-7.47a.953.953 0 0 0 .046-1.333l-7.964-8.711a.945.945 0 0 0-1.379-.023ZM423.23 323.18l-7.47 7.545a1.275 1.275 0 0 0 0 1.787l7.522 7.711a1.277 1.277 0 0 0 1.787.034l7.47-7.028a1.28 1.28 0 0 0 .08-1.758l-7.522-8.229a1.283 1.283 0 0 0-1.868-.063l.001.001Zm12.153 12.153-7.47 7.545a1.275 1.275 0 0 0 0 1.787l7.522 7.711a1.277 1.277 0 0 0 1.787.034l7.47-7.028a1.276 1.276 0 0 0 .069-1.787l-7.545-8.229a1.278 1.278 0 0 0-1.833-.034v.001Zm12.177 12.153-7.47 7.545a1.275 1.275 0 0 0 0 1.787l7.522 7.711c.485.498 1.28.516 1.787.04l7.47-7.034c.51-.476.541-1.273.069-1.787l-7.522-8.223a1.267 1.267 0 0 0-1.856-.04v.001Zm12.372 11.913-7.913 8.016a.954.954 0 0 0 0 1.333l7.97 8.166a.948.948 0 0 0 1.333 0l7.913-7.47a.948.948 0 0 0 .046-1.333l-7.964-8.711a.952.952 0 0 0-1.385 0v-.001Zm-123.735-147.48-6.792 6.93a2.025 2.025 0 0 0 0 2.873l18.962 18.769a2.033 2.033 0 0 0 2.821.034l7.08-6.66a2.037 2.037 0 0 0 .04-2.925l-19.25-19.043a2.029 2.029 0 0 0-2.861.022Zm124.124 122.587-8.3 8.458a.965.965 0 0 0 0 1.345l20.462 20.256a.949.949 0 0 0 1.321 0l8.656-8.143a.946.946 0 0 0 0-1.368l-20.819-20.595a.954.954 0 0 0-1.32.047Zm-86.314-60.601-7.927 7.85a.945.945 0 0 0 0 1.339l44.125 45.229a.954.954 0 0 0 1.333 0l8.619-8.131a.946.946 0 0 0 0-1.362l-44.816-44.937a.954.954 0 0 0-1.334.012Z" opacity=".1"/><path fill="#464A5F" d="m360.295 187.093-6.4 6.464a2.028 2.028 0 0 0 0 2.844l6.482 6.648a2.033 2.033 0 0 0 2.873.057l6.367-6.011a2.028 2.028 0 0 0 .1-2.844l-6.482-7.091a2.03 2.03 0 0 0-2.948-.069l.008.002Zm11.916 11.928-6.373 6.447a2.028 2.028 0 0 0 0 2.844l6.482 6.648a2.032 2.032 0 0 0 2.873.057l6.367-6a2.04 2.04 0 0 0 .1-2.873l-6.5-7.068a2.03 2.03 0 0 0-2.948-.052l-.001-.003Zm12.512 12.51-6.373 6.453a2.034 2.034 0 0 0 0 2.844l6.476 6.637a2.034 2.034 0 0 0 2.873.057l6.367-6.011a2.031 2.031 0 0 0 .1-2.873l-6.482-7.091a2.028 2.028 0 0 0-2.965-.017l.004.001Zm12.656 12.659-6.367 6.447a2.04 2.04 0 0 0 0 2.873l6.487 6.648a2.034 2.034 0 0 0 2.873.057l6.361-6.01c.81-.758.858-2.026.109-2.844l-6.516-7.114a2.032 2.032 0 0 0-2.948-.058l.001.001Zm12.659 12.658-6.367 6.447a2.034 2.034 0 0 0 0 2.873l6.487 6.643c.776.81 2.062.838 2.873.063l6.361-6.01a2.024 2.024 0 0 0 .109-2.873l-6.482-7.091a2.038 2.038 0 0 0-1.48-.677 2.037 2.037 0 0 0-1.502.625h.001Zm13.457 11.878-7.912 7.987a.948.948 0 0 0 0 1.327l7.97 8.171a.954.954 0 0 0 1.333.029l7.913-7.47a.948.948 0 0 0 .046-1.333l-7.97-8.711a.955.955 0 0 0-1.379 0h-.001Zm12.659 12.642-7.913 8.016a.948.948 0 0 0 0 1.327l7.97 8.171a.954.954 0 0 0 1.333 0l7.913-7.47a.948.948 0 0 0 .046-1.333l-7.97-8.711a.955.955 0 0 0-1.379 0Zm11.204 11.193-7.913 8.016a.948.948 0 0 0 0 1.327l7.964 8.194a.954.954 0 0 0 1.333 0l7.912-7.47a.948.948 0 0 0 .046-1.333l-7.964-8.711a.959.959 0 0 0-.685-.307.957.957 0 0 0-.694.284h.001Zm12.55 12.55-7.913 8.01a.948.948 0 0 0 0 1.333l7.97 8.165a.948.948 0 0 0 1.333.029l7.913-7.47a.954.954 0 0 0 .046-1.333l-7.964-8.717a.956.956 0 0 0-1.385-.017Zm12.153 12.153-7.913 8.01a.948.948 0 0 0 0 1.333l7.964 8.2a.954.954 0 0 0 1.333 0l7.912-7.47a.953.953 0 0 0 .046-1.333l-7.987-8.711a.955.955 0 0 0-1.356-.029h.001Zm12.152 12.154-7.912 8.045a.948.948 0 0 0 0 1.327l7.97 8.171a.954.954 0 0 0 1.333 0l7.912-7.47a.948.948 0 0 0 .046-1.333l-7.964-8.711a.955.955 0 0 0-1.385-.029Zm12.154 12.153-7.913 8.045a.954.954 0 0 0 0 1.333l7.947 8.137a.954.954 0 0 0 1.333 0l7.913-7.47a.948.948 0 0 0 .046-1.333l-7.964-8.711a.953.953 0 0 0-1.362 0v-.001ZM348.728 198.67l-6.367 6.447a2.028 2.028 0 0 0 0 2.844l6.488 6.648c.373.39.885.615 1.425.625a2.023 2.023 0 0 0 1.448-.568l6.361-6a2.034 2.034 0 0 0 .109-2.873l-6.52-7.06a2.036 2.036 0 0 0-2.942-.063h-.002Zm-25.283 25.278-6.373 6.447a2.034 2.034 0 0 0 0 2.873l6.488 6.643a2.028 2.028 0 0 0 2.844.063l6.367-6.011c.82-.766.865-2.052.1-2.873l-6.487-7.074a2.023 2.023 0 0 0-2.942-.069l.003.001Zm37.2-13.359-6.373 6.447a2.03 2.03 0 0 0 0 2.844l6.481 6.649a2.027 2.027 0 0 0 2.873.058l6.361-6.016a2.04 2.04 0 0 0 .1-2.873l-6.482-7.085a2.025 2.025 0 0 0-2.965-.023l.005-.001Zm12.509 12.509-6.366 6.453a2.028 2.028 0 0 0 0 2.844l6.488 6.648c.373.39.886.615 1.425.625a2.023 2.023 0 0 0 1.448-.568l6.361-6a2.034 2.034 0 0 0 .109-2.873l-6.516-7.068a2.04 2.04 0 0 0-2.948-.057l-.001-.004Zm12.662 12.659-6.367 6.453a2.028 2.028 0 0 0 0 2.844l6.487 6.648a2.029 2.029 0 0 0 2.844.057l6.367-6a2.034 2.034 0 0 0 .109-2.873l-6.485-7.099a2.035 2.035 0 0 0-2.959-.035l.004.005Zm-50.047-.293-6.372 6.447a2.028 2.028 0 0 0 0 2.844l6.482 6.648a2.032 2.032 0 0 0 2.873.057l6.367-6a2.04 2.04 0 0 0 .1-2.873l-6.51-7.074a2.02 2.02 0 0 0-2.942-.046l.002-.003Zm12.51 12.509-6.367 6.453a2.028 2.028 0 0 0 0 2.844l6.487 6.648a2.033 2.033 0 0 0 2.873.057l6.361-6a2.034 2.034 0 0 0 .109-2.873l-6.482-7.091a2.037 2.037 0 0 0-1.483-.668 2.04 2.04 0 0 0-1.499.634l.001-.004Zm12.659 12.659-6.367 6.482a2.028 2.028 0 0 0 0 2.844l6.488 6.648a2.033 2.033 0 0 0 2.873.057l6.361-6.011c.81-.758.858-2.026.109-2.844l-6.482-7.091a2.037 2.037 0 0 0-2.982-.086v.001Zm37.533-12.216-6.367 6.453a2.028 2.028 0 0 0 0 2.844l6.487 6.649a2.032 2.032 0 0 0 2.873.057l6.367-6.011a2.022 2.022 0 0 0 .1-2.873l-6.482-7.091a2.03 2.03 0 0 0-2.982-.029l.004.001Zm12.658 12.658-6.373 6.453a2.028 2.028 0 0 0 0 2.844l6.488 6.649a2.03 2.03 0 0 0 2.873.057l6.367-6.01c.808-.76.852-2.029.1-2.844l-6.482-7.091a2.03 2.03 0 0 0-2.977-.057l.004-.001Zm13.446 11.849-7.912 8.016a.948.948 0 0 0 0 1.333l7.972 8.162a.948.948 0 0 0 1.333 0l7.912-7.47a.954.954 0 0 0 .046-1.333l-7.964-8.711a.955.955 0 0 0-1.385 0l-.002.003Zm11.217 11.205-7.912 8.016a.948.948 0 0 0 0 1.333l7.97 8.166a.95.95 0 0 0 1.333 0l7.912-7.47a.954.954 0 0 0 .046-1.333l-7.964-8.711a.955.955 0 0 0-1.385 0v-.001Zm12.551 12.55-7.918 8.016a.948.948 0 0 0 0 1.327l7.964 8.171a.954.954 0 0 0 1.333 0l7.913-7.47a.948.948 0 0 0 .052-1.333l-7.964-8.683a.952.952 0 0 0-1.379-.029l-.001.001Zm12.151 12.153-7.913 8.016a.948.948 0 0 0 0 1.333l7.964 8.165a.96.96 0 0 0 1.339 0l7.907-7.47a.948.948 0 0 0 .052-1.333l-7.964-8.711a.955.955 0 0 0-1.385 0Zm-99.366-73.701-6.373 6.447a2.028 2.028 0 0 0 0 2.844l6.487 6.648a2.02 2.02 0 0 0 2.873.057l6.367-6c.82-.766.865-2.052.1-2.873l-6.516-7.062a2.025 2.025 0 0 0-2.942-.057l.004-.004Zm12.658 12.66-6.373 6.447a2.029 2.029 0 0 0 0 2.873l6.488 6.648a2.02 2.02 0 0 0 2.873.057l6.367-6a2.04 2.04 0 0 0 .1-2.873l-6.482-7.085a2.025 2.025 0 0 0-2.977-.063l.004-.004Zm12.659 12.658-6.373 6.447a2.03 2.03 0 0 0 0 2.845l6.482 6.648a2.032 2.032 0 0 0 2.873.057l6.367-6a2.04 2.04 0 0 0 .1-2.873l-6.482-7.091a2.03 2.03 0 0 0-2.971-.029l.004-.004Zm12.658 12.654-6.372 6.453a2.025 2.025 0 0 0 0 2.873l6.482 6.648a2.032 2.032 0 0 0 2.873.057l6.367-6a2.04 2.04 0 0 0 .1-2.873l-6.482-7.091a2.033 2.033 0 0 0-2.971-.063l.003-.004Zm13.457 11.854-7.918 8.016a.954.954 0 0 0 0 1.333l7.964 8.165a.948.948 0 0 0 1.333.029l7.912-7.47a.953.953 0 0 0 .052-1.339l-7.964-8.711a.951.951 0 0 0-1.379-.023Zm11.205 11.205-7.918 8.01a.954.954 0 0 0 0 1.333l7.964 8.154a.948.948 0 0 0 1.333.029l7.912-7.47a.954.954 0 0 0 .052-1.339l-7.959-8.694a.945.945 0 0 0-1.385-.023h.001Zm12.543 12.544-7.913 8.045a.954.954 0 0 0 0 1.333l7.964 8.166a.948.948 0 0 0 1.333 0l7.913-7.47a.948.948 0 0 0 .052-1.333l-7.97-8.711a.952.952 0 0 0-1.379-.029v-.001Zm12.159 12.159-7.918 8.01a.954.954 0 0 0 0 1.333l7.964 8.16a.948.948 0 0 0 1.333 0l7.913-7.47a.948.948 0 0 0 .052-1.333l-7.953-8.677a.942.942 0 0 0-1.391-.023Zm24.18.121-7.913 8.045a.948.948 0 0 0 0 1.333l7.97 8.165a.948.948 0 0 0 1.333 0l7.913-7.47a.954.954 0 0 0 .046-1.333l-7.97-8.711a.952.952 0 0 0-1.379-.029Zm12.153 12.151-7.913 8.045a.948.948 0 0 0 0 1.333l7.97 8.165a.948.948 0 0 0 1.333 0l7.913-7.47a.953.953 0 0 0 .046-1.333l-7.97-8.683a.953.953 0 0 0-1.379-.058v.001Zm-61.569-11.347-7.47 7.545a1.275 1.275 0 0 0 0 1.787l7.522 7.711a1.277 1.277 0 0 0 1.787.034l7.47-7.028a1.282 1.282 0 0 0 .069-1.787l-7.522-8.229a1.286 1.286 0 0 0-.921-.415 1.287 1.287 0 0 0-.935.381v.001Zm12.153 12.154-7.47 7.545a1.275 1.275 0 0 0 0 1.787l7.539 7.734a1.276 1.276 0 0 0 1.764 0l7.47-7.028a1.275 1.275 0 0 0 .069-1.787l-7.539-8.217a1.281 1.281 0 0 0-1.833-.034Zm12.176 12.153-7.47 7.545a1.275 1.275 0 0 0 0 1.787l7.522 7.712a1.27 1.27 0 0 0 1.787.034l7.47-7.028a1.27 1.27 0 0 0 .069-1.787l-7.522-8.229a1.274 1.274 0 0 0-1.856-.034Zm12.371 11.912-7.913 8.045a.954.954 0 0 0 0 1.333l7.97 8.166a.954.954 0 0 0 1.333.029l7.913-7.47a.948.948 0 0 0 .046-1.333l-7.964-8.711a.953.953 0 0 0-1.385-.057v-.002ZM336.2 210.526l-6.792 6.936a2.029 2.029 0 0 0 0 2.873l18.962 18.772a2.033 2.033 0 0 0 2.821.034l7.08-6.66a2.035 2.035 0 0 0 .04-2.925l-19.25-19.043a2.028 2.028 0 0 0-2.861.013Zm124.121 122.59-8.3 8.476a.965.965 0 0 0 0 1.345l20.462 20.255a.949.949 0 0 0 1.321 0l8.656-8.143a.95.95 0 0 0 0-1.368l-20.819-20.595a.948.948 0 0 0-1.316.029l-.004.001Zm-86.312-60.601-7.927 7.85a.945.945 0 0 0 0 1.339l44.125 45.229a.954.954 0 0 0 1.333 0l8.619-8.131a.946.946 0 0 0 0-1.362l-44.821-44.941a.954.954 0 0 0-1.329.016Z"/><path fill="#000" d="m342.883 278.031-34.839 34.61a5.172 5.172 0 0 0-.057 7.275l64.438 66.174a5.172 5.172 0 0 0 7.332.081l35.874-35.288a5.17 5.17 0 0 0 .029-7.338l-65.473-65.513a5.173 5.173 0 0 0-7.304-.001Z" opacity=".1"/><path fill="#939498" d="m342.883 276.612-34.839 34.638a5.172 5.172 0 0 0-.057 7.275l64.438 66.174a5.177 5.177 0 0 0 3.649 1.565 5.176 5.176 0 0 0 3.683-1.484l35.873-35.293a5.171 5.171 0 0 0 .029-7.338l-65.473-65.502a5.172 5.172 0 0 0-7.303-.035Z"/><path fill="#584DFC" d="m376.344 94.994-8.82 61.669 163.434 162.908 8.321-61.128a10.801 10.801 0 0 0-3.074-9.1L379.97 93.773a2.139 2.139 0 0 0-3.626 1.217v.004Z"/><path fill="#584DFC" d="M169.561 393.917c7.335 0 13.28-.816 13.28-1.822 0-1.006-5.945-1.822-13.28-1.822-7.334 0-13.28.816-13.28 1.822 0 1.006 5.946 1.822 13.28 1.822Zm-50.876 5.16c7.334 0 13.28-.816 13.28-1.822 0-1.006-5.946-1.822-13.28-1.822-7.335 0-13.28.816-13.28 1.822 0 1.006 5.945 1.822 13.28 1.822Zm-59.918-6.982c7.334 0 13.28-.816 13.28-1.822 0-1.006-5.946-1.822-13.28-1.822-7.335 0-13.28.816-13.28 1.822 0 1.006 5.945 1.822 13.28 1.822Zm80.282 21.146c5.214 0 9.441-.582 9.441-1.299s-4.227-1.299-9.441-1.299-9.441.582-9.441 1.299 4.227 1.299 9.441 1.299Zm-52.798-1.298c5.214 0 9.441-.581 9.441-1.299 0-.717-4.227-1.299-9.44-1.299-5.215 0-9.442.582-9.442 1.299 0 .718 4.227 1.299 9.441 1.299Z" opacity=".1"/><path fill="#584DFC" d="M118.409 396.847s18.624-61.06-2.919-85.487c-16.09-18.3-34.4-16.089-42.6-13.843a15.136 15.136 0 0 0-9.77 8.114c-2.872 6.183-2.343 16.21 17.872 27.915 33.857 19.6 35.96 46.487 35.96 46.487l1.457 16.814Z"/><path stroke="#2A2E71" d="M75.793 306.148s54.911 17.164 42.6 90.7"/><path stroke="#2A2E71" d="M107.874 312.302s-7.556 5.091-5.172 12.751m-21.387-8.217s4.6-4.7 10.246-2.109m11.458 25.755s8.114-4.12 10.217 1.04m9.866 7.547s-6.1-.483-6.206 2.431"/><path fill="#584DFC" d="M119.16 397.335s-21.836-44.375-27.812-43.407c-2.844.46-4.155 3.258-4.746 6.074a17.9 17.9 0 0 0 1.184 10.8c3.097 7.105 11.412 20.592 31.374 26.533Z"/><path stroke="#2A2E71" d="M91.515 362.346s22.893 33.207 27.318 34.661m-29.427-29.478h5.344m1.057 12.148 8.378.356m-3.281-10.073-.908 4.361m9.821 8.919-.167 3.965"/><path fill="#584DFC" d="M118.506 397.335s21.836-44.378 27.806-43.407c2.873.46 4.16 3.258 4.752 6.074a17.855 17.855 0 0 1-1.19 10.8c-3.091 7.105-11.408 20.592-31.368 26.533Z"/><path stroke="#2A2E71" d="M146.151 362.346s-22.9 33.207-27.323 34.661m29.426-29.478h-5.344m-1.057 12.148-8.378.356m3.281-10.073.908 4.361m-9.814 8.919.161 3.965"/><path fill="#584DFC" d="M81.051 407.696a3.763 3.763 0 0 1-1.24-1.873 1.666 1.666 0 0 1 .867-1.908 2.45 2.45 0 0 1 2.3.8 3.099 3.099 0 0 0 2.235 1.08 3.39 3.39 0 0 1-1.052-3.178 1.3 1.3 0 0 1 .293-.649c.442-.471 1.241-.27 1.77.1 1.69 1.183 2.155 3.448 2.166 5.533.095-.763.105-1.535.03-2.3a2.35 2.35 0 0 1 .855-2.017c.4-.211.848-.314 1.3-.3a2.687 2.687 0 0 1 2.12.575 2.094 2.094 0 0 1-.086 2.6 8.16 8.16 0 0 1-2.189 1.758 4.815 4.815 0 0 0-1.56 1.497 1.586 1.586 0 0 0-.116.264h-4.746a13.232 13.232 0 0 1-2.947-1.982Zm83.125-17.871a3.8 3.8 0 0 1-1.247-1.873 1.671 1.671 0 0 1 .868-1.908 2.447 2.447 0 0 1 2.3.8 3.06 3.06 0 0 0 2.23 1.074 3.4 3.4 0 0 1-1.052-3.178c.039-.236.14-.458.293-.643.442-.477 1.241-.27 1.776.1 1.684 1.184 2.155 3.448 2.161 5.528.096-.763.108-1.534.034-2.3a2.3 2.3 0 0 1 .856-2.017 2.526 2.526 0 0 1 1.3-.3 2.7 2.7 0 0 1 2.115.575 2.11 2.11 0 0 1-.08 2.6 8.166 8.166 0 0 1-2.2 1.724 4.989 4.989 0 0 0-1.563 1.494 1.26 1.26 0 0 0-.115.27H167.1a13.222 13.222 0 0 1-2.931-1.954l.007.008Zm-27.707 17.871a3.772 3.772 0 0 1-1.241-1.873 1.667 1.667 0 0 1 .868-1.908c.855-.16 1.73.144 2.3.8a3.098 3.098 0 0 0 2.235 1.08 3.391 3.391 0 0 1-1.051-3.178 1.3 1.3 0 0 1 .293-.649c.442-.471 1.241-.27 1.77.1 1.684 1.183 2.155 3.448 2.166 5.533.095-.763.104-1.535.029-2.3a2.352 2.352 0 0 1 .85-2.011c.4-.211.848-.314 1.3-.3a2.686 2.686 0 0 1 2.12.575 2.1 2.1 0 0 1-.086 2.6 8.16 8.16 0 0 1-2.189 1.758 4.818 4.818 0 0 0-1.569 1.494 1.673 1.673 0 0 0-.115.264h-4.746a13.254 13.254 0 0 1-2.934-1.985Zm-78.565-36.127s-1.78 2.327.822 5.838c2.603 3.511 4.746 6.482 3.88 8.671 0 0-3.926-6.528-7.12-6.614-3.196-.086-1.094-3.975 2.418-7.895Z"/><path fill="#000" d="M57.904 371.569a2.922 2.922 0 0 0-.362.73c-3.12 3.66-4.78 7.079-1.78 7.166 2.786.075 6.136 5.068 6.935 6.321a2.474 2.474 0 0 1-.092.287s-3.925-6.528-7.12-6.614c-3.195-.086-1.093-3.97 2.42-7.89Z" opacity=".1"/><path fill="#FFD037" d="M54.595 374.534c0 .822.092 1.483.207 1.483.115 0 .207-.661.207-1.483 0-.822-.115-.431-.23-.431s-.184-.39-.184.431Z"/><path fill="#FFD037" d="M53.463 375.511c.718.391 1.345.632 1.4.529.055-.103-.483-.494-1.2-.891s-.437-.1-.488 0c-.05.1-.429-.006.288.362Z"/><path fill="#584DFC" d="M67.306 371.569s1.776 2.327-.822 5.838-4.746 6.482-3.879 8.671c0 0 3.925-6.528 7.12-6.614 3.195-.086 1.092-3.975-2.419-7.895Z"/><path fill="#000" d="M67.306 371.569c.154.225.276.471.362.73 3.114 3.66 4.775 7.079 1.78 7.166-2.792.075-6.136 5.068-6.94 6.321.027.098.06.193.1.287 0 0 3.925-6.528 7.12-6.614 3.195-.086 1.089-3.97-2.422-7.89Z" opacity=".1"/><path fill="#FFD037" d="M70.623 374.534c0 .822-.092 1.483-.2 1.483-.108 0-.207-.661-.207-1.483 0-.822.115-.431.23-.431s.177-.39.177.431Z"/><path fill="#FFD037" d="M71.771 375.511c-.718.391-1.345.632-1.4.529-.055-.103.488-.494 1.207-.891.719-.397.437-.1.488 0 .051.1.4-.006-.295.362Z"/><path fill="#A8A8A8" d="M70.047 385.774s-4.976-.155-6.476-1.218-7.654-2.345-8.045-.632-7.47 8.516-1.856 8.562c5.614.046 13.05-.873 14.549-1.787 1.499-.914 1.828-4.925 1.828-4.925Z"/><path fill="#000" d="M53.584 391.888c5.62.046 13.055-.874 14.549-1.787 1.149-.7 1.592-3.183 1.724-4.333h.19s-.316 4.022-1.81 4.925c-1.494.903-8.935 1.833-14.55 1.787-1.62 0-2.183-.575-2.154-1.442.229.516.844.84 2.05.85Z" opacity=".2"/><path fill="url(#a)" d="M99.096 191.965c-.092 2.413 1.977 5.62 1.977 5.62.632 1.523 8.384 8.579 8.384 8.579l5.746 3.838a32.251 32.251 0 0 1-3.643 2.327c-2.8 1.431-4.327 6.166-4.327 6.166s-4.241 10.188 4.327 11.619l.161.029.77.833a56.738 56.738 0 0 0 5.016 5.034c1.442.983 5.861 8.4 5.861 8.4s4.683 7.689 10.918 8.045c6.235.356 6.217-6.792 5.746-7.24a2.856 2.856 0 0 1-.385-.977c1.488 2.4 3.517 5.545 4.172 5.982 1.08.713 4.6 6.321 4.6 6.321s4.419 10.1 5.137 11.171c.718 1.071 1.982 6.435 1.982 6.435s2.528 7.413 3.7 8.4c1.172.987 1.8 4.557 1.8 4.557s3.695 5.361 4.327 6.252a37.971 37.971 0 0 1 1.982 4.022s1.983 3.218 1.983 4.471c0 1.253 4.149 3.39 4.149 3.39s2.977 3.488 4.689 4.114c1.712.626 3.333 4.735 3.6 4.465a1.07 1.07 0 0 1 .511-.1l.7.7c2.735 2.724 8.2 8.154 9.6 9.412 1.9 1.724 6.223 1.965 9.826 1.253 1.85-.368 4.1-2.12 5.855-3.741a4.026 4.026 0 0 0 1.275-2.89 4.026 4.026 0 0 0-1.206-2.919c-1.724-1.661-3.718-3.482-4.6-3.764-1.621-.54-6.217-3.752-8.378-6.436a18.141 18.141 0 0 0-4.861-3.672l-.207-.121a17.957 17.957 0 0 1-.523-3s2.977-6.7 1.35-7.056c-1.627-.356-7.752-10.993-7.752-10.993-.086-8.045-7.47-14.837-7.47-14.837s-3.695-8.757-4.775-10.631a2.873 2.873 0 0 1 0-3.218 11.88 11.88 0 0 1-2.431-2.413c-.356-.8-2.074-6.9-2.074-6.9s-2.074-3.666-2.166-5.361c-.092-1.695-4.132-6.424-4.132-6.424s-1.638-7.964-3.448-9.4c-.35-.276-.3-1.327 0-2.839l.086-.092.276-.27.08-.08a29.538 29.538 0 0 0 2.333-2.592l.034-.046c.115-.144.224-.282.328-.425 2.615-3.574 4.235-12.067 4.235-12.067s.517-.241 1.19-.609a11.36 11.36 0 0 0 2.6-1.787.604.604 0 0 0 .092-.138.119.119 0 0 0 0-.046c.017-.035.033-.072.046-.109a.332.332 0 0 0 0-.063.883.883 0 0 0 0-.126v-.27a.662.662 0 0 0-.029-.23.14.14 0 0 1 0-.029 1.024 1.024 0 0 0-.046-.213v-.069a.694.694 0 0 0-.057-.2.47.47 0 0 0 0-.075l-.069-.213a.226.226 0 0 1 0-.052 11.058 11.058 0 0 0-.391-.885l-.155-.293a15.737 15.737 0 0 0-.885-1.511l-.046-.069c.632-1.781 1.856-4.919 2.994-6.045 1.62-1.609-.9-10.188-.9-10.188s-.54-6.074-1.264-7.861 0-2.046-.575-3.574c-.7-1.724-1.2-1.609-.3-5.539.339-1.483.862-3.114 1.333-4.637l.575.529c3.333 3.143 8.568 7.234 8.568 7.234s10.274 9.292 11.176 9.562c.902.27 3.609 9.384 3.609 9.384s-.632 15.1 7.66 15.727c3.522.264 5.016-2.459 5.557-5.672a17.114 17.114 0 0 0-4.063-14.027l-4.965-5.643-4.419-7.861a80.05 80.05 0 0 1-7.074-14.044 39.143 39.143 0 0 0-8.665-12.808l-.356-.35.46-.425s-.724-5.9-1.264-6.608c-.54-.708-2.523-4.827-2.523-5.746 0-.919-1.264-1.069-1.982-2.143 0 0-1.264-2.5-2.436-2.873a1.71 1.71 0 0 1-.575-.368 12.943 12.943 0 0 0-7.367-3.189l-.718-.069a40.322 40.322 0 0 0-4.792.069h-.04a8.72 8.72 0 0 1-3.1-2.172 24.36 24.36 0 0 0-5.039-3.476 9.857 9.857 0 0 0-6.068-1.368c-1.632.264-3.091 1.149-4.683 1.615-2.264.638-5.045.506-6.47 2.362-.684.885-.879 2.063-1.517 2.977-.908 1.3-2.574 1.9-3.511 3.183a4.882 4.882 0 0 0-.81 3.172c-.031.905.077 1.81.322 2.683.239.75.414 1.52.523 2.3a3.057 3.057 0 0 1-.063.379c-.126.575-.419 1.057-.534 1.615a2.893 2.893 0 0 0-.029.919c-.172 1.373.713 2.678 1.31 3.953.461.996.765 2.059.9 3.149a29.685 29.685 0 0 0-4.361 1.672 12.43 12.43 0 0 0-4.85 3.712 24.57 24.57 0 0 1-6.493 6.269 50.778 50.778 0 0 0-1.982 5.884c-.54 2.3-1.08 6.074-2.7 8.045s-2.367 7.821-2.367 7.821-2.166 3.482-2.166 4.2a30.688 30.688 0 0 0 0 5c.159.307.371.583.626.816l-.161.575a51.462 51.462 0 0 0-1.82 7.936Zm50.82-40.252a5.771 5.771 0 0 1-.161.575c0-.184.029-.362.04-.546l.121-.029Zm-20.538 76.378-.287-.264-.138-.126c.01-.074.028-.147.052-.218l.373.608Zm-14.94-36.575.115-.213.425-.77 3.448-2.816.442.4s-.362 3.752-1.258 3.574c-.207-.04-.3.822-.322 2.172-1.626-1.391-2.867-2.35-2.867-2.35l.017.003Z"/><path fill="#464353" d="M145.553 121.912s10.728-.965 13.28-.7l.7.063a12.571 12.571 0 0 1 7.154 3.178c.166.158.361.281.575.362 1.149.35 2.373 2.816 2.373 2.816s-2.724 21.543-2.724 21.807c0 .264-5.631 10.021-5.631 10.021l-5.453 2.115-9.407 1.327-.264-4.057s4.528-2.482 4.022-7.614c-.506-5.132-4.625-29.318-4.625-29.318Z"/><path fill="#ECB4B6" d="M150.829 147.5s-2.3 10.378 0 13.716c2.3 3.338-22.686-5.447-22.686-5.447l-4.6-8.269s1.724-1.224 3.666-2.8c2.735-2.2 6.011-5.085 6.011-6.321.031-2.136 17.609 9.121 17.609 9.121Z"/><path fill="#000" d="M150.829 147.5s-2.3 10.378 0 13.716c2.3 3.338-22.686-5.447-22.686-5.447l-4.6-8.269s1.724-1.224 3.666-2.8c2.735-2.2 6.011-5.085 6.011-6.321.031-2.136 17.609 9.121 17.609 9.121Z" opacity=".1"/><path fill="#000" d="M145.553 154.378c8.451 0 15.302-6.851 15.302-15.302s-6.851-15.302-15.302-15.302-15.302 6.851-15.302 15.302 6.851 15.302 15.302 15.302Z" opacity=".1"/><path fill="#ECB4B6" d="M145.553 153.671c8.451 0 15.302-6.851 15.302-15.302s-6.851-15.302-15.302-15.302-15.302 6.851-15.302 15.302 6.851 15.302 15.302 15.302Zm19.783 3.69c.057.575 1.149 1.764 2.632 3.172 3.252 3.092 8.361 7.12 8.361 7.12s10.027 9.142 10.918 9.407c.891.265 3.517 9.234 3.517 9.234s-.615 14.86 7.47 15.475c3.448.259 4.9-2.413 5.424-5.58a16.944 16.944 0 0 0-3.959-13.791l-4.8-5.591-4.31-7.74a78.555 78.555 0 0 1-6.947-13.791 38.474 38.474 0 0 0-8.441-12.642c-.9-.9-1.482-1.373-1.482-1.373l-4.022 1.23s-4.533 13.1-4.361 14.87Z"/><path fill="#C17174" d="m180.724 312.297 1.54 1.545c2.666 2.684 8 8.045 9.366 9.263 1.845 1.672 6.068 1.936 9.585 1.23 1.8-.356 4.022-2.086 5.712-3.678a3.952 3.952 0 0 0 .063-5.718c-1.666-1.632-3.62-3.448-4.459-3.706-1.58-.529-6.068-3.689-8.177-6.321a17.469 17.469 0 0 0-4.735-3.614c-1.517-.856-2.741-1.4-2.741-1.4l-6.154 12.399Z"/><path fill="#000" d="M182.896 312.296s.511.523 1.3 1.316c2.27 2.3 6.8 6.827 7.97 7.878 1.569 1.419 5.172 1.643 8.148 1.046a10.88 10.88 0 0 0 4.3-2.62 3.96 3.96 0 0 0 .144-5.827 15.176 15.176 0 0 0-3.327-2.7 22.282 22.282 0 0 1-6.953-5.384 14.785 14.785 0 0 0-4.022-3.074c-1.287-.73-2.327-1.189-2.327-1.189l-5.233 10.554Z" opacity=".1"/><path fill="#C17174" d="M110.841 228.754s1.207 1.362 2.672 2.959a54.557 54.557 0 0 0 4.89 4.953c1.408.971 5.717 8.269 5.717 8.269s4.6 7.562 10.642 7.913 6.068-6.683 5.626-7.12c-.442-.437-1.052-4.4-1.931-7.3-.667-2.2-6.12-7.413-8.729-9.82a89.401 89.401 0 0 0-1.385-1.258l-17.502 1.404Z"/><path fill="#000" d="M112.134 229.763s1.092 1.241 2.431 2.7a50.962 50.962 0 0 0 4.459 4.517c1.287.885 5.212 7.539 5.212 7.539s4.172 6.9 9.705 7.211c5.533.311 5.528-6.091 5.131-6.493-.397-.402-.965-4.022-1.764-6.654-.609-2-5.58-6.758-7.959-8.953-.764-.707-1.264-1.149-1.264-1.149l-15.951 1.282Z" opacity=".1"/><path fill="#000" d="M110.841 228.754s1.207 1.362 2.672 2.959c7.723 1.149 11.314-.144 11.314-.144a36.156 36.156 0 0 1 4.4-1.672c.2 0 .345-.523.506-1.293-.839-.776-1.385-1.258-1.385-1.258l-17.507 1.408Z" opacity=".1"/><path fill="#5E5A6B" d="M120.144 208.002a62.95 62.95 0 0 1-7.579 5.361c-2.741 1.414-4.206 6.057-4.206 6.057s-4.132 10.027 4.218 11.429c8.35 1.402 12.228 0 12.228 0a36.186 36.186 0 0 1 4.4-1.666c.793-.086.787-7.654 3.689-9.941 2.902-2.287 9.585-7.47 9.585-7.47l-22.335-3.77Z"/><path fill="#000" d="M120.144 208.002a62.95 62.95 0 0 1-7.579 5.361c-2.741 1.414-4.206 6.057-4.206 6.057s-4.132 10.027 4.218 11.429c8.35 1.402 12.228 0 12.228 0a36.186 36.186 0 0 1 4.4-1.666c.793-.086.787-7.654 3.689-9.941 2.902-2.287 9.585-7.47 9.585-7.47l-22.335-3.77Z" opacity=".1"/><path fill="#5E5A6B" d="M165.328 195.952s3.448 4.695 2.379 5.821a15.997 15.997 0 0 1-3.689 2.356s-1.586 8.355-4.137 11.872a46.421 46.421 0 0 1-7.556 7.39l3.511-19.612 9.492-7.827Z"/><path fill="#000" d="M152.333 223.392a58.016 58.016 0 0 0 4.494-3.942 28.195 28.195 0 0 0 3.057-3.448c2.551-3.517 4.137-11.872 4.137-11.872a15.664 15.664 0 0 0 3.689-2.356c.644-.684-.374-2.678-1.27-4.143a26.342 26.342 0 0 0-1.1-1.678l-4.982 4.1-4.517 3.723-1.327 7.6-2.181 12.016Zm28.392 88.904 1.54 1.546c.971 0 2.419.121 2.419.121s7.12-8.533 5.976-10.027a7.288 7.288 0 0 1-1.04-2.649c-1.517-.856-2.741-1.4-2.741-1.4l-6.154 12.409Z" opacity=".1"/><path fill="#5E5A6B" d="M126.384 222.247c0 1.494 11.958 19.784 11.958 19.784s4.66 7.913 5.718 8.619c1.058.706 4.482 6.24 4.482 6.24s4.31 9.935 5.017 10.993c.707 1.058 1.931 6.321 1.931 6.321s2.465 7.3 3.609 8.263c1.144.963 1.758 4.488 1.758 4.488s3.6 5.275 4.218 6.154a37.933 37.933 0 0 1 1.936 3.953s1.937 3.166 1.937 4.4c0 1.234 4.022 3.339 4.022 3.339s2.873 3.448 4.568 4.022c1.695.574 3.258 4.66 3.517 4.4.259-.26 3.258 0 3.258 0s7.12-8.527 5.976-10.021c-1.144-1.494-1.408-5.016-1.408-5.016s2.873-6.591 1.322-6.941c-1.551-.35-7.533-10.786-7.533-10.786-.086-7.913-7.3-14.6-7.3-14.6s-3.609-8.619-4.66-10.464a2.84 2.84 0 0 1 0-3.166 11.658 11.658 0 0 1-2.376-2.371c-.35-.793-2.023-6.769-2.023-6.769s-2.023-3.609-2.115-5.281c-.092-1.672-4.022-6.321-4.022-6.321s-1.6-7.832-3.356-9.24c-.345-.276-.287-1.3 0-2.8.81-3.936 3.39-11.05 5.172-15.71a287.779 287.779 0 0 1 1.77-4.534l-3.4.85-28.961 7.24s-1.569 4.212-2.948 8.183a46.803 46.803 0 0 0-2.067 6.771Z"/><path fill="#000" d="M182.575 294.265s9.056-3.517 4.6.966c-4.456 4.483-13.01 4.223-13.01 4.223l8.41-5.189Zm-15.48-17.957s-5.1 2.816-4.132 5.539 4.132-5.539 4.132-5.539Zm-5.113-21.79a5.331 5.331 0 0 1-5.017 2.72c-3.672-.083 5.017-2.72 5.017-2.72Zm-47.816-39.12s1.936 5.982 0 6.419c-1.936.437 0-6.419 0-6.419Zm51.17-58.038c.058.575 1.149 1.764 2.632 3.172.839-2.7 1.621-5.172 1.149-5.988-.7-1.23 2.046-3.867 1.552-5.626-.379-1.345 2.931-4.752 4.505-6.275-.9-.9-1.482-1.373-1.482-1.373l-4.022 1.23s-4.506 13.091-4.334 14.86Zm-36.889 58.118c3.339-.184 11.125-2.6 11.125-2.6a112.74 112.74 0 0 0 14.94-1.505c2.873-.575 4.965-1.4 4.965-2.482 0-1.454 1.189-3.4 2.54-5.172a41.008 41.008 0 0 1 2.954-3.35 5.33 5.33 0 0 0 1.224-1.982c.08-.236.178-.5.276-.776-.575-.954-1.1-1.678-1.1-1.678l-4.982 4.1-28.961 7.24s-1.621 4.232-2.981 8.205Z" opacity=".1"/><path fill="#464353" d="M118.818 209.761s6.5 3.867 8.441 4.568c1.941.701 12.309-2.505 12.309-2.505s19.876-.655 19.876-4.022c0-2.58 3.769-6.729 5.493-8.487a5.327 5.327 0 0 0 1.224-1.988c.6-1.724 1.822-4.924 2.954-6.057 1.586-1.58-.879-10.021-.879-10.021s-.529-5.982-1.23-7.74 0-2.017-.575-3.517c-.678-1.684-1.149-1.586-.293-5.453.856-3.867 2.988-8.792 2.3-10.027-.688-1.235 2.046-3.867 1.551-5.625-.495-1.758 5.3-7.033 5.3-7.033s-.724-5.752-1.247-6.488c-.523-.736-2.459-4.746-2.459-5.626 0-.88-1.235-1.057-1.937-2.109s-8.82 27.26-8.82 27.26l-11.832 2.666-.655.144s-6.729.316-11.1-2.109c0 0-7.545-1.23-10.01-13.716a28.96 28.96 0 0 0-5.47 1.977 12.162 12.162 0 0 0-4.729 3.649 23.937 23.937 0 0 1-6.321 6.171 51.272 51.272 0 0 0-1.936 5.786c-.523 2.3-1.052 5.982-2.638 7.918-1.586 1.936-2.3 7.734-2.3 7.734l15.854 14.429s-.351 3.695-1.23 3.517c-.879-.178.359 16.704.359 16.704Z"/><path fill="#000" d="m121.793 144.552 8.458 17.635s3.517 2.3 4.752 1.052c1.235-1.248 5.89-1.23 5.89-1.23l.615 1.23 8.912-2.1-1.4-2.873-.655.149s-6.729.316-11.1-2.109c0 0-7.545-1.235-10.01-13.722a28.88 28.88 0 0 0-5.462 1.968Z" opacity=".1"/><path fill="#464353" d="m121.793 143.852 8.458 17.629s3.517 2.3 4.752 1.057c1.235-1.243 5.89-1.23 5.89-1.23l.615 1.23 8.912-2.109-1.4-2.873-.655.144s-6.729.316-11.1-2.109c0 0-7.545-1.23-10.01-13.716a28.911 28.911 0 0 0-5.462 1.977Z"/><path fill="#000" d="M125.505 195.16s18.664 5.873 20.049 6.614c1.385.741-19.963-4.594-20.049-6.614Zm11.768 8.97s-4.907 2.729-6.666 1.758c-1.759-.971 6.666-1.758 6.666-1.758Zm15.405-32.616s4.723 25.232-2.258 32.616l2.258-32.616Zm7.764-37.989a5.287 5.287 0 0 0 .19-6.976 18.283 18.283 0 0 1-1.908-1.988 8.512 8.512 0 0 0-.931-1.528c-.908-.931-2.436-.684-3.683-1.063a8.274 8.274 0 0 1-3.017-2.132 23.685 23.685 0 0 0-4.913-3.448 9.697 9.697 0 0 0-5.924-1.345c-1.592.264-3.011 1.149-4.568 1.592-2.207.626-4.925.5-6.321 2.327-.661.868-.85 2.023-1.477 2.925-.885 1.276-2.511 1.873-3.448 3.132-1.029 1.419-.919 3.367-.477 5.062a6.971 6.971 0 0 1 .448 3.327c-.126.54-.408 1.04-.517 1.586-.287 1.425.632 2.775 1.247 4.1a10.34 10.34 0 0 1 .954 4.568c-.043.353.007.712.144 1.04.175.264.417.478.7.621l2.643 1.666c.124.088.265.151.414.184.517.08.833-.511 1.149-.908.885-1.057 2.569-.977 3.815-.379s2.27 1.58 3.522 2.149c2.936 1.339 6.321.149 9.5-.465a21.012 21.012 0 0 0 3.212-.724c.99-.402 1.934-.908 2.816-1.511a10.033 10.033 0 0 0 2.408-1.891 3.399 3.399 0 0 0 .8-3.114c-.259-.925-1.086-1.758-.919-2.787.325-1.785 2.986-2.848 4.141-4.02Z" opacity=".1"/><path fill="#464353" d="M160.442 132.825a5.292 5.292 0 0 0 .19-6.982 18.226 18.226 0 0 1-1.908-1.982 8.751 8.751 0 0 0-.931-1.534c-.908-.925-2.436-.678-3.683-1.057a8.293 8.293 0 0 1-3.017-2.138 23.43 23.43 0 0 0-4.913-3.448 9.697 9.697 0 0 0-5.924-1.345c-1.592.264-3.011 1.149-4.568 1.592-2.207.626-4.925.494-6.321 2.3-.661.873-.85 2.028-1.477 2.931-.885 1.276-2.511 1.873-3.448 3.132-1.029 1.419-.919 3.367-.477 5.062a6.947 6.947 0 0 1 .448 3.327c-.126.54-.408 1.04-.517 1.586-.287 1.425.632 2.775 1.247 4.091a10.342 10.342 0 0 1 .983 4.637 2.08 2.08 0 0 0 .144 1.046c.179.261.419.475.7.621l2.643 1.661c.124.09.265.155.414.19.517.075.833-.511 1.149-.914.885-1.057 2.569-.971 3.816-.379 1.247.592 2.27 1.58 3.522 2.149 2.936 1.339 6.321.149 9.5-.46a21.796 21.796 0 0 0 3.212-.73c.99-.4 1.934-.904 2.816-1.505a10.07 10.07 0 0 0 2.408-1.9 3.386 3.386 0 0 0 .8-3.109c-.259-.931-1.086-1.764-.919-2.787.295-1.826 2.956-2.889 4.111-4.055Z"/><path fill="#ECB4B6" d="M100.447 193.315c-.092 2.373 1.931 5.539 1.931 5.539.615 1.494 8.177 8.441 8.177 8.441l5.984 4.023s8 4.924 9.9 5.8c.948.443 1.965 2.3 2.752 4.114a47.848 47.848 0 0 1 1.333 3.448 7.866 7.866 0 0 0 6.683-6.987c.224-2.264.373-4.3.178-4.338-.442-.086-5.367-3.781-5.367-3.781s-5.712-3.695-7.562-7.384c-1.85-3.689-9.056-9.32-9.056-9.32l.115-.213.414-.759.879-2.9-13.791-6.154s-.339 1.12-.776 2.655a49.12 49.12 0 0 0-1.794 7.816Z"/><path fill="#000" d="M102.226 185.518a76.432 76.432 0 0 0 8.338 7.108c.856.5 3.856.19 4.953.052l.414-.758.879-2.9-13.791-6.154s-.362 1.106-.793 2.652Z" opacity=".1"/><path fill="#464353" d="M115.925 174.846s7.033 4.223 6.683 6.068c-.35 1.845-3.333 8.223-3.333 8.223l-3.35 2.77s-4.31.615-5.367 0c-1.057-.615-8.527-6.769-8.792-7.734a30.445 30.445 0 0 1 0-4.925c0-.7 2.109-4.137 2.109-4.137l3.08-5.447 8.97 5.182Z"/><path fill="#000" d="m139.572 212.864 2.069 5.557-3.488 3.3-.161.994-7.74 4.453-2.459-6.212 11.779-8.092Z" opacity=".1"/><path fill="#5E5A6B" d="m139.572 212.513 2.069 5.551-3.488 3.3-.161.994-7.74 4.453-2.459-6.212 11.779-8.086Z"/><path fill="#000" d="M156.454 136.445a2.007 2.007 0 0 1-.115-.994c.287-1.8 2.948-2.873 4.1-4.022a5.012 5.012 0 0 0 1.362-2.873 5.197 5.197 0 0 1-1.362 4.3c-1.06 1.043-3.393 2.029-3.985 3.589Zm-32.495-2.253c.305.973.712 1.911 1.212 2.8.664 1.43.992 2.992.96 4.568-.045.355.002.715.138 1.046.178.262.419.475.7.621l2.643 1.661c.124.093.267.158.419.19.511.075.827-.511 1.149-.908.885-1.057 2.574-.977 3.815-.385s2.27 1.58 3.523 2.155c2.942 1.333 6.321.149 9.5-.466a21.03 21.03 0 0 0 3.212-.73 14.766 14.766 0 0 0 2.816-1.506 10.05 10.05 0 0 0 2.413-1.9 3.821 3.821 0 0 0 .816-1.592 3.413 3.413 0 0 1-.816 3 10.21 10.21 0 0 1-2.413 1.9 14.706 14.706 0 0 1-2.816 1.505c-1.05.324-2.124.568-3.212.73-3.172.609-6.556 1.8-9.5.46-1.253-.575-2.3-1.551-3.523-2.149-1.223-.598-2.931-.678-3.815.379-.333.4-.649.988-1.149.914a1.162 1.162 0 0 1-.419-.19l-2.643-1.661a2.018 2.018 0 0 1-.7-.621 2.077 2.077 0 0 1-.138-1.046 10.346 10.346 0 0 0-.96-4.568c-.615-1.316-1.534-2.666-1.247-4.091a.965.965 0 0 1 .035-.116Zm.04-6.2c.4 1.036.558 2.151.46 3.258-.1-.621-.3-1.241-.46-1.85a8.313 8.313 0 0 1-.287-2.977c.051.53.147 1.055.287 1.569Z" opacity=".1"/><path fill="#584DFC" d="M12.429 88.923c6.864 0 12.429-5.565 12.429-12.43 0-6.863-5.565-12.428-12.429-12.428S0 69.63 0 76.494s5.565 12.429 12.429 12.429Zm337.356-52.371c6.864 0 12.429-5.565 12.429-12.43 0-6.863-5.565-12.428-12.429-12.428s-12.429 5.565-12.429 12.429 5.565 12.429 12.429 12.429Zm197.172 49.101c6.864 0 12.429-5.565 12.429-12.43 0-6.863-5.565-12.428-12.429-12.428s-12.429 5.565-12.429 12.429 5.565 12.429 12.429 12.429ZM37.281 165.894c11.504 0 20.83-9.326 20.83-20.83 0-11.504-9.326-20.83-20.83-20.83-11.504 0-20.83 9.326-20.83 20.83 0 11.504 9.326 20.83 20.83 20.83Zm254.411 308.578c11.504 0 20.83-9.326 20.83-20.83 0-11.504-9.326-20.83-20.83-20.83-11.504 0-20.83 9.326-20.83 20.83 0 11.504 9.326 20.83 20.83 20.83Zm277.48-12.009c11.504 0 20.83-9.326 20.83-20.83 0-11.504-9.326-20.83-20.83-20.83-11.504 0-20.83 9.326-20.83 20.83 0 11.504 9.326 20.83 20.83 20.83Z" opacity=".1"/><defs><linearGradient id="a" x1="480.67" x2="480.67" y1="325.458" y2="111.679" gradientUnits="userSpaceOnUse"><stop stop-color="gray" stop-opacity=".251"/><stop offset=".54" stop-color="gray" stop-opacity=".122"/><stop offset="1" stop-color="gray" stop-opacity=".102"/></linearGradient></defs></svg>