<svg xmlns="http://www.w3.org/2000/svg" width="354" height="276" fill="none"><path fill="#584DFC" d="M177.063 214.04c97.37 0 176.3 6.129 176.3 13.689 0 7.56-78.927 13.69-176.3 13.69S.763 235.29.763 227.729s78.934-13.689 176.3-13.689Z" opacity=".136"/><path fill="#DEDBFF" d="M238.047 275.851c26.348 0 47.706-3.715 47.706-8.297 0-4.582-21.358-8.297-47.706-8.297-26.347 0-47.706 3.715-47.706 8.297 0 4.582 21.359 8.297 47.706 8.297Z" opacity=".587"/><path fill="#D0D2D5" d="m213.078 228.145-73.919-.95.22-1.9 3.572-31.274h64.917l4.775 31.274.365 2.373.07.477Z"/><path fill="#000" d="M213.009 227.672H176.12l-36.961-.477.22-1.9h73.263l.367 2.377Z" opacity=".1"/><path fill="#D0D2D5" d="M224.926 225.776h-98.087v2.369h98.087v-2.369Z"/><path fill="#3F3D56" d="M318.507 6.189A6.17 6.17 0 0 0 312.368 0H38.446a6.169 6.169 0 0 0-6.139 6.2v166.034h286.2V6.189Z"/><path fill="#D0D2D5" d="M32.307 170.574v19.447a6.14 6.14 0 0 0 6.14 6.139h273.921a6.14 6.14 0 0 0 6.139-6.139v-19.447h-286.2Z"/><path fill="#fff" d="M308.082 10.412H44.154v149.261h263.928V10.412Z"/><path fill="#584DFC" d="M176.831 188.781a6.39 6.39 0 0 0 5.032-2.443c.183-.232.35-.476.5-.73l-3.514-.593 3.8.025c.735-1.6.778-3.432.12-5.065l-5.09 2.638 4.7-3.451a6.4 6.4 0 1 0-10.566 7.16 6.387 6.387 0 0 0 5.028 2.46l-.01-.001Z"/><path fill="#000" d="m183.227 196.157 29.49 29.619-4.526-29.619h-24.964Z" opacity=".1"/><path fill="#444053" d="M308.162 10.429H43.947v8.72h264.215v-8.72Z" opacity=".1"/><path fill="#584DFC" d="M214.709 11.947h-78.446a.58.58 0 0 0-.58.58v4.146c0 .32.26.58.58.58h78.446c.32 0 .58-.26.58-.58v-4.146a.58.58 0 0 0-.58-.58Z" opacity=".3"/><path fill="#3F3D56" d="M212.924 15.15h-.2l-.07-.062c.241-.29.373-.656.373-1.033a1.568 1.568 0 1 0-1.564 1.58 1.617 1.617 0 0 0 1.033-.377l.071.062v.195l1.215 1.215.361-.365-1.219-1.215Zm-1.456 0a1.087 1.087 0 1 1 .007-2.174 1.087 1.087 0 0 1-.007 2.174Z"/><path fill="#FA5959" d="M48.697 16.386a1.597 1.597 0 1 0 0-3.194 1.597 1.597 0 0 0 0 3.194Z" opacity=".8"/><path fill="#FED253" d="M53.09 16.386a1.597 1.597 0 1 0 0-3.194 1.597 1.597 0 0 0 0 3.194Z" opacity=".8"/><path fill="#8CCF4D" d="M57.487 16.386a1.597 1.597 0 1 0 0-3.194 1.597 1.597 0 0 0 0 3.194Z" opacity=".8"/><path fill="#584DFC" d="M190.101 74.458c-3.621-4.812-8.869-7.849-14.71-7.849-5.841 0-11.088 3.037-14.71 7.849a15.882 15.882 0 0 0 29.42 0Z"/><path fill="#584DFC" d="M158.768 77.274a3.827 3.827 0 0 1-.73-.415 2.936 2.936 0 0 1-.8-1.041 2.979 2.979 0 1 0-4.862.722c.208.22.446.412.705.568.338.196.613.484.792.83.34.685.807 1.3 1.377 1.809a12.08 12.08 0 0 0 1.888 1.327 27.536 27.536 0 0 0-1.552 8.114c-1.072.018-2.137.19-3.161.51a5.103 5.103 0 0 0-1.464.73 3.464 3.464 0 0 0-.361-.025 2.984 2.984 0 1 0 2.792 4.032c.24-.67.834-1.151 1.539-1.245.255-.03.511-.047.767-.05a26.735 26.735 0 0 0 3.547 11.064 8.697 8.697 0 0 0-3.3 4.505 1.23 1.23 0 0 0-.236.17 2.977 2.977 0 1 0 4.652 1.299 1.954 1.954 0 0 1 .485-2.107c.224-.215.459-.417.705-.606 3.364 3.928 7.367 6.446 12.366 6.745V87.558a18.402 18.402 0 0 1-15.149-10.284Zm41.413 13.158c-.12.002-.241.01-.361.025a5.608 5.608 0 0 0-1.464-.73 11.136 11.136 0 0 0-3.161-.51 28.09 28.09 0 0 0-1.551-8.11 12 12 0 0 0 1.888-1.327 6.46 6.46 0 0 0 1.427-1.9 1.75 1.75 0 0 1 .734-.726 2.978 2.978 0 1 0-4.148-1.315 2.822 2.822 0 0 1-.8 1.041c-.232.192-.476.37-.73.535a18.27 18.27 0 0 1-15.133 10.159v26.678c4.978-.3 9.006-2.829 12.366-6.745.261.207.481.394.668.568.596.552.802 1.407.523 2.17a2.979 2.979 0 1 0 5.011-.967 2.746 2.746 0 0 0-.349-.324c-.137-.108-.236-.17-.236-.17a8.582 8.582 0 0 0-3.319-4.505 26.706 26.706 0 0 0 3.547-11.064c.246.003.491.02.734.05a1.99 1.99 0 0 1 1.6 1.245 2.98 2.98 0 0 0 5.745-.9 3.023 3.023 0 0 0-2.983-3.178h-.008Z"/><path fill="url(#a)" d="M265.164 262.716a3.954 3.954 0 0 0-.9-1 11.963 11.963 0 0 1-3.1-6.691 67.945 67.945 0 0 0-1.294-7.388 24.313 24.313 0 0 0-1.46-3.6c-.415-.888-.938-2.626-1.7-3.248a1.118 1.118 0 0 0-.523-.253 6.152 6.152 0 0 0-1.5-2c-1.186-1.074-2.634-1.929-3.427-3.319a7.381 7.381 0 0 0-.8-1.365c-.535-.589-1.381-.83-1.875-1.452-.643-.8-.5-1.958-.415-2.983.085-1.025 0-2.253-.888-2.792-.531-.328-1.215-.295-1.767-.585a2.56 2.56 0 0 1-1.141-2.394c.017-.933.307-1.842.382-2.775.232-2.97-1.726-5.924-.971-8.8a17.97 17.97 0 0 1 1.427-3.053c.17-.338.309-.691.415-1.054 1.295.513 2.655.841 4.041.975-2.286-5.127-1.705-11.084-2.771-16.593l.137-.187a8.64 8.64 0 0 0 1.751-4.92c0-2.049-.958-3.966-1.39-5.974-.369-1.705-.353-3.489-.83-5.165a15.565 15.565 0 0 0-1.311-3 58.483 58.483 0 0 0-1.63-2.833l-1.6-5.277a25.467 25.467 0 0 0-2.966-7.11c-.531-.78-.693-2.365-1.51-2.837a3.653 3.653 0 0 0-2.157-.377 4.037 4.037 0 0 1-2.311-2.858 2.797 2.797 0 0 1 .083-.83h.141c1.825-.166 2.75-1.776 3.7-3.186 1.535-2.282.95-5.368 0-7.965a5.38 5.38 0 0 0-1.245-2.194c-1.332-1.245-3.439-.971-5.156-1.572-.577-.2-1.116-.5-1.7-.643a5.102 5.102 0 0 0-3.381.635 33.69 33.69 0 0 1-3.115 1.622c-1.1.415-2.448.742-2.717 1.867-.075.379-.044.771.091 1.133a4.237 4.237 0 0 0 1.282 1.85 7.39 7.39 0 0 0 4.509 10.3c.315.506.61 1.02.879 1.547.549.907.802 1.963.722 3.02-.3.319-.577.658-.83 1.016a19.594 19.594 0 0 0-2.489 5.546 58.987 58.987 0 0 0-2 7.579 57.192 57.192 0 0 0-2.983 6.471 14.62 14.62 0 0 1-3.891-.523l-3.5-.792a7.913 7.913 0 0 1-3.443-1.381c-.506-.415-.9-.967-1.415-1.377-.515-.41-1.547-.892-2.111-.552a1.649 1.649 0 0 0-.286.22c-.514-1.041-1-2.074-1.6-3.082a5.847 5.847 0 0 0-3.754-2.97c-.988-.159-2 .076-2.817.655-.946.672-1.539 2.074-.83 3.02.178.21.371.407.577.589.481.553.91 1.149 1.282 1.78a9.09 9.09 0 0 0 5.6 3.634l-.145.415c-.295.863-.921 1.9-.763 2.8l15.573 5.331c.999.406 2.06.64 3.136.693a5.025 5.025 0 0 0 1.245-.166v.83c.042 5.472-.83 10.906-.991 16.373a4.25 4.25 0 0 0 .631 2.854 3.202 3.202 0 0 0 3.049.83c.261-.044.519-.102.772-.174.371 1.376.638 2.778.8 4.194l1.029 7.409c.133.759.187 1.53.162 2.3-.12 1.738-1.037 3.294-1.7 4.9-.663 1.606-1.058 3.526-.187 5.028.274.465.651.859.9 1.34.312.745.453 1.55.415 2.356.067 2.235.128 4.472.182 6.712a.762.762 0 0 0-.523.1c-.863.672-.767 3.87-.83 4.862-.066 1.659 0 3.352-.091 5.028a29.947 29.947 0 0 1-1.083 6.675 4.262 4.262 0 0 1-.95 1.912 4.03 4.03 0 0 1-1.688.875 19.285 19.285 0 0 1-6.393.871 6.299 6.299 0 0 0-2.6.22 1.792 1.792 0 0 0-1.174 2.074 2.616 2.616 0 0 0 1.713 1.29 27.185 27.185 0 0 1 4.563 2.1c.56.381 1.149.716 1.763 1a9.175 9.175 0 0 0 1.817.448l7.355 1.269c1.506.257 3.319.415 4.277-.83a3.763 3.763 0 0 0 .568-2.439 32.708 32.708 0 0 1-.158-5.007 15.45 15.45 0 0 1 .772-2.875c.734-2.177 1.469-4.352 2.207-6.525a34.24 34.24 0 0 0 1.771-6.675 2.486 2.486 0 0 0-.539-2.294 1.453 1.453 0 0 0-.548-.282c-.025-2-.286-4-.174-6 .029-.5.079-1 .12-1.5a7.23 7.23 0 0 1 1.025 1.211c.709 1.112.971 2.58 2.053 3.319.921.631 2.286.6 2.933 1.51.208.35.365.729.465 1.124.376.978.94 1.873 1.659 2.634a13.33 13.33 0 0 0 1.025 2.63c.612 1.291 1.22 2.579 1.825 3.862a45.201 45.201 0 0 0 2.074 4.053 11.39 11.39 0 0 1 1.39 2.68 6.153 6.153 0 0 1-1.879 5.808 16.14 16.14 0 0 1-5.463 3.186c-.206.07-.396.183-.556.332-.17.201-.26.458-.253.722.075.977.75 1.805 1.692 2.074a6.335 6.335 0 0 0 2.833.1 42.063 42.063 0 0 0 15.274-4.513 5.385 5.385 0 0 0 1.821-1.406 2.127 2.127 0 0 0 .28-2.157Z"/><path fill="#2F2E41" d="M242.759 169.693a60.964 60.964 0 0 1 2.489 4.173c.543.942.983 1.939 1.315 2.974.481 1.659.469 3.431.83 5.123.415 1.991 1.386 3.891 1.386 5.932a8.522 8.522 0 0 1-1.751 4.878 23.132 23.132 0 0 1-3.659 3.775 77.854 77.854 0 0 1-5.177-25.392 8.913 8.913 0 0 1 .39-3.568c.27-.705 1.564-2.638 2.4-1.879.3.278.382 1.531.568 1.95.35.709.755 1.388 1.211 2.033l-.002.001Z"/><path fill="#000" d="M242.759 169.693a60.964 60.964 0 0 1 2.489 4.173c.543.942.983 1.939 1.315 2.974.481 1.659.469 3.431.83 5.123.415 1.991 1.386 3.891 1.386 5.932a8.522 8.522 0 0 1-1.751 4.878 23.132 23.132 0 0 1-3.659 3.775 77.854 77.854 0 0 1-5.177-25.392 8.913 8.913 0 0 1 .39-3.568c.27-.705 1.564-2.638 2.4-1.879.3.278.382 1.531.568 1.95.35.709.755 1.388 1.211 2.033l-.002.001Z" opacity=".1"/><path fill="#D0D2D5" d="M133.393 113.095c-3.281 3.277-3.675 4.721-5.646 5.372-1.971.651-9.06 4.323-6.832 8.392l5.99 3.957.174.116.917 2.754-9.06 16.129s-14.934-6.828-16.4 3.273c-1.466 10.101-.535 12.86-.929 18.253-.394 5.393.129 6.953-1.186 6.953s-1.834-3.543-1.834-3.543-.083-.162-.228-.465c-1.954-4.061-15.216-33.875 6.027-54.368 0 0 9.84-.647 12.208-11.931 1.634-7.8 7.351-7.127 11.151-5.538a12.588 12.588 0 0 1 3.41 2 16.772 16.772 0 0 1 2.443 2.9c1.085 1.718 1.674 3.863-.205 5.746Z"/><path fill="#000" d="m127.079 130.938.917 2.755-9.06 16.129s-14.934-6.828-16.4 3.273c-1.466 10.101-.535 12.86-.929 18.253-.394 5.393.129 6.953-1.186 6.953s-1.834-3.543-1.834-3.543-.083-.162-.228-.465c-.66-5.044-4-34.551 8.118-32.983 0 0 9.836 4.6 11.408 2.763 1.245-1.452 6.77-9.8 9.018-13.229l.176.094ZM133.6 107.333l-5.99 6.807s-6.957 9.309-8.4 8.915a6.764 6.764 0 0 0-1.315-.153 2.553 2.553 0 0 1-1.659-4.306c2.373-2.489 6.745-7.214 7.031-8.263.286-1.049 3.07-5.65 4.464-7.9a12.588 12.588 0 0 1 3.41 2c.927.87 1.752 1.843 2.459 2.9Z" opacity=".1"/><path fill="#454B69" d="M303.084 205.274c-1.016 2.033-6.222 9.657-8.5 12.988l-1.066 1.568s-.415 2.754-7.214-.66-166.549-70.822-166.549-70.822l-1.083-3.252 7.882-11.8 175.091 67.645s2.754 1.705 1.439 4.333Z"/><path fill="#000" d="m294.584 218.26-1.066 1.568s-.415 2.754-7.214-.66-166.549-70.82-166.549-70.82l-1.083-3.252 175.912 73.164Z" opacity=".1"/><path fill="#FBBEBE" d="M198.226 174.229a5.82 5.82 0 0 0-4.683.917 3.853 3.853 0 0 0-1.344 2.555c-.108 1.149.56 2.514 1.713 2.6.278.003.555-.015.83-.054a12.47 12.47 0 0 1 2.174.182 8.873 8.873 0 0 0 7.562-3.053c.991-1.245-.315-1.784-1.485-2.033-1.601-.339-3.165-.857-4.767-1.114Z"/><path fill="#3F3D56" d="m225.971 211.692 1.029 7.309c.131.755.184 1.521.158 2.286-.12 1.721-1.037 3.265-1.7 4.858-.663 1.593-1.062 3.5-.187 4.978.27.46.647.855.892 1.332.311.738.453 1.535.415 2.335l.282 10.371c3.203.218 6.417.2 9.616-.054a.53.53 0 0 0 .348-.108.559.559 0 0 0 .12-.377c.141-2.427-.282-4.858-.145-7.284.05-.888.174-1.771.191-2.663.05-3.613-1.734-7.152-1.195-10.723.17-.901.391-1.792.664-2.667 1.7-6.222 1.344-12.76.967-19.186a.449.449 0 0 0-.083-.29.439.439 0 0 0-.224-.12 11.8 11.8 0 0 0-10.694 2.033c-.452.365-1.593.718-1.892 1.153-.415.606.129 1.211.369 1.854a23.593 23.593 0 0 1 1.069 4.963Z"/><path fill="#000" d="m225.971 211.692 1.029 7.309c.131.755.184 1.521.158 2.286-.12 1.721-1.037 3.265-1.7 4.858-.663 1.593-1.062 3.5-.187 4.978.27.46.647.855.892 1.332.311.738.453 1.535.415 2.335l.282 10.371c3.203.218 6.417.2 9.616-.054a.53.53 0 0 0 .348-.108.559.559 0 0 0 .12-.377c.141-2.427-.282-4.858-.145-7.284.05-.888.174-1.771.191-2.663.05-3.613-1.734-7.152-1.195-10.723.17-.901.391-1.792.664-2.667 1.7-6.222 1.344-12.76.967-19.186a.449.449 0 0 0-.083-.29.439.439 0 0 0-.224-.12 11.8 11.8 0 0 0-10.694 2.033c-.452.365-1.593.718-1.892 1.153-.415.606.129 1.211.369 1.854a23.593 23.593 0 0 1 1.069 4.963Z" opacity=".1"/><path fill="#3F3D56" d="M245.206 209.49a18.111 18.111 0 0 0-1.427 3.028c-.755 2.858 1.2 5.808.967 8.736-.075.925-.361 1.825-.382 2.75a2.569 2.569 0 0 0 1.141 2.381c.552.282 1.245.253 1.763.577.875.535.975 1.751.888 2.771-.087 1.02-.232 2.161.415 2.958.494.618 1.34.859 1.871 1.444.316.42.584.873.8 1.352.792 1.386 2.24 2.232 3.427 3.319 1.187 1.087 2.19 2.68 1.659 4.186a4.618 4.618 0 0 1-2.539 2.3 26.928 26.928 0 0 1-6.044 2.136 1.452 1.452 0 0 1-.693.037 1.483 1.483 0 0 1-.606-.415 11.26 11.26 0 0 1-3.053-4.07 4.16 4.16 0 0 0-.465-1.112c-.647-.908-2.012-.875-2.933-1.5-1.079-.734-1.34-2.19-2.045-3.29a36.608 36.608 0 0 0-2.489-2.721c-1.269-1.61-1.58-3.758-2.489-5.6-.386-.78-.879-1.51-1.186-2.323-.309-.973-.5-1.981-.568-3-.585-4.845-2.074-9.724-1.137-14.519.207-1.054.527-2.074.66-3.161.228-1.879-.133-3.8.145-5.679.014-.477.245-.921.626-1.207a1.66 1.66 0 0 1 .714-.145 48.7 48.7 0 0 1 7.376.166c1.245.12 2.638.373 3.385 1.39.489.961.762 2.017.8 3.095a7.638 7.638 0 0 0 1.605 3.032c.698 1.022.325 2.03-.186 3.084Z"/><path fill="#2F2E41" d="M235.636 243.199a2.91 2.91 0 0 1 1.887.373c.547.622.749 1.476.539 2.277a34.171 34.171 0 0 1-1.775 6.637l-2.207 6.475a15.24 15.24 0 0 0-.772 2.854 32.206 32.206 0 0 0 .158 4.978 3.904 3.904 0 0 1-.572 2.419c-.938 1.207-2.767 1.066-4.273.83l-7.347-1.245a8.736 8.736 0 0 1-1.817-.444 12.655 12.655 0 0 1-1.763-.991 27.098 27.098 0 0 0-4.563-2.074c-.689-.257-1.46-.585-1.709-1.278a1.792 1.792 0 0 1 1.174-2.074 6.35 6.35 0 0 1 2.6-.224 19.496 19.496 0 0 0 6.388-.863 4.043 4.043 0 0 0 1.684-.871 4.156 4.156 0 0 0 .971-1.954 29.118 29.118 0 0 0 1.112-6.637c.087-1.659.029-3.319.1-4.978.042-.983-.054-4.148.809-4.825.66-.506 3.373.892 4.264 1.1 1.676.383 3.393.556 5.112.515ZM259.838 247.812c.559 2.42.991 4.868 1.294 7.334a11.93 11.93 0 0 0 3.1 6.637c.353.281.657.619.9 1a2.098 2.098 0 0 1-.311 2.169 5.446 5.446 0 0 1-1.821 1.4 42.263 42.263 0 0 1-15.27 4.484 6.434 6.434 0 0 1-2.829-.1 2.333 2.333 0 0 1-1.688-2.074c-.009-.262.08-.518.249-.718a1.53 1.53 0 0 1 .56-.328 16.524 16.524 0 0 0 5.46-3.173 6.05 6.05 0 0 0 1.879-5.75 11.378 11.378 0 0 0-1.4-2.659 44.88 44.88 0 0 1-2.074-4.02l-1.825-3.829a10.037 10.037 0 0 1-1.166-3.51 16.844 16.844 0 0 0 6.729-1.079 10.571 10.571 0 0 0 2.767-1.659c.705-.589 1.348-1.688 2.3-.921.763.614 1.244 2.344 1.693 3.219a23.656 23.656 0 0 1 1.453 3.577Z"/><path fill="#FBBEBE" d="M233.089 152.737c.183 1.593 1.726 2.642 3.2 3.273l-9.321 2.974c.6-1.153.116-2.564-.481-3.734a21.1 21.1 0 0 0-1.659-2.659c-.091-.129-.195-.29-.129-.44a.47.47 0 0 1 .261-.2 23.445 23.445 0 0 1 5.986-2.049c.606-.087 1.751-.328 2.2.286.449.614-.144 1.815-.057 2.549Z"/><path fill="#000" d="M233.089 152.737c.183 1.593 1.726 2.642 3.2 3.273l-9.321 2.974c.6-1.153.116-2.564-.481-3.734a21.1 21.1 0 0 0-1.659-2.659c-.091-.129-.195-.29-.129-.44a.47.47 0 0 1 .261-.2 23.445 23.445 0 0 1 5.986-2.049c.606-.087 1.751-.328 2.2.286.449.614-.144 1.815-.057 2.549Z" opacity=".1"/><path fill="#FBBEBE" d="M227.671 154.026a7.309 7.309 0 0 0 7.309-7.309 7.31 7.31 0 1 0-7.309 7.309Z"/><path fill="#2F2E41" d="M221.338 206.868a3.23 3.23 0 0 0 3.049.83c2.551-.415 4.638-2.294 7.135-2.97 3.062-.83 6.3.236 9.193 1.543s5.766 2.9 8.927 3.128c-2.858-6.372-1.224-14.038-3.958-20.464-.668-1.572-1.6-3.086-1.75-4.787-.187-2.111.867-4.148 1.029-6.247a15.184 15.184 0 0 0-.954-5.517l-2-6.571a25.153 25.153 0 0 0-2.962-7.052c-.535-.776-.7-2.348-1.51-2.817-1.775-1.025-4.468.266-6.393.336a6.674 6.674 0 0 0-4.8 2.987 19.235 19.235 0 0 0-2.489 5.5 52.435 52.435 0 0 0-2.215 8.812c-.062.448-.116.9-.158 1.348-.415 4.26.191 8.546.224 12.827v.029c.042 5.43-.83 10.827-.991 16.253a4.342 4.342 0 0 0 .623 2.832Z"/><path fill="#000" d="M221.717 187.757a9.35 9.35 0 0 0 3.837-2.3 16.02 16.02 0 0 0 2.547-2.9 20.634 20.634 0 0 0 2.194-4.592 53.647 53.647 0 0 0 2.9-13.387 5.112 5.112 0 0 0-.6-3.568 3 3 0 0 0-3.63-.88 6.008 6.008 0 0 0-2.2 2.369 30.593 30.593 0 0 0-3.091 5.733c-.332.9-.577 1.834-.9 2.742a25.309 25.309 0 0 1-1.137 2.626c-.062.448-.116.9-.158 1.348-.382 4.263.207 8.528.238 12.809Z" opacity=".1"/><path fill="#2F2E41" d="M232.58 160.208a5.138 5.138 0 0 1 .606 3.563 53.602 53.602 0 0 1-2.9 13.387 20.46 20.46 0 0 1-2.195 4.63 16.166 16.166 0 0 1-2.547 2.9 7.947 7.947 0 0 1-5.04 2.452 9.63 9.63 0 0 1-3.136-.684l-15.577-5.3c-.158-.888.469-1.925.763-2.779l.83-2.46a3.131 3.131 0 0 1 1.128-1.784c.618-.369 1.6.137 2.111.547.511.41.9.95 1.41 1.369a7.957 7.957 0 0 0 3.443 1.369l3.5.784c1.268.347 2.577.521 3.891.518.975-2.978 2.829-5.6 3.879-8.554.324-.9.568-1.838.9-2.742a30.504 30.504 0 0 1 3.091-5.733 6.008 6.008 0 0 1 2.2-2.369 3 3 0 0 1 3.643.886ZM230.003 148.369a3.68 3.68 0 0 0-.44-1.369 1.148 1.148 0 0 0-1.245-.548c-.73.228-.975 1.357-1.738 1.394-.514.025-.884-.5-1.045-.987a2.992 2.992 0 0 0-.635-1.394 2.364 2.364 0 0 0-.9-.415c-1.771-.56-3.6-1.593-4.19-3.356a2.015 2.015 0 0 1-.1-1.124c.27-1.116 1.659-1.452 2.717-1.854 1.058-.402 2.074-1.091 3.111-1.614a5.111 5.111 0 0 1 3.381-.626c.579.182 1.148.394 1.705.635 1.717.6 3.821.319 5.152 1.56a5.312 5.312 0 0 1 1.245 2.174c.929 2.58 1.518 5.642-.021 7.907-.95 1.4-1.871 3-3.7 3.165-2.118.177-2.961-1.748-3.297-3.548Z"/><g fill="#000" opacity=".1"><path d="M226.76 145.98a3.035 3.035 0 0 0-.631-1.394 2.364 2.364 0 0 0-.9-.415c-1.776-.56-3.6-1.593-4.194-3.356a2.051 2.051 0 0 1-.091-1.124c.041-.177.116-.345.22-.494a2.177 2.177 0 0 0-1.431 1.373c-.074.377-.04.767.1 1.124.589 1.763 2.418 2.8 4.19 3.356.326.073.633.215.9.415.328.403.546.883.635 1.394.166.494.531 1.012 1.045.987.514-.025.763-.494 1.091-.888a1.32 1.32 0 0 1-.934-.978ZM234.525 151.024c-2.132.2-2.974-1.746-3.319-3.534a3.588 3.588 0 0 0-.415-1.369 1.152 1.152 0 0 0-1.245-.548 2.22 2.22 0 0 0-.917.83c.386.037.733.252.938.581.235.423.385.888.44 1.369.336 1.788 1.178 3.733 3.319 3.534a3.42 3.42 0 0 0 2.19-1.137 3.072 3.072 0 0 1-.991.274Z"/></g><defs><linearGradient id="a" x1="227.238" x2="227.238" y1="270.771" y2="134.541" gradientUnits="userSpaceOnUse"><stop stop-color="gray" stop-opacity=".251"/><stop offset=".54" stop-color="gray" stop-opacity=".122"/><stop offset="1" stop-color="gray" stop-opacity=".102"/></linearGradient></defs></svg>