<svg xmlns="http://www.w3.org/2000/svg" width="459" height="316" fill="none"><path fill="#584DFC" d="M432.971 178.269c-15.35 19.516-9.387 48.026.367 70.859 3.266 7.645 6.96 15.733 5.582 23.931-1.685 10.025-10.632 17.356-20.026 21.241a59.6 59.6 0 0 1-53.353-4.394c-13.6-8.459-23.337-22.216-37.167-30.29-23.145-13.512-52.6-8.41-77.737.9-17.781 6.585-37.22 15.149-54.888 8.267-12.432-4.842-21.025-16.629-25.707-29.122-2.261-6.032-3.9-12.561-8.218-17.342a30.653 30.653 0 0 0-9.347-6.561c-31.33-15.534-70.9-7.215-101.331-24.445-20.552-11.638-33.709-33.588-39.535-56.479-5.826-22.891-5.147-46.887-3.668-70.458 1.051-16.751 2.937-34.634 13.64-47.562C32.906 3.141 52.337-1.944 69.901.655c17.564 2.599 33.484 11.864 47.489 22.779 17.5 13.638 33.737 30.621 55.229 36.145 14.636 3.762 30.032 1.7 45.126.992 25.235-1.191 50.48 1.458 75.576 4.359 24.025 2.777 48.223 5.834 71.111 13.65 16.2 5.531 29.182 15.57 44.476 22.584 9.969 4.572 20.84 5.834 30.279 11.657 11.627 7.173 22.287 19.65 19.308 34.25-2.834 13.878-17.377 20.84-25.524 31.198Z" opacity=".1"/><path stroke="#535461" stroke-width="3" d="M300.2 59.854s-24.674-7.308-26.3 13.478c-1.626 20.786 6.521 55.021 0 66.025-6.521 11.004-29.79 26.9-17.544 28.328 12.246 1.428 18.359 3.462 14.691 10.8-3.668 7.338-22.824 14.265-18.748 19.563 4.076 5.298 6.113 11.819 2.038 18.34-4.075 6.521-18.34 10.6-15.895 15.08 2.445 4.48 11.412 6.929 6.929 11.819-4.483 4.89-17.48 16.016-12.408 15.955"/><path fill="#584DFC" d="M328.561 46.006h-36.667c-7.163 0-12.97 5.807-12.97 12.97v3.095c0 7.163 5.807 12.97 12.97 12.97h36.667c7.163 0 12.97-5.807 12.97-12.97v-3.095c0-7.163-5.807-12.97-12.97-12.97Z"/><path fill="#000" d="M336.54 70.585h-52.626v1h52.626v-1Z" opacity=".1"/><path fill="#000" d="M336.54 50.543h-52.626v19.962h52.626V50.543Z" opacity=".3"/><path fill="#000" d="M296.164 68.2a7.259 7.259 0 1 0 0-14.518 7.259 7.259 0 0 0 0 14.518ZM324.291 68.2a7.259 7.259 0 1 0 0-14.518 7.259 7.259 0 0 0 0 14.518Z" opacity=".1"/><path fill="#584DFC" d="M315.671 75.04h-10.888v6.353h10.888V75.04Z"/><path fill="#584DFC" d="M332.911 79.578h-45.367v36.294h45.367V79.578ZM333.818 123.13h-47.182v4.537h47.182v-4.537ZM294.349 138.555v20.873h8.166v-27.22h-8.166v6.347ZM318.849 132.204v27.224h8.166v-27.22l-8.166-.004ZM281.365 87.745v8.392a12.276 12.276 0 0 0-6.032 2.908 14.267 14.267 0 0 0-3.591 5.266 26.755 26.755 0 0 0-1.768 8.038 45.968 45.968 0 0 0 .5 10.783h-9.072a61.95 61.95 0 0 1 .237-13.014 34.554 34.554 0 0 1 2.912-10.315 20.945 20.945 0 0 1 9.652-10.129 17.825 17.825 0 0 1 7.161-1.929h.001Z"/><path fill="#000" d="M302.515 132.204h-8.166v6.351h8.166v-6.351ZM302.515 143.999h-8.166v8.166h8.166v-8.166ZM302.515 156.702h-8.166v2.722h8.166v-2.722ZM327.013 132.204h-8.166v6.351h8.166v-6.351ZM327.013 143.999h-8.166v8.166h8.166v-8.166ZM327.013 156.702h-8.166v2.722h8.166v-2.722ZM281.364 87.745v8.392a12.276 12.276 0 0 0-6.032 2.908l-1.129-9.371a17.829 17.829 0 0 1 7.161-1.929ZM271.746 104.31a26.761 26.761 0 0 0-1.768 8.038l-8.334-2.231a34.554 34.554 0 0 1 2.912-10.315l7.19 4.508Z" opacity=".3"/><path fill="#584DFC" d="M339.09 87.745v8.392a12.276 12.276 0 0 1 6.032 2.908 14.267 14.267 0 0 1 3.591 5.266 26.73 26.73 0 0 1 1.768 8.038c.258 3.601.09 7.221-.5 10.783h9.073a61.95 61.95 0 0 0-.237-13.014 34.524 34.524 0 0 0-2.912-10.315 20.945 20.945 0 0 0-9.652-10.129 17.824 17.824 0 0 0-7.163-1.929Z"/><path fill="#000" d="M339.09 87.745v8.392a12.276 12.276 0 0 1 6.032 2.908l1.129-9.371a17.825 17.825 0 0 0-7.161-1.929ZM348.714 104.31a26.73 26.73 0 0 1 1.768 8.038l8.334-2.231a34.524 34.524 0 0 0-2.912-10.315l-7.19 4.508Z" opacity=".3"/><path fill="#000" d="M315.671 75.04h-10.888v1h10.888v-1ZM333.717 86.044v15.2a3.164 3.164 0 0 1-.844-2.154V88.2c-.002-.8.3-1.57.844-2.156ZM287.704 87.047v11.375a3.163 3.163 0 0 1-.846 1.925V85.122c.493.526.792 1.206.846 1.925ZM330.643 115.872h-40.83v1h40.83v-1ZM308.865 127.668h-19.961v1h19.961v-1ZM330.643 127.668h-19.961v1h19.961v-1Z" opacity=".1"/><path fill="#584DFC" d="M294.255 19.136h-3.124v26.87h3.124v-26.87ZM330.082 19.136h-3.124v26.87h3.124v-26.87Z"/><path fill="#000" d="M292.589 22.886a3.54 3.54 0 1 0 0-7.081 3.54 3.54 0 0 0 0 7.081Z" opacity=".1"/><path fill="#584DFC" d="M292.589 22.677a3.54 3.54 0 1 0 0-7.082 3.54 3.54 0 0 0 0 7.082Z"/><path fill="#000" d="M328.624 22.886a3.54 3.54 0 1 0 0-7.081 3.54 3.54 0 0 0 0 7.081Z" opacity=".1"/><path fill="#584DFC" d="M328.624 22.677a3.54 3.54 0 1 0 0-7.082 3.54 3.54 0 0 0 0 7.082Z"/><path fill="#DEE3F3" d="M254.944 174.814c-1.393 1.395-1.711 3.31-2.206 5.087a25.068 25.068 0 0 1-9.377 13.186c-3.4 2.517-7.95 5.3-7.145 9.059.192.9.7 1.735.834 2.64.578 3.917-5.409 5.98-7.727 9.408-1.727 2.553-1.265 5.716-.752 8.624.628 3.56 1.388 7.357 4.308 9.978a12.31 12.31 0 0 1 2.277 2.174c1.232 1.911.161 4.415 1.281 6.374 1.493 2.613 6.2 2.726 8.925.964 2.725-1.762 3.99-4.658 5.2-7.373 3.269-7.339 7.287-14.7 14.081-20.047 6.514-5.124 15.989-9.1 17.107-16.558.479-3.2-.735-6.7 1.119-9.52.876-1.331 2.341-2.318 3.333-3.59 2.955-3.79.755-9.273-3.572-11.965-6.532-4.066-22.003-4.131-27.686 1.559Z" opacity=".5"/><path fill="#584DFC" d="M369.458 38.556 340.67 47.55l1.094 3.501 28.788-8.994-1.094-3.502Z"/><path fill="#A8A8A8" d="M382.275 174.822s-15.782-3.156-19.991-7.365-23.148-11.574-25.252-6.313c-2.104 5.261-28.408 23.148-10.522 26.3 17.886 3.152 42.086 4.209 47.347 2.1 5.261-2.109 8.418-14.722 8.418-14.722Z"/><path fill="#000" d="M326.51 185.494c17.887 3.157 42.086 4.209 47.347 2.1 4.006-1.6 6.79-9.3 7.891-12.885.333.071.526.11.526.11s-3.156 12.626-8.417 14.73c-5.261 2.104-29.461 1.052-47.347-2.1-5.163-.911-6.64-3.051-6.083-5.759.441 1.766 2.24 3.125 6.083 3.804Z" opacity=".2"/><path fill="url(#a)" d="M417.323 37.227a4.633 4.633 0 0 0-1.306-1.81c-4.234-3.86-11.085-2.69-16.343-5.048-1.211-.543-2.454-1.3-3.769-1.09-1.837.288-3.544 2.379-5.146 1.452l.115.349c-.038-.019-.077-.038-.115-.06l1.178 3.587a13.012 13.012 0 0 0 1.808 3.941 10.32 10.32 0 0 0 2.5 17.163c.056.12.111.241.164.362l.151.064c.349.803.61 1.64.777 2.5-1.363.188-3.739 1.7-6.076 3.921l-4.673-.16a15.282 15.282 0 0 1-8.4-2.855l-13.975-10.047a4.679 4.679 0 0 0-2.678 1.184c-1.735-1.808-3.208-3.7-3.083-4.8 0 0-6.5-12.164-8.862-6.082s4.431 12.453 4.431 12.453l4.31 5.584c-.17.979-.277 1.968-.322 2.96 5.317 6.082 23.928 11.584 23.928 11.584l2.9.14.016.143a9.925 9.925 0 0 0-.26 2.323c0 .112 0 .23.006.348 0 .077-.007.155-.006.232.148 9.7 1.477 39.387 1.477 39.387.259-.115.526-.221.8-.32l-.207 2.637s-12.407 1.738-21.565 5.213c-9.158 3.475-9.453 7.53-9.453 7.53v35.776c-2.616 1.342-6.743 3.107-8.862 2.162-2.3-1.025-3.562-.164-3.791.735-.047.177-.05.362-.01.54v.011c.019.08.049.157.088.229l.009.017a.942.942 0 0 0 .156.205c.886.869 20.088 8.4 24.519 7.24.136-.036.27-.081.4-.135.043-.018.08-.041.122-.06.082-.039.165-.076.241-.122.046-.027.087-.06.13-.089.066-.044.134-.087.2-.137.043-.034.082-.074.123-.11.057-.051.115-.1.168-.155.053-.055.073-.085.11-.127.05-.058.1-.114.148-.176.034-.044.063-.092.1-.139.045-.065.09-.13.131-.2.028-.047.054-.1.08-.147.04-.073.08-.145.116-.221.023-.049.044-.1.066-.15.035-.081.07-.161.1-.245.019-.049.035-.1.053-.15.031-.089.061-.178.089-.269l.04-.145c.027-.1.053-.2.076-.3l.029-.135a8.07 8.07 0 0 0 .064-.324l.02-.122a9.99 9.99 0 0 0 .051-.353c0-.034.008-.068.012-.1.015-.127.028-.254.038-.383 0-.027 0-.054.006-.081.011-.137.019-.275.026-.413v-.055a16.3 16.3 0 0 0 .012-.442v-.028a24.247 24.247 0 0 0-.57-5.137l1.072-30.479c5.802.09 11.605-.123 17.384-.64l.636 14.542s0 9.557 3.249 13.9c2.781 3.718 5.994 20.16 6.863 24.825-1.194 2.276-3.478 5.091-7.454 5 0 0-7.482-.647-7.06 1.411.012.054.027.107.047.158v.013c.023.059.05.116.081.172l.007.012c.03.053.065.108.1.164l.024.034c.044.061.091.123.146.187l.014.015c.05.058.105.118.164.179l.05.051c.067.067.137.136.215.206 3.84 3.475 26.291 4.055 26.291 4.055v-.171c-.03-3.47-.532-6.92-1.491-10.255h.311s-3.249-29.25-5.908-32.726c0 0-.706-15.423.888-25.09.1-.035.2-.07.294-.106 7.447-2.781 7.976-9.631 7.209-14.664 1.409.453 2.244.763 2.244.763l-.074-.606.074.027s-.142-.92-.376-2.355c-.533-3.946-1.565-10.843-2.664-14.1a23.134 23.134 0 0 0-.505-1.791 30.628 30.628 0 0 1-1.3-6.016 71.35 71.35 0 0 1-.456-7.977c.024-3.562.297-7.118.817-10.642.487-2.985.762-6 .823-9.023a12.029 12.029 0 0 0-.178-2.542c-.394-1.8-2.135-2.978-3.946-3.725-.117-.048-.236-.088-.354-.132.044-.684.1-1.459.177-2.277.439.302.983.41 1.505.3a3.565 3.565 0 0 0 1.834-1.431c2.618-3.216 5.307-6.567 6.312-10.562.402-1.784.588-3.61.554-5.439v-.3a5.89 5.89 0 0 0-.231-2.015Z"/><path fill="#F7C4A7" d="M393.486 52.901s3.967 5.95 3.117 8.783c-.85 2.833 9.35 1.133 9.35 1.133s.283-11.05 2.267-13.6c1.984-2.55-14.734 3.684-14.734 3.684ZM367.278 56.726s-8.217-6.8-7.933-9.35c0 0-6.233-11.9-8.5-5.95-2.267 5.95 4.25 12.183 4.25 12.183l7.933 10.483 4.25-7.366Z"/><path fill="#535461" d="M358.92 163.4s-7.65 4.817-10.767 3.4c-3.117-1.417-4.25.85-3.4 1.7.85.85 19.266 8.217 23.516 7.083 4.25-1.134 2.088-10.414 2.088-10.414L358.92 163.4ZM399.436 184.084s-1.842 7.792-8.217 7.65c0 0-9.633-.85-5.95 2.55 3.683 3.4 25.216 3.967 25.216 3.967s0-11.617-3.967-14.167a6.066 6.066 0 0 0-7.082 0Z"/><path fill="#575988" d="m387.82 129.115.85 19.833s0 9.35 3.117 13.6 6.8 25.5 6.8 25.5h10.767s-3.117-28.616-5.667-32.016c0 0-1.133-25.216 2.833-30.883l-18.7 3.966Z"/><path fill="#000" d="m387.82 129.115.85 19.833s0 9.35 3.117 13.6 6.8 25.5 6.8 25.5h10.767s-3.117-28.616-5.667-32.016c0 0-1.133-25.216 2.833-30.883l-18.7 3.966Z" opacity=".1"/><path fill="#575988" d="M410.202 111.267s6.517 15.583-5.383 20.116c-11.9 4.533-33.433 3.967-33.433 3.967l-1.133 32.866s-13.317 1.7-13.6-2.55v-35.982s.283-3.967 9.067-7.367 20.683-5.1 20.683-5.1l.567-7.367 23.232 1.417Z"/><path fill="#000" d="M399.761 59.936c2.263-.25 4.552.073 6.657.941 1.736.731 3.406 1.879 3.784 3.644.448 2.091-.049 6.781-.619 10.748a74.042 74.042 0 0 0-.345 18.783 20.046 20.046 0 0 0 1.247 5.885c1.7 3.117 3.4 17.85 3.4 17.85s-18.7-7.083-28.05-2.833c0 0-1.275-29.041-1.417-38.533-.11-7.349 9.208-15.725 12.325-16.008 1.829-.17 1.203-.293 3.018-.477Z" opacity=".1"/><path fill="#E14B5A" d="M399.761 59.366c2.263-.25 4.552.073 6.657.941 1.736.73 3.406 1.879 3.784 3.644.448 2.091-.049 6.781-.619 10.748a74.042 74.042 0 0 0-.345 18.783c.22 1.998.638 3.97 1.247 5.885 1.275 3.825 3.4 17.85 3.4 17.85s-18.7-7.083-28.05-2.833c0 0-1.275-29.041-1.417-38.533-.11-7.349 9.208-15.725 12.325-16.008 1.829-.166 1.203-.289 3.018-.477Z"/><path fill="#000" d="m404.82 75.001-20.116-1.133s-1.28-9.862 1.624-9.761l19.909.695s4.249 5.099-1.417 10.199Z" opacity=".1"/><path fill="#E14B5A" d="m404.82 74.434-22.95-1.133s-17.85-5.383-22.95-11.333c0 0 .283-10.483 5.95-11.05l13.4 9.829a14.471 14.471 0 0 0 8.053 2.793l19.909.695s4.254 5.099-1.412 10.199Z"/><path fill="#000" d="M405.811 54.176c.337-2.687 1.555-3.578 2.408-4.675 1.983-2.55-14.733 3.683-14.733 3.683a30.005 30.005 0 0 1 2.26 4.169c1.335.615 2.787.932 4.257.931 2.465 0 4.045-2.653 5.808-4.108Z" opacity=".1"/><path fill="#F7C4A7" d="M400.003 58.001c5.633 0 10.2-4.567 10.2-10.2 0-5.633-4.567-10.2-10.2-10.2-5.633 0-10.2 4.567-10.2 10.2 0 5.633 4.567 10.2 10.2 10.2Z"/><path fill="#000" d="M393.562 40.652a11.282 11.282 0 0 1-2.1-4.3l-1.13-3.51c1.536.908 3.174-1.138 4.935-1.42 1.261-.2 2.453.535 3.615 1.067 5.043 2.307 11.613 1.162 15.675 4.938a4.53 4.53 0 0 1 1.253 1.771c.189.649.266 1.325.227 2a22.715 22.715 0 0 1-.531 5.321c-.965 3.908-3.543 7.187-6.054 10.333a3.427 3.427 0 0 1-1.759 1.4c-1.458.326-2.586-1.25-3.15-2.633a28.053 28.053 0 0 1-1.644-5.686 7.439 7.439 0 0 0-.673-2.4c-.878-1.556-3.042-3.029-4.358-4.235-1.29-1.189-3.098-1.326-4.306-2.646Z" opacity=".1"/><path fill="#632652" d="M393.562 40.369a11.282 11.282 0 0 1-2.1-4.3l-1.13-3.51c1.536.908 3.174-1.138 4.935-1.42 1.261-.2 2.453.535 3.615 1.067 5.043 2.307 11.613 1.162 15.675 4.938a4.53 4.53 0 0 1 1.253 1.771c.189.649.266 1.325.227 2a22.716 22.716 0 0 1-.531 5.321c-.965 3.908-3.543 7.187-6.054 10.333a3.428 3.428 0 0 1-1.759 1.4c-1.458.326-2.586-1.25-3.15-2.633a28.053 28.053 0 0 1-1.644-5.686 7.439 7.439 0 0 0-.673-2.4c-.878-1.556-3.042-3.029-4.358-4.235-1.29-1.194-3.098-1.327-4.306-2.646Z"/><path fill="#F7C4A7" d="M402.694 50.777c.552 0 1-.825 1-1.842 0-1.017-.448-1.842-1-1.842s-1 .825-1 1.842c0 1.017.448 1.842 1 1.842Z"/><path fill="#000" d="M407.798 98.092s-.567 1.7-3.4 1.417c-2.833-.283-11.05-.85-11.05 0" opacity=".1"/><path fill="#fff" d="M385.269 194a2.4 2.4 0 0 1-.824-1.182c-.074.368.153.846.824 1.466 3.683 3.4 25.216 3.967 25.216 3.967v-.283c-.138-.005-21.544-.579-25.216-3.968ZM368.269 175.017c-4.25 1.133-22.667-6.233-23.516-7.083a.93.93 0 0 1-.236-.414c-.1.346-.01.719.236.981.85.85 19.266 8.217 23.516 7.083 2.188-.583 2.675-3.325 2.634-5.848-.041 2.353-.609 4.741-2.634 5.281Z" opacity=".5"/><path fill="url(#b)" d="M206.644 196.734a121.561 121.561 0 0 1-1.824-16.73 22.413 22.413 0 0 0-15.772-20.47 60.273 60.273 0 0 0-5.342-1.374c-17.17-3.647-22.386-.463-22.978-.044a22.04 22.04 0 0 1-1.3-2.839l-.084-.3a21.986 21.986 0 0 0 5.872-13.243 14.493 14.493 0 0 0 4.537-10.18 13.989 13.989 0 0 0-3.407-8.926v-5.12a22.3 22.3 0 0 0-22.3-22.3h-1.808c-12.316 0-22.3 9.984-22.3 22.3v5.526a13.842 13.842 0 0 0-3.083 8.519 14.414 14.414 0 0 0 4.36 10 21.985 21.985 0 0 0 6.119 13.672c.121.837.244 1.738.366 2.689l-30.719 6.5s-11.843.487-19.469 16.224c-6.455 13.323-19.305 47.573-23.1 57.77-.687 1.848-1.077 2.907-1.077 2.907s.126-.127.367-.344l-.367.993s.186-.189.541-.5c-.538 4.267-.615 11.591 4.975 12.5 4.686.765 16.756 1.079 25.877 1.208v.009h.633c6.044.081 10.643.081 10.643.081v-.081h98.073v-1.005a6.77 6.77 0 0 0-.54-2.656c.047-.054.093-.109.137-.164a5.386 5.386 0 0 1 1.018 2.36 2.321 2.321 0 0 1-.046.249l.058-.15c.023.268.004.538-.058.8 0 0 12.583-32.421 12.448-51.779a32.81 32.81 0 0 0-.461-6.1l.011-.002Zm-78.428-34.447a22.496 22.496 0 0 1-.311-2.8v-.026c.106.915.211 1.859.311 2.826Zm-38.12 69.638v7.727l-4.844 1.034 4.844-8.761Z"/><path fill="#E14B5A" d="M142.644 98.33c12.316 0 22.3 9.984 22.3 22.3v9.511h-44.596v-9.511c0-12.316 9.984-22.3 22.3-22.3h-.004Z"/><path fill="#E14B5A" d="M142.8 150.719c14.036 0 25.414-7.818 25.414-17.463 0-9.645-11.378-17.463-25.414-17.463-14.036 0-25.414 7.818-25.414 17.463 0 9.645 11.378 17.463 25.414 17.463Z"/><path fill="#F7C4A7" d="M126.507 150.176s5.3 27.753 0 35.237c-5.3 7.484 16.215 10.446 16.215 10.446l22.3-8.108 3.118-19.957s-13.565-7.64-10.758-23.076l-30.875 5.458ZM192.303 243.722s1.4 6.081-6.237 7.172c-4.512.664-9.1.609-13.595-.162l-1.685-15.274h17.774l3.743 8.264ZM57.38 235.938s-3.374 13.708 4.266 14.955c7.64 1.247 35.7 1.247 35.7 1.247v-16.215l-12.7 2.714-11.93-11.445-15.336 8.744Z"/><path fill="#000" d="m128.144 159.138-29.858 6.315s-11.382.468-18.71 15.592c-7.328 15.124-23.23 58.312-23.23 58.312s13.564-13.721 29.467.935l10.6-19.178-2.339 30.4h82.167v-14.338s17.151 9.2 15.9 14.344c0 0 14.676-37.814 11.52-55a116.955 116.955 0 0 1-1.753-16.078 21.538 21.538 0 0 0-15.157-19.67 59.367 59.367 0 0 0-5.133-1.32c-17.618-3.742-22.14 0-22.14 0s-3.413 11.1-3.352 16.137c.078 6.47-9.2 10.758-9.2 10.758s-13.721-3.274-14.344-5.925c-.623-2.651-5.529-18.166-4.438-21.284Z" opacity=".1"/><path fill="#575988" d="m128.143 158.513-29.858 6.315s-11.382.468-18.71 15.592c-7.328 15.124-23.23 58.312-23.23 58.312s13.564-13.721 29.467.935l10.6-19.178-2.339 30.4h82.167v-14.34s17.151 9.2 15.9 14.344c0 0 14.676-37.814 11.52-55a116.955 116.955 0 0 1-1.753-16.078 21.538 21.538 0 0 0-15.157-19.67 59.3 59.3 0 0 0-5.134-1.32c-17.618-3.742-22.14 0-22.14 0s-3.413 11.1-3.352 16.137c.078 6.47-9.2 10.758-9.2 10.758s-13.721-3.274-14.344-5.925c-.623-2.651-5.528-18.163-4.437-21.282Z"/><path fill="#000" d="M158.659 157.189a21.11 21.11 0 0 1-.814-11.07l-30.871 5.457s.446 2.333.949 5.828a21.199 21.199 0 0 0 30.736-.215Z" opacity=".1"/><path fill="#F7C4A7" d="M163.926 141.285c.142 11.708-9.234 21.315-20.943 21.457-11.708.143-21.315-9.234-21.457-20.942v-.515a21.212 21.212 0 0 1 13.847-19.893 21.353 21.353 0 0 1 10.922-1.013h.008a21.187 21.187 0 0 1 17.586 19.5c.025.465.037.934.037 1.406Z"/><g fill="#000" opacity=".1"><path d="m135.334 121.89.03-.019a21.2 21.2 0 0 0-13.841 20.407 4.704 4.704 0 0 0 1.9-.457c5.17-2.412 8.271-9.795 9.489-14.943.439-1.842.857-3.919 2.422-4.988Z"/><path d="M151.565 122.485a21.021 21.021 0 0 0-5.271-1.626 6.797 6.797 0 0 1 3.786 2.378c.47.639.859 1.333 1.159 2.066a21.26 21.26 0 0 0-17.834.37c1.332 2.917 5.459 4.509 8.214 5.574a147.774 147.774 0 0 0 9.157 3.195c-.908-.739-1.817-1.477-2.727-2.214l6.157.979a10.659 10.659 0 0 0-.43-3.63c1.172.951 2.744 1.269 4.024 2.077 2.4 1.512 3.4 4.431 4.706 6.948a4.489 4.489 0 0 0 1.375 1.759 21.213 21.213 0 0 0-12.316-17.876Z"/></g><path fill="#632652" d="m135.334 121.411.03-.019a21.199 21.199 0 0 0-13.841 20.408 4.72 4.72 0 0 0 1.9-.457c5.17-2.412 8.271-9.795 9.489-14.943.439-1.843.857-3.921 2.422-4.989Z"/><path fill="#632652" d="M151.565 122.006a21.021 21.021 0 0 0-5.271-1.626 6.797 6.797 0 0 1 3.786 2.378c.47.639.859 1.333 1.159 2.066a21.26 21.26 0 0 0-17.834.37c1.332 2.917 5.459 4.509 8.214 5.574a147.774 147.774 0 0 0 9.157 3.195c-.908-.739-1.817-1.477-2.727-2.214l6.157.979a10.659 10.659 0 0 0-.43-3.63c1.172.951 2.744 1.269 4.024 2.077 2.4 1.512 3.4 4.431 4.706 6.948a4.489 4.489 0 0 0 1.375 1.759 21.213 21.213 0 0 0-12.316-17.876Z"/><path fill="#000" d="M119.101 137.788s21.828-27.129 47.086 0l-2.183-6.081s-11.849-17.306-20.265-13.564c-8.416 3.742-16.683 6.393-16.683 6.393l-7.955 13.252Z" opacity=".1"/><path fill="#E14B5A" d="M119.101 137.309s21.828-27.129 47.086 0l-2.183-6.081s-11.849-17.306-20.265-13.56c-8.416 3.746-16.683 6.393-16.683 6.393l-7.955 13.248Z"/><path fill="#000" d="M101.169 195.777s-4.677 12.473 1.871 23.7c6.548 11.227-5.769 15.9-5.769 15.9M176.945 184.551s8.108 10.29 2.807 19.489c-5.301 9.199-4.989 31.339-4.989 31.339" opacity=".1"/><path fill="#535461" d="M93.998 244.579h90.119a7.484 7.484 0 0 1 7.484 7.484H86.514a7.485 7.485 0 0 1 7.484-7.484Z"/><path fill="#535461" d="M107.554 193.127h63.007c8.778.003 15.892 7.118 15.895 15.895v37.272h-94.8v-37.272c.003-8.779 7.12-15.895 15.9-15.895h-.002Z"/><path fill="#fff" d="M138.98 227.662a5.613 5.613 0 1 0 0-11.226 5.613 5.613 0 0 0 0 11.226Z"/><path stroke="#000" d="M120.348 125.068s21.454-21.442 44.592-.391" opacity=".1"/><path fill="#6A5C99" d="M170.362 123.702h-2.155v12.21h2.155v-12.21Z"/><path fill="#FFD037" d="M165.334 131.602a7.422 7.422 0 0 1 7.422 7.422v.479a7.422 7.422 0 0 1-7.422 7.422v-15.323Z"/><path fill="#6A5C99" d="M167.249 132.56a1.676 1.676 0 1 0-3.352 0v13.407a1.676 1.676 0 1 0 3.352 0V132.56ZM114.707 136.151h2.155v-12.21h-2.155v12.21Z"/><path fill="#FFD037" d="M119.735 147.164a7.422 7.422 0 0 1-7.422-7.422v-.478a7.422 7.422 0 0 1 7.422-7.422v15.322Z"/><path fill="#6A5C99" d="M117.819 146.207a1.676 1.676 0 1 0 3.352 0V132.8a1.676 1.676 0 1 0-3.352 0v13.407Z"/><path fill="#FFD037" d="M167.952 110.652c-2.917-6.066-9.272-13.4-22.969-13.986v-.02l-.164.008h-.011l-4.852.231v.024c-13.607.626-19.931 7.932-22.84 13.979a31.443 31.443 0 0 0-3.008 13.092l1.675-.041 1.675-.038a28.512 28.512 0 0 1 2.728-11.664c3.694-7.587 10.49-11.622 20.2-11.994l4.292-.238c9.71.372 16.506 4.408 20.2 11.994a28.512 28.512 0 0 1 2.728 11.664l1.675.038 1.675.041a31.443 31.443 0 0 0-3.008-13.092l.004.002Z"/><path fill="#D6D6E3" d="M244.505 252.162H15.952v61.364h228.553v-61.364Z"/><path fill="#000" d="M244.505 256.292H15.952v7.965h228.553v-7.965Z" opacity=".1"/><path fill="#D6D6E3" d="M259.834 251.276H.622v7.965h259.212v-7.965Z"/><path stroke="#535461" stroke-width="3" d="M178.118 231.467s9.782 17.933 34.235 13.042 12.635 45.24 12.635 45.24-4 23.914-1.185 23.777"/><defs><linearGradient id="a" x1="380.259" x2="380.259" y1="200.082" y2="29.243" gradientUnits="userSpaceOnUse"><stop stop-color="gray" stop-opacity=".251"/><stop offset=".535" stop-color="gray" stop-opacity=".122"/><stop offset="1" stop-color="gray" stop-opacity=".102"/></linearGradient><linearGradient id="b" x1="130.217" x2="130.217" y1="255.262" y2="95.208" gradientUnits="userSpaceOnUse"><stop stop-color="gray" stop-opacity=".251"/><stop offset=".535" stop-color="gray" stop-opacity=".122"/><stop offset="1" stop-color="gray" stop-opacity=".102"/></linearGradient></defs></svg>