<svg xmlns="http://www.w3.org/2000/svg" width="431" height="234" fill="none"><path fill="#584DFC" d="M89.302 44.672v7.652h-7.14a117.375 117.375 0 0 1 7.14-7.652ZM102.418 42.731h-9.592v9.592h9.592v-9.592ZM115.526 42.731h-9.592v9.592h9.592v-9.592ZM128.638 42.731h-9.592v9.592h9.592v-9.592ZM141.747 42.731h-9.592v9.592h9.592v-9.592ZM154.859 42.731h-9.592v9.592h9.592v-9.592Z" opacity=".2"/><path fill="#584DFC" d="M167.971 42.731h-9.592v9.592h9.592v-9.592Z"/><path fill="#584DFC" d="M181.079 42.731h-9.592v9.592h9.592v-9.592ZM194.191 42.731h-9.592v9.592h9.592v-9.592ZM207.299 42.731h-9.592v9.592h9.592v-9.592Z" opacity=".2"/><path fill="#584DFC" d="M220.411 42.731h-9.592v9.592h9.592v-9.592Z"/><path fill="#584DFC" d="M233.523 42.731h-9.592v9.592h9.592v-9.592ZM246.631 42.731h-9.592v9.592h9.592v-9.592ZM259.743 42.731h-9.592v9.592h9.592v-9.592ZM272.855 42.731h-9.592v9.592h9.592v-9.592ZM285.963 42.731h-9.592v9.592h9.592v-9.592ZM299.075 42.731h-9.592v9.592h9.592v-9.592Z" opacity=".2"/><path fill="#584DFC" d="M312.184 42.731h-9.592v9.592h9.592v-9.592ZM325.295 42.731h-9.592v9.592h9.592v-9.592Z"/><path fill="#584DFC" d="M338.407 42.731h-9.592v9.592h9.592v-9.592ZM351.516 42.731h-9.592v9.592h9.592v-9.592Z" opacity=".2"/><path fill="#584DFC" d="M364.628 42.731h-9.592v9.592h9.592v-9.592ZM377.736 42.731h-9.592v9.592h9.592v-9.592ZM76.203 59.923v4.55h-3.08a85.117 85.117 0 0 1 3.08-4.55Z"/><path fill="#584DFC" d="M89.306 54.881h-9.592v9.592h9.592v-9.592Z" opacity=".2"/><path fill="#584DFC" d="M102.418 54.881h-9.592v9.592h9.592v-9.592Z"/><path fill="#584DFC" d="M115.526 54.881h-9.592v9.592h9.592v-9.592Z" opacity=".2"/><path fill="#584DFC" d="M128.638 54.881h-9.592v9.592h9.592v-9.592Z" opacity=".7"/><path fill="#584DFC" d="M141.747 54.881h-9.592v9.592h9.592v-9.592Z" opacity=".2"/><path fill="#584DFC" d="M154.859 54.881h-9.592v9.592h9.592v-9.592Z" opacity=".4"/><path fill="#584DFC" d="M167.971 54.881h-9.592v9.592h9.592v-9.592Z"/><path fill="#584DFC" d="M181.079 54.881h-9.592v9.592h9.592v-9.592Z" opacity=".4"/><path fill="#584DFC" d="M194.191 54.881h-9.592v9.592h9.592v-9.592Z" opacity=".2"/><path fill="#584DFC" d="M207.299 54.881h-9.592v9.592h9.592v-9.592Z" opacity=".4"/><path fill="#584DFC" d="M220.411 54.881h-9.592v9.592h9.592v-9.592Z"/><path fill="#584DFC" d="M233.523 54.881h-9.592v9.592h9.592v-9.592ZM246.631 54.881h-9.592v9.592h9.592v-9.592Z" opacity=".4"/><path fill="#584DFC" d="M259.743 54.881h-9.592v9.592h9.592v-9.592Z" opacity=".2"/><path fill="#584DFC" d="M272.855 54.881h-9.592v9.592h9.592v-9.592ZM285.963 54.881h-9.592v9.592h9.592v-9.592Z" opacity=".4"/><path fill="#584DFC" d="M299.075 54.881h-9.592v9.592h9.592v-9.592ZM312.184 54.881h-9.592v9.592h9.592v-9.592Z" opacity=".2"/><path fill="#584DFC" d="M325.295 54.881h-9.592v9.592h9.592v-9.592Z" opacity=".4"/><path fill="#584DFC" d="M338.407 54.881h-9.592v9.592h9.592v-9.592Z" opacity=".2"/><path fill="#584DFC" d="M351.516 54.881h-9.592v9.592h9.592v-9.592ZM364.628 54.881h-9.592v9.592h9.592v-9.592ZM377.736 54.881h-9.592v9.592h9.592v-9.592Z"/><path fill="#584DFC" d="M49.974 69.922v6.7h-9.592v-3.27a65.634 65.634 0 0 1 9.592-3.429ZM63.086 67.756v8.87h-9.592v-7.554l9.592-1.316Z" opacity=".2"/><path fill="#584DFC" d="M76.194 67.034h-9.592v9.592h9.592v-9.592Z"/><path fill="#584DFC" d="M89.306 67.034h-9.592v9.592h9.592v-9.592Z" opacity=".7"/><path fill="#584DFC" d="M102.418 67.034h-9.592v9.592h9.592v-9.592Z"/><path fill="#584DFC" d="M115.526 67.034h-9.592v9.592h9.592v-9.592ZM128.638 67.034h-9.592v9.592h9.592v-9.592Z" opacity=".7"/><path fill="#584DFC" d="M141.747 67.034h-9.592v9.592h9.592v-9.592Z" opacity=".2"/><path fill="#584DFC" d="M154.859 67.034h-9.592v9.592h9.592v-9.592ZM167.971 67.034h-9.592v9.592h9.592v-9.592Z" opacity=".4"/><path fill="#584DFC" d="M181.079 67.034h-9.592v9.592h9.592v-9.592Z"/><path fill="#584DFC" d="M194.191 67.034h-9.592v9.592h9.592v-9.592Z" opacity=".2"/><path fill="#584DFC" d="M207.299 67.034h-9.592v9.592h9.592v-9.592Z" opacity=".4"/><path fill="#584DFC" d="M220.411 67.034h-9.592v9.592h9.592v-9.592Z"/><path fill="#584DFC" d="M233.523 67.034h-9.592v9.592h9.592v-9.592Z" opacity=".2"/><path fill="#584DFC" d="M246.631 67.034h-9.592v9.592h9.592v-9.592Z" opacity=".4"/><path fill="#584DFC" d="M259.743 67.034h-9.592v9.592h9.592v-9.592Z" opacity=".2"/><path fill="#584DFC" d="M272.855 67.034h-9.592v9.592h9.592v-9.592Z"/><path fill="#584DFC" d="M285.963 67.034h-9.592v9.592h9.592v-9.592Z" opacity=".2"/><path fill="#584DFC" d="M299.075 67.034h-9.592v9.592h9.592v-9.592ZM312.184 67.034h-9.592v9.592h9.592v-9.592Z" opacity=".7"/><path fill="#584DFC" d="M325.295 67.034h-9.592v9.592h9.592v-9.592Z" opacity=".4"/><path fill="#584DFC" d="M338.407 67.034h-9.592v9.592h9.592v-9.592Z" opacity=".2"/><path fill="#584DFC" d="M351.516 67.034h-9.592v9.592h9.592v-9.592ZM364.628 67.034h-9.592v9.592h9.592v-9.592ZM377.736 67.034h-9.592v9.592h9.592v-9.592Z"/><path fill="#584DFC" d="M49.974 79.183h-9.592v9.592h9.592v-9.592ZM63.086 79.183h-9.592v9.592h9.592v-9.592ZM76.194 79.183h-9.592v9.592h9.592v-9.592ZM89.306 79.183h-9.592v9.592h9.592v-9.592Z" opacity=".2"/><path fill="#584DFC" d="M102.418 79.183h-9.592v9.592h9.592v-9.592Z"/><path fill="#584DFC" d="M115.526 79.183h-9.592v9.592h9.592v-9.592ZM128.638 79.183h-9.592v9.592h9.592v-9.592Z" opacity=".7"/><path fill="#584DFC" d="M141.747 79.183h-9.592v9.592h9.592v-9.592ZM154.859 79.183h-9.592v9.592h9.592v-9.592Z" opacity=".2"/><path fill="#584DFC" d="M167.971 79.183h-9.592v9.592h9.592v-9.592ZM181.079 79.183h-9.592v9.592h9.592v-9.592Z" opacity=".4"/><path fill="#584DFC" d="M194.191 79.183h-9.592v9.592h9.592v-9.592Z"/><path fill="#584DFC" d="M207.299 79.183h-9.592v9.592h9.592v-9.592Z" opacity=".2"/><path fill="#584DFC" d="M220.411 79.183h-9.592v9.592h9.592v-9.592ZM233.523 79.183h-9.592v9.592h9.592v-9.592ZM246.631 79.183h-9.592v9.592h9.592v-9.592ZM259.743 79.183h-9.592v9.592h9.592v-9.592Z" opacity=".4"/><path fill="#584DFC" d="M272.855 79.183h-9.592v9.592h9.592v-9.592ZM285.963 79.183h-9.592v9.592h9.592v-9.592ZM299.075 79.183h-9.592v9.592h9.592v-9.592ZM312.184 79.183h-9.592v9.592h9.592v-9.592Z" opacity=".2"/><path fill="#584DFC" d="M325.295 79.183h-9.592v9.592h9.592v-9.592ZM338.407 79.183h-9.592v9.592h9.592v-9.592Z" opacity=".7"/><path fill="#584DFC" d="M351.516 79.183h-9.592v9.592h9.592v-9.592Z" opacity=".4"/><path fill="#584DFC" d="M364.628 79.183h-9.592v9.592h9.592v-9.592Z" opacity=".2"/><path fill="#584DFC" d="M377.736 79.183h-9.592v9.592h9.592v-9.592Z"/><path fill="#584DFC" d="M49.974 91.336h-9.592v9.592h9.592v-9.592ZM63.086 91.336h-9.592v9.592h9.592v-9.592Z" opacity=".2"/><path fill="#584DFC" d="M76.194 91.336h-9.592v9.592h9.592v-9.592Z" opacity=".4"/><path fill="#584DFC" d="M89.306 91.336h-9.592v9.592h9.592v-9.592ZM102.418 91.336h-9.592v9.592h9.592v-9.592Z" opacity=".2"/><path fill="#584DFC" d="M115.526 91.336h-9.592v9.592h9.592v-9.592ZM128.638 91.336h-9.592v9.592h9.592v-9.592Z" opacity=".7"/><path fill="#584DFC" d="M141.747 91.336h-9.592v9.592h9.592v-9.592ZM154.859 91.336h-9.592v9.592h9.592v-9.592Z" opacity=".2"/><path fill="#584DFC" d="M167.971 91.336h-9.592v9.592h9.592v-9.592Z" opacity=".4"/><path fill="#584DFC" d="M181.079 91.336h-9.592v9.592h9.592v-9.592Z"/><path fill="#584DFC" d="M194.191 91.336h-9.592v9.592h9.592v-9.592Z" opacity=".2"/><path fill="#584DFC" d="M207.299 91.336h-9.592v9.592h9.592v-9.592ZM220.411 91.336h-9.592v9.592h9.592v-9.592ZM233.523 91.336h-9.592v9.592h9.592v-9.592Z"/><path fill="#584DFC" d="M246.631 91.336h-9.592v9.592h9.592v-9.592Z" opacity=".2"/><path fill="#584DFC" d="M259.743 91.336h-9.592v9.592h9.592v-9.592Z"/><path fill="#584DFC" d="M272.855 91.336h-9.592v9.592h9.592v-9.592ZM285.963 91.336h-9.592v9.592h9.592v-9.592ZM299.075 91.336h-9.592v9.592h9.592v-9.592ZM312.184 91.336h-9.592v9.592h9.592v-9.592ZM325.295 91.336h-9.592v9.592h9.592v-9.592Z" opacity=".2"/><path fill="#584DFC" d="M338.407 91.336h-9.592v9.592h9.592v-9.592Z" opacity=".7"/><path fill="#584DFC" d="M351.516 91.336h-9.592v9.592h9.592v-9.592ZM364.628 91.336h-9.592v9.592h9.592v-9.592Z" opacity=".2"/><path fill="#584DFC" d="M377.736 91.336h-9.592v9.592h9.592v-9.592Z"/><path fill="#584DFC" d="M49.974 103.485h-9.592v9.592h9.592v-9.592ZM63.086 103.485h-9.592v9.592h9.592v-9.592ZM76.194 103.485h-9.592v9.592h9.592v-9.592Z" opacity=".2"/><path fill="#584DFC" d="M89.306 103.485h-9.592v9.592h9.592v-9.592Z" opacity=".4"/><path fill="#584DFC" d="M102.418 103.485h-9.592v9.592h9.592v-9.592ZM115.526 103.485h-9.592v9.592h9.592v-9.592Z" opacity=".2"/><path fill="#584DFC" d="M128.638 103.485h-9.592v9.592h9.592v-9.592Z" opacity=".7"/><path fill="#584DFC" d="M141.747 103.485h-9.592v9.592h9.592v-9.592ZM154.859 103.485h-9.592v9.592h9.592v-9.592ZM167.971 103.485h-9.592v9.592h9.592v-9.592Z" opacity=".2"/><path fill="#584DFC" d="M181.079 103.485h-9.592v9.592h9.592v-9.592Z"/><path fill="#584DFC" d="M194.191 103.485h-9.592v9.592h9.592v-9.592Z" opacity=".2"/><path fill="#584DFC" d="M207.299 103.485h-9.592v9.592h9.592v-9.592ZM220.411 103.485h-9.592v9.592h9.592v-9.592Z"/><path fill="#584DFC" d="M233.523 103.485h-9.592v9.592h9.592v-9.592ZM246.631 103.485h-9.592v9.592h9.592v-9.592ZM259.743 103.485h-9.592v9.592h9.592v-9.592ZM272.855 103.485h-9.592v9.592h9.592v-9.592ZM285.963 103.485h-9.592v9.592h9.592v-9.592ZM299.075 103.485h-9.592v9.592h9.592v-9.592ZM312.184 103.485h-9.592v9.592h9.592v-9.592ZM325.295 103.485h-9.592v9.592h9.592v-9.592ZM338.407 103.485h-9.592v9.592h9.592v-9.592ZM351.516 103.485h-9.592v9.592h9.592v-9.592Z" opacity=".2"/><path fill="#584DFC" d="M364.628 103.485h-9.592v9.592h9.592v-9.592Z" opacity=".4"/><path fill="#584DFC" d="M377.736 103.485h-9.592v9.592h9.592v-9.592Z"/><path fill="#584DFC" d="M49.974 115.639h-9.592v9.592h9.592v-9.592ZM63.086 115.639h-9.592v9.592h9.592v-9.592ZM76.194 115.639h-9.592v9.592h9.592v-9.592ZM89.306 115.639h-9.592v9.592h9.592v-9.592ZM102.418 115.639h-9.592v9.592h9.592v-9.592Z" opacity=".7"/><path fill="#584DFC" d="M115.526 115.639h-9.592v9.592h9.592v-9.592ZM128.638 115.639h-9.592v9.592h9.592v-9.592ZM141.747 115.639h-9.592v9.592h9.592v-9.592ZM154.859 115.639h-9.592v9.592h9.592v-9.592ZM167.971 115.639h-9.592v9.592h9.592v-9.592ZM181.079 115.639h-9.592v9.592h9.592v-9.592Z" opacity=".2"/><path fill="#584DFC" d="M194.191 115.639h-9.592v9.592h9.592v-9.592Z"/><path fill="#584DFC" d="M207.299 115.639h-9.592v9.592h9.592v-9.592ZM220.411 115.639h-9.592v9.592h9.592v-9.592ZM233.523 115.639h-9.592v9.592h9.592v-9.592Z" opacity=".2"/><path fill="#584DFC" d="M246.631 115.639h-9.592v9.592h9.592v-9.592Z"/><path fill="#584DFC" d="M259.743 115.639h-9.592v9.592h9.592v-9.592ZM272.855 115.639h-9.592v9.592h9.592v-9.592ZM285.963 115.639h-9.592v9.592h9.592v-9.592ZM299.075 115.639h-9.592v9.592h9.592v-9.592ZM312.184 115.639h-9.592v9.592h9.592v-9.592ZM325.295 115.639h-9.592v9.592h9.592v-9.592ZM338.407 115.639h-9.592v9.592h9.592v-9.592ZM351.516 115.639h-9.592v9.592h9.592v-9.592ZM364.628 115.639h-9.592v9.592h9.592v-9.592Z" opacity=".2"/><path fill="#584DFC" d="M377.736 115.639h-9.592v9.592h9.592v-9.592Z"/><path fill="#767D9F" d="M276.89 150.929c7.242 0 13.112-5.87 13.112-13.112 0-7.241-5.87-13.112-13.112-13.112-7.241 0-13.112 5.871-13.112 13.112 0 7.242 5.871 13.112 13.112 13.112Z"/><path fill="#AE6E79" d="M276.209 121.136a254.447 254.447 0 0 1 3.332 17.26c.416 1.702.38 3.483-.105 5.167a17.88 17.88 0 0 1-2.422 3.606 4.58 4.58 0 0 0-.959 4.072c.508 1.361 1.989 2.106 3.4 2.489 4.046 1.091 8.359.3 12.386-.884a20.039 20.039 0 0 0 5.193-2.151 19.452 19.452 0 0 0 4.392-4.136c5.87-7.118 9.713-15.661 13.33-24.152a14.712 14.712 0 0 1-12.45-5.016c-1.481-1.741-2.568-4.166-1.734-6.295-2.448 1.342-5.354 1.433-7.99 2.35a28.349 28.349 0 0 0-4.7 2.313c-1.8 1.041-3.59 2.101-5.37 3.181-2.031 1.226-3.937 2.316-6.303 2.196Z"/><path fill="#767D9F" d="M303.633 130.98c-2.3 4.471-5.287 8.769-9.555 11.431-4.268 2.662-10.013 3.384-14.289.752-2.106-1.286-3.7-3.241-5.539-4.888-1.839-1.647-4.136-3.057-6.607-2.843-2.722.237-4.854 2.361-6.678 4.4a52.293 52.293 0 0 0-7.4 9.972c-3.76 7.032-4.651 15.252-4.486 23.223.165 7.971 1.32 15.9 1.346 23.874.038 9.807-1.624 19.534-3.305 29.194 15.455-1.9 30.928 2.256 46.416 3.832 9.912 1.019 19.9 1 29.864.97 1.752 0 3.617-.045 5.076-1.015a6.837 6.837 0 0 0 2.1-2.5 23.89 23.89 0 0 0 2.313-8.295 168.078 168.078 0 0 0 1.03-21.84c.068-17.673.132-35.41-2.113-52.944a49.863 49.863 0 0 0-2.914-12.683 19.897 19.897 0 0 0-8.13-9.908c-2.425-1.391-8.047-3.813-10.9-2.41-3.21 1.563-4.692 8.685-6.229 11.678Z"/><path fill="#4C4981" d="M304.776 180.886c-.583-10.9-2.955-22.543 2.094-32.222 1.241-2.376-3.211-5.343-1.835-7.645a34.62 34.62 0 0 0 3.783-9 6.799 6.799 0 0 0 .245-3.328c-.5-1.989-2.467-3.174-4.136-4.384-1.843-1.339-2.79-5.419-3.384-7.626-.594-2.207 4.727.451 6.866-.335 2.97-1.087 6.746-.4 9.709.7 1.688.518 3.45.757 5.215.707 3.422.175 6.852.093 10.262-.244a25.508 25.508 0 0 1 4.591-.395c3.915.222 7.318 2.9 9.634 6.065 2.316 3.165 3.791 6.855 5.689 10.284 1.583 2.858 3.471 5.558 4.821 8.532a52.574 52.574 0 0 1 2.7 8.273l1.929 7.216a9.6 9.6 0 0 1 .474 3.2 9.093 9.093 0 0 1-1.128 3.256 61.668 61.668 0 0 1-7.021 10.713c-4.057 4.975-8.983 9.461-11.393 15.417a38.965 38.965 0 0 0-1.94 7.246 266.102 266.102 0 0 0-4.1 29.762 65.504 65.504 0 0 0-20.877-5.719c-2.1-.218-4.813.2-6.814-.376-3.347-.951-3.715-6.611-4.223-9.574a87.397 87.397 0 0 1-1-14.289c-.04-5.42.129-10.831-.161-16.234ZM231.282 160.494c1.583 9.025 3.328 18.076 6.768 26.555-.086.083-.173.158-.259.233-.3.26-.62.5-.951.752a12.67 12.67 0 0 0-2.256 1.707 3.023 3.023 0 0 0-.564.921 2.06 2.06 0 0 0 0 1.681c-1.794.793-3.877.549-5.888.474a7.723 7.723 0 0 0-4.806.951c-1.933 1.331-2.516 3.888-2.828 6.212a72.678 72.678 0 0 0-.5 4.922 70.819 70.819 0 0 0-.071 7.9c.02.481.046.963.079 1.444-6.144-.147-11.743-3.35-17.041-6.464a9.389 9.389 0 0 1-3.245-2.632 5.942 5.942 0 0 1-.869-3.869c.007-.192.027-.383.06-.572.168-1.116.457-2.21.861-3.264a40.32 40.32 0 0 1 7.216-12.277c1.346-1.572 2.862-3.11 3.489-5.084.275-.861.376-1.775.654-2.632 1.248-3.715 5.753-5.471 7.295-9.077a27.59 27.59 0 0 1 1.015-2.632 6.608 6.608 0 0 1 1.6-1.786c.274-.229.56-.451.842-.673a111.773 111.773 0 0 0 7.637-6.562c.457-.429.908-.862 1.354-1.3a22.332 22.332 0 0 0 .4 5.076l.008-.004Z"/><path fill="#4C4981" d="M269.175 133.804c-.541.572-1.128 1.109-1.7 1.643l-.154.139-.609.564a14.688 14.688 0 0 0-2.839 3.305l-.064.105c-1.918 3.433-1.207 7.66-.673 11.559.662 4.859.96 9.761.891 14.665-.1 6.768-.9 13.492-.91 20.253 0 1.533.034 3.067.1 4.6.109 2.493.3 4.982.523 7.472.245 2.73.538 5.456.812 8.182.218 2.109.425 4.215.6 6.321.087 1.091.169 2.177.237 3.268.079 1.279.143 2.561.18 3.839.026.812.041 1.621.041 2.433v1.38c0 .88-.023 1.757-.071 2.632a73.086 73.086 0 0 1-.229 3.384 5.49 5.49 0 0 1-1.188 3.437c-.053.053-.109.1-.166.15l-1.218-.15a125.036 125.036 0 0 0-25.307-.451c.184-1.271.353-2.538.519-3.813.075-.6.15-1.207.222-1.812.083-.692.162-1.384.237-2.076a236.886 236.886 0 0 0 .756-8.073 233.915 233.915 0 0 0 .628-12.578c.043-1.685.063-3.371.06-5.058 0-1.639-.013-3.281-.041-4.926 0-.541-.023-1.083-.068-1.621a10.138 10.138 0 0 0-.2-1.44 18.677 18.677 0 0 0-1.128-3.189c-.083-.2-.162-.376-.241-.583-.045-.1-.086-.207-.128-.308a28.088 28.088 0 0 0 5.189-7.054c2.4-4.095 4.862-8.37 5.264-13.1.402-4.73-1.948-10.044-6.468-11.487a31.394 31.394 0 0 0-3.8-.7 16.688 16.688 0 0 1-5.073-1.545 179.98 179.98 0 0 1-2.256 2.275 8.344 8.344 0 0 1 .816-3.275l.534.026a1.026 1.026 0 0 1-.06-.376 1.98 1.98 0 0 1 .872-1.361c1.771-1.5 4.557-1.839 5.674-3.873.354-.897.661-1.812.921-2.741 1.079-2.531 4.178-3.463 6.043-5.486 1.865-2.023 2.331-4.888 3.839-7.144a10.774 10.774 0 0 1 4.512-3.76c.15-.071.3-.143.459-.207a26.039 26.039 0 0 1 10.062-1.632c1.256 0 4.512.038 6.107.673.26.092.499.237.7.425 1.692 1.844-.951 5.751-2.207 7.089Z"/><path fill="#4C4981" d="M231.843 151.902a22.893 22.893 0 0 1 17.575 1.831 16.622 16.622 0 0 1 6.625 6.31c2.237 4.061 2.14 8.957 1.982 13.593a16.581 16.581 0 0 1-1.2 6.806c-1.184 2.41-3.418 4.065-5.7 5.419a15.906 15.906 0 0 1-4.633 2c-2.527.549-5.151.083-7.7-.376-2.767-.511-5.738-1.128-7.66-3.189a13.095 13.095 0 0 1-2.354-4.268c-.875-2.193-1.752-4.384-2.632-6.573-1.523-3.8-2.038-6.964-.026-10.668.914-1.688 2.031-3.268 2.933-4.967.451-.86 2.072-5.695 2.79-5.918Z"/><path fill="#504F60" d="M389.878 216.906v11.243a62.902 62.902 0 0 1-24.34 4.813h-101.41c-.053.053-.109.1-.165.15l-1.218-.15H82.354a78.574 78.574 0 0 1-40.663-11.039v-17.167l86.756-10.013h.068l50.523 4.279 13.074 1.128 6.791.575 14.056 1.192 7.231.613 10.529.9 1.482.124 7.588.643 10.3.846 14.477 1.226 24.133 2.049 16.977 1.44 27.874 2.365 5.3.447.572.049.5.041 7 .594 7.686.654.891.075 34.379 2.923Z"/><path fill="#9C9CA1" d="m287.975 216.492-108.724-18.557-4.215 21.317 49.838 5.968 15.346 1.921 42.213-8.314 5.542-2.335Z"/><path fill="#9C9CA1" d="m231.696 226.073 54.47-10.239a1.88 1.88 0 0 1 2.234 1.854 1.879 1.879 0 0 1-1.538 1.854l-53.2 9.961-1.966-3.43Z"/><path fill="#AE6E79" d="M255.325 193.875a14.058 14.058 0 0 0 4.941-1.177c1.88-.936 3.343-2.549 5.084-3.738a15.143 15.143 0 0 1 13.338-1.474 21.482 21.482 0 0 1 10.615 8.615c1.7 2.576 2.982 5.862 1.779 8.7a11.475 11.475 0 0 1-1.549 2.422l-3.136 4.1a10.89 10.89 0 0 1-2.128 2.29 9.044 9.044 0 0 1-4.069 1.414c-3.817.557-7.7.241-11.548.5-6.607.44-13.059 2.568-19.681 2.5a59.3 59.3 0 0 1-11.281-1.576l-16.459-3.384c-2.865-.587-6.1-1.444-7.453-4.042a9.376 9.376 0 0 1-.79-3.839c-.2-3.625 0-7.656 2.512-10.269 2.362-2.452 6.1-3.226 8.916-5.039 3.452-2.222 4.591-1.5 8.231.165a45.12 45.12 0 0 0 22.678 3.835v-.003Z"/><path fill="#000" d="M255.325 193.875a14.058 14.058 0 0 0 4.941-1.177c1.88-.936 3.343-2.549 5.084-3.738a15.143 15.143 0 0 1 13.338-1.474 21.482 21.482 0 0 1 10.615 8.615c1.7 2.576 2.982 5.862 1.779 8.7a11.475 11.475 0 0 1-1.549 2.422l-3.136 4.1a10.89 10.89 0 0 1-2.128 2.29 9.044 9.044 0 0 1-4.069 1.414c-3.817.557-7.7.241-11.548.5-6.607.44-13.059 2.568-19.681 2.5a59.3 59.3 0 0 1-11.281-1.576l-16.459-3.384c-2.865-.587-6.1-1.444-7.453-4.042a9.376 9.376 0 0 1-.79-3.839c-.2-3.625 0-7.656 2.512-10.269 2.362-2.452 6.1-3.226 8.916-5.039 3.452-2.222 4.591-1.5 8.231.165a45.12 45.12 0 0 0 22.678 3.835v-.003Z" opacity=".05"/><path fill="#AE6E79" d="M321.419 188.719a97.459 97.459 0 0 1-14.1 4.644c-8.107 1.786-16.59 1.5-24.633 3.546-4.249 1.083-8.472 2.828-12.837 2.474a38.53 38.53 0 0 1-5.734-1.2c-10.668-2.632-22.795-1.779-31.458 4.99a39.173 39.173 0 0 0-7.588 8.273 5.527 5.527 0 0 0 2.222 8.227 32.557 32.557 0 0 0 10.672 2.847c4.937.436 9.9-.263 14.808-.963 7.287-1.034 14.578-2.072 21.847-3.234 2.61-.417 5.219-.85 7.844-1.181 18.888-2.388 38.118.515 57.054-1.478a17.442 17.442 0 0 0 5.6-1.282c4.407-2.068 6.588-7.521 5.678-12.311-.91-4.79-4.422-8.773-8.649-11.217-3.542-2.057-7.363-2.888-11.307-3.76-3.659-.857-5.89.272-9.419 1.625Z"/><path fill="#000" d="M361.928 160.081c2.083 2.73 2.527 6.393 2.3 9.811-.227 3.418-1.038 6.8-1.158 10.232-.165 4.708.97 9.4.778 14.093a40.526 40.526 0 0 1-1.835 9.653c-1.087 3.719-2.659 7.716-6.091 9.5-4.558 2.373-14.116 1.038-18.91 2.9.436-2.719 4.618-6.656 5.054-9.374.405-1.872.5-3.797.282-5.7a12.596 12.596 0 0 0-3.5-6.31 18.451 18.451 0 0 0-9.953-5.64c-3.817-.692-13.161-.124-16.214 2.286-.376-2.489 6.618-4.888 9.077-5.426 1.226-.274 2.632-.12 3.614-.9 1.88-1.474.515-4.411.605-6.768.071-1.88 1.169-3.6 1.391-5.482.376-3.008-1.587-6.073-.816-9.025.379-1.06.834-2.092 1.361-3.087 1.339-3.177.752-6.8.038-10.179-.444-2.121-.876-4.512.3-6.321 1.094-1.688 4.2 4.324 6.189 4.046 6.569-.921 12.514-5.791 17.82-1.8 2.7 2.031 3.057 4.136 4.136 7.035 1.057 2.756 3.776 4.169 5.532 6.456Z" opacity=".1"/><path fill="#4C4981" d="M363.056 160.081c2.083 2.73 2.527 6.392 2.3 9.81-.227 3.418-1.038 6.8-1.158 10.232-.165 4.708.97 9.4.778 14.093a40.526 40.526 0 0 1-1.835 9.653c-1.087 3.719-2.659 7.716-6.091 9.5-4.558 2.373-14.116 1.038-18.91 2.9.436-2.719 4.618-6.656 5.054-9.374.405-1.872.5-3.797.282-5.7a12.6 12.6 0 0 0-3.5-6.31 18.451 18.451 0 0 0-9.953-5.64c-3.817-.692-13.161-.124-16.214 2.286-.376-2.489 6.618-4.888 9.077-5.426 1.226-.275 2.632-.12 3.614-.9 1.88-1.474.515-4.411.605-6.768.072-1.88 1.169-3.6 1.391-5.482.376-3.008-1.587-6.073-.816-9.025.379-1.06.834-2.092 1.361-3.087 1.339-3.177.752-6.8.037-10.179-.444-2.121-.876-4.512.3-6.321 1.094-1.688 3.234-2.328 5.223-2.61 6.66-.9 13.407.841 18.8 4.851 2.7 2.031 3.057 4.136 4.136 7.036 1.044 2.761 3.763 4.175 5.519 6.461Z"/><path fill="#9C9CA1" d="m114.252 142.262 20.444 75.558a4.718 4.718 0 0 0 4.1 3.463l92.021 8.84a4.713 4.713 0 0 0 5.031-5.821l-22.385-91.14a4.715 4.715 0 0 0-4.937-3.572l-90.092 6.738a4.715 4.715 0 0 0-4.182 5.934Z"/><path fill="#fff" d="M296.665 157.009c5.586 0 10.115-4.588 10.115-10.247s-4.529-10.247-10.115-10.247-10.115 4.588-10.115 10.247 4.529 10.247 10.115 10.247Z"/><path fill="#fff" d="M304.972 128.07s2.132 6.34-4.159 9.006l-.8 1.406 3.941 3.888s4.858-8.863 4.332-12.01c-.005-.001-.758-3.197-3.314-2.29Z"/><path fill="#584DFC" d="M297.827 157.009c5.387 0 9.754-4.367 9.754-9.754s-4.367-9.754-9.754-9.754-9.754 4.367-9.754 9.754 4.367 9.754 9.754 9.754ZM308.329 131.8l-1.549-2.557-2.256-.32c.481-8.419-1.7-10.927-1.7-10.927l-.508-.049-2.211-.214-4.159-4.317v-1.226c5.843.7 9.073 3.471 10.818 6.723 3.081 5.708 1.565 12.887 1.565 12.887Z"/><path fill="#000" stroke="#4C4981" d="M302.332 116.398v1.549l-2.211-.214-4.159-4.317s6.434 1.44 6.37 2.982ZM308.329 131.8l-1.549-2.557v-10.314c3.065 5.693 1.549 12.871 1.549 12.871Z" opacity=".1"/><path fill="#fff" d="M279.804 151.265c2.595-1.498 2.484-6.55-.249-11.284-2.733-4.734-7.053-7.356-9.648-5.858-2.595 1.498-2.483 6.55.25 11.284 2.732 4.734 7.052 7.356 9.647 5.858Z"/><path fill="#584DFC" d="M276.319 141.866c2.734 4.734 6.088 7.9 3.493 9.4s-10.153.752-12.886-3.986c-2.733-4.738-.252-11.281 2.343-12.785 2.595-1.504 4.313 2.623 7.05 7.371Z"/><path fill="#000" d="M300.659 107.761c0 15.127-10.352 29.706-25.479 29.706-15.129 0-27.393-12.265-27.393-27.394 0-15.129 12.264-27.393 27.393-27.393 15.127.015 25.479 9.95 25.479 25.081Z" opacity=".1"/><path fill="#AE6E79" d="M275.179 136.729c15.129 0 27.393-12.264 27.393-27.393 0-15.129-12.264-27.393-27.393-27.393-15.129 0-27.393 12.264-27.393 27.393 0 15.129 12.264 27.393 27.393 27.393Z"/><path fill="#444053" d="M272.773 97.198c3.26 1.2 5.189 4.569 8.115 6.445 4.136 2.632 9.521 1.952 14.244.651 2.632-.718 5.385-1.594 7.976-.8.381.169.802.229 1.215.173.564-.162.842-.786 1.027-1.342 3.2-9.55 1.764-20.369-3.072-29.206a18.885 18.885 0 0 0-4.806-6.065 20.041 20.041 0 0 0-5.46-2.756 54.54 54.54 0 0 0-10.86-2.68 6.742 6.742 0 0 0-1.982-.065 8.3 8.3 0 0 0-2.527 1.072 25.864 25.864 0 0 1-11.228 3.05c-5.264.2-11.281-1.042-15.338 2.335-4.888 4.05-3.67 11.95-6.84 17.447-2.1 3.636-6.144 6.276-6.81 10.416a9.598 9.598 0 0 0 .237 3.787 15.408 15.408 0 0 0 14.289 11.42 5.423 5.423 0 0 0 2.918-.6 6.596 6.596 0 0 0 1.538-1.463c4.305-5.096 9.231-14.808 17.364-11.819Z"/><path fill="#000" d="M305.348 99.556c-.184.557-.462 1.181-1.027 1.342a2.248 2.248 0 0 1-1.214-.173c-2.591-.8-5.358.079-7.972.8-4.727 1.3-10.123 2-14.244-.651-2.929-1.88-4.855-5.264-8.118-6.445-8.134-3.008-13.059 6.723-17.376 11.822a6.576 6.576 0 0 1-1.538 1.463 5.42 5.42 0 0 1-2.918.6 15.447 15.447 0 0 1-14.289-11.42 14.46 14.46 0 0 1-.218-1.128.182.182 0 0 1-.019.1 9.617 9.617 0 0 0 .237 3.787 15.413 15.413 0 0 0 14.289 11.42 5.42 5.42 0 0 0 2.918-.6 6.576 6.576 0 0 0 1.538-1.463c4.317-5.1 9.243-14.815 17.376-11.822 3.264 1.2 5.189 4.569 8.118 6.445 4.136 2.632 9.517 1.952 14.244.651 2.632-.718 5.381-1.594 7.972-.8.381.169.802.229 1.215.173.564-.162.842-.786 1.026-1.342a33.967 33.967 0 0 0 1.685-12.13 33.372 33.372 0 0 1-1.685 9.371Z" opacity=".1"/></svg>