<svg xmlns="http://www.w3.org/2000/svg" width="454" height="276" fill="none"><path fill="#584DFC" d="M357.442 229.598c51.974 0 94.108-8.189 94.108-18.291s-42.134-18.291-94.108-18.291c-51.974 0-94.108 8.189-94.108 18.291s42.134 18.291 94.108 18.291Z" opacity=".1"/><path stroke="#535461" stroke-width="2" d="M335.081 55.246s-10.107 5.343-20.272-15.855M290.365 64.694s21.43-.77 22.65-10.276"/><path fill="#584DFC" d="M432.111 206.329a5.202 5.202 0 0 0 1.705-2.574 2.285 2.285 0 0 0-1.193-2.623c-1.1-.418-2.266.339-3.152 1.109-.886.77-1.906 1.643-3.068 1.478a4.667 4.667 0 0 0 1.443-4.368 1.82 1.82 0 0 0-.4-.89c-.61-.65-1.71-.37-2.44.142-2.315 1.63-2.961 4.773-2.974 7.6a14.567 14.567 0 0 1-.044-3.117 3.218 3.218 0 0 0-1.176-2.769 3.556 3.556 0 0 0-1.781-.423 3.706 3.706 0 0 0-2.912.828 2.863 2.863 0 0 0 .116 3.562 11.571 11.571 0 0 0 3.014 2.413 6.679 6.679 0 0 1 2.155 2.053c.065.116.118.238.16.365h6.523a18.175 18.175 0 0 0 4.024-2.786Z"/><path fill="#584DFC" d="M60.04 164.6c14.169 18.015 8.666 44.334-.337 65.408-3.014 7.057-6.425 14.524-5.152 22.089 1.554 9.252 9.8 16.029 18.487 19.591a55.031 55.031 0 0 0 49.249-4.056c12.552-7.81 21.541-20.508 34.307-27.962 21.372-12.467 48.559-7.761 71.757.828 16.412 6.078 34.356 13.985 50.665 7.632 11.474-4.452 19.409-15.348 23.732-26.88 2.088-5.57 3.6-11.577 7.569-16.029a28.215 28.215 0 0 1 8.629-6.055c28.941-14.342 65.452-6.679 93.539-22.565 18.972-10.739 31.119-31 36.511-52.13 5.392-21.13 4.751-43.283 3.384-65.038-.971-15.464-2.712-31.969-12.592-43.906-10.45-12.623-28.389-17.32-44.6-14.92-16.211 2.4-30.914 10.993-43.826 21.065-16.158 12.587-31.141 28.265-50.981 33.367-13.509 3.473-27.721 1.572-41.658.917-23.3-1.1-46.6 1.336-69.762 4.007-22.178 2.565-44.525 5.388-65.643 12.6C108.366 77.67 96.38 86.936 82.261 93.41c-9.2 4.221-19.24 5.388-27.948 10.762-10.735 6.621-20.571 18.139-17.81 31.613C39.096 148.611 52.52 155.04 60.04 164.6Z" opacity=".1"/><path fill="#584DFC" d="M240.648 164.591c105.167 0 190.421-8.189 190.421-18.291s-85.254-18.291-190.421-18.291c-105.167 0-190.42 8.189-190.42 18.291s85.253 18.291 190.42 18.291Z" opacity=".1"/><path fill="#6C63FF" d="M94.298 233.534c40.956 0 75.8 5.085 89.02 12.343 3.194 1.751 5.088 3.807 5.088 5.948 0 10.1-42.134 18.291-94.108 18.291-51.974 0-94.108-8.189-94.108-18.291s42.134-18.291 94.108-18.291Z" opacity=".1"/><path fill="#E6E6F0" d="m190.5 140.597-1.492 2.168s1.625 2.168 1.781 2.44c.156.272 4.742-.134 4.742-.134l.405-1.625-.677-1.9-4.759-.949Z"/><path fill="#FDC2CC" d="m140.351 139.377-2.983.539 1.9 3.664 2.035 1.082 1.9 1.354.543-1.487-1.358-2.85-2.037-2.302Z"/><path fill="#565171" d="M189.146 104.135s15.86 3.794 18.839 8.015c0 0 2.712 2.306 0 6.505s-6.505 13.691-6.505 13.691-2.712 9.217-3.794 9.893c-1.082.676-7.32 1.22-7.863-1.336 0 0 3.522-5.557 3.522-8.135 0-2.578 5.828-14.773 5.828-14.773s-13.282-1.492-17.485-.543c-4.203.949 1.901-14.809 7.458-13.317Z"/><path fill="#000" d="M189.146 104.135s15.86 3.794 18.839 8.015c0 0 2.712 2.306 0 6.505s-6.505 13.691-6.505 13.691-2.712 9.217-3.794 9.893c-1.082.676-7.32 1.22-7.863-1.336 0 0 3.522-5.557 3.522-8.135 0-2.578 5.828-14.773 5.828-14.773s-13.282-1.492-17.485-.543c-4.203.949 1.901-14.809 7.458-13.317Z" opacity=".1"/><path fill="#565171" d="M185.891 107.795a31.327 31.327 0 0 1-.236 2.627 155.38 155.38 0 0 1-3.7 17.165 60.338 60.338 0 0 0-3.66 10.031c-.815 3.932-6.372 4.9-6.372 4.9s-15.183 1.781-18.3 1.086c-3.117-.695-8.015 2.035-10.437 1.625-2.422-.41-3.932-6.1-3.932-6.1a29.393 29.393 0 0 0 12.2-2.574c6.234-2.845 15.183-1.492 15.183-1.492a5.101 5.101 0 0 0 3.117-2.573c.948-2.035.948-14.368.677-15.183-1.781-5.343-1.634-8.771-1.122-10.771a5.376 5.376 0 0 1 1.122-2.378l15.46 3.637Z"/><path fill="#000" d="M185.891 107.795a31.327 31.327 0 0 1-.236 2.627c-1.362.107-5.183.209-8.015-1.541-2.672-1.639-6.559-2.2-8.308-2.369a5.371 5.371 0 0 1 1.122-2.378l15.437 3.661Z" opacity=".1"/><path fill="#E6E6F0" d="M187.766 106.099c-.632 1.781-1.6 3.869-1.6 3.869s-5.014.677-8.54-1.492c-3.526-2.169-9.217-2.44-9.217-2.44.922-.565 1.545-2.284 1.932-3.789.217-.851.386-1.713.508-2.582 0 0 16.67 3.388 17.365 3.932.255.218-.021 1.291-.448 2.502Z"/><path fill="#FDC2CC" d="m217.476 48.968-20.219 12.2-2.008 1.211v-5.962l1.393-.668 17.034-8.141s.815-14.773 2.983-12.467c2.168 2.306.817 13.827.817 13.827Z"/><path fill="#000" d="m197.254 61.173-2.008 1.211v-5.96l1.393-.668a43.99 43.99 0 0 0 .615 5.417Z" opacity=".1"/><path fill="#B45181" d="m181.692 63.355 14.5-8.4s.271 8.135 1.9 9.35c0 0-5.962 1.781-8.268 5.557l-8.132-6.507Z"/><path fill="#000" d="m181.692 63.355 14.5-8.4s.271 8.135 1.9 9.35c0 0-5.962 1.781-8.268 5.557l-8.132-6.507Z" opacity=".1"/><path fill="#FDC2CC" d="M217.344 70.519a90.446 90.446 0 0 1-11.465 4.11 9 9 0 0 1-3.175.365c-3.117-.543.815-4.453.815-4.453l1.639-.254 8.8-1.371s.948-13.553 2.574-12.467c1.626 1.086.812 14.07.812 14.07ZM188.197 58.319s-5.828 4.337-3.66 9.76-11.252-3.255-11.252-3.255 4.337-6.505 5.285-11.385c.948-4.88 9.627 4.88 9.627 4.88Z"/><path fill="#000" d="M187.766 106.099a30.732 30.732 0 0 0-7.836-1.825 41.775 41.775 0 0 1-9.586-2.026c.216-.851.386-1.713.508-2.582 0 0 16.67 3.388 17.365 3.932.252.217-.024 1.29-.451 2.501ZM205.874 74.628a9 9 0 0 1-3.175.365c-3.117-.543.815-4.452.815-4.452l1.639-.254a4.778 4.778 0 0 1 .721 4.341Z" opacity=".1"/><path fill="#B45181" d="M178.71 60.758s-5.285-.134-7.182 2.035c-1.897 2.169-1.492 8.015-1.492 8.015s-.4 11.706 2.574 18.255a.89.89 0 0 1 .031.672c-.031.08-.031.03-.031.03s-1.9 8.54-3.794 10.032c-1.894 1.491 4.065 3.255 11.131 4.065 7.066.81 9.893 2.845 9.893 2.845a7.072 7.072 0 0 0 1.336-4.337c.116-3-1.883-24.8-1.883-24.8s7.453 1.9 11.928-.405c0 0 2.035 1.086 3.932-1.9 1.897-2.986-1.336-6.234-1.336-6.234s-2.983 2.983-11.252-.948-11.286-7.458-13.855-7.325Z"/><path fill="#E6E6F0" d="M138.182 139.648h-1.625v2.306l1.625 3.66s2.168.405 2.306.405c.138 0 1.9-.405 1.9-.405l.543-.948s-5.969-2.311-4.749-5.018Z"/><path fill="#B45181" d="m189.146 141.817-2.44 5.423 10.3 4.9 8.135.272s.677-1.9-2.035-2.845l-2.168-.405s-2.845-5.151-3.117-7.569c0 0-2.711.543-3.117 2.574a4.014 4.014 0 0 1-5.558-2.35ZM136.962 139.105l-.828.677-3.642 2.983 8.4 11.131s4.742 2.035 6.915 0c0 0 1.336-1.336-1.625-2.44a1.86 1.86 0 0 1-2.306-1.9c0-2.3.543-4.742 1.336-5.285 0 0-2.035-.677-2.574-.134a8.65 8.65 0 0 0-1.086 1.492s-4.861-1.916-4.59-6.524Z"/><path fill="#000" d="M178.304 53.711a16.546 16.546 0 0 1-.543 2.03 7.048 7.048 0 0 0 9.025 3.878 11.12 11.12 0 0 1 1.144-1.029s-8.677-9.759-9.626-4.879ZM177.556 71.814s4.2 5.557 10.3 5.695l-10.3-5.695Z" opacity=".1"/><g fill="#000" opacity=".1"><path d="M202.677 77.252a1.558 1.558 0 0 1-.249-.093c-.133.067-.266.13-.4.191.22-.005.439-.038.65-.1l-.001.002ZM204.119 69.588a6.628 6.628 0 0 0-.472-.543 5.047 5.047 0 0 1-3.09 1.06 7.48 7.48 0 0 0 3.562-.516v-.001ZM190.499 77.567l.027.289c1.788.331 3.605.48 5.423.445a28.214 28.214 0 0 1-5.45-.734ZM181.149 103.872c-7.048-.815-13.01-2.574-11.131-4.065 1.879-1.491 3.794-10.031 3.794-10.031s0 .049.031-.031a.89.89 0 0 0-.031-.672c-2.97-6.567-2.574-18.255-2.574-18.255s-.405-5.828 1.492-8.015c1.411-1.616 4.7-1.95 6.291-2.017a2.874 2.874 0 0 0-.445 0s-5.285-.134-7.182 2.035c-1.897 2.169-1.492 8.015-1.492 8.015s-.4 11.706 2.573 18.255a.89.89 0 0 1 .031.672c-.031.08-.031.031-.031.031s-1.883 8.513-3.8 10c-1.917 1.487 4.065 3.255 11.131 4.065 7.066.81 9.893 2.845 9.893 2.845.142-.17.267-.354.374-.548a27.814 27.814 0 0 0-8.924-2.284Z"/></g><path fill="#FDC2CC" d="M184.537 59.81a7.048 7.048 0 1 0 0-14.097 7.048 7.048 0 0 0 0 14.097Z"/><path fill="#000" d="M194.569 49.609c-.583 1.46-2.324 2.013-3.851 2.39-2.182.535-4.533 1.06-6.621.233a1.45 1.45 0 0 0-.89-.174c-.248.1-.456.28-.588.512-2.3 3.277-1.928 7.645-2.525 11.608a6.446 6.446 0 0 1-1.336 3.428c-1.621 1.78-4.68 1.714-6.171 3.607-.984 1.247-.993 2.979-.984 4.568 0 1.695-.015 3.391-.045 5.089a7.535 7.535 0 0 1-.583 3.255c-.855 1.674-2.761 2.471-4.519 3.117a7.75 7.75 0 0 1-3.4.712 2.658 2.658 0 0 1-2.5-2.066c-.209-1.594 1.434-2.707 2.565-3.856a10.365 10.365 0 0 0 2.618-7.066 7.584 7.584 0 0 0-.445-3.059c-.414-1.011-1.153-1.861-1.6-2.858-1.371-3.072.321-6.625 2.346-9.315 2.025-2.69 4.515-5.312 4.947-8.647.037-.722.14-1.439.307-2.142.312-.971 1.051-3.651 1.866-4.266a9.69 9.69 0 0 1 4.452-1.852c1.251-.183 2.529-.116 3.771-.356 1.452-.281 2.8-.971 4.252-1.23 3.139-.556 6.545 3.09 7.921 5.967.376.883 1.368 1.507 1.013 2.4Z" opacity=".1"/><path fill="#F569BC" d="M194.569 49.337c-.583 1.46-2.324 2.013-3.851 2.391-2.182.534-4.533 1.06-6.621.231a1.45 1.45 0 0 0-.89-.174c-.248.1-.456.28-.588.512-2.3 3.277-1.928 7.645-2.525 11.608a6.447 6.447 0 0 1-1.336 3.428c-1.621 1.781-4.68 1.714-6.171 3.607-.984 1.247-.993 2.979-.984 4.568 0 1.695-.015 3.391-.045 5.089a7.535 7.535 0 0 1-.583 3.255c-.855 1.674-2.761 2.471-4.519 3.117a7.751 7.751 0 0 1-3.4.712 2.658 2.658 0 0 1-2.5-2.066c-.209-1.594 1.434-2.707 2.565-3.856a10.37 10.37 0 0 0 2.618-7.066 7.584 7.584 0 0 0-.445-3.059c-.414-1.011-1.153-1.861-1.6-2.858-1.371-3.072.321-6.625 2.346-9.315 2.025-2.69 4.515-5.312 4.947-8.647.037-.722.14-1.439.307-2.142.312-.971 1.051-3.651 1.866-4.265a9.688 9.688 0 0 1 4.452-1.852c1.251-.183 2.529-.116 3.771-.356 1.452-.28 2.8-.971 4.252-1.229 3.139-.557 6.545 3.09 7.921 5.966.376.883 1.368 1.507 1.013 2.401Z"/><path fill="#F7DF1E" d="M217.344 35.789h117.177v117.168H217.344V35.789Z"/><path fill="#000" d="m248.16 133.705 8.967-5.428c1.732 3.068 3.3 5.664 7.079 5.664 3.62 0 5.9-1.416 5.9-6.919V89.579h11.011v37.593c0 11.4-6.679 16.595-16.439 16.595-8.807 0-13.919-4.564-16.514-10.067m38.933-1.18 8.963-5.192c2.36 3.856 5.427 6.679 10.855 6.679 4.564 0 7.471-2.28 7.471-5.428 0-3.776-2.988-5.112-8.015-7.315l-2.752-1.18c-7.943-3.38-13.215-7.627-13.215-16.595 0-8.259 6.292-14.551 16.123-14.551 7 0 12.022 2.44 15.651 8.807l-8.571 5.508c-1.888-3.384-3.932-4.72-7.079-4.72-3.224 0-5.272 2.044-5.272 4.72 0 3.3 2.044 4.64 6.763 6.679l2.752 1.18c9.35 4.007 14.631 8.1 14.631 17.3 0 9.911-7.787 15.339-18.255 15.339-10.241 0-16.831-4.9-20.036-11.247"/><path fill="url(#a)" d="M385.921 217.982a8.392 8.392 0 0 1-7.4-4.577 16.434 16.434 0 0 0-1.946-2.765 9.357 9.357 0 0 1-1.367-4.965c.156-3.629-3.629-23.5-3.629-23.5s.472-7.569-3.313-12.3c-2.493-3.117-6.078-12.022-8.237-17.774.145.129.319.221.508.267l-.089-.494h.089l-1.118-6.14a28.006 28.006 0 0 1-4.078-6.18l.254-.053 3.348-.7s5.441-7.734 5.788-11.536h1.073a130.69 130.69 0 0 1 15.076.788c0-.022-.036-.12-.08-.276a18.858 18.858 0 0 1-.49-2.329h.312l3.117-.2s10.726-11.986 6.781-14.195c-3.945-2.209-8.046 9.938-8.046 9.938l-1.336.24-.361.067c.036-.053.071-.1.111-.151.04-.051-17.507-.784-20.21-5.049 0 0-7.73-6.153-8.046-10.241a4.626 4.626 0 0 0-2.778-3.936 6.058 6.058 0 0 0-3.068-.574l-3.62.249.254.445h-.1a12.275 12.275 0 0 1-.57-1.6h.076c-.027-.111-.049-.223-.071-.334a8.52 8.52 0 0 0 6.274-10.49c.354.045.713.035 1.064-.031a3.12 3.12 0 0 0 2.311-2.98v-.315a4.576 4.576 0 0 0-1.759-3.517 25.789 25.789 0 0 1-2.226-1.7 16.718 16.718 0 0 1-1.812-2.805 8.324 8.324 0 0 0-4.274-3.326 3.932 3.932 0 0 0-3.909.445c-.516.485-.815 1.189-1.394 1.6-.833.6-1.964.419-2.983.539a5.69 5.69 0 0 0-4.288 3.21 7.413 7.413 0 0 0-.7 3.393 9.068 9.068 0 0 0 .285 2.382c.2.775.485 1.523.7 2.3.445 1.6.548 3.29 1.06 4.87a6.129 6.129 0 0 0 1.972 3l-.151.65c-.1 0-2.556.549-4.252 4.258-1.336 2.925-5.882 5.944-7.881 7.164a3.285 3.285 0 0 0-1.487 2.066c-.192.86-.277 1.741-.254 2.622.03 2.731.675 5.421 1.888 7.868a62.998 62.998 0 0 0 5.993 10.882s.192 2.32.2 4.764a14.08 14.08 0 0 1-.521 4.542 16.525 16.525 0 0 0-.419 4.956c0 4.283.419 9.871.419 9.871s1.207.232 3.072.5l1.162 20.446a9.831 9.831 0 0 1-2.226 6.83 15.114 15.114 0 0 1-2.8 2.672c-3.313 2.364-10.41 27.289-10.41 27.289.307.006.613.028.917.067l-2.182 6.087s8.718 6.679 14.021 4.853a5.145 5.145 0 0 1 1.781-.249c1.046 0 3.286-.828 2.039-1.919a80.781 80.781 0 0 1-6.8-7.071c.171.083.335.18.49.289v-.049l.076.049c.005-.216.025-.432.058-.646l-.076-.027c.16-1.639.668-5.788 1.674-6.269 1.26-.632 10.57-19.088 10.57-19.088l9.306-23.977s7.413 12.779 13.723 14.983v5.323s3.469 15.775 4.733 17.507c1.264 1.732 0 8.674 0 8.674.249.285.535.537.85.748l-1.011 5.717s7.258-.316 19.56 3.468c-.002.022 4.727-2.026.783-4.55Zm-29.021-82.5-1.536.383-.3.076a7.202 7.202 0 0 0-.054-.3 3.137 3.137 0 0 1-1.118.272 20.566 20.566 0 0 1-.935-5.321 35.832 35.832 0 0 1-.939-6.59 4.726 4.726 0 0 1 .623-2.716l.512.04.356.338.027.022.182.165.191.169.031.027.2.183.036.031.209.178.236.2.053.044.249.2.245.2.058.045.272.2.058.04.258.191.044.031.294.209.071.049.312.214h.027l.3.2.071.049.325.209.071.044.3.187.058.036.347.2.085.049.361.2h.027l.352.187.085.045.374.187.076.036.347.16.067.031.392.169.094.04.405.165c-2.509 2.773-3.8 9.229-3.8 9.229l.001-.003Z"/><path fill="#4F4D59" d="m317.992 210.359-2.925 8.162s8.015 6.144 13.224 4.871a14.549 14.549 0 0 1 2.391-.387c1.078-.08 2.934-.868 1.781-1.866a98.48 98.48 0 0 1-8.625-9.239l-5.846-1.541ZM366.655 209.589l-1.385 7.854s7.084-.307 19.1 3.388c0 0 4.622-2 .77-4.453a8.252 8.252 0 0 1-7.235-4.453c-2.783-4.76-4.453-4.159-4.453-4.159l-6.797 1.823Z"/><path fill="#C48C96" d="m329.995 152.614 1.336 23.9a9.883 9.883 0 0 1-2.355 6.99 14.477 14.477 0 0 1-2.542 2.373c-3.233 2.311-10.165 26.64-10.165 26.64s7.854.445 10.009 2c0 0 .445-6.158 1.692-6.777 1.247-.619 10.316-18.634 10.316-18.634l9.088-23.407s7.235 12.467 13.4 14.631v5.236s3.388 15.4 4.622 17.093c1.234 1.693 0 8.46 0 8.46s3.562 4.453 11.7-.307a10.28 10.28 0 0 1-2.462-6.47c.156-3.544-3.562-22.944-3.562-22.944s.445-7.391-3.233-12.022-9.791-22.32-9.791-22.32l-4.239-9.119-23.814 14.677Z"/><g fill="#000" opacity=".1"><path d="M317.757 212.517s6.928-24.328 10.165-26.639a14.687 14.687 0 0 0 2.672-2.529 9.8 9.8 0 0 0 2.226-6.83l-1.358-23.906 22.708-14-.307-.663-23.781 14.667 1.358 23.906a9.796 9.796 0 0 1-2.226 6.83 14.681 14.681 0 0 1-2.671 2.529c-3.228 2.306-10.165 26.635-10.165 26.635s7.854.445 10.009 2c.005-.21.025-.42.058-.628a43.216 43.216 0 0 0-8.688-1.372ZM366.887 211.129s1.233-6.777 0-8.46c-1.233-1.683-4.622-17.093-4.622-17.093v-5.245c-6.158-2.155-13.4-14.631-13.4-14.631l-.534 1.4c2.088 3.313 7.658 11.532 12.552 13.242v5.236s3.388 15.4 4.622 17.093c1.234 1.693 0 8.46 0 8.46a6.429 6.429 0 0 0 5.512 1.87 6.033 6.033 0 0 1-4.13-1.872Z"/></g><path fill="#714B4F" d="m382.977 125.819-3.023.2-1.594.105v-3.85l2.093-.378 1.3-.236s4.007-11.857 7.854-9.7c3.847 2.157-6.63 13.859-6.63 13.859ZM334.471 94.077s-2 7.7-2.618 12.467c-.618 4.767 14.319.926 14.319.926s-5.7-6.928-2.462-10.624l-9.239-2.77Z"/><path fill="#E6E6F0" d="m350.639 126.134.307 2.925-4.773-.307-4.773-4.159-4.773-13.4-3.072-4.777-2.311-2.929.926-3.562s.423.37 1.135.913c2.347 1.781 7.845 5.526 11.866 4.493.186-.047.369-.105.548-.174l6.006 10.317-1.086 10.66Z"/><path fill="#000" d="M333.394 99.019s-2.462.445-4.159 4.159c-1.3 2.841-5.7 5.788-7.663 6.977a3.285 3.285 0 0 0-1.492 2.075c-.4 1.754-.548 5.027 1.607 9.733a61.595 61.595 0 0 0 5.851 10.624s.614 7.391-.307 9.546c-.921 2.155 0 14.012 0 14.012s16.167 3.081 21.559 0c5.392-3.081 4.622-14.938 4.622-14.938s5.08 10.78 6.928 11.087l-1.077-6.006s-6.007-6.469-6.314-14.782c0 0-1.848-7.547-.307-9.546 0 0 26.025 2.155 27.566.307 0 0-17.093-.77-19.711-4.929 0 0-7.547-6.006-7.854-10.009a4.426 4.426 0 0 0-2.311-3.629 6.03 6.03 0 0 0-3.451-.77l-3.478.24s6.007 10.624 5.7 12.022c-.307 1.398.307 12.627.307 12.627s-6.95-14.938-10.009-16.63c-3.059-1.692-6.625-8.656-6.625-8.656l.614-3.517" opacity=".1"/><path fill="#000" d="m350.639 126.134.307 2.925-4.773-.307-4.773-4.159-4.773-13.4-3.072-4.777-2.311-2.929.926-3.562s.423.37 1.135.913l-.214 1.215s3.562 6.955 6.621 8.651c3.059 1.696 10.009 16.63 10.009 16.63s-.614-11.243-.307-12.627c.209-.939-2.489-6.131-4.243-9.377.186-.047.368-.105.547-.174l6.007 10.317-1.086 10.661ZM379.954 126.016l-1.594.107v-3.851l2.093-.378c-.731.968-.704 2.678-.499 4.122Z" opacity=".1"/><path fill="#C48C96" d="M333.394 98.565s-2.462.445-4.159 4.159c-1.3 2.841-5.7 5.788-7.663 6.977a3.285 3.285 0 0 0-1.492 2.075c-.4 1.754-.548 5.027 1.607 9.733a61.595 61.595 0 0 0 5.851 10.624s.614 7.391-.307 9.546c-.921 2.155 0 14.012 0 14.012s16.167 3.081 21.559 0c5.392-3.081 4.622-14.938 4.622-14.938s5.076 10.762 6.928 11.091l-1.077-6.007s-6.007-6.469-6.314-14.782c0 0-1.848-7.547-.307-9.546 0 0 6.006 6.469 12.783 6.314 4.938-.03 9.874.227 14.782.77 0 0-1.541-4.929 0-6.777 0 0-17.093-.77-19.711-4.929 0 0-7.547-6.006-7.854-10.009a4.426 4.426 0 0 0-2.311-3.629 6.03 6.03 0 0 0-3.451-.77l-3.478.24s6.007 10.624 5.7 12.022c-.307 1.398.307 12.627.307 12.627s-6.95-14.947-10.009-16.639c-3.059-1.692-6.625-8.638-6.625-8.638l.614-3.517"/><path fill="#000" d="M329.993 114.732s3.7 12.467 5.851 14.012 15.245 9.395 19.1 7.547c0 0 .926 4.622-.445 5.7 0 0-14.359-.561-14.475-.614 0 0-9.395-1.233-10.935-5.851-1.54-4.618-3.388-12.467-3.388-12.467l4.292-8.327Z" opacity=".1"/><path fill="#BA7855" d="M349.717 129.054a1 1 0 1 0 0-2 1 1 0 0 0 0 2ZM351.253 134.441a1 1 0 1 0 0-2 1 1 0 0 0 0 2Z"/><g fill="#000" opacity=".1"><path d="M328.314 155.522s-.926-11.857 0-14.012c.926-2.155.307-9.546.307-9.546a61.595 61.595 0 0 1-5.851-10.624c-2.159-4.706-2-7.979-1.607-9.733a3.285 3.285 0 0 1 1.492-2.075c1.964-1.2 6.358-4.136 7.663-6.977a8.04 8.04 0 0 1 3.019-3.664l.058-.338s-2.462.445-4.159 4.159c-1.3 2.841-5.7 5.788-7.663 6.977a3.285 3.285 0 0 0-1.492 2.075c-.4 1.754-.548 5.027 1.607 9.733a61.595 61.595 0 0 0 5.851 10.624s.614 7.391-.307 9.546c-.921 2.155 0 14.012 0 14.012s11.55 2.2 18.38 1.02c-6.897.822-17.298-1.177-17.298-1.177ZM349.098 114.732a93.777 93.777 0 0 0 .174 9.947 135.09 135.09 0 0 1 1.211 2.529s-.615-11.243-.307-12.627c.294-1.336-5.116-10.98-5.655-11.933l-1.122.076s6.011 10.623 5.699 12.008ZM366.503 127.667c-6.777.156-12.783-6.314-12.783-6.314-.18.251-.311.534-.387.833 1.781 1.656 6.679 5.757 12.093 5.632 4.938-.03 9.874.227 14.782.77 0 0-.031-.1-.08-.276a122.525 122.525 0 0 0-13.625-.646v.001ZM354.482 140.602s.062.962.027 2.4c1.6 3.179 4.519 8.616 5.824 8.834l-.227-1.265c-2.24-2.809-5.624-9.969-5.624-9.969Z"/></g><path fill="#714B4F" d="m358.8 139.047-3.273.69-2.582.543 1.385-3.851.966-.24 1.5-.374s2.155-10.78 6.47-10.009c4.315.771-4.466 13.241-4.466 13.241Z"/><path fill="#000" d="m355.532 139.751-2.583.543 1.385-3.851.966-.24c.214 1.17.292 2.36.232 3.548Z" opacity=".1"/><path fill="#C48C96" d="M329.993 114.425s3.7 12.467 5.851 14.012 15.245 9.395 19.1 7.547c0 0 .926 4.622-.445 5.7 0 0-14.359-.561-14.475-.614 0 0-9.395-1.233-10.935-5.851-1.54-4.618-3.388-12.467-3.388-12.467l4.292-8.327Z"/><path fill="#000" d="M334.623 94.406s-.312 1.207-.73 2.961a8.314 8.314 0 0 0 9.177 4.23 4.786 4.786 0 0 1 .793-4.417l-9.24-2.774Z" opacity=".1"/><path fill="#714B4F" d="M341.092 101.49a8.317 8.317 0 1 0 0-16.635 8.317 8.317 0 0 0 0 16.635Z"/><path fill="#000" d="M348.315 90.884a4.45 4.45 0 0 0 1.852.116 3.05 3.05 0 0 0 2.253-2.908 4.455 4.455 0 0 0-1.714-3.433c-.7-.588-1.545-1-2.191-1.656a16.976 16.976 0 0 1-1.781-2.738 8.128 8.128 0 0 0-4.172-3.246 3.783 3.783 0 0 0-3.816.445c-.5.476-.8 1.158-1.358 1.563-.815.579-1.919.41-2.912.525a5.551 5.551 0 0 0-4.185 3.117 7.84 7.84 0 0 0-.41 5.343c.192.757.476 1.487.681 2.226.445 1.567.534 3.21 1.033 4.755a5.12 5.12 0 0 0 3.086 3.522 9.754 9.754 0 0 1 .993-5.027c.126-.34.376-.62.7-.784a1.7 1.7 0 0 1 .846 0 8.46 8.46 0 0 0 5.632-1.14c.592-.356 1.514-1.585 2.142-1.705.814-.137 2.475.838 3.321 1.025Z" opacity=".1"/><path fill="#503F43" d="M348.315 90.577a4.452 4.452 0 0 0 1.852.116 3.051 3.051 0 0 0 2.253-2.907 4.455 4.455 0 0 0-1.714-3.433c-.7-.588-1.545-1-2.191-1.656a16.985 16.985 0 0 1-1.781-2.738 8.129 8.129 0 0 0-4.172-3.246 3.783 3.783 0 0 0-3.816.445c-.5.476-.8 1.158-1.358 1.563-.815.579-1.919.41-2.912.525a5.55 5.55 0 0 0-4.185 3.117 7.84 7.84 0 0 0-.41 5.343c.192.757.476 1.487.681 2.226.445 1.567.534 3.21 1.033 4.755a5.12 5.12 0 0 0 3.086 3.522 9.753 9.753 0 0 1 1-5.023c.126-.34.376-.62.7-.784a1.7 1.7 0 0 1 .846 0 8.46 8.46 0 0 0 5.632-1.14c.592-.356 1.514-1.585 2.142-1.705.807-.142 2.468.833 3.314 1.02Z"/><path fill="#E44D26" d="m431.287 63.127-6.786 76-30.5 8.46-30.415-8.46-6.777-76h74.478Z"/><path fill="#F16529" d="m394.046 141.126 24.645-6.83 5.788-64.953h-30.433v71.783Z"/><path fill="#EBEBEB" d="M380.858 87.991h13.188v-9.324h-23.375l.223 2.5 2.293 25.691h20.864v-9.321h-12.34l-.853-9.546Zm2.12 23.532h-9.35l1.3 14.64 19.083 5.314h.044v-9.729h-.04l-10.383-2.805-.654-7.42Z"/><path fill="#000" d="M363.742 42.468h4.737v4.68h4.332v-4.68h4.738v14.177h-4.737v-4.747h-4.332v4.746h-4.738V42.468Zm20.036 4.7h-4.172v-4.7h13.081v4.7h-4.172v9.475h-4.733v-9.475h-.004Zm10.989-4.7h4.942l3.041 4.982 3.037-4.982h4.942v14.177h-4.72v-7.026l-3.259 5.04h-.08l-3.264-5.04v7.026h-4.64l.001-14.177Zm18.318 0h4.737v9.488h6.679v4.684h-11.4V42.468h-.016Z"/><path fill="#fff" d="M394.015 106.86h11.479l-1.082 12.093-10.4 2.805v9.72l19.115-5.3.138-1.576 2.191-24.547.227-2.5h-21.668v9.327-.022Zm0-18.892v.022h22.521l.187-2.1.445-4.729.223-2.5h-23.376v9.307Z"/><path fill="url(#b)" d="M158 119.238c-.868-2.542-2.119-5.788-3.117-6.527a.948.948 0 0 0-.2-.12h-.125v-3.139l-2.342.374a22.353 22.353 0 0 1-.85-3.477 1.615 1.615 0 0 0 1.759.352c-.04-.062-.071-.129-.107-.2l.107-.045a4.348 4.348 0 0 1-.566-2.133 7.725 7.725 0 0 1 .325-2.013c.418-1.447 1.126-2.8 1.523-4.252a10.34 10.34 0 0 0 .356-2.876c.01-1.645-.367-3.27-1.1-4.742a2.771 2.771 0 0 0-.828-1.082 10.75 10.75 0 0 0-1.015-.494 5.475 5.475 0 0 1-1.474-1.47 13.244 13.244 0 0 0-6.4-4.27 3.744 3.744 0 0 0-2.044-.16c-1.572.446-2.146 2.374-3.419 3.394-1.127.89-2.672.993-4.079 1.3a6.935 6.935 0 0 0-3.8 1.99 4.124 4.124 0 0 0-1.02 2.752c-.078.96.348 1.89 1.126 2.458a3.53 3.53 0 0 0 2.983.423 10.147 10.147 0 0 0 7.681 12.756l.276.49a21.027 21.027 0 0 1 1.9 4.973c-2.155 1.224-4.51 2.369-5.931 2.476a10.077 10.077 0 0 1-.307 1.643 9.078 9.078 0 0 1-1.866 3.673c-1.932 2.173-10.628 18.6-10.628 18.6s-.276.654-.721 1.781c-5.4.663-14.212 1.621-16.675 1.126l-9.662-9.181s-3.117 2.382-2.85 5.276l-1.741-1.656s-9.181 7 5.316 11.577l22.058 2.56c-2.1 6.34-4.061 13.718-3.455 17.734h.183a8.308 8.308 0 0 0 1.26-.1l-.04.712-2.124 38.038s-.485 7 6.038 10.147c0 0 7.974 23.434 4.831 26.092 0 0 .374.2 1 .472l-6.559 5.788s-4.831 1.207-7.489.966a1.918 1.918 0 0 0-2.119 1.429.325.325 0 0 1-.027.151v.468a.281.281 0 0 0 .031.156v.058c.014.056.032.111.053.165v.053c.022.053.049.107.076.16v.036c.031.053.062.107.1.16l.031.044c.038.057.081.113.129.169l.036.044c.049.058.1.111.16.169h.027l.178.151.04.031.218.156.053.036.254.147h.04l.272.134h.04l.316.129.067.027.352.116h.058l.378.1h.031l.445.085h.085l.445.067h.085l.512.049c.993.076 2.333.1 3.883.1v.249a.281.281 0 0 0 .031.156v.058c.014.056.032.111.053.165v.053c.022.053.049.107.076.16v.036c.031.053.062.107.1.16l.031.045c.038.057.081.113.129.169l.036.045c.049.058.1.111.16.169h.022l.178.151.04.031.218.156.053.036.249.147h.04l.272.134h.04l.316.129.067.027.352.116h.058l.378.1h.031l.445.085h.085l.445.067h.085l.512.049c6.283.485 26.332-.966 26.332-.966v-.131c.2-.935 1.162-6.372-2.257-10.392.102-.107.2-.218.294-.334 0 0-2.672-4.591-1.207-6.038s-7.075-26.35-7.075-26.35-4.59-7.249-1.932-15.464-.24-17.151-.24-17.151 6.345-1.879 6.461-9.684v-.726c.132.019.266.028.4.027.089.006.178.006.267 0 0 0-1.207-4.35.24-7.489 1.447-3.139 4.591-.24 7.489-13.046 2.1-9.266 3.94-19.921 4.8-25.108a13.225 13.225 0 0 0-.511-6.417Zm-55.131 27.16-2.2-2.093c.73.3 1.541.6 2.444.891l8.3.975c-3.7.334-7.164.521-8.544.24v-.013Z"/><path fill="#FDC2CC" d="M123.899 145.178s-17.089 2.373-20.651 1.661l-9.493-9.021s-9.021 6.884 5.223 11.394l26.582 3.086-1.661-7.12Z"/><path fill="#000" d="M123.899 145.178s-17.089 2.373-20.651 1.661l-9.493-9.021s-9.021 6.884 5.223 11.394l26.582 3.086-1.661-7.12Z" opacity=".05"/><path fill="#264DE4" d="m90.446 151.167-36.929-10.241-8.228-92.3h90.426l-8.237 92.287-37.032 10.254Z"/><path fill="#2965F1" d="m120.425 135.04 7.044-78.863h-36.96v87.14l29.916-8.277Z"/><path fill="#EBEBEB" d="m64.178 90.395 1.015 11.318h25.335V90.395h-26.35Zm-2.04-22.913 1.03 11.318h27.356V67.482H62.116h.023Zm28.386 52.313h-.05l-12.61-3.406-.805-9.03H65.674l1.585 17.774 23.189 6.452h.053l.023-11.79Z"/><path fill="#000" d="M66.572 23.531H80.28v5.735H72.3v5.735h7.98v5.735H66.57V23.531Zm16.474 0h13.709v4.987h-8v1h7.979v11.47h-13.71v-5.236h7.979v-1h-7.98V23.531h.023Zm16.474 0h13.709v4.987h-8.019v1h7.982v11.47H99.476v-5.236h7.979v-1h-7.98V23.531h.045Z"/><path fill="#fff" d="m116.779 90.395 2.044-22.913H90.447V78.8H106.4l-1.029 11.577H90.447v11.318h13.941l-1.336 14.693-12.605 3.416v11.777l23.207-6.434.169-1.915 2.671-29.805.276-3.041.009.009Z"/><path fill="#47465A" d="m130.074 241.54-8.308 7.356s-4.746 1.189-7.356.948c-2.61-.241-3.8 4.034 2.373 4.51s25.869-.948 25.869-.948 1.9-7.6-3.8-11.866h-8.778Z"/><path fill="#000" d="m130.074 241.54-8.308 7.356s-4.746 1.189-7.356.948c-2.61-.241-3.8 4.034 2.373 4.51s25.869-.948 25.869-.948 1.9-7.6-3.8-11.866h-8.778Z" opacity=".05"/><path fill="#fff" d="M142.946 250.124a13.1 13.1 0 0 1-.3 2.573s-19.7 1.425-25.869.948c-2.97-.227-4.23-1.336-4.453-2.4-.272 1.22.806 2.827 4.453 3.117 6.171.476 25.869-.948 25.869-.948.232-1.081.333-2.185.3-3.29Z" opacity=".3"/><path fill="#FDC2CC" d="M139.799 106.989s5.223 7.356 3.322 12.342c-1.901 4.986 9.969-5.223 9.969-5.223s-3.8-6.674-1.9-13.8l-11.391 6.681Z"/><path fill="#47465A" d="m138.374 244.389-8.3 7.356s-4.746 1.189-7.356.948c-2.61-.241-3.8 4.034 2.373 4.51s25.869-.948 25.869-.948 1.9-7.6-3.8-11.866h-8.786Z"/><path fill="#565171" d="M140.761 242.729a6.303 6.303 0 0 1-4.809 2.2c-4.15.2-8.718-2.2-8.718-2.2 3.086-2.609-4.746-25.633-4.746-25.633-6.407-3.086-5.935-9.969-5.935-9.969l2.079-37.357.525-9.386 6.648-4.034 5.236 4.007 4.969 3.811c.323 1.211.532 2.45.623 3.7.579 8.722-6.318 10.775-6.318 10.775s2.85 8.78.236 16.853c-2.614 8.073 1.9 15.192 1.9 15.192s8.544 24.685 7.124 26.109c-1.42 1.424 1.186 5.932 1.186 5.932Z"/><path fill="#000" d="M140.761 242.729a6.303 6.303 0 0 1-4.809 2.2c-4.15.2-8.718-2.2-8.718-2.2 3.086-2.609-4.746-25.633-4.746-25.633-6.407-3.086-5.935-9.969-5.935-9.969l2.079-37.357.525-9.386 6.648-4.034 5.236 4.007 4.969 3.811c.323 1.211.532 2.45.623 3.7.579 8.722-6.318 10.775-6.318 10.775s2.85 8.78.236 16.853c-2.614 8.073 1.9 15.192 1.9 15.192s8.544 24.685 7.124 26.109c-1.42 1.424 1.186 5.932 1.186 5.932Z" opacity=".05"/><path fill="#565171" d="M149.055 245.574c-4.034 4.982-13.527 0-13.527 0a1.52 1.52 0 0 0 .414-.645c1.741-4.733-5.873-27.361-5.873-27.361-6.407-3.086-7.124-10.441-7.124-10.441l-1.679-38.033-.218-4.924 9.987-3.811 3.068-1.171 10.216 7.83c.439 1.623.654 3.297.641 4.978-.129 7.663-6.349 9.515-6.349 9.515s2.85 8.78.236 16.853c-2.614 8.073 1.91 15.17 1.91 15.17s8.544 24.685 7.124 26.11c-1.42 1.425 1.174 5.93 1.174 5.93Z"/><path fill="#000" d="M144.964 171.996c-2.053-.294-6.207-2.765-8.34-4.105-.815-.512-1.336-.855-1.336-.855s-2.137-5.935-7.832-1.425a21.327 21.327 0 0 1-6.189 3.5c-.857.303-1.741.525-2.64.663l.525-9.386 6.648-4.034 5.236 4.007 3.068-1.171 10.218 7.828c.439 1.623.654 3.297.641 4.978h.001Z" opacity=".1"/><path fill="#E1A0A7" d="M157.809 126.451c-.846 5.094-2.672 15.584-4.72 24.662-2.85 12.578-5.935 9.729-7.355 12.814-1.42 3.085-.236 7.356-.236 7.356-2.373.236-10.205-4.982-10.205-4.982s-2.137-5.935-7.832-1.425-10.205 4.27-10.205 4.27c-1.189-7.832 7.6-28.719 7.6-28.719s8.544-16.14 10.441-18.255a8.903 8.903 0 0 0 1.834-3.607 9.802 9.802 0 0 0 .3-1.612c3.086-.236 10.686-5.459 10.686-5.459l5.935-.948v3.086a.864.864 0 0 1 .2.12c.975.744 2.226 3.914 3.059 6.412.68 2.023.851 4.182.498 6.287Z"/><path fill="#FDC2CC" d="m130.074 148.741-3.068-.356-23.514-2.729c-14.248-4.51-5.223-11.394-5.223-11.394l9.493 9.021c2.738.548 13.482-.73 18.3-1.336 1.443-.187 2.355-.312 2.355-.312l1.657 7.106Z"/><path fill="#000" d="M153.09 116.7s-6.171-4.982-15.446 11.154c-9.275 16.136-11.394 13.527-11.394 13.527s1.9 7.124.948 8.544c0 0 6.407-.477 8.78 0 2.373.477 17.089-18.037 17.089-18.037s7.619-10.441.023-15.188Z" opacity=".1"/><path fill="#000" d="M152.853 115.751s-6.171-4.982-15.428 11.154c-9.257 16.136-11.394 13.527-11.394 13.527s7.356 8.068 9.729 8.544c2.373.476 17.089-18.037 17.089-18.037s7.6-10.441.004-15.188Z" opacity=".1"/><path fill="#000" d="M127.002 148.397a28.594 28.594 0 0 0-.948-6.452c1.443-.187 2.355-.312 2.355-.312l1.661 7.124-3.068-.36Z" opacity=".1"/><path fill="#E1A0A7" d="M153.09 116.223s-6.171-4.982-15.446 11.158c-9.275 16.14-11.394 13.527-11.394 13.527s1.9 7.124.948 8.544c0 0 6.407-.476 8.78 0 2.373.476 17.089-18.037 17.089-18.037s7.619-10.445.023-15.192Z"/><path fill="#000" d="m151.447 100.796-11.412 6.639c.483.7.929 1.426 1.336 2.173.657.133 1.325.2 1.995.2 3.041 0 4.452-3.192 6.291-5.343-.134-1.71 1.264-1.759 1.79-3.669Z" opacity=".1"/><path fill="#FDC2CC" d="M143.12 109.344c5.506 0 9.969-4.463 9.969-9.969 0-5.506-4.463-9.969-9.969-9.969-5.506 0-9.969 4.463-9.969 9.969 0 5.506 4.463 9.969 9.969 9.969Z"/><path fill="#000" d="M130.52 91.311a6.808 6.808 0 0 1 3.731-1.959c1.385-.3 2.9-.387 4.007-1.273 1.251-1 1.812-2.907 3.357-3.335a3.682 3.682 0 0 1 2.008.16 13.007 13.007 0 0 1 6.287 4.194c.387.57.88 1.062 1.452 1.447.342.144.675.306 1 .485.354.282.633.647.81 1.064a10.325 10.325 0 0 1 .721 7.244c-.387 1.429-1.082 2.756-1.5 4.181a5.511 5.511 0 0 0 .236 4.31 1.757 1.757 0 0 1-2.111-.779 8.345 8.345 0 0 1-.837-2.306 8.792 8.792 0 0 0-2.574-4.007c-.748-.659-2.084-1.1-2.6-.254-.2.329-.187.752-.361 1.1a1.471 1.471 0 0 1-1.972.445 3.023 3.023 0 0 1-1.233-1.83c-.975-3.308-2.645-5.388-6.18-3.976-1.336.525-2.872.891-4.141 0-1.627-1.197-1.302-3.562-.1-4.911Z" opacity=".1"/><path fill="#8F5A6A" d="M130.52 91.071a6.812 6.812 0 0 1 3.731-1.959c1.385-.3 2.9-.387 4.007-1.273 1.251-1 1.812-2.908 3.357-3.335a3.68 3.68 0 0 1 2.008.16 13.003 13.003 0 0 1 6.287 4.194c.387.57.879 1.062 1.451 1.447.342.144.675.306 1 .485.354.282.633.647.81 1.064a10.32 10.32 0 0 1 .721 7.244c-.387 1.429-1.082 2.756-1.5 4.181a5.516 5.516 0 0 0 .236 4.31 1.758 1.758 0 0 1-2.111-.779 8.345 8.345 0 0 1-.837-2.306 8.792 8.792 0 0 0-2.574-4.007c-.748-.659-2.084-1.1-2.6-.254-.2.329-.187.753-.361 1.1a1.471 1.471 0 0 1-1.972.445 3.023 3.023 0 0 1-1.233-1.83c-.975-3.308-2.645-5.388-6.18-3.976-1.336.525-2.872.891-4.141 0-1.626-1.189-1.301-3.557-.099-4.911Z"/><path fill="#000" d="M154.234 113.734h-4.822s-9.493 4.746-9.729 4.51a8.172 8.172 0 0 0-2.56.307 9.802 9.802 0 0 0 .3-1.612c3.086-.236 10.686-5.459 10.686-5.459l5.935-.948v3.086a.92.92 0 0 1 .19.116Z" opacity=".05"/><path fill="#fff" d="M151.25 252.969a13.11 13.11 0 0 1-.3 2.574s-19.7 1.425-25.869.948c-2.97-.227-4.23-1.336-4.453-2.4-.272 1.22.806 2.827 4.453 3.117 6.171.476 25.869-.948 25.869-.948a13.73 13.73 0 0 0 .3-3.291Z" opacity=".3"/><g fill="#000" opacity=".05"><path d="M125.203 164.64a20.31 20.31 0 0 1-7.894 4.007c.007.175.028.349.062.521 0 0 4.51.236 10.205-4.27a7.655 7.655 0 0 1 3.05-1.594c-1.242-.609-3.014-.569-5.423 1.336ZM157.413 120.14c-.85-2.5-2.084-5.664-3.059-6.412a.864.864 0 0 0-.2-.12s-1.964.067-1.9.12c.975.744 1.928 3.678 2.778 6.171.689 2.025.866 4.189.517 6.3-.846 5.094-2.671 15.584-4.72 24.662-2.85 12.578-5.935 9.729-7.356 12.814-1.167 2.529-.583 5.851-.329 6.968a5.982 5.982 0 0 0 2.467.628s-1.189-4.27.236-7.356c1.425-3.086 4.51-.236 7.356-12.814 2.062-9.1 3.874-19.591 4.72-24.663a12.987 12.987 0 0 0-.51-6.298Z"/></g><path fill="#584DFC" d="M184.996 164.476a5.202 5.202 0 0 0 1.705-2.574 2.283 2.283 0 0 0-1.193-2.623c-1.1-.419-2.266.338-3.152 1.109-.886.771-1.906 1.643-3.068 1.478a4.667 4.667 0 0 0 1.443-4.368 1.823 1.823 0 0 0-.4-.891c-.61-.65-1.71-.37-2.44.142-2.315 1.63-2.961 4.773-2.974 7.6a14.631 14.631 0 0 1-.045-3.117 3.217 3.217 0 0 0-1.175-2.769 3.556 3.556 0 0 0-1.781-.423 3.707 3.707 0 0 0-2.912.828 2.863 2.863 0 0 0 .116 3.562 11.604 11.604 0 0 0 3.014 2.413 6.678 6.678 0 0 1 2.151 2.06c.065.116.119.238.16.365h6.523a18.179 18.179 0 0 0 4.028-2.792Z"/><defs><linearGradient id="a" x1="352.768" x2="352.768" y1="225.385" y2="74.616" gradientUnits="userSpaceOnUse"><stop stop-color="gray" stop-opacity=".251"/><stop offset=".54" stop-color="gray" stop-opacity=".122"/><stop offset="1" stop-color="gray" stop-opacity=".102"/></linearGradient><linearGradient id="b" x1="124.498" x2="124.498" y1="258.782" y2="82.891" gradientUnits="userSpaceOnUse"><stop stop-color="gray" stop-opacity=".251"/><stop offset=".54" stop-color="gray" stop-opacity=".122"/><stop offset="1" stop-color="gray" stop-opacity=".102"/></linearGradient></defs></svg>