<svg width="212" height="212" viewBox="0 0 212 212" fill="none" xmlns="http://www.w3.org/2000/svg">
<g clip-path="url(#clip0_54_828)">
<path d="M91.3067 80.0656L79.3199 99.1359L61.0126 86.7036L72.726 67.6907L91.3067 80.0656Z" fill="#3E4347"/>
<path d="M48.5882 41.0662L27.5826 74.3024C26.7182 75.6255 27.0622 77.2662 28.328 77.8571L40.624 86.1262L52.92 94.3953C54.2431 95.2597 55.6102 94.973 56.4746 93.6499L77.4802 60.4136C78.3446 59.0905 78.0006 57.4499 76.7349 56.859L52.1428 40.3208C51.0932 39.3991 49.4526 39.7431 48.5882 41.0662Z" fill="#94989B"/>
<path d="M13.4346 96.6804C12.5702 98.0035 12.9142 99.6442 14.18 100.235L38.5559 117.104C39.879 117.968 41.5196 117.624 42.384 116.301C42.384 116.301 46.6486 109.412 46.8647 109.082L18.2461 89.6768C17.6992 89.7915 13.4346 96.6804 13.4346 96.6804Z" fill="#94989B"/>
<path d="M40.408 86.457L28.112 78.1879C28.112 78.1879 32.5974 83.242 24.0767 86.1706C20.6367 87.4628 18.5639 88.4684 17.6995 89.7915L46.3182 109.196C47.1252 107.6 47.2134 105.298 47.0149 101.628C46.2165 92.3755 52.4306 94.7834 52.4306 94.7834L40.408 86.457Z" fill="#3E4347"/>
<path d="M110.746 25.7483C77.2235 3.37548 53.466 41.1852 53.466 41.1852L75.081 55.7785C75.081 55.7785 87.4337 28.9241 110.411 30.9568C113.044 31.2611 115.461 31.8961 116.167 31.1773C117.088 30.1276 113.062 27.261 110.746 25.7483Z" fill="#3E4347"/>
<path d="M85.3134 89.6008L77.5912 101.782C77.5912 101.782 84.5067 108.896 95.1488 116.084C106.783 123.921 120.839 126.969 136.443 137.399C159.712 153.072 180.043 171.075 187.448 177.8C190.266 180.349 190.483 180.019 192.644 176.711L199.069 166.514L85.3134 89.6008Z" fill="#B40031"/>
<path d="M85.3134 89.6008L93.0356 77.4194C93.0356 77.4194 102.055 80.9519 112.697 88.1405C124.331 95.9774 132.61 108.229 148.213 118.659C171.482 134.333 195.43 146.439 204.621 150.791C208.088 152.348 207.929 152.952 205.768 156.26L199.343 166.457L85.3134 89.6008Z" fill="#B40031" fill-opacity="0.6"/>
</g>
<defs>
<clipPath id="clip0_54_828">
<rect width="178.806" height="178.806" fill="white" transform="translate(0 36.6964) rotate(-11.843)"/>
</clipPath>
</defs>
</svg>
