<svg width="40" height="40" viewBox="0 0 40 40" fill="none" xmlns="http://www.w3.org/2000/svg">
<path d="M20 40C31.0457 40 40 31.0457 40 20C40 8.9543 31.0457 0 20 0C8.9543 0 0 8.9543 0 20C0 31.0457 8.9543 40 20 40Z" fill="#ECEBFB"/>
<path fill-rule="evenodd" clip-rule="evenodd" d="M25.512 22L26.179 17.657H22.011V14.838C21.9521 14.1808 22.1951 13.5325 22.6715 13.076C23.1479 12.6195 23.8059 12.4042 24.46 12.491H26.355V8.793C25.2423 8.61341 24.118 8.51549 22.991 8.5C19.559 8.5 17.316 10.58 17.316 14.346V17.656H13.5V22H17.316V32.5H22.016V22H25.512Z" stroke="#3D3691" stroke-width="2"/>
</svg>
