<svg width="40" height="40" viewBox="0 0 40 40" fill="none" xmlns="http://www.w3.org/2000/svg">
<path class="icon-background" d="M20 40C31.0457 40 40 31.0457 40 20C40 8.9543 31.0457 0 20 0C8.9543 0 0 8.9543 0 20C0 31.0457 8.9543 40 20 40Z" fill="#ECEBFB"/>
<path class="icon-logo" fill-rule="evenodd" clip-rule="evenodd" d="M32.5 10.516C31.4555 11.2528 30.299 11.8164 29.075 12.185C27.7299 10.6375 25.5617 10.0942 23.6458 10.8246C21.7298 11.555 20.4736 13.4037 20.5 15.454V16.545C16.6062 16.6459 12.9205 14.7906 10.682 11.603C10.682 11.603 6.318 21.416 16.136 25.785C13.8893 27.3096 11.213 28.074 8.5 27.966C18.318 33.421 30.318 27.966 30.318 15.421C30.3171 15.1173 30.2879 14.8143 30.231 14.516C31.3438 13.419 32.1294 12.034 32.5 10.516Z" stroke="#3D3691" stroke-width="2" stroke-linecap="round" stroke-linejoin="round"/>
</svg>
