<svg width="621" height="642" viewBox="0 0 621 642" fill="none" xmlns="http://www.w3.org/2000/svg">
<g opacity="0.5">
<path d="M31.873 169.771V166.512H13.406V169.771H31.873Z" fill="#47E6B1"/>
<path d="M24.269 158.908H21.01V177.375H24.269V158.908Z" fill="#47E6B1"/>
</g>
<g opacity="0.5">
<path d="M414.08 11.0344V7.77539L395.613 7.77539V11.0344L414.08 11.0344Z" fill="#47E6B1"/>
<path d="M406.476 0.171387H403.217V18.6384H406.476V0.171387Z" fill="#47E6B1"/>
</g>
<path opacity="0.5" d="M150.699 21.2524C150.699 24.8522 153.617 27.7704 157.217 27.7704C160.817 27.7704 163.735 24.8522 163.735 21.2524C163.735 17.6526 160.817 14.7344 157.217 14.7344C153.617 14.7344 150.699 17.6526 150.699 21.2524Z" fill="#F55F44"/>
<path opacity="0.5" d="M528.18 138.671C528.18 142.27 531.098 145.189 534.698 145.189C538.298 145.189 541.216 142.27 541.216 138.671C541.216 135.071 538.298 132.153 534.698 132.153C531.098 132.153 528.18 135.071 528.18 138.671Z" fill="#4D8AF0"/>
<path d="M362.047 607.054C489.871 607.054 593.492 577.448 593.492 540.927C593.492 504.406 489.871 474.8 362.047 474.8C234.224 474.8 130.603 504.406 130.603 540.927C130.603 577.448 234.224 607.054 362.047 607.054Z" fill="#F5F5F5"/>
<path d="M546.982 283.687C546.982 283.687 505.984 324.685 529.124 385.522C552.264 446.36 489.447 547.533 489.447 547.533C489.447 547.533 490.108 547.436 491.371 547.216C575.577 532.351 617.415 436.044 570.592 364.5C553.211 337.904 538.894 306.699 546.982 283.687Z" fill="#6C63FF"/>
<path d="M546.982 283.687C546.982 283.687 523.838 333.943 546.982 374.942C570.127 415.942 550.95 531.002 489.452 547.533" stroke="#535461" stroke-width="2"/>
<path d="M620 449.513C620 449.513 573.219 442.061 568.949 483.992C564.679 525.923 479.017 531.729 479.017 531.729C479.017 531.729 479.573 532.112 480.625 532.797C551.378 579.244 619.026 562.382 608.835 500.705C605.016 477.783 605.32 454.75 620 449.513Z" fill="#6C63FF"/>
<path opacity="0.2" d="M620 449.513C620 449.513 573.219 442.061 568.949 483.992C564.679 525.923 479.017 531.729 479.017 531.729C479.017 531.729 479.573 532.112 480.625 532.797C551.378 579.244 619.026 562.382 608.835 500.705C605.016 477.783 605.32 454.75 620 449.513Z" fill="#F5F5F5"/>
<path d="M620 449.513C620 449.513 583.683 457.488 586.665 490.512C589.648 523.536 532.712 563.11 478.991 531.716" stroke="#535461" stroke-width="2"/>
<path opacity="0.128" d="M136.687 55.0743C129.408 54.8307 121.953 55.0743 115.128 57.5317C96.5578 64.214 87.7588 86.0748 90.617 105.008C93.4753 123.942 105.252 140.382 117.467 155.447C129.681 170.512 142.917 185.385 149.616 203.368C152.957 212.351 154.518 222.415 151.123 231.381C145.882 245.208 130.096 252.937 114.938 254.539C99.7801 256.141 84.5598 253.014 69.3463 251.925C62.963 251.49 56.4001 251.44 50.3875 253.459C43.7877 255.663 38.2895 260.156 33.2339 264.846C13.5073 283.231 -2.28264 308.327 0.271864 334.671C3.16121 364.539 28.9275 388.149 57.1464 400.811C66.491 405.01 76.3761 408.408 84.6015 414.398C106.269 430.204 111.136 459.82 108.978 485.966C106.82 512.112 99.4666 538.287 103.561 564.208C108.373 594.354 129.669 621.582 158.398 634.303C183.992 645.629 216.025 644.924 238.748 628.901C249.826 621.06 258.204 610.247 265.49 599.033C276.456 582.178 285.382 564.079 292.078 545.118C295.247 536.135 298.227 526.472 305.62 520.225C310.134 516.382 315.985 514.231 321.771 512.557C339.214 507.521 357.585 506.136 375.191 501.658C392.797 497.18 410.509 488.832 420.079 473.908C433.621 452.727 427.302 425.638 427.365 400.719C427.474 343.942 462.674 293.116 475.666 237.788C479.909 219.7 481.489 199.687 472.01 183.559C465.564 172.555 454.703 164.713 443.281 158.616C418.184 145.163 389.654 139.178 361.586 133.349C322.575 125.263 275.206 124.218 244.968 98.0612C215.956 72.9703 176.254 55.0743 136.687 55.0743Z" fill="#6C63FF"/>
<g opacity="0.5">
<path d="M224.211 292.578C224.21 282.198 222.585 271.883 219.395 262.006L211.455 237.385V236.168C211.7 220.397 199.407 212.528 194.672 213.381C189.825 214.254 176.375 207.509 176.375 207.509V207.694C175.453 206.633 174.621 205.497 173.889 204.297C178.583 200.878 181.701 195.71 182.536 189.963C183.371 184.215 181.854 178.374 178.326 173.76C179.78 172.667 180.889 171.18 181.52 169.475C182.618 166.386 181.778 162.862 179.993 160.111C179.233 158.962 178.346 157.904 177.348 156.956C175.835 155.458 174.183 154.108 172.414 152.923C168.004 149.868 163.156 147.242 157.867 146.31C156.952 146.094 155.999 146.094 155.083 146.31C154.289 146.631 153.533 147.039 152.829 147.528C149.205 149.591 144.695 148.698 140.516 148.48C136.337 148.261 131.258 149.432 129.937 153.353C129.65 154.594 129.429 155.85 129.276 157.116C128.615 160.157 126.267 162.518 124.455 165.051C122.643 167.584 121.288 171.002 122.796 173.753C123.311 174.679 124.119 175.532 124.119 176.59C124.001 177.34 123.778 178.07 123.458 178.759C123.134 180.466 123.802 182.209 125.183 183.262C125.753 183.877 126.424 184.389 127.167 184.776C129.264 185.844 131.677 186.178 133.813 187.17C134.879 187.671 135.857 188.341 136.709 189.154C138.817 191.361 139.951 194.322 139.856 197.373L140.299 197.42V197.808C140.762 197.861 141.251 197.905 141.733 197.928C142.428 199.049 143.222 200.104 144.107 201.082C143.957 201.646 143.787 202.219 143.598 202.802C142.045 203.88 129.331 212.344 114.879 210.307C99.4471 208.131 90.6306 275.581 90.6306 275.581C90.0589 279.438 89.7805 283.333 89.7978 287.232C89.7318 297.151 91.8146 310.132 103.42 308.221L109.589 306.19V339.553C109.589 339.553 110.469 348.692 107.387 354.763C104.306 360.833 117.093 358.677 117.093 358.677C117.093 358.677 117.578 359.186 118.482 360.052L118.197 360.853L118.574 361.241C116.893 366.989 114.626 372.548 111.809 377.833L112.173 378.018C111.942 378.462 111.809 378.679 111.809 378.679C111.809 378.679 116.557 381.105 123.09 384.234C128.341 401.982 139.833 443.086 136.051 450.916L136.156 451.141C136.864 452.609 140.815 461.265 140.018 469.193C139.297 476.278 149.11 508.492 152.774 520.19L151.042 520.54L157.212 542.733L155.889 557.097C155.889 557.097 148.397 577.114 166.026 573.199C183.655 569.284 178.808 553.182 178.808 553.182L179.251 520.542C179.251 520.542 177.552 519.597 175.455 518.69C174.014 514.796 170.873 505.588 170.873 499.223C170.873 490.957 165.14 455.269 165.14 455.269V455.017L165.107 454.541V454.461C165.107 454.017 165.034 453.41 164.982 452.669V452.623C164.321 442.974 162.337 410.196 163.785 393.108C165.059 392.24 166.384 391.449 167.753 390.741C172.045 401.586 183.108 430.887 182.4 443.18C181.52 458.39 182.181 446.447 182.4 444.503C182.466 443.901 182.512 444.629 182.532 446.262V452.696C182.532 454.018 182.532 455.486 182.485 457.014V457.939C182.485 458.872 182.485 459.824 182.438 460.79C182.438 462.113 182.386 463.395 182.359 464.725C182.293 467.7 182.206 470.709 182.101 473.527C182.101 473.84 182.09 474.151 182.068 474.459C182.046 475.077 182.021 475.681 181.995 476.271C181.968 476.862 181.942 477.44 181.915 478.004C181.889 478.563 181.86 479.108 181.829 479.637C181.796 480.258 181.756 480.854 181.723 481.423L179.33 481.079L178.82 486.582C178.018 495.315 179.147 504.118 182.125 512.366C182.945 514.628 183.581 516.499 183.719 517.167C184.162 519.343 183.719 535.025 183.719 535.025C183.719 535.025 186.363 555.477 198.71 551.556C204.264 549.791 206.959 544.421 208.251 539.036C209.682 532.796 209.148 526.267 206.724 520.342C204.971 515.938 203.179 509.763 204.442 504.988C206.644 496.722 206.644 484.971 206.644 484.971L205.285 484.777C205.625 484.132 205.931 483.47 206.204 482.793C206.204 482.793 205.762 452.765 209.728 448.85C211.91 446.695 211.712 441.517 211.051 437.284C210.107 431.16 209.885 424.945 210.39 418.769C210.485 416.42 210.86 414.091 211.508 411.832C212.673 409.531 213.838 386.334 208.685 375.171L209.743 374.84L209.578 374.02L209.743 373.968C210.52 376.042 211.403 378.075 212.388 380.058C212.648 380.262 212.947 380.411 213.267 380.495C227.544 377.989 228.117 364.664 227.326 357.39C227.927 357.681 228.258 357.866 228.258 357.866L229.581 338.689C230.955 335.123 231.576 331.312 231.407 327.494C231.459 312.392 224.211 292.578 224.211 292.578ZM208.473 347.086C207.494 338.735 206.138 330.872 206.138 330.872L199.526 307.371V298.815L210.014 337.962L208.473 347.086Z" fill="url(#paint0_linear_1_154)"/>
</g>
<path d="M178.742 475.461L178.257 480.837C177.484 489.379 178.576 497.987 181.46 506.064C182.247 508.28 182.862 510.105 182.994 510.759C183.418 512.888 182.994 528.197 182.994 528.197C182.994 528.197 185.547 548.191 197.456 544.359C202.812 542.64 205.391 537.382 206.661 532.13C208.037 526.033 207.52 519.661 205.179 513.866C203.487 509.56 201.754 503.511 202.977 498.861C205.107 490.78 205.107 479.3 205.107 479.3L178.742 475.461Z" fill="#5A5773"/>
<path d="M165.987 383.175C165.987 383.175 182.572 423.578 181.719 438.456C180.866 453.335 181.508 441.644 181.719 439.733C182.096 436.327 181.719 476.763 180.443 481.393C180.443 481.393 197.881 494.149 204.684 477.141C204.684 477.141 204.261 447.8 208.081 443.972C210.185 441.869 209.98 436.804 209.358 432.671C208.44 426.692 208.218 420.628 208.697 414.598C208.955 411.492 209.312 408.753 209.775 407.82C211.051 405.267 212.328 376.351 204.67 368.27L165.987 383.175Z" fill="#605D82"/>
<path opacity="0.1" d="M182.573 481.412C183.849 476.737 184.222 436.327 183.849 439.752C183.637 441.663 182.996 453.361 183.849 438.476C184.702 423.59 168.117 383.194 168.117 383.194L205.22 368.927C205.049 368.708 204.87 368.504 204.692 368.311L165.994 383.195C165.994 383.195 182.579 423.598 181.726 438.477C180.873 453.355 181.515 441.664 181.726 439.753C182.103 436.347 181.726 476.784 180.45 481.413C180.45 481.413 187.413 486.506 194.257 485.963C188.167 485.506 182.573 481.412 182.573 481.412Z" fill="black"/>
<path d="M151.525 514.163L157.477 535.852L156.2 549.879C156.2 549.879 148.973 569.44 165.981 565.611C182.989 561.782 178.314 546.051 178.314 546.051L178.737 514.158C178.737 514.158 171.932 510.329 168.956 510.761C165.981 511.193 151.525 514.163 151.525 514.163Z" fill="#5A5773"/>
<path d="M122.185 372.971C122.185 372.971 141.742 436.334 137.071 446.112C137.071 446.112 141.746 455.469 140.9 463.97C140.053 472.471 154.509 517.976 154.509 517.976L175.776 514.147C175.776 514.147 170.67 501.391 170.67 493.31C170.67 485.229 165.138 450.327 165.138 450.327C165.138 450.327 160.463 386.535 165.991 379.73L122.185 372.971Z" fill="#605D82"/>
<g opacity="0.1">
<path d="M164.341 384.914C160.817 399.355 164.712 452.502 164.712 452.502C164.712 452.502 170.244 487.371 170.244 495.485C170.244 501.655 173.213 510.542 174.621 514.404L175.771 514.199C175.771 514.199 170.666 501.443 170.666 493.363C170.666 485.282 165.134 450.38 165.134 450.38C165.134 450.38 161.577 401.809 164.341 384.914Z" fill="black"/>
<path d="M137.07 446.114L137.176 446.332C137.209 446.114 137.242 445.883 137.263 445.671C137.206 445.822 137.142 445.97 137.07 446.114Z" fill="black"/>
<path d="M165.029 381.819C165.222 381.085 165.547 380.393 165.988 379.776L122.185 372.971C122.185 372.971 122.444 373.798 122.886 375.272L165.029 381.819Z" fill="black"/>
</g>
<path d="M224.245 350.005C224.245 350.005 230.626 373.811 211.489 377.223C211.179 377.142 210.888 376.998 210.636 376.8C210.636 376.8 199.579 355.11 208.083 346.606L224.245 350.005Z" fill="#A1616A"/>
<path d="M145.998 191.823C145.998 191.823 147.274 209.681 133.242 218.188C119.21 226.695 162.999 250.081 162.999 250.081L185.966 213.507C185.966 213.507 176.192 214.769 170.243 197.775L145.998 191.823Z" fill="#A1616A"/>
<path opacity="0.1" d="M136.64 219.45C136.64 219.45 158.33 264.529 177.889 222.003L208.083 371.688C208.083 371.688 161.302 386.149 160.882 392.955C160.461 399.76 113.687 375.524 113.687 375.524C113.687 375.524 123.891 356.809 121.345 345.33C118.799 333.85 136.64 219.45 136.64 219.45Z" fill="black"/>
<path d="M136.64 218.597C136.64 218.597 158.33 263.676 177.889 221.15L208.083 370.842C208.083 370.842 161.302 385.303 160.882 392.109C160.461 398.914 113.687 374.673 113.687 374.673C113.687 374.673 123.891 355.958 121.345 344.479C118.799 332.999 136.64 218.597 136.64 218.597Z" fill="#E1E7EF"/>
<path d="M157.91 526.069C157.91 526.069 152.378 513.736 165.138 513.736C177.898 513.736 175.769 524.79 175.769 524.79L157.91 526.069Z" fill="#5A5773"/>
<path d="M186.824 494.168C186.824 494.168 181.719 480.983 194.482 480.559C207.245 480.135 200.863 492.462 200.863 492.462L186.824 494.168Z" fill="#5A5773"/>
<path opacity="0.1" d="M175.979 209.016C175.979 209.016 188.947 215.628 193.629 214.756C198.311 213.883 210.637 221.984 209.79 238.146L217.474 262.256C220.548 271.922 222.109 282.006 222.103 292.149C222.103 292.149 233.159 322.766 227.208 336.374L225.932 355.089C225.932 355.089 216.151 349.556 205.938 351.26L208.51 335.977L197.004 292.594L177.867 246.239L175.979 209.016Z" fill="black"/>
<path d="M175.979 208.177C175.979 208.177 188.947 214.789 193.629 213.916C198.311 213.044 210.637 221.144 209.79 237.307L217.474 261.416C220.548 271.083 222.109 281.166 222.103 291.309C222.103 291.309 233.159 321.927 227.208 335.535L225.932 354.249C225.932 354.249 216.151 348.717 205.938 350.42L208.491 335.112L197.007 291.741L177.887 245.387L175.979 208.177Z" fill="#67647E"/>
<path opacity="0.1" d="M197.458 259.847V307.901L203.839 330.867C203.839 330.867 208.091 355.956 206.815 363.613C205.538 371.27 185.125 372.97 179.596 366.589C174.068 360.207 177.044 305.752 177.044 305.752L175.976 226.037L176.829 223.484L197.458 259.847Z" fill="black"/>
<path d="M198.331 257.725V305.78L204.712 328.746C204.712 328.746 208.964 353.835 207.688 361.491C206.411 369.148 185.998 370.849 180.47 364.467C174.943 358.086 177.918 303.63 177.918 303.63L176.85 223.894L198.331 257.725Z" fill="#67647E"/>
<path opacity="0.1" d="M112.617 297.699L126.224 340.02L119.843 358.093C119.843 358.093 150.036 389.986 169.173 374.677C169.173 374.677 171.302 309.608 167.044 294.3C162.785 278.991 142.378 227.512 142.378 227.512L138.152 213.924L115.616 226.68L112.617 297.699Z" fill="black"/>
<path d="M111.552 295.571V337.231C111.552 337.231 112.405 346.16 109.423 352.117C106.44 358.073 118.78 355.946 118.78 355.946C118.78 355.946 148.973 387.838 168.11 372.53C168.11 372.53 170.24 307.461 165.981 292.153C161.722 276.844 141.315 225.365 141.315 225.365L137.063 211.756L114.527 224.512L111.552 295.571Z" fill="#67647E"/>
<path opacity="0.1" d="M144.509 204.354C144.509 204.354 131.541 213.922 116.654 211.793C101.767 209.663 93.2637 275.586 93.2637 275.586C93.2637 275.586 87.7315 309.608 105.597 306.632L145.147 293.446C145.147 293.446 136.643 284.517 137.919 273.032L118.779 280.688L119.639 244.119L144.509 204.354Z" fill="black"/>
<path opacity="0.1" d="M94.1139 274.733C94.1139 274.733 88.5817 308.755 106.447 305.78L145.997 292.594C145.997 292.594 137.493 283.665 138.769 272.18L119.639 279.838L94.1139 274.733Z" fill="black"/>
<path d="M137.831 276.664C137.831 276.664 151.102 259.213 160.876 267.591C170.649 275.969 141.335 291.324 141.335 291.324L137.831 276.664Z" fill="#A1616A"/>
<path d="M144.509 203.501C144.509 203.501 131.541 213.07 116.654 210.941C101.767 208.811 93.2637 274.733 93.2637 274.733C93.2637 274.733 87.7315 308.756 105.597 305.781L145.147 292.595C145.147 292.595 136.643 283.666 137.919 272.181L118.775 279.839L119.635 243.264L141.325 225.406L144.509 203.501Z" fill="#67647E"/>
<path opacity="0.1" d="M170.663 198.608L146.422 192.656C146.422 192.656 147.684 194.085 146.21 199.673C150.112 204.15 154.907 210.094 161.307 210.094C165.89 210.104 170.352 208.626 174.022 205.882C172.65 203.582 171.524 201.144 170.663 198.608Z" fill="black"/>
<path d="M160.882 209.248C172.628 209.248 182.149 199.727 182.149 187.981C182.149 176.236 172.628 166.714 160.882 166.714C149.137 166.714 139.616 176.236 139.616 187.981C139.616 199.727 149.137 209.248 160.882 209.248Z" fill="#A1616A"/>
<path opacity="0.1" d="M168.944 178.75C173.877 177.911 179.299 175.721 180.952 171C181.869 167.883 181.327 164.519 179.478 161.848C177.629 159.223 175.291 156.978 172.594 155.236C168.342 152.246 163.653 149.681 158.535 148.781C157.653 148.57 156.733 148.57 155.851 148.781C155.083 149.095 154.353 149.494 153.675 149.971C150.181 151.988 145.826 151.116 141.772 150.904C137.718 150.692 132.857 151.837 131.581 155.666C131.184 156.85 131.211 158.126 130.92 159.342C130.259 162.318 128.017 164.632 126.292 167.112C124.566 169.592 123.236 172.944 124.691 175.616C125.187 176.522 126.014 177.355 126.014 178.387C125.887 179.12 125.664 179.834 125.353 180.51C124.751 182.705 126.503 184.92 128.527 185.965C130.55 187.011 132.878 187.334 134.941 188.306C138.885 190.252 141.331 194.319 141.203 198.715C143.081 198.933 145.27 199.045 146.541 197.647C147.11 197.019 147.388 196.178 147.9 195.512C148.664 194.721 149.516 194.02 150.439 193.422C154.889 189.765 151.729 184.713 154.247 180.772C155.57 178.741 157.673 179.364 159.802 179.397C162.863 179.467 165.923 179.25 168.944 178.75Z" fill="black"/>
<path d="M168.52 178.327C173.453 177.488 178.875 175.299 180.528 170.577C181.445 167.46 180.903 164.096 179.054 161.425C177.204 158.8 174.867 156.555 172.17 154.813C167.918 151.823 163.229 149.258 158.111 148.358C157.229 148.147 156.309 148.147 155.427 148.358C154.659 148.672 153.929 149.071 153.251 149.548C149.757 151.565 145.402 150.693 141.348 150.481C137.294 150.269 132.434 151.414 131.157 155.243C130.76 156.427 130.786 157.703 130.496 158.919C129.835 161.895 127.593 164.21 125.867 166.689C124.142 169.169 122.812 172.521 124.267 175.193C124.763 176.099 125.59 176.933 125.59 177.964C125.462 178.697 125.24 179.411 124.929 180.087C124.327 182.282 126.079 184.497 128.103 185.542C130.126 186.588 132.454 186.911 134.517 187.883C138.477 189.827 140.934 193.908 140.799 198.318C142.677 198.536 144.866 198.649 146.138 197.25C146.706 196.622 146.984 195.782 147.496 195.115C148.26 194.324 149.112 193.623 150.035 193.025C154.485 189.368 151.325 184.317 153.844 180.375C155.167 178.345 157.269 178.967 159.398 179C162.453 179.06 165.507 178.835 168.52 178.327Z" fill="#4A4347"/>
<path opacity="0.1" d="M194.264 249.856C194.264 249.856 198.939 274.099 196.816 283.455C195.519 288.898 195.711 294.59 197.372 299.934" fill="black"/>
<path opacity="0.1" d="M118.686 260.06C118.686 260.06 116.648 276.221 120.045 279.62Z" fill="black"/>
<path d="M237.431 459.227C237.979 459.227 238.423 458.783 238.423 458.236C238.423 457.688 237.979 457.244 237.431 457.244C236.883 457.244 236.439 457.688 236.439 458.236C236.439 458.499 236.544 458.751 236.73 458.937C236.916 459.123 237.168 459.227 237.431 459.227Z" fill="black"/>
<g opacity="0.5">
<path d="M542.852 343.67V343.122L362.431 204.387C362.197 204.214 361.878 204.214 361.644 204.387L181.217 343.122V558.166H181.56V558.509H543.202V343.465L542.852 343.67Z" fill="url(#paint1_linear_1_154)"/>
</g>
<path d="M536.623 552.171H187.472V344.53L362.047 210.292L536.623 344.53V552.171Z" fill="white"/>
<path d="M524.058 539.862H200.035V347.169L362.047 222.592L524.058 347.169V539.862Z" fill="#E0E0E0"/>
<path d="M417.01 219.712L219.357 271.529L285.259 522.913L482.912 471.096L417.01 219.712Z" fill="#6C63FF"/>
<path d="M465.205 257.904H260.873V517.783H465.205V257.904Z" fill="#F5F5F5"/>
<path opacity="0.05" d="M189.126 344.861L363.701 448.68L189.126 552.5V344.861Z" fill="black"/>
<path d="M187.803 344.861L362.378 448.68L187.803 552.5V344.861Z" fill="white"/>
<path opacity="0.05" d="M535.63 344.861L361.055 448.68L535.63 552.5V344.861Z" fill="black"/>
<path d="M536.952 344.861L362.378 448.68L536.952 552.5V344.861Z" fill="white"/>
<path opacity="0.05" d="M187.803 549.189L362.377 412.972L536.953 549.189H187.803Z" fill="black"/>
<path d="M187.803 552.495L362.377 416.277L536.953 552.495H187.803Z" fill="white"/>
<path d="M223.28 568.273C223.28 568.273 214.512 538.516 224.93 516.602C229.356 507.441 230.69 497.093 228.733 487.109C227.767 482.378 226.37 477.746 224.56 473.269" stroke="#535461" stroke-width="2"/>
<path d="M231.03 459.419C231.03 463.069 224.418 473.643 224.418 473.643C224.418 473.643 217.805 463.064 217.805 459.419C217.805 455.766 220.766 452.806 224.418 452.806C228.071 452.806 231.031 455.766 231.031 459.419H231.03Z" fill="#6C63FF"/>
<path d="M241.973 479.627C239.989 482.689 228.694 487.978 228.694 487.978C228.694 487.978 228.899 475.507 230.883 472.449C232.935 469.565 236.894 468.809 239.865 470.733C242.836 472.657 243.765 476.579 241.973 479.631V479.627Z" fill="#6C63FF"/>
<path d="M241.471 514.151C238.21 515.791 225.792 514.661 225.792 514.661C225.792 514.661 232.266 504.001 235.519 502.361C237.64 501.178 240.238 501.252 242.287 502.554C244.337 503.857 245.507 506.177 245.337 508.599C245.166 511.022 243.682 513.156 241.471 514.158V514.151Z" fill="#6C63FF"/>
<path d="M235.229 540.199C232.293 542.368 219.861 543.346 219.861 543.346C219.861 543.346 224.437 531.747 227.373 529.578C230.308 527.618 234.264 528.308 236.362 531.144C238.461 533.981 237.962 537.966 235.229 540.198V540.199Z" fill="#6C63FF"/>
<path d="M214.802 488.68C217.447 491.219 229.608 493.858 229.608 493.858C229.608 493.858 226.626 481.75 224.007 479.211C221.362 476.867 217.341 477.017 214.878 479.552C212.415 482.088 212.382 486.112 214.802 488.688V488.68Z" fill="#6C63FF"/>
<path d="M207.885 519.237C211.145 520.877 223.564 519.746 223.564 519.746C223.564 519.746 217.09 509.087 213.837 507.447C210.608 505.983 206.8 507.326 205.203 510.491C203.607 513.656 204.79 517.517 207.885 519.244V519.237Z" fill="#6C63FF"/>
<path d="M205.241 549.855C208.176 552.024 220.608 553.003 220.608 553.003C220.608 553.003 216.032 541.404 213.096 539.235C211.207 537.696 208.626 537.321 206.377 538.258C204.128 539.195 202.577 541.292 202.339 543.717C202.101 546.142 203.216 548.5 205.241 549.856V549.855Z" fill="#6C63FF"/>
<path opacity="0.5" d="M354.773 269.807H272.776V276.419H354.773V269.807Z" fill="#6C63FF"/>
<path opacity="0.5" d="M449.997 296.257H272.776V302.87H449.997V296.257Z" fill="#6C63FF"/>
<path opacity="0.5" d="M449.997 313.45H272.776V320.062H449.997V313.45Z" fill="#6C63FF"/>
<path opacity="0.4" d="M449.997 330.643H272.776V337.256H449.997V330.643Z" fill="#6C63FF"/>
<path opacity="0.4" d="M449.997 347.837H272.776V354.449H449.997V347.837Z" fill="#6C63FF"/>
<path opacity="0.3" d="M373.951 365.029H272.776V371.642H373.951V365.029Z" fill="#6C63FF"/>
<path opacity="0.3" d="M410.981 382.222H272.776V388.835H410.981V382.222Z" fill="#6C63FF"/>
<defs>
<linearGradient id="paint0_linear_1_154" x1="89.7963" y1="359.927" x2="231.292" y2="359.927" gradientUnits="userSpaceOnUse">
<stop stop-color="#808080" stop-opacity="0.251"/>
<stop offset="0.54" stop-color="#808080" stop-opacity="0.122"/>
<stop offset="1" stop-color="#808080" stop-opacity="0.102"/>
</linearGradient>
<linearGradient id="paint1_linear_1_154" x1="362.209" y1="558.509" x2="362.209" y2="204.257" gradientUnits="userSpaceOnUse">
<stop stop-color="#808080" stop-opacity="0.251"/>
<stop offset="0.54" stop-color="#808080" stop-opacity="0.122"/>
<stop offset="1" stop-color="#808080" stop-opacity="0.102"/>
</linearGradient>
</defs>
</svg>
