<svg width="146" height="151" viewBox="0 0 146 151" fill="none" xmlns="http://www.w3.org/2000/svg" class="process-step-image__svg-element">
<path d="M79.1035 141.341C111.702 141.341 138.128 133.786 138.128 124.466C138.128 115.146 111.702 107.591 79.1035 107.591C46.5054 107.591 20.0794 115.146 20.0794 124.466C20.0794 133.786 46.5054 141.341 79.1035 141.341Z" fill="#F5F5F5"/>
<path d="M126.265 58.8198C119.927 65.9088 118.162 75.9842 121.712 84.8078C127.614 100.333 111.594 126.152 111.594 126.152C111.594 126.152 111.763 126.127 112.085 126.071C122.148 124.289 130.647 117.574 134.712 108.191C138.777 98.8086 137.867 88.0109 132.287 79.4428C127.854 72.6558 124.206 64.6928 126.265 58.8198Z" class="process-step-image__accent-element-1" fill="#ED1D55"/>
<path d="M126.265 58.8198C126.265 58.8198 120.363 71.6448 126.265 82.1078C132.167 92.5708 127.278 121.933 111.594 126.152" stroke="#535461" stroke-width="2"/>
<path d="M144.887 101.138C144.887 101.138 132.956 99.2378 131.868 109.938C130.779 120.638 108.933 122.12 108.933 122.12C108.933 122.12 109.075 122.22 109.342 122.393C127.387 134.246 144.637 129.943 142.038 114.203C141.066 108.352 141.142 102.474 144.887 101.138Z" class="process-step-image__accent-element-2" fill="#B40031"/>
<path d="M144.887 101.138C144.887 101.138 135.625 103.173 136.386 111.601C137.146 120.029 122.627 130.126 108.926 122.116" stroke="#535461" stroke-width="2"/>
<path opacity="0.1" d="M35.6221 0.479928C33.7668 0.340579 31.902 0.553311 30.1257 1.10693C25.3898 2.81193 23.1443 8.39093 23.8748 13.2229C24.6053 18.0549 27.6074 22.2499 30.7223 26.0949C33.8373 29.9399 37.213 33.7349 38.9169 38.3239C39.8972 40.5834 40.0337 43.1201 39.3017 45.4719C37.9665 49.0009 33.9392 50.9719 30.0737 51.3819C26.2083 51.7919 22.3259 50.9929 18.4464 50.7149C15.0134 50.155 11.534 51.4017 9.23648 54.0149C4.2058 58.7059 0.178457 65.1149 0.830027 71.8339C1.56654 79.4559 8.13821 85.4819 15.3355 88.7119C17.7189 89.7839 20.2392 90.6509 22.3368 92.1809C27.8622 96.2139 29.1034 103.772 28.5537 110.445C28.0041 117.118 26.1293 123.797 27.1727 130.412C28.575 138.329 33.8156 145.032 41.1574 148.3C47.6851 151.19 55.8537 151.01 61.6439 146.921C64.3787 144.835 66.6928 142.249 68.4634 139.299C71.2601 134.997 73.5362 130.379 75.244 125.54C76.0524 123.248 76.8119 120.782 78.6977 119.188C79.9185 118.254 81.322 117.587 82.817 117.231C87.265 115.946 91.9509 115.592 96.44 114.449C100.929 113.306 105.447 111.176 107.887 107.367C111.341 101.962 109.729 95.0489 109.745 88.6899C109.773 74.2019 118.75 61.2299 122.063 47.1109C123.145 42.4949 123.548 37.3879 121.131 33.2719C119.317 30.5188 116.783 28.3168 113.805 26.9059C107.409 23.4729 100.129 21.9449 92.9703 20.4579C83.0218 18.3949 70.9408 18.1279 63.2299 11.4529C55.8368 5.04693 45.7134 0.479928 35.6221 0.479928Z" class="process-step-image__accent-element-1" fill="#ED1D55"/>
<g opacity="0.5">
<path d="M43.9516 61.0899C43.951 58.4417 43.5366 55.8099 42.7234 53.2899L40.6987 47.0069V46.6959C40.7607 42.6709 37.6258 40.6629 36.4185 40.8809C35.1824 41.1039 31.7526 39.3809 31.7526 39.3809V39.4279C31.5173 39.1571 31.305 38.8671 31.118 38.5609C32.3164 37.6891 33.1122 36.3701 33.3252 34.903C33.5381 33.4359 33.1502 31.9448 32.2493 30.7679C32.6201 30.489 32.9028 30.1092 33.0638 29.6739C33.3058 28.8595 33.1622 27.9791 32.674 27.2839C32.4801 26.9926 32.2538 26.7242 31.9995 26.4839C31.6137 26.1017 31.1924 25.7571 30.7413 25.4549C29.64 24.6319 28.3744 24.0562 27.0307 23.7669C26.7974 23.7118 26.5545 23.7118 26.3212 23.7669C26.1187 23.8489 25.926 23.9532 25.7466 24.0779C24.7435 24.4522 23.6553 24.5365 22.6067 24.3209C21.5414 24.2649 20.2452 24.5639 19.9084 25.5649C19.8351 25.8817 19.7787 26.2021 19.7395 26.5249C19.47 27.2757 19.0519 27.9644 18.5104 28.5499C17.9661 29.1531 17.8027 30.0094 18.0866 30.7709C18.2185 31.0069 18.4234 31.2249 18.4234 31.4949C18.3932 31.6862 18.3364 31.8724 18.2545 32.0479C18.172 32.4833 18.3422 32.928 18.6942 33.1969C18.8395 33.3535 19.0106 33.4841 19.1999 33.5829C19.7346 33.8559 20.3501 33.9409 20.8988 34.1939C21.1706 34.3216 21.42 34.4925 21.6373 34.6999C22.1744 35.2643 22.4625 36.0209 22.4368 36.7999L22.5497 36.8119V36.9119C22.6676 36.9249 22.7925 36.9369 22.9155 36.9419C23.0928 37.2263 23.2955 37.494 23.5211 37.7419C23.4831 37.8859 23.4398 38.0322 23.3911 38.1809C21.2441 39.6467 18.6561 40.3234 16.067 40.0959C12.1326 39.5409 9.88305 56.7529 9.88305 56.7529C9.73712 57.7371 9.66596 58.7309 9.67019 59.7259C9.6532 62.2569 10.1848 65.5699 13.1439 65.0819L14.7169 64.5639V73.0769C14.8371 74.3968 14.6447 75.7264 14.1552 76.9579C13.3697 78.5069 16.6296 77.9579 16.6296 77.9579C16.6296 77.9579 16.7545 78.0879 16.9834 78.3089L16.9104 78.5089L17.0103 78.6089C16.5817 80.0756 16.0037 81.4944 15.2855 82.8429L15.3784 82.8899C15.3195 83.0029 15.2855 83.0589 15.2855 83.0589C15.2855 83.0589 16.4967 83.6779 18.1626 84.4759C19.5017 89.0049 22.4328 99.4949 21.4684 101.493L21.4954 101.55C22.1933 102.983 22.5316 104.564 22.4807 106.157C22.2969 107.966 24.7992 116.186 25.7336 119.171L25.2919 119.26L26.8648 124.923L26.5271 128.588C26.5271 128.588 24.6163 133.696 29.1124 132.697C30.2716 132.546 31.3047 131.89 31.9338 130.904C32.5629 129.918 32.7235 128.705 32.3722 127.589L32.4851 119.259C32.4851 119.259 32.0514 119.018 31.5168 118.786C30.8835 117.197 30.4898 115.523 30.3486 113.818C30.3486 111.709 28.8865 102.601 28.8865 102.601V102.537L28.8785 102.415V102.395C28.8785 102.282 28.8595 102.127 28.8465 101.938V101.928C28.4545 96.8752 28.3528 91.8042 28.5417 86.7399C28.8668 86.5197 29.2049 86.3193 29.5541 86.1399C30.6534 88.9079 33.4695 96.3849 33.2896 99.5219C33.0658 103.403 33.2336 100.356 33.2896 99.8589C33.3066 99.7049 33.3186 99.8909 33.3236 100.308V101.95C33.3236 102.287 33.3236 102.662 33.3116 103.05V103.286C33.3116 103.524 33.3116 103.767 33.2996 104.013C33.2996 104.35 33.2866 104.678 33.2796 105.013C33.2626 105.772 33.2406 106.54 33.2137 107.259C33.2137 107.339 33.211 107.418 33.2057 107.497C33.2003 107.654 33.194 107.808 33.1867 107.959C33.1794 108.11 33.1727 108.257 33.1667 108.401C33.16 108.544 33.1527 108.683 33.1447 108.818C33.1367 108.977 33.1257 109.129 33.1177 109.274L32.5071 109.186L32.3772 110.586C32.1728 112.815 32.4608 115.062 33.2207 117.167C33.4295 117.744 33.5914 118.222 33.6274 118.392C33.7403 118.947 33.6274 122.948 33.6274 122.948C33.6274 122.948 34.3019 128.167 37.4509 127.167C38.7709 126.61 39.6969 125.394 39.8843 123.973C40.2492 122.38 40.113 120.714 39.4945 119.202C38.9222 117.981 38.7199 116.619 38.9129 115.284C39.2803 113.606 39.4686 111.894 39.4745 110.176L39.1268 110.127C39.2135 109.962 39.2919 109.793 39.3616 109.621C39.3616 109.621 39.2487 101.958 40.261 100.959C40.8176 100.409 40.7667 99.0879 40.5988 98.0079C40.3578 96.4449 40.3011 94.8591 40.4299 93.2829C40.4539 92.6836 40.5495 92.0894 40.7147 91.5129C41.0145 90.9259 41.3083 85.0059 39.9942 82.1569L40.264 82.0729L40.222 81.8639L40.264 81.8499C40.4622 82.3791 40.6873 82.8978 40.9386 83.4039C41.0048 83.4558 41.081 83.4935 41.1624 83.5149C44.803 82.8749 44.9499 79.4749 44.7481 77.6149C44.902 77.6889 44.9859 77.7369 44.9859 77.7369L45.3227 72.8429C45.6689 71.9354 45.8247 70.9663 45.7804 69.9959C45.6024 66.9546 44.9865 63.955 43.9516 61.0899ZM39.9382 74.9999C39.6884 72.8689 39.3386 70.8619 39.3386 70.8619L37.6527 64.8619V62.6779L40.327 72.6679L39.9382 74.9999Z" fill="url(#paint0_linear_125_10738)"/>
</g>
<path d="M32.3562 107.76L32.2313 109.132C32.0343 111.312 32.3132 113.509 33.0488 115.57C33.2487 116.135 33.4066 116.601 33.4395 116.77C33.5475 117.313 33.4395 121.22 33.4395 121.22C33.4395 121.22 34.0901 126.32 37.1281 125.344C38.4056 124.79 39.2974 123.604 39.4756 122.222C39.8266 120.666 39.6948 119.04 39.0978 117.561C38.5442 116.366 38.3491 115.036 38.5362 113.732C38.8914 112.092 39.0732 110.418 39.0788 108.74L32.3562 107.76Z" fill="#5A5773"/>
<path d="M29.1024 84.209C29.1024 84.209 33.3316 94.52 33.1148 98.317C32.8979 102.114 33.0608 99.13 33.1148 98.643C33.1894 102.19 33.0806 105.738 32.789 109.274C32.789 109.274 37.2361 112.529 38.9709 108.189C38.9709 108.189 38.863 100.702 39.8373 99.724C40.374 99.187 40.321 97.895 40.1631 96.84C39.9291 95.3144 39.8724 93.7667 39.9942 92.228C40.0131 91.6421 40.1054 91.0609 40.2691 90.498C40.5948 89.847 40.9196 82.467 38.9699 80.405L29.1024 84.209Z" fill="#605D82"/>
<path opacity="0.1" d="M33.3326 109.278C33.6241 105.742 33.7328 102.194 33.6584 98.6468C33.6044 99.1348 33.4405 102.12 33.6584 98.3208C33.8763 94.5218 29.6461 84.2128 29.6461 84.2128L39.1088 80.5708C39.0648 80.5148 39.0199 80.4628 38.9739 80.4138L29.1054 84.2138C29.1054 84.2138 33.3336 94.5248 33.1168 98.3248C32.8999 102.125 33.0628 99.1378 33.1168 98.6508C33.1913 102.198 33.0826 105.746 32.791 109.282C33.8189 110.019 35.0479 110.425 36.3127 110.443C35.2397 110.302 34.2171 109.902 33.3326 109.278Z" fill="black"/>
<path d="M25.4149 117.635L26.9329 123.17L26.6071 126.751C26.6071 126.751 24.7643 131.743 29.1054 130.766C30.2295 130.606 31.2265 129.959 31.832 128.998C32.4376 128.037 32.5905 126.858 32.2503 125.774L32.3583 117.635C31.5947 117.175 30.7438 116.88 29.8599 116.768C29.1014 116.877 25.4149 117.635 25.4149 117.635Z" fill="#5A5773"/>
<path d="M17.9318 81.605C17.9318 81.605 22.9205 97.775 21.7293 100.271C22.4155 101.689 22.7504 103.252 22.7056 104.827C22.4898 106.995 26.1763 118.609 26.1763 118.609L31.5997 117.632C30.9116 115.932 30.474 114.141 30.3006 112.315C30.3006 110.253 28.8905 101.346 28.8905 101.346C28.8905 101.346 27.6983 85.067 29.1084 83.33L17.9318 81.605Z" fill="#605D82"/>
<g opacity="0.1">
<path d="M28.6827 84.6531C27.7833 88.3391 28.7776 101.901 28.7776 101.901C28.7776 101.901 30.1877 110.801 30.1877 112.87C30.3213 114.525 30.6974 116.152 31.3039 117.698L31.5978 117.646C30.9096 115.946 30.472 114.155 30.2986 112.329C30.2986 110.267 28.8885 101.36 28.8885 101.36C28.8885 101.36 27.9771 88.9651 28.6827 84.6531Z" fill="black"/>
<path d="M21.7283 100.27L21.7553 100.326C21.7633 100.27 21.7723 100.211 21.7773 100.157C21.7629 100.195 21.7465 100.233 21.7283 100.27Z" fill="black"/>
<path d="M28.8576 83.865C28.907 83.6779 28.99 83.5014 29.1024 83.344L17.9318 81.605C17.9318 81.605 17.9977 81.816 18.1106 82.192L28.8576 83.865Z" fill="black"/>
</g>
<path d="M43.9596 75.7439C43.9596 75.7439 45.5866 81.8189 40.7068 82.6899C40.6275 82.6694 40.5533 82.6326 40.4889 82.5819C40.4889 82.5819 37.6688 77.047 39.8383 74.877L43.9596 75.7439Z" fill="#A1616A"/>
<path d="M24.0057 35.377C24.0057 35.377 24.3315 39.933 20.7529 42.105C17.1743 44.277 28.3419 50.244 28.3419 50.244L34.199 40.91C34.199 40.91 31.7067 41.232 30.1887 36.895L24.0057 35.377Z" fill="#A1616A"/>
<path opacity="0.1" d="M21.6183 42.428C21.6183 42.428 27.1497 53.928 32.1384 43.079L39.8383 81.279C39.8383 81.279 27.9072 84.97 27.8013 86.706C27.6953 88.442 15.7652 82.257 15.7652 82.257C15.7652 82.257 18.3635 77.481 17.7179 74.552C17.0723 71.623 21.6183 42.428 21.6183 42.428Z" fill="black"/>
<path d="M21.6183 42.21C21.6183 42.21 27.1497 53.71 32.1384 42.861L39.8383 81.061C39.8383 81.061 27.9072 84.752 27.8013 86.488C27.6953 88.224 15.7652 82.039 15.7652 82.039C15.7652 82.039 18.3635 77.263 17.7179 74.334C17.0723 71.405 21.6183 42.21 21.6183 42.21Z" fill="#E1E7EF"/>
<path d="M27.0418 120.674C27.0418 120.674 25.6317 117.527 28.8846 117.527C32.1374 117.527 31.5968 120.349 31.5968 120.349L27.0418 120.674Z" fill="#5A5773"/>
<path d="M34.4159 112.534C34.4159 112.534 33.1167 109.169 36.3686 109.061C39.6204 108.953 37.9955 112.099 37.9955 112.099L34.4159 112.534Z" fill="#5A5773"/>
<path opacity="0.1" d="M31.6508 39.7649C31.6508 39.7649 34.9576 41.4529 36.1478 41.2299C37.338 41.0069 40.4849 43.0739 40.2691 47.1989L42.2288 53.3519C43.0126 55.8189 43.4107 58.3922 43.409 60.9809C43.409 60.9809 46.2291 68.7939 44.7081 72.2669L44.3824 77.0429C42.8208 76.2105 41.0442 75.87 39.2857 76.0659L39.9413 72.1659L37.0072 61.0939L32.1334 49.2649L31.6508 39.7649Z" fill="black"/>
<path d="M31.6508 39.5498C31.6508 39.5498 34.9576 41.2378 36.1478 41.0148C37.338 40.7918 40.4849 42.8588 40.2691 46.9838L42.2288 53.1368C43.0126 55.6038 43.4107 58.1772 43.409 60.7658C43.409 60.7658 46.2291 68.5788 44.7081 72.0518L44.3824 76.8278C42.8208 75.9954 41.0442 75.6549 39.2857 75.8508L39.9363 71.9438L37.0072 60.8758L32.1314 49.0468L31.6508 39.5498Z" fill="#67647E"/>
<path opacity="0.1" d="M37.128 52.737V65L38.755 70.861C38.755 70.861 39.8393 77.261 39.5135 79.218C39.1877 81.175 33.9821 81.606 32.5721 79.977C31.162 78.348 31.9215 64.452 31.9215 64.452L31.6497 44.109L31.8675 43.458L37.128 52.737Z" fill="black"/>
<path d="M37.35 52.195V64.462L38.9769 70.323C38.9769 70.323 40.0612 76.723 39.7354 78.68C39.4096 80.637 34.2041 81.068 32.794 79.439C31.3839 77.81 32.1434 63.914 32.1434 63.914L31.8736 43.562L37.35 52.195Z" fill="#67647E"/>
<path opacity="0.1" d="M15.4924 62.3968L18.9631 73.1968L17.3362 77.8088C17.3362 77.8088 25.0361 85.9478 29.9169 82.0408C29.9169 82.0408 30.4595 65.4358 29.3742 61.5288C28.2889 57.6218 23.0844 44.4848 23.0844 44.4848L22.0081 41.0168L16.2609 44.2718L15.4924 62.3968Z" fill="black"/>
<path d="M15.2205 61.8519V72.4829C15.3375 73.7745 15.1517 75.0757 14.6779 76.2829C13.9174 77.8019 17.0643 77.2599 17.0643 77.2599C17.0643 77.2599 24.7642 85.3989 29.645 81.4919C29.645 81.4919 30.1877 64.8869 29.1024 60.9799C28.0171 57.0729 22.8125 43.9359 22.8125 43.9359L21.7282 40.4629L15.981 43.7179L15.2205 61.8519Z" fill="#67647E"/>
<path opacity="0.1" d="M23.6261 38.575C21.5535 40.0207 19.0398 40.6931 16.5227 40.475C12.7253 39.932 10.5577 56.754 10.5577 56.754C10.5577 56.754 9.14761 65.4359 13.7026 64.6769L23.789 61.312C22.5074 59.8896 21.8443 58.0153 21.9462 56.103L17.0644 58.055L17.2832 48.7229L23.6261 38.575Z" fill="black"/>
<path opacity="0.1" d="M10.7734 56.535C10.7734 56.535 9.36337 65.217 13.9184 64.458L24.0047 61.093C22.7225 59.6711 22.0594 57.7965 22.1619 55.884L17.2831 57.838L10.7734 56.535Z" fill="black"/>
<path d="M21.9222 57.0279C21.9222 57.0279 25.3069 52.5749 27.7993 54.7129C30.2917 56.8509 22.8156 60.7689 22.8156 60.7689L21.9222 57.0279Z" fill="#A1616A"/>
<path d="M23.6261 38.3569C21.5535 39.8027 19.0398 40.4751 16.5227 40.2569C12.7253 39.7139 10.5577 56.5359 10.5577 56.5359C10.5577 56.5359 9.14761 65.2179 13.7026 64.4589L23.789 61.0939C22.5074 59.6716 21.8443 57.7973 21.9462 55.8849L17.0644 57.8389L17.2832 48.5049L22.8146 43.9489L23.6261 38.3569Z" fill="#67647E"/>
<path opacity="0.1" d="M30.2947 37.1088L24.1127 35.5898C24.1127 35.5898 24.4345 35.9548 24.0588 37.3798C25.0581 38.5218 26.2763 40.0399 27.9092 40.0399C29.0773 40.0419 30.2146 39.6647 31.1501 38.9648C30.8008 38.3779 30.5141 37.7558 30.2947 37.1088Z" fill="black"/>
<path d="M27.8013 39.824C30.7966 39.824 33.2247 37.3942 33.2247 34.397C33.2247 31.3997 30.7966 28.97 27.8013 28.97C24.806 28.97 22.3779 31.3997 22.3779 34.397C22.3779 37.3942 24.806 39.824 27.8013 39.824Z" fill="#A1616A"/>
<path opacity="0.1" d="M29.8569 32.0409C31.1151 31.8269 32.4981 31.2679 32.9199 30.0629C33.1538 29.2675 33.0157 28.4088 32.5441 27.7269C32.0724 27.0568 31.4763 26.4837 30.7883 26.0389C29.7277 25.2344 28.5038 24.6722 27.2026 24.3919C26.9776 24.3381 26.7431 24.3381 26.5181 24.3919C26.3226 24.4709 26.1366 24.5715 25.9635 24.6919C24.9946 25.058 23.9415 25.1406 22.9275 24.9299C21.8941 24.8759 20.654 25.1679 20.3292 26.1449C20.2292 26.4449 20.2352 26.7729 20.1603 27.0829C19.8986 27.814 19.4978 28.4874 18.9801 29.0659C18.4579 29.6603 18.3015 30.4924 18.5723 31.2359C18.6992 31.4669 18.9101 31.6799 18.9101 31.9429C18.8775 32.1302 18.8207 32.3124 18.7412 32.4849C18.6659 33.0786 18.9977 33.6491 19.5507 33.8769C20.0663 34.1439 20.66 34.2259 21.1866 34.4769C22.193 34.973 22.8177 36.0108 22.7856 37.1329C23.2569 37.261 23.761 37.1599 24.1467 36.8599C24.2916 36.6999 24.3625 36.4849 24.4944 36.3149C24.6893 36.1132 24.9066 35.9344 25.142 35.7819C26.2773 34.8489 25.4708 33.5599 26.1134 32.5539C26.4501 32.0359 26.9868 32.1949 27.5304 32.2029C28.3093 32.2215 29.0881 32.1673 29.8569 32.0409Z" fill="black"/>
<path d="M29.7489 31.933C31.0071 31.719 32.3902 31.16 32.8119 29.955C33.046 29.1596 32.9078 28.3008 32.4361 27.619C31.9645 26.9489 31.3684 26.3758 30.6803 25.931C29.6197 25.1264 28.3958 24.5642 27.0947 24.284C26.8697 24.2302 26.6351 24.2302 26.4101 24.284C26.2146 24.363 26.0286 24.4636 25.8555 24.584C24.8866 24.9501 23.8336 25.0327 22.8195 24.822C21.7862 24.768 20.546 25.06 20.2212 26.037C20.1213 26.337 20.1263 26.665 20.0523 26.975C19.7906 27.7061 19.3898 28.3795 18.8721 28.958C18.3499 29.5523 18.1935 30.3845 18.4644 31.128C18.5913 31.359 18.8011 31.572 18.8011 31.835C18.7685 32.0222 18.7118 32.2044 18.6323 32.377C18.557 32.9707 18.8887 33.5412 19.4417 33.769C19.9574 34.036 20.551 34.118 21.0776 34.369C22.0864 34.8662 22.7116 35.9074 22.6766 37.032C23.1479 37.1601 23.6521 37.059 24.0377 36.759C24.1826 36.599 24.2535 36.384 24.3855 36.214C24.5803 36.0123 24.7976 35.8334 25.033 35.681C26.1683 34.748 25.3618 33.459 26.0044 32.453C26.3412 31.935 26.8778 32.094 27.4215 32.102C28.2008 32.1183 28.9801 32.0618 29.7489 31.933Z" fill="#4A4347"/>
<path opacity="0.1" d="M36.3137 50.187C36.3137 50.187 37.5067 56.373 36.9647 58.761C36.6338 60.15 36.6828 61.6025 37.1067 62.966" fill="black"/>
<path opacity="0.1" d="M17.0425 52.791C17.0425 52.791 16.5225 56.915 17.3885 57.783L17.0425 52.791Z" fill="black"/>
<path d="M47.3226 103.616C47.4623 103.616 47.5756 103.503 47.5756 103.363C47.5756 103.223 47.4623 103.11 47.3226 103.11C47.1829 103.11 47.0696 103.223 47.0696 103.363C47.0696 103.503 47.1829 103.616 47.3226 103.616Z" fill="black"/>
<g opacity="0.5">
<path d="M125.213 74.127V73.987L79.2014 38.587C79.1419 38.5433 79.061 38.5433 79.0015 38.587L32.9879 73.987V128.865H33.0758V128.953H125.306V74.075L125.213 74.127Z" fill="url(#paint1_linear_125_10738)"/>
</g>
<path d="M123.624 127.334H34.5828V74.3458L79.1034 40.0898L123.624 74.3458V127.334Z" fill="white"/>
<path d="M120.419 124.194H37.7856V75.02L79.1024 43.229L120.419 75.02V124.194Z" fill="#E0E0E0"/>
<path d="M93.1197 42.4939L42.7134 55.717L59.5201 119.868L109.926 106.645L93.1197 42.4939Z" class="process-step-image__accent-element-1" fill="#ED1D55"/>
<path d="M105.411 52.24H53.3015V118.559H105.411V52.24Z" fill="#F5F5F5"/>
<path opacity="0.05" d="M35.0035 74.4309L79.5241 100.925L35.0035 127.419V74.4309Z" fill="black"/>
<path d="M34.6667 74.4309L79.1874 100.925L34.6667 127.419V74.4309Z" fill="white"/>
<path opacity="0.05" d="M123.37 74.4309L78.8496 100.925L123.37 127.419V74.4309Z" fill="black"/>
<path d="M123.708 74.4309L79.1874 100.925L123.708 127.419V74.4309Z" fill="white"/>
<path opacity="0.05" d="M34.6667 126.576L79.1874 91.813L123.708 126.576H34.6667Z" fill="black"/>
<path d="M34.6667 127.419L79.1874 92.656L123.708 127.419H34.6667Z" fill="white"/>
<path d="M43.7138 131.443C43.7138 131.443 41.4773 123.849 44.1335 118.257C45.2617 115.919 45.6018 113.279 45.1029 110.731C44.8566 109.524 44.5004 108.341 44.0386 107.199" stroke="#535461" stroke-width="2"/>
<path d="M45.6905 103.665C45.6905 104.597 44.0036 107.295 44.0036 107.295C44.0036 107.295 42.3177 104.595 42.3177 103.665C42.34 102.749 43.0884 102.018 44.0041 102.018C44.9197 102.018 45.6682 102.749 45.6905 103.665Z" class="process-step-image__accent-element-2" fill="#B40031"/>
<path d="M48.4816 108.823C47.9759 109.604 45.0948 110.954 45.0948 110.954C45.0948 110.954 45.1468 107.771 45.6535 106.99C46.1793 106.261 47.1843 106.072 47.9387 106.561C48.6931 107.05 48.9318 108.045 48.4816 108.823Z" class="process-step-image__accent-element-2" fill="#B40031"/>
<path d="M48.3527 117.633C47.5213 118.052 44.3553 117.763 44.3553 117.763C44.3553 117.763 46.0063 115.043 46.8357 114.624C47.3769 114.319 48.0418 114.336 48.5664 114.669C49.0911 115.001 49.3907 115.596 49.3462 116.216C49.3018 116.835 48.9205 117.381 48.3537 117.635L48.3527 117.633Z" class="process-step-image__accent-element-2" fill="#B40031"/>
<path d="M46.7618 124.28C46.0133 124.834 42.8423 125.08 42.8423 125.08C42.8423 125.08 44.0096 122.12 44.7581 121.567C45.506 121.09 46.4953 121.274 47.0219 121.988C47.5485 122.702 47.4327 123.702 46.7568 124.277L46.7618 124.28Z" class="process-step-image__accent-element-2" fill="#B40031"/>
<path d="M41.5512 111.133C42.2257 111.781 45.3267 112.454 45.3267 112.454C45.3267 112.454 44.5662 109.364 43.8986 108.716C43.223 108.126 42.2046 108.168 41.5799 108.812C40.9553 109.455 40.9426 110.475 41.5512 111.134V111.133Z" class="process-step-image__accent-element-2" fill="#B40031"/>
<path d="M39.7884 118.931C40.6198 119.35 43.7857 119.061 43.7857 119.061C43.7857 119.061 42.1348 116.341 41.3054 115.922C40.4839 115.559 39.5221 115.903 39.1175 116.705C38.7129 117.508 39.0074 118.487 39.7874 118.932L39.7884 118.931Z" class="process-step-image__accent-element-2" fill="#B40031"/>
<path d="M39.1138 126.741C39.8623 127.294 43.0332 127.541 43.0332 127.541C43.0332 127.541 41.866 124.581 41.1175 124.028C40.6372 123.62 39.9694 123.513 39.3862 123.752C38.8029 123.991 38.4014 124.536 38.3452 125.164C38.2889 125.792 38.5873 126.399 39.1188 126.738L39.1138 126.741Z" class="process-step-image__accent-element-2" fill="#B40031"/>
<path opacity="0.5" d="M77.2476 55.2778H56.3364V56.9658H77.2476V55.2778Z" fill="#4D8AF0"/>
<path opacity="0.5" d="M101.532 62.0278H56.3364V63.7158H101.532V62.0278Z" fill="#4D8AF0"/>
<path opacity="0.5" d="M101.532 66.416H56.3364V68.104H101.532V66.416Z" fill="#4D8AF0"/>
<path opacity="0.4" d="M101.532 70.803H56.3364V72.491H101.532V70.803Z" fill="#4D8AF0"/>
<path opacity="0.4" d="M101.532 75.1909H56.3364V76.8789H101.532V75.1909Z" fill="#4D8AF0"/>
<path opacity="0.3" d="M82.1384 79.5779H56.3364V81.2659H82.1384V79.5779Z" fill="#4D8AF0"/>
<path opacity="0.3" d="M91.5822 83.9658H56.3364V85.6538H91.5822V83.9658Z" fill="#4D8AF0"/>
<defs>
<linearGradient id="paint0_linear_125_10738" x1="9.6698" y1="78.276" x2="45.7516" y2="78.276" gradientUnits="userSpaceOnUse">
<stop stop-color="#808080" stop-opacity="0.251"/>
<stop offset="0.54" stop-color="#808080" stop-opacity="0.122"/>
<stop offset="1" stop-color="#808080" stop-opacity="0.102"/>
</linearGradient>
<linearGradient id="paint1_linear_125_10738" x1="79.1469" y1="128.953" x2="79.1469" y2="38.5542" gradientUnits="userSpaceOnUse">
<stop stop-color="#808080" stop-opacity="0.251"/>
<stop offset="0.54" stop-color="#808080" stop-opacity="0.122"/>
<stop offset="1" stop-color="#808080" stop-opacity="0.102"/>
</linearGradient>
</defs>
</svg>
