<svg width="200" height="153" viewBox="0 0 200 153" fill="none" xmlns="http://www.w3.org/2000/svg" class="process-step-image__svg-element">
<path opacity="0.1" d="M61.697 21.863C68.476 15.807 79.119 14.5729 88.805 15.0549C119.23 16.5699 146.694 31.279 170.45 47.919C179.05 53.943 187.517 60.4399 193.105 68.7299C204.47 85.6159 201.098 109.01 185.297 122.921C179.92 127.655 173.402 131.283 166.712 134.5C154.812 140.219 141.982 144.808 128.478 146.115C118.849 147.046 109.109 146.287 99.529 144.99C72.784 141.357 46.529 133.327 24.529 119.581C14.874 113.554 5.77803 106.06 1.80003 96.304C-2.17797 86.548 0.36504 74.2009 10.219 68.4249C14.295 66.0369 19.167 64.96 23.938 63.947C30.961 62.458 38.095 60.9879 44.433 57.9589C50.979 54.8299 58.728 48.779 57.433 41.853C56.042 34.427 54.927 27.901 61.697 21.863Z" class="process-step-image__accent-element-1" fill="#ED1D50"/>
<path d="M44.393 91.196C45.4616 90.4602 46.817 90.2779 48.0421 90.705C48.0421 90.705 47.5231 91.805 45.2111 91.794L44.393 91.196Z" fill="#4D8AF0"/>
<path d="M44.17 91.2671C43.9123 92.5392 44.2767 93.8579 45.1511 94.8171C45.1511 94.8171 45.96 93.9061 45.04 91.7851L44.17 91.2671Z" class="process-step-image__accent-element-1" fill="#ED1D50"/>
<path d="M41.799 89.303C41.799 89.303 41.865 87.485 45.981 87.93C45.9468 88.7469 45.4078 89.4561 44.63 89.708C43.7029 90.2263 42.5436 90.0605 41.799 89.303Z" class="process-step-image__accent-element-1" fill="#ED1D50"/>
<path d="M41.5451 89.2981C41.5451 89.2981 39.8351 89.9211 41.5261 93.6981C42.2925 93.4137 42.8011 92.6825 42.801 91.8651C43.0055 90.8245 42.4921 89.7752 41.5451 89.2981Z" class="process-step-image__accent-element-1" fill="#ED1D50"/>
<path d="M39.129 86.807C39.129 86.807 38.783 83.833 42.975 83.978C42.975 83.978 43.375 86.667 39.895 87.496L39.129 86.807Z" class="process-step-image__accent-element-1" fill="#ED1D50"/>
<path d="M113.974 67.0414C114.904 66.1363 116.21 65.7281 117.49 65.9422C117.49 65.9422 117.163 67.1187 114.879 67.4969L113.974 67.0414Z" class="process-step-image__accent-element-1" fill="#ED1D50"/>
<path d="M113.766 67.1509C113.726 68.4476 114.307 69.6856 115.33 70.4842C115.33 70.4842 115.969 69.4534 114.714 67.514L113.766 67.1509Z" class="process-step-image__accent-element-1" fill="#ED1D50"/>
<path d="M111.097 65.6207C111.097 65.6207 110.857 63.8171 114.987 63.5625C115.093 64.3746 114.682 65.167 113.956 65.5466C113.128 66.211 111.958 66.2413 111.097 65.6207Z" class="process-step-image__accent-element-1" fill="#ED1D50"/>
<path d="M110.848 65.6609C110.848 65.6609 109.274 66.5598 111.572 70.006C112.281 69.5962 112.659 68.7879 112.52 67.981C112.548 66.9197 111.864 65.9703 110.848 65.6609Z" class="process-step-image__accent-element-1" fill="#ED1D50"/>
<path d="M108.047 63.6156C108.047 63.6156 107.205 60.7454 111.361 60.1799C111.361 60.1799 112.209 62.7624 108.918 64.1653L108.047 63.6156Z" class="process-step-image__accent-element-1" fill="#ED1D50"/>
<path d="M104.646 60.8844C104.646 60.8844 104.511 57.4593 108.812 57.5809C108.812 57.5809 109.43 60.4398 105.48 61.5346L104.646 60.8844Z" class="process-step-image__accent-element-1" fill="#ED1D50"/>
<path d="M101.952 57.899C101.952 57.899 102.212 54.4668 106.474 54.5846C106.081 56.6282 104.414 58.1845 102.348 58.4366L101.952 57.899Z" class="process-step-image__accent-element-1" fill="#ED1D50"/>
<path d="M99.3717 54.9657C99.3717 54.9657 99.5876 51.4248 103.714 51.6072C103.714 51.6072 103.077 55.061 99.7513 55.4816L99.3717 54.9657Z" class="process-step-image__accent-element-1" fill="#ED1D50"/>
<path d="M97.495 52.0577C97.495 52.0577 97.3406 47.8165 101.184 47.9537C101.184 47.9537 100.906 51.8999 97.8895 52.5963L97.495 52.0577Z" class="process-step-image__accent-element-1" fill="#ED1D50"/>
<path d="M95.5558 48.4746C95.5558 48.4746 95.5347 44.1711 99.4789 44.5946C99.4789 44.5946 98.8503 48.797 95.9332 48.9905L95.5558 48.4746Z" class="process-step-image__accent-element-1" fill="#ED1D50"/>
<path d="M94.1042 45.066C94.1042 45.066 94.5765 40.6604 97.4627 40.1684C97.4627 40.1684 97.0021 44.815 94.5184 45.8437L94.1042 45.066Z" class="process-step-image__accent-element-1" fill="#ED1D50"/>
<path d="M92.934 41.6859C92.934 41.6859 93.3523 36.4121 95.7602 36.3053C95.7602 36.3053 95.5439 40.3145 93.1808 42.4456L92.934 41.6859Z" class="process-step-image__accent-element-1" fill="#ED1D50"/>
<path d="M91.8005 37.6002C91.8005 37.6002 92.3044 33.1729 94.562 32.5242C94.562 32.5242 94.4911 36.7904 92.0787 38.6639L91.8005 37.6002Z" class="process-step-image__accent-element-1" fill="#ED1D50"/>
<path d="M90.7112 33.7972C90.7112 33.7972 91.549 29.2895 93.0499 28.8828C93.0499 28.8828 93.164 33.1176 91.0046 34.4457L90.7112 33.7972Z" class="process-step-image__accent-element-1" fill="#ED1D50"/>
<path d="M89.7652 30.2445C89.7652 30.2445 89.8747 25.5299 91.3076 24.8312C91.3076 24.8312 91.874 28.555 89.9898 30.5532L89.7652 30.2445Z" class="process-step-image__accent-element-1" fill="#ED1D50"/>
<path d="M88.2044 25.6616C88.2044 25.6616 88.5586 21.8436 89.6678 21.0337C89.6678 21.0337 90.3148 25.3123 88.6707 26.4733L88.2044 25.6616Z" class="process-step-image__accent-element-1" fill="#ED1D50"/>
<path d="M87.0797 22.6722L85.5284 16.392C85.5284 16.392 88.8195 20.6836 87.4787 23.7439L87.0797 22.6722Z" class="process-step-image__accent-element-1" fill="#ED1D50"/>
<path d="M83.9869 16.7611C83.9869 16.7611 81.3641 12.4926 80.9106 12.3118C80.9106 12.3118 84.7824 14.624 85.2751 18.5469L83.9869 16.7611Z" class="process-step-image__accent-element-1" fill="#ED1D50"/>
<path d="M107.933 63.6215C107.933 63.6215 104.941 63.8563 105.9 67.9411C105.9 67.9411 108.614 67.8163 108.757 64.241L107.933 63.6215Z" class="process-step-image__accent-element-1" fill="#ED1D50"/>
<path d="M104.486 60.8096C104.486 60.8096 101.128 61.5059 102.285 65.6505C102.285 65.6505 105.21 65.5621 105.315 61.4647L104.486 60.8096Z" class="process-step-image__accent-element-1" fill="#ED1D50"/>
<path d="M101.977 58.178C101.977 58.178 98.6294 57.39 97.454 61.4906C99.521 61.7323 101.508 60.6116 102.37 58.7175L101.977 58.178Z" class="process-step-image__accent-element-1" fill="#ED1D50"/>
<path d="M99.3112 55.01C99.3112 55.01 95.8704 54.1471 94.7969 58.1351C94.7969 58.1351 98.2837 58.5706 99.6904 55.5295L99.3112 55.01Z" class="process-step-image__accent-element-1" fill="#ED1D50"/>
<path d="M97.555 52.1382C97.555 52.1382 93.9472 49.9036 92.1605 53.3067C92.1605 53.3067 95.7277 55.0211 97.8249 52.7493L97.555 52.1382Z" class="process-step-image__accent-element-1" fill="#ED1D50"/>
<path d="M95.7055 48.3411C95.7055 48.3411 92.066 46.044 90.3359 49.6113C90.3359 49.6113 94.2335 51.3133 95.9399 48.9354L95.7055 48.3411Z" class="process-step-image__accent-element-1" fill="#ED1D50"/>
<path d="M94.3867 44.8851C94.3867 44.8851 91.2902 41.7132 88.7239 43.1106C88.7239 43.1106 91.9566 46.4836 94.5454 45.756L94.3867 44.8851Z" class="process-step-image__accent-element-1" fill="#ED1D50"/>
<path d="M92.9914 41.6534C92.9914 41.6534 89.673 37.5306 87.6258 38.7993C87.6258 38.7993 90.0633 41.9905 93.215 42.416L92.9914 41.6534Z" class="process-step-image__accent-element-1" fill="#ED1D50"/>
<path d="M91.9129 37.3295C91.9129 37.3295 88.7367 34.2039 86.571 35.1233C86.571 35.1233 89.3173 38.3918 92.3678 38.3323L91.9129 37.3295Z" class="process-step-image__accent-element-1" fill="#ED1D50"/>
<path d="M90.9499 33.6622C90.9499 33.6622 88.2283 29.9794 86.6915 30.2675C86.6915 30.2675 88.4418 34.1254 90.9625 34.3763L90.9499 33.6622Z" class="process-step-image__accent-element-1" fill="#ED1D50"/>
<path d="M89.8212 30.1407C89.8212 30.1407 86.8745 26.4502 85.3126 26.7703C85.3126 26.7703 87.119 30.0754 89.829 30.5172L89.8212 30.1407Z" class="process-step-image__accent-element-1" fill="#ED1D50"/>
<path d="M88.5895 25.8446C88.5895 25.8446 86.3178 22.7564 84.9497 22.6398C84.9497 22.6398 86.5996 26.6397 88.6159 26.7885L88.5895 25.8446Z" class="process-step-image__accent-element-1" fill="#ED1D50"/>
<path d="M86.867 22.5853L82.2819 18.0271C82.2819 18.0271 84.2642 23.0608 87.5863 23.4859L86.867 22.5853Z" class="process-step-image__accent-element-1" fill="#ED1D50"/>
<path d="M83.2799 17.3538C83.2799 17.3538 78.6578 15.4171 78.4176 14.9985C78.4176 14.9985 81.2982 18.469 85.2459 18.3554L83.2799 17.3538Z" class="process-step-image__accent-element-1" fill="#ED1D50"/>
<path d="M82.7747 16.1532C82.7747 16.1532 77.2031 12.6745 76.0222 12.9272C78.6505 12.6882 81.2192 13.8059 82.8358 15.892L82.7747 16.1532Z" class="process-step-image__accent-element-1" fill="#ED1D50"/>
<path d="M88.6818 26.5126L88.5123 26.572C86.2114 19.9397 84.0947 16.1777 82.5552 15.9823L82.579 15.8086C84.2125 16.0189 86.3211 19.7211 88.6818 26.5126Z" class="process-step-image__accent-element-1" fill="#ED1D50"/>
<path d="M93.3981 42.5482L93.1469 42.6235C92.9605 41.9979 92.7785 41.3521 92.6153 40.7125C91.186 35.1232 89.7201 30.0239 88.4056 26.2459L88.5158 26.0304C89.8344 29.8231 91.4368 35.0515 92.8693 40.647C93.0249 41.2827 93.2077 41.9191 93.3981 42.5482Z" class="process-step-image__accent-element-1" fill="#ED1D50"/>
<path d="M119.416 69.281C115.617 68.2835 112.02 66.636 108.783 64.4115C105.466 62.1878 102.522 59.4522 100.062 56.3066C96.869 52.0412 94.4755 47.2326 92.9971 42.1139L93.2884 42.1832C95.825 51.086 101.366 58.8357 108.97 64.1154C112.169 66.3228 115.728 67.9563 119.487 68.9428L119.416 69.281Z" class="process-step-image__accent-element-1" fill="#ED1D50"/>
<g opacity="0.7">
<path d="M109.628 65.4461C110.868 65.062 112.217 65.2911 113.26 66.0631C113.26 66.0631 112.435 66.9631 110.232 66.2631L109.628 65.4461Z" class="process-step-image__accent-element-1" fill="#ED1D50"/>
<path d="M109.393 65.449C108.77 66.5867 108.725 67.9534 109.274 69.129C109.274 69.129 110.312 68.501 110.074 66.203L109.393 65.449Z" class="process-step-image__accent-element-1" fill="#ED1D50"/>
<path d="M107.71 62.8779C107.71 62.8779 108.315 61.1619 112.11 62.8109C111.836 63.5829 111.11 64.1021 110.291 64.1109C109.251 64.3268 108.195 63.8223 107.71 62.8779Z" class="process-step-image__accent-element-1" fill="#ED1D50"/>
<path d="M107.47 62.7959C107.47 62.7959 105.654 62.8819 106.142 66.9959C106.959 66.953 107.663 66.406 107.906 65.6249C108.414 64.6913 108.236 63.5331 107.47 62.7959Z" class="process-step-image__accent-element-1" fill="#ED1D50"/>
<path d="M105.903 59.703C105.903 59.703 106.455 56.763 110.415 58.147C110.415 58.147 109.998 60.833 106.429 60.589L105.903 59.703Z" class="process-step-image__accent-element-1" fill="#ED1D50"/>
<path d="M104.112 55.7269C104.112 55.7269 105.547 52.6139 109.324 54.6759C109.324 54.6759 108.577 57.5039 104.56 56.6859L104.112 55.7269Z" class="process-step-image__accent-element-1" fill="#ED1D50"/>
<path d="M103.067 51.838C103.067 51.838 104.857 48.898 108.601 50.938C107.322 52.5792 105.13 53.2079 103.176 52.494L103.067 51.838Z" class="process-step-image__accent-element-1" fill="#ED1D50"/>
<path d="M102.1 48.0569C102.1 48.0569 103.9 44.9989 107.494 47.0349C107.494 47.0349 105.358 49.8229 102.204 48.6879L102.1 48.0569Z" class="process-step-image__accent-element-1" fill="#ED1D50"/>
<path d="M101.748 44.614C101.748 44.614 103.536 40.7641 106.898 42.6321C106.898 42.6321 104.859 46.022 101.855 45.273L101.748 44.614Z" class="process-step-image__accent-element-1" fill="#ED1D50"/>
<path d="M101.647 40.541C101.647 40.541 103.582 36.697 106.904 38.865C106.904 38.865 104.436 42.324 101.749 41.172L101.647 40.541Z" class="process-step-image__accent-element-1" fill="#ED1D50"/>
<path d="M101.901 36.846C101.901 36.846 104.322 33.135 107.117 34.006C107.117 34.006 104.597 37.937 101.917 37.726L101.901 36.846Z" class="process-step-image__accent-element-1" fill="#ED1D50"/>
<path d="M102.388 33.3019C102.388 33.3019 105.155 28.7939 107.35 29.7909C107.35 29.7909 105.337 33.2649 102.264 34.0909L102.388 33.3019Z" class="process-step-image__accent-element-1" fill="#ED1D50"/>
<path d="M103.238 29.147C103.238 29.147 105.697 25.431 108.004 25.879C108.004 25.879 105.998 29.647 103.004 30.221L103.238 29.147Z" class="process-step-image__accent-element-1" fill="#ED1D50"/>
<path d="M103.991 25.2599C103.991 25.2599 106.784 21.628 108.306 21.943C108.306 21.943 106.485 25.768 103.958 25.971L103.991 25.2599Z" class="process-step-image__accent-element-1" fill="#ED1D50"/>
<path d="M104.764 21.669C104.764 21.669 107.002 17.519 108.596 17.546C108.596 17.546 107.41 21.121 104.824 22.046L104.764 21.669Z" class="process-step-image__accent-element-1" fill="#ED1D50"/>
<path d="M105.454 16.877C105.454 16.877 107.503 13.636 108.859 13.418C108.859 13.418 107.493 17.524 105.501 17.812L105.454 16.877Z" class="process-step-image__accent-element-1" fill="#ED1D50"/>
<path d="M105.809 13.7009L107.274 7.40088C107.274 7.40088 108.261 12.7189 105.674 14.8369L105.809 13.7009Z" class="process-step-image__accent-element-1" fill="#ED1D50"/>
<path d="M105.737 7.0319C105.737 7.0319 105.337 2.0379 105.016 1.6709C105.016 1.6709 107.416 5.4889 106.074 9.2079L105.737 7.0319Z" class="process-step-image__accent-element-1" fill="#ED1D50"/>
<path d="M105.798 59.656C105.798 59.656 103.031 58.508 102.026 62.582C102.026 62.582 104.501 63.703 106.251 60.582L105.798 59.656Z" class="process-step-image__accent-element-1" fill="#ED1D50"/>
<path d="M104.004 55.586C104.004 55.586 100.696 54.686 99.845 58.899C99.845 58.899 102.491 60.148 104.445 56.545L104.004 55.586Z" class="process-step-image__accent-element-1" fill="#ED1D50"/>
<path d="M102.963 52.102C102.963 52.102 100.338 49.88 97.429 53.002C99.161 54.1558 101.44 54.0592 103.068 52.763L102.963 52.102Z" class="process-step-image__accent-element-1" fill="#ED1D50"/>
<path d="M102.026 48.07C102.026 48.07 99.352 45.739 96.585 48.805C96.585 48.805 99.494 50.776 102.128 48.705L102.026 48.07Z" class="process-step-image__accent-element-1" fill="#ED1D50"/>
<path d="M101.765 44.7131C101.765 44.7131 99.565 41.0811 96.428 43.3051C96.428 43.3051 98.828 46.4521 101.728 45.3801L101.765 44.7131Z" class="process-step-image__accent-element-1" fill="#ED1D50"/>
<path d="M101.841 40.489C101.841 40.489 99.641 36.789 96.48 39.183C96.48 39.183 99.18 42.469 101.78 41.125L101.841 40.489Z" class="process-step-image__accent-element-1" fill="#ED1D50"/>
<path d="M102.235 36.8111C102.235 36.8111 100.916 32.5791 97.9951 32.6611C97.9951 32.6611 99.3441 37.1331 101.981 37.6611L102.235 36.8111Z" class="process-step-image__accent-element-1" fill="#ED1D50"/>
<path d="M102.459 33.2991C102.459 33.2991 101.373 28.1201 98.9741 28.3201C98.9741 28.3201 99.6971 32.2701 102.312 34.0801L102.459 33.2991Z" class="process-step-image__accent-element-1" fill="#ED1D50"/>
<path d="M103.461 28.9569C103.461 28.9569 102.05 24.7299 99.7031 24.5659C99.7031 24.5659 100.666 28.7249 103.411 30.0569L103.461 28.9569Z" class="process-step-image__accent-element-1" fill="#ED1D50"/>
<path d="M104.267 25.2519C104.267 25.2519 103.51 20.7349 102.019 20.2939C102.019 20.2939 101.827 24.5259 103.959 25.8939L104.267 25.2519Z" class="process-step-image__accent-element-1" fill="#ED1D50"/>
<path d="M104.861 21.602C104.861 21.602 103.912 16.976 102.374 16.552C102.374 16.552 102.483 20.317 104.697 21.941L104.861 21.602Z" class="process-step-image__accent-element-1" fill="#ED1D50"/>
<path d="M105.714 17.215C105.714 17.215 105.091 13.431 103.926 12.707C103.926 12.707 103.58 17.02 105.309 18.068L105.714 17.215Z" class="process-step-image__accent-element-1" fill="#ED1D50"/>
<path d="M105.659 13.529L103.643 7.38599C103.643 7.38599 103.124 12.771 105.891 14.658L105.659 13.529Z" class="process-step-image__accent-element-1" fill="#ED1D50"/>
<path d="M104.838 7.23911C104.838 7.23911 101.599 3.41511 101.575 2.93311C101.575 2.93311 102.566 7.33311 106.135 9.02411L104.838 7.23911Z" class="process-step-image__accent-element-1" fill="#ED1D50"/>
<path d="M104.933 5.94C104.933 5.94 101.549 0.311 100.381 0C102.831 0.980273 104.613 3.14237 105.106 5.735L104.933 5.94Z" class="process-step-image__accent-element-1" fill="#ED1D50"/>
<path d="M105.493 17.8519L105.32 17.8279C106.276 10.8739 106.098 6.56095 104.82 5.68795L104.92 5.54395C106.275 6.47295 106.473 10.7289 105.493 17.8519Z" class="process-step-image__accent-element-1" fill="#ED1D50"/>
<path d="M102.417 34.2809L102.159 34.2339C102.277 33.5919 102.408 32.9339 102.553 32.2899C103.817 26.6609 104.825 21.4519 105.37 17.4899L105.57 17.3479C105.023 21.3259 104.078 26.7119 102.813 32.3479C102.662 32.9839 102.531 33.6339 102.417 34.2809Z" class="process-step-image__accent-element-1" fill="#ED1D50"/>
<path d="M113.461 69.9139C110.529 67.3005 108.072 64.1994 106.198 60.7479C104.251 57.2597 102.87 53.4848 102.106 49.5639C101.197 44.3142 101.246 38.9431 102.251 33.7109L102.479 33.9049C100.698 42.9897 102.118 52.4108 106.498 60.5669C108.346 63.986 110.775 67.0572 113.677 69.6429L113.461 69.9139Z" class="process-step-image__accent-element-1" fill="#ED1D50"/>
</g>
<path d="M189.443 130.788C189.443 130.788 185.322 130.541 185.811 133.429C185.758 133.729 185.906 134.03 186.176 134.171C186.176 134.171 186.185 133.957 186.6 134.029C186.748 134.055 186.898 134.062 187.048 134.051C187.25 134.037 187.442 133.958 187.595 133.824C188.468 133.323 189.062 132.447 189.205 131.451C189.205 131.451 189.539 131.038 189.525 130.932L188.833 131.232C188.966 131.52 188.984 131.849 188.883 132.15C188.883 132.15 188.861 131.25 188.727 131.271C188.699 131.271 188.365 131.444 188.365 131.444C188.589 131.916 188.624 132.456 188.465 132.954C188.465 132.954 188.583 131.877 188.237 131.508L187.748 131.793C188.013 132.298 188.068 132.887 187.902 133.432C187.955 132.895 187.866 132.354 187.644 131.862L187.201 132.208C187.441 132.67 187.503 133.204 187.374 133.708C187.374 133.708 187.338 132.394 187.103 132.293C186.935 132.435 186.785 132.597 186.655 132.775C186.655 132.775 186.963 133.422 186.773 133.763C186.773 133.763 186.655 132.886 186.56 132.883C186.358 133.18 186.214 133.512 186.133 133.862C186.152 133.493 186.267 133.135 186.467 132.824C186.244 132.866 186.038 132.972 185.874 133.13C185.874 133.13 185.935 132.72 186.566 132.684C186.681 132.514 186.815 132.357 186.966 132.217C186.628 132.189 186.288 132.228 185.966 132.333C186.273 132.066 186.699 131.985 187.083 132.12L187.522 131.764C187.134 131.704 186.738 131.708 186.351 131.776C186.74 131.539 187.22 131.504 187.639 131.683L188.116 131.398C187.749 131.317 187.373 131.283 186.997 131.298C187.404 131.146 187.853 131.153 188.254 131.319L188.6 131.165C188.6 131.165 188.081 131.065 187.936 131.049C187.791 131.033 187.777 130.99 187.777 130.99C188.102 130.936 188.436 130.973 188.742 131.097C188.985 131.016 189.219 130.913 189.443 130.788Z" class="process-step-image__accent-element-1" fill="#ED1D50"/>
<path opacity="0.1" d="M186.605 135.423C188.216 135.423 189.522 134.975 189.522 134.423C189.522 133.871 188.216 133.423 186.605 133.423C184.994 133.423 183.688 133.871 183.688 134.423C183.688 134.975 184.994 135.423 186.605 135.423Z" fill="#4D8AF0"/>
<path d="M165.112 133.296C165.112 133.296 160.135 132.996 160.723 136.483C160.658 136.847 160.837 137.211 161.164 137.383C161.164 137.383 161.164 137.125 161.674 137.21C161.853 137.24 162.034 137.249 162.215 137.238C162.459 137.22 162.691 137.125 162.876 136.965C163.931 136.36 164.648 135.303 164.82 134.099C164.82 134.099 165.22 133.599 165.206 133.473L164.367 133.831C164.528 134.18 164.55 134.577 164.428 134.941C164.428 134.941 164.402 133.853 164.24 133.879C164.207 133.879 163.804 134.088 163.804 134.088C164.074 134.658 164.117 135.31 163.925 135.911C163.925 135.911 164.067 134.611 163.65 134.164L163.059 134.51C163.379 135.12 163.446 135.831 163.244 136.49C163.308 135.84 163.201 135.186 162.934 134.59L162.398 135.007C162.69 135.564 162.766 136.209 162.611 136.819C162.611 136.819 162.568 135.231 162.282 135.11C162.079 135.282 161.898 135.477 161.742 135.693C161.742 135.693 162.112 136.473 161.882 136.885C161.882 136.885 161.742 135.828 161.626 135.823C161.383 136.182 161.207 136.582 161.107 137.004C161.129 136.56 161.267 136.129 161.507 135.755C161.238 135.806 160.99 135.935 160.793 136.125C160.793 136.125 160.866 135.625 161.623 135.585C161.764 135.379 161.928 135.19 162.112 135.021C161.703 134.986 161.291 135.034 160.901 135.161C161.271 134.838 161.786 134.74 162.248 134.905L162.777 134.474C162.308 134.402 161.831 134.406 161.364 134.488C161.835 134.204 162.413 134.163 162.92 134.376L163.496 134.03C163.053 133.932 162.599 133.892 162.145 133.912C162.636 133.728 163.178 133.737 163.663 133.936L164.076 133.767C164.076 133.767 163.457 133.646 163.276 133.627C163.095 133.608 163.086 133.558 163.086 133.558C163.479 133.493 163.882 133.538 164.25 133.688C164.549 133.584 164.837 133.453 165.112 133.296Z" class="process-step-image__accent-element-1" fill="#ED1D50"/>
<path opacity="0.1" d="M161.686 138.683C163.632 138.683 165.209 138.235 165.209 137.683C165.209 137.131 163.632 136.683 161.686 136.683C159.74 136.683 158.163 137.131 158.163 137.683C158.163 138.235 159.74 138.683 161.686 138.683Z" fill="#4D8AF0"/>
<path opacity="0.1" d="M123.489 136.104L106.142 142.816L80.786 152.616C79.83 150.84 78.4191 148.41 76.6721 145.526C70.6721 135.574 60.731 120.094 51.887 106.491C41.919 91.164 33.341 78.221 33.341 78.221L39.551 76.421L90.277 61.709L123.489 136.104Z" fill="black"/>
<path d="M123.835 133.893L106.488 140.605L81.132 150.405C80.176 148.629 78.765 146.199 77.018 143.315C71.018 133.363 61.077 117.883 52.233 104.28C42.265 88.9531 33.687 76.0101 33.687 76.0101L39.897 74.2101L90.623 59.498L123.835 133.893Z" fill="white"/>
<path opacity="0.1" d="M123.835 133.893L106.488 140.605C96.7993 142.623 86.9123 143.532 77.018 143.315C71.018 133.363 61.077 117.883 52.233 104.28L39.897 74.2101L90.623 59.498L123.835 133.893Z" fill="black"/>
<path d="M136.741 129.719C136.741 129.719 109.791 145.66 69.5551 142.063L37.476 63.864L52.848 61.223L105.988 52.0969L136.139 128.208L136.741 129.719Z" class="process-step-image__accent-element-2" fill="#B40031"/>
<path opacity="0.1" d="M136.139 127.916C129.11 128.298 122.061 128.097 115.065 127.316C107.072 126.379 99.0411 124.438 92.1411 120.886C86.7295 118.195 81.6915 114.811 77.1541 110.819C65.9811 100.768 59.065 86.39 52.854 60.929L105.994 51.803L136.139 127.916Z" fill="black"/>
<path d="M155.907 127.016C155.907 127.016 135.807 131.468 115.37 128.726C107.286 127.648 99.156 125.436 92.186 121.375C86.6375 118.241 81.5392 114.369 77.03 109.866C63.039 95.6309 55.656 73.8389 48.041 29.8109C48.041 29.8109 81.441 38.9229 114.45 18.9629C114.451 18.9629 125.583 97.5079 155.907 127.016Z" fill="white"/>
<path opacity="0.1" d="M115.824 127.9C107.831 126.957 99.791 125.022 92.9 121.47C87.4885 118.779 82.4504 115.395 77.913 111.403C89.688 110.447 91.381 104.008 91.381 104.008C100.111 117.865 115.824 127.9 115.824 127.9Z" fill="black"/>
<path opacity="0.3" d="M66.33 52.6749C66.33 52.6749 84.0731 54.6999 100.68 45.3679L101.818 49.022C90.6671 54.098 78.5811 56.796 66.33 56.944V52.6749Z" class="process-step-image__accent-element-1" fill="#ED1D50"/>
<path opacity="0.3" d="M66.33 70.7411C79.2772 69.2083 91.8766 65.5194 103.606 59.8271L104.27 61.3452C104.27 61.3452 97.043 70.4401 66.33 72.8161V70.7411Z" fill="black"/>
<path opacity="0.3" d="M68.421 77.8011C81.368 76.2686 93.9674 72.5803 105.697 66.8892L106.361 68.4071C106.361 68.4071 99.136 77.5071 68.421 79.8881V77.8011Z" fill="black"/>
<path opacity="0.3" d="M70.333 85.4081C83.28 83.8755 95.8794 80.1873 107.609 74.4961L108.273 76.0141C108.273 76.0141 101.037 85.1141 70.333 87.4951V85.4081Z" fill="black"/>
<path opacity="0.3" d="M72.604 91.9271C85.551 90.3946 98.1503 86.7063 109.88 81.0151L110.544 82.5331C110.544 82.5331 103.319 91.6331 72.604 94.0161V91.9271Z" fill="black"/>
<path opacity="0.1" d="M74.697 98.9911C87.6441 97.4586 100.243 93.7703 111.973 88.0791L112.637 89.5971C112.637 89.5971 105.41 98.6971 74.697 101.078V98.9911Z" fill="black"/>
<path opacity="0.997" d="M111.456 55.1136L106.52 56.7939L108.2 61.7298L113.136 60.0495L111.456 55.1136Z" fill="#FFF4F6"/>
<path opacity="0.997" d="M114.264 62.4757L109.328 64.156L111.008 69.0918L115.944 67.4115L114.264 62.4757Z" fill="#FFF4F6"/>
<path opacity="0.997" d="M118.766 76.6398L113.83 78.3201L115.51 83.2559L120.446 81.5756L118.766 76.6398Z" fill="#FFF4F6"/>
<path opacity="0.997" d="M121.349 84.2406L116.413 85.9209L118.093 90.8567L123.029 89.1764L121.349 84.2406Z" fill="#FFF4F6"/>
<path opacity="0.997" d="M116.554 70.1227L111.618 71.803L113.298 76.7388L118.234 75.0585L116.554 70.1227Z" fill="#FFF4F6"/>
<path d="M168.163 91.623L167.978 91.45C168.455 91.35 168.905 91.31 168.905 91.31C168.905 91.31 167.267 85.385 164.505 83.41C163.144 82.3133 162.019 80.9527 161.197 79.41C159.731 76.8863 158.085 74.472 156.27 72.186L155.77 71.558L155.556 71.285C155.914 70.8974 156.134 70.4018 156.18 69.876C156.179 69.8727 156.179 69.8693 156.18 69.866C156.182 69.8384 156.182 69.8106 156.18 69.783C156.175 69.718 156.163 69.6536 156.145 69.591L156.126 69.62C155.893 68.942 154.995 68.643 154.326 68.269C152.77 67.392 152.104 65.476 151.772 63.695C151.513 62.312 151.298 60.755 150.216 59.864C149.524 59.292 148.583 59.103 147.887 58.534C147.277 57.9281 146.787 57.2122 146.443 56.424C145.791 55.1459 144.824 54.0549 143.633 53.254C142.434 52.4626 140.938 52.265 139.574 52.718C139.067 52.912 138.607 53.213 138.106 53.418C136.861 53.937 135.434 53.868 134.206 54.418C132.688 55.092 131.7 56.583 130.797 57.998C130.166 58.903 129.625 59.8672 129.18 60.877V60.765C128.98 61.2404 128.87 61.7492 128.858 62.265C128.85 62.484 128.874 62.7029 128.929 62.915C129.149 63.5631 129.672 64.0632 130.329 64.255C130.367 64.475 130.418 64.6927 130.481 64.907C131.088 66.9037 132.631 68.479 134.614 69.128C134.671 69.149 134.73 69.163 134.787 69.18C134.835 69.3167 134.905 69.445 134.993 69.56C135.545 70.252 136.651 70.055 137.371 69.551C137.4 69.532 137.428 69.508 137.456 69.487C137.461 69.5848 137.471 69.6823 137.487 69.779C137.503 69.862 137.515 69.952 137.532 70.026C137.844 71.9837 138.637 73.8332 139.841 75.408C139.841 75.408 139.995 75.64 140.241 76.024C140.21 77.8617 140.836 79.6501 142.007 81.067C141.13 81.574 139.24 82.567 138.071 82.483C138.071 82.483 133.771 83.038 133.277 82.76C133.208 82.722 133.142 82.774 133.077 82.891C131.894 82.17 128.112 80.091 127.789 82.76C127.497 85.181 130.943 85.491 132.589 85.503C132.515 86.212 132.473 86.779 132.473 86.779L139.53 86.297L143.205 85.756C142.859 86.2587 142.412 86.6843 141.893 87.006C141.893 87.006 138.571 89.695 137.993 89.719C137.912 89.719 137.886 89.8 137.893 89.93C136.493 89.93 132.15 90.13 133.355 92.553C134.45 94.748 137.531 93.229 138.925 92.39C139.254 93.028 139.534 93.528 139.534 93.528L145.229 89.473L146.462 88.435C146.88 88.4148 147.293 88.335 147.688 88.198C147.691 88.2138 147.697 88.229 147.705 88.243C147.75 88.3702 147.783 88.501 147.805 88.634C148.151 90.621 146.989 95.256 146.989 95.256C146.989 95.256 144.433 101.774 145.661 102.663C146.889 103.552 145.981 107.303 145.981 107.303C146.195 107.664 146.442 108.004 146.718 108.32C146.848 108.47 146.993 108.607 147.149 108.73C147.092 108.886 147.044 109.045 147.007 109.206C146.819 110.005 146.889 110.843 147.207 111.599C147.706 113.222 147.819 114.939 147.537 116.614L145.88 127.806C145.157 127.632 144.403 127.632 143.68 127.806C143.094 128.136 143.286 129.806 144.647 130.518C144.234 130.834 143.756 131.055 143.247 131.163C142.036 131.44 141.186 131.616 140.625 131.723C140.589 131.723 137.72 131.09 136.983 131.509C136.246 131.928 136.601 134.248 138.697 134.817C140.748 135.372 148.397 136.187 150.597 135.855L150.737 135.831C152.61 135.461 150.965 133 150.758 132.701C150.744 132.601 150.732 132.495 150.718 132.381C150.689 132.125 150.663 131.831 150.644 131.516C152.336 131.719 154.043 131.767 155.744 131.66C155.786 131.658 155.828 131.65 155.869 131.638C157.527 131.309 156.075 129.138 155.888 128.871L155.862 128.658V128.639C155.862 128.589 155.85 128.539 155.845 128.483C155.845 128.438 155.84 128.392 155.831 128.348C155.817 128.301 155.831 128.265 155.819 128.222C155.812 128.137 155.805 128.048 155.798 127.957V127.845C155.798 127.776 155.789 127.707 155.786 127.636V127.52C155.786 127.42 155.786 127.309 155.776 127.202V126.355C155.776 126.239 155.786 126.12 155.793 126L155.803 125.872C155.803 125.784 155.817 125.699 155.825 125.609C155.823 125.565 155.828 125.521 155.839 125.479C155.853 125.358 155.868 125.237 155.886 125.114C155.889 125.077 155.895 125.041 155.903 125.005C155.919 124.913 155.934 124.82 155.951 124.727C155.956 124.68 155.965 124.634 155.979 124.589C156 124.489 156.022 124.389 156.047 124.289C156.05 124.261 156.056 124.233 156.066 124.206C156.097 124.085 156.132 123.966 156.166 123.846C156.178 123.804 156.192 123.763 156.206 123.721C156.235 123.631 156.267 123.548 156.299 123.455L156.341 123.344C156.388 123.226 156.441 123.111 156.49 122.998C156.504 122.969 156.519 122.939 156.535 122.91C156.578 122.82 156.625 122.737 156.673 122.644L156.732 122.544C156.798 122.433 156.865 122.323 156.94 122.217C158.84 119.505 159.34 114.276 159.297 113.138C159.254 112 159.524 109.638 159.864 109.29C160.727 108.188 161.513 107.026 162.214 105.814C162.358 105.558 162.482 105.314 162.581 105.103C163.145 104.903 163.518 104.757 163.518 104.757C163.319 104.031 163.224 103.281 163.234 102.528C163.207 100.648 163.964 98.8424 165.323 97.544C166.96 96.1529 167.982 94.1715 168.166 92.031V91.867C168.171 91.702 168.163 91.623 168.163 91.623Z" fill="url(#paint0_linear_125_10916)"/>
<path d="M161.591 103.474C160.922 104.67 160.171 105.818 159.343 106.91C158.925 108.131 158.741 109.421 158.802 110.71C158.847 111.832 158.371 117.01 156.554 119.687C154.737 122.364 155.67 127 155.67 127L152.77 128.017H149.285L146.885 127.299L146.252 125.558C146.252 125.558 147.096 125.428 149.192 124.93C150.387 124.687 151.274 123.678 151.362 122.462L152.834 112.184C153.072 110.719 152.976 109.218 152.552 107.795C152.143 106.771 152.23 105.616 152.787 104.665L152.834 104.592C154.269 103.48 155.804 102.504 157.419 101.676C159.468 100.687 161.547 100.216 162.137 101.976C162.091 102.515 161.903 103.032 161.591 103.474Z" fill="#A5636D"/>
<path opacity="0.05" d="M161.591 103.474C160.922 104.67 160.171 105.818 159.343 106.91C158.925 108.131 158.741 109.421 158.802 110.71C158.847 111.832 158.371 117.01 156.554 119.687C155.274 121.577 155.354 124.434 155.516 125.958C155.584 126.596 155.667 126.996 155.667 126.996L152.767 128.013H149.286L146.886 127.3L146.252 125.558C146.252 125.558 146.463 125.525 146.944 125.432C147.425 125.339 148.155 125.179 149.202 124.932C150.393 124.685 151.275 123.677 151.362 122.464L152.834 112.186C153.072 110.721 152.976 109.22 152.552 107.797C152.143 106.773 152.23 105.618 152.787 104.667L152.834 104.594C154.269 103.482 155.804 102.506 157.419 101.678C159.468 100.689 161.547 100.218 162.137 101.978C162.091 102.516 161.902 103.033 161.591 103.474Z" fill="black"/>
<path opacity="0.1" d="M155.67 129.66L152.77 130.677H149.285L146.885 129.958L146.252 128.215C146.252 128.215 146.463 128.182 146.944 128.089C146.874 128.744 147.302 129.349 147.944 129.5L149.307 129.547C149.499 129.547 149.693 129.557 149.883 129.557C151.8 129.558 153.703 129.241 155.517 128.621C155.591 129.256 155.67 129.66 155.67 129.66Z" fill="black"/>
<path d="M149.31 129.837L147.946 129.79C147.582 129.705 147.27 129.471 147.087 129.145C146.904 128.819 146.867 128.431 146.984 128.076C146.984 128.076 144.528 127.519 143.901 127.888C143.274 128.257 143.576 130.288 145.35 130.788C147.079 131.274 153.558 131.988 155.42 131.696L155.539 131.675C157.227 131.329 155.539 128.908 155.539 128.908C153.536 129.593 151.426 129.908 149.31 129.837Z" fill="#BEBED0"/>
<path d="M157.712 106.525C157.62 106.708 157.522 106.899 157.412 107.097C156.678 108.41 155.853 109.67 154.943 110.867C154.576 111.258 154.284 113.893 154.331 115.167C154.378 116.441 153.845 122.267 151.794 125.298C150.858 126.93 150.417 128.799 150.525 130.678C150.53 131.256 150.564 131.832 150.625 132.407C150.701 133.107 150.798 133.55 150.798 133.55L147.526 134.697H143.588L140.878 133.891L140.169 131.913C140.169 131.913 140.406 131.875 140.939 131.769C141.472 131.663 142.302 131.487 143.488 131.207C144.833 130.929 145.83 129.793 145.932 128.423L147.59 116.823C147.859 115.169 147.751 113.475 147.274 111.868C146.97 111.117 146.902 110.291 147.08 109.501C147.176 109.057 147.352 108.634 147.599 108.252C147.599 108.252 148.232 107.752 149.187 107.095C149.609 106.804 150.098 106.483 150.624 106.158C152.934 104.728 155.973 103.268 157.429 104.332C157.75 104.574 157.985 104.913 158.1 105.299C158.082 105.735 157.948 106.158 157.712 106.525Z" fill="#A5636D"/>
<path opacity="0.1" d="M150.788 133.551L147.516 134.698H143.587L140.877 133.892L140.168 131.914C140.168 131.914 140.405 131.876 140.938 131.77C140.869 132.246 141.041 132.725 141.398 133.048C141.671 133.28 142.015 133.41 142.373 133.415L143.613 133.455C143.829 133.455 144.047 133.467 144.263 133.467C146.427 133.467 148.576 133.109 150.624 132.409C150.7 133.112 150.788 133.551 150.788 133.551Z" fill="black"/>
<path d="M143.612 133.748L142.374 133.707C142.016 133.701 141.671 133.571 141.397 133.34C140.968 132.937 140.808 132.322 140.987 131.761C140.987 131.761 138.22 131.133 137.506 131.548C136.792 131.963 137.141 134.258 139.142 134.82C141.101 135.368 148.406 136.174 150.509 135.846L150.642 135.822C152.542 135.431 150.642 132.695 150.642 132.695C148.382 133.471 146 133.828 143.612 133.748Z" fill="#BEBED0"/>
<path opacity="0.1" d="M161.592 106.024C160.344 106.508 159.041 106.838 157.713 107.008C157.613 107.012 157.512 107.007 157.413 106.994C155.869 106.964 154.324 107.039 152.79 107.219C152.031 107.287 151.301 107.357 150.697 107.419C149.797 107.512 149.179 107.58 149.179 107.58V106.994C149.601 106.704 150.09 106.382 150.616 106.057C152.926 104.627 155.965 103.167 157.416 104.231C159.465 103.242 161.544 102.771 162.134 104.531C162.083 105.067 161.897 105.58 161.592 106.024Z" fill="black"/>
<path d="M167.276 92.334C167.105 94.4334 166.132 96.3863 164.559 97.787C161.559 100.718 162.83 104.928 162.83 104.928C161.182 105.6 159.463 106.085 157.706 106.372C157.606 106.376 157.505 106.371 157.406 106.358C155.159 106.363 152.914 106.505 150.684 106.783C149.784 106.876 149.166 106.944 149.166 106.944V94.493L165.756 90.4651L167.256 91.9651C167.271 92.0875 167.278 92.2107 167.276 92.334Z" fill="#5C5C8E"/>
<g opacity="0.1">
<path d="M149.45 106.79L149.177 106.819V106.95C149.177 106.95 149.796 106.882 150.695 106.789C152.213 106.635 154.532 106.419 156.066 106.355C153.854 106.379 151.646 106.524 149.45 106.79Z" fill="black"/>
<path d="M167.269 91.968L165.769 90.468L164.769 90.719L166.028 91.973C166.037 92.0979 166.037 92.2232 166.028 92.348C165.857 94.4473 164.884 96.4001 163.311 97.801C160.311 100.731 161.582 104.942 161.582 104.942C160.072 105.541 158.513 106.009 156.923 106.342C157.085 106.342 157.246 106.35 157.407 106.368C157.506 106.382 157.607 106.387 157.707 106.384C159.464 106.097 161.183 105.612 162.831 104.94C162.831 104.94 161.551 100.729 164.56 97.799C166.133 96.3981 167.106 94.4453 167.277 92.346C167.283 92.22 167.28 92.0937 167.269 91.968Z" fill="black"/>
</g>
<path d="M134.124 83.544C134.124 83.544 129.109 80.065 128.741 83.198C128.373 86.331 134.124 85.884 134.124 85.884V83.544Z" fill="#A5636D"/>
<path d="M142.771 81.229C142.771 81.229 140.058 83.029 138.557 82.913C138.557 82.913 134.457 83.463 133.978 83.188C133.499 82.913 133.21 87.166 133.21 87.166L139.955 86.69L144.278 86.029C144.278 86.029 146.44 84.711 146.44 83.575C146.44 82.439 142.771 81.229 142.771 81.229Z" fill="#F7CDDD"/>
<path opacity="0.05" d="M142.771 81.229C142.771 81.229 140.058 83.029 138.557 82.913C138.557 82.913 134.457 83.463 133.978 83.188C133.499 82.913 133.21 87.166 133.21 87.166L139.955 86.69L144.278 86.029C144.278 86.029 146.44 84.711 146.44 83.575C146.44 82.439 142.771 81.229 142.771 81.229Z" fill="black"/>
<path d="M138.791 90.3121C138.791 90.3121 132.691 90.0601 134.058 92.9061C135.425 95.7521 140.047 92.2971 140.047 92.2971L138.791 90.3121Z" fill="#A5636D"/>
<path d="M144.927 84.204C144.927 84.204 139.983 80.504 140.68 76.004C141.377 71.504 144.927 79.452 144.927 79.452V84.204Z" fill="#5C5C8E"/>
<path d="M143.561 63.7189C143.559 65.3394 142.929 66.896 141.802 68.0609C141.529 68.3472 141.227 68.6051 140.902 68.8309C140.279 69.2651 139.585 69.586 138.851 69.7789C138.559 69.8516 138.263 69.9041 137.964 69.9359C137.75 69.9569 137.533 69.969 137.314 69.969C136.613 69.9728 135.916 69.8558 135.254 69.6228C132.25 68.5742 130.513 65.4362 131.22 62.334C131.927 59.2318 134.851 57.1555 138.013 57.5113C141.175 57.867 143.564 60.5412 143.564 63.7229L143.561 63.7189Z" fill="#A5636D"/>
<path opacity="0.1" d="M167.276 92.3289C166.716 92.4289 166.024 92.62 166.024 92.91C166.024 93.399 158.211 96.0369 158.211 96.0369C158.211 96.0369 158.503 96.7179 157.723 97.8909C156.943 99.0639 150.593 105.801 150.593 105.801L150.614 106.001L150.695 106.777L151.082 110.488C150.046 110.089 148.962 109.826 147.858 109.706C147.559 109.699 147.276 109.568 147.078 109.343C147.174 108.899 147.35 108.476 147.597 108.094C147.597 108.094 148.23 107.594 149.185 106.937V94.488L165.775 90.46L167.275 91.96C167.284 92.0828 167.284 92.206 167.276 92.3289Z" fill="black"/>
<path d="M167.978 91.4679C167.978 91.4679 166.024 91.6619 166.024 92.1509C166.024 92.6399 158.211 95.2779 158.211 95.2779C158.211 95.2779 158.503 95.9589 157.723 97.1319C156.943 98.3049 150.593 105.044 150.593 105.044L151.082 109.731C150.046 109.332 148.962 109.069 147.858 108.949C147.512 108.992 147.123 108.671 146.803 108.295C146.54 107.983 146.306 107.649 146.103 107.295C146.103 107.295 146.983 103.582 145.811 102.704C144.639 101.826 147.08 95.3799 147.08 95.3799C147.08 95.3799 148.18 90.7969 147.858 88.8309C147.838 88.6995 147.807 88.5701 147.765 88.4439C147.763 88.4289 147.758 88.4144 147.751 88.4009C147.059 86.5229 139.561 70.7619 139.561 70.7619C139.566 70.3148 139.597 69.8683 139.654 69.4249C139.67 69.3019 139.69 69.1739 139.713 69.0449C139.751 68.8116 139.802 68.5807 139.865 68.3529C139.905 68.2069 139.952 68.063 140.007 67.9219C140.239 67.3269 140.593 66.869 141.122 66.858C141.666 66.3726 142.356 66.0823 143.083 66.0329C144.593 65.9134 146.108 66.1982 147.472 66.858C152.06 68.8089 153.136 68.9089 153.136 68.9089L155.441 71.9349L155.915 72.5559C157.652 74.8213 159.225 77.208 160.621 79.6979C161.398 81.2155 162.473 82.5612 163.781 83.6549C166.415 85.6089 167.978 91.4679 167.978 91.4679Z" fill="#F7CDDD"/>
<path opacity="0.1" d="M150.861 80.3501C150.861 80.3501 157.381 81.9621 159.907 86.0261L150.861 80.3501Z" fill="black"/>
<path opacity="0.1" d="M152.876 87.499C152.876 87.499 154.109 95.777 153.767 96.399C153.425 97.021 152.876 87.499 152.876 87.499Z" fill="black"/>
<path opacity="0.1" d="M152.435 91.7319C151.961 92.3529 150.035 97.1519 150.035 97.1519L150.59 105.211L151.079 109.898C150.043 109.499 148.96 109.236 147.857 109.116C147.511 109.159 147.12 108.838 146.802 108.462C147.309 105.717 148.393 99.9739 148.588 99.8619C149.371 97.9155 149.924 95.884 150.234 93.809C150.303 92.517 152.134 89.6379 152.134 89.6379C152.134 89.6379 152.914 91.1139 152.435 91.7319Z" fill="black"/>
<path opacity="0.1" d="M150.593 83.745C150.472 84.11 150.285 86.235 150.285 86.235C150.209 87.5903 149.196 88.7081 147.855 88.9161C147.835 88.7847 147.804 88.6552 147.762 88.529C147.176 86.871 139.562 70.8531 139.562 70.8531C139.569 70.0405 139.669 69.2314 139.862 68.4421C141.292 68.2095 142.755 68.2993 144.146 68.7051C144.905 68.6051 147.382 73.5281 147.382 73.5281C147.382 73.5281 149.032 77.298 149.213 77.812C149.287 78.3587 149.312 78.911 149.286 79.4621C149.359 79.7561 150.13 80.0081 150.239 80.4131C150.348 80.8181 150.277 81.6241 150.35 81.7671C150.541 82.4082 150.623 83.0768 150.593 83.745Z" fill="black"/>
<path d="M150.007 83.4261C149.886 83.7931 149.699 85.9161 149.699 85.9161C149.657 87.0929 148.874 88.1139 147.748 88.4601C147.371 88.5948 146.976 88.6732 146.576 88.6931L145.398 89.7171L139.959 93.7171C139.959 93.7171 137.932 89.9691 138.482 89.9491C139.032 89.9291 142.204 87.2651 142.204 87.2651C143.174 86.7461 144.146 85.0171 144.597 84.1281C144.571 84.022 144.551 83.9145 144.538 83.8061C144.338 82.1481 140.238 75.7971 140.238 75.7971C139.083 74.2278 138.328 72.4008 138.038 70.4741C138.021 70.3941 138.009 70.3131 137.993 70.2301C137.976 70.1225 137.965 70.014 137.962 69.9051C137.888 68.5751 138.856 68.0911 140.004 67.9771C140.604 67.9293 141.208 67.9477 141.804 68.0321C142.398 68.1068 142.985 68.2225 143.563 68.3781C144.054 68.3121 145.263 70.3551 146.063 71.8021C146.49 72.5871 146.798 73.2021 146.798 73.2021C146.798 73.2021 148.448 76.9741 148.629 77.4861C148.703 78.0327 148.728 78.585 148.702 79.1361C148.775 79.4281 149.546 79.6841 149.655 80.0891C149.764 80.4941 149.693 81.3001 149.766 81.4431C149.956 82.086 150.038 82.7563 150.007 83.4261Z" fill="#F7CDDD"/>
<path opacity="0.1" d="M156.315 74.966C155.186 75.9327 153.592 76.1367 152.256 75.485C150.953 74.8265 149.705 74.0644 148.524 73.206C147.715 72.711 146.857 72.306 146.06 71.797C145.942 71.721 145.828 71.645 145.714 71.565C144.794 70.915 143.997 70.079 143.044 69.49C142.407 69.0661 141.665 68.8266 140.9 68.7981C140.548 68.7948 140.199 68.8678 139.878 69.0121C139.818 69.0363 139.761 69.0647 139.705 69.097C139.391 69.277 139.101 69.4951 138.84 69.7461C138.57 69.9881 138.312 70.246 138.029 70.472C138.012 70.392 138 70.3111 137.984 70.2281C137.967 70.1205 137.956 70.0119 137.953 69.903C137.739 69.924 137.522 69.9361 137.303 69.9361C136.602 69.94 135.905 69.823 135.243 69.5901C135.245 69.5631 135.24 69.536 135.227 69.5121C135.108 68.2663 134.52 67.1126 133.581 66.2851C132.852 65.9161 132.086 65.626 131.295 65.42C130.538 62.7837 131.588 59.9617 133.884 58.4616C136.18 56.9615 139.187 57.134 141.296 58.887C143.406 60.64 144.126 63.5637 143.072 66.096C144.582 65.9765 146.097 66.2613 147.461 66.9211C152.049 68.8721 153.125 68.972 153.125 68.972L155.43 71.998C155.143 72.343 154.952 72.7565 154.873 73.198C154.83 74.013 155.623 74.582 156.315 74.966Z" fill="black"/>
<path d="M133.589 65.658C134.527 66.4847 135.117 67.6372 135.237 68.882C135.276 69.2707 135.405 69.6449 135.614 69.975C136.133 70.656 137.198 70.464 137.885 69.975C138.498 69.387 139.166 68.859 139.879 68.398C140.948 68.0241 142.132 68.2006 143.045 68.87C143.998 69.47 144.795 70.302 145.715 70.945C146.606 71.573 147.598 72.021 148.525 72.586C149.705 73.4463 150.953 74.2085 152.257 74.865C153.592 75.5128 155.185 75.3091 156.314 74.346C155.622 73.962 154.829 73.395 154.882 72.572C154.935 71.749 155.894 71.135 155.83 70.291C155.766 69.447 154.773 69.117 154.061 68.702C152.574 67.837 151.939 65.935 151.621 64.18C151.374 62.807 151.17 61.273 150.144 60.391C149.482 59.824 148.588 59.639 147.92 59.077C147.334 58.4724 146.866 57.7648 146.537 56.99C145.92 55.7369 144.998 54.6596 143.854 53.858C142.722 53.0702 141.28 52.8733 139.978 53.3289C139.494 53.5209 139.053 53.818 138.578 54.021C137.388 54.54 136.027 54.465 134.85 55.007C133.399 55.675 132.457 57.148 131.594 58.547C130.864 59.747 129.417 61.8589 129.827 63.4149C130.232 64.9919 132.513 64.907 133.589 65.658Z" fill="#4C3E42"/>
<g opacity="0.1">
<path d="M155.829 70.2679C155.824 70.2037 155.813 70.1401 155.796 70.0779C155.484 70.4527 155.27 70.8996 155.175 71.3779C155.168 71.49 155.178 71.6025 155.203 71.7119C155.561 71.3099 155.78 70.8038 155.829 70.2679Z" fill="black"/>
<path d="M152.549 73.675C151.246 73.0184 149.998 72.2562 148.819 71.396C147.89 70.83 146.898 70.383 146.007 69.755C145.087 69.105 144.29 68.269 143.337 67.68C142.422 67.0137 141.24 66.8367 140.17 67.206C139.455 67.6653 138.787 68.1942 138.176 68.785C137.488 69.285 136.433 69.477 135.905 68.785C135.696 68.4549 135.567 68.0807 135.528 67.692C135.408 66.4474 134.82 65.2949 133.882 64.468C132.805 63.716 130.524 63.8 130.11 62.22C130.041 61.9371 130.023 61.6442 130.056 61.355C129.773 61.9926 129.689 62.7009 129.816 63.387C130.231 64.975 132.516 64.887 133.588 65.635C134.526 66.4622 135.115 67.6149 135.236 68.86C135.275 69.2483 135.404 69.6224 135.611 69.953C136.13 70.634 137.195 70.442 137.883 69.944C138.494 69.3534 139.162 68.8252 139.877 68.367C140.946 67.9944 142.131 68.1716 143.044 68.841C143.997 69.441 144.794 70.273 145.714 70.916C146.605 71.546 147.597 71.992 148.524 72.557C149.703 73.4186 150.951 74.1815 152.256 74.838C153.592 75.4847 155.183 75.2811 156.313 74.319C156.046 74.1757 155.793 74.0083 155.557 73.819C154.57 74.1342 153.502 74.0831 152.549 73.675Z" fill="black"/>
</g>
<path d="M121.941 85.5819L135.776 80.4149C136.103 80.2922 136.465 80.3046 136.782 80.4492C137.1 80.5939 137.347 80.8589 137.469 81.1859C137.591 81.5129 137.578 81.875 137.433 82.1925C137.288 82.51 137.023 82.7569 136.696 82.8789L122.861 88.0479L119.897 87.7479L121.941 85.5819Z" fill="#5C5C8E"/>
<path opacity="0.1" d="M137.048 80.7721C137.302 81.4536 136.956 82.2121 136.275 82.467L122.44 87.6341L120.213 87.4111L119.893 87.7571L122.857 88.0571L136.692 82.8881C137.019 82.7661 137.284 82.5192 137.429 82.2017C137.574 81.8842 137.587 81.5221 137.465 81.1951C137.364 80.9224 137.174 80.6913 136.927 80.5381C136.974 80.6122 137.015 80.6905 137.048 80.7721Z" fill="white"/>
<path d="M121.941 85.6089L122.863 88.0749L120.43 87.8309L119.897 87.7769L120.625 87.0059L121.941 85.6089Z" fill="#EFC8C4"/>
<path d="M120.623 87.0142C120.68 87.0561 120.729 87.1091 120.765 87.1701C120.812 87.2433 120.812 87.337 120.765 87.4102C120.725 87.4503 120.68 87.484 120.63 87.5101C120.515 87.5844 120.441 87.7078 120.43 87.8441L119.897 87.7901L120.623 87.0142Z" fill="#727A9C"/>
<path d="M109.865 58.8081L107.532 57.6701C107.392 57.6019 107.334 57.4332 107.402 57.2932L107.649 56.7852C107.681 56.7176 107.739 56.6657 107.81 56.6413C107.881 56.6168 107.959 56.6219 108.026 56.6552L109.598 57.4212L111.239 54.0562C111.308 53.9167 111.476 53.8583 111.616 53.9251L112.124 54.1742C112.192 54.2065 112.243 54.2646 112.268 54.3355C112.292 54.4063 112.287 54.484 112.254 54.5512L110.241 58.6792C110.173 58.8192 110.004 58.8774 109.864 58.8092L109.865 58.8081Z" fill="#3ACC6C"/>
<path d="M114.961 73.399L112.628 72.261C112.488 72.1928 112.43 72.0241 112.498 71.8841L112.745 71.3761C112.814 71.2358 112.983 71.1777 113.124 71.2461L114.694 72.0121L116.333 68.643C116.402 68.5036 116.57 68.4452 116.71 68.5121L117.217 68.761C117.284 68.7936 117.336 68.8517 117.361 68.9224C117.385 68.9931 117.381 69.0707 117.348 69.138L115.335 73.266C115.266 73.4058 115.097 73.4638 114.956 73.396L114.961 73.399Z" fill="#3ACC6C"/>
<path d="M112.674 66.2061L110.341 65.0681C110.201 64.9995 110.143 64.8314 110.21 64.6911L110.459 64.1831C110.491 64.1155 110.549 64.0637 110.62 64.0392C110.691 64.0148 110.769 64.0198 110.836 64.0531L112.408 64.8191L114.049 61.4481C114.117 61.3081 114.286 61.2499 114.426 61.3181L114.934 61.5651C115.074 61.6345 115.132 61.8035 115.064 61.9441L113.049 66.0751C112.981 66.2151 112.812 66.2733 112.672 66.2051L112.674 66.2061Z" fill="#3ACC6C"/>
<path d="M117.175 79.9861L114.842 78.8481C114.702 78.7799 114.644 78.6111 114.712 78.4711L114.959 77.9631C115.027 77.8231 115.196 77.7649 115.336 77.8331L116.908 78.5991L118.549 75.2341C118.618 75.0939 118.787 75.0355 118.928 75.1031L119.435 75.352C119.503 75.3844 119.554 75.4425 119.579 75.5134C119.603 75.5842 119.598 75.6619 119.565 75.7291L117.554 79.8571C117.485 79.9969 117.316 80.0548 117.175 79.9871V79.9861Z" fill="#3ACC6C"/>
<defs>
<linearGradient id="paint0_linear_125_10916" x1="148.338" y1="135.932" x2="148.338" y2="52.479" gradientUnits="userSpaceOnUse">
<stop stop-color="#808080" stop-opacity="0.251"/>
<stop offset="0.54" stop-color="#808080" stop-opacity="0.122"/>
<stop offset="1" stop-color="#808080" stop-opacity="0.102"/>
</linearGradient>
</defs>
</svg>
