<svg width="178" height="164" viewBox="0 0 178 164" fill="none" xmlns="http://www.w3.org/2000/svg">
<path opacity="0.1" d="M75.798 63.397C68.6121 61.071 61.014 59.122 53.2491 59.322C41.833 59.622 30.857 64.938 25.444 72.801C20.868 79.464 20.257 87.295 18.26 94.701C15.799 103.829 11.128 112.491 6.14205 120.963C3.46405 125.513 0.64205 130.163 0.17305 135.163C-0.46595 142.104 3.74005 149.044 10.373 153.695C17.0061 158.346 25.8281 160.825 34.6931 161.404C39.41 161.71 44.34 161.474 48.5401 159.775C52.9831 157.984 56.2311 154.708 60.6921 152.937C64.826 151.298 69.6451 151.087 74.2821 151.327C80.2881 151.631 86.2365 152.65 92.0011 154.363C98.465 156.297 104.471 159.08 110.921 161.042C117.371 163.004 124.581 164.114 131.19 162.536C137.395 161.056 142.317 157.407 146.756 153.711C153.909 147.768 160.56 141.246 166.641 134.211C170.65 129.558 174.384 124.643 176.175 119.211C179.595 108.811 175.013 97.042 164.761 89.882C156.268 83.947 144.842 81.327 133.653 79.736C123.453 78.27 111.643 78.124 102.264 74.39C93.3181 70.814 85.1811 66.433 75.798 63.397Z" class="process-step-image__accent-element-1" fill="#ED1D55"/>
<path opacity="0.1" d="M149.786 100.984C152.325 100.984 154.384 100.536 154.384 99.9839C154.384 99.4316 152.325 98.9839 149.786 98.9839C147.247 98.9839 145.188 99.4316 145.188 99.9839C145.188 100.536 147.247 100.984 149.786 100.984Z" fill="#6C63FF"/>
<path opacity="0.1" d="M129.039 98.5669C131.578 98.5669 133.637 98.1192 133.637 97.5669C133.637 97.0146 131.578 96.5669 129.039 96.5669C126.5 96.5669 124.441 97.0146 124.441 97.5669C124.441 98.1192 126.5 98.5669 129.039 98.5669Z" fill="#6C63FF"/>
<path opacity="0.1" d="M156.835 106.069C158.64 106.069 160.104 105.621 160.104 105.069C160.104 104.517 158.64 104.069 156.835 104.069C155.03 104.069 153.566 104.517 153.566 105.069C153.566 105.621 155.03 106.069 156.835 106.069Z" fill="#6C63FF"/>
<path d="M149.686 99.8371C149.686 99.8371 156.136 78.6961 148.677 70.2291C143.106 63.8941 136.764 64.6581 133.929 65.4361C132.444 65.8314 131.207 66.8592 130.547 68.2471C129.552 70.3861 129.735 73.8571 136.734 77.9101C148.454 84.6961 149.184 94.0101 149.184 94.0101L149.686 99.8371Z" class="process-step-image__accent-element-1" fill="#ED1D55"/>
<path d="M134.938 68.438C134.938 68.438 153.95 74.383 149.686 99.838" stroke="#565987"/>
<path d="M146.039 70.5691C146.039 70.5691 143.421 72.3341 144.248 74.9841" stroke="#565987"/>
<path d="M136.846 72.135C137.777 71.2067 139.171 70.9199 140.393 71.405" stroke="#565987"/>
<path d="M144.36 80.3259C144.36 80.3259 147.169 78.9019 147.895 80.6859" stroke="#565987"/>
<path d="M151.314 83.2969C151.314 83.2969 149.203 83.13 149.165 84.139" stroke="#565987"/>
<path d="M149.947 100.01C149.947 100.01 142.387 84.645 140.32 84.981C139.325 85.14 138.88 86.111 138.675 87.081C138.421 88.3402 138.565 89.6474 139.087 90.821C141.142 95.3608 145.13 98.7353 149.947 100.01Z" class="process-step-image__accent-element-2" fill="#B40031"/>
<path d="M140.375 87.8979C140.375 87.8979 148.303 99.3979 149.835 99.8979" stroke="#565987"/>
<path d="M139.647 89.6919H141.497" stroke="#565987"/>
<path d="M141.863 93.8979L144.764 94.021" stroke="#565987"/>
<path d="M143.628 90.5339L143.314 92.0439" stroke="#565987"/>
<path d="M146.712 95.1309L146.656 96.5039" stroke="#565987"/>
<path d="M149.724 100.01C149.724 100.01 157.284 84.645 159.351 84.981C160.346 85.14 160.791 86.111 160.996 87.081C161.251 88.3402 161.107 89.6474 160.584 90.821C158.529 95.3608 154.541 98.7353 149.724 100.01Z" class="process-step-image__accent-element-2" fill="#B40031"/>
<path d="M159.295 87.8979C159.295 87.8979 151.367 99.3979 149.835 99.8979" stroke="#565987"/>
<path d="M160.023 89.6919H158.173" stroke="#565987"/>
<path d="M157.808 93.8979L154.907 94.021" stroke="#565987"/>
<path d="M156.043 90.5339L156.357 92.0439" stroke="#565987"/>
<path d="M152.957 95.1309L153.015 96.5039" stroke="#565987"/>
<path d="M155.943 103.599C155.738 103.431 155.588 103.205 155.513 102.95C155.444 102.686 155.569 102.41 155.813 102.287C156.111 102.23 156.416 102.338 156.613 102.568C156.807 102.795 157.087 102.93 157.385 102.94C157.079 102.662 156.941 102.245 157.021 101.84C157.034 101.758 157.069 101.68 157.121 101.615C157.274 101.452 157.553 101.523 157.736 101.651C158.274 102.136 158.552 102.846 158.486 103.567C158.518 103.301 158.521 103.033 158.496 102.767C158.473 102.498 158.586 102.236 158.796 102.067C158.934 101.991 159.091 101.954 159.248 101.96C159.511 101.923 159.778 101.999 159.982 102.169C160.179 102.44 160.167 102.811 159.952 103.069C159.735 103.31 159.479 103.513 159.194 103.669C158.976 103.798 158.79 103.975 158.651 104.186C158.635 104.216 158.622 104.246 158.611 104.278H156.968C156.597 104.099 156.252 103.871 155.943 103.599Z" class="process-step-image__accent-element-1" fill="#ED1D55"/>
<path d="M128.741 91.0889C128.741 91.0889 128.124 91.8949 129.025 93.1099C129.926 94.3249 130.666 95.3539 130.368 96.1099C130.368 96.1099 129.009 93.8519 127.903 93.8199C126.797 93.7879 127.523 92.4479 128.741 91.0889Z" class="process-step-image__accent-element-1" fill="#ED1D55"/>
<path opacity="0.1" d="M128.741 91.0889C128.687 91.1666 128.644 91.2518 128.614 91.3419C127.536 92.6089 126.961 93.7929 127.997 93.8229C128.964 93.8509 130.124 95.5779 130.397 96.0109C130.392 96.0458 130.381 96.0796 130.365 96.1109C130.365 96.1109 129.006 93.8529 127.9 93.8209C126.794 93.7889 127.523 92.4479 128.741 91.0889Z" fill="black"/>
<path d="M127.595 92.1159C127.595 92.4009 127.627 92.6289 127.667 92.6289C127.707 92.6289 127.737 92.3999 127.737 92.1159C127.737 91.8319 127.697 91.9669 127.659 91.9669C127.621 91.9669 127.595 91.8329 127.595 92.1159Z" fill="#FFD037"/>
<path d="M127.201 92.4541C127.45 92.5911 127.669 92.6731 127.686 92.6391C127.703 92.6051 127.519 92.4661 127.27 92.3311C127.021 92.1961 127.119 92.2931 127.099 92.3311C127.079 92.3691 126.952 92.3181 127.201 92.4541Z" fill="#FFD037"/>
<path d="M131.994 91.0889C131.994 91.0889 132.611 91.8949 131.71 93.1099C130.809 94.3249 130.069 95.3539 130.369 96.1099C130.369 96.1099 131.726 93.8519 132.832 93.8199C133.938 93.7879 133.212 92.4479 131.994 91.0889Z" class="process-step-image__accent-element-1" fill="#ED1D55"/>
<path opacity="0.1" d="M131.993 91.0889C132.048 91.1665 132.09 91.2518 132.12 91.3419C133.198 92.6089 133.773 93.7929 132.737 93.8229C131.77 93.8509 130.61 95.5779 130.337 96.0109C130.346 96.0449 130.358 96.0783 130.371 96.1109C130.371 96.1109 131.728 93.8529 132.834 93.8209C133.94 93.7889 133.211 92.4479 131.993 91.0889Z" fill="black"/>
<path d="M133.139 92.1159C133.139 92.4009 133.107 92.6289 133.067 92.6289C133.027 92.6289 132.997 92.3999 132.997 92.1159C132.997 91.8319 133.037 91.9669 133.075 91.9669C133.113 91.9669 133.139 91.8329 133.139 92.1159Z" fill="#FFD037"/>
<path d="M133.534 92.4541C133.285 92.5911 133.066 92.6731 133.049 92.6391C133.032 92.6051 133.216 92.4661 133.465 92.3311C133.714 92.1961 133.616 92.2931 133.636 92.3311C133.656 92.3691 133.782 92.3181 133.534 92.4541Z" fill="#FFD037"/>
<path d="M132.943 96.0069C132.177 96.0038 131.418 95.8608 130.703 95.5849C130.184 95.2149 128.053 94.7729 127.918 95.3659C127.783 95.9589 125.332 98.3139 127.273 98.3299C128.974 98.3853 130.673 98.1765 132.31 97.7109C132.827 97.3959 132.943 96.0069 132.943 96.0069Z" fill="#A8A8A8"/>
<path opacity="0.2" d="M127.245 98.1239C128.946 98.1792 130.645 97.9704 132.282 97.5049C132.682 97.2659 132.833 96.4049 132.882 96.0049H132.938C132.938 96.0049 132.831 97.3979 132.311 97.7099C130.674 98.1736 128.975 98.3824 127.274 98.3289C126.713 98.3289 126.52 98.1289 126.53 97.8289C126.608 98.0149 126.827 98.1219 127.245 98.1239Z" fill="black"/>
<path opacity="0.1" d="M93.518 9.91386C95.8945 9.91386 97.821 7.98734 97.821 5.61086C97.821 3.23438 95.8945 1.30786 93.518 1.30786C91.1415 1.30786 89.215 3.23438 89.215 5.61086C89.215 7.98734 91.1415 9.91386 93.518 9.91386Z" class="process-step-image__accent-element-1" fill="#ED1D55"/>
<path opacity="0.1" d="M7.55203 94.686C11.5351 94.686 14.764 91.457 14.764 87.474C14.764 83.4909 11.5351 80.262 7.55203 80.262C3.56895 80.262 0.340027 83.4909 0.340027 87.474C0.340027 91.457 3.56895 94.686 7.55203 94.686Z" class="process-step-image__accent-element-1" fill="#ED1D55"/>
<path opacity="0.1" d="M142.623 63.2729C146.606 63.2729 149.835 60.044 149.835 56.0609C149.835 52.0778 146.606 48.8489 142.623 48.8489C138.64 48.8489 135.411 52.0778 135.411 56.0609C135.411 60.044 138.64 63.2729 142.623 63.2729Z" class="process-step-image__accent-element-1" fill="#ED1D55"/>
<path d="M82.986 69.567C82.731 69.591 82.473 69.579 82.22 69.619C81.7958 69.7033 81.3909 69.8657 81.026 70.098C79.1444 71.0318 77.6383 72.5803 76.757 74.487C76.6955 74.6064 76.6757 74.7431 76.701 74.875C76.7455 74.9839 76.8184 75.0789 76.912 75.15L77.612 75.791C77.7009 75.8835 77.8069 75.9578 77.924 76.01C78.1141 76.0596 78.3144 76.0534 78.501 75.992C80.437 75.548 82.494 75.037 83.853 73.592C84.498 72.906 85.092 71.961 86.041 71.935C86.432 71.9789 86.82 72.0457 87.203 72.135C87.6006 72.2188 88.0018 72.0092 88.16 71.635C88.1903 71.445 88.1682 71.2504 88.096 71.072L87.511 69.124C87.352 68.591 85.746 68.563 85.211 68.658C84.4 68.791 83.851 69.487 82.986 69.567Z" fill="#65617D"/>
<path d="M89.8781 80.536C89.8908 81.2037 89.8628 81.8716 89.7941 82.536C89.6962 83.0563 89.5279 83.561 89.2941 84.036C88.9362 84.8014 88.4815 85.5176 87.941 86.167C87.4668 86.796 86.825 87.2788 86.0891 87.56C85.3312 87.8285 84.4862 87.605 83.9601 86.997C83.6321 86.4461 83.5016 85.7999 83.5901 85.165C83.6051 83.5883 83.9523 82.0325 84.609 80.599C84.909 79.999 85.2951 79.433 85.6041 78.83C86.2491 77.579 86.6171 76.094 87.7291 75.23C88.4267 75.5524 89.1727 75.7575 89.9371 75.837C90.2371 75.869 91.081 75.889 91.18 76.269C91.248 76.526 90.691 77.244 90.58 77.497C90.1579 78.4571 89.9198 79.488 89.8781 80.536Z" fill="#65617D"/>
<path d="M81.9921 51.845C82.2797 52.4311 82.4818 53.0555 82.5921 53.699C82.6321 54.099 82.5921 54.499 82.5921 54.893C82.6257 55.438 82.7166 55.978 82.8631 56.504L83.9711 61.04C84.1764 61.7086 84.2594 62.4089 84.2161 63.107C84.1125 63.5594 84.038 64.018 83.9931 64.48C84.0141 64.8317 84.0701 65.1804 84.1601 65.521C84.3699 66.5727 84.3124 67.6602 83.9931 68.684C83.9601 68.7612 83.9484 68.8458 83.9591 68.929C83.9871 69.058 84.1121 69.138 84.2261 69.2C85.4192 69.8527 86.7198 70.2859 88.0661 70.479C89.281 67.5887 90.13 64.5579 90.5931 61.457C90.8751 59.579 91.0131 57.677 91.3751 55.813C91.3831 55.7052 91.4288 55.6036 91.5041 55.526C91.6391 55.413 91.8441 55.484 92.0041 55.56C94.0372 56.5376 95.9931 57.6682 97.8551 58.942C99.1806 57.2256 99.6756 55.0092 99.2061 52.892C98.9719 51.9911 98.6382 51.119 98.2111 50.292C97.7559 49.2851 97.1886 48.3328 96.5201 47.453C94.9535 45.6597 92.9227 44.3331 90.6511 43.619C89.2961 43.13 87.9011 42.767 86.5091 42.397C85.7291 42.188 84.4221 41.508 83.6641 42.037C82.8801 42.8053 82.3109 43.7655 82.0131 44.822C81.6102 45.8978 81.3908 47.0336 81.3641 48.182C81.33 49.4324 81.5434 50.6773 81.9921 51.845Z" fill="#3F3D56"/>
<path d="M97.9841 57.3139C97.5681 57.7679 97.9181 58.4919 97.8391 59.1049C97.7872 59.3817 97.6884 59.6475 97.5471 59.8909L95.6471 63.6289C95.3289 64.1901 95.0906 64.7929 94.9391 65.4199C94.6781 66.7689 95.2141 68.2849 94.5291 69.4769C94.2525 69.8233 94.0315 70.2106 93.8741 70.625C93.8457 70.9465 93.8344 71.2692 93.8401 71.5919C93.7526 71.9604 93.6328 72.3205 93.4821 72.6679C93.3952 73.0157 93.3333 73.3693 93.2971 73.7259C93.0558 75.2474 92.2591 76.6255 91.0611 77.5939C90.3746 78.176 89.4931 78.4761 88.5941 78.4339C87.6799 78.3863 86.8967 77.7638 86.6441 76.8839C86.6312 76.5811 86.5509 76.2849 86.4091 76.0169C86.1461 75.6729 85.5931 75.6589 85.3411 75.3069L86.3201 73.695C86.6614 73.2197 86.8886 72.6722 86.9841 72.0949C87.0441 71.3809 86.7001 70.6689 86.8231 69.9619C86.9281 69.3549 87.3641 68.8499 87.4951 68.2489C87.5496 67.485 87.4334 66.7185 87.1551 66.0049C86.876 64.1321 87.0597 62.2195 87.6901 60.4339C88.2172 57.9834 89.0927 55.6211 90.2901 53.4189C92.8851 54.8139 95.2731 56.1569 97.9841 57.3139Z" fill="#3F3D56"/>
<path d="M98.0091 19.419C98.1157 19.8569 98.13 20.3122 98.0511 20.756C97.9811 21.751 98.1921 22.746 98.1451 23.756C98.0375 24.7544 97.8458 25.7419 97.5721 26.708C96.9611 29.508 97.1081 32.424 96.5551 35.235C95.8731 38.717 94.1281 41.96 93.7841 45.493C93.8103 46.6242 93.5669 47.7454 93.0741 48.764C89.4209 47.156 85.9675 45.1277 82.7841 42.72C83.6128 37.5421 84.0474 32.3087 84.0841 27.065C84.0373 26.4311 84.0808 25.7937 84.2131 25.172C84.3789 24.6518 84.6173 24.1577 84.9211 23.704C85.6911 22.453 86.5381 21.251 87.3841 20.051C88.2089 18.2164 90.3291 17.3528 92.2011 18.089L95.5951 18.71C96.3021 18.844 97.7061 18.597 98.0091 19.419Z" class="process-step-image__accent-element-1" fill="#ED1D55"/>
<path d="M70.766 39.3229C70.3019 38.8587 69.7957 38.4386 69.254 38.0679C69.96 37.2089 69.821 35.9679 69.994 34.8679C70.1359 34.1532 70.3514 33.4552 70.637 32.7849C70.709 32.5959 70.81 32.3849 71.007 32.3369C71.1279 32.322 71.2506 32.3414 71.361 32.3929C71.961 32.6039 73.203 32.5929 73.667 32.9779C74.226 33.4479 73.715 34.4299 73.504 35.0169C73.354 35.4079 71.063 39.6219 70.766 39.3229Z" fill="#BE6F72"/>
<path d="M72.4991 76.478C72.7988 76.9632 72.9946 77.5052 73.0741 78.07C73.148 78.6441 72.9021 79.2127 72.4331 79.552C71.8788 79.798 71.2478 79.8052 70.6881 79.572C68.2304 78.7723 66.23 76.9632 65.1881 74.598C65.0089 73.8291 64.4719 73.1928 63.7441 72.887C62.9295 72.4909 62.2635 71.8438 61.8441 71.041C61.44 70.2068 61.669 69.204 62.3951 68.628C62.8672 68.3547 63.4293 68.2826 63.9551 68.428C64.4736 68.5754 64.97 68.7917 65.4311 69.071C66.2667 69.4428 67.0658 69.8918 67.8181 70.412C68.4092 70.9469 68.9579 71.527 69.4591 72.147C70.0422 72.8131 70.5887 73.5105 71.0961 74.236C71.2611 74.445 72.6361 76.285 72.4991 76.478Z" fill="#65617D"/>
<path d="M57.9161 72.3019C57.8485 73.3028 57.6718 74.2934 57.3891 75.2559C57.2723 75.8123 56.985 76.3185 56.5671 76.7039C56.1885 76.9495 55.7596 77.1067 55.3121 77.1639C54.8689 77.317 54.3825 77.1043 54.1941 76.6749C53.4818 75.829 52.9411 74.8525 52.6021 73.7999C52.2854 72.2178 52.5294 70.5748 53.2921 69.1529C53.5401 68.5706 53.9018 68.0437 54.3561 67.6029C54.9176 67.1416 55.5922 66.8389 56.3101 66.7259C57.0441 66.5789 57.9451 66.2639 57.9991 67.1579C58.0775 68.873 58.0494 70.5913 57.9151 72.3029L57.9161 72.3019Z" fill="#65617D"/>
<path d="M68.9241 34.907C70.2971 35.617 71.8241 36.52 72.1071 38.038C72.1317 38.979 72.096 39.9206 72.0001 40.857C72.1636 41.6694 72.2818 42.4904 72.3541 43.316C72.3072 43.7071 72.2405 44.0956 72.1541 44.48C72.0842 45.2191 72.0582 45.9618 72.0761 46.704C71.8775 48.3636 71.5769 50.0093 71.1761 51.632C70.9847 52.8096 70.94 54.0064 71.0431 55.195C71.1091 55.963 71.2431 56.727 71.2431 57.495C71.2432 58.0511 71.1974 58.6064 71.1061 59.155C70.8393 60.8779 70.302 62.5478 69.5141 64.103C68.5571 65.987 68.6921 68.418 68.7941 70.529C68.8384 70.8197 68.8014 71.117 68.6871 71.388C68.4361 71.844 67.8121 71.909 67.2941 71.865C65.3757 71.6897 63.5966 70.7887 62.3201 69.346C62.134 69.1647 62.0077 68.931 61.9581 68.676C61.9141 68.25 62.2581 67.9 62.5031 67.548C63.3431 66.354 63.1301 64.737 63.2291 63.271C63.3016 62.2041 63.5567 61.1576 63.9831 60.177C64.2783 59.6322 64.4845 59.0438 64.5941 58.434C64.6064 57.8554 64.5044 57.2801 64.2941 56.741L63.6941 54.847C62.8506 51.8782 61.7612 48.9848 60.4371 46.197C59.5183 46.7948 58.8607 47.719 58.5971 48.783C58.0761 50.657 58.8181 52.75 58.1081 54.553C57.9906 54.8029 57.893 55.0617 57.8161 55.327C57.7742 55.5558 57.7581 55.7886 57.7681 56.021C57.7866 57.9591 57.9047 59.895 58.1221 61.821C58.1328 62.113 58.2149 62.398 58.3611 62.651C58.4781 62.82 58.6491 62.945 58.7751 63.107C59.0585 63.6074 59.1305 64.2003 58.9751 64.754L58.5751 67.416C58.5681 67.5509 58.5234 67.6812 58.4461 67.792C58.3523 67.8828 58.2354 67.9461 58.1081 67.975C56.844 68.3675 55.5114 68.4895 54.1971 68.333C53.8067 68.2423 53.4425 68.0626 53.1331 67.808C53.0991 67.408 53.5951 67.145 53.6121 66.75C53.5941 66.516 53.4866 66.2979 53.3121 66.141C52.5721 65.305 51.6891 64.418 51.6971 63.302C51.6971 63.01 51.7671 62.717 51.7571 62.425C51.5901 61.6967 51.3475 60.9878 51.0331 60.31C50.9282 59.3949 50.9915 58.4683 51.2201 57.576C51.3162 56.3392 51.249 55.0952 51.0201 53.876L50.3541 49.376C50.2765 48.6769 50.138 47.9859 49.9401 47.311C49.6893 46.6463 49.395 45.9989 49.0591 45.373C48.4221 44.08 47.8991 42.735 47.3781 41.394C47.2125 41.0296 47.1085 40.6403 47.0701 40.242C47.0872 39.5522 47.3577 38.8929 47.8301 38.39C48.6498 37.4139 49.7686 36.7355 51.0131 36.46C51.2212 36.4019 51.4399 36.393 51.6521 36.434C51.832 36.4928 52.0009 36.581 52.1521 36.695C55.2699 38.7343 59.1629 39.1958 62.6711 37.942C62.9254 38.0655 63.2239 38.0573 63.4711 37.92C64.0843 37.5822 64.661 37.1821 65.1921 36.726C66.2989 35.8714 67.569 35.2523 68.9241 34.907Z" fill="#3F3D56"/>
<path d="M27.6881 86.004C27.7935 86.3089 27.9523 86.5927 28.1571 86.842C29.001 87.6743 29.7362 88.6101 30.3451 89.627C30.4451 89.862 30.5141 90.108 30.6041 90.347C30.8763 91.0675 31.3201 91.7107 31.8971 92.221C32.3374 92.5864 32.8158 92.9032 33.3241 93.166C34.1734 93.7037 35.1488 94.0095 36.1531 94.053C36.355 94.0487 36.5559 94.0246 36.7531 93.981C37.0638 93.9166 37.3634 93.8068 37.6421 93.655C38.3276 93.3409 38.7507 92.6389 38.7081 91.886C38.6827 91.7476 38.6393 91.6131 38.5791 91.486C38.4736 91.2847 38.3519 91.0924 38.2151 90.911C37.9103 90.4233 37.5111 90.0014 37.0411 89.67C36.4388 89.4336 35.8548 89.1528 35.2941 88.83C35.099 88.6521 34.9306 88.447 34.7941 88.221C34.3432 87.5281 34.0072 86.767 33.7991 85.967C33.7236 85.3529 33.4862 84.77 33.1111 84.278C32.4532 83.8442 31.6868 83.6038 30.8991 83.584C30.6181 83.6422 30.3269 83.6277 30.0531 83.542C29.7861 83.409 29.6971 83.22 29.3751 83.242C29.1184 83.275 28.876 83.3789 28.6751 83.542C27.8701 84.0808 27.4782 85.0583 27.6881 86.004Z" fill="#3F3D56"/>
<path d="M34.756 86.905C34.8252 87.5939 35.1247 88.2394 35.606 88.737C35.938 89.023 36.406 89.203 36.567 89.606C36.6773 90.06 36.5568 90.5391 36.245 90.887C35.8946 91.355 35.4602 91.7537 34.964 92.063C34.5576 92.358 34.0516 92.4815 33.555 92.407C33.1674 92.2793 32.8197 92.0528 32.546 91.75C31.8239 91.1636 31.226 90.4392 30.787 89.619C30.387 88.728 30.369 87.695 29.935 86.819C29.6222 86.3422 29.3544 85.8374 29.135 85.311C29.0663 85.1125 29.0663 84.8966 29.135 84.698C29.2863 84.4082 29.5882 84.2287 29.915 84.234C30.2354 84.245 30.5513 84.3128 30.848 84.434C31.7461 84.7542 32.6653 85.0115 33.599 85.204C33.971 85.274 34.199 85.272 34.399 85.632C34.5831 86.0353 34.7036 86.4648 34.756 86.905Z" fill="#FBBEBE"/>
<path d="M37.0641 92.6071C36.9167 92.8326 36.8123 93.0835 36.7561 93.3471C36.7091 93.5521 36.7016 93.7642 36.7341 93.9721C37.0448 93.9077 37.3444 93.7978 37.6231 93.6461C38.3086 93.332 38.7317 92.6299 38.6891 91.8771C38.6636 91.7387 38.6203 91.6042 38.5601 91.4771C38.3669 91.4338 38.1654 91.4967 38.0311 91.6421C37.6604 91.9114 37.3341 92.2369 37.0641 92.6071Z" fill="#FBBEBE"/>
<path d="M29.933 77.49C29.8457 77.6772 29.8198 77.8872 29.859 78.09C29.95 78.49 30.359 78.717 30.726 78.898L34.226 80.609C34.4687 80.7213 34.7051 80.8468 34.934 80.985C35.5031 81.3827 36.0311 81.8363 36.51 82.339C36.9929 82.8422 37.5953 83.2151 38.261 83.423C38.9345 83.5705 39.6384 83.4782 40.251 83.162C40.5811 82.9974 40.8875 82.7892 41.162 82.543C41.3999 82.3346 41.6197 82.1064 41.819 81.861C41.9902 81.6802 42.1126 81.459 42.175 81.218C42.2054 80.8473 42.0883 80.4797 41.849 80.195C41.7269 80.0219 41.5933 79.8572 41.449 79.702C39.9798 78.2997 38.0942 77.4134 36.077 77.177C35.3403 77.0222 34.616 76.8133 33.91 76.552C33.2016 76.2908 32.4439 76.191 31.692 76.26C30.9319 76.3367 30.266 76.8024 29.933 77.49Z" fill="#3F3D56"/>
<path opacity="0.1" d="M29.933 77.49C29.8457 77.6772 29.8198 77.8872 29.859 78.09C29.95 78.49 30.359 78.717 30.726 78.898L34.226 80.609C34.4687 80.7213 34.7051 80.8468 34.934 80.985C35.5031 81.3827 36.0311 81.8363 36.51 82.339C36.9929 82.8422 37.5953 83.2151 38.261 83.423C38.9345 83.5705 39.6384 83.4782 40.251 83.162C40.5811 82.9974 40.8875 82.7892 41.162 82.543C41.3999 82.3346 41.6197 82.1064 41.819 81.861C41.9902 81.6802 42.1126 81.459 42.175 81.218C42.2054 80.8473 42.0883 80.4797 41.849 80.195C41.7269 80.0219 41.5933 79.8572 41.449 79.702C39.9798 78.2997 38.0942 77.4134 36.077 77.177C35.3403 77.0222 34.616 76.8133 33.91 76.552C33.2016 76.2908 32.4439 76.191 31.692 76.26C30.9319 76.3367 30.266 76.8024 29.933 77.49Z" fill="black"/>
<path d="M38.6951 78.5829C38.9643 78.8852 39.1859 79.2268 39.3521 79.5959C39.5015 79.8377 39.5547 80.1268 39.5011 80.4059C39.4228 80.5936 39.2974 80.7579 39.1371 80.8829L38.7891 81.2049C38.684 81.3144 38.5617 81.4059 38.4271 81.4759C38.2357 81.548 38.0312 81.5786 37.8271 81.5659C37.3583 81.6179 36.8852 81.5195 36.4761 81.2849C35.9815 80.8496 35.829 80.1425 36.1001 79.5419C36.3802 78.9625 36.8044 78.4646 37.3321 78.0959C37.7361 77.7669 38.4071 78.2819 38.6951 78.5829Z" fill="#FBBEBE"/>
<path d="M40.8161 80.64C40.7517 80.9703 40.783 81.312 40.9061 81.625C40.9941 81.925 41.0791 82.225 41.1651 82.525V82.537C41.4029 82.3287 41.6227 82.1005 41.8221 81.855C41.9932 81.6743 42.1157 81.453 42.1781 81.212C42.2085 80.8414 42.0913 80.4738 41.8521 80.189C41.7299 80.0159 41.5963 79.8512 41.4521 79.696C41.3581 79.817 41.2771 79.937 41.2091 80.014C41.0352 80.1925 40.9012 80.4059 40.8161 80.64Z" fill="#FBBEBE"/>
<path d="M31.6741 65.812C31.3527 67.5662 31.3466 69.3637 31.6561 71.12C31.9244 72.4526 31.9094 73.8266 31.6121 75.153C31.4013 75.6149 31.302 76.1198 31.3221 76.627C31.4911 77.568 32.6221 77.927 33.5641 78.107C33.8351 78.176 34.1167 78.193 34.3941 78.157C34.6723 78.0807 34.9304 77.9441 35.1501 77.757C36.485 76.7866 37.4989 75.4387 38.0611 73.887C38.3776 72.8345 38.5719 71.749 38.6401 70.652C38.8989 68.8213 38.9325 66.9659 38.7401 65.127C38.6601 64.59 38.5401 64.059 38.4911 63.518C38.4284 62.5769 38.4804 61.6316 38.6461 60.703C38.9887 58.4026 39.5076 56.1319 40.1981 53.911C38.3035 54.1625 36.3778 53.8145 34.6911 52.916C35.0171 53.091 34.6431 55.882 34.6031 56.274C34.4822 57.4426 34.2713 58.6 33.9721 59.736C33.4121 61.861 32.1771 63.703 31.6741 65.812Z" fill="#3F3D56"/>
<path opacity="0.1" d="M31.6741 65.812C31.3527 67.5662 31.3466 69.3637 31.6561 71.12C31.9244 72.4526 31.9094 73.8266 31.6121 75.153C31.4013 75.6149 31.302 76.1198 31.3221 76.627C31.4911 77.568 32.6221 77.927 33.5641 78.107C33.8351 78.176 34.1167 78.193 34.3941 78.157C34.6723 78.0807 34.9304 77.9441 35.1501 77.757C36.485 76.7866 37.4989 75.4387 38.0611 73.887C38.3776 72.8345 38.5719 71.749 38.6401 70.652C38.8989 68.8213 38.9325 66.9659 38.7401 65.127C38.6601 64.59 38.5401 64.059 38.4911 63.518C38.4284 62.5769 38.4804 61.6316 38.6461 60.703C38.9887 58.4026 39.5076 56.1319 40.1981 53.911C38.3035 54.1625 36.3778 53.8145 34.6911 52.916C35.0171 53.091 34.6431 55.882 34.6031 56.274C34.4822 57.4426 34.2713 58.6 33.9721 59.736C33.4121 61.861 32.1771 63.703 31.6741 65.812Z" fill="black"/>
<path d="M42.007 55.669C42.6694 58.0266 42.7643 60.5076 42.284 62.909C41.806 65.3004 41.5715 67.7342 41.584 70.173C41.7308 71.119 41.7084 72.0837 41.518 73.022C41.3632 73.4674 41.1582 73.8938 40.907 74.293L34.558 85.271C34.2291 85.8499 33.6306 86.224 32.966 86.2662C32.2835 86.2728 31.6079 86.128 30.988 85.8419C30.5676 85.7025 30.1769 85.4858 29.836 85.2029C29.4932 84.9171 29.312 84.4816 29.351 84.0369C29.635 82.1309 30.063 80.179 30.38 78.267C30.5952 76.9696 31.0646 75.7275 31.761 74.612C32.252 73.812 32.861 73.1019 33.281 72.274C34.499 69.903 34.081 67.01 33.138 64.515C32.195 62.02 30.8 59.704 30.054 57.154C29.8329 56.4444 29.7065 55.7087 29.678 54.966C29.6594 53.4167 30.2577 51.9236 31.341 50.816C31.4974 50.6379 31.6947 50.5006 31.916 50.416C32.1745 50.356 32.4439 50.3608 32.7 50.43C36.23 51.119 40.836 52.263 42.007 55.669Z" fill="#3F3D56"/>
<path d="M99.0691 21.2451C99.1373 22.1294 98.9097 23.0113 98.4221 23.7521C96.5865 26.6225 92.9686 27.7812 89.8071 26.5111C88.5898 25.9056 87.4689 25.1231 86.4811 24.1891C86.1114 23.9176 85.8098 23.564 85.6001 23.1561C85.3541 22.3641 85.6203 21.5024 86.2701 20.9871C86.9132 20.4918 87.6548 20.1396 88.4451 19.9541C91.0261 19.1521 98.4551 16.6171 99.0691 21.2451Z" fill="#FBBEBE"/>
<path d="M97.559 18.4799C100.214 20.422 103.036 22.1257 105.991 23.5709C106.961 23.9276 107.76 24.6387 108.227 25.5609C108.363 26.0961 108.384 26.6542 108.287 27.1979C108.226 28.2597 108.012 29.3072 107.652 30.3079C107.08 31.4123 106.408 32.4623 105.645 33.4449C104.451 35.2709 103.751 37.4239 102.277 39.0379C103.404 42.2985 104.22 45.6585 104.714 49.0729C104.734 49.1674 104.723 49.2657 104.684 49.3539C104.643 49.4117 104.59 49.4599 104.529 49.4949L102.054 51.1179C101.784 51.2764 101.543 51.4792 101.34 51.7179C100.902 52.2869 100.96 53.0869 100.689 53.7489C100.389 54.4025 99.8361 54.9056 99.157 55.1419C98.4807 55.3751 97.7602 55.4513 97.05 55.3649C96.146 55.308 95.2754 55.0017 94.535 54.4799C93.9312 53.9678 93.4191 53.3563 93.021 52.6719C92.6983 52.2217 92.4298 51.735 92.221 51.2219C91.9932 50.4743 91.9014 49.6919 91.95 48.9119C91.9566 47.4277 92.0985 45.9473 92.374 44.4889C92.489 43.9099 92.633 43.3389 92.724 42.7559C92.907 41.5819 92.871 40.3849 93.007 39.2049C93.1918 37.8781 93.4879 36.5691 93.892 35.2919C94.1132 34.5008 94.2859 33.697 94.409 32.8849C94.6805 31.4628 95.0685 30.0654 95.569 28.7069L96.369 26.3569C96.538 25.8499 96.709 25.3439 96.91 24.8489C97.3559 23.9568 97.6862 23.0115 97.893 22.0359C98.034 20.9599 96.872 19.6819 97.264 18.6719C97.296 18.5559 97.469 18.4079 97.559 18.4799Z" fill="#3F3D56"/>
<path d="M107.59 25.0049C108.118 25.3145 108.498 25.8251 108.642 26.4199C109.086 27.7113 109.193 29.0947 108.952 30.4389C108.874 30.7769 108.821 31.1202 108.793 31.4659C108.797 31.8665 108.836 32.2661 108.91 32.6599C109.11 34.1819 108.91 35.7279 108.976 37.2599C109.044 38.9869 109.42 40.8109 108.695 42.3809C108.14 43.3906 107.355 44.255 106.403 44.9039C103.055 47.5133 99.3612 49.6453 95.427 51.2389C96.066 50.3639 96.1584 49.204 95.666 48.2389C95.1657 47.2974 94.4065 46.5188 93.478 45.9949C94.6202 45.741 95.7264 45.346 96.771 44.8189C98.8122 43.6742 100.705 42.2831 102.407 40.6769C102.667 40.4897 102.87 40.2334 102.992 39.9369C103.171 39.3369 102.678 38.7729 102.335 38.2499C101.299 36.6579 101.535 34.5789 101.973 32.7369C102.38 30.693 103.229 28.7631 104.462 27.0829C105.234 26.0504 106.339 25.3163 107.59 25.0049Z" fill="#3F3D56"/>
<path d="M95.2541 51.294C95.0754 51.5854 94.8433 51.8406 94.5701 52.046C93.9114 52.3745 93.134 52.3611 92.4871 52.01C91.8677 51.7474 91.2963 51.3838 90.7961 50.934C90.581 50.7054 90.3271 50.5168 90.0461 50.377C89.5251 50.177 88.7971 50.327 88.5041 49.848C88.47 49.7977 88.4532 49.7377 88.4561 49.677C88.4741 49.504 88.7011 49.456 88.8761 49.446C89.6877 49.3921 90.4753 49.149 91.1761 48.736C90.9518 48.5732 90.7601 48.3697 90.6111 48.136C90.5474 48.0553 90.5123 47.9558 90.5111 47.853C90.5352 47.7419 90.5962 47.6422 90.6841 47.57C91.992 46.3357 93.9164 46.0149 95.5541 46.758C95.7113 46.8214 95.8492 46.9248 95.9541 47.058C96.0278 47.1807 96.0771 47.3165 96.0991 47.458C96.2281 48.015 96.6991 48.851 96.5271 49.414C96.1953 50.0986 95.7666 50.7318 95.2541 51.294Z" fill="#FBBEBE"/>
<path d="M81.687 48.7819C84.162 45.9229 85.268 42.1609 86.295 38.5219L87.029 35.9359L88.8 29.7069C89.061 28.7879 89.321 27.8689 89.494 26.9319C89.7532 25.3075 89.8556 23.6619 89.8 22.0179C89.7747 21.3365 89.6185 20.6663 89.34 20.0439C89.167 19.6139 89.083 19.1569 88.94 18.7129C88.7597 18.0942 88.4902 17.505 88.14 16.9639C88.0428 16.8029 87.9214 16.6579 87.78 16.5339C87.5351 16.3676 87.2577 16.2551 86.966 16.2039C86.3336 16.0146 85.6781 15.9136 85.018 15.9039C84.3501 15.8999 83.7104 16.1729 83.251 16.6579C82.9721 17.0748 82.728 17.514 82.521 17.9709C82.4017 18.1476 82.2935 18.3317 82.197 18.5219C82.0881 18.8099 82.0276 19.1141 82.018 19.4219C81.9147 20.6752 81.8264 21.9299 81.753 23.1859C81.719 23.7569 81.689 24.3319 81.711 24.9049C81.729 25.3509 81.777 25.7939 81.824 26.2379L82.296 30.5829C82.405 31.6039 82.328 32.5589 82.419 33.5829C82.5176 36.066 82.2294 38.5493 81.565 40.9439C81.3549 42.108 80.9896 43.2388 80.479 44.3059C79.988 45.2289 79.251 46.1659 79.446 47.1949C79.5574 47.5409 79.6499 47.8928 79.723 48.2489C79.7096 48.473 79.7318 48.6978 79.789 48.9149C79.956 49.2181 80.299 49.3795 80.639 49.3149C81.0344 49.2479 81.4 49.062 81.687 48.7819Z" fill="#3F3D56"/>
<path d="M81.9891 37.3409C82.0651 37.9119 82.0071 38.4909 82.0351 39.0659C82.0982 39.8064 82.2322 40.539 82.4351 41.2539C82.5378 42.0841 82.9508 42.8447 83.5911 43.3829C83.766 43.4745 83.9333 43.5802 84.0911 43.6989C84.251 43.8254 84.3159 44.0377 84.2541 44.2319L83.7071 44.1399C83.8698 44.2715 83.9448 44.4834 83.9009 44.688C83.857 44.8926 83.7018 45.0551 83.4994 45.1083C83.2971 45.1616 83.082 45.0965 82.9431 44.9399C82.9636 45.1191 82.9465 45.3007 82.8931 45.4729C82.8365 45.6474 82.6764 45.7675 82.4931 45.7729C82.3901 45.7569 82.2927 45.7161 82.2091 45.6539L80.7811 44.7689C80.3529 44.5385 79.9967 44.1942 79.7521 43.7739L79.1271 42.8329C78.9892 42.6506 78.8799 42.4483 78.8031 42.2329C78.5701 41.4329 79.2211 40.5539 78.8831 39.8039C78.7815 39.6192 78.6623 39.4447 78.5271 39.2829C77.9233 38.193 77.7116 36.9291 77.9271 35.7019C77.9531 35.2859 78.0271 34.7929 78.4041 34.6119C78.7228 34.5031 79.075 34.5654 79.3371 34.7769C79.5927 34.9868 79.8735 35.1638 80.1731 35.3039C80.3731 35.3719 80.5911 35.3799 80.7901 35.4509C81.0691 35.5509 81.3271 35.9279 81.5141 36.1509C81.7805 36.4954 81.9451 36.9077 81.9891 37.3409Z" fill="#FBBEBE"/>
<path d="M64.555 19.461C64.3861 19.8487 64.149 20.203 63.855 20.507C63.5557 20.816 63.1274 20.9644 62.701 20.907C62.269 20.7658 61.8966 20.4842 61.643 20.107C60.8402 19.2418 60.1509 18.2777 59.592 17.238C58.9149 15.5685 58.5675 13.7836 58.569 11.982C58.4356 11.4597 58.5342 10.9052 58.8397 10.461C59.1451 10.0169 59.6276 9.72629 60.163 9.664L63.197 8.53C63.384 8.44154 63.5909 8.40394 63.797 8.421C64.273 8.501 64.448 9.074 64.577 9.537C64.8085 10.3701 65.193 11.1527 65.711 11.845C66.391 12.752 67.917 13.974 67.046 15.106C66.0719 16.4706 65.2374 17.9296 64.555 19.461Z" fill="#BE6F72"/>
<path d="M68.4371 14.2841C69.6944 15.6368 70.3185 17.4596 70.1541 19.2991C69.98 21.1131 69.6938 22.9145 69.2971 24.6931C68.9015 26.487 69.0534 28.3584 69.7331 30.0651C70.046 30.609 70.3206 31.174 70.555 31.7561C70.7119 32.3478 70.765 32.9622 70.7121 33.5721C70.7088 34.2151 70.5861 34.8519 70.3501 35.4501C69.8433 36.3526 69.1094 37.1069 68.2211 37.6381C66.5848 38.957 64.7514 40.0105 62.7881 40.7601C61.4219 41.1577 60.0104 41.3785 58.5881 41.4171C57.6289 41.4934 56.6643 41.4659 55.7111 41.3351C54.0436 41.0571 52.5113 40.2459 51.3441 39.0231C51.1391 38.8265 50.9699 38.5957 50.8441 38.3411C50.7225 38.0099 50.6638 37.6588 50.6711 37.3061C50.6231 35.9994 50.6311 34.6931 50.6951 33.3871C50.7314 32.1419 50.9028 30.9043 51.2061 29.6961C51.5861 28.3031 52.2451 26.9961 52.7441 25.6411C54.4831 20.9241 54.3081 15.5561 56.7231 11.1511C57.2441 10.2001 58.1161 9.19909 59.1901 9.35109C59.3967 9.36367 59.5912 9.45322 59.7351 9.60209C59.8589 9.78312 59.9283 9.99584 59.9351 10.2151C60.096 12.3858 60.6478 14.5096 61.5641 16.4841C61.9641 17.2421 62.5591 18.3961 63.4761 18.5991C64.3931 18.8021 64.9341 17.9271 65.4261 17.3061C66.2895 16.1678 67.3027 15.1513 68.4381 14.2841H68.4371Z" fill="#E3E8F4"/>
<path d="M74.7971 11.063C75.0681 11.2095 75.3211 11.387 75.5511 11.592C76.1169 12.2001 76.4102 13.0127 76.3631 13.842C76.3128 14.6613 76.2048 15.4759 76.0401 16.28C75.8431 18.4921 75.8699 20.7184 76.1201 22.925C76.1587 23.2828 76.1371 23.6444 76.0561 23.995C75.9561 24.329 75.7561 24.624 75.6281 24.948C75.2481 25.907 75.5351 27.001 75.3121 28.008C75.0731 29.08 74.2561 30.055 74.4121 31.143C74.4741 31.569 74.6791 31.961 74.7661 32.382C74.8935 32.8037 74.7546 33.2606 74.4141 33.54C74.0501 33.767 73.5211 33.602 73.0871 33.727C72.911 33.7922 72.7396 33.8693 72.5741 33.958C71.8794 34.232 71.099 34.184 70.4431 33.827C69.7957 33.4737 69.2136 33.012 68.7221 32.462C67.9176 31.7282 67.2934 30.8186 66.8981 29.804C66.55 28.2567 66.7164 26.6381 67.3721 25.194C68.0274 23.7596 68.3885 22.2084 68.4341 20.632C68.3247 19.7553 68.1577 18.8868 67.9341 18.032C67.7271 16.8301 67.653 15.6091 67.7131 14.391C67.6872 13.4959 67.8472 12.6051 68.1831 11.775C68.7388 10.6823 69.8123 9.94756 71.0321 9.82499C72.3878 9.82047 73.7086 10.2548 74.7971 11.063Z" fill="#3F3D56"/>
<path opacity="0.1" d="M71.0351 30.293C71.049 30.9295 71.1631 31.5599 71.3731 32.161C71.6763 31.326 71.8274 30.4433 71.8191 29.555C72.0889 26.5617 72.6216 23.5979 73.4111 20.698C72.9121 21.2741 72.5474 21.9538 72.3431 22.688C71.3481 25.0945 70.9013 27.6923 71.0351 30.293Z" fill="black"/>
<path d="M57.624 9.09688C56.6938 9.43895 55.7855 9.8377 54.904 10.2909C53.921 10.6386 52.9127 10.91 51.888 11.1029C49.4929 11.5405 47.3287 12.8085 45.776 14.6839C44.8766 16.2162 44.1432 17.8401 43.588 19.5279C42.9021 20.8497 42.2904 22.2088 41.756 23.5989C41.2751 25.4873 41.1503 27.4488 41.388 29.3829C41.4138 30.9725 41.7583 32.5408 42.401 33.9949C42.779 34.7349 43.301 35.3949 43.678 36.1379C44.132 37.0269 44.37 38.0079 44.748 38.9229C45.0731 39.8747 45.7111 40.6883 46.558 41.2309L48.01 40.3809C50.177 39.1139 52.343 37.8439 54.442 36.4679C56.365 35.3967 57.9698 33.835 59.093 31.9419C59.8764 30.1571 60.1285 28.1843 59.819 26.2599C59.596 24.3359 59.087 22.4539 58.824 20.5359C58.4894 18.1219 58.5397 15.6701 58.973 13.2719C59.173 12.1899 59.701 11.0719 59.811 9.99288C59.933 8.83988 58.453 8.87788 57.624 9.09688Z" fill="#3F3D56"/>
<path d="M48.6451 40.724C49.7571 41.776 51.3571 42.083 52.7451 42.714C53.7785 43.1939 54.7091 43.8697 55.4851 44.704C55.9832 45.1198 56.2221 45.7695 56.1121 46.409C55.8567 46.8964 55.4025 47.2492 54.8671 47.376C54.257 47.6806 53.5575 47.7548 52.8971 47.585C52.5438 47.4053 52.2063 47.1963 51.8881 46.96C51.0541 46.46 50.0041 46.46 49.1481 46.005C47.9421 45.36 47.3421 43.942 46.2071 43.176C45.5861 42.758 44.7291 42.416 44.665 41.67C44.6621 41.4002 44.7192 41.1331 44.8321 40.888C45.0611 40.279 45.4511 38.188 46.3221 38.244C47.2741 38.305 47.9381 40.221 48.6451 40.724Z" fill="#FBBEBE"/>
<path d="M42.817 31.399C43.2565 32.6898 43.9683 33.8711 44.904 34.863C45.6251 35.5324 46.099 36.4256 46.249 37.398C46.2129 38.3393 45.6836 39.1919 44.856 39.642C44.0371 40.0744 43.128 40.3081 42.202 40.324C41.4653 40.395 40.7219 40.3433 40.002 40.171C38.184 39.678 36.922 38.092 35.492 36.871C34.5853 36.2167 33.761 35.4552 33.037 34.603C32.3101 33.716 32.1976 32.4753 32.753 31.472C32.9852 31.1729 33.254 30.9042 33.553 30.672C34.6397 29.7299 35.5664 28.6178 36.297 27.379C36.5392 26.8509 36.9073 26.3904 37.369 26.038C38.1421 25.7084 39.0145 25.6998 39.794 26.014C40.667 26.243 43.128 26.69 43.3 27.805C43.37 28.263 42.8 28.975 42.717 29.466C42.6065 30.1097 42.6406 30.77 42.817 31.399Z" fill="#FBBEBE"/>
<path d="M47.3181 33.894C47.5788 34.3662 47.7935 34.8625 47.9591 35.376C48.5661 37.485 47.4821 39.657 46.9641 41.79C46.3031 44.522 46.5841 47.379 46.5521 50.19C46.6798 51.4819 46.2932 52.7721 45.4761 53.781C45.2142 53.9792 44.983 54.2151 44.7901 54.481C44.6904 54.691 44.6162 54.9123 44.5691 55.14C44.2828 56.1358 43.5574 56.9463 42.5994 57.3408C41.6413 57.7353 40.5555 57.6705 39.6511 57.165C38.8971 56.745 38.2421 56.017 37.3791 55.995C37.1075 56.0082 36.8369 56.0383 36.5691 56.085C35.7023 56.1014 34.8438 55.9147 34.0621 55.54C33.8698 55.479 33.6904 55.3831 33.5331 55.257C33.3881 55.124 33.2941 54.945 33.1611 54.801C32.6701 54.272 31.8301 54.363 31.1221 54.216C30.043 53.9746 29.2004 53.132 28.9591 52.053C28.8612 51.3585 28.8951 50.6518 29.0591 49.97L29.5921 46.894C29.816 45.7658 29.9709 44.625 30.0561 43.478C30.1215 42.1816 30.0105 40.8824 29.7261 39.616C29.4357 38.5955 29.1981 37.5608 29.0141 36.516C28.7923 34.6261 29.2895 32.722 30.4071 31.182C30.6439 30.7681 31.0477 30.4766 31.5151 30.382C31.8994 30.3904 32.2718 30.5175 32.5811 30.746C35.4477 32.444 38.3364 34.1066 41.2471 35.734C42.0266 36.2167 42.8675 36.5928 43.7471 36.852C44.0141 36.92 44.3961 36.892 44.4331 36.621C44.4378 36.5179 44.4106 36.4159 44.3551 36.329C43.8551 35.372 43.1371 34.55 42.5641 33.639C41.9275 32.7564 41.6274 31.6753 41.7181 30.591C41.9491 29.127 43.3101 28.158 44.4181 29.306C45.6011 30.6873 46.5779 32.2327 47.3181 33.894Z" fill="#F86D70"/>
<path d="M38.407 52.4629C40.7506 52.4836 43.0749 52.889 45.287 53.6629C45.94 54.0436 46.6954 54.2111 47.448 54.1419C47.8115 54.0314 48.1497 53.8503 48.443 53.6089C49.3427 52.9492 50.1927 52.2243 50.986 51.4399C50.906 51.0039 50.316 50.9399 49.874 50.9489C48.7957 50.9561 47.7317 50.7007 46.774 50.2049C46.4596 50.0157 46.1261 49.8602 45.779 49.7409C44.834 49.4799 43.871 49.9779 42.922 50.2199C41.4923 50.4837 40.0246 50.4626 38.603 50.1579L34.731 49.5869C34.3772 49.4885 33.9987 49.5349 33.679 49.7159C33.4876 49.8968 33.3564 50.132 33.303 50.3899C32.829 51.9819 33.056 52.1149 34.632 52.2139L38.407 52.4629Z" fill="#FBBEBE"/>
<path opacity="0.1" d="M91.2721 24.8389C94.7879 24.8389 97.6381 21.9888 97.6381 18.4729C97.6381 14.9571 94.7879 12.1069 91.2721 12.1069C87.7562 12.1069 84.9061 14.9571 84.9061 18.4729C84.9061 21.9888 87.7562 24.8389 91.2721 24.8389Z" fill="black"/>
<path d="M91.2261 24.5631C94.7419 24.5631 97.592 21.7129 97.592 18.1971C97.592 14.6812 94.7419 11.8311 91.2261 11.8311C87.7102 11.8311 84.86 14.6812 84.86 18.1971C84.86 21.7129 87.7102 24.5631 91.2261 24.5631Z" fill="#FBBEBE"/>
<path d="M96.6 10.1139C97.1373 10.3839 97.5932 10.7918 97.921 11.2959C98.0707 11.6551 98.1846 12.0282 98.261 12.4099C98.609 13.6039 99.536 14.6399 99.592 15.8839C99.5129 17.2694 98.7069 18.5097 97.473 19.1449C97.2088 19.3394 96.8902 19.4464 96.562 19.4509C96.2315 19.3829 95.9152 19.2584 95.627 19.0829C94.32 18.5019 92.858 19.2379 91.473 19.5759C90.0341 19.9232 88.5243 19.8344 87.136 19.3209C86.3725 19.0726 85.6986 18.6056 85.198 17.9779C84.695 17.3365 84.603 16.4641 84.961 15.7319C85.161 15.3779 85.49 15.0579 85.468 14.6539C85.4167 14.4164 85.3499 14.1826 85.268 13.9539C85.2479 13.5669 85.3679 13.1855 85.606 12.8799C86.5269 11.3983 87.6905 10.0823 89.048 8.98685C89.4249 8.62317 89.908 8.38917 90.427 8.31885C91.474 8.27285 92.373 9.05285 93.449 9.05685C94.5815 9.08549 95.6793 9.45374 96.6 10.1139Z" fill="#3F3D56"/>
<path opacity="0.1" d="M67.79 16.8509C71.4158 16.8509 74.355 13.9117 74.355 10.2859C74.355 6.6602 71.4158 3.72095 67.79 3.72095C64.1643 3.72095 61.225 6.6602 61.225 10.2859C61.225 13.9117 64.1643 16.8509 67.79 16.8509Z" fill="black"/>
<path d="M67.905 16.6901C71.5308 16.6901 74.47 13.7508 74.47 10.1251C74.47 6.49931 71.5308 3.56006 67.905 3.56006C64.2793 3.56006 61.34 6.49931 61.34 10.1251C61.34 13.7508 64.2793 16.6901 67.905 16.6901Z" fill="#BE6F72"/>
<path d="M71.412 13.834C72.3845 14.2878 73.4896 14.3693 74.518 14.063C75.1046 13.9528 75.6607 13.7182 76.149 13.375C76.6406 13.0238 76.9436 12.4664 76.971 11.863C76.971 11.197 76.533 10.596 76.48 9.92897C76.414 9.08897 76.961 8.31397 77.019 7.46997C76.9968 6.63607 76.7313 5.82686 76.255 5.14197C75.6209 3.86215 74.7807 2.69526 73.768 1.68797C72.7308 0.673674 71.2723 0.214264 69.841 0.450974C69.1816 0.692013 68.508 0.892389 67.824 1.05097C67.2009 1.0494 66.5798 0.979314 65.972 0.841974C65.356 0.70824 64.7124 0.85476 64.215 1.24197C63.972 1.48097 63.815 1.81697 63.533 1.99197C63.3391 2.08117 63.1385 2.15506 62.933 2.21297C62.2614 2.61092 61.7893 3.27413 61.633 4.03897L59.926 8.93097C60.5307 9.27337 61.1605 9.56922 61.81 9.81597C62.4678 10.0722 62.9697 10.6188 63.169 11.296C63.269 11.815 63.081 12.412 63.384 12.846C63.7165 13.2107 64.2219 13.3642 64.701 13.246C65.1688 13.1235 65.6518 13.07 66.135 13.087C67.329 13.268 67.772 14 68.877 13.087C69.982 12.174 70.386 13.257 71.412 13.834Z" fill="#3F3D56"/>
<path opacity="0.1" d="M40.0051 30.9009C43.3017 30.9009 45.9741 28.2285 45.9741 24.9319C45.9741 21.6353 43.3017 18.9629 40.0051 18.9629C36.7085 18.9629 34.0361 21.6353 34.0361 24.9319C34.0361 28.2285 36.7085 30.9009 40.0051 30.9009Z" fill="black"/>
<path d="M40.236 30.5769C43.5326 30.5769 46.205 27.9045 46.205 24.6079C46.205 21.3113 43.5326 18.6389 40.236 18.6389C36.9394 18.6389 34.267 21.3113 34.267 24.6079C34.267 27.9045 36.9394 30.5769 40.236 30.5769Z" fill="#FBBEBE"/>
<path d="M44.805 18.7721C43.3841 17.6819 41.7875 16.8421 40.084 16.2891C39.0093 15.8621 37.8311 15.7677 36.702 16.0181C35.202 16.4461 33.195 17.0841 32.265 18.3401C31.7719 18.9322 31.3855 19.6056 31.123 20.3301C30.681 21.8141 31.31 23.3961 31.268 24.9441C31.082 26.751 30.3688 28.4634 29.217 29.8681C28.173 31.3401 27.962 33.4491 27.345 35.1481C27.134 35.7311 27.066 36.5411 27.61 36.8331C28.087 37.0981 28.664 36.7671 29.11 36.4491L31.766 34.5291C32.0773 34.2371 32.4966 34.0887 32.9222 34.1201C33.3479 34.1514 33.7409 34.3596 34.006 34.6941L39.571 38.6331C39.7939 38.1781 39.8034 37.6477 39.597 37.1851C40.0931 37.4194 40.5523 37.7249 40.96 38.0921C41.3927 38.4595 42.0304 38.4501 42.452 38.0701C42.7162 37.6068 42.5915 37.0192 42.162 36.7031C41.79 36.3531 41.301 36.1441 40.936 35.7841C40.214 35.0661 40.136 33.9321 39.685 33.0251C39.2796 32.4361 38.9173 31.8184 38.601 31.1771C38.3745 30.0189 38.5885 28.8178 39.201 27.8091C39.6428 26.4813 40.5018 25.3319 41.65 24.5321C42.062 24.3091 42.517 24.1781 42.939 23.9751C44.1455 23.3568 45.1449 22.3991 45.814 21.2201C46.262 20.2741 45.571 19.3611 44.805 18.7721Z" fill="#3F3D56"/>
<path opacity="0.1" d="M35.771 38.496C36.342 38.86 36.987 39.096 37.548 39.473C38.1427 39.8173 38.5389 40.4231 38.616 41.106C38.5534 41.7558 38.2712 42.365 37.816 42.833L32.97 49.193L35.441 49.848C35.1077 50.4383 34.8694 51.0775 34.735 51.742C34.5921 52.4165 34.1198 52.974 33.478 53.226C32.878 53.379 32.256 53.065 31.64 53.101C31.184 53.129 30.755 53.344 30.299 53.362C29.7081 53.331 29.1416 53.1167 28.678 52.749C27.588 52.019 26.505 50.972 26.513 49.659C26.5391 49.2152 26.6283 48.7775 26.778 48.359C27.3557 45.9854 28.3494 43.7329 29.713 41.706C30.5385 40.6975 31.4565 39.7684 32.455 38.931C32.6763 38.7083 32.9366 38.5283 33.223 38.4C33.8958 38.2697 34.5925 38.3561 35.213 38.647C35.872 38.838 36.701 38.866 37.081 38.303" fill="black"/>
<path d="M35.562 38.104C36.133 38.466 36.778 38.704 37.339 39.081C37.9331 39.4253 38.3297 40.0299 38.409 40.712C38.3527 41.3641 38.0696 41.9758 37.609 42.441L32.761 48.796L35.232 49.451C34.8984 50.0411 34.6601 50.6804 34.526 51.345C34.3836 52.0197 33.9112 52.5775 33.269 52.8289C32.669 52.9819 32.047 52.6679 31.431 52.7039C30.975 52.7299 30.546 52.947 30.09 52.963C29.4992 52.932 28.9326 52.7177 28.469 52.3499C27.379 51.6219 26.296 50.573 26.306 49.262C26.3301 48.8181 26.4187 48.3802 26.569 47.962C27.1459 45.5881 28.1397 43.3354 29.504 41.309C30.3314 40.2991 31.2492 39.3669 32.246 38.524C32.4683 38.3026 32.7284 38.1227 33.014 37.993C33.687 37.8623 34.384 37.9496 35.004 38.242C35.663 38.435 36.492 38.4609 36.872 37.8979" fill="#F86D70"/>
<g opacity="0.1">
<path d="M85.405 16.6601C85.9056 17.2879 86.5795 17.7549 87.343 18.0031C88.7309 18.5187 90.2413 18.6075 91.68 18.2581C93.073 17.9201 94.527 17.1841 95.834 17.7651C96.1214 17.9413 96.437 18.0665 96.767 18.1351C97.0959 18.1292 97.4148 18.0216 97.68 17.8271C98.5101 17.3453 99.1731 16.6213 99.58 15.7521C99.5782 15.7968 99.5823 15.8415 99.592 15.8851C99.5129 17.2706 98.7069 18.511 97.473 19.1461C97.2087 19.3407 96.8902 19.4477 96.562 19.4521C96.2315 19.3842 95.9152 19.2597 95.627 19.0841C94.32 18.5031 92.858 19.2391 91.473 19.5771C90.0341 19.9245 88.5243 19.8357 87.136 19.3221C86.3725 19.0739 85.6986 18.6069 85.198 17.9791C84.695 17.3378 84.603 16.4653 84.961 15.7331L84.991 15.6831C85.0555 16.0353 85.1969 16.3688 85.405 16.6601Z" fill="black"/>
<path d="M85.67 13.3351C85.6478 13.6402 85.5263 13.9296 85.324 14.1591C85.2992 14.0941 85.2798 14.0273 85.266 13.9591C85.2425 13.5959 85.3488 13.2361 85.566 12.9441C85.6206 13.0683 85.6556 13.2002 85.67 13.3351Z" fill="black"/>
</g>
<path opacity="0.1" d="M62.1 3.38503L60.3931 8.27503C60.9973 8.61822 61.6271 8.9141 62.2771 9.16003C62.9352 9.41575 63.4373 9.96254 63.6361 10.64C63.7361 11.159 63.5481 11.756 63.8511 12.192C64.184 12.5559 64.6889 12.7093 65.1681 12.592C65.636 12.4706 66.1189 12.417 66.6021 12.433C67.7961 12.614 68.239 13.346 69.344 12.443C70.449 11.54 70.844 12.612 71.875 13.189C72.847 13.6448 73.9528 13.7263 74.981 13.418C75.5675 13.3084 76.1236 13.0745 76.6121 12.732C76.6819 12.6753 76.7486 12.6149 76.812 12.551C76.6599 12.8772 76.4306 13.1614 76.1441 13.379C75.6558 13.7222 75.0996 13.9568 74.513 14.067C73.4846 14.3737 72.3794 14.2922 71.4071 13.838C70.3801 13.261 69.9591 12.209 68.8761 13.092C67.7931 13.975 67.324 13.263 66.134 13.092C65.6509 13.0751 65.1678 13.1287 64.7001 13.251C64.2209 13.3694 63.7154 13.2159 63.383 12.851C63.083 12.417 63.266 11.82 63.168 11.301C62.9693 10.6235 62.4672 10.0767 61.809 9.82103C61.1595 9.57426 60.5297 9.27841 59.925 8.93603L61.64 4.03603C61.7994 3.48069 62.0778 2.96676 62.4561 2.53003C62.3177 2.80645 62.1988 3.09214 62.1 3.38503Z" fill="black"/>
<g opacity="0.1">
<path d="M40.0401 37.3999C40.4471 37.6495 40.9716 37.5905 41.3131 37.2569C41.5622 36.7914 41.4397 36.2141 41.0231 35.8899C40.6511 35.5379 40.1621 35.3309 39.7981 34.9709C39.0761 34.2549 38.9981 33.1209 38.5471 32.2139C38.142 31.6239 37.7798 31.0056 37.4631 30.3639C37.2366 29.2063 37.4506 28.0059 38.0631 26.9979C38.5048 25.6701 39.3639 24.5207 40.5121 23.7209C40.9241 23.4979 41.3791 23.3669 41.8011 23.1639C43.0077 22.5448 44.007 21.5865 44.6761 20.4069C45.1081 19.5069 44.4991 18.6379 43.7761 18.0469C44.1281 18.2759 44.4761 18.5169 44.8071 18.7729C45.5731 19.3729 46.2631 20.2729 45.8021 21.2159C45.1329 22.3949 44.1336 23.3526 42.9271 23.9709C42.5051 24.1709 42.0501 24.3049 41.6381 24.5279C40.4899 25.3277 39.6308 26.4771 39.1891 27.8049C38.5747 28.8129 38.3606 30.0147 38.5891 31.1729C38.9053 31.8142 39.2676 32.4319 39.6731 33.0209C40.1351 33.9279 40.2021 35.0619 40.9241 35.7799C41.2881 36.1399 41.7771 36.3469 42.1501 36.6989C42.5649 37.0243 42.6871 37.6001 42.4401 38.0659C42.1341 38.4719 41.4051 38.3879 40.9481 38.0879C40.6401 37.8789 40.3591 37.6059 40.0401 37.3999Z" fill="black"/>
<path d="M27.9771 35.6348L30.6331 33.7168C30.9436 33.4233 31.3633 33.274 31.7895 33.3054C32.2156 33.3368 32.6089 33.546 32.8731 33.8818L38.4441 37.8208C38.667 37.3651 38.6765 36.8341 38.4701 36.3708C38.9526 36.5997 39.3995 36.8971 39.7971 37.2538C39.7323 37.2243 39.6654 37.1996 39.5971 37.1798C39.8035 37.6424 39.7939 38.1728 39.5711 38.6278L34.0001 34.6888C33.735 34.3543 33.3419 34.1461 32.9163 34.1148C32.4906 34.0834 32.0713 34.2317 31.7601 34.5238L29.1041 36.4438C28.6621 36.7618 28.0851 37.0928 27.6041 36.8278C27.3381 36.6645 27.1795 36.3717 27.1881 36.0598C27.4716 35.9601 27.7378 35.8167 27.9771 35.6348Z" fill="black"/>
</g>
<path d="M94.3321 48.629C94.3321 48.629 82.9321 49.542 80.6641 47.929L91.0931 46.321L94.3321 48.629Z" fill="#E3E8F4"/>
<path opacity="0.1" d="M94.3321 48.629C94.3321 48.629 82.9321 49.542 80.6641 47.929L91.0931 46.321L94.3321 48.629Z" fill="black"/>
<path d="M94.332 48.628L91.1391 46.607C91.1391 46.607 81.6131 49.345 79.0031 48.215L81.659 44.489L91.097 46.329L94.332 48.628Z" fill="#E3E8F4"/>
<path d="M80.1671 21.826C79.8149 22.2707 79.5323 22.7663 79.329 23.296C79.237 23.577 79.1921 23.869 79.1141 24.153C78.8957 24.8616 78.5593 25.5283 78.119 26.125C77.138 27.551 75.913 28.925 75.666 30.641C75.5825 31.4927 75.643 32.3524 75.845 33.184C75.9357 33.7364 76.0935 34.2758 76.315 34.79C76.568 35.335 76.944 35.8149 77.232 36.3419C77.4954 36.8596 77.7175 37.3973 77.896 37.95C78.2034 37.5777 78.4758 37.178 78.7101 36.756C78.9527 36.3321 79.3828 36.0491 79.8681 35.9939C80.4211 35.9939 80.877 36.452 81.424 36.5229C81.5096 36.5402 81.5982 36.5318 81.679 36.499C81.879 36.405 81.8941 36.137 81.8791 35.922C81.7221 34.422 80.8621 32.938 81.2681 31.481C81.6421 30.134 82.9791 29.293 83.6811 28.081C84.1357 27.1695 84.4075 26.1779 84.481 25.162C84.6912 23.9643 84.7799 22.7485 84.746 21.533C84.708 20.922 84.2231 17.063 83.3351 17.466C83.0271 17.605 82.758 18.196 82.565 18.461L81.7651 19.589L80.1671 21.826Z" fill="#3F3D56"/>
<path d="M56.3541 46.7251L49.9541 51.9361L41.7191 50.4641L47.2641 46.1111L56.3541 46.7251Z" fill="#E3E8F4"/>
<path opacity="0.1" d="M56.5851 46.4009L50.1851 51.6119L41.9501 50.1399L47.4951 45.7869L56.5851 46.4009Z" fill="black"/>
<path d="M56.542 46.1241L50.142 51.3331L41.905 49.8631L47.452 45.5081L56.542 46.1241Z" fill="#E3E8F4"/>
<path opacity="0.1" d="M56.724 45.5159L50.3241 50.7269L42.0891 49.2549L47.6361 44.9019L56.724 45.5159Z" fill="black"/>
<path d="M56.6771 45.2449L50.2771 50.4559L42.0421 48.9839L47.5821 44.6299L56.6771 45.2449Z" fill="#E3E8F4"/>
<path d="M140.867 116.439C141.174 116.29 141.534 116.302 141.829 116.472C142.125 116.641 142.318 116.945 142.345 117.285L142.701 121.903L140.588 122.285L139.474 118.946L140.867 116.439Z" fill="#3F3D56"/>
<path d="M66.9471 85.488L34.6111 101.897C33.8546 102.283 33.3798 103.061 33.3831 103.91C33.3865 104.759 33.8676 105.534 34.6271 105.914L104.27 140.864C106.786 142.124 109.764 142.049 112.214 140.664L141.547 124.123C142.272 123.709 142.709 122.928 142.681 122.093C142.653 121.259 142.165 120.508 141.414 120.144L68.9341 85.466C68.3042 85.1646 67.5701 85.1727 66.9471 85.488Z" fill="#3F3D56"/>
<path d="M34.3941 99.043L33.3811 99.795L33.3007 103.395C33.2889 103.968 33.604 104.497 34.1131 104.76L104.946 141.108C105.273 141.277 105.664 141.263 105.978 141.072C106.293 140.88 106.484 140.539 106.484 140.171V134.941L34.3941 99.043Z" fill="#3F3D56"/>
<path d="M66.9461 81.314L34.6101 97.721C33.8531 98.1056 33.3771 98.8835 33.3792 99.7326C33.3813 100.582 33.8612 101.357 34.6201 101.738L104.269 136.688C106.786 137.947 109.763 137.872 112.213 136.488L141.546 119.944C142.271 119.53 142.708 118.749 142.68 117.914C142.652 117.08 142.164 116.329 141.413 115.965L68.9331 81.288C68.3029 80.9873 67.5688 80.9961 66.9461 81.312V81.314Z" fill="#E3E8F4"/>
<path d="M73.639 84.293L38.011 102.384L99.246 133.003L135.988 114.353L73.639 84.293Z" fill="#3F3D56"/>
<path d="M121.654 127.435C123.73 127.435 125.412 126.438 125.412 125.209C125.412 123.98 123.73 122.983 121.654 122.983C119.579 122.983 117.896 123.98 117.896 125.209C117.896 126.438 119.579 127.435 121.654 127.435Z" fill="#3F3D56"/>
<path d="M53.111 91.0679C53.6633 91.0679 54.111 90.6202 54.111 90.0679C54.111 89.5156 53.6633 89.0679 53.111 89.0679C52.5587 89.0679 52.111 89.5156 52.111 90.0679C52.111 90.6202 52.5587 91.0679 53.111 91.0679Z" fill="#3F3D56"/>
<path d="M52.069 93.782C52.6213 93.782 53.069 93.3343 53.069 92.782C53.069 92.2297 52.6213 91.782 52.069 91.782C51.5167 91.782 51.069 92.2297 51.069 92.782C51.069 93.3343 51.5167 93.782 52.069 93.782Z" fill="#3F3D56"/>
<path d="M53.5991 92.0859L57.7751 90.1379" stroke="#3F3D56"/>
<path d="M90.5926 101.143L78.8043 107.949C77.0915 108.937 76.5047 111.127 77.4936 112.84C78.4824 114.553 80.6725 115.14 82.3853 114.151L94.1736 107.345C95.8864 106.356 96.4732 104.166 95.4844 102.453C94.4955 100.74 92.3054 100.154 90.5926 101.143Z" class="process-step-image__accent-element-2" fill="#FFD0DC"/>
<path d="M101.137 106.515L89.3483 113.321C87.6355 114.309 87.0487 116.5 88.0376 118.212C89.0264 119.925 91.2165 120.512 92.9293 119.523L104.718 112.717C106.43 111.728 107.017 109.538 106.028 107.825C105.04 106.113 102.849 105.526 101.137 106.515Z" class="process-step-image__accent-element-2" fill="#FFD0DC"/>
<path d="M81.0427 94.9755L69.2543 101.782C67.5415 102.77 66.9547 104.96 67.9436 106.673C68.9324 108.386 71.1225 108.973 72.8353 107.984L84.6236 101.178C86.3364 100.189 86.9233 97.999 85.9344 96.2863C84.9455 94.5735 82.7554 93.9867 81.0427 94.9755Z" class="process-step-image__accent-element-2" fill="#FFD0DC"/>
</svg>
