<svg width="515" height="322" viewBox="0 0 515 322" fill="none" xmlns="http://www.w3.org/2000/svg">
<path d="M507.663 129.989C488.795 55.7888 423.598 2.23585 347.072 0.0888523C306.615 -1.04715 264.042 12.3709 233.047 59.3249C177.639 143.26 236.447 201.262 277.455 228.825C297.264 242.167 315.114 258.21 330.486 276.489C358.186 309.355 411.464 350.196 474.919 286.205C520.911 239.822 520.231 179.414 507.663 129.989Z" fill="#F2F2F2"/>
<path d="M71.601 186.24C71.093 185.487 70.593 184.714 70.115 183.94L70.886 183.463C71.357 184.225 71.85 184.988 72.352 185.73L71.601 186.24Z" fill="#3F3D56"/>
<path d="M67.383 179.084C66.542 177.434 65.761 175.729 65.06 174.017L65.899 173.674C66.59 175.363 67.361 177.045 68.191 178.674L67.383 179.084ZM63.166 168.775C62.61 167.01 62.121 165.2 61.713 163.394L62.597 163.194C62.997 164.975 63.482 166.761 64.031 168.502L63.166 168.775ZM60.71 157.912C60.453 156.083 60.269 154.212 60.162 152.367L61.067 152.315C61.167 154.141 61.354 155.981 61.607 157.786L60.71 157.912ZM60.974 146.812L60.068 146.791C60.112 144.938 60.232 143.067 60.426 141.231L61.326 141.331C61.136 143.142 61.017 144.987 60.974 146.819V146.812ZM62.129 135.888L61.238 135.719C61.583 133.901 62.009 132.075 62.503 130.293L63.377 130.535C62.889 132.297 62.469 134.098 62.128 135.892L62.129 135.888ZM65.065 125.303L64.215 124.989C64.856 123.253 65.578 121.521 66.361 119.842L67.183 120.225C66.41 121.881 65.698 123.589 65.065 125.302V125.303ZM189.219 122.503C188.51 120.822 187.719 119.149 186.875 117.53L187.675 117.11C188.533 118.751 189.333 120.447 190.051 122.15L189.219 122.503ZM69.712 115.344L68.925 114.894C69.843 113.288 70.84 111.7 71.889 110.172L72.636 110.685C71.597 112.194 70.618 113.761 69.712 115.345V115.344ZM184.128 112.768C183.152 111.226 182.099 109.705 180.999 108.248L181.723 107.702C182.838 109.179 183.905 110.721 184.894 112.284L184.128 112.768ZM75.928 106.284L75.228 105.711C76.397 104.276 77.64 102.872 78.928 101.539L79.581 102.167C78.313 103.484 77.086 104.869 75.932 106.285L75.928 106.284ZM177.505 103.999C176.289 102.636 175.005 101.307 173.679 100.049L174.304 99.3919C175.645 100.667 176.949 102.014 178.182 103.392L177.505 103.999ZM83.544 98.3629L82.944 97.6839C84.331 96.4599 85.786 95.2779 87.269 94.1709L87.811 94.8969C86.352 95.9889 84.916 97.1549 83.548 98.3629H83.544ZM169.544 96.4259C168.122 95.2799 166.635 94.1789 165.124 93.1539L165.633 92.4039C167.164 93.4429 168.671 94.5589 170.112 95.7209L169.544 96.4259ZM92.344 91.7919L91.863 91.0239C93.433 90.0419 95.063 89.1149 96.704 88.2669L97.12 89.0729C95.507 89.9089 93.897 90.8239 92.352 91.7929L92.344 91.7919ZM160.444 90.2549C158.851 89.3549 157.204 88.5139 155.544 87.7549L155.923 86.9309C157.602 87.7039 159.272 88.5569 160.887 89.4679L160.444 90.2549ZM102.101 86.7549L101.753 85.9179C103.461 85.2079 105.22 84.5619 106.98 83.9969L107.257 84.8599C105.53 85.4189 103.797 86.0569 102.11 86.7569L102.101 86.7549ZM150.46 85.6609C148.744 85.0379 146.98 84.4799 145.217 84.0009L145.455 83.1259C147.242 83.6109 149.03 84.1769 150.769 84.8089L150.46 85.6609ZM112.56 83.3969L112.36 82.5139C114.16 82.0969 116.003 81.7489 117.835 81.4809L117.966 82.3809C116.159 82.6449 114.341 82.9869 112.565 83.3989L112.56 83.3969ZM139.86 82.7809C138.068 82.4509 136.237 82.1909 134.416 82.0089L134.506 81.1089C136.351 81.2939 138.206 81.5569 140.023 81.8919L139.86 82.7809ZM123.43 81.8079L123.373 80.9079C125.217 80.7919 127.097 80.7499 128.944 80.7839L128.928 81.6909C127.108 81.6539 125.254 81.6959 123.434 81.8109L123.43 81.8079Z" fill="#3F3D56"/>
<path d="M191.948 130.305C191.705 129.442 191.441 128.573 191.164 127.72L192.026 127.439C192.308 128.303 192.575 129.185 192.826 130.059L191.948 130.305Z" fill="#3F3D56"/>
<path d="M186.42 79.5368H185.513C185.513 78.6298 185.529 77.7088 185.561 76.8008L186.467 76.8319C186.436 77.7299 186.42 78.6398 186.42 79.5368Z" fill="#3F3D56"/>
<path d="M186.852 71.3819L185.952 71.2819C186.146 69.4559 186.409 67.6159 186.733 65.8109L187.625 65.9709C187.303 67.7589 187.044 69.5779 186.852 71.3819ZM188.782 60.6389L187.904 60.4149C188.358 58.6359 188.882 56.8519 189.463 55.1149L190.323 55.4019C189.749 57.1179 189.231 58.8809 188.782 60.6389ZM333.361 51.0739C332.683 49.3919 331.936 47.7129 331.139 46.0859L331.954 45.6859C332.76 47.3329 333.517 49.0319 334.203 50.7339L333.361 51.0739ZM192.239 50.2789L191.402 49.9309C192.102 48.2369 192.883 46.5459 193.71 44.9039L194.52 45.3119C193.702 46.9349 192.935 48.6059 192.238 50.2799L192.239 50.2789ZM328.563 41.2689C327.652 39.7019 326.672 38.1479 325.649 36.6489L326.398 36.1379C327.433 37.6549 328.424 39.2269 329.346 40.8129L328.563 41.2689ZM197.15 40.5219L196.372 40.0569C197.312 38.4829 198.322 36.9209 199.372 35.4139L200.115 35.9329C199.077 37.4279 198.078 38.9669 197.15 40.5229V40.5219ZM322.413 32.2489C321.285 30.8259 320.094 29.4269 318.871 28.0909L319.539 27.4789C320.777 28.8309 321.983 30.2469 323.123 31.6859L322.413 32.2489ZM203.405 31.5699L202.705 30.9989C203.861 29.5729 205.083 28.1709 206.337 26.8319L206.999 27.4519C205.755 28.7759 204.547 30.1609 203.405 31.5709V31.5699ZM315.042 24.1949C313.724 22.9469 312.342 21.7319 310.942 20.5819L311.517 19.8819C312.935 21.0449 314.33 22.2749 315.663 23.5379L315.042 24.1949ZM210.869 23.6009L210.253 22.9359C211.599 21.6899 213.007 20.4759 214.439 19.3279L215.006 20.0349C213.59 21.1699 212.198 22.3689 210.868 23.6009H210.869ZM306.6 17.2699C305.119 16.2219 303.582 15.2149 302.03 14.2769L302.499 13.5009C304.069 14.4499 305.625 15.4689 307.123 16.5299L306.6 17.2699ZM219.386 16.7699L218.871 16.0239C220.38 14.9819 221.947 13.9809 223.527 13.0499L223.987 13.8309C222.424 14.7559 220.876 15.7449 219.385 16.7739L219.386 16.7699ZM297.258 11.6159C295.642 10.7899 293.976 10.0159 292.306 9.30786L292.659 8.47286C294.349 9.18686 296.034 9.97286 297.67 10.8089L297.258 11.6159ZM228.786 11.2289L228.386 10.4169C230.028 9.60186 231.721 8.83586 233.417 8.13986L233.761 8.97886C232.084 9.66586 230.412 10.4229 228.789 11.2289H228.786ZM287.201 7.36186C285.486 6.77786 283.726 6.24886 281.969 5.78986L282.198 4.91286C283.976 5.37786 285.758 5.91286 287.498 6.50386L287.201 7.36186ZM238.878 7.09386L238.596 6.23286C240.338 5.66186 242.125 5.14686 243.906 4.70186L244.126 5.58186C242.366 6.02086 240.6 6.52986 238.879 7.09486L238.878 7.09386ZM276.639 4.60086C274.856 4.26986 273.039 4.00086 271.239 3.80086L271.339 2.90086C273.163 3.10086 275.002 3.37886 276.806 3.71386L276.639 4.60086ZM249.469 4.45186L249.314 3.55886C251.12 3.24486 252.962 2.99186 254.788 2.80686L254.879 3.70686C253.074 3.88886 251.253 4.13886 249.469 4.44986V4.45186ZM265.791 3.38186C263.976 3.30786 262.13 3.29886 260.329 3.35186L260.302 2.44586C262.125 2.39186 263.992 2.40086 265.829 2.47586L265.791 3.38186Z" fill="#3F3D56"/>
<path d="M336.012 58.8529C335.769 57.9899 335.512 57.1189 335.234 56.2639L336.097 55.9879C336.374 56.8529 336.639 57.7349 336.885 58.6079L336.012 58.8529Z" fill="#3F3D56"/>
<path d="M71.071 197.49C79.4105 197.49 86.171 196.983 86.171 196.358C86.171 195.733 79.4105 195.226 71.071 195.226C62.7315 195.226 55.971 195.733 55.971 196.358C55.971 196.983 62.7315 197.49 71.071 197.49Z" fill="#0048C1"/>
<path d="M191.492 142.754C199.832 142.754 206.592 142.247 206.592 141.622C206.592 140.997 199.832 140.49 191.492 140.49C183.153 140.49 176.392 140.997 176.392 141.622C176.392 142.247 183.153 142.754 191.492 142.754Z" fill="#0048C1"/>
<path d="M340.224 85.7519C348.563 85.7519 355.324 85.245 355.324 84.6199C355.324 83.9947 348.563 83.4879 340.224 83.4879C331.884 83.4879 325.124 83.9947 325.124 84.6199C325.124 85.245 331.884 85.7519 340.224 85.7519Z" fill="#0048C1"/>
<path d="M334.243 80.9021L288.838 126.307L289.545 127.014L334.95 81.6092L334.243 80.9021Z" fill="#3F3D56"/>
<path d="M275.673 132.109H199.419V133.109H275.673V132.109Z" fill="#3F3D56"/>
<path d="M185.502 138.29L142.853 180.939L143.56 181.646L186.209 138.997L185.502 138.29Z" fill="#3F3D56"/>
<path d="M129.96 186.846H78.998V187.846H129.96V186.846Z" fill="#3F3D56"/>
<path d="M65.1466 192.584L14.505 243.226L15.2121 243.933L65.8537 193.291L65.1466 192.584Z" fill="#3F3D56"/>
<path d="M71.071 195.679C67.6812 195.679 64.6252 193.637 63.328 190.505C62.0307 187.373 62.7478 183.769 65.1447 181.372C67.5417 178.975 71.1465 178.258 74.2783 179.555C77.41 180.852 79.452 183.908 79.452 187.298C79.452 191.927 75.6997 195.679 71.071 195.679ZM71.071 179.824C68.0481 179.824 65.3228 181.645 64.1659 184.438C63.0091 187.231 63.6485 190.445 65.7861 192.583C67.9236 194.72 71.1383 195.36 73.9312 194.203C76.724 193.046 78.545 190.321 78.545 187.298C78.545 183.17 75.1988 179.824 71.071 179.824Z" fill="#3F3D56"/>
<path d="M137.888 195.679C133.259 195.679 129.507 191.927 129.507 187.298C129.507 182.669 133.259 178.917 137.888 178.917C142.517 178.917 146.269 182.669 146.269 187.298C146.269 191.927 142.517 195.679 137.888 195.679ZM137.888 179.824C133.76 179.824 130.414 183.17 130.414 187.298C130.414 191.426 133.76 194.772 137.888 194.772C142.016 194.772 145.362 191.426 145.362 187.298C145.362 183.17 142.016 179.824 137.888 179.824Z" fill="#3F3D56"/>
<path d="M191.491 140.943C186.862 140.943 183.11 137.191 183.11 132.562C183.11 127.933 186.862 124.181 191.491 124.181C196.12 124.181 199.872 127.933 199.872 132.562C199.872 134.785 198.989 136.916 197.417 138.488C195.846 140.06 193.714 140.943 191.491 140.943ZM191.491 125.088C188.468 125.088 185.743 126.909 184.586 129.702C183.429 132.495 184.069 135.709 186.206 137.847C188.344 139.984 191.558 140.624 194.351 139.467C197.144 138.31 198.965 135.585 198.965 132.562C198.965 128.434 195.619 125.088 191.491 125.088Z" fill="#3F3D56"/>
<path d="M283.6 140.943C278.971 140.943 275.219 137.191 275.219 132.562C275.219 127.933 278.971 124.181 283.6 124.181C288.229 124.181 291.981 127.933 291.981 132.562C291.981 137.191 288.229 140.943 283.6 140.943ZM283.6 125.088C279.472 125.088 276.126 128.434 276.126 132.562C276.126 136.69 279.472 140.036 283.6 140.036C287.728 140.036 291.074 136.69 291.074 132.562C291.074 128.434 287.728 125.088 283.6 125.088Z" fill="#3F3D56"/>
<path d="M340.224 83.9408C335.595 83.9408 331.843 80.1886 331.843 75.5599C331.843 70.9312 335.595 67.1789 340.224 67.1789C344.853 67.1789 348.605 70.9312 348.605 75.5599C348.605 80.1886 344.853 83.9408 340.224 83.9408ZM340.224 68.0859C336.096 68.0859 332.75 71.4321 332.75 75.5599C332.75 79.6876 336.096 83.0339 340.224 83.0339C344.352 83.0339 347.698 79.6876 347.698 75.5599C347.698 71.4321 344.352 68.0859 340.224 68.0859Z" fill="#3F3D56"/>
<path d="M9.16201 257.588C4.53331 257.588 0.781006 253.836 0.781006 249.207C0.781006 244.578 4.53331 240.826 9.16201 240.826C13.7907 240.826 17.543 244.578 17.543 249.207C17.543 253.836 13.7907 257.588 9.16201 257.588ZM9.16201 241.733C5.03423 241.733 1.68801 245.079 1.68801 249.207C1.68801 253.335 5.03423 256.681 9.16201 256.681C13.2898 256.681 16.636 253.335 16.636 249.207C16.636 245.079 13.2898 241.733 9.16201 241.733Z" fill="#3F3D56"/>
<path d="M71.071 137.847C62.7315 137.847 55.971 144.607 55.971 152.947C55.971 161.286 71.071 188.809 71.071 188.809C71.071 188.809 86.171 161.286 86.171 152.947C86.171 148.942 84.5801 145.101 81.7483 142.27C78.9165 139.438 75.0758 137.847 71.071 137.847ZM71.071 160.874C66.693 160.874 63.144 157.325 63.144 152.947C63.144 148.569 66.693 145.02 71.071 145.02C75.449 145.02 78.998 148.569 78.998 152.947C78.998 157.325 75.449 160.874 71.071 160.874Z" fill="#17BCE3"/>
<path d="M191.491 81.2229C183.152 81.2229 176.391 87.9834 176.391 96.3229C176.391 104.662 191.491 132.185 191.491 132.185C191.491 132.185 206.591 104.662 206.591 96.3229C206.591 92.3181 205 88.4773 202.168 85.6455C199.337 82.8137 195.496 81.2229 191.491 81.2229ZM191.491 104.25C187.113 104.25 183.564 100.701 183.564 96.3229C183.564 91.9449 187.113 88.3959 191.491 88.3959C195.869 88.3959 199.418 91.9449 199.418 96.3229C199.418 100.701 195.869 104.25 191.491 104.25Z" fill="#17BCE3"/>
<path d="M451.988 32.8539C448.788 42.3159 443.888 50.9379 433.904 50.9379C423.92 50.9379 416.383 42.8259 415.82 32.8539C415.101 20.1119 423.686 14.7169 433.904 14.7699C445.975 14.8319 455.781 21.6269 451.988 32.8539Z" fill="#2F2E41"/>
<path d="M451.511 31.4259H415.819V76.6359H451.511V31.4259Z" fill="#2F2E41"/>
<path d="M452.56 65.1099H455.596C460.136 71.5816 461.616 79.717 459.644 87.3728C456.271 100.191 458.969 102.552 458.969 102.552C458.969 102.552 463.36 116.433 458.638 137.347C453.916 158.261 463.017 163.947 463.017 163.947L454.584 147.081L449.862 102.555L452.56 65.1099Z" fill="#575A89"/>
<path opacity="0.1" d="M452.56 66.2169H455.596C460.136 72.6886 461.616 80.824 459.644 88.4799C456.271 101.298 458.969 103.659 458.969 103.659C458.969 103.659 463.36 117.54 458.638 138.454C453.916 159.368 463.017 165.054 463.017 165.054L454.584 148.188L449.862 103.662L452.56 66.2169Z" fill="black"/>
<path d="M441.934 48.7479C441.934 48.7479 439.234 59.5419 440.585 59.5419C441.936 59.5419 446.657 65.2759 446.657 65.2759L449.693 76.4069L447.332 84.5069L439.232 82.8199L429.112 71.6889L426.076 68.6529L423.376 58.8709C423.376 58.8709 426.749 54.8229 424.388 51.4499C422.027 48.0769 441.934 48.7479 441.934 48.7479Z" fill="#FBBEBE"/>
<path opacity="0.1" d="M441.934 48.7479C441.934 48.7479 439.234 59.5419 440.585 59.5419C441.936 59.5419 446.657 65.2759 446.657 65.2759L449.693 76.4069L447.332 84.5069L439.232 82.8199L429.112 71.6889L426.076 68.6529L423.376 58.8709C423.376 58.8709 426.749 54.8229 424.388 51.4499C422.027 48.0769 441.934 48.7479 441.934 48.7479Z" fill="black"/>
<path d="M360.303 78.7699L352.882 66.6269C352.882 66.6269 344.871 48.9029 339.137 55.3119C333.403 61.7209 347.819 74.7219 347.819 74.7219L355.24 84.5039L360.303 78.7699Z" fill="#FBBEBE"/>
<path d="M458.8 184.35L453.4 223.816C453.4 223.816 454.075 226.852 447.328 237.983C440.581 249.114 422.366 273.401 422.366 273.401L416.966 263.281C416.966 263.281 423.375 231.236 434.507 224.489L433.158 175.915L458.8 184.35Z" fill="#FBBEBE"/>
<path opacity="0.1" d="M458.8 184.35L453.4 223.816C453.4 223.816 454.075 226.852 447.328 237.983C440.581 249.114 422.366 273.401 422.366 273.401L416.966 263.281C416.966 263.281 423.375 231.236 434.507 224.489L433.158 175.915L458.8 184.35Z" fill="black"/>
<path d="M416.972 259.235L424.393 273.402C424.393 273.402 418.321 290.602 420.682 292.292C423.043 293.982 426.082 309.158 419.67 307.471C413.258 305.784 408.201 299.038 408.201 298.026C408.201 297.014 411.912 282.847 409.888 279.473C409.021 277.83 407.88 276.348 406.515 275.088L401.455 283.521L399.768 282.509L408.201 268.342C408.201 268.342 409.213 265.642 413.261 263.957L416.972 259.235Z" fill="#2F2E41"/>
<path opacity="0.1" d="M416.972 259.235L424.393 273.402C424.393 273.402 418.321 290.602 420.682 292.292C423.043 293.982 426.082 309.158 419.67 307.471C413.258 305.784 408.201 299.038 408.201 298.026C408.201 297.014 411.912 282.847 409.888 279.473C409.021 277.83 407.88 276.348 406.515 275.088L401.455 283.521L399.768 282.509L408.201 268.342C408.201 268.342 409.213 265.642 413.261 263.957L416.972 259.235Z" fill="black"/>
<path d="M433.242 178.75C433.242 178.75 435.862 216.057 430.127 225.84V274.414L422.369 275.426C422.369 275.426 406.701 249.71 412.436 224.411C418.171 199.112 406.515 175.917 406.515 175.917L433.242 178.75Z" fill="#FBBEBE"/>
<path d="M431.308 57.0108C439.132 57.0108 445.475 50.6681 445.475 42.8438C445.475 35.0196 439.132 28.6768 431.308 28.6768C423.484 28.6768 417.141 35.0196 417.141 42.8438C417.141 50.6681 423.484 57.0108 431.308 57.0108Z" fill="#FBBEBE"/>
<path d="M445.645 80.1189L431.478 62.2409L423.378 56.8409L420.005 61.2259L410.56 63.9259C410.56 63.9259 404.488 65.2749 398.079 72.6959C391.67 80.1169 380.201 84.5019 380.201 84.5019L370.756 82.8148C370.756 82.8148 359.625 77.7549 359.625 76.4059C359.625 75.0569 349.843 85.5139 352.204 89.5609C354.565 93.6079 359.625 98.6689 362.324 101.367C365.023 104.065 366.034 111.824 382.563 109.467C399.092 107.11 405.163 99.0098 405.163 99.0098C405.163 99.0098 408.199 114.527 416.969 117.562C425.739 120.597 454.411 122.622 454.411 122.622L460.487 102.378C460.487 102.378 467.233 93.6079 458.126 80.7899C458.024 76.7879 457.639 72.7982 456.972 68.8509C456.591 66.9959 456.089 65.5029 455.427 64.9359C453.066 62.9119 440.585 59.5359 440.585 59.5359C440.585 59.5359 442.609 66.2819 443.621 66.6199C444.633 66.9579 446.994 78.4319 445.645 80.1189Z" fill="#0048C1"/>
<path d="M400.279 180.808C417.266 179.627 427.156 182.408 431.569 184.532C432.389 184.904 433.161 185.374 433.869 185.932C434.193 186.205 434.348 186.418 434.348 186.546C434.348 187.558 457.623 189.582 466.056 187.558C474.489 185.534 460.322 142.02 456.611 138.31C452.9 134.6 454.901 121.019 454.901 121.019C454.901 121.019 447.501 119.419 445.48 120.095C443.459 120.771 432.999 119.083 429.289 117.059C425.579 115.035 420.856 116.384 417.82 115.71C416.923 115.352 415.9 115.722 415.439 116.57C414.909 117.552 414.108 118.36 413.132 118.901C405.971 123.026 400.223 151.55 395.895 167.32C391.168 184.519 400.279 180.808 400.279 180.808Z" fill="#2F2E41"/>
<path d="M431.477 271.378L432.826 278.799C432.826 278.799 439.91 288.918 437.886 297.351C437.886 297.351 439.573 308.482 445.644 311.518C451.715 314.554 446.656 321.638 440.921 321.3C435.186 320.962 429.79 321.637 429.115 319.951C428.44 318.265 424.393 301.736 424.393 301.736L423.286 321.078L419.913 321.415L421.021 299.037C421.021 299.037 418.321 293.977 422.033 285.544L421.097 272.6C421.097 272.6 430.465 274.751 431.477 271.378Z" fill="#2F2E41"/>
<path opacity="0.1" d="M431.565 184.532C432.385 184.904 433.158 185.374 433.865 185.932C434.044 182.744 435.076 163.467 433.838 163.777L431.565 184.532Z" fill="black"/>
<path d="M425.444 23.3389C425.444 23.3389 425.287 22.4659 419.151 24.7669C413.015 27.0679 409.336 44.0489 412.404 54.0209C413.64 58.0389 412.635 60.9369 410.993 62.9639C404.833 70.5709 407.258 81.9969 416.231 85.9089C416.484 86.0195 416.743 86.1285 417.006 86.2359L420.841 88.5359C417.894 84.2521 417 78.8816 418.399 73.8739C420.524 66.8621 420.786 59.4178 419.16 52.2739C418.879 51.0689 418.56 49.8269 418.198 48.5589C415.13 37.8209 416.622 39.0589 427.361 28.3219C430.96 30.9941 434.814 33.3053 438.867 35.2219C444.236 37.5219 448.838 39.8219 445.003 47.4949C441.168 55.1679 431.963 62.0689 438.103 72.0399C444.243 82.0109 445.003 78.1759 444.239 82.0109L443.472 85.8459L448.072 81.2459L445.004 87.3819C445.004 87.3819 454.976 87.3819 458.044 79.7119L459.578 81.2459C459.578 81.2459 465.714 70.5069 454.209 60.5359C454.209 60.5359 450.374 58.2359 455.743 50.5649C461.112 42.8939 456.989 26.4029 450.085 23.3349C443.181 20.2669 425.444 23.3389 425.444 23.3389Z" fill="#2F2E41"/>
<path d="M433.903 18.5758C437.845 18.5758 441.041 15.3801 441.041 11.4378C441.041 7.49564 437.845 4.29985 433.903 4.29985C429.961 4.29985 426.765 7.49564 426.765 11.4378C426.765 15.3801 429.961 18.5758 433.903 18.5758Z" fill="#2F2E41"/>
<path d="M425.338 7.63086C425.34 3.96616 428.116 0.897892 431.762 0.530858C431.528 0.507858 431.29 0.494858 431.049 0.494858C427.107 0.494858 423.91 3.69087 423.91 7.63336C423.91 11.5758 427.107 14.7719 431.049 14.7719C431.29 14.7719 431.528 14.7589 431.763 14.7359C428.114 14.3691 425.337 11.2978 425.338 7.63086Z" fill="#2F2E41"/>
<path d="M340.224 26.8638C331.884 26.8638 325.124 33.6243 325.124 41.9638C325.124 50.3028 340.224 77.8258 340.224 77.8258C340.224 77.8258 355.324 50.3038 355.324 41.9638C355.324 37.9591 353.733 34.1183 350.901 31.2865C348.07 28.4547 344.229 26.8638 340.224 26.8638ZM340.224 49.8908C335.846 49.8908 332.297 46.3418 332.297 41.9638C332.297 37.5859 335.846 34.0368 340.224 34.0368C344.602 34.0368 348.151 37.5859 348.151 41.9638C348.151 46.3418 344.602 49.8908 340.224 49.8908Z" fill="#17BCE3"/>
</svg>
