<svg width="495" height="314" viewBox="0 0 495 314" fill="none" xmlns="http://www.w3.org/2000/svg">
<path d="M219.773 237.346C219.773 237.346 212.761 213.548 221.093 196.022C224.632 188.696 225.699 180.419 224.134 172.435C223.362 168.651 222.245 164.946 220.796 161.366" stroke="#535461" stroke-width="2"/>
<path d="M225.972 150.289C225.972 153.208 220.683 161.665 220.683 161.665C220.683 161.665 215.395 153.204 215.395 150.289C215.395 147.368 217.763 145 220.684 145C223.605 145 225.972 147.368 225.972 150.289H225.972Z" fill="#6C63FF"/>
<path d="M234.722 166.45C233.136 168.899 224.103 173.13 224.103 173.13C224.103 173.13 224.267 163.155 225.853 160.71C227.495 158.404 230.661 157.799 233.037 159.337C235.413 160.876 236.156 164.013 234.722 166.454V166.45Z" fill="#6C63FF"/>
<path d="M234.322 194.062C231.714 195.374 221.783 194.469 221.783 194.469C221.783 194.469 226.96 185.944 229.562 184.632C231.258 183.686 233.336 183.746 234.975 184.787C236.614 185.829 237.55 187.685 237.414 189.622C237.278 191.559 236.09 193.266 234.322 194.067V194.062Z" fill="#6C63FF"/>
<path d="M229.33 214.894C226.982 216.629 217.039 217.411 217.039 217.411C217.039 217.411 220.699 208.135 223.047 206.4C225.394 204.832 228.558 205.384 230.236 207.652C231.914 209.921 231.515 213.108 229.33 214.893V214.894Z" fill="#6C63FF"/>
<path d="M212.993 173.691C215.108 175.722 224.834 177.832 224.834 177.832C224.834 177.832 222.449 168.149 220.355 166.118C218.239 164.243 215.023 164.363 213.054 166.391C211.084 168.419 211.057 171.637 212.993 173.697V173.691Z" fill="#6C63FF"/>
<path d="M207.461 198.129C210.068 199.441 220 198.537 220 198.537C220 198.537 214.823 190.012 212.221 188.7C209.639 187.529 206.593 188.603 205.316 191.135C204.039 193.666 204.985 196.753 207.461 198.135V198.129Z" fill="#6C63FF"/>
<path d="M205.346 222.617C207.694 224.351 217.636 225.134 217.636 225.134C217.636 225.134 213.977 215.858 211.629 214.123C210.118 212.893 208.053 212.592 206.255 213.342C204.456 214.091 203.215 215.769 203.025 217.708C202.835 219.647 203.727 221.533 205.346 222.617V222.617Z" fill="#6C63FF"/>
<path d="M470.314 287.039C483.742 287.039 494.628 285.198 494.628 282.927C494.628 280.656 483.742 278.815 470.314 278.815C456.886 278.815 446 280.656 446 282.927C446 285.198 456.886 287.039 470.314 287.039Z" fill="#4D8AF0"/>
<path d="M480.364 276.203C481.474 275.297 482.284 274.077 482.686 272.703C483.052 271.282 482.377 269.798 481.065 269.141C479.578 268.573 477.987 269.601 476.784 270.647C475.581 271.693 474.196 272.872 472.618 272.655C474.269 271.159 475.013 268.907 474.577 266.723C474.509 266.278 474.321 265.86 474.033 265.514C473.205 264.631 471.711 265.014 470.719 265.707C467.575 267.92 466.698 272.189 466.68 276.035C466.508 274.63 466.489 273.21 466.625 271.802C466.619 270.402 466.225 268.779 465.025 268.035C464.285 267.629 463.451 267.422 462.606 267.435C461.191 267.387 459.619 267.526 458.651 268.56C457.442 269.848 457.762 272.001 458.808 273.397C459.979 274.709 461.361 275.816 462.896 276.674C464.069 277.371 465.07 278.324 465.823 279.462C465.911 279.621 465.984 279.789 466.041 279.962H474.9C476.881 278.963 478.718 277.702 480.36 276.213L480.364 276.203Z" fill="#4D8AF0"/>
<path d="M421.314 313.039C434.742 313.039 445.628 311.198 445.628 308.927C445.628 306.656 434.742 304.815 421.314 304.815C407.886 304.815 397 306.656 397 308.927C397 311.198 407.886 313.039 421.314 313.039Z" fill="#4D8AF0"/>
<path d="M431.364 302.203C432.474 301.297 433.284 300.077 433.686 298.703C434.052 297.282 433.377 295.798 432.065 295.141C430.578 294.573 428.987 295.601 427.784 296.647C426.581 297.693 425.196 298.872 423.618 298.655C425.269 297.159 426.013 294.907 425.577 292.723C425.509 292.278 425.321 291.86 425.033 291.514C424.205 290.631 422.711 291.014 421.719 291.707C418.575 293.92 417.698 298.189 417.68 302.035C417.508 300.63 417.489 299.21 417.625 297.802C417.619 296.402 417.225 294.779 416.025 294.035C415.285 293.629 414.451 293.422 413.606 293.435C412.191 293.387 410.619 293.526 409.651 294.56C408.442 295.848 408.762 298.001 409.808 299.397C410.979 300.709 412.361 301.816 413.896 302.674C415.069 303.371 416.07 304.324 416.823 305.462C416.911 305.621 416.984 305.789 417.041 305.962H425.9C427.881 304.963 429.718 303.702 431.36 302.213L431.364 302.203Z" fill="#4D8AF0"/>
<path d="M250.314 294.039C263.742 294.039 274.628 292.198 274.628 289.927C274.628 287.656 263.742 285.815 250.314 285.815C236.886 285.815 226 287.656 226 289.927C226 292.198 236.886 294.039 250.314 294.039Z" fill="#4D8AF0"/>
<path d="M260.364 283.203C261.474 282.297 262.284 281.077 262.686 279.703C263.052 278.282 262.377 276.798 261.065 276.141C259.578 275.573 257.987 276.601 256.784 277.647C255.581 278.693 254.196 279.872 252.618 279.655C254.269 278.159 255.013 275.907 254.577 273.723C254.509 273.278 254.321 272.86 254.033 272.514C253.205 271.631 251.711 272.014 250.719 272.707C247.575 274.92 246.698 279.189 246.68 283.035C246.508 281.63 246.489 280.21 246.625 278.802C246.619 277.402 246.225 275.779 245.025 275.035C244.285 274.629 243.451 274.422 242.606 274.435C241.191 274.387 239.619 274.526 238.651 275.56C237.442 276.848 237.762 279.001 238.808 280.397C239.979 281.709 241.361 282.816 242.896 283.674C244.069 284.371 245.07 285.324 245.823 286.462C245.911 286.621 245.984 286.789 246.041 286.962H254.9C256.881 285.963 258.718 284.702 260.36 283.213L260.364 283.203Z" fill="#4D8AF0"/>
<path opacity="0.1" d="M75.862 208.818C69.8928 208.067 63.6575 207.265 58.0041 209.227C52.3507 211.19 47.6682 216.922 49.3452 222.402C53.0951 234.617 75.1037 226.11 85.2515 234.46C88.8748 237.444 90.287 242.137 93.1161 245.802C97.6952 251.752 105.567 254.527 113.165 256.054C158.806 265.223 210.848 241.625 250.855 264.351C263.811 271.71 274.029 283.432 288.235 288.345C307.056 294.853 327.666 287.9 347.139 283.439C371.425 277.925 396.18 276.312 420.797 278.64C439.007 280.384 463.227 280.969 469.056 264.54C472.805 253.974 464.875 242.214 454.337 237.214C443.799 232.215 431.471 232.372 419.709 232.853C397.005 233.863 374.301 235.906 351.591 234.911C307.692 232.975 266.211 211.354 223.459 210.64C173.671 209.89 125.883 215.081 75.862 208.818Z" fill="#4D8AF0"/>
<path opacity="0.1" d="M153 291C187.794 291 216 285.18 216 278C216 270.82 187.794 265 153 265C118.206 265 90 270.82 90 278C90 285.18 118.206 291 153 291Z" fill="#4D8AF0"/>
<path d="M67.0581 113.315V58H37.2265V113.315C24.056 119.067 14.8516 132.205 14.8516 147.5V237H89.433V147.5C89.433 132.205 80.2282 119.067 67.0581 113.315Z" fill="#ED5564"/>
<path d="M74.5197 214.625H29.7695V154.957C29.7695 154.957 34.3639 140.038 52.1448 140.038C69.9201 140.038 74.5197 154.957 74.5197 154.957V214.625Z" fill="#FFCE54"/>
<path d="M67.0581 58H37.2251V95.2869H67.0581V58Z" fill="#434A54"/>
<path d="M150.915 132.582H134.183H117.457C103.264 151.226 104.237 177.332 104.237 177.332C104.237 177.332 105.635 199.647 134.183 199.707C162.736 199.647 164.135 177.332 164.135 177.332C164.135 177.332 165.102 151.226 150.915 132.582Z" fill="#E6E9ED"/>
<path d="M137.915 195.747H130.458V233.272H137.915V195.747Z" fill="#CCD1D9"/>
<path d="M152.827 229.538H115.539C113.48 229.538 111.808 231.21 111.808 233.269C111.808 235.329 113.48 237 115.539 237H152.827C154.886 237 156.558 235.329 156.558 233.269C156.558 231.21 154.886 229.538 152.827 229.538Z" fill="#E6E9ED"/>
<path d="M104.237 177.332C104.237 177.332 105.635 199.647 134.183 199.707C162.736 199.647 164.135 177.332 164.135 177.332C164.135 177.332 164.239 174.431 163.856 169.875H104.51C104.127 174.431 104.237 177.332 104.237 177.332Z" fill="#ED5564"/>
<g opacity="0.2">
<path d="M67.0577 113.315V58H59.6011V113.315C72.7716 119.067 81.976 132.205 81.976 147.5V237H89.4327V147.5C89.4327 132.205 80.2279 119.067 67.0577 113.315Z" fill="white"/>
</g>
<g opacity="0.2">
<path d="M150.915 132.582H143.453C157.645 151.226 156.673 177.332 156.673 177.332C156.673 177.332 155.4 197.658 130.452 199.565C131.643 199.652 132.883 199.702 134.183 199.707C162.737 199.647 164.135 177.332 164.135 177.332C164.135 177.332 165.102 151.226 150.915 132.582Z" fill="white"/>
</g>
<g clip-path="url(#clip0_102_147)">
<path d="M337.744 2.81222C335.368 4.21834 333.182 9.51834 333.182 13.8449C333.182 14.602 332.042 15.7918 330.616 16.549C320.066 21.9571 305.43 36.8837 302.769 44.9959C300.773 50.8367 307.141 57.2183 319.401 61.653C321.492 62.4102 324.818 63.9245 326.909 65.1143L330.521 67.2775L329.856 74.4163C329.475 78.4184 328.145 84.8 326.814 88.6939C325.579 92.5877 323.773 98.1041 322.823 101.133C321.872 104.053 318.356 111.408 314.934 117.357C311.608 123.306 307.711 131.743 306.285 136.178L303.719 144.073L305.905 146.129C307.046 147.21 308.281 148.075 308.661 148.184C309.422 148.184 312.558 155.863 312.083 156.296C311.893 156.404 308.661 158.351 304.765 160.622C293.93 167.112 292.504 171.331 297.161 183.661C298.302 186.473 300.583 193.18 302.294 198.696L305.525 208.647L297.732 213.19C281.86 222.492 277.488 224.763 274.256 225.52C270.265 226.494 265.132 229.847 262.186 233.416C260.475 235.58 260.285 236.445 261.046 238.392C262.851 242.178 266.843 246.504 268.079 245.963C269.314 245.422 274.256 252.453 274.256 254.833C274.256 255.482 275.112 257.32 276.252 258.943C277.963 261.431 278.818 261.755 284.521 261.755C291.079 261.755 293.93 260.673 292.884 258.727C292.599 258.078 290.984 257.32 289.463 256.888C285.281 255.806 281.575 248.776 285.186 248.776C286.042 248.776 287.087 247.478 287.562 245.963C288.418 243.476 288.988 243.151 291.649 243.692C293.835 244.016 296.876 243.151 302.103 240.555C306.19 238.5 309.897 236.878 310.277 236.878C310.752 236.878 311.323 238.716 311.608 240.88C311.988 243.151 313.033 246.829 314.079 248.992C317.025 255.59 317.215 257.969 315.124 260.89C312.938 264.135 313.413 265 317.595 265C319.781 265 321.777 263.918 324.153 261.647C327.384 258.402 327.575 257.969 327.384 251.48C327.099 241.961 328.05 240.988 331.946 246.18C335.653 251.263 335.938 250.182 332.707 242.935C331.376 240.014 330.331 236.661 330.331 235.58C330.331 234.39 329.095 232.659 327.48 231.686C325.959 230.712 324.628 229.522 324.628 229.198C324.628 228.873 327.67 227.035 331.281 224.98C334.988 222.924 338.789 220.22 339.93 218.922C341.736 216.759 342.116 216.651 346.203 218.057C348.579 218.922 351.24 220.22 352 220.869C354.281 223.033 358.083 233.741 357.323 235.688C355.707 239.798 355.137 254.724 356.467 256.239C357.037 256.78 358.938 257.537 360.744 257.861C362.55 258.186 367.112 258.943 370.723 259.7C378.517 261.214 388.306 260.241 388.306 257.969C388.306 257.212 386.12 254.941 383.459 252.994C380.798 251.155 378.232 248.451 377.851 247.045C377.376 245.639 377.091 240.122 377.091 234.822L377.281 224.98L380.608 224.439C389.066 222.924 410.926 216.11 415.108 213.622C419.48 211.027 419.86 210.918 422.616 212.541C424.232 213.514 428.128 216.759 431.36 219.68C434.591 222.708 440.484 227.251 444.38 229.847C448.277 232.443 454.74 238.176 458.637 242.502C462.533 246.829 468.046 251.804 470.897 253.643C484.203 262.08 483.157 261.755 487.149 257.753L490.095 254.724L488.48 250.073C487.149 246.288 486.294 245.314 483.252 244.449C481.256 243.8 477.455 241.637 474.794 239.582C472.037 237.527 468.996 235.796 467.856 235.796C466.525 235.796 461.678 230.929 453.98 221.951C443.81 210.161 430.789 197.939 428.413 197.939C427.273 197.939 419.48 191.233 413.112 184.959C407.504 179.227 399.711 168.843 399.711 166.788C399.711 166.247 398.665 164.733 397.335 163.327C396.004 161.92 394.959 159.973 394.959 159C394.959 158.027 394.104 156.296 393.058 155.214C392.013 154.133 391.157 152.078 391.157 150.671C391.157 149.265 390.492 146.669 389.732 145.047C388.401 142.018 388.496 141.91 390.682 141.261C392.013 140.829 394.199 138.665 395.529 136.394C397.715 132.608 397.905 131.418 397.335 126.335L396.67 120.494L401.992 116.492C404.938 114.329 408.265 112.49 409.595 112.49C410.831 112.49 412.351 111.733 413.017 110.867C414.632 108.596 415.678 108.812 416.343 111.624C417.864 117.141 423.946 122.224 429.174 122.224C432.88 122.224 438.773 118.763 440.389 115.627C446.471 104.269 447.327 98.753 443.715 93.1286C442.48 91.3979 441.529 88.3694 441.529 86.5306C441.529 84.151 440.959 82.9612 439.438 82.0959C436.492 80.5816 433.451 78.6347 431.74 76.9041C430.599 75.9306 429.744 75.8224 428.318 76.7959C427.178 77.4449 426.323 78.4184 426.323 78.851C426.323 80.149 421 82.2041 417.864 82.2041C416.438 82.2041 413.112 83.0694 410.356 84.2592C404.178 86.6388 401.707 86.2061 397.62 81.7714C395.909 79.8245 393.153 77.6612 391.632 76.9041C390.017 76.2551 388.116 74.5245 387.451 73.2265C386.69 71.9286 385.455 69.7653 384.694 68.4673C383.364 66.0877 383.459 65.9796 386.215 66.6286C388.686 67.1694 389.256 66.8449 390.777 63.9245C391.727 62.0857 392.868 60.5714 393.248 60.5714C393.628 60.5714 394.008 59.9224 394.008 59.0571C394.008 58.1918 394.674 57.3265 395.339 57.002C396.384 56.5694 396.575 55.2714 396.194 52.6755C395.909 50.5122 396.099 48.6735 396.765 48.2408C397.335 47.8081 397.81 46.0775 397.81 44.2388C397.81 42.1837 398.285 41.102 399.236 41.102C401.232 41.102 401.992 36.2347 400.661 32.449C399.806 30.0694 397.715 28.3388 392.393 25.3102C386.215 21.9571 384.599 21.4163 380.132 21.849C371.579 22.7143 367.872 28.0143 366.827 41.4265C366.256 48.2408 365.876 49.7551 364.546 49.7551C362.74 49.7551 357.037 42.4 350.384 31.3673L345.727 23.7959L346.203 15.3592C346.583 8.00406 346.488 6.7061 344.587 4.00202C342.306 0.75712 341.451 0.648956 337.744 2.81222ZM343.732 33.3143C345.632 39.9122 345.727 40.2367 344.017 41.6428C342.116 43.2653 323.678 44.0224 323.678 42.4C323.678 41.9673 326.244 38.6143 329.38 34.8286C332.517 31.0428 335.748 26.6081 336.699 24.7694L338.409 21.6326L340.025 24.0122C340.975 25.4183 342.591 29.5286 343.732 33.3143ZM318.546 181.822C319.401 182.688 320.446 188.961 321.112 198.48C321.397 201.4 319.496 202.373 319.116 199.561C318.546 194.91 315.789 186.473 314.079 183.769C313.128 182.147 312.273 180.633 312.273 180.308C312.273 179.551 317.405 180.849 318.546 181.822Z" fill="#504F60"/>
</g>
<defs>
<clipPath id="clip0_102_147">
<rect width="230" height="265" fill="white" transform="translate(260)"/>
</clipPath>
</defs>
</svg>
