<svg width="222" height="40" viewBox="0 0 222 40" fill="none" xmlns="http://www.w3.org/2000/svg">
<path d="M68.946 16.568C68.862 16.484 68.706 16.37 68.478 16.226C68.262 16.082 67.992 15.944 67.668 15.812C67.356 15.668 67.014 15.548 66.642 15.452C66.27 15.356 65.892 15.308 65.508 15.308C64.824 15.308 64.314 15.434 63.978 15.686C63.642 15.938 63.474 16.292 63.474 16.748C63.474 17.012 63.534 17.234 63.654 17.414C63.786 17.582 63.972 17.732 64.212 17.864C64.452 17.996 64.752 18.116 65.112 18.224C65.484 18.332 65.91 18.446 66.39 18.566C67.014 18.734 67.578 18.914 68.082 19.106C68.598 19.298 69.03 19.538 69.378 19.826C69.738 20.114 70.014 20.462 70.206 20.87C70.398 21.266 70.494 21.758 70.494 22.346C70.494 23.03 70.362 23.618 70.098 24.11C69.846 24.59 69.498 24.98 69.054 25.28C68.622 25.58 68.118 25.802 67.542 25.946C66.978 26.078 66.384 26.144 65.76 26.144C64.8 26.144 63.852 26 62.916 25.712C61.98 25.424 61.14 25.016 60.396 24.488L61.494 22.346C61.602 22.454 61.794 22.598 62.07 22.778C62.358 22.946 62.694 23.12 63.078 23.3C63.462 23.468 63.888 23.612 64.356 23.732C64.824 23.852 65.304 23.912 65.796 23.912C67.164 23.912 67.848 23.474 67.848 22.598C67.848 22.322 67.77 22.088 67.614 21.896C67.458 21.704 67.236 21.536 66.948 21.392C66.66 21.248 66.312 21.116 65.904 20.996C65.496 20.876 65.04 20.744 64.536 20.6C63.924 20.432 63.39 20.252 62.934 20.06C62.49 19.856 62.118 19.622 61.818 19.358C61.518 19.082 61.29 18.77 61.134 18.422C60.99 18.062 60.918 17.636 60.918 17.144C60.918 16.496 61.038 15.92 61.278 15.416C61.518 14.912 61.848 14.492 62.268 14.156C62.7 13.82 63.198 13.568 63.762 13.4C64.326 13.22 64.932 13.13 65.58 13.13C66.48 13.13 67.308 13.274 68.064 13.562C68.82 13.838 69.48 14.168 70.044 14.552L68.946 16.568ZM76.4931 26.18C75.7251 26.18 75.0351 26.048 74.4231 25.784C73.8111 25.52 73.2891 25.166 72.8571 24.722C72.4371 24.266 72.1131 23.744 71.8851 23.156C71.6571 22.568 71.5431 21.95 71.5431 21.302C71.5431 20.642 71.6571 20.018 71.8851 19.43C72.1131 18.842 72.4371 18.326 72.8571 17.882C73.2891 17.426 73.8111 17.066 74.4231 16.802C75.0351 16.538 75.7251 16.406 76.4931 16.406C77.2611 16.406 77.9451 16.538 78.5451 16.802C79.1571 17.066 79.6731 17.426 80.0931 17.882C80.5251 18.326 80.8551 18.842 81.0831 19.43C81.3111 20.018 81.4251 20.642 81.4251 21.302C81.4251 21.95 81.3111 22.568 81.0831 23.156C80.8551 23.744 80.5311 24.266 80.1111 24.722C79.6911 25.166 79.1751 25.52 78.5631 25.784C77.9511 26.048 77.2611 26.18 76.4931 26.18ZM74.0271 21.302C74.0271 21.722 74.0871 22.106 74.2071 22.454C74.3391 22.79 74.5131 23.084 74.7291 23.336C74.9571 23.588 75.2211 23.786 75.5211 23.93C75.8211 24.062 76.1451 24.128 76.4931 24.128C76.8411 24.128 77.1651 24.062 77.4651 23.93C77.7651 23.786 78.0231 23.588 78.2391 23.336C78.4671 23.084 78.6411 22.784 78.7611 22.436C78.8931 22.088 78.9591 21.704 78.9591 21.284C78.9591 20.876 78.8931 20.498 78.7611 20.15C78.6411 19.802 78.4671 19.502 78.2391 19.25C78.0231 18.998 77.7651 18.806 77.4651 18.674C77.1651 18.53 76.8411 18.458 76.4931 18.458C76.1451 18.458 75.8211 18.53 75.5211 18.674C75.2211 18.818 74.9571 19.016 74.7291 19.268C74.5131 19.52 74.3391 19.82 74.2071 20.168C74.0871 20.516 74.0271 20.894 74.0271 21.302ZM85.9331 26.18C84.9611 26.18 84.2231 25.868 83.7191 25.244C83.2151 24.62 82.9631 23.696 82.9631 22.472V16.568H85.3751V21.95C85.3751 23.402 85.8971 24.128 86.9411 24.128C87.4091 24.128 87.8591 23.99 88.2911 23.714C88.7351 23.426 89.0951 22.994 89.3711 22.418V16.568H91.7831V23.228C91.7831 23.48 91.8251 23.66 91.9091 23.768C92.0051 23.876 92.1551 23.936 92.3591 23.948V26C92.1191 26.048 91.9151 26.078 91.7471 26.09C91.5911 26.102 91.4471 26.108 91.3151 26.108C90.8831 26.108 90.5291 26.012 90.2531 25.82C89.9891 25.616 89.8331 25.34 89.7851 24.992L89.7311 24.236C89.3111 24.884 88.7711 25.37 88.1111 25.694C87.4511 26.018 86.7251 26.18 85.9331 26.18ZM99.796 18.656C99.064 18.668 98.41 18.812 97.834 19.088C97.258 19.352 96.844 19.754 96.592 20.294V26H94.18V16.568H96.394V18.584C96.562 18.26 96.76 17.972 96.988 17.72C97.216 17.456 97.462 17.228 97.726 17.036C97.99 16.844 98.254 16.7 98.518 16.604C98.794 16.496 99.058 16.442 99.31 16.442C99.442 16.442 99.538 16.442 99.598 16.442C99.67 16.442 99.736 16.448 99.796 16.46V18.656ZM100.072 21.284C100.072 20.624 100.186 20 100.414 19.412C100.642 18.824 100.972 18.308 101.404 17.864C101.836 17.42 102.358 17.066 102.97 16.802C103.582 16.538 104.272 16.406 105.04 16.406C106.072 16.406 106.948 16.628 107.668 17.072C108.4 17.516 108.946 18.098 109.306 18.818L106.948 19.538C106.744 19.19 106.474 18.926 106.138 18.746C105.802 18.554 105.43 18.458 105.022 18.458C104.674 18.458 104.35 18.53 104.05 18.674C103.75 18.806 103.486 18.998 103.258 19.25C103.042 19.49 102.868 19.784 102.736 20.132C102.616 20.48 102.556 20.864 102.556 21.284C102.556 21.704 102.622 22.088 102.754 22.436C102.886 22.784 103.06 23.084 103.276 23.336C103.504 23.588 103.768 23.786 104.068 23.93C104.368 24.062 104.686 24.128 105.022 24.128C105.454 24.128 105.85 24.02 106.21 23.804C106.582 23.588 106.84 23.324 106.984 23.012L109.342 23.732C109.018 24.452 108.484 25.04 107.74 25.496C106.996 25.952 106.102 26.18 105.058 26.18C104.29 26.18 103.6 26.048 102.988 25.784C102.376 25.52 101.854 25.166 101.422 24.722C100.99 24.266 100.654 23.744 100.414 23.156C100.186 22.556 100.072 21.932 100.072 21.284ZM115.113 26.18C114.357 26.18 113.673 26.054 113.061 25.802C112.449 25.538 111.927 25.184 111.495 24.74C111.063 24.296 110.727 23.78 110.487 23.192C110.259 22.604 110.145 21.986 110.145 21.338C110.145 20.666 110.259 20.036 110.487 19.448C110.715 18.848 111.045 18.326 111.477 17.882C111.909 17.426 112.431 17.066 113.043 16.802C113.667 16.538 114.363 16.406 115.131 16.406C115.899 16.406 116.583 16.538 117.183 16.802C117.795 17.066 118.311 17.42 118.731 17.864C119.163 18.308 119.487 18.824 119.703 19.412C119.931 20 120.045 20.612 120.045 21.248C120.045 21.404 120.039 21.554 120.027 21.698C120.027 21.842 120.015 21.962 119.991 22.058H112.701C112.737 22.43 112.827 22.76 112.971 23.048C113.115 23.336 113.301 23.582 113.529 23.786C113.757 23.99 114.015 24.146 114.303 24.254C114.591 24.362 114.891 24.416 115.203 24.416C115.683 24.416 116.133 24.302 116.553 24.074C116.985 23.834 117.279 23.522 117.435 23.138L119.505 23.714C119.157 24.434 118.599 25.028 117.831 25.496C117.075 25.952 116.169 26.18 115.113 26.18ZM117.561 20.492C117.501 19.784 117.237 19.22 116.769 18.8C116.313 18.368 115.755 18.152 115.095 18.152C114.771 18.152 114.465 18.212 114.177 18.332C113.901 18.44 113.655 18.596 113.439 18.8C113.223 19.004 113.043 19.25 112.899 19.538C112.767 19.826 112.689 20.144 112.665 20.492H117.561ZM127.13 18.656C126.398 18.668 125.744 18.812 125.168 19.088C124.592 19.352 124.178 19.754 123.926 20.294V26H121.514V16.568H123.728V18.584C123.896 18.26 124.094 17.972 124.322 17.72C124.55 17.456 124.796 17.228 125.06 17.036C125.324 16.844 125.588 16.7 125.852 16.604C126.128 16.496 126.392 16.442 126.644 16.442C126.776 16.442 126.872 16.442 126.932 16.442C127.004 16.442 127.07 16.448 127.13 16.46V18.656ZM128.673 27.836C128.877 27.896 129.075 27.938 129.267 27.962C129.459 27.998 129.621 28.016 129.753 28.016C129.909 28.016 130.053 27.986 130.185 27.926C130.317 27.866 130.437 27.758 130.545 27.602C130.653 27.458 130.761 27.254 130.869 26.99C130.977 26.726 131.091 26.396 131.211 26L127.485 16.568H129.969L132.525 23.912L134.793 16.568H137.061L133.101 27.872C132.873 28.532 132.483 29.072 131.931 29.492C131.379 29.912 130.695 30.122 129.879 30.122C129.687 30.122 129.489 30.104 129.285 30.068C129.093 30.044 128.889 29.996 128.673 29.924V27.836ZM145.511 13.22H147.707L152.567 26H150.011L148.823 22.814H144.359L143.189 26H140.633L145.511 13.22ZM148.373 21.068L146.609 16.046L144.773 21.068H148.373ZM152.895 21.284C152.895 20.624 153.009 20 153.237 19.412C153.465 18.824 153.795 18.308 154.227 17.864C154.659 17.42 155.181 17.066 155.793 16.802C156.405 16.538 157.095 16.406 157.863 16.406C158.895 16.406 159.771 16.628 160.491 17.072C161.223 17.516 161.769 18.098 162.129 18.818L159.771 19.538C159.567 19.19 159.297 18.926 158.961 18.746C158.625 18.554 158.253 18.458 157.845 18.458C157.497 18.458 157.173 18.53 156.873 18.674C156.573 18.806 156.309 18.998 156.081 19.25C155.865 19.49 155.691 19.784 155.559 20.132C155.439 20.48 155.379 20.864 155.379 21.284C155.379 21.704 155.445 22.088 155.577 22.436C155.709 22.784 155.883 23.084 156.099 23.336C156.327 23.588 156.591 23.786 156.891 23.93C157.191 24.062 157.509 24.128 157.845 24.128C158.277 24.128 158.673 24.02 159.033 23.804C159.405 23.588 159.663 23.324 159.807 23.012L162.165 23.732C161.841 24.452 161.307 25.04 160.563 25.496C159.819 25.952 158.925 26.18 157.881 26.18C157.113 26.18 156.423 26.048 155.811 25.784C155.199 25.52 154.677 25.166 154.245 24.722C153.813 24.266 153.477 23.744 153.237 23.156C153.009 22.556 152.895 21.932 152.895 21.284ZM166.223 26.18C165.767 26.18 165.341 26.108 164.945 25.964C164.549 25.808 164.207 25.598 163.919 25.334C163.631 25.058 163.403 24.74 163.235 24.38C163.079 24.02 163.001 23.624 163.001 23.192C163.001 22.748 163.097 22.34 163.289 21.968C163.493 21.584 163.769 21.26 164.117 20.996C164.477 20.732 164.903 20.528 165.395 20.384C165.887 20.228 166.427 20.15 167.015 20.15C167.435 20.15 167.843 20.186 168.239 20.258C168.647 20.33 169.007 20.432 169.319 20.564V20.024C169.319 19.4 169.139 18.92 168.779 18.584C168.431 18.248 167.909 18.08 167.213 18.08C166.709 18.08 166.217 18.17 165.737 18.35C165.257 18.53 164.765 18.794 164.261 19.142L163.523 17.612C164.735 16.808 166.043 16.406 167.447 16.406C168.803 16.406 169.853 16.742 170.597 17.414C171.353 18.074 171.731 19.034 171.731 20.294V23.228C171.731 23.48 171.773 23.66 171.857 23.768C171.953 23.876 172.103 23.936 172.307 23.948V26C171.899 26.084 171.545 26.126 171.245 26.126C170.789 26.126 170.435 26.024 170.183 25.82C169.943 25.616 169.793 25.346 169.733 25.01L169.679 24.488C169.259 25.04 168.749 25.46 168.149 25.748C167.549 26.036 166.907 26.18 166.223 26.18ZM166.907 24.416C167.315 24.416 167.699 24.344 168.059 24.2C168.431 24.056 168.719 23.864 168.923 23.624C169.187 23.42 169.319 23.192 169.319 22.94V21.86C169.031 21.752 168.719 21.668 168.383 21.608C168.047 21.536 167.723 21.5 167.411 21.5C166.787 21.5 166.277 21.644 165.881 21.932C165.485 22.208 165.287 22.562 165.287 22.994C165.287 23.402 165.443 23.744 165.755 24.02C166.067 24.284 166.451 24.416 166.907 24.416ZM177.891 26.18C177.243 26.18 176.643 26.054 176.091 25.802C175.539 25.55 175.065 25.202 174.669 24.758C174.273 24.314 173.961 23.798 173.733 23.21C173.517 22.61 173.409 21.968 173.409 21.284C173.409 20.6 173.511 19.964 173.715 19.376C173.931 18.788 174.225 18.272 174.597 17.828C174.969 17.384 175.413 17.036 175.929 16.784C176.445 16.532 177.009 16.406 177.621 16.406C178.317 16.406 178.941 16.574 179.493 16.91C180.057 17.246 180.495 17.684 180.807 18.224V12.86H183.219V23.228C183.219 23.48 183.261 23.66 183.345 23.768C183.429 23.876 183.573 23.936 183.777 23.948V26C183.357 26.084 183.015 26.126 182.751 26.126C182.319 26.126 181.965 26.018 181.689 25.802C181.413 25.586 181.257 25.304 181.221 24.956L181.167 24.362C180.819 24.962 180.345 25.418 179.745 25.73C179.157 26.03 178.539 26.18 177.891 26.18ZM178.521 24.128C178.749 24.128 178.983 24.092 179.223 24.02C179.463 23.936 179.685 23.822 179.889 23.678C180.093 23.534 180.273 23.366 180.429 23.174C180.597 22.982 180.723 22.772 180.807 22.544V20.294C180.711 20.03 180.573 19.79 180.393 19.574C180.225 19.346 180.027 19.154 179.799 18.998C179.583 18.83 179.349 18.698 179.097 18.602C178.857 18.506 178.617 18.458 178.377 18.458C178.017 18.458 177.681 18.536 177.369 18.692C177.069 18.848 176.811 19.064 176.595 19.34C176.379 19.604 176.211 19.91 176.091 20.258C175.971 20.606 175.911 20.966 175.911 21.338C175.911 21.734 175.977 22.1 176.109 22.436C176.241 22.772 176.421 23.066 176.649 23.318C176.877 23.57 177.147 23.768 177.459 23.912C177.783 24.056 178.137 24.128 178.521 24.128ZM189.96 26.18C189.204 26.18 188.52 26.054 187.908 25.802C187.296 25.538 186.774 25.184 186.342 24.74C185.91 24.296 185.574 23.78 185.334 23.192C185.106 22.604 184.992 21.986 184.992 21.338C184.992 20.666 185.106 20.036 185.334 19.448C185.562 18.848 185.892 18.326 186.324 17.882C186.756 17.426 187.278 17.066 187.89 16.802C188.514 16.538 189.21 16.406 189.978 16.406C190.746 16.406 191.43 16.538 192.03 16.802C192.642 17.066 193.158 17.42 193.578 17.864C194.01 18.308 194.334 18.824 194.55 19.412C194.778 20 194.892 20.612 194.892 21.248C194.892 21.404 194.886 21.554 194.874 21.698C194.874 21.842 194.862 21.962 194.838 22.058H187.548C187.584 22.43 187.674 22.76 187.818 23.048C187.962 23.336 188.148 23.582 188.376 23.786C188.604 23.99 188.862 24.146 189.15 24.254C189.438 24.362 189.738 24.416 190.05 24.416C190.53 24.416 190.98 24.302 191.4 24.074C191.832 23.834 192.126 23.522 192.282 23.138L194.352 23.714C194.004 24.434 193.446 25.028 192.678 25.496C191.922 25.952 191.016 26.18 189.96 26.18ZM192.408 20.492C192.348 19.784 192.084 19.22 191.616 18.8C191.16 18.368 190.602 18.152 189.942 18.152C189.618 18.152 189.312 18.212 189.024 18.332C188.748 18.44 188.502 18.596 188.286 18.8C188.07 19.004 187.89 19.25 187.746 19.538C187.614 19.826 187.536 20.144 187.512 20.492H192.408ZM211.014 26H208.602V20.708C208.602 19.952 208.47 19.4 208.206 19.052C207.954 18.704 207.6 18.53 207.144 18.53C206.664 18.53 206.214 18.716 205.794 19.088C205.374 19.448 205.074 19.922 204.894 20.51V26H202.482V20.708C202.482 19.952 202.35 19.4 202.086 19.052C201.834 18.704 201.48 18.53 201.024 18.53C200.556 18.53 200.106 18.71 199.674 19.07C199.254 19.43 198.954 19.904 198.774 20.492V26H196.362V16.568H198.54V18.314C198.888 17.702 199.362 17.234 199.962 16.91C200.574 16.574 201.27 16.406 202.05 16.406C202.842 16.406 203.454 16.598 203.886 16.982C204.318 17.366 204.594 17.84 204.714 18.404C205.098 17.756 205.584 17.264 206.172 16.928C206.76 16.58 207.432 16.406 208.188 16.406C208.764 16.406 209.238 16.514 209.61 16.73C209.982 16.946 210.27 17.228 210.474 17.576C210.678 17.924 210.816 18.32 210.888 18.764C210.972 19.208 211.014 19.658 211.014 20.114V26ZM213.101 27.836C213.305 27.896 213.503 27.938 213.695 27.962C213.887 27.998 214.049 28.016 214.181 28.016C214.337 28.016 214.481 27.986 214.613 27.926C214.745 27.866 214.865 27.758 214.973 27.602C215.081 27.458 215.189 27.254 215.297 26.99C215.405 26.726 215.519 26.396 215.639 26L211.913 16.568H214.397L216.953 23.912L219.221 16.568H221.489L217.529 27.872C217.301 28.532 216.911 29.072 216.359 29.492C215.807 29.912 215.123 30.122 214.307 30.122C214.115 30.122 213.917 30.104 213.713 30.068C213.521 30.044 213.317 29.996 213.101 29.924V27.836Z" fill="#3D3691"/>
<mask id="mask0_167_2" style="mask-type:alpha" maskUnits="userSpaceOnUse" x="0" y="0" width="40" height="40">
<path d="M20 40C31.0457 40 40 31.0457 40 20C40 8.9543 31.0457 0 20 0C8.9543 0 0 8.9543 0 20C0 31.0457 8.9543 40 20 40Z" fill="white"/>
</mask>
<g mask="url(#mask0_167_2)">
<path d="M24.482 14.285V16.406L29.861 21.785L24.482 27.164V29.285L31.982 21.785L24.482 14.285Z" fill="#3D3691"/>
<path d="M15.482 29.285V27.164L10.103 21.785L15.482 16.406V14.285L7.982 21.785L15.482 29.285Z" fill="#3D3691"/>
<path d="M15.5742 33.3315L22.9517 9.79249L24.3827 10.241L17.0052 33.78L15.5742 33.3315Z" fill="#3D3691"/>
<path d="M17.732 14.285C18.1744 13.2801 18.9771 12.4774 19.982 12.035C18.9771 11.5926 18.1744 10.7898 17.732 9.78497C17.2896 10.7898 16.4869 11.5926 15.482 12.035C16.4869 12.4774 17.2896 13.2801 17.732 14.285Z" fill="#3D3691"/>
<path d="M21.65 8.57899C21.8862 8.04325 22.3143 7.61523 22.85 7.37899C22.3143 7.14275 21.8862 6.71472 21.65 6.17899C21.4138 6.71472 20.9857 7.14275 20.45 7.37899C20.9857 7.61523 21.4138 8.04325 21.65 8.57899Z" fill="#3D3691"/>
<path d="M28.982 14.285C29.2769 13.6151 29.8121 13.0799 30.482 12.785C29.8121 12.49 29.2769 11.9549 28.982 11.285C28.6871 11.9549 28.1519 12.49 27.482 12.785C28.1519 13.0799 28.6871 13.6151 28.982 14.285Z" fill="#3D3691"/>
<path d="M20.001 39.232C30.622 39.232 39.232 30.622 39.232 20.001C39.232 9.38 30.622 0.769989 20.001 0.769989C9.38001 0.769989 0.77 9.38 0.77 20.001C0.77 30.622 9.38001 39.232 20.001 39.232Z" stroke="#3D3691" stroke-width="1.538"/>
</g>
</svg>
