<svg width="552" height="452" viewBox="0 0 552 452" fill="none" xmlns="http://www.w3.org/2000/svg">
<path opacity="0.1" d="M234.85 238.597C212.406 236.061 188.694 233.945 164.493 234.211C128.902 234.6 94.7681 240.55 78.0082 249.286C63.8073 256.686 62.0581 265.361 55.9439 273.574C48.3978 283.695 33.9683 293.308 18.5499 302.713C10.271 307.765 1.53655 312.925 0.179022 318.464C-1.71017 326.151 11.5133 333.812 32.2563 338.926C52.9994 344.04 80.5354 346.738 108.178 347.327C122.887 347.64 138.259 347.35 151.331 345.446C165.15 343.434 175.232 339.796 189.106 337.812C201.967 335.973 217.014 335.714 231.454 335.954C250.366 336.27 269.001 337.37 286.739 339.22C306.922 341.327 325.69 344.376 345.828 346.513C365.966 348.65 388.465 349.84 409.051 348.058C428.369 346.384 443.675 342.319 457.422 338.201C480.043 331.441 500.674 324.186 519.117 316.508C531.546 311.335 543.114 305.875 548.613 299.844C559.117 288.314 544.657 275.306 512.585 267.439C486.027 260.912 450.365 258.081 415.456 256.358C383.623 254.791 346.816 254.693 317.513 250.61C289.565 246.716 264.138 241.908 234.85 238.597Z" fill="#584DFC"/>
<path d="M302.562 58.9938L306.62 56.2492V53.3348C306.62 52.3565 306.231 51.4181 305.54 50.7263C304.848 50.0345 303.909 49.6458 302.931 49.6458H288.175C287.196 49.6458 286.258 50.0345 285.566 50.7263C284.875 51.4181 284.486 52.3565 284.486 53.3348V67.1171L289.149 70.2749L284.486 73.4253V104.981H306.62V61.7385L302.562 58.9938Z" fill="#662113"/>
<path d="M462.71 155.137V118.247L418.7 74.2369L400.919 85.3557L402.151 57.6879L366.795 22.3322L270.88 118.247V169.894H285.637V177.272H270.88V243.674H462.71V203.095H455.332V195.717H462.71V162.516H447.954V155.137H462.71Z" fill="#D99E82"/>
<path d="M307.771 192.028H337.283V236.296H307.771V192.028ZM307.771 125.625H337.283V155.137H307.771V125.625ZM399.997 192.028H429.509V221.54H399.997V192.028Z" fill="#C1694F"/>
<path d="M481.156 247.363C481.156 250.298 479.99 253.113 477.914 255.189C475.839 257.264 473.024 258.43 470.089 258.43H263.503C260.567 258.43 257.753 257.264 255.677 255.189C253.602 253.113 252.436 250.298 252.436 247.363C252.436 244.428 253.602 241.613 255.677 239.538C257.753 237.462 260.567 236.296 263.503 236.296H470.089C473.024 236.296 475.839 237.462 477.914 239.538C479.99 241.613 481.156 244.428 481.156 247.363Z" fill="#BCBEC0"/>
<path d="M467.926 113.031L425.119 70.2233L412.281 78.2506L457.494 123.463C458.177 124.151 458.99 124.697 459.885 125.069C460.781 125.441 461.741 125.633 462.71 125.633C463.68 125.633 464.64 125.441 465.535 125.069C466.43 124.697 467.243 124.151 467.926 123.463C468.612 122.779 469.156 121.966 469.527 121.071C469.899 120.176 470.09 119.216 470.09 118.247C470.09 117.278 469.899 116.319 469.527 115.424C469.156 114.528 468.612 113.715 467.926 113.031ZM402.601 47.698L372.012 17.1085C371.327 16.4228 370.514 15.8787 369.619 15.5075C368.724 15.1363 367.764 14.9453 366.795 14.9453C365.826 14.9453 364.867 15.1363 363.972 15.5075C363.077 15.8787 362.264 16.4228 361.579 17.1085L265.664 113.023C264.281 114.407 263.503 116.283 263.503 118.24C263.503 120.196 264.281 122.073 265.664 123.456C267.048 124.839 268.924 125.617 270.88 125.617C272.837 125.617 274.713 124.839 276.097 123.456L366.795 32.7648L401.708 67.6778L402.601 47.698Z" fill="#292F33"/>
<path d="M414.163 77.0775L400.919 85.3557L401.841 64.7561L387.24 50.1549L375.251 104.878L402.454 117.635L382.164 174.195L433.198 125.625L425.82 88.7348L414.163 77.0775ZM300.371 139.776L341.54 127.071L344.698 137.319L303.528 150.017L300.371 139.776ZM298.024 219.814L340.47 198.034L345.369 207.573L302.916 229.353L298.024 219.814ZM434.438 217.792L393.268 205.087L396.433 194.846L437.603 207.544L434.438 217.792Z" fill="#662113"/>
<path d="M342.655 229.257L298.46 209.3L302.865 199.531L347.059 219.482L342.655 229.257Z" fill="#662113"/>
<g clip-path="url(#clip0_100_878)">
<path d="M190.873 222.531C203.462 220.198 203.745 199.933 190.69 200.087C180.473 200.209 181.503 210.118 180.121 208.169C177.437 204.383 176.572 194.643 186.803 190.606C195.635 187.122 207.782 194.18 208.561 207.082C209.06 215.343 203.907 230.602 185.403 228.061C159.486 224.505 178.287 224.86 190.873 222.531Z" fill="#D99E82"/>
<path d="M116.541 249.665C116.541 249.665 120.187 258.105 118.967 279.242C118.748 283.036 118.217 286.908 118.099 290.087C111.596 290.087 112.17 297.494 113.548 297.494H123.962C126.413 297.494 130.756 285.156 131.901 268.035C133.045 250.91 116.541 249.665 116.541 249.665ZM159.21 248.477C159.21 248.477 161.274 261.138 172.312 271.491C173.235 275.664 175.072 286.678 175.718 290.134C168.939 290.134 171.117 297.48 173.095 297.48H182.59C186.003 297.48 186.509 285.128 183.329 269.869C180.154 254.613 159.21 248.477 159.21 248.477Z" fill="#C1694F"/>
<path d="M195.064 227.124C190.568 213.66 169.176 214.105 144.834 217.202C133.87 218.598 131.771 201.221 131.771 198.232C131.771 185.22 120.129 178.656 108.459 183.056C105.664 184.107 103.428 187.829 102.165 189.774C95.0699 200.672 85.4487 189.827 84.5193 199.901C83.396 212.084 90.6953 216.172 102.646 217.202C109.435 217.787 115.059 221.131 116.537 235.303C117.09 240.585 115.479 255.557 125.107 260.696C127.906 271.315 131.696 284.435 133.181 291.11C125.1 292.818 128.369 298.93 128.369 298.93C128.369 298.93 139.677 298.775 142.135 298.775C145.056 298.775 142.82 277.33 138.78 263.653C155.876 263.808 166.872 258.855 170.356 257.33C174.045 267.952 185.256 270.368 187.765 274.886C189.319 277.685 194.504 287.026 194.946 291.02C189.197 292.886 191.03 297.236 191.684 298.635C195.57 298.481 203.239 298.481 204.237 298.481C208.22 298.481 200.156 273.705 196.762 267.213C192.879 259.781 199.564 240.589 195.064 227.124Z" fill="#D99E82"/>
<path d="M137.875 258.74C138.033 260.072 138.381 261.938 138.783 263.653C155.88 263.808 166.875 258.855 170.36 257.33C169.588 254.531 169.534 252.772 169.746 251.811C157.566 253.81 153.425 259.724 137.875 258.74ZM102.646 217.202C109.435 217.787 111.348 221.038 112.83 235.21C113.383 240.492 115.482 255.557 125.107 260.696C122.523 250.691 118.077 216.24 102.646 217.202Z" fill="#F4C7B5"/>
<path d="M90.8174 194.866C80.7943 194.866 83.9666 196.754 83.6329 200.938C83.2991 205.122 83.3673 211.618 86.4177 215.038C90.4621 219.567 100.263 219.581 105.133 216.032C110.002 212.483 103.611 194.866 90.8174 194.866Z" fill="#F4C7B5"/>
<path d="M88.4848 200.827C88.0936 203.561 86.712 205.104 85.3304 204.893C82.603 204.473 80.335 200.992 80.335 198.232C80.335 195.472 82.5743 194.776 85.3304 194.902C89.0733 195.074 88.9262 197.73 88.4848 200.827Z" fill="#272B2B"/>
<path d="M133.931 203.339C135.18 212.364 129.779 213.739 125.38 213.739C120.98 213.739 114.42 209.253 115.518 200.209C115.999 196.237 117.51 192.34 118.421 188.815C119.627 184.139 122.724 182.6 125.218 183.91C131.193 187.046 133.124 197.536 133.931 203.339Z" fill="#662113"/>
<path d="M108.459 198.232C110.298 198.232 111.789 196.741 111.789 194.902C111.789 193.063 110.298 191.572 108.459 191.572C106.62 191.572 105.129 193.063 105.129 194.902C105.129 196.741 106.62 198.232 108.459 198.232Z" fill="#292F33"/>
<path d="M147.812 216.843C148.074 222.341 151.064 228.248 157.62 229.988C164.442 231.8 172.406 230.444 174.379 221.106C174.706 219.563 174.846 216.714 174.641 215.673C166.922 215.031 157.667 215.673 147.812 216.843Z" fill="#C1694F"/>
<path d="M90.4588 210.39C91.426 210.39 92.21 209.606 92.21 208.639C92.21 207.672 91.426 206.888 90.4588 206.888C89.4916 206.888 88.7075 207.672 88.7075 208.639C88.7075 209.606 89.4916 210.39 90.4588 210.39Z" fill="#D99E82"/>
<path d="M92.7627 207.096C93.2959 207.096 93.7281 206.664 93.7281 206.131C93.7281 205.598 93.2959 205.165 92.7627 205.165C92.2296 205.165 91.7974 205.598 91.7974 206.131C91.7974 206.664 92.2296 207.096 92.7627 207.096Z" fill="#D99E82"/>
<path d="M94.2158 209.605C94.749 209.605 95.1812 209.172 95.1812 208.639C95.1812 208.106 94.749 207.674 94.2158 207.674C93.6827 207.674 93.2505 208.106 93.2505 208.639C93.2505 209.172 93.6827 209.605 94.2158 209.605Z" fill="#D99E82"/>
</g>
<g clip-path="url(#clip1_100_878)">
<path d="M273.061 349.873C275.38 354.586 281.326 356.422 286.318 353.966C291.308 351.511 293.483 345.679 291.164 340.967C288.846 336.254 282.899 334.418 277.908 336.873C272.917 339.329 270.743 345.16 273.061 349.873ZM287.121 342.956C288.404 345.563 287.201 348.79 284.44 350.149C281.678 351.508 278.387 350.491 277.104 347.884C275.822 345.277 277.025 342.05 279.786 340.691C282.548 339.332 285.838 340.348 287.121 342.956Z" fill="black"/>
<path d="M267.227 315.162C260.149 318.645 254.49 324.08 250.861 330.882C249.371 333.676 248.271 336.626 247.592 339.648C245.918 347.051 246.773 354.5 250.064 361.188C253.352 367.873 258.731 373.094 265.619 376.29C268.438 377.599 271.446 378.528 274.558 379.05C282.161 380.329 289.922 379.164 297.001 375.681C304.082 372.197 309.74 366.76 313.361 359.961C314.851 357.174 315.951 354.222 316.63 351.194C318.302 343.787 317.447 336.338 314.158 329.654C310.868 322.965 305.488 317.743 298.605 314.553C295.785 313.241 292.777 312.312 289.662 311.792C282.063 310.514 274.305 311.68 267.227 315.162ZM254.107 359.199C251.678 354.263 250.774 348.854 251.431 343.395C256.156 346.209 259.89 350.227 262.317 355.16C264.745 360.095 265.65 365.505 264.995 370.963C260.268 368.15 256.534 364.133 254.107 359.199ZM307.812 360.805C304.683 365.5 300.349 369.292 295.123 371.863C289.898 374.434 284.249 375.554 278.617 375.168C281.75 370.472 286.085 366.681 291.309 364.111C296.535 361.541 302.183 360.42 307.812 360.805ZM310.116 331.643C312.543 336.577 313.447 341.986 312.791 347.448C308.067 344.635 304.334 340.618 301.905 335.682C299.478 330.749 298.574 325.34 299.228 319.879C303.953 322.689 307.687 326.706 310.116 331.643ZM295.057 317.816C293.867 324.665 294.823 331.495 297.862 337.672C300.903 343.852 305.731 348.778 311.88 352.011C311.432 353.604 310.85 355.165 310.139 356.68C303.098 355.841 295.974 357.075 289.431 360.294C282.889 363.513 277.563 368.403 273.928 374.495C272.296 374.133 270.704 373.641 269.167 373.025C270.357 366.18 269.4 359.35 266.36 353.171C263.321 346.994 258.494 342.068 252.342 338.832C252.791 337.241 253.373 335.68 254.084 334.163C261.129 335.004 268.254 333.769 274.797 330.55C281.342 327.33 286.667 322.439 290.296 316.347C291.928 316.707 293.52 317.199 295.057 317.816ZM272.919 326.732C267.693 329.303 262.044 330.423 256.413 330.037C259.546 325.341 263.881 321.55 269.105 318.98C274.33 316.409 279.978 315.289 285.607 315.674C282.479 320.369 278.146 324.161 272.919 326.732Z" fill="black"/>
<path d="M323.082 268.501C323.048 268.515 323.015 268.528 322.982 268.544L196.275 330.883L196.275 330.883C196.273 330.884 196.271 330.885 196.269 330.886L188.106 334.902C186.99 335.451 186.505 336.751 187.024 337.805C187.542 338.859 188.868 339.268 189.984 338.719L196.127 335.697L199.037 341.612L192.894 344.634C191.778 345.184 191.294 346.484 191.812 347.537C192.331 348.591 193.656 349.001 194.772 348.452L200.915 345.43L203.825 351.345L197.683 354.367C196.567 354.916 196.082 356.216 196.601 357.27C197.119 358.324 198.445 358.734 199.561 358.184L205.703 355.162L208.614 361.078L202.471 364.1C201.355 364.649 200.87 365.949 201.389 367.003C201.907 368.057 203.233 368.466 204.349 367.917L210.492 364.895L213.402 370.811L207.26 373.833C206.144 374.382 205.659 375.682 206.177 376.736C206.696 377.79 208.022 378.199 209.138 377.65L215.28 374.628L218.191 380.543L212.048 383.566C210.932 384.115 210.447 385.415 210.966 386.469C211.484 387.522 212.81 387.932 213.926 387.383L220.069 384.361L222.979 390.276L216.837 393.298C215.72 393.847 215.236 395.147 215.754 396.201C216.273 397.255 217.598 397.664 218.715 397.115L224.857 394.093L227.767 400.009L221.625 403.031C220.509 403.58 220.024 404.88 220.543 405.934C221.061 406.988 222.387 407.397 223.503 406.848L229.645 403.826L232.556 409.742L226.414 412.764C225.298 413.313 224.813 414.614 225.331 415.667C225.85 416.721 227.176 417.131 228.292 416.582L234.434 413.56L237.345 419.475L231.202 422.497C230.086 423.046 229.601 424.346 230.12 425.4C230.638 426.454 231.964 426.863 233.08 426.314L241.221 422.309C241.229 422.305 241.237 422.302 241.245 422.298L367.956 359.957C367.994 359.939 368.029 359.917 368.066 359.897C368.096 359.883 368.127 359.872 368.158 359.857L376.32 355.841C377.436 355.292 377.921 353.991 377.403 352.938C376.884 351.884 375.558 351.474 374.442 352.023L368.1 355.144L365.189 349.228L371.532 346.108C372.648 345.559 373.133 344.259 372.614 343.205C372.096 342.151 370.77 341.742 369.654 342.291L363.311 345.411L360.401 339.496L366.743 336.375C367.86 335.826 368.344 334.526 367.826 333.472C367.307 332.418 365.982 332.009 364.865 332.558L358.523 335.679L355.612 329.763L361.955 326.642C363.071 326.093 363.556 324.793 363.037 323.739C362.519 322.685 361.193 322.276 360.077 322.825L353.734 325.946L350.824 320.03L357.167 316.91C358.283 316.361 358.768 315.061 358.249 314.007C357.731 312.953 356.405 312.543 355.289 313.093L348.946 316.213L346.036 310.297L352.378 307.177C353.494 306.628 353.979 305.328 353.461 304.274C352.942 303.22 351.616 302.811 350.5 303.36L344.158 306.48L341.247 300.565L347.59 297.444C348.706 296.895 349.191 295.595 348.672 294.541C348.154 293.487 346.828 293.078 345.712 293.627L339.369 296.747L336.459 290.832L342.801 287.712C343.918 287.162 344.402 285.862 343.884 284.808C343.365 283.755 342.039 283.345 340.923 283.894L334.581 287.015L331.67 281.099L338.013 277.979C339.129 277.43 339.614 276.129 339.095 275.076C338.577 274.022 337.251 273.612 336.135 274.161L329.792 277.282L326.882 271.367L333.225 268.246C334.341 267.697 334.825 266.397 334.307 265.343C333.789 264.289 332.463 263.88 331.347 264.429L323.184 268.445C323.149 268.462 323.116 268.482 323.082 268.501ZM241.388 417.487L229.355 393.028C243.647 387.161 259.87 392.171 267.288 404.744L241.388 417.487ZM364.057 357.135L338.157 369.878C332.723 356.328 338.654 340.419 352.024 332.677L364.057 357.135ZM336.758 301.647L350.139 328.845C334.542 337.697 327.641 356.211 334.099 371.875L271.347 402.748C262.879 388.074 244 382.243 227.47 389.197L214.089 361.999C229.685 353.147 236.586 334.633 230.129 318.97L292.881 288.096C301.348 302.771 320.228 308.601 336.758 301.647ZM322.839 273.357L334.872 297.815C320.58 303.683 304.357 298.673 296.939 286.099L322.839 273.357ZM226.07 320.966C231.504 334.516 225.574 350.425 212.204 358.167L200.17 333.709L226.07 320.966Z" fill="black"/>
<path d="M244.05 403.374C244.028 403.516 244.022 403.657 244.028 403.796C244.034 403.936 244.053 404.076 244.085 404.211C244.155 404.48 244.28 404.735 244.453 404.958C244.539 405.066 244.639 405.167 244.746 405.256C244.853 405.346 244.968 405.428 245.093 405.493C245.219 405.561 245.351 405.619 245.486 405.663C245.623 405.702 245.766 405.73 245.912 405.746C246.054 405.763 246.201 405.762 246.345 405.75C246.49 405.738 246.637 405.713 246.777 405.676C246.92 405.633 247.061 405.58 247.192 405.515C247.323 405.45 247.449 405.373 247.569 405.286C247.684 405.198 247.794 405.097 247.891 404.989C247.989 404.882 248.079 404.767 248.156 404.642C248.232 404.517 248.295 404.388 248.347 404.255C248.394 404.122 248.433 403.98 248.452 403.84C248.476 403.702 248.485 403.559 248.479 403.42C248.474 403.28 248.451 403.141 248.419 403.007C248.385 402.869 248.336 402.736 248.275 402.612C248.213 402.487 248.139 402.37 248.051 402.259C247.964 402.152 247.868 402.049 247.761 401.959C247.654 401.87 247.535 401.79 247.41 401.721C247.287 401.651 247.153 401.599 247.018 401.555C246.465 401.384 245.843 401.437 245.314 401.698C244.782 401.959 244.359 402.42 244.157 402.962C244.11 403.096 244.073 403.233 244.05 403.374Z" fill="black"/>
<path d="M215.773 339.706C215.87 339.598 215.959 339.48 216.037 339.359C216.11 339.235 216.176 339.105 216.226 338.969C216.275 338.839 216.314 338.697 216.333 338.557C216.357 338.419 216.366 338.276 216.359 338.133C216.353 337.994 216.331 337.855 216.298 337.721C216.264 337.583 216.217 337.452 216.156 337.329C215.908 336.826 215.45 336.439 214.899 336.271C214.761 336.229 214.618 336.201 214.475 336.184C214.33 336.168 214.184 336.169 214.039 336.181C213.894 336.193 213.747 336.218 213.608 336.259C213.464 336.298 213.327 336.35 213.195 336.415C213.064 336.479 212.936 336.558 212.817 336.648C212.7 336.734 212.59 336.835 212.492 336.942C212.395 337.05 212.305 337.165 212.228 337.289C212.155 337.413 212.089 337.543 212.039 337.679C211.788 338.351 211.896 339.116 212.333 339.672C212.419 339.779 212.519 339.88 212.626 339.97C212.735 340.063 212.85 340.144 212.974 340.21C213.1 340.278 213.233 340.335 213.366 340.376C213.504 340.419 213.648 340.447 213.79 340.464C213.934 340.476 214.081 340.479 214.226 340.467C214.371 340.455 214.517 340.427 214.657 340.389C214.801 340.35 214.942 340.296 215.073 340.232C215.205 340.167 215.33 340.09 215.449 340C215.564 339.911 215.675 339.813 215.773 339.706Z" fill="black"/>
<path d="M347.89 352.286C347.868 352.427 347.862 352.568 347.864 352.71C347.87 352.849 347.892 352.988 347.925 353.122C347.995 353.392 348.12 353.647 348.293 353.87C348.379 353.977 348.476 354.08 348.583 354.17C348.693 354.258 348.808 354.339 348.932 354.404C349.058 354.473 349.191 354.53 349.326 354.575C349.462 354.614 349.606 354.642 349.748 354.659C349.894 354.675 350.04 354.674 350.185 354.662C350.33 354.65 350.476 354.625 350.617 354.587C350.759 354.545 350.897 354.493 351.032 354.427C351.163 354.362 351.288 354.285 351.409 354.198C351.524 354.109 351.633 354.008 351.731 353.901C351.829 353.793 351.919 353.678 351.996 353.554C352.072 353.429 352.134 353.3 352.186 353.167C352.233 353.033 352.273 352.892 352.292 352.752C352.316 352.613 352.325 352.471 352.319 352.331C352.314 352.192 352.291 352.053 352.258 351.919C352.224 351.781 352.175 351.647 352.114 351.523C352.053 351.399 351.979 351.281 351.891 351.171C351.804 351.064 351.708 350.961 351.601 350.871C351.494 350.781 351.375 350.702 351.249 350.633C351.127 350.563 350.993 350.511 350.858 350.466C350.305 350.296 349.683 350.349 349.154 350.609C348.621 350.871 348.199 351.332 347.997 351.874C347.95 352.008 347.912 352.144 347.89 352.286Z" fill="black"/>
<path d="M319.612 288.618C319.71 288.51 319.799 288.392 319.877 288.271C319.95 288.147 320.016 288.017 320.066 287.881C320.115 287.751 320.15 287.611 320.173 287.469C320.197 287.331 320.206 287.188 320.199 287.045C320.193 286.906 320.171 286.767 320.138 286.633C320.104 286.495 320.057 286.364 319.996 286.241C319.748 285.738 319.287 285.353 318.739 285.183C318.601 285.141 318.457 285.113 318.315 285.096C318.169 285.081 318.024 285.081 317.879 285.093C317.734 285.105 317.587 285.13 317.448 285.171C317.304 285.21 317.166 285.262 317.035 285.326C316.904 285.391 316.775 285.47 316.656 285.56C316.539 285.646 316.43 285.747 316.332 285.854C316.234 285.962 316.145 286.077 316.068 286.201C315.995 286.325 315.929 286.455 315.879 286.591C315.628 287.263 315.736 288.028 316.173 288.584C316.259 288.691 316.356 288.794 316.463 288.884C316.571 288.976 316.69 289.056 316.814 289.122C316.936 289.192 317.072 289.247 317.206 289.288C317.344 289.331 317.488 289.359 317.63 289.376C317.774 289.388 317.921 289.39 318.066 289.379C318.211 289.367 318.356 289.339 318.497 289.301C318.641 289.262 318.782 289.208 318.913 289.144C319.045 289.079 319.17 289.002 319.288 288.911C319.404 288.823 319.514 288.725 319.612 288.618Z" fill="black"/>
<path d="M273.678 388.797C273.656 388.939 273.647 389.082 273.652 389.221C273.658 389.361 273.68 389.5 273.713 389.634C273.783 389.904 273.908 390.158 274.081 390.381C274.167 390.489 274.264 390.591 274.371 390.681C274.477 390.771 274.596 390.851 274.721 390.916C274.843 390.986 274.979 391.042 275.114 391.086C275.251 391.126 275.391 391.155 275.536 391.171C275.682 391.186 275.828 391.185 275.973 391.173C276.118 391.161 276.265 391.136 276.405 391.099C276.548 391.057 276.685 391.005 276.816 390.94C276.948 390.875 277.076 390.796 277.197 390.709C277.312 390.621 277.422 390.52 277.519 390.412C277.617 390.305 277.707 390.19 277.78 390.067C277.857 389.942 277.923 389.811 277.975 389.679C278.022 389.545 278.057 389.405 278.08 389.263C278.104 389.125 278.11 388.984 278.104 388.845C278.098 388.705 278.079 388.564 278.047 388.43C278.009 388.294 277.96 388.161 277.899 388.037C277.838 387.912 277.763 387.795 277.679 387.683C277.592 387.575 277.493 387.474 277.386 387.384C277.279 387.295 277.163 387.213 277.038 387.145C276.912 387.076 276.781 387.022 276.646 386.978C276.093 386.807 275.471 386.861 274.938 387.123C274.409 387.383 273.987 387.843 273.785 388.385C273.738 388.519 273.697 388.658 273.678 388.797Z" fill="black"/>
<path d="M245.961 323.98C245.985 323.842 245.994 323.699 245.987 323.557C245.981 323.417 245.959 323.278 245.926 323.144C245.893 323.01 245.841 322.877 245.78 322.754C245.533 322.251 245.074 321.864 244.527 321.695C243.974 321.524 243.355 321.576 242.823 321.838C242.688 321.904 242.563 321.982 242.444 322.072C242.327 322.157 242.218 322.258 242.12 322.366C242.022 322.473 241.932 322.588 241.856 322.713C241.782 322.836 241.717 322.967 241.666 323.102C241.415 323.775 241.524 324.539 241.96 325.095C242.047 325.203 242.143 325.305 242.25 325.395C242.359 325.488 242.477 325.568 242.602 325.633C242.724 325.703 242.86 325.759 242.993 325.8C243.132 325.842 243.275 325.871 243.417 325.887C243.561 325.9 243.709 325.902 243.854 325.89C243.999 325.878 244.144 325.85 244.284 325.812C244.428 325.773 244.566 325.721 244.701 325.655C245.23 325.395 245.652 324.934 245.854 324.392C245.903 324.262 245.942 324.12 245.961 323.98Z" fill="black"/>
<path d="M318.262 366.863C318.239 367.004 318.233 367.145 318.239 367.285C318.245 367.424 318.264 367.565 318.297 367.699C318.367 367.969 318.492 368.224 318.664 368.447C318.751 368.554 318.851 368.655 318.958 368.745C319.065 368.835 319.18 368.916 319.304 368.981C319.43 369.05 319.562 369.107 319.701 369.15C319.834 369.191 319.977 369.219 320.123 369.234C320.266 369.251 320.412 369.251 320.556 369.239C320.701 369.227 320.848 369.202 320.991 369.163C321.13 369.122 321.272 369.069 321.403 369.004C321.534 368.939 321.659 368.862 321.78 368.775C321.895 368.687 322.004 368.586 322.102 368.478C322.2 368.37 322.29 368.255 322.367 368.131C322.443 368.006 322.505 367.877 322.557 367.744C322.608 367.609 322.644 367.469 322.666 367.327C322.687 367.191 322.696 367.048 322.69 366.909C322.684 366.769 322.662 366.63 322.629 366.496C322.595 366.358 322.546 366.225 322.485 366.101C322.424 365.976 322.349 365.859 322.261 365.748C322.175 365.641 322.078 365.538 321.972 365.448C321.865 365.359 321.746 365.279 321.624 365.209C321.498 365.14 321.367 365.086 321.229 365.043C320.676 364.873 320.057 364.925 319.525 365.187C318.992 365.448 318.57 365.909 318.372 366.449C318.322 366.584 318.284 366.721 318.262 366.863Z" fill="black"/>
<path d="M286.544 303.16C286.631 303.268 286.73 303.369 286.837 303.459C286.946 303.551 287.061 303.633 287.185 303.698C287.311 303.767 287.444 303.824 287.577 303.865C288.13 304.036 288.752 303.982 289.285 303.72C289.416 303.656 289.541 303.578 289.66 303.488C289.775 303.4 289.886 303.302 289.984 303.195C290.082 303.087 290.17 302.969 290.248 302.847C290.325 302.722 290.387 302.593 290.438 302.458C290.49 302.326 290.526 302.186 290.548 302.044C290.569 301.907 290.578 301.764 290.57 301.622C290.565 301.483 290.542 301.343 290.51 301.209C290.476 301.072 290.428 300.941 290.367 300.817C290.12 300.315 289.661 299.928 289.111 299.76C288.972 299.718 288.832 299.688 288.687 299.673C288.541 299.657 288.395 299.658 288.25 299.67C288.105 299.682 287.959 299.707 287.82 299.748C287.676 299.787 287.538 299.839 287.407 299.903C286.874 300.165 286.452 300.626 286.25 301.168C285.999 301.84 286.108 302.605 286.544 303.16Z" fill="black"/>
</g>
<path d="M499.396 242.632C499.396 242.632 493.061 221.132 500.588 205.298C503.785 198.679 504.75 191.202 503.336 183.989C502.638 180.57 501.629 177.223 500.32 173.989" stroke="#535461" stroke-width="2"/>
<path d="M504.996 163.981C504.996 166.618 500.218 174.259 500.218 174.259C500.218 174.259 495.44 166.615 495.44 163.981C495.44 161.342 497.58 159.203 500.218 159.203C502.857 159.203 504.997 161.342 504.997 163.981H504.996Z" fill="#6C63FF"/>
<path d="M512.902 178.582C511.468 180.794 503.308 184.616 503.308 184.616C503.308 184.616 503.456 175.605 504.889 173.396C506.372 171.312 509.232 170.766 511.379 172.156C513.526 173.546 514.197 176.38 512.902 178.586V178.582Z" fill="#6C63FF"/>
<path d="M512.54 203.527C510.184 204.712 501.211 203.895 501.211 203.895C501.211 203.895 505.889 196.193 508.239 195.008C509.772 194.153 511.649 194.207 513.13 195.148C514.61 196.089 515.456 197.766 515.333 199.516C515.21 201.266 514.138 202.808 512.54 203.532V203.527Z" fill="#6C63FF"/>
<path d="M508.03 222.348C505.908 223.915 496.926 224.622 496.926 224.622C496.926 224.622 500.232 216.241 502.354 214.674C504.474 213.258 507.332 213.756 508.848 215.805C510.364 217.855 510.004 220.734 508.03 222.347V222.348Z" fill="#6C63FF"/>
<path d="M493.271 185.123C495.182 186.958 503.968 188.865 503.968 188.865C503.968 188.865 501.813 180.116 499.921 178.282C498.01 176.588 495.105 176.696 493.325 178.528C491.546 180.36 491.522 183.268 493.271 185.129V185.123Z" fill="#6C63FF"/>
<path d="M488.272 207.202C490.628 208.387 499.601 207.57 499.601 207.57C499.601 207.57 494.923 199.868 492.573 198.683C490.24 197.625 487.488 198.596 486.335 200.882C485.181 203.169 486.036 205.959 488.272 207.207V207.202Z" fill="#6C63FF"/>
<path d="M486.362 229.324C488.483 230.892 497.465 231.599 497.465 231.599C497.465 231.599 494.159 223.219 492.038 221.651C490.673 220.539 488.807 220.268 487.182 220.945C485.558 221.622 484.437 223.138 484.265 224.889C484.093 226.641 484.899 228.346 486.362 229.325V229.324Z" fill="#6C63FF"/>
<path d="M468.679 307.68C468.679 307.68 462.344 286.179 469.871 270.345C473.069 263.727 474.033 256.249 472.619 249.036C471.921 245.618 470.912 242.27 469.603 239.036" stroke="#535461" stroke-width="2"/>
<path d="M474.279 229.028C474.279 231.666 469.501 239.306 469.501 239.306C469.501 239.306 464.724 231.662 464.724 229.028C464.724 226.39 466.863 224.25 469.502 224.25C472.141 224.25 474.28 226.39 474.28 229.028H474.279Z" fill="#6C63FF"/>
<path d="M482.185 243.629C480.751 245.842 472.591 249.664 472.591 249.664C472.591 249.664 472.739 240.653 474.172 238.444C475.655 236.36 478.516 235.813 480.662 237.203C482.809 238.594 483.48 241.428 482.185 243.633V243.629Z" fill="#6C63FF"/>
<path d="M481.822 268.575C479.467 269.76 470.494 268.943 470.494 268.943C470.494 268.943 475.172 261.241 477.522 260.056C479.054 259.201 480.932 259.255 482.412 260.196C483.893 261.137 484.739 262.813 484.616 264.563C484.493 266.314 483.42 267.855 481.822 268.58V268.575Z" fill="#6C63FF"/>
<path d="M477.313 287.395C475.191 288.962 466.209 289.669 466.209 289.669C466.209 289.669 469.515 281.288 471.637 279.721C473.757 278.305 476.615 278.803 478.131 280.853C479.648 282.903 479.287 285.782 477.313 287.394V287.395Z" fill="#6C63FF"/>
<path d="M462.553 250.171C464.464 252.005 473.251 253.912 473.251 253.912C473.251 253.912 471.096 245.164 469.204 243.329C467.293 241.635 464.387 241.744 462.608 243.576C460.828 245.408 460.804 248.315 462.553 250.176V250.171Z" fill="#6C63FF"/>
<path d="M457.556 272.249C459.911 273.434 468.884 272.617 468.884 272.617C468.884 272.617 464.206 264.915 461.856 263.73C459.523 262.673 456.771 263.643 455.618 265.93C454.464 268.217 455.319 271.006 457.556 272.254V272.249Z" fill="#6C63FF"/>
<path d="M455.645 294.372C457.766 295.939 466.748 296.646 466.748 296.646C466.748 296.646 463.442 288.266 461.321 286.699C459.956 285.587 458.091 285.316 456.466 285.993C454.841 286.67 453.72 288.185 453.548 289.937C453.377 291.689 454.182 293.393 455.645 294.373V294.372Z" fill="#6C63FF"/>
<path d="M79.786 343.539C91.9176 343.539 101.752 341.876 101.752 339.824C101.752 337.772 91.9176 336.109 79.786 336.109C67.6544 336.109 57.8198 337.772 57.8198 339.824C57.8198 341.876 67.6544 343.539 79.786 343.539Z" fill="#4D8AF0"/>
<path d="M88.8661 333.749C89.8685 332.931 90.5999 331.829 90.9639 330.587C91.2939 329.304 90.6841 327.964 89.4994 327.369C88.156 326.856 86.7187 327.785 85.6319 328.73C84.545 329.675 83.2938 330.74 81.8681 330.544C83.3597 329.193 84.0318 327.158 83.638 325.185C83.5761 324.783 83.4062 324.405 83.1465 324.092C82.3984 323.295 81.0487 323.641 80.1525 324.267C77.3121 326.266 76.5198 330.123 76.5035 333.597C76.3476 332.328 76.3309 331.046 76.4538 329.773C76.4484 328.508 76.0925 327.042 75.0083 326.37C74.3391 326.003 73.586 325.816 72.8229 325.828C71.5445 325.785 70.1244 325.91 69.2498 326.844C68.1576 328.008 68.4467 329.953 69.3917 331.214C70.4496 332.4 71.6978 333.4 73.0849 334.175C74.1446 334.805 75.0485 335.666 75.7293 336.694C75.8083 336.838 75.8742 336.989 75.9262 337.145H83.9298C85.719 336.244 87.3783 335.104 88.8626 333.758L88.8661 333.749Z" fill="#4D8AF0"/>
<path d="M159.288 309.208C171.42 309.208 181.255 307.545 181.255 305.493C181.255 303.442 171.42 301.779 159.288 301.779C147.157 301.779 137.322 303.442 137.322 305.493C137.322 307.545 147.157 309.208 159.288 309.208Z" fill="#4D8AF0"/>
<path d="M168.369 299.419C169.371 298.601 170.102 297.498 170.466 296.257C170.796 294.973 170.187 293.633 169.002 293.039C167.658 292.525 166.221 293.454 165.134 294.399C164.047 295.344 162.796 296.409 161.371 296.213C162.862 294.863 163.534 292.827 163.14 290.854C163.079 290.452 162.909 290.075 162.649 289.762C161.901 288.964 160.551 289.31 159.655 289.936C156.815 291.935 156.022 295.792 156.006 299.267C155.85 297.998 155.833 296.715 155.956 295.443C155.951 294.178 155.595 292.712 154.511 292.039C153.841 291.673 153.088 291.486 152.325 291.497C151.047 291.454 149.627 291.58 148.752 292.514C147.66 293.677 147.949 295.622 148.894 296.884C149.952 298.069 151.2 299.07 152.587 299.844C153.647 300.474 154.551 301.335 155.232 302.363C155.311 302.507 155.377 302.659 155.429 302.815H163.432C165.221 301.913 166.881 300.774 168.365 299.428L168.369 299.419Z" fill="#4D8AF0"/>
<defs>
<clipPath id="clip0_100_878">
<rect width="129.191" height="129.191" fill="white" transform="translate(79.5024 170.948)"/>
</clipPath>
<clipPath id="clip1_100_878">
<rect width="154.984" height="164.144" fill="white" transform="translate(242.781 451.135) rotate(-116.197)"/>
</clipPath>
</defs>
</svg>
