<svg width="621" height="587" viewBox="0 0 621 587" fill="none" xmlns="http://www.w3.org/2000/svg">
<path d="M362.047 552.054C489.871 552.054 593.492 522.448 593.492 485.927C593.492 449.406 489.871 419.8 362.047 419.8C234.224 419.8 130.603 449.406 130.603 485.927C130.603 522.448 234.224 552.054 362.047 552.054Z" fill="#F5F5F5"/>
<path d="M546.982 228.687C546.982 228.687 505.984 269.685 529.124 330.522C552.264 391.36 489.447 492.533 489.447 492.533C489.447 492.533 490.108 492.436 491.371 492.216C575.577 477.351 617.415 381.044 570.592 309.5C553.211 282.904 538.894 251.699 546.982 228.687Z" fill="#6C63FF"/>
<path d="M546.982 228.687C546.982 228.687 523.838 278.943 546.982 319.942C570.127 360.942 550.95 476.002 489.452 492.533" stroke="#535461" stroke-width="2"/>
<path d="M620 394.513C620 394.513 573.219 387.061 568.949 428.992C564.679 470.923 479.017 476.729 479.017 476.729C479.017 476.729 479.573 477.112 480.625 477.797C551.378 524.244 619.026 507.382 608.835 445.705C605.016 422.783 605.32 399.75 620 394.513Z" fill="#6C63FF"/>
<path opacity="0.2" d="M620 394.513C620 394.513 573.219 387.061 568.949 428.992C564.679 470.923 479.017 476.729 479.017 476.729C479.017 476.729 479.573 477.112 480.625 477.797C551.378 524.244 619.026 507.382 608.835 445.705C605.016 422.783 605.32 399.75 620 394.513Z" fill="#F5F5F5"/>
<path d="M620 394.513C620 394.513 583.683 402.488 586.665 435.512C589.648 468.536 532.712 508.11 478.991 476.716" stroke="#535461" stroke-width="2"/>
<path opacity="0.128" d="M136.687 0.0742625C129.408 -0.169347 121.953 0.0742625 115.128 2.53171C96.5578 9.21399 87.7588 31.0748 90.617 50.0084C93.4753 68.942 105.252 85.3823 117.467 100.447C129.681 115.512 142.917 130.385 149.616 148.368C152.957 157.351 154.518 167.415 151.123 176.381C145.882 190.208 130.096 197.937 114.938 199.539C99.7801 201.141 84.5598 198.014 69.3463 196.925C62.963 196.49 56.4001 196.44 50.3875 198.459C43.7877 200.663 38.2895 205.156 33.2339 209.846C13.5073 228.231 -2.28264 253.327 0.271864 279.671C3.16121 309.539 28.9275 333.149 57.1464 345.811C66.491 350.01 76.3761 353.408 84.6015 359.398C106.269 375.204 111.136 404.82 108.978 430.966C106.82 457.112 99.4666 483.287 103.561 509.208C108.373 539.354 129.669 566.582 158.398 579.303C183.992 590.629 216.025 589.924 238.748 573.901C249.826 566.06 258.204 555.247 265.49 544.033C276.456 527.178 285.382 509.079 292.078 490.118C295.247 481.135 298.227 471.472 305.62 465.225C310.134 461.382 315.985 459.231 321.771 457.557C339.214 452.521 357.585 451.136 375.191 446.658C392.797 442.18 410.509 433.832 420.079 418.908C433.621 397.727 427.302 370.638 427.365 345.719C427.474 288.942 462.674 238.116 475.666 182.788C479.909 164.7 481.489 144.687 472.01 128.559C465.564 117.555 454.703 109.713 443.281 103.616C418.184 90.1632 389.654 84.1778 361.586 78.3486C322.575 70.2629 275.206 69.2176 244.968 43.0612C215.956 17.9703 176.254 0.0742625 136.687 0.0742625Z" fill="#6C63FF"/>
<g opacity="0.5">
<path d="M224.211 237.578C224.21 227.198 222.585 216.883 219.395 207.006L211.455 182.385V181.168C211.7 165.397 199.407 157.528 194.672 158.381C189.825 159.254 176.375 152.509 176.375 152.509V152.694C175.453 151.633 174.621 150.497 173.889 149.297C178.583 145.878 181.701 140.71 182.536 134.963C183.371 129.215 181.854 123.374 178.326 118.76C179.78 117.667 180.889 116.18 181.52 114.475C182.618 111.386 181.778 107.862 179.993 105.111C179.233 103.962 178.346 102.904 177.348 101.956C175.835 100.458 174.183 99.1075 172.414 97.9228C168.004 94.8675 163.156 92.2422 157.867 91.3104C156.952 91.0944 155.999 91.0944 155.083 91.3104C154.289 91.6312 153.533 92.0394 152.829 92.5275C149.205 94.5909 144.695 93.698 140.516 93.4796C136.337 93.2613 131.258 94.4317 129.937 98.3528C129.65 99.5944 129.429 100.85 129.276 102.116C128.615 105.157 126.267 107.518 124.455 110.051C122.643 112.584 121.288 116.002 122.796 118.753C123.311 119.679 124.119 120.532 124.119 121.59C124.001 122.34 123.778 123.07 123.458 123.759C123.134 125.466 123.802 127.209 125.183 128.262C125.753 128.877 126.424 129.389 127.167 129.776C129.264 130.844 131.677 131.178 133.813 132.17C134.879 132.671 135.857 133.341 136.709 134.154C138.817 136.361 139.951 139.322 139.856 142.373L140.299 142.42V142.808C140.762 142.861 141.251 142.905 141.733 142.928C142.428 144.049 143.222 145.104 144.107 146.082C143.957 146.646 143.787 147.219 143.598 147.802C142.045 148.88 129.331 157.344 114.879 155.307C99.4471 153.131 90.6306 220.581 90.6306 220.581C90.0589 224.438 89.7805 228.333 89.7978 232.232C89.7318 242.151 91.8146 255.132 103.42 253.221L109.589 251.19V284.553C109.589 284.553 110.469 293.692 107.387 299.763C104.306 305.833 117.093 303.677 117.093 303.677C117.093 303.677 117.578 304.186 118.482 305.052L118.197 305.853L118.574 306.241C116.893 311.989 114.626 317.548 111.809 322.833L112.173 323.018C111.942 323.462 111.809 323.679 111.809 323.679C111.809 323.679 116.557 326.105 123.09 329.234C128.341 346.982 139.833 388.086 136.051 395.916L136.156 396.141C136.864 397.609 140.815 406.265 140.018 414.193C139.297 421.278 149.11 453.492 152.774 465.19L151.042 465.54L157.212 487.733L155.889 502.097C155.889 502.097 148.397 522.114 166.026 518.199C183.655 514.284 178.808 498.182 178.808 498.182L179.251 465.542C179.251 465.542 177.552 464.597 175.455 463.69C174.014 459.796 170.873 450.588 170.873 444.223C170.873 435.957 165.14 400.269 165.14 400.269V400.017L165.107 399.541V399.461C165.107 399.017 165.034 398.41 164.982 397.669V397.623C164.321 387.974 162.337 355.196 163.785 338.108C165.059 337.24 166.384 336.449 167.753 335.741C172.045 346.586 183.108 375.887 182.4 388.18C181.52 403.39 182.181 391.447 182.4 389.503C182.466 388.901 182.512 389.629 182.532 391.262V397.696C182.532 399.018 182.532 400.486 182.485 402.014V402.939C182.485 403.872 182.485 404.824 182.438 405.79C182.438 407.113 182.386 408.395 182.359 409.725C182.293 412.7 182.206 415.709 182.101 418.527C182.101 418.84 182.09 419.151 182.068 419.459C182.046 420.077 182.021 420.681 181.995 421.271C181.968 421.862 181.942 422.44 181.915 423.004C181.889 423.563 181.86 424.108 181.829 424.637C181.796 425.258 181.756 425.854 181.723 426.423L179.33 426.079L178.82 431.582C178.018 440.315 179.147 449.118 182.125 457.366C182.945 459.628 183.581 461.499 183.719 462.167C184.162 464.343 183.719 480.025 183.719 480.025C183.719 480.025 186.363 500.477 198.71 496.556C204.264 494.791 206.959 489.421 208.251 484.036C209.682 477.796 209.148 471.267 206.724 465.342C204.971 460.938 203.179 454.763 204.442 449.988C206.644 441.722 206.644 429.971 206.644 429.971L205.285 429.777C205.625 429.132 205.931 428.47 206.204 427.793C206.204 427.793 205.762 397.765 209.728 393.85C211.91 391.695 211.712 386.517 211.051 382.284C210.107 376.16 209.885 369.945 210.39 363.769C210.485 361.42 210.86 359.091 211.508 356.832C212.673 354.531 213.838 331.334 208.685 320.171L209.743 319.84L209.578 319.02L209.743 318.968C210.52 321.042 211.403 323.075 212.388 325.058C212.648 325.262 212.947 325.411 213.267 325.495C227.544 322.989 228.117 309.664 227.326 302.39C227.927 302.681 228.258 302.866 228.258 302.866L229.581 283.689C230.955 280.123 231.576 276.312 231.407 272.494C231.459 257.392 224.211 237.578 224.211 237.578ZM208.473 292.086C207.494 283.735 206.138 275.872 206.138 275.872L199.526 252.371V243.815L210.014 282.962L208.473 292.086Z" fill="url(#paint0_linear_0_3)"/>
</g>
<path d="M178.742 420.461L178.257 425.837C177.484 434.379 178.576 442.987 181.46 451.064C182.247 453.28 182.862 455.105 182.994 455.759C183.418 457.888 182.994 473.197 182.994 473.197C182.994 473.197 185.547 493.191 197.456 489.359C202.812 487.64 205.391 482.382 206.661 477.13C208.037 471.033 207.52 464.661 205.179 458.866C203.487 454.56 201.754 448.511 202.977 443.861C205.107 435.78 205.107 424.3 205.107 424.3L178.742 420.461Z" fill="#5A5773"/>
<path d="M165.987 328.175C165.987 328.175 182.572 368.578 181.719 383.456C180.866 398.335 181.508 386.644 181.719 384.733C182.096 381.327 181.719 421.763 180.443 426.393C180.443 426.393 197.881 439.149 204.684 422.141C204.684 422.141 204.261 392.8 208.081 388.972C210.185 386.869 209.98 381.804 209.358 377.671C208.44 371.692 208.218 365.628 208.697 359.598C208.955 356.492 209.312 353.753 209.775 352.82C211.051 350.267 212.328 321.351 204.67 313.27L165.987 328.175Z" fill="#605D82"/>
<path opacity="0.1" d="M182.573 426.412C183.849 421.737 184.222 381.327 183.849 384.752C183.637 386.663 182.996 398.361 183.849 383.476C184.702 368.59 168.117 328.194 168.117 328.194L205.22 313.927C205.049 313.708 204.87 313.504 204.692 313.311L165.994 328.195C165.994 328.195 182.579 368.598 181.726 383.477C180.873 398.355 181.515 386.664 181.726 384.753C182.103 381.347 181.726 421.784 180.45 426.413C180.45 426.413 187.413 431.506 194.257 430.963C188.167 430.506 182.573 426.412 182.573 426.412Z" fill="black"/>
<path d="M151.525 459.163L157.477 480.852L156.2 494.879C156.2 494.879 148.973 514.44 165.981 510.611C182.989 506.782 178.314 491.051 178.314 491.051L178.737 459.158C178.737 459.158 171.932 455.329 168.956 455.761C165.981 456.193 151.525 459.163 151.525 459.163Z" fill="#5A5773"/>
<path d="M122.185 317.971C122.185 317.971 141.742 381.334 137.071 391.112C137.071 391.112 141.746 400.469 140.9 408.97C140.053 417.471 154.509 462.976 154.509 462.976L175.776 459.147C175.776 459.147 170.67 446.391 170.67 438.31C170.67 430.229 165.138 395.327 165.138 395.327C165.138 395.327 160.463 331.535 165.991 324.73L122.185 317.971Z" fill="#605D82"/>
<g opacity="0.1">
<path d="M164.341 329.914C160.817 344.355 164.712 397.502 164.712 397.502C164.712 397.502 170.244 432.371 170.244 440.485C170.244 446.655 173.213 455.542 174.621 459.404L175.771 459.199C175.771 459.199 170.666 446.443 170.666 438.363C170.666 430.282 165.134 395.38 165.134 395.38C165.134 395.38 161.577 346.809 164.341 329.914Z" fill="black"/>
<path d="M137.07 391.114L137.176 391.332C137.209 391.114 137.242 390.883 137.263 390.671C137.206 390.822 137.142 390.97 137.07 391.114Z" fill="black"/>
<path d="M165.029 326.819C165.222 326.085 165.547 325.393 165.987 324.776L122.185 317.971C122.185 317.971 122.444 318.798 122.886 320.272L165.029 326.819Z" fill="black"/>
</g>
<path d="M224.245 295.005C224.245 295.005 230.626 318.811 211.489 322.223C211.179 322.142 210.888 321.998 210.636 321.8C210.636 321.8 199.579 300.11 208.083 291.606L224.245 295.005Z" fill="#A1616A"/>
<path d="M145.998 136.823C145.998 136.823 147.274 154.681 133.242 163.188C119.21 171.695 162.999 195.081 162.999 195.081L185.966 158.507C185.966 158.507 176.192 159.769 170.243 142.775L145.998 136.823Z" fill="#A1616A"/>
<path opacity="0.1" d="M136.64 164.45C136.64 164.45 158.33 209.529 177.889 167.003L208.083 316.688C208.083 316.688 161.302 331.149 160.882 337.955C160.461 344.76 113.687 320.524 113.687 320.524C113.687 320.524 123.891 301.809 121.345 290.33C118.799 278.85 136.64 164.45 136.64 164.45Z" fill="black"/>
<path d="M136.64 163.597C136.64 163.597 158.33 208.676 177.889 166.15L208.083 315.842C208.083 315.842 161.302 330.303 160.882 337.109C160.461 343.914 113.687 319.673 113.687 319.673C113.687 319.673 123.891 300.958 121.345 289.479C118.799 277.999 136.64 163.597 136.64 163.597Z" fill="#E1E7EF"/>
<path d="M157.91 471.069C157.91 471.069 152.378 458.736 165.138 458.736C177.898 458.736 175.769 469.79 175.769 469.79L157.91 471.069Z" fill="#5A5773"/>
<path d="M186.824 439.168C186.824 439.168 181.719 425.983 194.482 425.559C207.245 425.135 200.863 437.462 200.863 437.462L186.824 439.168Z" fill="#5A5773"/>
<path opacity="0.1" d="M175.979 154.016C175.979 154.016 188.947 160.628 193.629 159.756C198.311 158.883 210.637 166.984 209.79 183.146L217.474 207.256C220.548 216.922 222.109 227.006 222.103 237.149C222.103 237.149 233.159 267.766 227.208 281.374L225.932 300.089C225.932 300.089 216.151 294.556 205.938 296.26L208.51 280.977L197.004 237.594L177.867 191.239L175.979 154.016Z" fill="black"/>
<path d="M175.979 153.177C175.979 153.177 188.947 159.789 193.629 158.916C198.311 158.044 210.637 166.144 209.79 182.307L217.474 206.416C220.548 216.083 222.109 226.166 222.103 236.31C222.103 236.31 233.159 266.927 227.208 280.535L225.932 299.249C225.932 299.249 216.151 293.717 205.938 295.42L208.491 280.112L197.007 236.741L177.887 190.387L175.979 153.177Z" fill="#67647E"/>
<path opacity="0.1" d="M197.458 204.847V252.901L203.839 275.867C203.839 275.867 208.091 300.956 206.815 308.613C205.538 316.27 185.125 317.97 179.596 311.589C174.068 305.207 177.044 250.752 177.044 250.752L175.976 171.037L176.829 168.484L197.458 204.847Z" fill="black"/>
<path d="M198.331 202.725V250.78L204.712 273.746C204.712 273.746 208.964 298.835 207.688 306.492C206.411 314.148 185.998 315.849 180.47 309.467C174.943 303.086 177.918 248.63 177.918 248.63L176.85 168.894L198.331 202.725Z" fill="#67647E"/>
<path opacity="0.1" d="M112.617 242.699L126.224 285.02L119.843 303.093C119.843 303.093 150.036 334.986 169.173 319.677C169.173 319.677 171.302 254.608 167.044 239.3C162.785 223.991 142.378 172.512 142.378 172.512L138.152 158.924L115.616 171.68L112.617 242.699Z" fill="black"/>
<path d="M111.552 240.571V282.231C111.552 282.231 112.405 291.16 109.423 297.117C106.44 303.073 118.78 300.946 118.78 300.946C118.78 300.946 148.973 332.838 168.11 317.53C168.11 317.53 170.24 252.461 165.981 237.153C161.722 221.844 141.315 170.365 141.315 170.365L137.063 156.756L114.527 169.512L111.552 240.571Z" fill="#67647E"/>
<path opacity="0.1" d="M144.509 149.354C144.509 149.354 131.541 158.922 116.654 156.793C101.767 154.663 93.2637 220.586 93.2637 220.586C93.2637 220.586 87.7315 254.608 105.597 251.632L145.147 238.446C145.147 238.446 136.643 229.517 137.919 218.032L118.779 225.688L119.639 189.119L144.509 149.354Z" fill="black"/>
<path opacity="0.1" d="M94.1139 219.733C94.1139 219.733 88.5817 253.755 106.447 250.78L145.997 237.594C145.997 237.594 137.493 228.665 138.769 217.18L119.639 224.838L94.1139 219.733Z" fill="black"/>
<path d="M137.831 221.664C137.831 221.664 151.102 204.213 160.876 212.591C170.649 220.969 141.335 236.324 141.335 236.324L137.831 221.664Z" fill="#A1616A"/>
<path d="M144.509 148.501C144.509 148.501 131.541 158.07 116.654 155.941C101.767 153.811 93.2637 219.733 93.2637 219.733C93.2637 219.733 87.7315 253.756 105.597 250.781L145.147 237.595C145.147 237.595 136.643 228.666 137.919 217.181L118.775 224.839L119.635 188.264L141.325 170.406L144.509 148.501Z" fill="#67647E"/>
<path opacity="0.1" d="M170.663 143.608L146.422 137.656C146.422 137.656 147.684 139.085 146.21 144.673C150.112 149.15 154.907 155.094 161.307 155.094C165.89 155.104 170.352 153.626 174.022 150.882C172.65 148.582 171.524 146.144 170.663 143.608Z" fill="black"/>
<path d="M160.882 154.248C172.628 154.248 182.149 144.727 182.149 132.981C182.149 121.236 172.628 111.714 160.882 111.714C149.137 111.714 139.616 121.236 139.616 132.981C139.616 144.727 149.137 154.248 160.882 154.248Z" fill="#A1616A"/>
<path opacity="0.1" d="M168.944 123.75C173.877 122.911 179.299 120.721 180.952 116C181.869 112.883 181.327 109.519 179.478 106.848C177.629 104.223 175.291 101.978 172.594 100.236C168.342 97.2462 163.653 94.6811 158.535 93.7814C157.653 93.5704 156.733 93.5704 155.851 93.7814C155.083 94.0953 154.353 94.4944 153.675 94.9713C150.181 96.9881 145.826 96.1155 141.772 95.904C137.718 95.6924 132.857 96.8367 131.581 100.666C131.184 101.85 131.211 103.126 130.92 104.342C130.259 107.318 128.017 109.632 126.292 112.112C124.566 114.592 123.236 117.944 124.691 120.616C125.187 121.522 126.014 122.355 126.014 123.387C125.887 124.12 125.664 124.834 125.353 125.51C124.751 127.705 126.503 129.92 128.527 130.965C130.55 132.011 132.878 132.334 134.941 133.306C138.885 135.252 141.331 139.319 141.203 143.715C143.081 143.933 145.27 144.045 146.541 142.647C147.11 142.019 147.388 141.178 147.9 140.512C148.664 139.721 149.516 139.02 150.439 138.422C154.889 134.765 151.729 129.713 154.247 125.772C155.57 123.741 157.673 124.364 159.802 124.397C162.863 124.467 165.923 124.25 168.944 123.75Z" fill="black"/>
<path d="M168.52 123.327C173.453 122.488 178.875 120.299 180.528 115.577C181.445 112.46 180.903 109.096 179.054 106.425C177.204 103.8 174.867 101.555 172.17 99.8126C167.918 96.8233 163.229 94.2581 158.111 93.3584C157.229 93.1474 156.309 93.1474 155.427 93.3584C154.659 93.6723 153.929 94.0715 153.251 94.5483C149.757 96.5651 145.402 95.6926 141.348 95.481C137.294 95.2694 132.434 96.4137 131.157 100.243C130.76 101.427 130.786 102.703 130.496 103.919C129.835 106.895 127.593 109.21 125.867 111.689C124.142 114.169 122.812 117.521 124.267 120.193C124.763 121.099 125.59 121.933 125.59 122.964C125.462 123.697 125.24 124.411 124.929 125.087C124.327 127.282 126.079 129.497 128.103 130.542C130.126 131.588 132.454 131.911 134.517 132.883C138.477 134.827 140.934 138.908 140.799 143.318C142.677 143.536 144.866 143.649 146.138 142.25C146.706 141.622 146.984 140.782 147.496 140.115C148.26 139.324 149.112 138.623 150.035 138.025C154.485 134.368 151.325 129.317 153.844 125.375C155.167 123.345 157.269 123.967 159.398 124C162.453 124.06 165.507 123.835 168.52 123.327Z" fill="#4A4347"/>
<path opacity="0.1" d="M194.264 194.856C194.264 194.856 198.939 219.099 196.816 228.455C195.519 233.898 195.711 239.59 197.372 244.934" fill="black"/>
<path opacity="0.1" d="M118.686 205.06C118.686 205.06 116.648 221.221 120.045 224.62L118.686 205.06Z" fill="black"/>
<path d="M237.431 404.227C237.979 404.227 238.423 403.783 238.423 403.236C238.423 402.688 237.979 402.244 237.431 402.244C236.883 402.244 236.439 402.688 236.439 403.236C236.439 403.499 236.544 403.751 236.73 403.937C236.916 404.123 237.168 404.227 237.431 404.227Z" fill="black"/>
<g opacity="0.5">
<path d="M542.852 288.67V288.122L362.431 149.387C362.197 149.214 361.878 149.214 361.644 149.387L181.217 288.122V503.166H181.56V503.509H543.202V288.465L542.852 288.67Z" fill="url(#paint1_linear_0_3)"/>
</g>
<path d="M536.623 497.171H187.472V289.53L362.047 155.292L536.623 289.53V497.171Z" fill="white"/>
<path d="M524.058 484.862H200.035V292.169L362.047 167.592L524.058 292.169V484.862Z" fill="#E0E0E0"/>
<path d="M417.01 164.712L219.357 216.529L285.259 467.913L482.912 416.096L417.01 164.712Z" fill="#6C63FF"/>
<path d="M465.205 202.904H260.873V462.783H465.205V202.904Z" fill="#F5F5F5"/>
<path opacity="0.05" d="M189.126 289.861L363.701 393.68L189.126 497.5V289.861Z" fill="black"/>
<path d="M187.803 289.861L362.378 393.68L187.803 497.5V289.861Z" fill="white"/>
<path opacity="0.05" d="M535.63 289.861L361.055 393.68L535.63 497.5V289.861Z" fill="black"/>
<path d="M536.952 289.861L362.378 393.68L536.952 497.5V289.861Z" fill="white"/>
<path opacity="0.05" d="M187.803 494.189L362.378 357.972L536.953 494.189H187.803Z" fill="black"/>
<path d="M187.803 497.495L362.378 361.277L536.953 497.495H187.803Z" fill="white"/>
<path d="M223.28 513.273C223.28 513.273 214.512 483.516 224.93 461.602C229.356 452.441 230.69 442.093 228.733 432.109C227.767 427.378 226.37 422.746 224.56 418.269" stroke="#535461" stroke-width="2"/>
<path d="M231.03 404.419C231.03 408.069 224.418 418.643 224.418 418.643C224.418 418.643 217.805 408.064 217.805 404.419C217.805 400.766 220.766 397.806 224.418 397.806C228.071 397.806 231.031 400.766 231.031 404.419H231.03Z" fill="#6C63FF"/>
<path d="M241.973 424.627C239.989 427.689 228.694 432.978 228.694 432.978C228.694 432.978 228.899 420.507 230.883 417.449C232.935 414.565 236.894 413.809 239.865 415.733C242.836 417.657 243.765 421.579 241.973 424.631V424.627Z" fill="#6C63FF"/>
<path d="M241.471 459.151C238.21 460.791 225.792 459.661 225.792 459.661C225.792 459.661 232.266 449.001 235.519 447.361C237.64 446.178 240.238 446.252 242.287 447.554C244.337 448.857 245.507 451.177 245.337 453.599C245.166 456.022 243.682 458.156 241.471 459.158V459.151Z" fill="#6C63FF"/>
<path d="M235.229 485.199C232.293 487.368 219.861 488.346 219.861 488.346C219.861 488.346 224.437 476.747 227.373 474.578C230.308 472.618 234.264 473.308 236.362 476.144C238.461 478.981 237.962 482.966 235.229 485.198V485.199Z" fill="#6C63FF"/>
<path d="M214.802 433.68C217.447 436.219 229.608 438.858 229.608 438.858C229.608 438.858 226.626 426.75 224.007 424.211C221.362 421.867 217.341 422.017 214.878 424.552C212.415 427.088 212.382 431.112 214.802 433.688V433.68Z" fill="#6C63FF"/>
<path d="M207.885 464.237C211.145 465.877 223.564 464.746 223.564 464.746C223.564 464.746 217.09 454.087 213.837 452.447C210.608 450.983 206.8 452.326 205.203 455.491C203.607 458.656 204.79 462.517 207.885 464.244V464.237Z" fill="#6C63FF"/>
<path d="M205.241 494.855C208.176 497.024 220.608 498.003 220.608 498.003C220.608 498.003 216.032 486.404 213.096 484.235C211.207 482.696 208.626 482.321 206.377 483.258C204.128 484.195 202.577 486.292 202.339 488.717C202.101 491.142 203.216 493.5 205.241 494.856V494.855Z" fill="#6C63FF"/>
<path opacity="0.5" d="M354.773 214.807H272.776V221.419H354.773V214.807Z" fill="#6C63FF"/>
<path opacity="0.5" d="M449.997 241.257H272.776V247.87H449.997V241.257Z" fill="#6C63FF"/>
<path opacity="0.5" d="M449.997 258.45H272.776V265.062H449.997V258.45Z" fill="#6C63FF"/>
<path opacity="0.4" d="M449.997 275.643H272.776V282.256H449.997V275.643Z" fill="#6C63FF"/>
<path opacity="0.4" d="M449.997 292.837H272.776V299.449H449.997V292.837Z" fill="#6C63FF"/>
<path opacity="0.3" d="M373.951 310.029H272.776V316.642H373.951V310.029Z" fill="#6C63FF"/>
<path opacity="0.3" d="M410.981 327.222H272.776V333.835H410.981V327.222Z" fill="#6C63FF"/>
<defs>
<linearGradient id="paint0_linear_0_3" x1="89.7963" y1="304.927" x2="231.292" y2="304.927" gradientUnits="userSpaceOnUse">
<stop stop-color="#808080" stop-opacity="0.251"/>
<stop offset="0.54" stop-color="#808080" stop-opacity="0.122"/>
<stop offset="1" stop-color="#808080" stop-opacity="0.102"/>
</linearGradient>
<linearGradient id="paint1_linear_0_3" x1="362.209" y1="503.509" x2="362.209" y2="149.257" gradientUnits="userSpaceOnUse">
<stop stop-color="#808080" stop-opacity="0.251"/>
<stop offset="0.54" stop-color="#808080" stop-opacity="0.122"/>
<stop offset="1" stop-color="#808080" stop-opacity="0.102"/>
</linearGradient>
</defs>
</svg>
