<svg xmlns="http://www.w3.org/2000/svg" width="25" height="28" viewBox="0 0 25 28" fill="none">
<g id="coding">
<path id="Path" d="M17.4819 8.28516V10.4062L22.8609 15.7852L17.4819 21.1642V23.2852L24.9819 15.7852L17.4819 8.28516Z" fill="#3D3691"/>
<path id="Path-2" d="M8.48193 23.2852V21.1642L3.10293 15.7852L8.48193 10.4062V8.28516L0.981934 15.7852L8.48193 23.2852Z" fill="#3D3691"/>
<path id="Path-3" d="M8.57422 27.3315L15.9517 3.79255L17.3827 4.24105L10.0052 27.78L8.57422 27.3315Z" fill="#3D3691"/>
<path id="Path-4" d="M10.7319 8.28516C11.1743 7.28028 11.9771 6.47756 12.9819 6.03516C11.9771 5.59276 11.1743 4.79003 10.7319 3.78516C10.2895 4.79003 9.48681 5.59276 8.48193 6.03516C9.48681 6.47756 10.2895 7.28028 10.7319 8.28516Z" fill="#3D3691"/>
<path id="Path-Copy" d="M14.6497 2.5792C14.8859 2.04347 15.314 1.61544 15.8497 1.3792C15.314 1.14296 14.8859 0.71493 14.6497 0.179199C14.4135 0.71493 13.9854 1.14296 13.4497 1.3792C13.9854 1.61544 14.4135 2.04347 14.6497 2.5792Z" fill="#3D3691"/>
<path id="Path-5" d="M21.9819 8.28516C22.2769 7.61524 22.812 7.08009 23.4819 6.78516C22.812 6.49022 22.2769 5.95507 21.9819 5.28516C21.687 5.95507 21.1518 6.49022 20.4819 6.78516C21.1518 7.08009 21.687 7.61524 21.9819 8.28516Z" fill="#3D3691"/>
</g>
</svg>