<svg width="1392" height="3483" viewBox="0 0 1392 3483" fill="none" xmlns="http://www.w3.org/2000/svg">
<g id="Lines">
<g id="Shape_homepage_-_4">
<path id="Path_1206" d="M53.6202 2846.33C185.423 3005.37 384.782 3050.19 384.782 3158.8C384.782 3267.41 164.439 3319.68 32.6362 3482.23" stroke="#3D3691" stroke-width="2"/>
</g>
<g id="Shape_homepage_-_3">
<path id="Path_1180" d="M1232.7 1588.86C1067.35 1664.68 923.068 1606.59 806.584 1741.03C690.1 1875.48 678.26 2239.31 917.408 2404.89C1128.33 2550.93 1267.9 2370.42 1383 2376" stroke="#3D3691" stroke-width="2"/>
</g>
<g id="Shape_homepage_-_2">
<path id="Path_1185" d="M1391 648.5C1215.66 560.453 1095.92 641.516 926.273 585.592C756.626 529.668 689.771 392.801 744.892 269.837C800.013 146.873 1079.57 147.55 1263.89 1.7373" stroke="#3D3691" stroke-width="2"/>
</g>
<g id="Shape_homepage_-_2-2">
<path id="Path_1185-2" d="M0.748047 629.86C176.085 717.907 323.972 642.566 493.619 698.49C663.266 754.414 730.121 891.281 675 1014.25C619.879 1137.21 340.322 1136.53 156 1282.35" stroke="#3D3691" stroke-width="2"/>
</g>
</g>
</svg>
